<svg xmlns="http://www.w3.org/2000/svg" xmlns:xlink="http://www.w3.org/1999/xlink" width="500" zoomAndPan="magnify" viewBox="0 0 375 374.999991" height="500" preserveAspectRatio="xMidYMid meet" version="1.0"><defs><g/><clipPath id="7c67a2b867"><path d="M 27 26.019531 L 259.5 26.019531 L 259.5 276 L 27 276 Z M 27 26.019531 " clip-rule="nonzero"/></clipPath><clipPath id="355dde99e9"><path d="M 36.433594 70.535156 L 114.433594 70.535156 L 114.433594 148.535156 L 36.433594 148.535156 Z M 36.433594 70.535156 " clip-rule="nonzero"/></clipPath><clipPath id="b0bea5f118"><path d="M 146.015625 37.449219 L 179.015625 37.449219 L 179.015625 70.449219 L 146.015625 70.449219 Z M 146.015625 37.449219 " clip-rule="nonzero"/></clipPath><clipPath id="a46aed0d61"><path d="M 236.164062 104.03125 L 282.664062 104.03125 L 282.664062 150.53125 L 236.164062 150.53125 Z M 236.164062 104.03125 " clip-rule="nonzero"/></clipPath></defs><g clip-path="url(#7c67a2b867)"><path fill="#840f9c" d="M 37.984375 231.269531 L 153.648438 103.3125 L 140.011719 146.53125 L 259.566406 26.242188 L 154.378906 166.742188 L 201.859375 132.042969 L 73.292969 275.097656 L 27.757812 259.757812 Z M 37.984375 231.269531 " fill-opacity="1" fill-rule="evenodd"/></g><path fill="#ff7afe" d="M 22.644531 220.675781 L 46.019531 238.816406 C 46.996094 239.546875 48.210938 239.546875 49.1875 238.9375 L 73.65625 222.136719 C 74.632812 221.527344 75.847656 221.527344 76.824219 222.257812 C 77.675781 222.988281 78.039062 224.207031 77.675781 225.300781 L 67.691406 253.183594 C 67.207031 254.277344 67.570312 255.496094 68.542969 256.226562 L 91.921875 274.246094 C 92.894531 274.976562 93.257812 276.195312 92.894531 277.289062 C 92.40625 278.386719 91.433594 279.117188 90.214844 279.117188 L 60.628906 278.140625 C 59.414062 278.140625 58.4375 278.871094 58.074219 279.96875 L 48.089844 307.847656 C 47.726562 308.945312 46.628906 309.675781 45.414062 309.675781 C 44.316406 309.550781 43.34375 308.820312 42.976562 307.726562 L 34.699219 279.238281 C 34.332031 278.140625 33.359375 277.289062 32.261719 277.289062 L 2.679688 276.4375 C 1.460938 276.4375 0.488281 275.707031 0.121094 274.488281 C -0.242188 273.394531 0.242188 272.175781 1.21875 271.566406 L 25.6875 254.886719 C 26.664062 254.277344 27.027344 253.0625 26.785156 251.964844 L 18.382812 223.597656 C 18.019531 222.378906 18.503906 221.285156 19.480469 220.554688 C 20.453125 219.824219 21.671875 219.945312 22.644531 220.675781 Z M 22.644531 220.675781 " fill-opacity="1" fill-rule="evenodd"/><g clip-path="url(#355dde99e9)"><path fill="#840f9c" d="M 114.179688 109.410156 C 85.023438 114.777344 80.671875 119.128906 75.304688 148.285156 C 69.9375 119.128906 65.585938 114.777344 36.433594 109.410156 C 65.585938 104.042969 69.9375 99.691406 75.304688 70.535156 C 80.671875 99.691406 85.023438 104.042969 114.179688 109.410156 Z M 114.179688 109.410156 " fill-opacity="1" fill-rule="nonzero"/></g><g clip-path="url(#b0bea5f118)"><path fill="#ff7afe" d="M 179.097656 53.988281 C 166.691406 56.269531 164.839844 58.121094 162.558594 70.527344 C 160.273438 58.121094 158.421875 56.269531 146.015625 53.988281 C 158.421875 51.703125 160.273438 49.851562 162.558594 37.449219 C 164.839844 49.851562 166.691406 51.703125 179.097656 53.988281 Z M 179.097656 53.988281 " fill-opacity="1" fill-rule="nonzero"/></g><g clip-path="url(#a46aed0d61)"><path fill="#840f9c" d="M 282.484375 127.191406 C 265.113281 130.386719 262.523438 132.980469 259.324219 150.351562 C 256.125 132.980469 253.535156 130.386719 236.164062 127.191406 C 253.535156 123.992188 256.125 121.398438 259.324219 104.03125 C 262.523438 121.398438 265.113281 123.992188 282.484375 127.191406 Z M 282.484375 127.191406 " fill-opacity="1" fill-rule="nonzero"/></g><path stroke-linecap="butt" transform="matrix(0.75, 0, 0, 0.75, 0.0000045, 335.476209)" fill="none" stroke-linejoin="miter" d="M -0.000006 1.000471 L 314.885431 1.000471 " stroke="#840f9c" stroke-width="2" stroke-opacity="1" stroke-miterlimit="4"/><g fill="#840f9c" fill-opacity="1"><g transform="translate(251.801544, 340.86836)"><g><path d="M 11.609375 -3.03125 C 10.78125 -2.640625 9.28125 -2.390625 7.921875 -2.390625 C 4.6875 -2.390625 3.65625 -4.296875 3.65625 -6.734375 C 3.65625 -9.15625 4.6875 -11.015625 7.921875 -11.015625 C 9.28125 -11.015625 10.78125 -10.78125 11.609375 -10.390625 L 11.609375 -13.09375 C 10.53125 -13.421875 9.15625 -13.578125 7.78125 -13.578125 C 3.453125 -13.578125 1.015625 -10.53125 1.015625 -6.703125 C 1.015625 -2.875 3.453125 0.15625 7.78125 0.15625 C 9.15625 0.15625 10.53125 -0.015625 11.609375 -0.328125 Z M 11.609375 -3.03125 "/></g></g></g><g fill="#840f9c" fill-opacity="1"><g transform="translate(264.298731, 340.86836)"><g><path d="M 6.296875 -2.359375 C 4.203125 -2.359375 3.328125 -3.765625 3.328125 -5.5 C 3.328125 -7.234375 4.203125 -8.640625 6.296875 -8.640625 C 8.375 -8.640625 9.265625 -7.234375 9.265625 -5.5 C 9.265625 -3.765625 8.375 -2.359375 6.296875 -2.359375 Z M 6.296875 0.109375 C 9.828125 0.109375 11.90625 -2.390625 11.90625 -5.5 C 11.90625 -8.609375 9.828125 -11.109375 6.296875 -11.109375 C 2.75 -11.109375 0.6875 -8.609375 0.6875 -5.5 C 0.6875 -2.390625 2.75 0.109375 6.296875 0.109375 Z M 6.296875 0.109375 "/></g></g></g><g fill="#840f9c" fill-opacity="1"><g transform="translate(276.883926, 340.86836)"><g><path d="M 18.484375 -5.9375 C 18.484375 -8.796875 16.671875 -11.109375 13.53125 -11.109375 C 11.84375 -11.109375 10.609375 -10.234375 9.90625 -8.890625 C 9.203125 -10.234375 7.96875 -11.109375 6.265625 -11.109375 C 3.125 -11.109375 1.3125 -8.796875 1.3125 -5.9375 L 1.3125 0 L 3.953125 0 L 3.953125 -5.9375 C 3.953125 -7.53125 4.703125 -8.640625 6.265625 -8.640625 C 7.828125 -8.640625 8.578125 -7.53125 8.578125 -5.9375 L 8.578125 0 L 11.21875 0 L 11.21875 -5.9375 C 11.21875 -7.53125 11.96875 -8.640625 13.53125 -8.640625 C 15.09375 -8.640625 15.84375 -7.53125 15.84375 -5.9375 L 15.84375 0 L 18.484375 0 Z M 18.484375 -5.9375 "/></g></g></g><g fill="#840f9c" fill-opacity="1"><g transform="translate(296.509788, 340.86836)"><g><path d="M 18.484375 -5.9375 C 18.484375 -8.796875 16.671875 -11.109375 13.53125 -11.109375 C 11.84375 -11.109375 10.609375 -10.234375 9.90625 -8.890625 C 9.203125 -10.234375 7.96875 -11.109375 6.265625 -11.109375 C 3.125 -11.109375 1.3125 -8.796875 1.3125 -5.9375 L 1.3125 0 L 3.953125 0 L 3.953125 -5.9375 C 3.953125 -7.53125 4.703125 -8.640625 6.265625 -8.640625 C 7.828125 -8.640625 8.578125 -7.53125 8.578125 -5.9375 L 8.578125 0 L 11.21875 0 L 11.21875 -5.9375 C 11.21875 -7.53125 11.96875 -8.640625 13.53125 -8.640625 C 15.09375 -8.640625 15.84375 -7.53125 15.84375 -5.9375 L 15.84375 0 L 18.484375 0 Z M 18.484375 -5.9375 "/></g></g></g><g fill="#840f9c" fill-opacity="1"><g transform="translate(316.135651, 340.86836)"><g><path d="M 9.265625 -5.5 C 9.265625 -3.34375 8.140625 -2.359375 6.34375 -2.359375 C 4.15625 -2.359375 3.328125 -3.765625 3.328125 -5.5 C 3.328125 -7.234375 4.1875 -8.640625 6.34375 -8.640625 C 8.3125 -8.640625 9.171875 -7.4375 9.265625 -5.5 Z M 12.78125 0 C 11.8125 -2.15625 11.953125 -4.375 11.90625 -5.5 C 11.765625 -8.9375 9.6875 -11.109375 6.34375 -11.109375 C 2.75 -11.109375 0.6875 -8.609375 0.6875 -5.515625 C 0.6875 -2.375 2.90625 0.109375 6.03125 0.109375 C 7.671875 0.109375 8.84375 -0.59375 9.59375 -1.6875 C 9.71875 -1.140625 9.90625 -0.578125 10.140625 0 Z M 12.78125 0 "/></g></g></g><g fill="#840f9c" fill-opacity="1"><g transform="translate(329.358903, 340.86836)"><g><path d="M 12.09375 -5.5 C 12.09375 -8.625 10.125 -11.109375 6.703125 -11.109375 C 3.296875 -11.109375 1.3125 -8.625 1.3125 -5.5 L 1.3125 0 L 3.953125 0 L 3.953125 -5.5 C 3.953125 -7.34375 4.84375 -8.640625 6.703125 -8.640625 C 8.578125 -8.640625 9.453125 -7.34375 9.453125 -5.5 L 9.453125 0 L 12.09375 0 Z M 12.09375 -5.5 "/></g></g></g><g fill="#840f9c" fill-opacity="1"><g transform="translate(342.604161, 340.86836)"><g><path d="M 9.265625 -5.5 C 9.265625 -3.34375 8.140625 -2.359375 6.34375 -2.359375 C 4.15625 -2.359375 3.328125 -3.765625 3.328125 -5.5 C 3.328125 -7.234375 4.15625 -8.640625 6.34375 -8.640625 C 8.140625 -8.640625 9.265625 -7.65625 9.265625 -5.5 Z M 9.265625 -15.40625 L 9.265625 -9.75 C 8.515625 -10.578125 7.453125 -11.109375 6.03125 -11.109375 C 2.90625 -11.109375 0.6875 -8.625 0.6875 -5.484375 C 0.6875 -2.546875 2.59375 0.109375 6.3125 0.109375 C 9.921875 0.109375 11.90625 -2.390625 11.90625 -5.5 L 11.90625 -15.40625 Z M 9.265625 -15.40625 "/></g></g></g><g fill="#840f9c" fill-opacity="1"><g transform="translate(355.827413, 340.86836)"><g><path d="M 0.8125 -0.359375 C 2.046875 -0.046875 3.875 0.125 5.03125 0.125 C 7.890625 0.125 10.140625 -0.921875 10.140625 -3.40625 C 10.140625 -5.8125 8.078125 -6.21875 5.921875 -6.640625 C 4.03125 -7.015625 3.4375 -7.171875 3.4375 -7.75 C 3.4375 -8.265625 3.953125 -8.578125 5.5 -8.578125 C 6.75 -8.578125 8.734375 -8.375 9.5625 -8.140625 L 9.5625 -10.625 C 8.40625 -10.9375 6.671875 -11.109375 5.59375 -11.109375 C 2.875 -11.109375 0.90625 -10.015625 0.90625 -7.65625 C 0.90625 -4.890625 3.71875 -4.546875 4.8125 -4.328125 C 7.21875 -3.875 7.609375 -3.71875 7.609375 -3.28125 C 7.609375 -2.65625 6.90625 -2.390625 5.171875 -2.390625 C 3.828125 -2.390625 1.828125 -2.546875 0.8125 -2.84375 Z M 0.8125 -0.359375 "/></g></g></g><g fill="#840f9c" fill-opacity="1"><g transform="translate(96.45649, 300.811679)"><g><path d="M 62.3125 -17.296875 C 56.546875 -27.171875 50.671875 -42.578125 47.453125 -51.78125 C 45.6875 -56.65625 42.578125 -60.53125 37.46875 -60.53125 L 33.265625 -60.53125 C 28.609375 -60.53125 25.28125 -55.984375 23.734375 -52.328125 L 11.96875 -23.171875 C 7.09375 -11.96875 1.21875 -12.53125 0.328125 -9.09375 C -0.546875 -5.984375 6.4375 -4.875 11.3125 -4.875 C 15.40625 -4.875 22.84375 -5.984375 23.953125 -8.53125 C 25.390625 -11.53125 19.625 -12.96875 18.40625 -18.515625 C 17.96875 -20.171875 17.515625 -24.84375 23.609375 -24.84375 L 34.265625 -24.84375 C 38.25 -24.84375 40.46875 -21.515625 40.796875 -20.0625 C 41.6875 -16.96875 42.015625 -14.40625 41.796875 -12.96875 C 41.46875 -11.09375 39.359375 -10.421875 40.359375 -8.765625 C 42.125 -5.4375 53.109375 -4.875 57.4375 -4.875 C 61.75 -4.875 71.40625 -5.4375 70.40625 -8.765625 C 69.734375 -11.53125 64.859375 -13.078125 62.3125 -17.296875 Z M 31.265625 -30.046875 L 26.0625 -30.046875 C 22.171875 -30.046875 21.734375 -31.375 23.0625 -35.484375 C 23.953125 -38.25 27.5 -46.5625 27.5 -46.5625 C 28.15625 -48.125 29.5 -48.125 30.15625 -46.90625 C 31.484375 -44.453125 33.59375 -40.46875 35.265625 -35.921875 C 36.8125 -31.703125 35.59375 -30.046875 31.265625 -30.046875 Z M 31.265625 -30.046875 "/></g></g></g><g fill="#840f9c" fill-opacity="1"><g transform="translate(167.633899, 300.811679)"><g><path d="M 46.234375 -11.75 C 43.90625 -13.859375 43.796875 -22.84375 43.796875 -29.15625 C 43.796875 -33.046875 43.796875 -36.484375 44.015625 -39.359375 C 44.578125 -48.015625 45.125 -55.546875 45.34375 -56.875 C 46.90625 -64.078125 36.8125 -58.65625 33.046875 -56.65625 C 29.15625 -54.65625 22.953125 -52.4375 22.5 -49.125 C 22.28125 -47.34375 23.84375 -46.5625 24.953125 -45.015625 C 26.28125 -43.359375 26.5 -41.6875 26.71875 -39.359375 C 23.953125 -41.796875 20.40625 -43.359375 16.625 -43.359375 C 7.421875 -43.359375 0 -34.703125 0 -24.0625 C 0 -13.53125 8.421875 -4.875 16.625 -4.875 C 23.84375 -4.875 25.9375 -6.09375 28.71875 -6.09375 C 31.484375 -6.09375 39.03125 -4.875 40.578125 -4.875 C 43.90625 -4.875 47.78125 -5.4375 48.234375 -8.765625 C 48.34375 -10.203125 47.234375 -10.75 46.234375 -11.75 Z M 22.5 -10.09375 C 10.859375 -15.640625 16.296875 -44.125 24.5 -36.8125 C 26.609375 -35.03125 26.9375 -32.046875 26.9375 -24.5 C 26.9375 -12.421875 25.0625 -8.875 22.5 -10.09375 Z M 22.5 -10.09375 "/></g></g></g><g fill="#840f9c" fill-opacity="1"><g transform="translate(216.415926, 300.811679)"><g><path d="M 56.109375 -43.359375 C 50.109375 -43.359375 46.234375 -37.703125 44.90625 -31.484375 L 44.90625 -31.265625 C 43.359375 -38.25 38.921875 -43.359375 32.265625 -43.359375 C 27.390625 -43.359375 23.953125 -39.578125 22.0625 -34.921875 L 22.84375 -39.796875 C 24.5 -46.90625 13.96875 -41.46875 10.09375 -39.578125 C 6.203125 -37.59375 0.4375 -35.265625 0 -31.9375 C -0.21875 -30.265625 1.328125 -29.375 2.4375 -27.9375 C 4.765625 -24.953125 4.328125 -13.859375 2 -11.75 C 1 -10.75 -0.21875 -10.203125 0 -8.765625 C 0.4375 -5.4375 8.53125 -4.875 12.859375 -4.875 C 17.1875 -4.875 25.71875 -5.4375 26.171875 -8.765625 C 26.390625 -10.09375 25.0625 -10.421875 24.0625 -11.53125 C 22.28125 -13.3125 21.625 -16.96875 21.28125 -20.84375 C 20.734375 -29.71875 28.390625 -43.015625 28.390625 -31.046875 L 28.390625 -15.75 C 28.390625 -6.65625 34.703125 -4.875 39.03125 -4.875 C 43.359375 -4.875 49.890625 -5.4375 50.34375 -8.765625 C 50.671875 -11.53125 45.6875 -11.09375 45.6875 -15.75 L 45.6875 -22.171875 C 45.6875 -31.9375 52.21875 -41.90625 52.21875 -31.046875 L 52.21875 -15.75 C 52.21875 -6.65625 60.765625 -4.875 65.078125 -4.875 C 69.40625 -4.875 75.84375 -5.4375 76.28125 -8.765625 C 76.5 -10.09375 75.0625 -10.421875 74.171875 -11.53125 C 66.640625 -19.84375 71.84375 -43.359375 56.109375 -43.359375 Z M 56.109375 -43.359375 "/></g></g></g><g fill="#840f9c" fill-opacity="1"><g transform="translate(293.691083, 300.811679)"><g><path d="M 11.53125 -43.359375 C 16.078125 -43.359375 19.734375 -47.015625 19.734375 -51.5625 C 19.734375 -56.109375 16.078125 -59.765625 11.53125 -59.765625 C 6.984375 -59.765625 3.328125 -56.109375 3.328125 -51.5625 C 3.328125 -47.015625 6.984375 -43.359375 11.53125 -43.359375 Z M 22.84375 -39.796875 C 24.5 -46.90625 13.96875 -41.46875 10.09375 -39.578125 C 6.203125 -37.59375 0.4375 -35.265625 0 -31.9375 C -0.21875 -30.265625 1.328125 -29.375 2.4375 -27.9375 C 4.765625 -24.953125 4.328125 -13.859375 2 -11.75 C 1 -10.75 -0.21875 -10.203125 0 -8.765625 C 0.4375 -5.4375 8.53125 -4.875 12.859375 -4.875 C 17.1875 -4.875 25.71875 -5.4375 26.171875 -8.765625 C 26.390625 -10.09375 25.0625 -10.421875 24.0625 -11.53125 C 18.953125 -16.859375 22.171875 -36.59375 22.84375 -39.796875 Z M 22.84375 -39.796875 "/></g></g></g><g fill="#840f9c" fill-opacity="1"><g transform="translate(320.410334, 300.811679)"><g><path d="M 32.265625 -43.359375 C 29.265625 -43.359375 24.953125 -41.25 22.28125 -36.484375 L 22.84375 -39.796875 C 24.5 -46.90625 13.96875 -41.46875 10.09375 -39.578125 C 6.203125 -37.59375 0.4375 -35.265625 0 -31.9375 C -0.21875 -30.265625 1.328125 -29.375 2.4375 -27.9375 C 4.765625 -24.953125 4.328125 -13.859375 2 -11.75 C 1 -10.75 -0.21875 -10.203125 0 -8.765625 C 0.4375 -5.4375 8.53125 -4.875 12.859375 -4.875 C 17.1875 -4.875 25.71875 -5.4375 26.171875 -8.765625 C 26.390625 -10.09375 25.0625 -10.421875 24.0625 -11.53125 C 21.953125 -13.75 21.28125 -18.296875 21.28125 -23.171875 C 21.171875 -32.484375 31.265625 -44.796875 31.265625 -31.046875 L 31.265625 -15.75 C 31.265625 -6.65625 38.921875 -4.875 43.234375 -4.875 C 47.5625 -4.875 54 -5.4375 54.4375 -8.765625 C 54.65625 -10.09375 53.328125 -10.53125 52.328125 -11.53125 C 47.015625 -16.96875 48.78125 -43.359375 32.265625 -43.359375 Z M 32.265625 -43.359375 "/></g></g></g><g fill="#ff7afe" fill-opacity="1"><g transform="translate(180.929115, 239.267743)"><g><path d="M 65.703125 -13.09375 C 59.671875 -19.765625 58.5 -56.9375 65.703125 -64 C 66.875 -65.046875 67.65625 -66.09375 67.796875 -67.140625 C 68.0625 -69.5 62.296875 -71.453125 57.578125 -71.453125 C 52.75 -71.453125 46.984375 -69.5 47.25 -67.140625 C 47.5 -66.09375 48.296875 -65.046875 49.34375 -64 C 54.703125 -58.765625 55.359375 -37.4375 53 -23.8125 C 42.140625 -33.25 45.9375 -71.453125 20.15625 -71.453125 L 10.203125 -71.453125 C 5.5 -71.453125 -0.265625 -69.5 0 -67.140625 C 0.125 -66.09375 0.921875 -65.046875 1.96875 -64 C 9.296875 -56.9375 7.984375 -19.765625 1.96875 -13.09375 C 1.046875 -12.046875 0.125 -11.125 0 -10.078125 C -0.265625 -7.59375 5.5 -5.765625 10.203125 -5.765625 C 15.046875 -5.765625 20.8125 -7.59375 20.421875 -10.078125 C 20.28125 -11.125 19.5 -12.046875 18.453125 -13.09375 C 14 -18.0625 12.046875 -40.046875 14.53125 -53.796875 C 21.46875 -43.3125 21.203125 -5.765625 54.4375 -5.765625 C 62.296875 -5.765625 68.0625 -7.59375 67.796875 -10.078125 C 67.65625 -11.125 66.75 -12.046875 65.703125 -13.09375 Z M 65.703125 -13.09375 "/></g></g></g><g fill="#ff7afe" fill-opacity="1"><g transform="translate(249.375666, 239.267743)"><g><path d="M 24.34375 -51.171875 C 10.859375 -51.171875 0 -40.96875 0 -28.40625 C 0 -15.828125 10.859375 -5.765625 24.34375 -5.765625 C 37.828125 -5.765625 48.8125 -15.828125 48.8125 -28.40625 C 48.8125 -40.96875 37.828125 -51.171875 24.34375 -51.171875 Z M 24.34375 -10.46875 C 21.328125 -10.46875 18.984375 -18.453125 18.984375 -28.140625 C 18.984375 -37.828125 21.328125 -45.671875 24.34375 -45.671875 C 27.359375 -45.671875 29.84375 -37.828125 29.84375 -28.140625 C 29.84375 -18.453125 27.359375 -10.46875 24.34375 -10.46875 Z M 24.34375 -10.46875 "/></g></g></g><g fill="#ff7afe" fill-opacity="1"><g transform="translate(299.369122, 239.267743)"><g><path d="M 38.078125 -51.171875 C 34.546875 -51.171875 29.453125 -48.6875 26.3125 -43.0625 L 26.953125 -46.984375 C 28.921875 -55.359375 16.484375 -48.953125 11.90625 -46.71875 C 7.328125 -44.359375 0.53125 -41.625 0 -37.6875 C -0.265625 -35.734375 1.578125 -34.6875 2.875 -32.984375 C 5.625 -29.453125 5.109375 -16.359375 2.359375 -13.875 C 1.171875 -12.6875 -0.265625 -12.046875 0 -10.34375 C 0.53125 -6.40625 10.078125 -5.765625 15.1875 -5.765625 C 20.28125 -5.765625 30.359375 -6.40625 30.890625 -10.34375 C 31.140625 -11.90625 29.578125 -12.296875 28.40625 -13.609375 C 25.90625 -16.234375 25.125 -21.59375 25.125 -27.359375 C 25 -38.34375 36.90625 -52.875 36.90625 -36.640625 L 36.90625 -18.578125 C 36.90625 -7.859375 45.9375 -5.765625 51.046875 -5.765625 C 56.140625 -5.765625 63.734375 -6.40625 64.265625 -10.34375 C 64.515625 -11.90625 62.953125 -12.4375 61.765625 -13.609375 C 55.484375 -20.03125 57.578125 -51.171875 38.078125 -51.171875 Z M 38.078125 -51.171875 "/></g></g></g></svg>