<svg xmlns="http://www.w3.org/2000/svg" xmlns:xlink="http://www.w3.org/1999/xlink" width="500" zoomAndPan="magnify" viewBox="0 0 375 374.999991" height="500" preserveAspectRatio="xMidYMid meet" version="1.0"><defs><g/><clipPath id="b001d20d1c"><path d="M 66.121094 0 L 309.121094 0 L 309.121094 238.5 L 66.121094 238.5 Z M 66.121094 0 " clip-rule="nonzero"/></clipPath><clipPath id="f430111b93"><path d="M 208.960938 27.398438 C 211.992188 27.398438 214.441406 29.84375 214.441406 32.871094 C 214.441406 35.898438 211.992188 38.34375 208.960938 38.34375 C 205.925781 38.34375 203.476562 35.898438 203.476562 32.871094 C 203.476562 29.84375 205.925781 27.398438 208.960938 27.398438 Z M 298.578125 116.398438 C 298.578125 119.132812 296.5625 121.382812 293.925781 121.789062 C 292.503906 142.042969 285.621094 160.816406 274.714844 176.640625 C 276.792969 178.632812 278.097656 181.417969 278.097656 184.527344 C 278.097656 190.570312 273.1875 195.472656 267.136719 195.472656 C 264.699219 195.472656 262.457031 194.648438 260.640625 193.308594 C 244.683594 208.832031 224.097656 219.617188 201.15625 223.34375 C 201.15625 223.449219 201.191406 223.550781 201.191406 223.65625 C 201.191406 231.84375 194.542969 238.472656 186.355469 238.472656 C 178.34375 238.472656 171.859375 232.113281 171.566406 224.191406 C 138.445312 220.710938 109.625 202.636719 91.6875 176.527344 C 90.589844 177.121094 89.367188 177.480469 88.039062 177.480469 C 83.757812 177.480469 80.28125 174.011719 80.28125 169.734375 C 80.28125 167 81.714844 164.601562 83.863281 163.226562 C 76.445312 148.375 72.257812 131.652344 72.257812 113.960938 C 72.257812 108.128906 72.769531 102.363281 73.679688 96.691406 C 69.304688 95.246094 66.121094 91.171875 66.121094 86.328125 C 66.121094 80.28125 71.03125 75.378906 77.085938 75.378906 C 77.808594 75.378906 78.519531 75.460938 79.207031 75.589844 C 89.167969 48.859375 109.265625 26.3125 135.84375 13.746094 C 135.902344 13.726562 135.960938 13.703125 136.03125 13.667969 C 135.808594 12.804688 135.65625 11.90625 135.65625 10.976562 C 135.65625 4.933594 140.566406 0.0273438 146.621094 0.0273438 C 151.03125 0.0273438 154.820312 2.648438 156.546875 6.398438 C 156.605469 6.386719 156.664062 6.363281 156.710938 6.351562 L 157.105469 7.972656 C 157.386719 8.925781 157.574219 9.917969 157.574219 10.964844 C 157.574219 13.039062 156.964844 14.960938 155.964844 16.601562 L 171.953125 28.714844 C 172.910156 27.886719 174.144531 27.375 175.511719 27.375 C 178.542969 27.375 180.992188 29.820312 180.992188 32.847656 C 180.992188 34.59375 180.164062 36.132812 178.882812 37.132812 L 191.792969 63.5 C 192.527344 63.265625 193.296875 63.105469 194.113281 63.105469 C 196.433594 63.105469 198.488281 64.140625 199.910156 65.746094 L 218.675781 53.695312 C 218.453125 53.089844 218.3125 52.449219 218.3125 51.773438 C 218.3125 48.746094 220.761719 46.296875 223.796875 46.296875 C 226.828125 46.296875 229.277344 48.746094 229.277344 51.773438 C 229.277344 52.925781 228.914062 53.984375 228.308594 54.871094 L 252.136719 79.992188 C 253.394531 79.117188 254.914062 78.59375 256.570312 78.59375 C 260.847656 78.59375 264.324219 82.0625 264.324219 86.339844 C 264.324219 90.214844 261.457031 93.40625 257.722656 93.964844 L 257.722656 138.863281 C 259.15625 139.070312 260.441406 139.675781 261.503906 140.5625 L 287.710938 117.222656 C 287.675781 116.957031 287.628906 116.6875 287.628906 116.410156 C 287.628906 113.378906 290.078125 110.933594 293.109375 110.933594 C 296.128906 110.921875 298.578125 113.367188 298.578125 116.398438 Z M 250.808594 91.460938 L 223.75 109.175781 C 223.761719 109.304688 223.785156 109.433594 223.785156 109.570312 C 223.785156 109.945312 223.75 110.304688 223.679688 110.65625 L 252.089844 140.167969 C 253.058594 139.480469 254.1875 139.023438 255.414062 138.851562 L 255.414062 93.941406 C 253.582031 93.675781 251.984375 92.777344 250.808594 91.460938 Z M 248.8125 146.46875 C 248.8125 144.683594 249.429688 143.078125 250.445312 141.761719 L 222.652344 112.878906 C 222.210938 113.449219 221.671875 113.925781 221.042969 114.289062 L 211.96875 149.9375 C 213.101562 150.414062 214.070312 151.160156 214.851562 152.082031 L 248.835938 146.558594 C 248.824219 146.523438 248.8125 146.5 248.8125 146.46875 Z M 152.546875 76.859375 C 150.585938 79.828125 147.226562 81.785156 143.402344 81.785156 C 141.011719 81.785156 138.828125 81.003906 137.023438 79.710938 L 116.9375 102.234375 C 118.6875 104.15625 119.785156 106.683594 119.808594 109.480469 L 139.785156 111.402344 C 141 104.449219 147.050781 99.136719 154.367188 99.136719 C 157.828125 99.136719 160.964844 100.371094 163.496094 102.351562 L 175.882812 88.910156 Z M 177.492188 87.175781 L 188.09375 75.671875 C 187.253906 74.621094 186.683594 73.375 186.472656 71.988281 L 154.25 71.988281 C 154.144531 72.980469 153.945312 73.933594 153.59375 74.820312 Z M 186.367188 128.777344 C 186.367188 128.378906 186.414062 127.984375 186.496094 127.613281 L 168.175781 119.296875 C 166.027344 124.839844 160.675781 128.777344 154.367188 128.777344 C 152.742188 128.777344 151.203125 128.449219 149.746094 127.972656 L 140.171875 150.824219 C 141.277344 151.613281 142.164062 152.6875 142.726562 153.945312 L 186.390625 129.019531 C 186.378906 128.929688 186.367188 128.859375 186.367188 128.777344 Z M 115.085938 118.574219 L 132.320312 150.125 C 133.335938 149.632812 134.457031 149.34375 135.65625 149.34375 C 136.519531 149.34375 137.335938 149.519531 138.117188 149.773438 L 147.625 127.085938 C 142.84375 124.628906 139.53125 119.703125 139.53125 113.960938 C 139.53125 113.871094 139.554688 113.777344 139.554688 113.683594 L 119.597656 111.761719 C 119.027344 114.578125 117.371094 116.992188 115.085938 118.574219 Z M 128.542969 160.152344 L 95.710938 168.875 C 95.746094 169.152344 95.792969 169.421875 95.792969 169.710938 L 147.0625 179.132812 C 148.113281 176.09375 150.972656 173.90625 154.367188 173.90625 C 155.625 173.90625 156.792969 174.230469 157.839844 174.753906 L 187.828125 132.46875 C 187.5 132.117188 187.230469 131.722656 187.011719 131.292969 L 143.320312 156.238281 C 143.355469 156.515625 143.402344 156.796875 143.402344 157.078125 C 143.402344 161.351562 139.925781 164.820312 135.644531 164.820312 C 132.472656 164.820312 129.734375 162.898438 128.542969 160.152344 Z M 191.851562 123.304688 C 193.308594 123.304688 194.625 123.886719 195.605469 124.816406 L 213.660156 112.449219 C 213.136719 111.609375 212.820312 110.632812 212.820312 109.570312 C 212.820312 109.070312 212.914062 108.605469 213.03125 108.140625 L 177.996094 90.019531 L 165.199219 103.902344 C 167.660156 106.542969 169.199219 110.0625 169.199219 113.960938 C 169.199219 115.035156 169.074219 116.082031 168.863281 117.082031 L 187.464844 125.527344 C 188.457031 124.1875 190.042969 123.304688 191.851562 123.304688 Z M 195.59375 132.746094 L 205.972656 149.925781 C 206.894531 149.542969 207.898438 149.332031 208.949219 149.332031 C 209.214844 149.332031 209.460938 149.378906 209.71875 149.414062 L 218.476562 115.023438 C 218.417969 115.023438 218.371094 115.035156 218.3125 115.035156 C 217.195312 115.035156 216.15625 114.695312 215.28125 114.113281 L 196.910156 126.679688 C 197.179688 127.320312 197.320312 128.019531 197.320312 128.753906 C 197.320312 130.347656 196.65625 131.757812 195.59375 132.746094 Z M 219.796875 104.332031 C 221.195312 104.726562 222.347656 105.648438 223.050781 106.882812 L 249.523438 89.539062 C 249.070312 88.550781 248.800781 87.46875 248.800781 86.316406 C 248.800781 84.519531 249.441406 82.878906 250.46875 81.574219 L 226.617188 56.429688 C 225.953125 56.828125 225.207031 57.082031 224.402344 57.175781 Z M 189.761719 77.253906 L 179.605469 88.269531 L 214.09375 106.113281 C 214.929688 105.101562 216.121094 104.390625 217.496094 104.191406 L 222.117188 56.964844 C 221.277344 56.699219 220.507812 56.257812 219.898438 55.640625 L 201.167969 67.679688 C 201.613281 68.648438 201.867188 69.71875 201.867188 70.847656 C 201.867188 75.121094 198.394531 78.59375 194.113281 78.59375 C 192.503906 78.582031 191.011719 78.09375 189.761719 77.253906 Z M 151.296875 63.277344 C 152.929688 64.980469 153.980469 67.214844 154.25 69.695312 L 186.484375 69.695312 C 186.8125 67.542969 188 65.667969 189.726562 64.476562 L 176.839844 38.15625 C 176.421875 38.261719 175.976562 38.332031 175.523438 38.332031 C 174.589844 38.332031 173.726562 38.078125 172.957031 37.667969 Z M 145.128906 60.074219 C 146.75 60.332031 148.253906 60.902344 149.546875 61.789062 L 171.183594 36.203125 C 170.472656 35.28125 170.015625 34.128906 170.015625 32.871094 C 170.015625 32.042969 170.214844 31.261719 170.542969 30.566406 L 154.5625 18.464844 C 152.6875 20.457031 150.085938 21.726562 147.15625 21.875 Z M 86.335938 80.503906 C 86.777344 81.203125 87.117188 81.949219 87.394531 82.738281 L 132.578125 72.1875 C 132.519531 71.746094 132.4375 71.304688 132.4375 70.835938 C 132.4375 64.992188 137.046875 60.25 142.832031 59.949219 L 144.882812 21.738281 C 143.167969 21.46875 141.59375 20.816406 140.253906 19.851562 Z M 81.402344 76.265625 C 82.71875 76.835938 83.910156 77.648438 84.898438 78.664062 L 138.539062 18.324219 C 137.851562 17.578125 137.277344 16.730469 136.824219 15.820312 C 110.839844 28.109375 91.175781 50.140625 81.402344 76.265625 Z M 87.222656 162.0625 L 77.550781 97.214844 C 77.390625 97.226562 77.25 97.261719 77.085938 97.261719 C 76.6875 97.261719 76.316406 97.191406 75.941406 97.144531 C 75.066406 102.65625 74.578125 108.269531 74.578125 113.9375 C 74.578125 131.304688 78.707031 147.714844 85.996094 162.28125 C 86.382812 162.175781 86.800781 162.109375 87.222656 162.0625 Z M 104.585938 119.65625 C 100.65625 117.992188 97.90625 114.101562 97.90625 109.570312 C 97.90625 103.527344 102.816406 98.625 108.867188 98.625 C 111.246094 98.625 113.441406 99.40625 115.246094 100.699219 L 135.320312 78.175781 C 134.339844 77.089844 133.582031 75.820312 133.09375 74.425781 L 87.910156 84.976562 C 87.96875 85.417969 88.050781 85.859375 88.050781 86.328125 C 88.050781 91.414062 84.550781 95.667969 79.828125 96.890625 L 89.566406 162.144531 C 90.230469 162.269531 90.847656 162.515625 91.429688 162.792969 Z M 93.414062 164.15625 C 94.148438 164.855469 94.742188 165.707031 95.152344 166.648438 L 127.984375 157.925781 C 127.949219 157.648438 127.902344 157.367188 127.902344 157.078125 C 127.902344 154.828125 128.871094 152.824219 130.410156 151.417969 L 113.078125 119.679688 C 111.785156 120.214844 110.359375 120.519531 108.867188 120.519531 C 108.15625 120.519531 107.46875 120.4375 106.792969 120.308594 Z M 172.363281 218.953125 L 93.683594 175.324219 C 111.234375 200.796875 139.367188 218.441406 171.707031 221.863281 C 171.824219 220.863281 172.046875 219.882812 172.363281 218.953125 Z M 176.523438 212.617188 L 158.074219 188.394531 C 156.964844 189 155.71875 189.371094 154.367188 189.371094 C 150.085938 189.371094 146.609375 185.902344 146.609375 181.625 C 146.609375 181.546875 146.632812 181.464844 146.632812 181.371094 L 95.421875 171.960938 C 95.269531 172.4375 95.082031 172.902344 94.847656 173.335938 L 173.257812 216.808594 C 174.097656 215.226562 175.195312 213.804688 176.523438 212.617188 Z M 190.390625 134.027344 C 190.160156 133.960938 189.914062 133.902344 189.691406 133.808594 L 159.730469 176.070312 C 161.199219 177.480469 162.121094 179.449219 162.121094 181.636719 C 162.121094 183.734375 161.28125 185.632812 159.917969 187.03125 L 178.332031 211.207031 C 180.570312 209.761719 183.21875 208.914062 186.066406 208.855469 Z M 190.425781 209.449219 L 205.472656 163.949219 C 202.953125 162.667969 201.203125 160.082031 201.203125 157.066406 C 201.203125 154.664062 202.3125 152.558594 204.027344 151.136719 L 193.625 133.914062 C 193.320312 134.015625 193.015625 134.097656 192.691406 134.144531 L 188.363281 209.007812 C 189.0625 209.113281 189.75 209.261719 190.425781 209.449219 Z M 251.949219 152.652344 C 250.679688 151.695312 249.722656 150.367188 249.222656 148.820312 L 216.144531 154.199219 C 216.507812 155.097656 216.714844 156.0625 216.714844 157.078125 C 216.714844 161.351562 213.242188 164.820312 208.960938 164.820312 C 208.515625 164.820312 208.085938 164.761719 207.652344 164.691406 L 192.597656 210.230469 C 194.019531 210.882812 195.300781 211.753906 196.433594 212.804688 Z M 258.960938 191.722656 C 258.890625 191.640625 258.820312 191.550781 258.75 191.46875 L 200.246094 218.542969 C 200.539062 219.347656 200.785156 220.175781 200.949219 221.035156 C 223.304688 217.367188 243.378906 206.851562 258.960938 191.722656 Z M 263.125 174.347656 L 257.488281 154.105469 C 257.175781 154.140625 256.871094 154.199219 256.558594 154.199219 C 255.671875 154.199219 254.832031 154.023438 254.039062 153.746094 L 197.960938 214.503906 C 198.453125 215.121094 198.871094 215.761719 199.257812 216.460938 L 257.445312 189.535156 C 256.648438 188.019531 256.160156 186.332031 256.160156 184.503906 C 256.183594 179.878906 259.066406 175.953125 263.125 174.347656 Z M 291.628906 121.636719 C 290.378906 121.289062 289.296875 120.53125 288.582031 119.484375 L 263.042969 142.226562 C 263.835938 143.4375 264.3125 144.894531 264.3125 146.457031 C 264.3125 149.601562 262.421875 152.300781 259.71875 153.511719 L 265.339844 173.742188 C 265.921875 173.648438 266.515625 173.554688 267.136719 173.554688 C 269.257812 173.554688 271.21875 174.183594 272.898438 175.222656 C 283.535156 159.765625 290.238281 141.425781 291.628906 121.636719 Z M 303.640625 70.835938 C 300.609375 70.835938 298.160156 73.28125 298.160156 76.3125 C 298.160156 79.339844 300.609375 81.785156 303.640625 81.785156 C 306.671875 81.785156 309.121094 79.339844 309.121094 76.3125 C 309.121094 73.292969 306.660156 70.835938 303.640625 70.835938 Z M 205.625 10.917969 C 210.054688 10.917969 210.066406 4.035156 205.625 4.035156 C 201.191406 4.035156 201.191406 10.917969 205.625 10.917969 Z M 263.125 50.675781 C 267.554688 50.675781 267.566406 43.792969 263.125 43.792969 C 258.691406 43.792969 258.679688 50.675781 263.125 50.675781 Z M 245.476562 27.398438 C 249.910156 27.398438 249.921875 20.515625 245.476562 20.515625 C 241.046875 20.515625 241.035156 27.398438 245.476562 27.398438 Z M 245.476562 27.398438 " clip-rule="nonzero"/></clipPath><linearGradient x1="1820.417456" gradientTransform="matrix(0.116631, 0, 0, 0.116461, 66.122493, 0.02881)" y1="2211.287505" x2="319.071454" gradientUnits="userSpaceOnUse" y2="-198.76593" id="1c288c812d"><stop stop-opacity="1" stop-color="rgb(7.516479%, 41.668701%, 71.578979%)" offset="0"/><stop stop-opacity="1" stop-color="rgb(7.397461%, 41.7099%, 71.612549%)" offset="0.03125"/><stop stop-opacity="1" stop-color="rgb(7.16095%, 41.793823%, 71.679688%)" offset="0.0625"/><stop stop-opacity="1" stop-color="rgb(6.924438%, 41.876221%, 71.7453%)" offset="0.09375"/><stop stop-opacity="1" stop-color="rgb(6.687927%, 41.958618%, 71.812439%)" offset="0.125"/><stop stop-opacity="1" stop-color="rgb(6.44989%, 42.042542%, 71.879578%)" offset="0.15625"/><stop stop-opacity="1" stop-color="rgb(6.213379%, 42.124939%, 71.946716%)" offset="0.1875"/><stop stop-opacity="1" stop-color="rgb(5.976868%, 42.207336%, 72.012329%)" offset="0.21875"/><stop stop-opacity="1" stop-color="rgb(5.740356%, 42.289734%, 72.079468%)" offset="0.25"/><stop stop-opacity="1" stop-color="rgb(5.503845%, 42.373657%, 72.146606%)" offset="0.28125"/><stop stop-opacity="1" stop-color="rgb(5.267334%, 42.456055%, 72.213745%)" offset="0.3125"/><stop stop-opacity="1" stop-color="rgb(5.030823%, 42.538452%, 72.279358%)" offset="0.34375"/><stop stop-opacity="1" stop-color="rgb(4.794312%, 42.62085%, 72.346497%)" offset="0.375"/><stop stop-opacity="1" stop-color="rgb(4.556274%, 42.704773%, 72.413635%)" offset="0.387981"/><stop stop-opacity="1" stop-color="rgb(4.438782%, 42.745972%, 72.447205%)" offset="0.40625"/><stop stop-opacity="1" stop-color="rgb(4.319763%, 42.78717%, 72.480774%)" offset="0.4375"/><stop stop-opacity="1" stop-color="rgb(4.083252%, 42.869568%, 72.546387%)" offset="0.46875"/><stop stop-opacity="1" stop-color="rgb(3.846741%, 42.953491%, 72.613525%)" offset="0.5"/><stop stop-opacity="1" stop-color="rgb(3.610229%, 43.035889%, 72.680664%)" offset="0.53125"/><stop stop-opacity="1" stop-color="rgb(3.373718%, 43.118286%, 72.747803%)" offset="0.5625"/><stop stop-opacity="1" stop-color="rgb(3.137207%, 43.200684%, 72.813416%)" offset="0.59375"/><stop stop-opacity="1" stop-color="rgb(2.900696%, 43.284607%, 72.880554%)" offset="0.612019"/><stop stop-opacity="1" stop-color="rgb(2.783203%, 43.325806%, 72.914124%)" offset="0.625"/><stop stop-opacity="1" stop-color="rgb(2.664185%, 43.367004%, 72.947693%)" offset="0.65625"/><stop stop-opacity="1" stop-color="rgb(2.426147%, 43.449402%, 73.014832%)" offset="0.6875"/><stop stop-opacity="1" stop-color="rgb(2.189636%, 43.531799%, 73.080444%)" offset="0.71875"/><stop stop-opacity="1" stop-color="rgb(1.953125%, 43.615723%, 73.147583%)" offset="0.75"/><stop stop-opacity="1" stop-color="rgb(1.716614%, 43.69812%, 73.214722%)" offset="0.78125"/><stop stop-opacity="1" stop-color="rgb(1.480103%, 43.780518%, 73.28186%)" offset="0.8125"/><stop stop-opacity="1" stop-color="rgb(1.243591%, 43.862915%, 73.347473%)" offset="0.84375"/><stop stop-opacity="1" stop-color="rgb(1.00708%, 43.946838%, 73.414612%)" offset="0.875"/><stop stop-opacity="1" stop-color="rgb(0.770569%, 44.029236%, 73.48175%)" offset="0.90625"/><stop stop-opacity="1" stop-color="rgb(0.532532%, 44.111633%, 73.548889%)" offset="0.9375"/><stop stop-opacity="1" stop-color="rgb(0.296021%, 44.195557%, 73.614502%)" offset="0.96875"/><stop stop-opacity="1" stop-color="rgb(0.088501%, 44.267273%, 73.674011%)" offset="1"/></linearGradient></defs><g clip-path="url(#b001d20d1c)"><g clip-path="url(#f430111b93)"><path fill="url(#1c288c812d)" d="M 66.121094 0.0273438 L 66.121094 238.472656 L 309.121094 238.472656 L 309.121094 0.0273438 Z M 66.121094 0.0273438 " fill-rule="nonzero"/></g></g><path stroke-linecap="butt" transform="matrix(1.317921, 0, 0, 1.317921, 6.997217, 247.974183)" fill="none" stroke-linejoin="miter" d="M 14.480998 39.644611 C 21.084674 39.644611 26.034468 35.035672 26.034468 28.482383 L 26.034468 11.001017 L 19.961338 11.001017 L 19.961338 28.197844 C 19.961338 31.674555 17.676134 33.921227 14.480998 33.921227 C 11.241403 33.921227 8.965091 31.674555 8.965091 28.197844 L 8.965091 11.001017 L 2.880105 11.001017 L 2.880105 28.482383 C 2.880105 35.035672 7.841754 39.644611 14.480998 39.644611 Z M 39.398909 39.644611 C 44.879249 39.644611 48.480446 36.763653 48.480446 32.359227 C 48.480446 27.077471 43.960425 26.36316 40.445183 25.719983 C 38.19851 25.316886 36.360863 24.958248 36.360863 23.520733 C 36.360863 22.281803 37.436776 21.481537 39.24182 21.481537 C 41.28398 21.481537 42.475487 22.320335 42.525875 24.039424 L 48.080313 24.039424 C 48.041782 19.723916 44.603602 16.801463 39.398909 16.801463 C 34.203108 16.801463 30.717505 19.643889 30.717505 23.716354 C 30.717505 28.805453 35.121932 29.721313 38.560112 30.317066 C 40.845316 30.678668 42.718531 31.120296 42.718531 32.60227 C 42.718531 34.039785 41.236557 34.80152 39.644917 34.80152 C 37.564226 34.80152 36.079288 33.844165 36.040756 31.920562 L 30.355904 31.920562 C 30.355904 36.52061 33.998596 39.644611 39.398909 39.644611 Z M 73.718464 28.159312 C 73.718464 21.920202 69.159912 16.801463 62.517704 16.801463 C 56.121504 16.801463 51.316945 21.724581 51.316945 28.197844 C 51.316945 34.682962 56.160036 39.644611 62.517704 39.644611 C 67.556416 39.644611 71.679268 36.636204 73.241268 31.920562 L 67.117752 31.920562 C 66.240423 33.482563 64.559865 34.439918 62.517704 34.439918 C 59.675278 34.439918 57.763532 32.797891 57.235949 29.839871 L 73.60287 29.839871 C 73.679933 29.282649 73.718464 28.716534 73.718464 28.159312 Z M 62.517704 21.801644 C 65.155618 21.801644 67.040689 23.239158 67.879486 25.885964 L 57.40193 25.885964 C 58.074746 23.316221 59.921286 21.801644 62.517704 21.801644 Z M 88.91759 17.281623 C 86.113695 17.281623 84.201948 18.158951 82.639948 20.082554 L 81.602566 17.397217 L 77.882811 17.397217 L 77.882811 39.001434 L 83.721789 39.001434 L 83.721789 27.797711 C 83.721789 24.282468 85.002214 22.79753 88.283305 22.79753 L 90.841192 22.79753 L 90.841192 17.281623 Z M 122.676958 39.001434 L 129.280635 39.001434 L 117.961317 11.001017 L 112.237933 11.001017 L 101.241686 39.001434 L 107.676417 39.001434 L 109.602983 33.716715 L 120.723717 33.716715 Z M 115.157422 18.404959 L 118.838646 28.443851 L 111.476199 28.443851 Z M 142.482059 39.644611 C 148.116525 39.644611 152.559483 35.963387 153.555369 30.524543 L 147.67786 30.524543 C 146.681974 32.836422 144.835434 34.116848 142.482059 34.116848 C 139.358058 34.116848 136.915765 31.520429 136.915765 28.197844 C 136.915765 24.83969 139.316563 22.281803 142.482059 22.281803 C 144.796903 22.281803 146.759036 23.559265 147.67786 25.678488 L 153.478307 25.678488 C 152.443889 20.358201 148.116525 16.801463 142.520591 16.801463 C 135.95841 16.801463 130.996761 21.677158 130.996761 28.159312 C 130.996761 34.644431 135.95841 39.644611 142.482059 39.644611 Z M 167.482961 39.644611 C 173.117427 39.644611 177.560385 35.963387 178.556271 30.524543 L 172.675798 30.524543 C 171.679912 32.836422 169.836336 34.116848 167.482961 34.116848 C 164.355996 34.116848 161.916667 31.520429 161.916667 28.197844 C 161.916667 24.83969 164.317465 22.281803 167.482961 22.281803 C 169.794841 22.281803 171.759938 23.559265 172.675798 25.678488 L 178.479209 25.678488 C 177.441827 20.358201 173.117427 16.801463 167.521493 16.801463 C 160.959312 16.801463 155.997662 21.677158 155.997662 28.159312 C 155.997662 34.644431 160.959312 39.644611 167.482961 39.644611 Z M 192.67652 39.644611 C 199.357259 39.644611 204.357439 34.721493 204.357439 28.197844 C 204.357439 21.677158 199.357259 16.801463 192.67652 16.801463 C 185.995781 16.801463 180.998564 21.677158 180.998564 28.197844 C 180.998564 34.721493 185.995781 39.644611 192.67652 39.644611 Z M 192.67652 34.116848 C 189.318367 34.116848 186.914605 31.724942 186.914605 28.197844 C 186.914605 24.724096 189.318367 22.281803 192.67652 22.281803 C 196.037637 22.281803 198.438435 24.724096 198.438435 28.197844 C 198.438435 31.724942 196.037637 34.116848 192.67652 34.116848 Z M 218.397661 39.644611 C 224.518214 39.644611 228.564003 35.71738 228.564003 29.878402 L 228.564003 17.397217 L 222.722061 17.397217 L 222.722061 29.244117 C 222.722061 32.282164 221.121529 34.116848 218.397661 34.116848 C 215.721216 34.116848 214.079189 32.320695 214.079189 29.244117 L 214.079189 17.397217 L 208.240211 17.397217 L 208.240211 29.878402 C 208.240211 35.71738 212.321568 39.644611 218.397661 39.644611 Z M 246.157999 16.920021 C 243.23851 16.920021 240.639127 18.158951 239.000064 20.082554 L 237.876728 17.397217 L 233.881326 17.397217 L 233.881326 39.001434 L 239.723268 39.001434 L 239.723268 27.682117 C 239.723268 24.196514 241.557951 22.035796 244.557467 22.035796 C 247.076823 22.035796 248.315753 23.60076 248.315753 26.881851 L 248.315753 39.001434 L 254.154731 39.001434 L 254.154731 25.924495 C 254.154731 20.435264 251.081117 16.920021 246.157999 16.920021 Z M 270.080024 33.805633 C 267.922269 33.805633 266.718907 32.60227 266.718907 30.524543 L 266.718907 22.115822 L 272.59938 22.115822 L 272.59938 17.397217 L 266.641844 17.397217 L 266.641844 11.801283 L 265.518508 11.801283 L 257.003085 20.835397 L 257.003085 22.115822 L 260.879929 22.115822 L 260.879929 31.324809 C 260.879929 36.078981 263.799418 39.001434 268.556554 39.001434 L 272.714973 39.001434 L 272.714973 33.805633 Z M 270.080024 33.805633 " stroke="#fd00b6" stroke-width="3.000022" stroke-opacity="1" stroke-miterlimit="4"/><g fill="#fad953" fill-opacity="1"><g transform="translate(6.997217, 299.37311)"><g><path d="M 19.078125 0.84375 C 27.78125 0.84375 34.3125 -5.21875 34.3125 -13.859375 L 34.3125 -36.90625 L 26.3125 -36.90625 L 26.3125 -14.234375 C 26.3125 -9.640625 23.296875 -6.6875 19.078125 -6.6875 C 14.8125 -6.6875 11.8125 -9.640625 11.8125 -14.234375 L 11.8125 -36.90625 L 3.796875 -36.90625 L 3.796875 -13.859375 C 3.796875 -5.21875 10.328125 0.84375 19.078125 0.84375 Z M 19.078125 0.84375 "/></g></g></g><g fill="#fad953" fill-opacity="1"><g transform="translate(45.164183, 299.37311)"><g><path d="M 13.765625 0.84375 C 20.984375 0.84375 25.734375 -2.953125 25.734375 -8.75 C 25.734375 -15.703125 19.765625 -16.65625 15.125 -17.5 C 12.171875 -18.03125 9.75 -18.5 9.75 -20.40625 C 9.75 -22.03125 11.171875 -23.09375 13.546875 -23.09375 C 16.234375 -23.09375 17.8125 -21.984375 17.875 -19.71875 L 25.203125 -19.71875 C 25.140625 -25.40625 20.609375 -29.265625 13.765625 -29.265625 C 6.90625 -29.265625 2.3125 -25.515625 2.3125 -20.140625 C 2.3125 -13.4375 8.125 -12.234375 12.65625 -11.4375 C 15.65625 -10.96875 18.140625 -10.390625 18.140625 -8.4375 C 18.140625 -6.53125 16.1875 -5.53125 14.078125 -5.53125 C 11.328125 -5.53125 9.390625 -6.796875 9.328125 -9.328125 L 1.84375 -9.328125 C 1.84375 -3.265625 6.640625 0.84375 13.765625 0.84375 Z M 13.765625 0.84375 "/></g></g></g><g fill="#fad953" fill-opacity="1"><g transform="translate(72.840509, 299.37311)"><g><path d="M 31.3125 -14.28125 C 31.3125 -22.515625 25.3125 -29.265625 16.546875 -29.265625 C 8.125 -29.265625 1.796875 -22.78125 1.796875 -14.234375 C 1.796875 -5.6875 8.171875 0.84375 16.546875 0.84375 C 23.203125 0.84375 28.625 -3.109375 30.6875 -9.328125 L 22.609375 -9.328125 C 21.453125 -7.28125 19.25 -6.015625 16.546875 -6.015625 C 12.8125 -6.015625 10.28125 -8.171875 9.59375 -12.078125 L 31.15625 -12.078125 C 31.265625 -12.8125 31.3125 -13.546875 31.3125 -14.28125 Z M 16.546875 -22.671875 C 20.03125 -22.671875 22.515625 -20.765625 23.625 -17.296875 L 9.8125 -17.296875 C 10.703125 -20.671875 13.125 -22.671875 16.546875 -22.671875 Z M 16.546875 -22.671875 "/></g></g></g><g fill="#fad953" fill-opacity="1"><g transform="translate(105.946663, 299.37311)"><g><path d="M 18.234375 -28.625 C 14.546875 -28.625 12.015625 -27.46875 9.96875 -24.9375 L 8.59375 -28.46875 L 3.6875 -28.46875 L 3.6875 0 L 11.390625 0 L 11.390625 -14.765625 C 11.390625 -19.40625 13.078125 -21.34375 17.390625 -21.34375 L 20.765625 -21.34375 L 20.765625 -28.625 Z M 18.234375 -28.625 "/></g></g></g><g fill="#fad953" fill-opacity="1"><g transform="translate(127.402398, 299.37311)"><g/></g></g><g fill="#fad953" fill-opacity="1"><g transform="translate(140.001722, 299.37311)"><g><path d="M 28.671875 0 L 37.375 0 L 22.453125 -36.90625 L 14.921875 -36.90625 L 0.421875 0 L 8.90625 0 L 11.4375 -6.953125 L 26.09375 -6.953125 Z M 18.765625 -27.15625 L 23.625 -13.921875 L 13.921875 -13.921875 Z M 18.765625 -27.15625 "/></g></g></g><g fill="#fad953" fill-opacity="1"><g transform="translate(177.852381, 299.37311)"><g><path d="M 16.921875 0.84375 C 24.359375 0.84375 30.203125 -4 31.53125 -11.171875 L 23.78125 -11.171875 C 22.453125 -8.125 20.03125 -6.4375 16.921875 -6.4375 C 12.8125 -6.4375 9.59375 -9.859375 9.59375 -14.234375 C 9.59375 -18.65625 12.765625 -22.03125 16.921875 -22.03125 C 19.984375 -22.03125 22.5625 -20.34375 23.78125 -17.5625 L 31.421875 -17.5625 C 30.046875 -24.5625 24.359375 -29.265625 16.96875 -29.265625 C 8.328125 -29.265625 1.796875 -22.828125 1.796875 -14.28125 C 1.796875 -5.75 8.328125 0.84375 16.921875 0.84375 Z M 16.921875 0.84375 "/></g></g></g><g fill="#fad953" fill-opacity="1"><g transform="translate(210.80037, 299.37311)"><g><path d="M 16.921875 0.84375 C 24.359375 0.84375 30.203125 -4 31.53125 -11.171875 L 23.78125 -11.171875 C 22.453125 -8.125 20.03125 -6.4375 16.921875 -6.4375 C 12.8125 -6.4375 9.59375 -9.859375 9.59375 -14.234375 C 9.59375 -18.65625 12.765625 -22.03125 16.921875 -22.03125 C 19.984375 -22.03125 22.5625 -20.34375 23.78125 -17.5625 L 31.421875 -17.5625 C 30.046875 -24.5625 24.359375 -29.265625 16.96875 -29.265625 C 8.328125 -29.265625 1.796875 -22.828125 1.796875 -14.28125 C 1.796875 -5.75 8.328125 0.84375 16.921875 0.84375 Z M 16.921875 0.84375 "/></g></g></g><g fill="#fad953" fill-opacity="1"><g transform="translate(243.748359, 299.37311)"><g><path d="M 17.1875 0.84375 C 25.984375 0.84375 32.578125 -5.640625 32.578125 -14.234375 C 32.578125 -22.828125 25.984375 -29.265625 17.1875 -29.265625 C 8.375 -29.265625 1.796875 -22.828125 1.796875 -14.234375 C 1.796875 -5.640625 8.375 0.84375 17.1875 0.84375 Z M 17.1875 -6.4375 C 12.765625 -6.4375 9.59375 -9.59375 9.59375 -14.234375 C 9.59375 -18.828125 12.765625 -22.03125 17.1875 -22.03125 C 21.609375 -22.03125 24.78125 -18.828125 24.78125 -14.234375 C 24.78125 -9.59375 21.609375 -6.4375 17.1875 -6.4375 Z M 17.1875 -6.4375 "/></g></g></g><g fill="#fad953" fill-opacity="1"><g transform="translate(278.172434, 299.37311)"><g><path d="M 16.65625 0.84375 C 24.71875 0.84375 30.046875 -4.328125 30.046875 -12.015625 L 30.046875 -28.46875 L 22.359375 -28.46875 L 22.359375 -12.859375 C 22.359375 -8.859375 20.25 -6.4375 16.65625 -6.4375 C 13.125 -6.4375 10.96875 -8.796875 10.96875 -12.859375 L 10.96875 -28.46875 L 3.265625 -28.46875 L 3.265625 -12.015625 C 3.265625 -4.328125 8.640625 0.84375 16.65625 0.84375 Z M 16.65625 0.84375 "/></g></g></g><g fill="#fad953" fill-opacity="1"><g transform="translate(311.542169, 299.37311)"><g><path d="M 19.875 -29.09375 C 16.03125 -29.09375 12.59375 -27.46875 10.4375 -24.9375 L 8.96875 -28.46875 L 3.6875 -28.46875 L 3.6875 0 L 11.390625 0 L 11.390625 -14.921875 C 11.390625 -19.5 13.8125 -22.359375 17.765625 -22.359375 C 21.09375 -22.359375 22.71875 -20.296875 22.71875 -15.96875 L 22.71875 0 L 30.421875 0 L 30.421875 -17.234375 C 30.421875 -24.46875 26.359375 -29.09375 19.875 -29.09375 Z M 19.875 -29.09375 "/></g></g></g><g fill="#fad953" fill-opacity="1"><g transform="translate(345.333628, 299.37311)"><g><path d="M 17.609375 -6.859375 C 14.765625 -6.859375 13.171875 -8.4375 13.171875 -11.171875 L 13.171875 -22.25 L 20.921875 -22.25 L 20.921875 -28.46875 L 13.078125 -28.46875 L 13.078125 -35.84375 L 11.59375 -35.84375 L 0.375 -23.9375 L 0.375 -22.25 L 5.484375 -22.25 L 5.484375 -10.125 C 5.484375 -3.84375 9.328125 0 15.609375 0 L 21.09375 0 L 21.09375 -6.859375 Z M 17.609375 -6.859375 "/></g></g></g><path stroke-linecap="butt" transform="matrix(1.071138, 0, 0, 1.071138, 43.638386, 311.226834)" fill="none" stroke-linejoin="miter" d="M 59.525546 47.791371 C 68.04088 47.791371 74.732801 42.073151 76.308229 33.568758 L 68.788478 33.568758 C 67.548558 37.893891 64.054901 40.658183 59.525546 40.658183 C 53.672394 40.658183 49.299853 36.030364 49.299853 29.819824 C 49.299853 23.620223 53.672394 18.948642 59.525546 18.948642 C 63.86162 18.948642 67.307868 21.505066 68.726482 25.542099 L 76.162356 25.542099 C 74.590575 17.373214 67.898653 11.811808 59.525546 11.811808 C 49.39467 11.811808 41.718106 19.59413 41.718106 29.819824 C 41.718106 40.009049 49.39467 47.791371 59.525546 47.791371 Z M 93.772867 47.791371 C 101.989161 47.791371 108.141352 41.737643 108.141352 33.710984 C 108.141352 25.687972 101.989161 19.692594 93.772867 19.692594 C 85.552927 19.692594 79.400735 25.687972 79.400735 33.710984 C 79.400735 41.737643 85.552927 47.791371 93.772867 47.791371 Z M 93.772867 40.993691 C 89.637369 40.993691 86.683442 38.050705 86.683442 33.710984 C 86.683442 29.436907 89.637369 26.431924 93.772867 26.431924 C 97.904718 26.431924 100.858646 29.436907 100.858646 33.710984 C 100.858646 38.050705 97.904718 40.993691 93.772867 40.993691 Z M 128.410398 19.83482 C 124.818277 19.83482 121.623659 21.36284 119.606966 23.729628 L 118.22482 20.425606 L 113.308902 20.425606 L 113.308902 47.00001 L 120.493144 47.00001 L 120.493144 33.076437 C 120.493144 28.787772 122.754175 26.132885 126.441114 26.132885 C 129.540914 26.132885 131.068933 28.054761 131.068933 32.091795 L 131.068933 47.00001 L 138.253175 47.00001 L 138.253175 30.913871 C 138.253175 24.159953 134.467772 19.83482 128.410398 19.83482 Z M 157.836618 40.607128 C 155.181731 40.607128 153.704767 39.130164 153.704767 36.570094 L 153.704767 26.227702 L 160.936418 26.227702 L 160.936418 20.425606 L 153.606303 20.425606 L 153.606303 13.540403 L 152.227804 13.540403 L 141.750479 24.652274 L 141.750479 26.227702 L 146.520525 26.227702 L 146.520525 37.558383 C 146.520525 43.407889 150.112646 47.00001 155.962151 47.00001 L 161.082291 47.00001 L 161.082291 40.607128 Z M 179.582628 20.279733 C 176.136379 20.279733 173.780531 21.36284 171.858655 23.729628 L 170.585914 20.425606 L 166.005503 20.425606 L 166.005503 47.00001 L 173.189746 47.00001 L 173.189746 33.218663 C 173.189746 28.89353 174.765174 27.070119 178.802208 27.070119 L 181.949416 27.070119 L 181.949416 20.279733 Z M 198.622694 47.791371 C 206.842635 47.791371 212.991179 41.737643 212.991179 33.710984 C 212.991179 25.687972 206.842635 19.692594 198.622694 19.692594 C 190.4064 19.692594 184.254209 25.687972 184.254209 33.710984 C 184.254209 41.737643 190.4064 47.791371 198.622694 47.791371 Z M 198.622694 40.993691 C 194.490843 40.993691 191.533269 38.050705 191.533269 33.710984 C 191.533269 29.436907 194.490843 26.431924 198.622694 26.431924 C 202.754545 26.431924 205.712119 29.436907 205.712119 33.710984 C 205.712119 38.050705 202.754545 40.993691 198.622694 40.993691 Z M 218.162375 47.00001 L 225.346618 47.00001 L 225.346618 10.885515 L 218.162375 10.885515 Z M 218.162375 47.00001 " stroke="#fd00b6" stroke-width="3.691207" stroke-opacity="1" stroke-miterlimit="4"/><g fill="#fad953" fill-opacity="1"><g transform="translate(86.266316, 361.570302)"><g><path d="M 21.140625 0.84375 C 30.25 0.84375 37.421875 -5.265625 39.109375 -14.390625 L 31.046875 -14.390625 C 29.71875 -9.75 25.984375 -6.796875 21.140625 -6.796875 C 14.859375 -6.796875 10.171875 -11.75 10.171875 -18.390625 C 10.171875 -25.03125 14.859375 -30.046875 21.140625 -30.046875 C 25.765625 -30.046875 29.46875 -27.296875 30.984375 -22.984375 L 38.953125 -22.984375 C 37.265625 -31.734375 30.09375 -37.6875 21.140625 -37.6875 C 10.28125 -37.6875 2.0625 -29.359375 2.0625 -18.390625 C 2.0625 -7.484375 10.28125 0.84375 21.140625 0.84375 Z M 21.140625 0.84375 "/></g></g></g><g fill="#fad953" fill-opacity="1"><g transform="translate(126.900604, 361.570302)"><g><path d="M 17.1875 0.84375 C 25.984375 0.84375 32.578125 -5.640625 32.578125 -14.234375 C 32.578125 -22.828125 25.984375 -29.25 17.1875 -29.25 C 8.375 -29.25 1.796875 -22.828125 1.796875 -14.234375 C 1.796875 -5.640625 8.375 0.84375 17.1875 0.84375 Z M 17.1875 -6.4375 C 12.75 -6.4375 9.59375 -9.59375 9.59375 -14.234375 C 9.59375 -18.8125 12.75 -22.03125 17.1875 -22.03125 C 21.609375 -22.03125 24.765625 -18.8125 24.765625 -14.234375 C 24.765625 -9.59375 21.609375 -6.4375 17.1875 -6.4375 Z M 17.1875 -6.4375 "/></g></g></g><g fill="#fad953" fill-opacity="1"><g transform="translate(161.315902, 361.570302)"><g><path d="M 19.875 -29.09375 C 16.015625 -29.09375 12.59375 -27.453125 10.4375 -24.921875 L 8.953125 -28.453125 L 3.6875 -28.453125 L 3.6875 0 L 11.390625 0 L 11.390625 -14.921875 C 11.390625 -19.5 13.8125 -22.34375 17.765625 -22.34375 C 21.078125 -22.34375 22.71875 -20.296875 22.71875 -15.96875 L 22.71875 0 L 30.40625 0 L 30.40625 -17.234375 C 30.40625 -24.453125 26.359375 -29.09375 19.875 -29.09375 Z M 19.875 -29.09375 "/></g></g></g><g fill="#fad953" fill-opacity="1"><g transform="translate(195.098757, 361.570302)"><g><path d="M 17.609375 -6.84375 C 14.75 -6.84375 13.171875 -8.4375 13.171875 -11.171875 L 13.171875 -22.234375 L 20.921875 -22.234375 L 20.921875 -28.453125 L 13.078125 -28.453125 L 13.078125 -35.84375 L 11.59375 -35.84375 L 0.375 -23.921875 L 0.375 -22.234375 L 5.484375 -22.234375 L 5.484375 -10.125 C 5.484375 -3.84375 9.328125 0 15.59375 0 L 21.078125 0 L 21.078125 -6.84375 Z M 17.609375 -6.84375 "/></g></g></g><g fill="#fad953" fill-opacity="1"><g transform="translate(217.761206, 361.570302)"><g><path d="M 18.234375 -28.625 C 14.546875 -28.625 12.015625 -27.453125 9.953125 -24.921875 L 8.59375 -28.453125 L 3.6875 -28.453125 L 3.6875 0 L 11.390625 0 L 11.390625 -14.75 C 11.390625 -19.390625 13.078125 -21.34375 17.390625 -21.34375 L 20.765625 -21.34375 L 20.765625 -28.625 Z M 18.234375 -28.625 "/></g></g></g><g fill="#fad953" fill-opacity="1"><g transform="translate(239.211466, 361.570302)"><g><path d="M 17.1875 0.84375 C 25.984375 0.84375 32.578125 -5.640625 32.578125 -14.234375 C 32.578125 -22.828125 25.984375 -29.25 17.1875 -29.25 C 8.375 -29.25 1.796875 -22.828125 1.796875 -14.234375 C 1.796875 -5.640625 8.375 0.84375 17.1875 0.84375 Z M 17.1875 -6.4375 C 12.75 -6.4375 9.59375 -9.59375 9.59375 -14.234375 C 9.59375 -18.8125 12.75 -22.03125 17.1875 -22.03125 C 21.609375 -22.03125 24.765625 -18.8125 24.765625 -14.234375 C 24.765625 -9.59375 21.609375 -6.4375 17.1875 -6.4375 Z M 17.1875 -6.4375 "/></g></g></g><g fill="#fad953" fill-opacity="1"><g transform="translate(273.626763, 361.570302)"><g><path d="M 3.6875 0 L 11.390625 0 L 11.390625 -38.6875 L 3.6875 -38.6875 Z M 3.6875 0 "/></g></g></g></svg>