<svg xmlns="http://www.w3.org/2000/svg" xmlns:xlink="http://www.w3.org/1999/xlink" width="500" zoomAndPan="magnify" viewBox="0 0 375 374.999991" height="500" preserveAspectRatio="xMidYMid meet" version="1.0"><defs><g/><clipPath id="e681aac301"><path d="M 66.125 0 L 309.125 0 L 309.125 238.5 L 66.125 238.5 Z M 66.125 0 " clip-rule="nonzero"/></clipPath><clipPath id="905b58cdb3"><path d="M 208.960938 27.398438 C 211.996094 27.398438 214.445312 29.84375 214.445312 32.871094 C 214.445312 35.898438 211.996094 38.34375 208.960938 38.34375 C 205.929688 38.34375 203.480469 35.898438 203.480469 32.871094 C 203.480469 29.84375 205.929688 27.398438 208.960938 27.398438 Z M 298.582031 116.398438 C 298.582031 119.132812 296.5625 121.382812 293.929688 121.789062 C 292.503906 142.042969 285.625 160.816406 274.71875 176.640625 C 276.796875 178.632812 278.101562 181.417969 278.101562 184.527344 C 278.101562 190.570312 273.191406 195.472656 267.136719 195.472656 C 264.699219 195.472656 262.460938 194.648438 260.640625 193.308594 C 244.6875 208.832031 224.101562 219.617188 201.160156 223.34375 C 201.160156 223.449219 201.195312 223.550781 201.195312 223.65625 C 201.195312 231.84375 194.546875 238.472656 186.359375 238.472656 C 178.347656 238.472656 171.863281 232.113281 171.570312 224.191406 C 138.449219 220.710938 109.628906 202.636719 91.691406 176.527344 C 90.59375 177.121094 89.371094 177.480469 88.039062 177.480469 C 83.757812 177.480469 80.285156 174.011719 80.285156 169.734375 C 80.285156 167 81.71875 164.601562 83.863281 163.226562 C 76.445312 148.375 72.261719 131.652344 72.261719 113.960938 C 72.261719 108.128906 72.773438 102.363281 73.683594 96.691406 C 69.308594 95.246094 66.125 91.171875 66.125 86.328125 C 66.125 80.28125 71.035156 75.378906 77.089844 75.378906 C 77.8125 75.378906 78.523438 75.460938 79.210938 75.589844 C 89.171875 48.859375 109.265625 26.3125 135.847656 13.746094 C 135.90625 13.722656 135.964844 13.703125 136.035156 13.667969 C 135.8125 12.804688 135.660156 11.90625 135.660156 10.976562 C 135.660156 4.933594 140.570312 0.0273438 146.625 0.0273438 C 151.03125 0.0273438 154.824219 2.648438 156.550781 6.398438 C 156.605469 6.386719 156.664062 6.363281 156.710938 6.351562 L 157.109375 7.972656 C 157.386719 8.925781 157.574219 9.917969 157.574219 10.964844 C 157.574219 13.039062 156.96875 14.960938 155.964844 16.601562 L 171.957031 28.714844 C 172.914062 27.886719 174.148438 27.375 175.511719 27.375 C 178.546875 27.375 180.996094 29.820312 180.996094 32.847656 C 180.996094 34.59375 180.167969 36.132812 178.882812 37.132812 L 191.792969 63.5 C 192.53125 63.265625 193.300781 63.105469 194.117188 63.105469 C 196.4375 63.105469 198.488281 64.140625 199.914062 65.746094 L 218.679688 53.695312 C 218.457031 53.089844 218.316406 52.449219 218.316406 51.773438 C 218.316406 48.746094 220.765625 46.296875 223.796875 46.296875 C 226.832031 46.296875 229.28125 48.746094 229.28125 51.773438 C 229.28125 52.925781 228.917969 53.984375 228.3125 54.871094 L 252.140625 79.992188 C 253.398438 79.117188 254.914062 78.59375 256.570312 78.59375 C 260.851562 78.59375 264.328125 82.0625 264.328125 86.339844 C 264.328125 90.214844 261.457031 93.40625 257.726562 93.964844 L 257.726562 138.863281 C 259.160156 139.070312 260.445312 139.675781 261.503906 140.5625 L 287.710938 117.222656 C 287.675781 116.957031 287.628906 116.6875 287.628906 116.410156 C 287.628906 113.378906 290.078125 110.933594 293.113281 110.933594 C 296.132812 110.921875 298.582031 113.367188 298.582031 116.398438 Z M 250.808594 91.460938 L 223.75 109.175781 C 223.761719 109.304688 223.785156 109.433594 223.785156 109.570312 C 223.785156 109.945312 223.75 110.304688 223.679688 110.65625 L 252.09375 140.167969 C 253.0625 139.480469 254.191406 139.023438 255.417969 138.851562 L 255.417969 93.941406 C 253.585938 93.675781 251.988281 92.777344 250.808594 91.460938 Z M 248.816406 146.46875 C 248.816406 144.683594 249.433594 143.078125 250.449219 141.761719 L 222.65625 112.878906 C 222.210938 113.449219 221.675781 113.925781 221.046875 114.289062 L 211.972656 149.9375 C 213.101562 150.414062 214.070312 151.160156 214.851562 152.082031 L 248.839844 146.558594 C 248.828125 146.523438 248.816406 146.5 248.816406 146.46875 Z M 152.546875 76.859375 C 150.589844 79.828125 147.230469 81.785156 143.40625 81.785156 C 141.015625 81.785156 138.832031 81.003906 137.023438 79.710938 L 116.941406 102.234375 C 118.691406 104.15625 119.785156 106.683594 119.808594 109.480469 L 139.789062 111.402344 C 141.003906 104.449219 147.054688 99.136719 154.367188 99.136719 C 157.832031 99.136719 160.96875 100.371094 163.5 102.351562 L 175.886719 88.910156 Z M 177.496094 87.175781 L 188.097656 75.671875 C 187.257812 74.621094 186.6875 73.375 186.476562 71.988281 L 154.25 71.988281 C 154.144531 72.980469 153.949219 73.933594 153.597656 74.820312 Z M 186.371094 128.777344 C 186.371094 128.378906 186.417969 127.984375 186.5 127.613281 L 168.175781 119.296875 C 166.03125 124.839844 160.675781 128.777344 154.367188 128.777344 C 152.746094 128.777344 151.207031 128.449219 149.75 127.972656 L 140.175781 150.824219 C 141.28125 151.613281 142.167969 152.6875 142.726562 153.945312 L 186.394531 129.019531 C 186.382812 128.929688 186.371094 128.859375 186.371094 128.777344 Z M 115.085938 118.574219 L 132.324219 150.125 C 133.339844 149.632812 134.460938 149.34375 135.660156 149.34375 C 136.523438 149.34375 137.339844 149.519531 138.121094 149.773438 L 147.625 127.085938 C 142.84375 124.628906 139.53125 119.703125 139.53125 113.960938 C 139.53125 113.871094 139.554688 113.777344 139.554688 113.683594 L 119.601562 111.761719 C 119.027344 114.578125 117.371094 116.992188 115.085938 118.574219 Z M 128.546875 160.152344 L 95.714844 168.875 C 95.75 169.152344 95.796875 169.421875 95.796875 169.710938 L 147.066406 179.132812 C 148.117188 176.09375 150.972656 173.90625 154.367188 173.90625 C 155.628906 173.90625 156.792969 174.230469 157.84375 174.753906 L 187.828125 132.46875 C 187.503906 132.117188 187.234375 131.722656 187.011719 131.292969 L 143.324219 156.238281 C 143.359375 156.515625 143.40625 156.796875 143.40625 157.078125 C 143.40625 161.351562 139.929688 164.820312 135.648438 164.820312 C 132.476562 164.820312 129.734375 162.898438 128.546875 160.152344 Z M 191.851562 123.304688 C 193.3125 123.304688 194.628906 123.886719 195.609375 124.816406 L 213.664062 112.449219 C 213.136719 111.609375 212.824219 110.632812 212.824219 109.570312 C 212.824219 109.070312 212.917969 108.605469 213.03125 108.140625 L 177.996094 90.019531 L 165.203125 103.902344 C 167.664062 106.542969 169.203125 110.0625 169.203125 113.960938 C 169.203125 115.035156 169.074219 116.082031 168.863281 117.082031 L 187.46875 125.527344 C 188.460938 124.1875 190.046875 123.304688 191.851562 123.304688 Z M 195.597656 132.746094 L 205.976562 149.925781 C 206.898438 149.542969 207.902344 149.332031 208.949219 149.332031 C 209.21875 149.332031 209.464844 149.378906 209.722656 149.414062 L 218.480469 115.023438 C 218.421875 115.023438 218.375 115.035156 218.316406 115.035156 C 217.195312 115.035156 216.160156 114.695312 215.285156 114.113281 L 196.914062 126.679688 C 197.183594 127.320312 197.324219 128.019531 197.324219 128.753906 C 197.324219 130.347656 196.65625 131.757812 195.597656 132.746094 Z M 219.796875 104.332031 C 221.195312 104.726562 222.351562 105.648438 223.050781 106.882812 L 249.527344 89.539062 C 249.070312 88.550781 248.804688 87.46875 248.804688 86.316406 C 248.804688 84.519531 249.445312 82.878906 250.472656 81.574219 L 226.621094 56.429688 C 225.957031 56.828125 225.210938 57.082031 224.40625 57.175781 Z M 189.765625 77.253906 L 179.605469 88.269531 L 214.09375 106.113281 C 214.933594 105.101562 216.125 104.390625 217.5 104.191406 L 222.117188 56.964844 C 221.277344 56.699219 220.507812 56.257812 219.902344 55.640625 L 201.171875 67.679688 C 201.613281 68.648438 201.871094 69.71875 201.871094 70.847656 C 201.871094 75.121094 198.394531 78.59375 194.117188 78.59375 C 192.507812 78.582031 191.011719 78.09375 189.765625 77.253906 Z M 151.300781 63.277344 C 152.933594 64.980469 153.984375 67.214844 154.25 69.695312 L 186.488281 69.695312 C 186.816406 67.542969 188.003906 65.667969 189.730469 64.476562 L 176.84375 38.15625 C 176.421875 38.261719 175.980469 38.332031 175.523438 38.332031 C 174.589844 38.332031 173.730469 38.078125 172.957031 37.667969 Z M 145.128906 60.074219 C 146.75 60.332031 148.257812 60.902344 149.550781 61.789062 L 171.1875 36.203125 C 170.472656 35.28125 170.019531 34.128906 170.019531 32.871094 C 170.019531 32.042969 170.21875 31.261719 170.542969 30.566406 L 154.566406 18.464844 C 152.6875 20.457031 150.085938 21.726562 147.160156 21.875 Z M 86.335938 80.503906 C 86.78125 81.203125 87.117188 81.949219 87.398438 82.738281 L 132.582031 72.1875 C 132.523438 71.746094 132.441406 71.304688 132.441406 70.835938 C 132.441406 64.992188 137.046875 60.25 142.832031 59.949219 L 144.886719 21.738281 C 143.171875 21.46875 141.597656 20.816406 140.253906 19.851562 Z M 81.402344 76.265625 C 82.722656 76.835938 83.910156 77.648438 84.902344 78.664062 L 138.542969 18.324219 C 137.851562 17.578125 137.28125 16.730469 136.828125 15.820312 C 110.839844 28.109375 91.175781 50.140625 81.402344 76.265625 Z M 87.222656 162.0625 L 77.554688 97.214844 C 77.390625 97.226562 77.25 97.261719 77.089844 97.261719 C 76.691406 97.261719 76.320312 97.191406 75.945312 97.144531 C 75.070312 102.652344 74.582031 108.269531 74.582031 113.9375 C 74.582031 131.304688 78.710938 147.714844 86 162.28125 C 86.382812 162.175781 86.804688 162.109375 87.222656 162.0625 Z M 104.589844 119.65625 C 100.660156 117.992188 97.90625 114.101562 97.90625 109.570312 C 97.90625 103.527344 102.816406 98.625 108.871094 98.625 C 111.25 98.625 113.441406 99.40625 115.25 100.699219 L 135.320312 78.175781 C 134.34375 77.089844 133.585938 75.820312 133.09375 74.425781 L 87.910156 84.976562 C 87.96875 85.417969 88.050781 85.859375 88.050781 86.328125 C 88.050781 91.414062 84.554688 95.667969 79.828125 96.890625 L 89.566406 162.144531 C 90.234375 162.269531 90.851562 162.515625 91.433594 162.792969 Z M 93.417969 164.15625 C 94.152344 164.855469 94.746094 165.707031 95.15625 166.648438 L 127.984375 157.925781 C 127.949219 157.648438 127.90625 157.367188 127.90625 157.078125 C 127.90625 154.828125 128.871094 152.824219 130.410156 151.417969 L 113.082031 119.679688 C 111.785156 120.214844 110.363281 120.519531 108.871094 120.519531 C 108.160156 120.519531 107.46875 120.4375 106.792969 120.308594 Z M 172.363281 218.953125 L 93.683594 175.324219 C 111.238281 200.796875 139.371094 218.441406 171.710938 221.863281 C 171.828125 220.863281 172.050781 219.882812 172.363281 218.953125 Z M 176.527344 212.617188 L 158.078125 188.394531 C 156.96875 189 155.722656 189.371094 154.367188 189.371094 C 150.085938 189.371094 146.613281 185.902344 146.613281 181.625 C 146.613281 181.546875 146.636719 181.464844 146.636719 181.371094 L 95.421875 171.960938 C 95.269531 172.4375 95.085938 172.902344 94.851562 173.335938 L 173.261719 216.808594 C 174.101562 215.226562 175.199219 213.804688 176.527344 212.617188 Z M 190.394531 134.027344 C 190.160156 133.960938 189.917969 133.902344 189.695312 133.808594 L 159.734375 176.070312 C 161.203125 177.480469 162.125 179.449219 162.125 181.636719 C 162.125 183.734375 161.285156 185.632812 159.917969 187.03125 L 178.335938 211.207031 C 180.574219 209.761719 183.222656 208.914062 186.066406 208.855469 Z M 190.429688 209.449219 L 205.476562 163.949219 C 202.957031 162.667969 201.207031 160.082031 201.207031 157.066406 C 201.207031 154.664062 202.316406 152.558594 204.027344 151.136719 L 193.625 133.914062 C 193.324219 134.015625 193.019531 134.097656 192.691406 134.144531 L 188.367188 209.007812 C 189.066406 209.113281 189.753906 209.261719 190.429688 209.449219 Z M 251.953125 152.652344 C 250.679688 151.695312 249.726562 150.367188 249.222656 148.820312 L 216.148438 154.199219 C 216.507812 155.097656 216.71875 156.0625 216.71875 157.078125 C 216.71875 161.351562 213.242188 164.820312 208.960938 164.820312 C 208.519531 164.820312 208.089844 164.761719 207.65625 164.691406 L 192.597656 210.230469 C 194.023438 210.882812 195.304688 211.753906 196.4375 212.804688 Z M 258.960938 191.722656 C 258.890625 191.640625 258.824219 191.550781 258.753906 191.46875 L 200.25 218.542969 C 200.542969 219.347656 200.785156 220.175781 200.949219 221.035156 C 223.308594 217.367188 243.378906 206.851562 258.960938 191.722656 Z M 263.125 174.347656 L 257.492188 154.105469 C 257.179688 154.140625 256.875 154.199219 256.558594 154.199219 C 255.671875 154.199219 254.832031 154.023438 254.039062 153.746094 L 197.964844 214.503906 C 198.453125 215.121094 198.875 215.761719 199.257812 216.460938 L 257.445312 189.535156 C 256.652344 188.019531 256.164062 186.332031 256.164062 184.503906 C 256.1875 179.878906 259.066406 175.953125 263.125 174.347656 Z M 291.628906 121.636719 C 290.382812 121.289062 289.296875 120.53125 288.585938 119.484375 L 263.042969 142.226562 C 263.835938 143.4375 264.316406 144.894531 264.316406 146.457031 C 264.316406 149.601562 262.425781 152.300781 259.71875 153.511719 L 265.34375 173.742188 C 265.925781 173.648438 266.519531 173.554688 267.136719 173.554688 C 269.261719 173.554688 271.21875 174.183594 272.898438 175.222656 C 283.535156 159.765625 290.242188 141.425781 291.628906 121.636719 Z M 303.644531 70.835938 C 300.609375 70.835938 298.160156 73.28125 298.160156 76.3125 C 298.160156 79.339844 300.609375 81.785156 303.644531 81.785156 C 306.675781 81.785156 309.125 79.339844 309.125 76.3125 C 309.125 73.292969 306.664062 70.835938 303.644531 70.835938 Z M 205.628906 10.917969 C 210.058594 10.917969 210.070312 4.035156 205.628906 4.035156 C 201.195312 4.035156 201.195312 10.917969 205.628906 10.917969 Z M 263.125 50.675781 C 267.558594 50.675781 267.570312 43.792969 263.125 43.792969 C 258.695312 43.792969 258.683594 50.675781 263.125 50.675781 Z M 245.480469 27.398438 C 249.910156 27.398438 249.921875 20.515625 245.480469 20.515625 C 241.046875 20.515625 241.035156 27.398438 245.480469 27.398438 Z M 245.480469 27.398438 " clip-rule="nonzero"/></clipPath><linearGradient x1="1820.417335" gradientTransform="matrix(0.116631, 0, 0, 0.116461, 66.125117, 0.02872)" y1="2211.28731" x2="319.071425" gradientUnits="userSpaceOnUse" y2="-198.765976" id="c72dea4e2e"><stop stop-opacity="1" stop-color="rgb(7.516479%, 41.668701%, 71.578979%)" offset="0"/><stop stop-opacity="1" stop-color="rgb(7.397461%, 41.7099%, 71.612549%)" offset="0.03125"/><stop stop-opacity="1" stop-color="rgb(7.16095%, 41.793823%, 71.679688%)" offset="0.0625"/><stop stop-opacity="1" stop-color="rgb(6.924438%, 41.876221%, 71.7453%)" offset="0.09375"/><stop stop-opacity="1" stop-color="rgb(6.687927%, 41.958618%, 71.812439%)" offset="0.125"/><stop stop-opacity="1" stop-color="rgb(6.44989%, 42.042542%, 71.879578%)" offset="0.15625"/><stop stop-opacity="1" stop-color="rgb(6.213379%, 42.124939%, 71.946716%)" offset="0.1875"/><stop stop-opacity="1" stop-color="rgb(5.976868%, 42.207336%, 72.012329%)" offset="0.21875"/><stop stop-opacity="1" stop-color="rgb(5.740356%, 42.289734%, 72.079468%)" offset="0.25"/><stop stop-opacity="1" stop-color="rgb(5.503845%, 42.373657%, 72.146606%)" offset="0.28125"/><stop stop-opacity="1" stop-color="rgb(5.267334%, 42.456055%, 72.213745%)" offset="0.3125"/><stop stop-opacity="1" stop-color="rgb(5.030823%, 42.538452%, 72.279358%)" offset="0.34375"/><stop stop-opacity="1" stop-color="rgb(4.794312%, 42.62085%, 72.346497%)" offset="0.375"/><stop stop-opacity="1" stop-color="rgb(4.556274%, 42.704773%, 72.413635%)" offset="0.387981"/><stop stop-opacity="1" stop-color="rgb(4.438782%, 42.745972%, 72.447205%)" offset="0.40625"/><stop stop-opacity="1" stop-color="rgb(4.319763%, 42.78717%, 72.480774%)" offset="0.4375"/><stop stop-opacity="1" stop-color="rgb(4.083252%, 42.869568%, 72.546387%)" offset="0.46875"/><stop stop-opacity="1" stop-color="rgb(3.846741%, 42.953491%, 72.613525%)" offset="0.5"/><stop stop-opacity="1" stop-color="rgb(3.610229%, 43.035889%, 72.680664%)" offset="0.53125"/><stop stop-opacity="1" stop-color="rgb(3.373718%, 43.118286%, 72.747803%)" offset="0.5625"/><stop stop-opacity="1" stop-color="rgb(3.137207%, 43.200684%, 72.813416%)" offset="0.59375"/><stop stop-opacity="1" stop-color="rgb(2.900696%, 43.284607%, 72.880554%)" offset="0.612019"/><stop stop-opacity="1" stop-color="rgb(2.783203%, 43.325806%, 72.914124%)" offset="0.625"/><stop stop-opacity="1" stop-color="rgb(2.664185%, 43.367004%, 72.947693%)" offset="0.65625"/><stop stop-opacity="1" stop-color="rgb(2.426147%, 43.449402%, 73.014832%)" offset="0.6875"/><stop stop-opacity="1" stop-color="rgb(2.189636%, 43.531799%, 73.080444%)" offset="0.71875"/><stop stop-opacity="1" stop-color="rgb(1.953125%, 43.615723%, 73.147583%)" offset="0.75"/><stop stop-opacity="1" stop-color="rgb(1.716614%, 43.69812%, 73.214722%)" offset="0.78125"/><stop stop-opacity="1" stop-color="rgb(1.480103%, 43.780518%, 73.28186%)" offset="0.8125"/><stop stop-opacity="1" stop-color="rgb(1.243591%, 43.862915%, 73.347473%)" offset="0.84375"/><stop stop-opacity="1" stop-color="rgb(1.00708%, 43.946838%, 73.414612%)" offset="0.875"/><stop stop-opacity="1" stop-color="rgb(0.770569%, 44.029236%, 73.48175%)" offset="0.90625"/><stop stop-opacity="1" stop-color="rgb(0.532532%, 44.111633%, 73.548889%)" offset="0.9375"/><stop stop-opacity="1" stop-color="rgb(0.296021%, 44.195557%, 73.614502%)" offset="0.96875"/><stop stop-opacity="1" stop-color="rgb(0.088501%, 44.267273%, 73.674011%)" offset="1"/></linearGradient></defs><g clip-path="url(#e681aac301)"><g clip-path="url(#905b58cdb3)"><path fill="url(#c72dea4e2e)" d="M 66.125 0.0273438 L 66.125 238.472656 L 309.125 238.472656 L 309.125 0.0273438 Z M 66.125 0.0273438 " fill-rule="nonzero"/></g></g><g fill="#ffffff" fill-opacity="1"><g transform="translate(6.050664, 290.84425)"><g><path d="M 16.53125 0.734375 C 24.0625 0.734375 29.734375 -4.515625 29.734375 -12.015625 L 29.734375 -31.96875 L 22.796875 -31.96875 L 22.796875 -12.328125 C 22.796875 -8.359375 20.1875 -5.796875 16.53125 -5.796875 C 12.828125 -5.796875 10.234375 -8.359375 10.234375 -12.328125 L 10.234375 -31.96875 L 3.28125 -31.96875 L 3.28125 -12.015625 C 3.28125 -4.515625 8.953125 0.734375 16.53125 0.734375 Z M 16.53125 0.734375 "/></g></g></g><g fill="#ffffff" fill-opacity="1"><g transform="translate(39.118115, 290.84425)"><g><path d="M 14.25 0.640625 C 20.875 0.640625 26.359375 -2.6875 26.359375 -9.59375 C 26.359375 -16.765625 20.234375 -18.265625 15.390625 -19.5 C 11.96875 -20.328125 9.21875 -21.015625 9.21875 -23.25 C 9.21875 -25.34375 11.46875 -26.3125 13.703125 -26.3125 C 16.3125 -26.3125 18.59375 -25.03125 18.59375 -22.25 L 25.390625 -22.25 C 25.390625 -28.640625 21.234375 -32.5625 13.890625 -32.5625 C 6.8125 -32.5625 2.28125 -29.09375 2.28125 -22.96875 C 2.28125 -16.078125 8.125 -14.65625 12.96875 -13.46875 C 16.4375 -12.703125 19.359375 -12.015625 19.359375 -9.5 C 19.359375 -7.125 16.8125 -5.75 14.203125 -5.75 C 11.375 -5.75 8.8125 -7.265625 8.8125 -10.328125 L 1.828125 -10.328125 C 1.828125 -3.46875 6.890625 0.640625 14.25 0.640625 Z M 14.25 0.640625 "/></g></g></g><g fill="#ffffff" fill-opacity="1"><g transform="translate(67.389866, 290.84425)"><g><path d="M 10.546875 -6.390625 L 10.546875 -12.96875 L 21.65625 -12.96875 L 21.65625 -19.234375 L 10.546875 -19.234375 L 10.546875 -25.578125 L 22.84375 -25.578125 L 22.84375 -31.96875 L 3.65625 -31.96875 L 3.65625 0 L 23.34375 0 L 23.34375 -6.390625 Z M 10.546875 -6.390625 "/></g></g></g><g fill="#ffffff" fill-opacity="1"><g transform="translate(92.921222, 290.84425)"><g><path d="M 21.234375 0 L 28.953125 0 L 21.875 -12.0625 C 25.4375 -13.796875 27.71875 -17.171875 27.71875 -21.375 C 27.71875 -27.546875 22.921875 -31.96875 16.53125 -31.96875 L 3.65625 -31.96875 L 3.65625 0 L 10.546875 0 L 10.546875 -10.875 L 14.984375 -10.875 Z M 10.546875 -25.578125 L 16.078125 -25.578125 C 19 -25.578125 20.6875 -23.796875 20.6875 -21.421875 C 20.6875 -19 19 -17.265625 16.078125 -17.265625 L 10.546875 -17.265625 Z M 10.546875 -25.578125 "/></g></g></g><g fill="#ffffff" fill-opacity="1"><g transform="translate(123.111253, 290.84425)"><g/></g></g><g fill="#ffffff" fill-opacity="1"><g transform="translate(134.027164, 290.84425)"><g><path d="M 24.84375 0 L 32.375 0 L 19.453125 -31.96875 L 12.921875 -31.96875 L 0.359375 0 L 7.71875 0 L 9.90625 -6.03125 L 22.609375 -6.03125 Z M 16.265625 -23.515625 L 20.46875 -12.0625 L 12.0625 -12.0625 Z M 16.265625 -23.515625 "/></g></g></g><g fill="#ffffff" fill-opacity="1"><g transform="translate(166.820563, 290.84425)"><g><path d="M 18.3125 0.734375 C 26.21875 0.734375 32.421875 -4.5625 33.890625 -12.46875 L 26.90625 -12.46875 C 25.765625 -8.453125 22.515625 -5.890625 18.3125 -5.890625 C 12.875 -5.890625 8.8125 -10.1875 8.8125 -15.9375 C 8.8125 -21.6875 12.875 -26.03125 18.3125 -26.03125 C 22.328125 -26.03125 25.53125 -23.65625 26.859375 -19.90625 L 33.75 -19.90625 C 32.296875 -27.5 26.078125 -32.65625 18.3125 -32.65625 C 8.90625 -32.65625 1.78125 -25.4375 1.78125 -15.9375 C 1.78125 -6.484375 8.90625 0.734375 18.3125 0.734375 Z M 18.3125 0.734375 "/></g></g></g><g fill="#ffffff" fill-opacity="1"><g transform="translate(202.034658, 290.84425)"><g><path d="M 18.3125 0.734375 C 26.21875 0.734375 32.421875 -4.5625 33.890625 -12.46875 L 26.90625 -12.46875 C 25.765625 -8.453125 22.515625 -5.890625 18.3125 -5.890625 C 12.875 -5.890625 8.8125 -10.1875 8.8125 -15.9375 C 8.8125 -21.6875 12.875 -26.03125 18.3125 -26.03125 C 22.328125 -26.03125 25.53125 -23.65625 26.859375 -19.90625 L 33.75 -19.90625 C 32.296875 -27.5 26.078125 -32.65625 18.3125 -32.65625 C 8.90625 -32.65625 1.78125 -25.4375 1.78125 -15.9375 C 1.78125 -6.484375 8.90625 0.734375 18.3125 0.734375 Z M 18.3125 0.734375 "/></g></g></g><g fill="#ffffff" fill-opacity="1"><g transform="translate(237.248753, 290.84425)"><g><path d="M 18.8125 0.734375 C 28.546875 0.734375 35.8125 -6.4375 35.8125 -15.984375 C 35.8125 -25.484375 28.546875 -32.65625 18.8125 -32.65625 C 9.046875 -32.65625 1.734375 -25.4375 1.734375 -15.984375 C 1.734375 -6.484375 9.046875 0.734375 18.8125 0.734375 Z M 18.8125 -5.796875 C 13.109375 -5.796875 8.765625 -10.234375 8.765625 -15.984375 C 8.765625 -21.734375 13.109375 -26.125 18.8125 -26.125 C 24.53125 -26.125 28.765625 -21.78125 28.765625 -15.984375 C 28.765625 -10.1875 24.53125 -5.796875 18.8125 -5.796875 Z M 18.8125 -5.796875 "/></g></g></g><g fill="#ffffff" fill-opacity="1"><g transform="translate(274.837853, 290.84425)"><g><path d="M 16.53125 0.734375 C 24.0625 0.734375 29.734375 -4.515625 29.734375 -12.015625 L 29.734375 -31.96875 L 22.796875 -31.96875 L 22.796875 -12.328125 C 22.796875 -8.359375 20.1875 -5.796875 16.53125 -5.796875 C 12.828125 -5.796875 10.234375 -8.359375 10.234375 -12.328125 L 10.234375 -31.96875 L 3.28125 -31.96875 L 3.28125 -12.015625 C 3.28125 -4.515625 8.953125 0.734375 16.53125 0.734375 Z M 16.53125 0.734375 "/></g></g></g><g fill="#ffffff" fill-opacity="1"><g transform="translate(307.905305, 290.84425)"><g><path d="M 23.890625 -31.96875 L 23.890625 -12.46875 L 9.859375 -31.96875 L 3.65625 -31.96875 L 3.65625 0 L 10.40625 0 L 10.40625 -19.953125 L 24.890625 0 L 30.6875 0 L 30.6875 -31.96875 Z M 23.890625 -31.96875 "/></g></g></g><g fill="#ffffff" fill-opacity="1"><g transform="translate(342.251596, 290.84425)"><g><path d="M 25.671875 -31.96875 L 0.953125 -31.96875 L 0.953125 -25.53125 L 9.859375 -25.53125 L 9.859375 0 L 16.765625 0 L 16.765625 -25.53125 L 25.671875 -25.53125 Z M 25.671875 -31.96875 "/></g></g></g><g fill="#ffffff" fill-opacity="1"><g transform="translate(76.859858, 365.105642)"><g><path d="M 11.859375 0.46875 C 16.984375 0.46875 21 -2.953125 21.953125 -8.078125 L 17.421875 -8.078125 C 16.6875 -5.46875 14.578125 -3.8125 11.859375 -3.8125 C 8.34375 -3.8125 5.703125 -6.59375 5.703125 -10.328125 C 5.703125 -14.046875 8.34375 -16.859375 11.859375 -16.859375 C 14.46875 -16.859375 16.53125 -15.328125 17.390625 -12.890625 L 21.859375 -12.890625 C 20.90625 -17.8125 16.890625 -21.140625 11.859375 -21.140625 C 5.765625 -21.140625 1.15625 -16.46875 1.15625 -10.328125 C 1.15625 -4.203125 5.765625 0.46875 11.859375 0.46875 Z M 11.859375 0.46875 "/></g></g></g><g fill="#ffffff" fill-opacity="1"><g transform="translate(112.206739, 365.105642)"><g><path d="M 12.1875 0.46875 C 18.484375 0.46875 23.1875 -4.171875 23.1875 -10.359375 C 23.1875 -16.5 18.484375 -21.140625 12.1875 -21.140625 C 5.859375 -21.140625 1.125 -16.46875 1.125 -10.359375 C 1.125 -4.203125 5.859375 0.46875 12.1875 0.46875 Z M 12.1875 -3.75 C 8.484375 -3.75 5.671875 -6.625 5.671875 -10.359375 C 5.671875 -14.078125 8.484375 -16.921875 12.1875 -16.921875 C 15.890625 -16.921875 18.640625 -14.109375 18.640625 -10.359375 C 18.640625 -6.59375 15.890625 -3.75 12.1875 -3.75 Z M 12.1875 -3.75 "/></g></g></g><g fill="#ffffff" fill-opacity="1"><g transform="translate(149.091402, 365.105642)"><g><path d="M 15.46875 -20.703125 L 15.46875 -8.078125 L 6.390625 -20.703125 L 2.359375 -20.703125 L 2.359375 0 L 6.75 0 L 6.75 -12.921875 L 16.125 0 L 19.875 0 L 19.875 -20.703125 Z M 15.46875 -20.703125 "/></g></g></g><g fill="#ffffff" fill-opacity="1"><g transform="translate(183.876412, 365.105642)"><g><path d="M 16.625 -20.703125 L 0.625 -20.703125 L 0.625 -16.53125 L 6.390625 -16.53125 L 6.390625 0 L 10.859375 0 L 10.859375 -16.53125 L 16.625 -16.53125 Z M 16.625 -20.703125 "/></g></g></g><g fill="#ffffff" fill-opacity="1"><g transform="translate(213.693185, 365.105642)"><g><path d="M 13.75 0 L 18.75 0 L 14.171875 -7.8125 C 16.46875 -8.9375 17.953125 -11.125 17.953125 -13.84375 C 17.953125 -17.828125 14.84375 -20.703125 10.703125 -20.703125 L 2.359375 -20.703125 L 2.359375 0 L 6.828125 0 L 6.828125 -7.046875 L 9.703125 -7.046875 Z M 6.828125 -16.5625 L 10.40625 -16.5625 C 12.296875 -16.5625 13.40625 -15.40625 13.40625 -13.875 C 13.40625 -12.296875 12.296875 -11.1875 10.40625 -11.1875 L 6.828125 -11.1875 Z M 6.828125 -16.5625 "/></g></g></g><g fill="#ffffff" fill-opacity="1"><g transform="translate(245.787081, 365.105642)"><g><path d="M 12.1875 0.46875 C 18.484375 0.46875 23.1875 -4.171875 23.1875 -10.359375 C 23.1875 -16.5 18.484375 -21.140625 12.1875 -21.140625 C 5.859375 -21.140625 1.125 -16.46875 1.125 -10.359375 C 1.125 -4.203125 5.859375 0.46875 12.1875 0.46875 Z M 12.1875 -3.75 C 8.484375 -3.75 5.671875 -6.625 5.671875 -10.359375 C 5.671875 -14.078125 8.484375 -16.921875 12.1875 -16.921875 C 15.890625 -16.921875 18.640625 -14.109375 18.640625 -10.359375 C 18.640625 -6.59375 15.890625 -3.75 12.1875 -3.75 Z M 12.1875 -3.75 "/></g></g></g><g fill="#ffffff" fill-opacity="1"><g transform="translate(282.671736, 365.105642)"><g><path d="M 6.828125 -4.140625 L 6.828125 -20.703125 L 2.359375 -20.703125 L 2.359375 0 L 14.796875 0 L 14.796875 -4.140625 Z M 6.828125 -4.140625 "/></g></g></g></svg>