<svg xmlns="http://www.w3.org/2000/svg" xmlns:xlink="http://www.w3.org/1999/xlink" width="500" zoomAndPan="magnify" viewBox="0 0 375 374.999991" height="500" preserveAspectRatio="xMidYMid meet" version="1.0"><defs><g/><clipPath id="1295576a3f"><path d="M 35.949219 201.054688 L 338.390625 201.054688 L 338.390625 210.257812 L 35.949219 210.257812 Z M 35.949219 201.054688 " clip-rule="nonzero"/></clipPath><clipPath id="c0f40daea4"><path d="M 35.949219 210.171875 L 338.390625 210.171875 L 338.390625 217.007812 L 35.949219 217.007812 Z M 35.949219 210.171875 " clip-rule="nonzero"/></clipPath><clipPath id="75dd388f1e"><path d="M 35.949219 217.007812 L 338.390625 217.007812 L 338.390625 226.53125 L 35.949219 226.53125 Z M 35.949219 217.007812 " clip-rule="nonzero"/></clipPath><clipPath id="4d4cdd3918"><path d="M 35.949219 226.53125 L 338.390625 226.53125 L 338.390625 233.40625 L 35.949219 233.40625 Z M 35.949219 226.53125 " clip-rule="nonzero"/></clipPath><clipPath id="3559858b72"><path d="M 35.949219 233.40625 L 338.390625 233.40625 L 338.390625 241.152344 L 35.949219 241.152344 Z M 35.949219 233.40625 " clip-rule="nonzero"/></clipPath></defs><g clip-path="url(#1295576a3f)"><path fill="#edbd68" d="M 35.949219 201.054688 L 338.402344 201.054688 L 338.402344 210.257812 L 35.949219 210.257812 Z M 35.949219 201.054688 " fill-opacity="1" fill-rule="nonzero"/></g><g clip-path="url(#c0f40daea4)"><path fill="#f2704e" d="M 35.949219 210.171875 L 338.378906 210.171875 L 338.378906 217.007812 L 35.949219 217.007812 Z M 35.949219 210.171875 " fill-opacity="1" fill-rule="nonzero"/></g><g clip-path="url(#75dd388f1e)"><path fill="#de5152" d="M 35.949219 217.007812 L 338.394531 217.007812 L 338.394531 226.53125 L 35.949219 226.53125 Z M 35.949219 217.007812 " fill-opacity="1" fill-rule="nonzero"/></g><g clip-path="url(#4d4cdd3918)"><path fill="#a43845" d="M 35.949219 226.53125 L 338.398438 226.53125 L 338.398438 233.40625 L 35.949219 233.40625 Z M 35.949219 226.53125 " fill-opacity="1" fill-rule="nonzero"/></g><g clip-path="url(#3559858b72)"><path fill="#602b53" d="M 35.949219 233.40625 L 338.386719 233.40625 L 338.386719 241.152344 L 35.949219 241.152344 Z M 35.949219 233.40625 " fill-opacity="1" fill-rule="nonzero"/></g><g fill="#ff6ed2" fill-opacity="1"><g transform="translate(49.83461, 171.411147)"><g><path d="M 24.734375 1.015625 C 36.5 1.015625 45.859375 -6.0625 44.03125 -15.0625 C 43.328125 -12.578125 39.40625 -11.359375 35.578125 -11.40625 C 25.40625 -11.5625 13.484375 -21.78125 13.484375 -39.859375 C 13.484375 -45.3125 15.625 -48.765625 19.09375 -48.765625 C 28.71875 -48.765625 33.1875 -26.421875 33.75 -19.703125 L 34.265625 -19.703125 L 43.625 -46.484375 C 43.625 -46.484375 37.71875 -51.921875 24.734375 -51.921875 C 10.328125 -51.921875 0.765625 -40.671875 0.765625 -25.453125 C 0.765625 -10.234375 10.328125 1.015625 24.734375 1.015625 Z M 24.734375 1.015625 "/></g></g></g><g fill="#ff6ed2" fill-opacity="1"><g transform="translate(94.627859, 171.411147)"><g><path d="M 0.765625 -18.984375 C 0.765625 -6.96875 8.546875 1.015625 20.203125 1.015625 C 31.921875 1.015625 39.703125 -6.96875 39.703125 -18.984375 C 39.703125 -30.953125 31.921875 -38.9375 20.203125 -38.9375 C 8.546875 -38.9375 0.765625 -30.953125 0.765625 -18.984375 Z M 20.265625 -37.3125 C 21.375 -37.3125 22.296875 -36.25 22.296875 -32.53125 C 22.296875 -31.71875 22.296875 -19.90625 22.296875 -18.984375 C 22.296875 -18.078125 22.296875 -6.265625 22.296875 -5.453125 C 22.296875 -1.734375 21.375 -0.65625 20.265625 -0.65625 C 19.140625 -0.65625 18.21875 -1.734375 18.21875 -5.453125 C 18.21875 -6.265625 18.21875 -18.078125 18.21875 -18.984375 C 18.21875 -19.90625 18.21875 -31.71875 18.21875 -32.53125 C 18.21875 -36.25 19.140625 -37.3125 20.265625 -37.3125 Z M 20.265625 -37.3125 "/></g></g></g><g fill="#ff6ed2" fill-opacity="1"><g transform="translate(135.094486, 171.411147)"><g><path d="M 1.53125 -37.921875 L 1.53125 -11 C 1.53125 -5.25 4.578125 1.015625 13.59375 1.015625 C 18.328125 1.015625 21.890625 -0.453125 24.1875 -2.296875 L 24.1875 0 L 42.5 0 L 42.5 -37.921875 L 24.1875 -37.921875 L 24.1875 -8.90625 C 24.1875 -6.71875 24.1875 -3.96875 22.046875 -3.96875 C 20.0625 -3.96875 19.90625 -6.0625 19.90625 -8.90625 L 19.90625 -37.921875 Z M 1.53125 -37.921875 "/></g></g></g><g fill="#ff6ed2" fill-opacity="1"><g transform="translate(179.124221, 171.411147)"><g><path d="M 1.53125 -37.921875 L 1.53125 0 L 19.859375 0 L 19.859375 -29.015625 C 19.859375 -31.203125 19.859375 -33.953125 21.984375 -33.953125 C 23.984375 -33.953125 24.125 -31.875 24.125 -29.015625 L 24.125 0 L 42.5 0 L 42.5 -26.921875 C 42.5 -32.6875 39.453125 -38.9375 30.4375 -38.9375 C 25.765625 -38.9375 22.140625 -37.46875 19.859375 -35.640625 L 19.859375 -37.921875 Z M 1.53125 -37.921875 "/></g></g></g><g fill="#ff6ed2" fill-opacity="1"><g transform="translate(223.15395, 171.411147)"><g><path d="M 2.140625 -35.890625 L 2.140625 -12.875 C 2.140625 -3.5625 6.421875 1.015625 14.40625 1.015625 C 17.671875 1.015625 20.40625 -0.453125 21.9375 -2.09375 C 20.3125 -3.71875 19.59375 -6.765625 19.59375 -9.625 L 19.59375 -35.890625 L 22.34375 -35.890625 L 22.34375 -37.921875 L 19.59375 -37.921875 L 19.59375 -50.90625 L 19.09375 -50.90625 C 16.34375 -46.484375 6.203125 -39.609375 -0.515625 -37.875 L -0.515625 -35.890625 Z M 2.140625 -35.890625 "/></g></g></g><g fill="#ff6ed2" fill-opacity="1"><g transform="translate(245.499684, 171.411147)"><g><path d="M 1.53125 0 L 19.859375 0 L 19.859375 -22.546875 C 19.859375 -23.984375 21.078125 -25.453125 23.15625 -25.453125 C 27.796875 -25.453125 30.84375 -18.6875 30.84375 -12.9375 L 31.359375 -12.9375 L 38.03125 -36.1875 C 37.421875 -37.5625 34.765625 -38.9375 32.171875 -38.9375 C 24.890625 -38.9375 19.859375 -31.765625 19.859375 -25.453125 L 19.859375 -37.921875 L 1.53125 -37.921875 Z M 1.53125 0 "/></g></g></g><g fill="#ff6ed2" fill-opacity="1"><g transform="translate(283.523044, 171.411147)"><g><path d="M 0 -37.921875 L 20.515625 0.046875 C 18.625 2.59375 14.296875 5.859375 14.296875 11.25 C 14.296875 16.546875 18.625 19.859375 22.65625 20.5625 L 31 8.65625 C 28.09375 8.25 21.9375 4.328125 21.84375 -0.515625 L 41.640625 -37.921875 L 26.0625 -37.921875 C 25.5 -37.921875 24.84375 -37.265625 24.84375 -36.296875 C 24.84375 -31.609375 30.90625 -28.453125 30.90625 -23.515625 C 30.90625 -21.78125 29.984375 -19.390625 28.8125 -17.921875 L 18.125 -37.921875 Z M 0 -37.921875 "/></g></g></g><g fill="#ff6ed2" fill-opacity="1"><g transform="translate(104.654016, 191.835739)"><g><path d="M 2.484375 0 L 1.09375 0 L 1.09375 -8.28125 L 2.484375 -8.28125 Z M 2.484375 0 "/></g></g></g><g fill="#ff6ed2" fill-opacity="1"><g transform="translate(117.341341, 191.835739)"><g><path d="M 1.09375 -8.28125 L 4.390625 -8.28125 C 5.429688 -8.28125 6.238281 -8.03125 6.8125 -7.53125 C 7.382812 -7.039062 7.671875 -6.347656 7.671875 -5.453125 C 7.671875 -4.515625 7.382812 -3.785156 6.8125 -3.265625 C 6.238281 -2.753906 5.429688 -2.5 4.390625 -2.5 L 2.484375 -2.5 L 2.484375 0 L 1.09375 0 Z M 2.484375 -7.03125 L 2.484375 -3.75 L 4.328125 -3.75 C 5.660156 -3.75 6.328125 -4.304688 6.328125 -5.421875 C 6.328125 -6.492188 5.660156 -7.03125 4.328125 -7.03125 Z M 2.484375 -7.03125 "/></g></g></g><g fill="#ff6ed2" fill-opacity="1"><g transform="translate(134.413072, 191.835739)"><g/></g></g><g fill="#ff6ed2" fill-opacity="1"><g transform="translate(146.580418, 191.835739)"><g><path d="M 1.09375 -8.28125 L 4.6875 -8.28125 C 5.539062 -8.28125 6.21875 -8.097656 6.71875 -7.734375 C 7.21875 -7.367188 7.46875 -6.859375 7.46875 -6.203125 C 7.46875 -5.742188 7.335938 -5.347656 7.078125 -5.015625 C 6.816406 -4.691406 6.460938 -4.472656 6.015625 -4.359375 C 6.566406 -4.265625 7 -4.03125 7.3125 -3.65625 C 7.625 -3.289062 7.78125 -2.828125 7.78125 -2.265625 C 7.78125 -1.554688 7.507812 -1 6.96875 -0.59375 C 6.4375 -0.195312 5.703125 0 4.765625 0 L 1.09375 0 Z M 2.484375 -7.03125 L 2.484375 -4.84375 L 4.609375 -4.84375 C 5.054688 -4.84375 5.40625 -4.941406 5.65625 -5.140625 C 5.90625 -5.335938 6.03125 -5.609375 6.03125 -5.953125 C 6.03125 -6.304688 5.90625 -6.570312 5.65625 -6.75 C 5.40625 -6.9375 5.054688 -7.03125 4.609375 -7.03125 Z M 2.484375 -3.625 L 2.484375 -1.234375 L 4.609375 -1.234375 C 5.160156 -1.234375 5.585938 -1.335938 5.890625 -1.546875 C 6.203125 -1.765625 6.359375 -2.066406 6.359375 -2.453125 C 6.359375 -2.816406 6.203125 -3.101562 5.890625 -3.3125 C 5.578125 -3.519531 5.148438 -3.625 4.609375 -3.625 Z M 2.484375 -3.625 "/></g></g></g><g fill="#ff6ed2" fill-opacity="1"><g transform="translate(164.042141, 191.835739)"><g><path d="M 2.484375 -1.265625 L 6.0625 -1.265625 L 6.0625 0 L 1.09375 0 L 1.09375 -8.28125 L 2.484375 -8.28125 Z M 2.484375 -1.265625 "/></g></g></g><g fill="#ff6ed2" fill-opacity="1"><g transform="translate(179.471203, 191.835739)"><g><path d="M 1.671875 -7.109375 C 2.515625 -7.910156 3.550781 -8.3125 4.78125 -8.3125 C 6.019531 -8.3125 7.0625 -7.910156 7.90625 -7.109375 C 8.75 -6.316406 9.171875 -5.328125 9.171875 -4.140625 C 9.171875 -2.953125 8.75 -1.953125 7.90625 -1.140625 C 7.0625 -0.335938 6.019531 0.0625 4.78125 0.0625 C 3.550781 0.0625 2.515625 -0.335938 1.671875 -1.140625 C 0.828125 -1.953125 0.40625 -2.953125 0.40625 -4.140625 C 0.40625 -5.328125 0.828125 -6.316406 1.671875 -7.109375 Z M 4.796875 -7.0625 C 3.984375 -7.0625 3.285156 -6.78125 2.703125 -6.21875 C 2.117188 -5.65625 1.828125 -4.960938 1.828125 -4.140625 C 1.828125 -3.316406 2.117188 -2.617188 2.703125 -2.046875 C 3.285156 -1.472656 3.984375 -1.1875 4.796875 -1.1875 C 5.609375 -1.1875 6.300781 -1.472656 6.875 -2.046875 C 7.457031 -2.617188 7.75 -3.316406 7.75 -4.140625 C 7.75 -4.960938 7.457031 -5.65625 6.875 -6.21875 C 6.300781 -6.78125 5.609375 -7.0625 4.796875 -7.0625 Z M 4.796875 -7.0625 "/></g></g></g><g fill="#ff6ed2" fill-opacity="1"><g transform="translate(198.161972, 191.835739)"><g><path d="M 4.75 -8.3125 C 5.332031 -8.3125 5.898438 -8.195312 6.453125 -7.96875 C 7.015625 -7.75 7.5 -7.4375 7.90625 -7.03125 L 7.078125 -6.015625 C 6.785156 -6.335938 6.429688 -6.59375 6.015625 -6.78125 C 5.609375 -6.976562 5.195312 -7.078125 4.78125 -7.078125 C 3.945312 -7.078125 3.242188 -6.789062 2.671875 -6.21875 C 2.109375 -5.65625 1.828125 -4.96875 1.828125 -4.15625 C 1.828125 -3.34375 2.109375 -2.648438 2.671875 -2.078125 C 3.242188 -1.515625 3.945312 -1.234375 4.78125 -1.234375 C 5.632812 -1.234375 6.398438 -1.5625 7.078125 -2.21875 L 7.90625 -1.296875 C 7.488281 -0.878906 6.992188 -0.546875 6.421875 -0.296875 C 5.859375 -0.0546875 5.285156 0.0625 4.703125 0.0625 C 3.492188 0.0625 2.472656 -0.335938 1.640625 -1.140625 C 0.816406 -1.953125 0.40625 -2.957031 0.40625 -4.15625 C 0.40625 -5.332031 0.820312 -6.316406 1.65625 -7.109375 C 2.5 -7.910156 3.53125 -8.3125 4.75 -8.3125 Z M 4.75 -8.3125 "/></g></g></g><g fill="#ff6ed2" fill-opacity="1"><g transform="translate(215.51733, 191.835739)"><g><path d="M 6.609375 0 L 3.890625 -3.65625 L 2.484375 -2.109375 L 2.484375 0 L 1.09375 0 L 1.09375 -8.28125 L 2.484375 -8.28125 L 2.484375 -4 L 6.4375 -8.28125 L 8.078125 -8.28125 L 4.875 -4.75 L 8.296875 0 Z M 6.609375 0 "/></g></g></g><g fill="#ff6ed2" fill-opacity="1"><g transform="translate(233.120866, 191.835739)"><g><path d="M 2.484375 0 L 1.09375 0 L 1.09375 -8.28125 L 2.484375 -8.28125 Z M 2.484375 0 "/></g></g></g><g fill="#ff6ed2" fill-opacity="1"><g transform="translate(245.808193, 191.835739)"><g><path d="M 8.265625 0 L 6.890625 0 L 2.484375 -5.9375 L 2.484375 0 L 1.09375 0 L 1.09375 -8.28125 L 2.453125 -8.28125 L 6.890625 -2.328125 L 6.890625 -8.28125 L 8.265625 -8.28125 Z M 8.265625 0 "/></g></g></g><g fill="#ff6ed2" fill-opacity="1"><g transform="translate(264.286252, 191.835739)"><g><path d="M 6.75 -4.0625 L 7.96875 -4.0625 L 7.96875 -1.015625 C 7.539062 -0.691406 7.035156 -0.429688 6.453125 -0.234375 C 5.878906 -0.0351562 5.3125 0.0625 4.75 0.0625 C 3.53125 0.0625 2.5 -0.335938 1.65625 -1.140625 C 0.820312 -1.953125 0.40625 -2.953125 0.40625 -4.140625 C 0.40625 -5.328125 0.828125 -6.316406 1.671875 -7.109375 C 2.523438 -7.910156 3.582031 -8.3125 4.84375 -8.3125 C 5.425781 -8.3125 6 -8.207031 6.5625 -8 C 7.125 -7.789062 7.609375 -7.507812 8.015625 -7.15625 L 7.234375 -6.125 C 6.546875 -6.757812 5.75 -7.078125 4.84375 -7.078125 C 4 -7.078125 3.285156 -6.789062 2.703125 -6.21875 C 2.117188 -5.65625 1.828125 -4.960938 1.828125 -4.140625 C 1.828125 -3.304688 2.117188 -2.601562 2.703125 -2.03125 C 3.285156 -1.46875 4 -1.1875 4.84375 -1.1875 C 5.488281 -1.1875 6.125 -1.378906 6.75 -1.765625 Z M 6.75 -4.0625 "/></g></g></g></svg>