<svg version="1.0" preserveAspectRatio="xMidYMid meet" viewBox="0 85.74974794200601 387.75 189.749995446" zoomAndPan="magnify" xmlns:xlink="http://www.w3.org/1999/xlink" xmlns="http://www.w3.org/2000/svg" style="max-height: 500px" width="387.75" height="189.749995446"><defs><g/><clipPath id="0dab4776ad"><path clip-rule="nonzero" d="M 103 145 L 274 145 L 274 230 L 103 230 Z M 103 145"/></clipPath><clipPath id="9b3fe6ecc1"><path clip-rule="nonzero" d="M 100.015625 155.003906 L 266.765625 134.523438 L 277.550781 222.363281 L 110.804688 242.84375 Z M 100.015625 155.003906"/></clipPath><clipPath id="e3b140336c"><path clip-rule="nonzero" d="M 100.015625 155.003906 L 266.765625 134.523438 L 277.550781 222.363281 L 110.804688 242.84375 Z M 100.015625 155.003906"/></clipPath><clipPath id="3771c92cac"><path clip-rule="nonzero" d="M 275 112 L 355 112 L 355 217 L 275 217 Z M 275 112"/></clipPath><clipPath id="871644f124"><path clip-rule="nonzero" d="M 263.914062 119.246094 L 362.175781 107.179688 L 374.882812 210.652344 L 276.621094 222.71875 Z M 263.914062 119.246094"/></clipPath><clipPath id="a2c1767a1f"><path clip-rule="nonzero" d="M 263.914062 119.246094 L 362.175781 107.179688 L 374.882812 210.652344 L 276.621094 222.71875 Z M 263.914062 119.246094"/></clipPath><clipPath id="1cfb8a8e30"><path clip-rule="nonzero" d="M 20 157 L 100 157 L 100 263 L 20 263 Z M 20 157"/></clipPath><clipPath id="98df6a845c"><path clip-rule="nonzero" d="M 0 164.554688 L 98.261719 152.488281 L 110.96875 255.960938 L 12.707031 268.027344 Z M 0 164.554688"/></clipPath><clipPath id="3540541ccc"><path clip-rule="nonzero" d="M 111.085938 255.746094 L 12.824219 267.8125 L 0.117188 164.339844 L 98.378906 152.273438 Z M 111.085938 255.746094"/></clipPath></defs><g clip-path="url(#0dab4776ad)"><g clip-path="url(#9b3fe6ecc1)"><g clip-path="url(#e3b140336c)"><path fill-rule="nonzero" fill-opacity="1" d="M 273.246094 187.445312 L 270.601562 183.914062 C 270.589844 183.878906 270.566406 183.847656 270.535156 183.824219 L 262.820312 173.503906 C 262.804688 173.484375 262.789062 173.472656 262.773438 173.453125 C 262.75 173.4375 262.726562 173.425781 262.699219 173.414062 C 262.578125 173.367188 262.433594 173.433594 262.386719 173.5625 L 259.34375 181.992188 L 254.984375 189.882812 L 249.472656 196.890625 L 243.007812 202.746094 L 235.839844 207.238281 L 228.230469 210.246094 L 220.457031 211.710938 L 212.800781 211.648438 L 205.523438 210.15625 C 205.523438 210.15625 205.515625 210.152344 205.515625 210.152344 C 205.507812 210.152344 205.5 210.152344 205.5 210.148438 L 198.820312 207.363281 L 192.945312 203.484375 L 192.882812 203.421875 L 195.261719 199.902344 C 195.273438 199.894531 195.285156 199.886719 195.296875 199.875 C 195.359375 199.820312 195.390625 199.75 195.390625 199.671875 L 198.386719 192.945312 C 198.386719 192.945312 198.394531 192.945312 198.394531 192.9375 C 198.464844 192.882812 198.484375 192.789062 198.46875 192.710938 L 200.121094 186.085938 C 200.160156 186.027344 200.179688 185.941406 200.15625 185.867188 L 200.550781 179.625 C 200.554688 179.605469 200.558594 179.578125 200.554688 179.554688 L 199.8125 174.023438 C 199.832031 173.953125 199.820312 173.863281 199.765625 173.800781 L 199.757812 173.796875 L 198.117188 169.328125 C 198.117188 169.273438 198.105469 169.214844 198.070312 169.164062 L 197.910156 168.960938 L 195.625 165.683594 L 189.671875 158.078125 C 189.667969 158.074219 189.660156 158.066406 189.65625 158.0625 L 186.769531 154.378906 C 186.757812 154.332031 186.730469 154.285156 186.6875 154.257812 L 186.65625 154.234375 L 183.800781 150.585938 C 183.789062 150.566406 183.773438 150.554688 183.757812 150.542969 L 179.726562 147.414062 L 179.714844 147.402344 C 179.664062 147.351562 179.601562 147.320312 179.539062 147.3125 L 174.921875 145.894531 C 174.890625 145.886719 174.855469 145.882812 174.824219 145.886719 L 169.972656 146.421875 C 169.929688 146.425781 169.90625 146.4375 169.878906 146.453125 L 165.261719 149.074219 C 165.238281 149.089844 165.210938 149.105469 165.195312 149.128906 L 161.246094 153.824219 C 161.226562 153.839844 161.214844 153.863281 161.207031 153.882812 L 158.386719 160.472656 C 158.382812 160.488281 158.378906 160.507812 158.375 160.527344 L 157.074219 168.71875 C 157.074219 168.730469 157.070312 168.746094 157.070312 168.765625 C 157.070312 168.765625 157.074219 168.773438 157.074219 168.773438 L 157.601562 178.113281 C 157.605469 178.128906 157.605469 178.148438 157.609375 178.164062 L 160.160156 188.09375 L 160.160156 188.109375 C 160.164062 188.121094 160.164062 188.136719 160.171875 188.148438 L 164.792969 198.085938 C 164.792969 198.09375 164.800781 198.09375 164.800781 198.101562 C 164.8125 198.121094 164.820312 198.132812 164.835938 198.152344 L 168.625 203.503906 L 164.980469 205.214844 C 164.960938 205.214844 164.949219 205.21875 164.925781 205.21875 C 164.894531 205.230469 164.867188 205.242188 164.84375 205.257812 L 158.757812 206.800781 C 158.742188 206.796875 158.722656 206.800781 158.707031 206.800781 C 158.679688 206.804688 158.660156 206.808594 158.632812 206.816406 L 152.550781 207.144531 C 152.527344 207.132812 152.503906 207.128906 152.484375 207.125 C 152.457031 207.121094 152.421875 207.125 152.398438 207.136719 L 146.523438 206.300781 C 146.511719 206.292969 146.503906 206.289062 146.488281 206.28125 C 146.46875 206.273438 146.4375 206.269531 146.417969 206.269531 L 140.929688 204.347656 C 140.921875 204.34375 140.921875 204.34375 140.914062 204.335938 C 140.890625 204.328125 140.878906 204.320312 140.855469 204.308594 L 135.9375 201.433594 L 131.734375 197.746094 L 128.410156 193.484375 L 126.050781 188.871094 L 124.6875 184.140625 L 124.320312 179.539062 L 124.90625 175.296875 L 126.339844 171.652344 L 128.496094 168.804688 L 131.195312 166.921875 L 134.242188 166.117188 L 134.605469 166.152344 L 136.878906 173.722656 C 136.902344 173.808594 136.972656 173.878906 137.058594 173.894531 L 139.167969 174.398438 C 139.179688 174.402344 139.195312 174.40625 139.210938 174.40625 L 145.761719 175.972656 C 145.796875 175.972656 145.824219 175.976562 145.851562 175.972656 C 145.855469 175.972656 145.855469 175.972656 145.863281 175.972656 C 145.871094 175.972656 145.878906 175.96875 145.878906 175.96875 C 146.011719 175.945312 146.097656 175.820312 146.074219 175.683594 L 145.855469 174.449219 C 145.84375 174.421875 145.839844 174.394531 145.824219 174.371094 L 143.648438 170.476562 C 143.640625 170.457031 143.625 170.4375 143.609375 170.417969 L 140.816406 167.628906 C 140.800781 167.613281 140.777344 167.59375 140.753906 167.582031 L 140.757812 167.597656 L 137.746094 164.964844 C 137.730469 164.953125 137.710938 164.941406 137.695312 164.929688 L 134.785156 162.382812 C 134.761719 162.34375 134.730469 162.308594 134.683594 162.285156 L 134.664062 162.273438 L 131.753906 159.71875 C 131.746094 159.707031 131.738281 159.695312 131.722656 159.6875 L 128.742188 157.074219 C 128.730469 157.0625 128.707031 157.050781 128.691406 157.039062 L 124.539062 154.890625 C 124.496094 154.871094 124.445312 154.855469 124.398438 154.859375 L 119.949219 154.234375 C 119.902344 154.210938 119.855469 154.203125 119.800781 154.214844 L 115.140625 155.25 C 115.113281 155.253906 115.089844 155.261719 115.0625 155.28125 L 110.699219 158.039062 C 110.679688 158.050781 110.660156 158.066406 110.644531 158.089844 L 106.964844 162.542969 C 106.953125 162.558594 106.941406 162.574219 106.929688 162.597656 C 106.925781 162.609375 106.914062 162.625 106.917969 162.644531 L 104.355469 168.515625 C 104.335938 168.539062 104.320312 168.5625 104.316406 168.597656 C 104.308594 168.632812 104.304688 168.660156 104.300781 168.695312 L 103.101562 175.8125 C 103.09375 175.847656 103.097656 175.882812 103.105469 175.90625 L 103.5625 183.867188 C 103.5625 183.867188 103.5625 183.871094 103.5625 183.871094 C 103.566406 183.894531 103.566406 183.90625 103.570312 183.925781 C 103.570312 183.933594 103.570312 183.941406 103.570312 183.941406 L 105.835938 192.328125 C 105.839844 192.335938 105.839844 192.335938 105.847656 192.339844 C 105.855469 192.359375 105.867188 192.386719 105.875 192.40625 L 109.953125 200.621094 C 109.960938 200.640625 109.976562 200.65625 109.996094 200.675781 L 115.800781 208.253906 C 115.808594 208.265625 115.816406 208.277344 115.832031 208.289062 L 123.132812 214.777344 C 123.140625 214.789062 123.15625 214.800781 123.171875 214.804688 L 131.65625 219.804688 C 131.667969 219.820312 131.683594 219.824219 131.699219 219.828125 L 140.957031 223.085938 C 140.980469 223.089844 140.992188 223.089844 141.007812 223.09375 L 150.613281 224.484375 C 150.625 224.480469 150.648438 224.484375 150.660156 224.484375 L 160.199219 223.984375 C 160.207031 223.984375 160.214844 223.984375 160.21875 223.984375 C 160.234375 223.980469 160.242188 223.980469 160.253906 223.980469 L 169.328125 221.710938 C 169.347656 221.707031 169.363281 221.707031 169.375 221.699219 L 177.636719 217.855469 C 177.652344 217.84375 177.664062 217.835938 177.675781 217.828125 L 180.289062 215.957031 L 189.527344 222.113281 C 189.542969 222.132812 189.558594 222.144531 189.582031 222.164062 C 189.609375 222.179688 189.644531 222.1875 189.683594 222.199219 L 200.253906 226.648438 C 200.277344 226.660156 200.292969 226.671875 200.320312 226.679688 C 200.339844 226.683594 200.355469 226.691406 200.375 226.6875 L 211.503906 229.007812 C 211.519531 229.015625 211.539062 229.019531 211.554688 229.015625 L 222.726562 229.128906 C 222.738281 229.125 222.746094 229.125 222.761719 229.125 C 222.761719 229.125 222.765625 229.121094 222.773438 229.128906 L 233.511719 227.128906 C 233.53125 227.128906 233.542969 227.125 233.558594 227.117188 L 243.476562 223.226562 C 243.488281 223.226562 243.503906 223.21875 243.515625 223.210938 L 252.3125 217.742188 C 252.320312 217.734375 252.332031 217.726562 252.34375 217.714844 L 259.804688 211.039062 C 259.820312 211.03125 259.832031 211.015625 259.835938 211.007812 L 265.828125 203.519531 C 265.839844 203.511719 265.84375 203.503906 265.851562 203.492188 L 270.3125 195.609375 C 270.320312 195.59375 270.324219 195.585938 270.332031 195.570312 L 273.289062 187.683594 C 273.308594 187.605469 273.296875 187.515625 273.246094 187.445312 Z M 265.601562 202.929688 L 263.242188 199.910156 L 267.421875 192.480469 L 269.800781 195.507812 Z M 259.664062 210.4375 L 257.390625 207.304688 L 262.949219 200.324219 L 265.324219 203.363281 Z M 252.242188 217.152344 L 250.175781 213.820312 L 257.035156 207.664062 L 259.320312 210.808594 Z M 243.492188 222.640625 L 241.792969 219.09375 L 249.789062 214.117188 L 251.851562 217.453125 Z M 233.617188 226.5625 L 232.445312 222.816406 L 241.355469 219.3125 L 243.054688 222.863281 Z M 200.703125 226.269531 L 201.847656 222.621094 L 211.605469 224.640625 L 211.328125 228.480469 Z M 190.070312 221.839844 L 192.113281 218.574219 L 201.382812 222.464844 L 200.230469 226.113281 Z M 180.421875 215.480469 C 180.410156 215.46875 180.402344 215.460938 180.386719 215.457031 L 180.371094 215.445312 L 183.285156 212.765625 L 191.679688 218.347656 L 189.628906 221.613281 Z M 177.632812 217.25 L 176.171875 213.898438 L 177.242188 213.128906 L 179.804688 215.632812 C 179.8125 215.636719 179.820312 215.644531 179.828125 215.648438 C 179.832031 215.65625 179.839844 215.660156 179.847656 215.667969 Z M 169.421875 221.128906 L 168.464844 217.539062 L 175.742188 214.152344 L 177.203125 217.507812 Z M 141.371094 222.65625 L 142.582031 218.980469 L 150.84375 220.167969 L 150.433594 223.96875 Z M 132.148438 219.464844 L 134.1875 216.0625 L 142.105469 218.859375 L 140.898438 222.539062 Z M 123.695312 214.535156 L 126.519531 211.597656 L 133.742188 215.847656 L 131.695312 219.257812 Z M 116.390625 208.132812 L 119.917969 205.824219 L 126.125 211.304688 L 123.292969 214.246094 Z M 110.5625 200.621094 L 114.65625 199.054688 L 119.585938 205.453125 L 116.042969 207.769531 Z M 106.4375 192.460938 L 110.925781 191.710938 L 114.390625 198.632812 L 110.285156 200.203125 Z M 104.035156 183.636719 L 103.605469 176.15625 L 108.328125 176.988281 L 108.753906 183.703125 Z M 104.742188 168.992188 L 109.316406 170.488281 L 108.355469 176.492188 L 103.625 175.652344 Z M 107.28125 163.035156 L 111.578125 165.039062 L 109.457031 170.019531 L 104.882812 168.519531 Z M 110.886719 158.574219 L 114.820312 160.90625 L 111.828125 164.609375 L 107.542969 162.609375 Z M 115.179688 155.792969 L 118.699219 158.273438 L 115.183594 160.558594 L 111.300781 158.253906 Z M 124.328125 155.34375 L 126.875 157.515625 L 123.53125 157.070312 L 120.722656 154.839844 Z M 143.808594 174.996094 L 143.234375 172.804688 L 145.398438 174.648438 L 145.535156 175.414062 Z M 141.609375 174.476562 L 140.484375 170.472656 L 142.59375 172.265625 L 143.269531 174.867188 Z M 139.449219 173.957031 L 137.738281 168.144531 L 139.8125 169.910156 L 141.0625 174.351562 Z M 143.003906 171.96875 L 141.457031 169.21875 L 143.261719 170.789062 L 144.757812 173.464844 Z M 139.519531 167.535156 L 140.355469 168.257812 L 141.929688 171.0625 L 140.226562 169.613281 L 138.867188 167.210938 Z M 138.085938 166.8125 L 139.144531 168.6875 L 137.472656 167.265625 L 137 166.429688 L 137.433594 166.480469 Z M 134.300781 165.628906 L 131.421875 163.34375 L 134.0625 163.660156 L 136.695312 165.898438 Z M 131.121094 166.429688 L 127.664062 163.992188 L 130.535156 163.261719 L 133.667969 165.753906 Z M 128.292969 168.34375 L 124.390625 166.027344 L 127.078125 164.1875 L 130.648438 166.707031 Z M 126.039062 171.230469 L 121.769531 169.242188 L 124 166.359375 L 127.945312 168.703125 Z M 124.171875 183.9375 L 119.5625 183.863281 L 119.195312 178.917969 L 123.835938 179.742188 Z M 128.117188 193.90625 L 131.191406 197.855469 L 127.769531 200.09375 L 124.148438 195.421875 Z M 135.433594 201.640625 L 132.703125 204.472656 L 128.125 200.449219 L 131.53125 198.21875 Z M 140.464844 204.640625 L 138.503906 207.914062 L 133.117188 204.757812 L 135.839844 201.933594 Z M 146.117188 206.679688 L 144.953125 210.222656 L 138.945312 208.117188 L 140.902344 204.855469 Z M 152.207031 207.59375 L 151.808594 211.246094 L 145.425781 210.335938 L 146.59375 206.792969 Z M 158.515625 207.304688 L 158.828125 210.914062 L 152.304688 211.261719 L 152.703125 207.613281 Z M 164.816406 205.777344 L 165.734375 209.214844 L 159.3125 210.832031 L 159.003906 207.246094 Z M 169.230469 203.511719 C 169.230469 203.503906 169.226562 203.496094 169.222656 203.496094 C 169.203125 203.464844 169.179688 203.433594 169.15625 203.410156 L 165.433594 198.152344 L 169.761719 197.148438 L 175.414062 205.09375 L 171.707031 207.011719 L 171.574219 206.820312 C 171.570312 206.816406 171.570312 206.800781 171.5625 206.796875 C 171.542969 206.757812 171.519531 206.726562 171.488281 206.703125 Z M 160.773438 188.292969 L 165.550781 188.277344 L 169.507812 196.707031 L 165.160156 197.714844 Z M 163.195312 179.386719 L 165.394531 187.78125 L 160.585938 187.800781 L 158.175781 178.414062 Z M 158.804688 160.957031 L 163.714844 163.636719 L 162.675781 170.507812 L 157.585938 168.597656 Z M 161.546875 154.359375 L 166.144531 157.632812 L 163.859375 163.152344 L 158.929688 160.460938 Z M 165.394531 149.640625 L 169.59375 153.308594 L 166.402344 157.214844 L 161.796875 153.933594 Z M 169.945312 146.980469 L 173.671875 150.789062 L 169.964844 152.972656 L 165.789062 149.332031 Z M 174.734375 146.398438 L 177.972656 150.101562 L 174.15625 150.582031 L 170.515625 146.871094 Z M 179.375 147.792969 L 182.050781 151.105469 L 178.601562 150.078125 L 175.59375 146.636719 Z M 188.078125 156.867188 L 186.125 155.375 L 184.195312 152.992188 L 186.320312 154.625 Z M 199.308594 174.03125 L 199.949219 178.800781 L 197.914062 176.441406 L 197.238281 171.511719 Z M 195.066406 199.21875 L 192.890625 196.59375 L 195.691406 190.269531 L 197.929688 192.800781 Z M 198.375 207.65625 L 196.433594 210.753906 L 190.058594 206.527344 L 192.820312 203.984375 Z M 205.136719 210.527344 L 204.050781 213.984375 L 196.875 210.988281 L 198.816406 207.890625 Z M 212.523438 212.09375 L 212.261719 215.722656 L 204.527344 214.125 L 205.613281 210.667969 Z M 220.269531 212.207031 L 220.75 215.84375 L 212.742188 215.769531 L 213.003906 212.144531 Z M 228.136719 210.765625 L 229.25 214.296875 L 221.246094 215.792969 L 220.765625 212.152344 Z M 235.824219 207.769531 L 237.421875 211.117188 L 229.710938 214.15625 L 228.597656 210.628906 Z M 243.078125 203.28125 L 245.023438 206.417969 L 237.875 210.890625 L 236.277344 207.542969 Z M 249.617188 197.410156 L 251.765625 200.378906 L 245.410156 206.109375 L 243.476562 202.976562 Z M 255.1875 190.414062 L 257.417969 193.269531 L 252.09375 200.007812 L 249.953125 197.058594 Z M 259.601562 182.53125 L 261.839844 185.375 L 257.699219 192.816406 L 255.484375 189.984375 Z M 262.691406 174.148438 L 264.886719 177.082031 L 262.050781 184.859375 L 259.835938 182.046875 Z M 267.472656 180.535156 L 264.664062 188.179688 L 262.410156 185.308594 L 265.238281 177.546875 Z M 179.984375 215.136719 L 177.476562 212.6875 C 177.476562 212.683594 177.46875 212.675781 177.46875 212.667969 C 177.445312 212.644531 177.421875 212.621094 177.390625 212.601562 L 174.574219 209.851562 C 174.566406 209.847656 174.566406 209.832031 174.558594 209.828125 C 174.535156 209.796875 174.503906 209.773438 174.472656 209.753906 L 174.285156 209.566406 C 174.257812 209.519531 174.226562 209.488281 174.183594 209.46875 L 172.046875 207.382812 L 175.738281 205.472656 L 182.90625 212.441406 Z M 115.898438 190.878906 L 118.933594 196.902344 L 114.859375 198.457031 L 111.4375 191.625 Z M 119.191406 197.324219 L 123.5 202.890625 L 119.996094 205.183594 L 115.136719 198.871094 Z M 123.828125 203.261719 L 129.257812 208.050781 L 126.460938 210.953125 L 120.34375 205.546875 Z M 127.699219 200.726562 L 132.363281 204.824219 L 129.601562 207.691406 L 124.257812 202.976562 Z M 166.800781 213.210938 L 159.671875 215 L 159.351562 211.328125 L 165.859375 209.6875 Z M 159.1875 215.078125 L 151.847656 215.464844 L 152.25 211.761719 L 158.875 211.410156 Z M 151.355469 215.445312 L 144.09375 214.398438 L 145.273438 210.808594 L 151.753906 211.734375 Z M 143.613281 214.285156 L 136.703125 211.859375 L 138.683594 208.554688 L 144.792969 210.695312 Z M 136.257812 211.660156 L 130.003906 207.984375 L 132.757812 205.125 L 138.246094 208.339844 Z M 129.65625 208.351562 L 136.007812 212.074219 L 133.996094 215.433594 L 126.875 211.238281 Z M 136.445312 212.289062 L 143.457031 214.75 L 142.253906 218.386719 L 134.429688 215.632812 Z M 143.9375 214.863281 L 151.304688 215.921875 L 150.902344 219.675781 L 142.742188 218.5 Z M 151.796875 215.945312 L 159.234375 215.546875 L 159.550781 219.257812 L 151.390625 219.683594 Z M 159.710938 215.488281 L 166.921875 213.675781 L 167.863281 217.214844 L 160.027344 219.179688 Z M 167.394531 213.523438 L 174.097656 210.390625 L 175.542969 213.695312 L 168.339844 217.050781 Z M 174.792969 210.738281 L 176.886719 212.78125 L 175.96875 213.4375 Z M 182.570312 151.773438 L 185.273438 155.109375 L 182.234375 154.242188 L 179.214844 150.78125 Z M 193.335938 186.855469 L 194.847656 180.613281 L 197.03125 183.066406 L 195.503906 189.304688 Z M 264.445312 188.699219 L 260.285156 196.140625 L 258.019531 193.246094 L 262.160156 185.792969 Z M 260.015625 196.570312 L 254.578125 203.417969 L 252.398438 200.410156 L 257.734375 193.65625 Z M 254.242188 203.796875 L 247.648438 209.738281 L 245.671875 206.539062 L 252.050781 200.777344 Z M 247.261719 210.039062 L 239.714844 214.75 L 238.082031 211.335938 L 245.273438 206.835938 Z M 239.269531 214.976562 L 230.996094 218.230469 L 229.859375 214.621094 L 237.632812 211.558594 Z M 230.523438 218.363281 L 221.796875 220 L 221.308594 216.28125 L 229.386719 214.761719 Z M 221.308594 220.039062 L 212.4375 219.953125 L 212.707031 216.261719 L 220.816406 216.328125 Z M 211.953125 219.902344 L 203.269531 218.105469 L 204.378906 214.589844 L 212.226562 216.207031 Z M 202.800781 217.964844 L 194.648438 214.542969 L 196.617188 211.402344 L 203.90625 214.449219 Z M 194.207031 214.316406 L 186.886719 209.453125 L 189.6875 206.875 L 196.175781 211.167969 Z M 186.492188 209.144531 L 180.28125 203.121094 L 183.835938 201.277344 L 189.300781 206.558594 Z M 181.992188 154.730469 L 185.269531 158.484375 L 182.359375 158.9375 L 178.691406 155.199219 Z M 190.609375 163.4375 L 191.386719 164.378906 L 192.152344 169.746094 L 190.207031 167.484375 C 190.207031 167.46875 190.195312 167.457031 190.1875 167.445312 L 189.558594 163.160156 Z M 191.949219 176.625 L 189.890625 174.3125 L 190.1875 168.214844 L 192.253906 170.617188 Z M 184.207031 193.457031 L 183.160156 191.28125 L 185.234375 188.152344 L 187.34375 190.695312 L 184.886719 194.398438 Z M 179.476562 194.390625 L 176.535156 188.226562 L 181.132812 188.210938 L 183.640625 193.425781 Z M 185.976562 163.332031 L 183.625 164.886719 L 179.457031 161.25 L 182.214844 159.496094 Z M 183.269531 165.230469 L 181.324219 167.847656 L 176.761719 164.59375 L 179.085938 161.578125 Z M 181.074219 168.277344 L 179.742188 171.839844 L 174.90625 169.199219 L 176.515625 165.03125 Z M 179.613281 172.320312 L 179.082031 176.644531 L 174.121094 174.789062 L 174.800781 169.691406 Z M 179.972656 182.269531 L 179.539062 177.019531 C 179.542969 177 179.542969 176.980469 179.539062 176.960938 L 180.117188 172.273438 C 180.121094 172.253906 180.125 172.238281 180.128906 172.21875 L 181.574219 168.359375 C 181.578125 168.351562 181.585938 168.351562 181.589844 168.34375 C 181.609375 168.320312 181.625 168.289062 181.628906 168.253906 L 183.75 165.398438 C 183.761719 165.390625 183.78125 165.375 183.785156 165.359375 C 183.785156 165.359375 183.792969 165.351562 183.792969 165.351562 L 186.429688 163.613281 C 186.441406 163.613281 186.460938 163.605469 186.472656 163.59375 L 189.058594 163.148438 L 189.714844 167.605469 C 189.714844 167.613281 189.714844 167.621094 189.714844 167.625 L 189.390625 174.363281 L 187.785156 181.152344 L 184.988281 187.621094 L 182.902344 190.769531 L 181.511719 187.871094 C 181.507812 187.863281 181.507812 187.855469 181.5 187.851562 L 179.96875 182.304688 C 179.980469 182.296875 179.972656 182.28125 179.972656 182.269531 Z M 185.5 187.695312 L 188.105469 181.6875 L 190.242188 184.113281 L 187.585938 190.207031 Z M 190.402344 183.550781 L 188.296875 181.171875 L 189.773438 174.914062 L 191.894531 177.304688 Z M 186.449219 163.109375 L 182.777344 159.367188 L 185.644531 158.917969 L 188.929688 162.683594 Z M 181.871094 159.148438 L 179.078125 160.917969 L 174.917969 157.289062 L 178.132812 155.328125 Z M 178.710938 161.257812 L 176.359375 164.316406 L 171.796875 161.066406 L 174.527344 157.613281 Z M 176.113281 164.738281 L 174.484375 168.953125 L 169.632812 166.300781 L 171.5625 161.484375 Z M 174.335938 169.441406 L 173.652344 174.613281 L 168.671875 172.746094 L 169.507812 166.796875 Z M 179.054688 177.164062 L 179.453125 182.039062 L 174.558594 181.09375 L 174.117188 175.316406 Z M 179.523438 182.539062 L 180.957031 187.71875 L 176.328125 187.738281 L 174.664062 181.597656 Z M 175.992188 188.230469 L 178.988281 194.503906 L 174.78125 195.480469 L 171.359375 188.25 Z M 179.242188 194.953125 L 183.515625 200.898438 L 179.945312 202.746094 L 175.054688 195.921875 Z M 183.953125 200.671875 L 179.757812 194.835938 L 183.894531 193.875 L 187.488281 198.84375 Z M 185.183594 194.808594 L 187.667969 191.082031 L 189.808594 193.664062 L 187.1875 197.582031 Z M 187.933594 190.625 L 190.601562 184.507812 L 192.777344 186.964844 L 190.050781 193.167969 Z M 190.800781 183.996094 L 192.292969 177.742188 L 194.441406 180.164062 L 192.9375 186.40625 Z M 192.410156 177.144531 L 192.71875 171.152344 L 194.824219 173.605469 L 194.5 179.496094 Z M 192.746094 170.433594 L 191.984375 165.109375 L 194.003906 167.574219 L 194.726562 172.738281 Z M 191.832031 164.152344 L 191.667969 163.71875 L 192.425781 163.921875 L 192.738281 164.160156 L 193.496094 166.1875 Z M 191.425781 163.136719 C 191.371094 163.089844 191.292969 163.070312 191.226562 163.085938 L 190.878906 163 C 190.824219 162.957031 190.761719 162.945312 190.695312 162.953125 L 189.574219 162.660156 C 189.558594 162.648438 189.550781 162.640625 189.535156 162.628906 L 186.464844 159.105469 L 189.097656 159.832031 L 191.863281 163.257812 Z M 185.890625 158.449219 L 182.804688 154.914062 L 185.808594 155.773438 L 188.570312 159.191406 Z M 181.617188 154.28125 L 178.246094 154.757812 L 174.589844 151.03125 L 178.355469 150.554688 Z M 177.769531 154.960938 L 174.527344 156.945312 L 170.359375 153.308594 L 174.035156 151.148438 Z M 174.15625 157.285156 L 171.390625 160.777344 L 166.808594 157.507812 L 169.964844 153.632812 Z M 171.140625 161.191406 L 169.191406 166.066406 L 164.296875 163.398438 L 166.558594 157.929688 Z M 169.050781 166.550781 L 168.203125 172.574219 L 163.160156 170.683594 L 164.183594 163.886719 Z M 173.621094 175.125 L 174.066406 180.988281 L 169.136719 180.042969 L 168.667969 173.273438 Z M 174.136719 181.496094 L 175.828125 187.738281 L 171.160156 187.753906 L 169.238281 180.546875 Z M 170.808594 188.25 L 174.285156 195.589844 L 170.007812 196.582031 L 166.105469 188.265625 Z M 174.539062 196.039062 L 179.503906 202.96875 L 175.863281 204.851562 L 170.285156 197.023438 Z M 176.199219 205.238281 L 179.828125 203.355469 L 186.132812 209.476562 L 183.269531 212.109375 Z M 186.515625 209.785156 L 193.949219 214.71875 L 191.9375 217.925781 L 183.660156 212.410156 Z M 194.386719 214.953125 L 202.65625 218.421875 L 201.53125 222 L 192.386719 218.15625 Z M 203.128906 218.570312 L 211.921875 220.394531 L 211.648438 224.15625 L 202.003906 222.15625 Z M 212.402344 220.4375 L 221.375 220.515625 L 221.871094 224.289062 L 212.128906 224.199219 Z M 221.863281 220.472656 L 230.667969 218.820312 L 231.820312 222.484375 L 222.363281 224.253906 Z M 231.140625 218.679688 L 239.480469 215.394531 L 241.144531 218.878906 L 232.296875 222.347656 Z M 239.917969 215.175781 L 247.507812 210.441406 L 249.53125 213.707031 L 241.582031 218.652344 Z M 247.90625 210.144531 L 254.523438 204.1875 L 256.753906 207.273438 L 249.921875 213.414062 Z M 254.867188 203.824219 L 260.316406 196.960938 L 262.636719 199.929688 L 257.09375 206.894531 Z M 260.609375 196.554688 L 264.769531 189.113281 L 267.097656 192.070312 L 262.914062 199.496094 Z M 192.394531 203.640625 C 192.402344 203.644531 192.402344 203.644531 192.410156 203.652344 L 192.441406 203.675781 L 189.664062 206.226562 L 184.296875 201.042969 L 187.816406 199.222656 Z M 188.039062 198.757812 L 187.492188 198 L 190.132812 194.050781 L 192.300781 196.660156 L 189.769531 200.425781 Z M 190.398438 193.597656 L 193.132812 187.375 L 195.332031 189.867188 L 192.535156 196.179688 Z M 195.886719 189.75 L 197.421875 183.519531 L 199.644531 186.011719 L 198.097656 192.238281 Z M 194.976562 180.023438 L 195.296875 174.144531 L 197.425781 176.617188 L 197.085938 182.394531 Z M 195.328125 173.433594 L 194.601562 168.304688 L 196.640625 170.785156 L 197.320312 175.757812 Z M 194.457031 167.355469 L 193.472656 164.699219 L 194.53125 165.496094 L 194.847656 165.898438 L 196.152344 169.410156 Z M 193.144531 163.839844 C 193.109375 163.777344 193.050781 163.734375 192.988281 163.722656 L 192.699219 163.503906 L 190.722656 161.0625 L 192.269531 162.230469 C 192.277344 162.238281 192.28125 162.238281 192.28125 162.242188 L 194.089844 164.554688 Z M 189.441406 159.472656 L 187.425781 156.976562 L 189.277344 158.390625 L 191.109375 160.734375 Z M 168.171875 173.082031 L 168.648438 179.945312 L 163.648438 178.980469 L 163.160156 171.203125 Z M 168.710938 180.453125 L 170.652344 187.761719 L 165.917969 187.78125 L 163.753906 179.488281 Z M 171.425781 207.457031 C 171.425781 207.457031 171.433594 207.464844 171.433594 207.464844 C 171.449219 207.480469 171.464844 207.5 171.488281 207.519531 L 173.859375 209.832031 L 173.90625 209.941406 L 167.269531 213.042969 L 166.328125 209.519531 L 171.25 207.210938 Z M 127.363281 200.363281 L 123.914062 202.628906 L 119.667969 197.148438 L 123.671875 195.617188 Z M 119.390625 196.722656 L 116.402344 190.796875 L 120.804688 190.058594 L 123.410156 195.183594 Z M 116.214844 190.332031 L 114.527344 184.285156 L 119.140625 184.355469 L 120.628906 189.589844 Z M 126.449219 160.019531 L 123.160156 160.816406 L 119.738281 158.398438 L 123.359375 157.5625 Z M 120.035156 163.4375 L 123.113281 161.382812 L 126.65625 163.882812 L 123.921875 165.742188 Z M 123.703125 161.203125 L 126.945312 160.417969 L 130.046875 162.886719 L 127.132812 163.625 Z M 122.675781 161.082031 L 119.554688 163.152344 L 115.65625 160.835938 L 119.136719 158.582031 Z M 119.207031 163.507812 L 116.585938 166.820312 L 112.292969 164.820312 L 115.257812 161.160156 Z M 116.328125 167.25 L 114.492188 171.660156 L 109.921875 170.160156 L 112.023438 165.238281 Z M 114.367188 172.140625 L 113.558594 177.417969 L 108.847656 176.582031 L 109.792969 170.644531 Z M 118.695312 178.828125 L 119.066406 183.855469 L 114.429688 183.789062 L 114.035156 178 Z M 114.050781 177.503906 L 114.839844 172.289062 L 119.375 173.773438 L 118.71875 178.324219 Z M 114.964844 171.820312 L 116.78125 167.464844 L 121.0625 169.457031 L 119.507812 173.296875 Z M 117.042969 167.039062 L 119.636719 163.769531 L 123.578125 166.109375 L 121.3125 169.023438 Z M 130.691406 162.769531 L 127.847656 160.507812 L 130.8125 160.886719 L 133.398438 163.089844 Z M 127.101562 159.914062 L 124.269531 157.664062 L 127.558594 158.105469 L 130.128906 160.296875 Z M 119.789062 154.734375 L 122.863281 157.179688 L 119.199219 158.027344 L 115.785156 155.625 Z M 108.832031 177.078125 L 113.539062 177.914062 L 113.941406 183.785156 L 109.257812 183.714844 Z M 114.011719 184.277344 L 115.726562 190.414062 L 111.25 191.164062 L 109.339844 184.207031 Z M 151.335938 220.183594 L 159.589844 219.746094 L 159.914062 223.511719 L 150.921875 223.976562 Z M 160.078125 219.679688 L 167.992188 217.691406 L 168.949219 221.296875 L 160.394531 223.441406 Z M 212.09375 224.691406 L 221.9375 224.78125 L 222.445312 228.632812 L 211.816406 228.53125 Z M 222.421875 224.742188 L 231.96875 222.960938 L 233.140625 226.695312 L 222.929688 228.601562 Z M 265.015625 188.628906 L 267.820312 181 L 270.101562 184.050781 L 267.316406 191.554688 Z M 190.125 200.765625 L 192.625 197.054688 L 194.824219 199.703125 L 192.53125 203.085938 Z M 199.707031 185.339844 L 197.546875 182.917969 L 197.886719 177.15625 L 200.054688 179.679688 Z M 197.097656 170.566406 L 195.824219 167.136719 L 197.523438 169.292969 L 197.625 169.4375 L 198.800781 172.648438 Z M 183.421875 150.921875 L 185.082031 153.039062 L 182.898438 151.363281 L 181.070312 149.101562 Z M 157.582031 169.113281 L 162.644531 171.011719 L 163.132812 178.878906 L 158.078125 177.898438 Z M 170.96875 206.8125 L 166.199219 209.046875 L 165.285156 205.617188 L 168.910156 203.914062 Z M 127.851562 193.484375 L 123.871094 195.011719 L 121.316406 189.972656 L 125.683594 189.246094 Z M 125.503906 188.78125 L 121.121094 189.511719 L 119.660156 184.359375 L 124.246094 184.429688 Z M 123.859375 179.246094 L 119.210938 178.421875 L 119.863281 173.9375 L 124.390625 175.421875 Z M 124.507812 174.933594 L 119.980469 173.457031 L 121.515625 169.671875 L 125.796875 171.671875 Z M 135.148438 166.230469 L 135.546875 166.277344 L 137.074219 167.574219 L 138.90625 173.832031 L 137.320312 173.457031 Z M 137.601562 166.011719 C 137.59375 166.011719 137.585938 166.007812 137.585938 166.007812 L 135.898438 164.566406 L 137.40625 165.328125 L 137.421875 165.347656 C 137.441406 165.367188 137.460938 165.378906 137.484375 165.386719 L 139.007812 166.71875 Z M 134.3125 163.214844 L 132.648438 161.800781 L 134.390625 162.691406 L 135.921875 164.035156 Z M 131.058594 160.4375 L 129.457031 159.066406 L 131.414062 160.078125 L 132.882812 161.367188 Z M 129.910156 158.75 L 127.820312 157.675781 L 126.226562 156.3125 L 128.433594 157.457031 Z M 104.125 184.132812 L 108.828125 184.199219 L 110.757812 191.242188 L 106.257812 191.996094 Z M 270.019531 195 L 267.667969 192.003906 L 270.449219 184.515625 L 272.78125 187.632812 Z M 270.019531 195" fill="#c8c2e0"/></g></g></g><g clip-path="url(#3771c92cac)"><g clip-path="url(#871644f124)"><g clip-path="url(#a2c1767a1f)"><path fill-rule="nonzero" fill-opacity="1" d="M 329.902344 126.015625 C 329.902344 126.015625 366.515625 141.757812 350.207031 178.386719 C 333.667969 215.527344 289.769531 216.519531 275.960938 217 C 275.960938 217 309.148438 212.527344 326.792969 197.875 C 345.574219 182.273438 358.277344 150.472656 329.902344 126.015625 Z M 329.320312 123.363281 L 335.46875 119.550781 L 328.269531 120.222656 C 327.117188 120.328125 326.117188 119.984375 325.625 119.316406 L 320.476562 112.3125 L 320.601562 121.003906 C 320.613281 121.835938 320.023438 122.714844 319.039062 123.324219 L 312.894531 127.136719 L 320.09375 126.464844 C 321.246094 126.359375 322.246094 126.699219 322.738281 127.367188 L 327.886719 134.375 L 327.761719 125.679688 C 327.75 124.851562 328.34375 123.972656 329.320312 123.363281 Z M 329.320312 123.363281" fill="#8b84b7"/></g></g></g><g fill-opacity="0.6" fill="#6c699a"><g transform="translate(77.714284, 221.742339)"><g><path d="M 21.984375 -28.390625 L 21.90625 -29.03125 C 21.109375 -35.484375 15.140625 -40.171875 8.671875 -39.375 C 2.203125 -38.578125 -2.40625 -32.59375 -1.609375 -26.140625 C -0.703125 -18.765625 5.15625 -16.390625 9.03125 -14.828125 C 12.5 -13.390625 12.703125 -13.046875 12.78125 -12.46875 C 12.828125 -12 12.515625 -11.578125 12.09375 -11.53125 C 11.671875 -11.46875 11.265625 -11.796875 11.21875 -12.265625 L 11.140625 -12.90625 L 0.1875 -11.5625 L 0.265625 -10.921875 C 1.0625 -4.390625 6.96875 0.203125 13.4375 -0.59375 C 19.90625 -1.390625 24.578125 -7.28125 23.78125 -13.8125 C 22.875 -21.171875 17.046875 -23.515625 13.140625 -25.078125 C 9.625 -26.5 9.421875 -26.84375 9.34375 -27.484375 C 9.28125 -27.9375 9.609375 -28.3125 10.03125 -28.375 C 10.453125 -28.421875 10.84375 -28.140625 10.90625 -27.6875 L 10.984375 -27.046875 Z M 21.984375 -28.390625"/></g></g></g><g fill-opacity="0.6" fill="#6c699a"><g transform="translate(104.443079, 218.459799)"><g><path d="M 22.328125 -27.84375 L 20.859375 -39.78125 L -1.859375 -37 L 2.640625 -0.28125 L 25.359375 -3.0625 L 23.90625 -15 L 13.390625 -13.71875 L 19.640625 -23.03125 L 12.34375 -22.140625 L 11.8125 -26.5625 Z M 22.328125 -27.84375"/></g></g></g><g fill-opacity="0.6" fill="#6c699a"><g transform="translate(132.487259, 215.015717)"><g><path d="M 18.875 -14.921875 C 15.625 -14.53125 12.625 -16.828125 12.21875 -20.09375 C 11.8125 -23.421875 14.171875 -26.359375 17.421875 -26.75 C 20.171875 -27.09375 22.671875 -25.53125 23.65625 -23.09375 L 37.296875 -24.765625 C 35.265625 -34.671875 25.921875 -41.484375 15.765625 -40.234375 C 5.03125 -38.921875 -2.515625 -29.171875 -1.203125 -18.4375 C 0.109375 -7.75 9.796875 -0.140625 20.53125 -1.453125 C 30.6875 -2.703125 38.109375 -11.578125 37.671875 -21.65625 L 24.03125 -19.984375 C 23.671875 -17.390625 21.625 -15.265625 18.875 -14.921875 Z M 18.875 -14.921875"/></g></g></g><g fill-opacity="0.6" fill="#6c699a"><g transform="translate(173.317062, 210.001443)"><g><path d="M 12.71875 -38.78125 L 15.875 -13 L 13.5 -12.71875 L 10.34375 -38.5 L -1.859375 -37 L 1.140625 -12.53125 C 2.03125 -5.234375 8.65625 0 15.953125 -0.890625 L 16.28125 -0.9375 C 23.59375 -1.828125 28.8125 -8.515625 27.921875 -15.8125 L 24.921875 -40.28125 Z M 12.71875 -38.78125"/></g></g></g><g fill-opacity="0.6" fill="#6c699a"><g transform="translate(205.360043, 206.066272)"><g><path d="M 14.84375 -1.828125 L 10.34375 -38.5 L -1.859375 -37 L 2.640625 -0.328125 Z M 16.921875 -19.21875 C 17.078125 -19.3125 17.1875 -19.3125 17.328125 -19.390625 C 21.75 -21.203125 24.1875 -25.28125 23.609375 -29.96875 C 22.9375 -35.515625 17.90625 -39.421875 12.390625 -38.75 L 11.703125 -38.65625 L 16.203125 -1.9375 L 28.140625 -3.40625 Z M 16.921875 -19.21875"/></g></g></g><g fill-opacity="0.6" fill="#6c699a"><g transform="translate(234.561782, 202.480031)"><g><path d="M 5.3125 -25.484375 L 11.546875 -28.65625 L 10.34375 -38.5 L -1.859375 -37 L 2.640625 -0.328125 L 14.84375 -1.828125 L 11.84375 -26.296875 Z M 5.3125 -25.484375"/></g></g></g><g fill-opacity="0.6" fill="#6c699a"><g transform="translate(252.030212, 200.334748)"><g><path d="M 21.03125 -39.8125 L -3.453125 -36.796875 L -1.984375 -24.859375 L 4.125 -25.609375 L 7.15625 -0.875 L 19.375 -2.375 L 16.34375 -27.109375 L 22.5 -27.875 Z M 21.03125 -39.8125"/></g></g></g><g fill-opacity="0.6" fill="#6c699a"><g transform="translate(278.653777, 197.065131)"><g><path d="M 8.4375 -11.28125 L 10.703125 -32.453125 L 8.765625 -38.296875 L -3.453125 -36.796875 L 6.171875 -10.53125 L 8.390625 -10.796875 Z M 12.765625 -38.796875 L 8.6875 -1.0625 L 20.890625 -2.5625 L 24.96875 -40.296875 Z M 12.765625 -38.796875"/></g></g></g><g fill-opacity="1" fill="#fbd6df"><g transform="translate(75.102885, 219.702193)"><g><path d="M 21.984375 -28.390625 L 21.90625 -29.03125 C 21.109375 -35.484375 15.140625 -40.171875 8.671875 -39.375 C 2.203125 -38.578125 -2.40625 -32.59375 -1.609375 -26.140625 C -0.703125 -18.765625 5.15625 -16.390625 9.03125 -14.828125 C 12.5 -13.390625 12.703125 -13.046875 12.78125 -12.46875 C 12.828125 -12 12.515625 -11.578125 12.09375 -11.53125 C 11.671875 -11.46875 11.265625 -11.796875 11.21875 -12.265625 L 11.140625 -12.90625 L 0.1875 -11.5625 L 0.265625 -10.921875 C 1.0625 -4.390625 6.96875 0.203125 13.4375 -0.59375 C 19.90625 -1.390625 24.578125 -7.28125 23.78125 -13.8125 C 22.875 -21.171875 17.046875 -23.515625 13.140625 -25.078125 C 9.625 -26.5 9.421875 -26.84375 9.34375 -27.484375 C 9.28125 -27.9375 9.609375 -28.3125 10.03125 -28.375 C 10.453125 -28.421875 10.84375 -28.140625 10.90625 -27.6875 L 10.984375 -27.046875 Z M 21.984375 -28.390625"/></g></g></g><g fill-opacity="1" fill="#fbd6df"><g transform="translate(101.83168, 216.419653)"><g><path d="M 22.328125 -27.84375 L 20.859375 -39.78125 L -1.859375 -37 L 2.640625 -0.28125 L 25.359375 -3.0625 L 23.90625 -15 L 13.390625 -13.71875 L 19.640625 -23.03125 L 12.34375 -22.140625 L 11.8125 -26.5625 Z M 22.328125 -27.84375"/></g></g></g><g fill-opacity="1" fill="#fbd6df"><g transform="translate(129.87586, 212.975571)"><g><path d="M 18.875 -14.921875 C 15.625 -14.53125 12.625 -16.828125 12.21875 -20.09375 C 11.8125 -23.421875 14.171875 -26.359375 17.421875 -26.75 C 20.171875 -27.09375 22.671875 -25.53125 23.65625 -23.09375 L 37.296875 -24.765625 C 35.265625 -34.671875 25.921875 -41.484375 15.765625 -40.234375 C 5.03125 -38.921875 -2.515625 -29.171875 -1.203125 -18.4375 C 0.109375 -7.75 9.796875 -0.140625 20.53125 -1.453125 C 30.6875 -2.703125 38.109375 -11.578125 37.671875 -21.65625 L 24.03125 -19.984375 C 23.671875 -17.390625 21.625 -15.265625 18.875 -14.921875 Z M 18.875 -14.921875"/></g></g></g><g fill-opacity="1" fill="#fbd6df"><g transform="translate(170.705663, 207.961297)"><g><path d="M 12.71875 -38.78125 L 15.875 -13 L 13.5 -12.71875 L 10.34375 -38.5 L -1.859375 -37 L 1.140625 -12.53125 C 2.03125 -5.234375 8.65625 0 15.953125 -0.890625 L 16.28125 -0.9375 C 23.59375 -1.828125 28.8125 -8.515625 27.921875 -15.8125 L 24.921875 -40.28125 Z M 12.71875 -38.78125"/></g></g></g><g fill-opacity="1" fill="#fbd6df"><g transform="translate(202.748644, 204.026126)"><g><path d="M 14.84375 -1.828125 L 10.34375 -38.5 L -1.859375 -37 L 2.640625 -0.328125 Z M 16.921875 -19.21875 C 17.078125 -19.3125 17.1875 -19.3125 17.328125 -19.390625 C 21.75 -21.203125 24.1875 -25.28125 23.609375 -29.96875 C 22.9375 -35.515625 17.90625 -39.421875 12.390625 -38.75 L 11.703125 -38.65625 L 16.203125 -1.9375 L 28.140625 -3.40625 Z M 16.921875 -19.21875"/></g></g></g><g fill-opacity="1" fill="#fbd6df"><g transform="translate(231.950383, 200.439885)"><g><path d="M 5.3125 -25.484375 L 11.546875 -28.65625 L 10.34375 -38.5 L -1.859375 -37 L 2.640625 -0.328125 L 14.84375 -1.828125 L 11.84375 -26.296875 Z M 5.3125 -25.484375"/></g></g></g><g fill-opacity="1" fill="#fbd6df"><g transform="translate(249.418813, 198.294602)"><g><path d="M 21.03125 -39.8125 L -3.453125 -36.796875 L -1.984375 -24.859375 L 4.125 -25.609375 L 7.15625 -0.875 L 19.375 -2.375 L 16.34375 -27.109375 L 22.5 -27.875 Z M 21.03125 -39.8125"/></g></g></g><g fill-opacity="1" fill="#fbd6df"><g transform="translate(276.042378, 195.024984)"><g><path d="M 8.4375 -11.28125 L 10.703125 -32.453125 L 8.765625 -38.296875 L -3.453125 -36.796875 L 6.171875 -10.53125 L 8.390625 -10.796875 Z M 12.765625 -38.796875 L 8.6875 -1.0625 L 20.890625 -2.5625 L 24.96875 -40.296875 Z M 12.765625 -38.796875"/></g></g></g><g clip-path="url(#1cfb8a8e30)"><g clip-path="url(#98df6a845c)"><g clip-path="url(#3540541ccc)"><path fill-rule="nonzero" fill-opacity="1" d="M 45.097656 248.972656 C 45.097656 248.972656 8.484375 233.230469 24.792969 196.601562 C 41.332031 159.460938 85.230469 158.472656 99.039062 157.988281 C 99.039062 157.988281 65.851562 162.460938 48.207031 177.117188 C 29.421875 192.714844 16.722656 224.519531 45.097656 248.972656 Z M 45.675781 251.628906 L 39.53125 255.441406 L 46.730469 254.769531 C 47.882812 254.664062 48.882812 255.003906 49.375 255.671875 L 54.523438 262.679688 L 54.398438 253.984375 C 54.386719 253.152344 54.976562 252.277344 55.960938 251.667969 L 62.105469 247.855469 L 54.90625 248.527344 C 53.753906 248.632812 52.753906 248.292969 52.261719 247.621094 L 47.113281 240.617188 L 47.238281 249.3125 C 47.25 250.140625 46.65625 251.015625 45.675781 251.628906 Z M 45.675781 251.628906" fill="#8b84b7"/></g></g></g><g fill-opacity="1" fill="#6c699a"><g transform="translate(253.134803, 150.428983)"><g><path d="M 7.8125 -0.953125 L 10.953125 -1.34375 L 8.65625 -20.109375 L 14.90625 -20.875 L 14.515625 -24 L -1.125 -22.078125 L -0.734375 -18.953125 L 5.515625 -19.71875 Z M 7.8125 -0.953125"/></g></g></g><g fill-opacity="1" fill="#6c699a"><g transform="translate(271.903488, 148.124017)"><g><path d="M 1.5625 -0.1875 L 17.203125 -2.109375 L 16.8125 -5.234375 L 4.3125 -3.703125 L 2.015625 -22.46875 L -1.125 -22.078125 Z M 1.5625 -0.1875"/></g></g></g><g fill-opacity="1" fill="#6c699a"><g transform="translate(290.672173, 145.819051)"><g><path d="M 2.40625 -19.34375 L -0.734375 -18.953125 L 0.03125 -12.703125 L 3.171875 -13.09375 Z M 1.171875 -3.3125 L 4.3125 -3.703125 L 3.9375 -6.828125 L 0.796875 -6.4375 Z M 4.703125 -0.578125 L 14.078125 -1.734375 L 13.6875 -4.859375 L 4.3125 -3.703125 Z M 3.546875 -9.953125 L 12.921875 -11.109375 L 12.546875 -14.25 L 3.171875 -13.09375 Z M 2.40625 -19.34375 L 11.78125 -20.5 L 11.390625 -23.625 L 2.015625 -22.46875 Z M 13.6875 -4.859375 L 16.8125 -5.234375 L 16.046875 -11.484375 L 12.921875 -11.109375 Z M 12.15625 -17.359375 L 15.28125 -17.734375 L 14.90625 -20.875 L 11.78125 -20.5 Z M 12.15625 -17.359375"/></g></g></g></svg>