<svg xmlns="http://www.w3.org/2000/svg" xmlns:xlink="http://www.w3.org/1999/xlink" width="500" zoomAndPan="magnify" viewBox="0 0 375 374.999991" height="500" preserveAspectRatio="xMidYMid meet" version="1.0"><defs><g/><clipPath id="2c986fa63b"><path d="M 39.074219 33.125 L 336 33.125 L 336 141.875 L 39.074219 141.875 Z M 39.074219 33.125 " clip-rule="nonzero"/></clipPath><clipPath id="d986b73c40"><path d="M 39.074219 233.117188 L 336 233.117188 L 336 341.597656 L 39.074219 341.597656 Z M 39.074219 233.117188 " clip-rule="nonzero"/></clipPath><clipPath id="69fd3f41f2"><path d="M 99 219 L 136 219 L 136 266 L 99 266 Z M 99 219 " clip-rule="nonzero"/></clipPath><clipPath id="86e97951b6"><path d="M 93.375 261.535156 L 100.390625 218.605469 L 140.363281 225.136719 L 133.347656 268.066406 Z M 93.375 261.535156 " clip-rule="nonzero"/></clipPath><clipPath id="b5c3a9398e"><path d="M 93.375 261.535156 L 100.390625 218.605469 L 140.363281 225.136719 L 133.347656 268.066406 Z M 93.375 261.535156 " clip-rule="nonzero"/></clipPath><clipPath id="c82cfae9e3"><path d="M 117.449219 117.417969 L 257.699219 117.417969 L 257.699219 257.667969 L 117.449219 257.667969 Z M 117.449219 117.417969 " clip-rule="nonzero"/></clipPath><clipPath id="9148465b18"><path d="M 236.933594 221.953125 L 277.433594 221.953125 L 277.433594 265.40625 L 236.933594 265.40625 Z M 236.933594 221.953125 " clip-rule="nonzero"/></clipPath><clipPath id="bbaf8014fc"><path d="M 97.183594 111.164062 L 137.683594 111.164062 L 137.683594 154.617188 L 97.183594 154.617188 Z M 97.183594 111.164062 " clip-rule="nonzero"/></clipPath><clipPath id="0a71684c09"><path d="M 233 109 L 275 109 L 275 153 L 233 153 Z M 233 109 " clip-rule="nonzero"/></clipPath><clipPath id="c4544a5008"><path d="M 273.996094 109.332031 L 274.835938 152.824219 L 234.34375 153.605469 L 233.503906 110.113281 Z M 273.996094 109.332031 " clip-rule="nonzero"/></clipPath><clipPath id="d141823bda"><path d="M 273.996094 109.332031 L 274.835938 152.824219 L 234.34375 153.605469 L 233.503906 110.113281 Z M 273.996094 109.332031 " clip-rule="nonzero"/></clipPath></defs><g clip-path="url(#2c986fa63b)"><path fill="#0097b2" d="M 290.636719 142.132812 C 272.976562 102.761719 233.441406 75.335938 187.496094 75.335938 C 141.554688 75.335938 102.019531 102.761719 84.359375 142.132812 L 66.554688 126.160156 L 39.292969 142.132812 C 58.953125 78.976562 117.871094 33.125 187.496094 33.125 C 257.125 33.125 316.042969 78.976562 335.703125 142.132812 L 308.539062 126.160156 Z M 290.636719 142.132812 " fill-opacity="1" fill-rule="nonzero"/></g><g clip-path="url(#d986b73c40)"><path fill="#5e17eb" d="M 290.636719 232.863281 C 272.976562 272.234375 233.441406 299.65625 187.496094 299.65625 C 141.554688 299.65625 102.019531 272.234375 84.359375 232.863281 L 66.554688 248.832031 L 39.292969 232.863281 C 58.953125 296.015625 117.871094 341.867188 187.496094 341.867188 C 257.125 341.867188 316.042969 296.015625 335.703125 232.863281 L 308.539062 248.832031 Z M 290.636719 232.863281 " fill-opacity="1" fill-rule="nonzero"/></g><g clip-path="url(#69fd3f41f2)"><g clip-path="url(#86e97951b6)"><g clip-path="url(#b5c3a9398e)"><path fill="#0097b2" d="M 104.699219 232.363281 C 104.21875 227.917969 103.421875 226.808594 99.359375 224.941406 C 103.804688 224.460938 104.914062 223.664062 106.78125 219.601562 C 107.261719 224.046875 108.058594 225.15625 112.121094 227.027344 C 107.675781 227.507812 106.566406 228.300781 104.699219 232.363281 Z M 135.992188 252.082031 C 125.8125 247.394531 123.816406 244.621094 122.613281 233.476562 C 117.929688 243.65625 115.152344 245.652344 104.011719 246.855469 C 114.191406 251.542969 116.183594 254.316406 117.386719 265.460938 C 122.074219 255.28125 124.851562 253.285156 135.992188 252.082031 Z M 135.992188 252.082031 " fill-opacity="1" fill-rule="nonzero"/></g></g></g><g clip-path="url(#c82cfae9e3)"><path fill="#737373" d="M 187.546875 257.574219 C 187.546875 257.574219 187.539062 257.574219 187.53125 257.574219 L 185.40625 257.542969 L 185.402344 257.542969 L 183.351562 257.496094 C 183.34375 257.496094 183.332031 257.496094 183.324219 257.496094 L 181.414062 257.421875 C 181.402344 257.421875 181.398438 257.421875 181.382812 257.421875 L 179.664062 257.316406 C 179.652344 257.316406 179.644531 257.316406 179.632812 257.316406 L 178.160156 257.1875 C 178.148438 257.1875 178.136719 257.1875 178.121094 257.179688 L 176.945312 257.035156 C 176.929688 257.035156 176.925781 257.035156 176.914062 257.027344 L 176.039062 256.863281 L 174.210938 256.363281 L 164.824219 254.03125 C 164.820312 254.03125 164.820312 254.03125 164.8125 254.023438 C 164.804688 254.023438 164.800781 254.019531 164.792969 254.019531 L 163.824219 253.6875 C 163.8125 253.679688 163.800781 253.671875 163.785156 253.667969 L 154.707031 249.441406 L 153.578125 249.003906 L 152.8125 248.65625 C 152.785156 248.644531 152.761719 248.632812 152.738281 248.613281 L 142.78125 241.722656 C 142.757812 241.703125 142.738281 241.691406 142.714844 241.664062 L 134.082031 233.109375 C 134.066406 233.089844 134.046875 233.074219 134.035156 233.046875 L 127 223.035156 C 126.988281 223.019531 126.976562 222.992188 126.964844 222.976562 L 121.769531 211.859375 C 121.757812 211.832031 121.742188 211.808594 121.738281 211.777344 L 121.71875 211.699219 L 118.554688 199.90625 C 118.550781 199.886719 118.542969 199.863281 118.542969 199.84375 L 118.523438 199.71875 C 118.519531 199.695312 118.511719 199.675781 118.511719 199.652344 L 117.457031 187.644531 L 117.457031 187.640625 L 117.449219 187.597656 C 117.449219 187.566406 117.449219 187.535156 117.457031 187.503906 L 117.457031 187.429688 L 118.507812 175.386719 L 118.539062 175.175781 C 118.542969 175.152344 118.542969 175.128906 118.554688 175.101562 L 118.574219 175.035156 L 121.730469 163.25 C 121.738281 163.222656 121.75 163.191406 121.757812 163.167969 L 126.941406 152.050781 C 126.945312 152.03125 126.957031 152.015625 126.96875 151.996094 C 126.96875 151.988281 126.976562 151.988281 126.976562 151.984375 L 134.003906 141.972656 C 134.015625 141.953125 134.035156 141.929688 134.050781 141.910156 L 142.683594 133.328125 C 142.699219 133.3125 142.726562 133.292969 142.75 133.273438 L 152.699219 126.375 C 152.71875 126.359375 152.742188 126.347656 152.769531 126.332031 L 153.523438 125.988281 L 154.660156 125.554688 L 163.742188 121.320312 C 163.757812 121.316406 163.769531 121.308594 163.78125 121.304688 L 164.75 120.972656 C 164.769531 120.964844 164.789062 120.960938 164.804688 120.960938 L 164.8125 120.960938 L 175.972656 118.132812 L 176.871094 117.960938 C 176.875 117.960938 176.886719 117.960938 176.894531 117.957031 L 178.085938 117.808594 C 178.09375 117.808594 178.097656 117.808594 178.105469 117.808594 L 179.597656 117.679688 C 179.601562 117.679688 179.601562 117.679688 179.609375 117.679688 L 181.347656 117.574219 C 181.355469 117.574219 181.355469 117.574219 181.359375 117.574219 L 183.289062 117.496094 L 183.292969 117.496094 L 185.359375 117.445312 L 185.371094 117.445312 L 187.488281 117.421875 L 187.496094 117.421875 L 189.632812 117.445312 C 189.640625 117.445312 189.640625 117.445312 189.644531 117.445312 L 191.703125 117.496094 L 191.710938 117.496094 L 193.644531 117.574219 C 193.652344 117.574219 193.652344 117.574219 193.65625 117.574219 L 195.390625 117.679688 C 195.394531 117.679688 195.394531 117.679688 195.402344 117.679688 L 196.882812 117.808594 C 196.894531 117.808594 196.90625 117.808594 196.917969 117.8125 L 198.097656 117.960938 C 198.105469 117.960938 198.109375 117.960938 198.121094 117.96875 L 198.996094 118.132812 L 200.847656 118.636719 L 210.214844 120.964844 L 211.179688 121.296875 L 222.199219 126.320312 C 222.207031 126.320312 222.210938 126.328125 222.210938 126.328125 C 222.230469 126.332031 222.25 126.347656 222.261719 126.359375 L 232.230469 133.253906 C 232.25 133.269531 232.265625 133.285156 232.285156 133.296875 L 240.921875 141.875 C 240.9375 141.890625 240.957031 141.910156 240.96875 141.933594 L 248.003906 151.941406 C 248.003906 151.945312 248.007812 151.945312 248.007812 151.953125 C 248.019531 151.972656 248.027344 151.988281 248.039062 152.007812 L 253.234375 163.121094 C 253.25 163.144531 253.253906 163.167969 253.265625 163.199219 L 256.453125 175.078125 C 256.460938 175.089844 256.460938 175.109375 256.46875 175.121094 C 256.46875 175.128906 256.46875 175.132812 256.46875 175.140625 L 256.484375 175.300781 C 256.484375 175.3125 256.492188 175.328125 256.492188 175.34375 L 257.546875 187.46875 C 257.546875 187.492188 257.546875 187.511719 257.546875 187.527344 L 256.496094 199.597656 C 256.496094 199.609375 256.496094 199.617188 256.492188 199.628906 C 256.492188 199.632812 256.492188 199.640625 256.492188 199.640625 L 256.472656 199.78125 C 256.472656 199.789062 256.472656 199.800781 256.464844 199.804688 C 256.464844 199.820312 256.460938 199.835938 256.460938 199.847656 L 253.277344 211.730469 C 253.273438 211.753906 253.261719 211.785156 253.25 211.808594 L 248.058594 222.933594 C 248.046875 222.957031 248.035156 222.976562 248.019531 223 L 240.996094 233.011719 C 240.980469 233.03125 240.964844 233.054688 240.945312 233.066406 L 232.316406 241.648438 C 232.296875 241.664062 232.273438 241.683594 232.25 241.703125 L 222.292969 248.601562 C 222.273438 248.613281 222.25 248.625 222.230469 248.636719 L 211.246094 253.65625 L 210.246094 254 C 210.242188 254 210.226562 254.003906 210.222656 254.003906 L 207.21875 254.765625 L 200.84375 256.34375 L 199.03125 256.835938 L 198.132812 257.007812 C 198.128906 257.007812 198.121094 257.007812 198.117188 257.007812 C 198.109375 257.007812 198.105469 257.007812 198.105469 257.007812 L 196.917969 257.15625 C 196.90625 257.15625 196.894531 257.15625 196.882812 257.164062 L 195.414062 257.292969 C 195.402344 257.292969 195.394531 257.292969 195.382812 257.292969 L 193.667969 257.394531 C 193.65625 257.394531 193.652344 257.394531 193.636719 257.394531 L 191.726562 257.476562 C 191.722656 257.476562 191.710938 257.476562 191.703125 257.476562 L 189.652344 257.523438 L 189.644531 257.523438 L 187.519531 257.554688 C 187.558594 257.574219 187.550781 257.574219 187.546875 257.574219 Z M 185.585938 256.761719 L 187.164062 256.777344 L 187.164062 255.355469 L 184.210938 255.339844 Z M 187.9375 255.355469 L 187.9375 256.777344 L 189.515625 256.761719 L 190.894531 255.332031 Z M 183.453125 256.71875 L 184.480469 256.746094 L 183.117188 255.324219 L 180.769531 255.277344 Z M 191.984375 255.320312 L 190.621094 256.738281 L 191.648438 256.714844 L 194.332031 255.265625 Z M 181.5 256.640625 L 181.691406 256.648438 L 179.070312 255.234375 L 177.675781 255.179688 Z M 196.039062 255.226562 L 193.410156 256.648438 L 193.59375 256.640625 L 197.429688 255.179688 Z M 175.035156 255.074219 L 175.953125 255.363281 L 175.234375 255.085938 Z M 199.867188 255.074219 L 199.160156 255.34375 L 200.070312 255.0625 Z M 183.539062 254.550781 L 187.164062 254.578125 L 187.164062 250.945312 L 181.84375 250.910156 Z M 187.945312 250.945312 L 187.945312 254.578125 L 191.566406 254.546875 L 193.261719 250.910156 Z M 179.34375 254.460938 L 182.675781 254.535156 L 180.984375 250.902344 L 176.027344 250.800781 Z M 194.125 250.898438 L 192.433594 254.527344 L 195.761719 254.453125 L 199.082031 250.792969 Z M 175.457031 254.3125 L 178.25 254.421875 L 174.949219 250.78125 L 170.648438 250.628906 Z M 200.15625 250.769531 L 196.851562 254.417969 L 199.644531 254.304688 L 204.453125 250.609375 Z M 171.992188 254.117188 L 174.082031 254.238281 L 169.308594 250.570312 L 165.898438 250.386719 Z M 205.792969 250.558594 L 201.019531 254.226562 L 203.101562 254.105469 L 209.195312 250.371094 Z M 169.050781 253.871094 L 170.273438 253.976562 L 164.265625 250.296875 L 161.945312 250.109375 Z M 210.84375 250.277344 L 204.835938 253.960938 L 206.058594 253.859375 L 213.164062 250.09375 Z M 166.710938 253.585938 L 166.894531 253.613281 L 159.980469 249.953125 L 158.941406 249.835938 Z M 215.125 249.933594 L 208.207031 253.59375 L 208.390625 253.570312 L 216.160156 249.808594 Z M 181.527344 250.136719 L 187.164062 250.171875 L 187.164062 244.394531 L 179.84375 244.351562 Z M 187.945312 244.394531 L 187.945312 250.171875 L 193.582031 250.128906 L 195.265625 244.34375 Z M 175.359375 250.011719 L 180.707031 250.125 L 179.027344 244.34375 L 172.0625 244.214844 Z M 196.078125 244.335938 L 194.394531 250.117188 L 199.742188 250 L 203.042969 244.203125 Z M 169.640625 249.808594 L 174.449219 249.980469 L 171.15625 244.195312 L 164.867188 243.992188 Z M 203.949219 244.183594 L 200.660156 249.976562 L 205.460938 249.796875 L 210.234375 243.976562 Z M 164.546875 249.535156 L 168.585938 249.753906 L 163.824219 243.957031 L 158.484375 243.691406 Z M 211.273438 243.9375 L 206.511719 249.742188 L 210.546875 249.523438 L 216.605469 243.675781 Z M 160.25 249.195312 L 163.339844 249.441406 L 157.3125 243.632812 L 153.15625 243.335938 Z M 217.796875 243.605469 L 211.769531 249.421875 L 214.851562 249.175781 L 221.953125 243.3125 Z M 156.851562 248.808594 L 158.832031 249.035156 L 151.804688 243.230469 L 149.003906 242.941406 Z M 223.292969 243.207031 L 216.265625 249.019531 L 218.242188 248.789062 L 226.085938 242.917969 Z M 154.464844 248.390625 L 155.15625 248.515625 L 147.484375 242.777344 L 146.234375 242.574219 Z M 227.609375 242.753906 L 219.9375 248.488281 L 220.628906 248.367188 L 228.851562 242.542969 Z M 179.644531 243.570312 L 187.164062 243.613281 L 187.164062 235.835938 L 178.109375 235.792969 Z M 187.945312 235.835938 L 187.945312 243.613281 L 195.46875 243.5625 L 197.003906 235.78125 Z M 171.65625 243.429688 L 178.847656 243.5625 L 177.3125 235.789062 L 168.652344 235.652344 Z M 197.789062 235.773438 L 196.253906 243.550781 L 203.449219 243.417969 L 206.449219 235.632812 Z M 164.253906 243.1875 L 170.8125 243.402344 L 167.808594 235.632812 L 159.90625 235.417969 Z M 207.292969 235.621094 L 204.292969 243.390625 L 210.855469 243.175781 L 215.199219 235.402344 Z M 157.683594 242.871094 L 163.339844 243.144531 L 159.003906 235.382812 L 152.179688 235.101562 Z M 216.101562 235.371094 L 211.765625 243.132812 L 217.414062 242.851562 L 222.917969 235.082031 Z M 152.152344 242.484375 L 156.679688 242.800781 L 151.1875 235.058594 L 145.703125 234.726562 Z M 223.914062 235.03125 L 218.421875 242.785156 L 222.949219 242.457031 L 229.390625 234.695312 Z M 147.828125 242.039062 L 151.054688 242.371094 L 144.640625 234.65625 L 140.703125 234.308594 Z M 230.460938 234.625 L 224.046875 242.347656 L 227.265625 242.007812 L 234.398438 234.269531 Z M 144.820312 241.5625 L 146.589844 241.851562 L 139.53125 234.203125 L 137.289062 233.890625 Z M 235.558594 234.167969 L 228.507812 241.820312 L 230.269531 241.53125 L 237.792969 233.847656 Z M 143.203125 241.070312 L 143.273438 241.089844 L 136.003906 233.6875 L 135.679688 233.59375 Z M 239.078125 233.648438 L 231.816406 241.058594 L 231.878906 241.039062 L 239.398438 233.5625 Z M 177.976562 235.015625 L 187.164062 235.058594 L 187.164062 225.523438 L 176.6875 225.488281 Z M 187.945312 225.523438 L 187.945312 235.058594 L 197.132812 235.007812 L 198.421875 225.480469 Z M 168.382812 234.867188 L 177.1875 235 L 175.894531 225.476562 L 165.851562 225.351562 Z M 199.210938 225.46875 L 197.917969 234.996094 L 206.726562 234.855469 L 209.25 225.347656 Z M 159.507812 234.625 L 167.578125 234.847656 L 165.050781 225.347656 L 155.859375 225.148438 Z M 210.054688 225.328125 L 207.53125 234.828125 L 215.597656 234.601562 L 219.246094 225.117188 Z M 151.644531 234.300781 L 158.652344 234.597656 L 155.011719 225.125 L 147.023438 224.859375 Z M 220.09375 225.105469 L 216.449219 234.578125 L 223.457031 234.28125 L 228.078125 224.84375 Z M 145.066406 233.90625 L 150.753906 234.253906 L 146.140625 224.835938 L 139.660156 224.527344 Z M 228.949219 224.804688 L 224.34375 234.226562 L 230.03125 233.878906 L 235.421875 224.492188 Z M 139.949219 233.460938 L 144.121094 233.828125 L 138.738281 224.472656 L 133.984375 224.140625 Z M 236.351562 224.441406 L 230.96875 233.796875 L 235.136719 233.421875 L 241.097656 224.105469 Z M 136.4375 232.972656 L 138.941406 233.324219 L 133.015625 224.0625 L 130.132812 223.742188 Z M 242.074219 224.03125 L 236.148438 233.292969 L 238.648438 232.945312 L 244.945312 223.710938 Z M 134.59375 232.488281 L 135.292969 232.6875 L 129.101562 223.621094 L 128.21875 223.421875 Z M 245.980469 223.570312 L 239.796875 232.644531 L 240.492188 232.453125 L 246.859375 223.375 Z M 176.59375 224.707031 L 187.164062 224.742188 L 187.164062 213.796875 L 175.617188 213.769531 Z M 187.9375 213.796875 L 187.9375 224.742188 L 198.507812 224.695312 L 199.484375 213.761719 Z M 165.671875 224.578125 L 175.8125 224.699219 L 174.835938 213.769531 L 163.769531 213.675781 Z M 200.265625 213.761719 L 199.289062 224.695312 L 209.421875 224.566406 L 211.328125 213.664062 Z M 155.582031 224.363281 L 164.878906 224.558594 L 162.96875 213.667969 L 152.824219 213.523438 Z M 212.125 213.652344 L 210.222656 224.546875 L 219.515625 224.339844 L 222.265625 213.492188 Z M 146.675781 224.074219 L 154.769531 224.339844 L 152.011719 213.503906 L 143.1875 213.308594 Z M 223.070312 213.480469 L 220.320312 224.3125 L 228.414062 224.042969 L 231.890625 213.277344 Z M 139.25 223.722656 L 145.851562 224.039062 L 142.375 213.28125 L 135.1875 213.050781 Z M 232.722656 213.257812 L 229.246094 224.011719 L 235.839844 223.695312 L 239.902344 213.019531 Z M 133.507812 223.332031 L 138.394531 223.675781 L 134.339844 213.023438 L 129.027344 212.765625 Z M 240.75 212.980469 L 236.703125 223.636719 L 241.585938 223.292969 L 246.0625 212.722656 Z M 129.597656 222.90625 L 132.628906 223.246094 L 128.15625 212.71875 L 124.863281 212.464844 Z M 246.921875 212.675781 L 242.460938 223.203125 L 245.484375 222.863281 L 250.214844 212.417969 Z M 127.589844 222.476562 L 128.660156 222.71875 L 123.96875 212.375 L 122.777344 212.183594 Z M 251.105469 212.332031 L 246.425781 222.675781 L 247.488281 222.433594 L 252.289062 212.140625 Z M 175.554688 212.992188 L 187.15625 213.023438 L 187.15625 201.085938 L 174.949219 201.070312 Z M 187.9375 201.085938 L 187.9375 213.023438 L 199.539062 212.988281 L 200.144531 201.066406 Z M 163.652344 212.894531 L 174.78125 212.988281 L 174.167969 201.066406 L 162.460938 201.015625 Z M 200.921875 201.058594 L 200.320312 212.980469 L 211.449219 212.882812 L 212.636719 201.003906 Z M 152.664062 212.742188 L 162.871094 212.890625 L 161.679688 201.015625 L 150.945312 200.9375 Z M 213.410156 201 L 212.222656 212.871094 L 222.425781 212.71875 L 224.132812 200.917969 Z M 142.976562 212.527344 L 151.871094 212.722656 L 150.15625 200.929688 L 140.816406 200.828125 Z M 224.925781 200.90625 L 223.21875 212.699219 L 232.105469 212.496094 L 234.261719 200.800781 Z M 134.925781 212.269531 L 142.183594 212.507812 L 140.023438 200.828125 L 132.40625 200.703125 Z M 235.0625 200.789062 L 232.90625 212.472656 L 240.160156 212.230469 L 242.675781 200.660156 Z M 128.734375 211.972656 L 134.125 212.230469 L 131.609375 200.679688 L 125.957031 200.542969 Z M 243.476562 200.640625 L 240.964844 212.195312 L 246.351562 211.929688 L 249.121094 200.5 Z M 124.542969 211.660156 L 127.917969 211.917969 L 125.144531 200.519531 L 121.613281 200.382812 Z M 249.925781 200.476562 L 247.160156 211.875 L 250.527344 211.613281 L 253.449219 200.335938 Z M 122.425781 211.339844 L 123.710938 211.542969 L 120.792969 200.335938 L 119.441406 200.222656 Z M 254.273438 200.28125 L 251.363281 211.5 L 252.640625 211.296875 L 255.632812 200.113281 Z M 174.917969 200.292969 L 187.152344 200.304688 L 187.144531 187.855469 L 174.703125 187.859375 Z M 187.933594 187.855469 L 187.9375 200.304688 L 200.171875 200.285156 L 200.375 187.855469 Z M 162.40625 200.242188 L 174.144531 200.292969 L 173.933594 187.859375 L 162 187.867188 Z M 201.148438 187.855469 L 200.949219 200.285156 L 212.679688 200.230469 L 213.078125 187.855469 Z M 150.863281 200.164062 L 161.625 200.242188 L 161.21875 187.867188 L 150.28125 187.871094 Z M 213.859375 187.847656 L 213.460938 200.222656 L 224.21875 200.136719 L 224.796875 187.847656 Z M 140.710938 200.050781 L 150.082031 200.15625 L 149.5 187.871094 L 139.972656 187.878906 Z M 225.578125 187.847656 L 225 200.132812 L 234.367188 200.023438 L 235.097656 187.847656 Z M 132.285156 199.917969 L 139.9375 200.039062 L 139.199219 187.878906 L 131.429688 187.882812 Z M 235.878906 187.847656 L 235.148438 200.007812 L 242.792969 199.878906 L 243.640625 187.847656 Z M 125.816406 199.761719 L 131.503906 199.898438 L 130.648438 187.882812 L 124.875 187.890625 Z M 244.429688 187.847656 L 243.582031 199.863281 L 249.261719 199.71875 L 250.195312 187.847656 Z M 121.460938 199.597656 L 125.03125 199.738281 L 124.089844 187.890625 L 120.464844 187.898438 Z M 250.976562 187.847656 L 250.042969 199.691406 L 253.605469 199.546875 L 254.59375 187.847656 Z M 119.273438 199.433594 L 120.675781 199.546875 L 119.6875 187.898438 L 118.261719 187.902344 Z M 255.375 187.847656 L 254.390625 199.480469 L 255.792969 199.308594 L 256.785156 187.855469 Z M 119.273438 175.585938 L 118.261719 187.121094 L 119.6875 187.117188 L 120.667969 175.464844 Z M 121.453125 175.414062 L 120.464844 187.117188 L 124.089844 187.109375 L 125.023438 175.269531 Z M 125.804688 175.242188 L 124.871094 187.117188 L 130.644531 187.109375 L 131.492188 175.097656 Z M 132.269531 175.078125 L 131.421875 187.105469 L 139.195312 187.097656 L 139.917969 174.9375 Z M 140.703125 174.929688 L 139.972656 187.105469 L 149.5 187.097656 L 150.078125 174.8125 Z M 150.859375 174.800781 L 150.28125 187.09375 L 161.21875 187.085938 L 161.617188 174.714844 Z M 162.398438 174.710938 L 162 187.085938 L 173.933594 187.078125 L 174.136719 174.648438 Z M 174.910156 174.648438 L 174.707031 187.078125 L 187.152344 187.074219 L 187.144531 174.625 Z M 187.925781 174.628906 L 187.933594 187.078125 L 200.375 187.074219 L 200.167969 174.640625 Z M 255.375 187.074219 L 256.785156 187.078125 L 255.777344 175.617188 L 254.382812 175.441406 Z M 200.941406 174.640625 L 201.148438 187.074219 L 213.078125 187.074219 L 212.667969 174.695312 Z M 250.976562 187.066406 L 254.59375 187.066406 L 253.597656 175.367188 L 250.035156 175.21875 Z M 213.453125 174.695312 L 213.859375 187.066406 L 224.796875 187.066406 L 224.207031 174.777344 Z M 244.429688 187.066406 L 250.195312 187.066406 L 249.25 175.195312 L 243.566406 175.054688 Z M 224.988281 174.785156 L 225.578125 187.066406 L 235.097656 187.066406 L 234.359375 174.894531 Z M 235.878906 187.066406 L 243.648438 187.066406 L 242.789062 175.035156 L 235.140625 174.90625 Z M 254.261719 174.640625 L 255.625 174.8125 L 252.621094 163.628906 L 251.34375 163.421875 Z M 122.414062 163.679688 L 119.441406 174.796875 L 120.792969 174.679688 L 123.695312 163.46875 Z M 124.527344 163.351562 L 121.601562 174.628906 L 125.132812 174.480469 L 127.898438 163.089844 Z M 249.917969 174.4375 L 253.445312 174.582031 L 250.507812 163.304688 L 247.144531 163.039062 Z M 128.714844 163.027344 L 125.945312 174.457031 L 131.59375 174.308594 L 134.101562 162.761719 Z M 243.464844 174.273438 L 249.109375 174.414062 L 246.324219 162.984375 L 240.9375 162.71875 Z M 134.90625 162.726562 L 132.394531 174.296875 L 140.011719 174.164062 L 142.167969 162.472656 Z M 235.054688 174.125 L 242.664062 174.253906 L 240.140625 162.683594 L 232.886719 162.445312 Z M 142.964844 162.457031 L 140.808594 174.152344 L 150.152344 174.035156 L 151.851562 162.242188 Z M 224.921875 174.007812 L 234.257812 174.121094 L 232.089844 162.425781 L 223.199219 162.222656 Z M 152.644531 162.230469 L 150.9375 174.027344 L 161.667969 173.941406 L 162.847656 162.070312 Z M 213.402344 173.917969 L 224.132812 173.996094 L 222.414062 162.199219 L 212.210938 162.042969 Z M 163.632812 162.054688 L 162.453125 173.929688 L 174.160156 173.875 L 174.761719 161.957031 Z M 200.917969 173.867188 L 212.625 173.917969 L 211.433594 162.042969 L 200.308594 161.953125 Z M 175.535156 161.953125 L 174.933594 173.875 L 187.144531 173.847656 L 187.140625 161.914062 Z M 187.925781 173.847656 L 200.136719 173.863281 L 199.523438 161.941406 L 187.917969 161.910156 Z M 127.566406 152.542969 L 122.761719 162.832031 L 123.953125 162.640625 L 128.636719 152.296875 Z M 251.085938 162.597656 L 252.273438 162.789062 L 247.460938 152.5 L 246.398438 152.253906 Z M 129.574219 152.105469 L 124.851562 162.554688 L 128.144531 162.289062 L 132.601562 151.761719 Z M 246.902344 162.246094 L 250.191406 162.503906 L 245.453125 152.0625 L 242.433594 151.71875 Z M 133.480469 151.671875 L 129.003906 162.234375 L 134.316406 161.96875 L 138.363281 151.320312 Z M 240.730469 161.933594 L 246.039062 162.199219 L 241.554688 151.632812 L 236.671875 151.28125 Z M 139.21875 151.265625 L 135.164062 161.941406 L 142.351562 161.695312 L 145.820312 150.9375 Z M 232.703125 161.65625 L 239.882812 161.898438 L 235.816406 151.226562 L 229.21875 150.910156 Z M 146.648438 150.902344 L 143.171875 161.667969 L 152 161.460938 L 154.746094 150.625 Z M 223.054688 161.4375 L 231.875 161.640625 L 228.390625 150.871094 L 220.296875 150.601562 Z M 155.554688 150.601562 L 152.804688 161.441406 L 162.953125 161.28125 L 164.855469 150.390625 Z M 212.109375 161.269531 L 222.25 161.425781 L 219.492188 150.582031 L 210.199219 150.378906 Z M 165.648438 150.378906 L 163.742188 161.277344 L 174.8125 161.179688 L 175.78125 150.25 Z M 200.246094 161.164062 L 211.316406 161.257812 L 209.40625 150.367188 L 199.269531 150.246094 Z M 176.570312 150.238281 L 175.597656 161.171875 L 187.144531 161.136719 L 187.140625 150.195312 Z M 187.917969 161.136719 L 199.46875 161.164062 L 198.484375 150.234375 L 187.914062 150.195312 Z M 134.5625 142.523438 L 128.191406 151.601562 L 129.078125 151.398438 L 135.257812 142.328125 Z M 245.957031 151.355469 L 246.835938 151.558594 L 240.460938 142.492188 L 239.765625 142.296875 Z M 136.40625 142.027344 L 130.109375 151.257812 L 132.988281 150.933594 L 138.910156 141.671875 Z M 242.042969 150.894531 L 244.917969 151.222656 L 238.617188 141.996094 L 236.117188 141.640625 Z M 139.917969 141.535156 L 133.960938 150.851562 L 138.714844 150.507812 L 144.089844 141.160156 Z M 236.328125 150.476562 L 241.074219 150.816406 L 235.105469 141.503906 L 230.941406 141.128906 Z M 145.035156 141.082031 L 139.640625 150.464844 L 146.121094 150.148438 L 150.730469 140.730469 Z M 228.925781 150.117188 L 235.398438 150.429688 L 230 141.050781 L 224.3125 140.699219 Z M 151.613281 140.675781 L 147 150.109375 L 154.984375 149.839844 L 158.628906 140.375 Z M 220.0625 149.820312 L 228.039062 150.085938 L 223.414062 140.652344 L 216.40625 140.355469 Z M 159.46875 140.34375 L 155.828125 149.820312 L 165.023438 149.613281 L 167.539062 140.109375 Z M 210.03125 149.601562 L 219.21875 149.804688 L 215.566406 140.332031 L 207.5 140.109375 Z M 168.351562 140.09375 L 165.832031 149.601562 L 175.875 149.472656 L 177.160156 139.949219 Z M 199.179688 149.457031 L 209.222656 149.582031 L 206.691406 140.078125 L 197.882812 139.9375 Z M 177.945312 139.9375 L 176.660156 149.457031 L 187.140625 149.410156 L 187.132812 139.882812 Z M 187.914062 149.414062 L 198.390625 149.453125 L 197.097656 139.933594 L 187.90625 139.890625 Z M 143.167969 133.9375 L 135.65625 141.414062 L 135.976562 141.320312 L 143.230469 133.917969 Z M 239.046875 141.285156 L 239.359375 141.371094 L 231.84375 133.90625 L 231.789062 133.886719 Z M 144.78125 133.445312 L 137.257812 141.125 L 139.5 140.804688 L 146.550781 133.15625 Z M 235.523438 140.769531 L 237.757812 141.085938 L 230.226562 133.414062 L 228.464844 133.125 Z M 147.792969 132.953125 L 140.667969 140.6875 L 144.605469 140.332031 L 151.011719 132.617188 Z M 230.425781 140.300781 L 234.359375 140.65625 L 227.230469 132.929688 L 224.011719 132.59375 Z M 152.117188 132.507812 L 145.671875 140.265625 L 151.152344 139.925781 L 156.644531 132.175781 Z M 223.875 139.894531 L 229.355469 140.234375 L 222.90625 132.480469 L 218.386719 132.15625 Z M 157.644531 132.105469 L 152.140625 139.878906 L 158.964844 139.582031 L 163.300781 131.824219 Z M 216.070312 139.5625 L 222.894531 139.851562 L 217.382812 132.089844 L 211.734375 131.804688 Z M 164.21875 131.78125 L 159.875 139.550781 L 167.78125 139.324219 L 170.769531 131.558594 Z M 207.261719 139.316406 L 215.160156 139.539062 L 210.8125 131.761719 L 204.25 131.546875 Z M 171.617188 131.535156 L 168.621094 139.3125 L 177.28125 139.171875 L 178.8125 131.402344 Z M 197.757812 139.164062 L 206.421875 139.300781 L 203.410156 131.53125 L 196.21875 131.394531 Z M 179.601562 131.386719 L 178.074219 139.164062 L 187.128906 139.117188 L 187.121094 131.34375 Z M 187.90625 139.109375 L 196.960938 139.152344 L 195.417969 131.382812 L 187.902344 131.339844 Z M 154.421875 126.605469 L 146.203125 132.421875 L 147.449219 132.21875 L 155.109375 126.480469 Z M 227.566406 132.1875 L 228.808594 132.390625 L 220.585938 126.585938 L 219.902344 126.460938 Z M 156.808594 126.179688 L 148.964844 132.046875 L 151.761719 131.75 L 158.78125 125.945312 Z M 223.257812 131.734375 L 226.042969 132.027344 L 218.195312 126.167969 L 216.222656 125.941406 Z M 160.207031 125.792969 L 153.113281 131.652344 L 157.269531 131.351562 L 163.289062 125.542969 Z M 217.757812 131.328125 L 221.910156 131.628906 L 214.808594 125.773438 L 211.726562 125.527344 Z M 164.503906 125.449219 L 158.449219 131.289062 L 163.785156 131.019531 L 168.542969 125.222656 Z M 211.234375 131 L 216.566406 131.265625 L 210.503906 125.429688 L 206.46875 125.210938 Z M 169.597656 125.167969 L 164.824219 130.984375 L 171.113281 130.773438 L 174.402344 124.988281 Z M 203.90625 130.761719 L 210.199219 130.972656 L 205.417969 125.160156 L 200.617188 124.988281 Z M 175.316406 124.957031 L 172.023438 130.75 L 178.996094 130.613281 L 180.671875 124.839844 Z M 196.039062 130.609375 L 203.003906 130.738281 L 199.707031 124.945312 L 194.355469 124.835938 Z M 181.484375 124.828125 L 179.804688 130.609375 L 187.128906 130.558594 L 187.121094 124.785156 Z M 187.902344 130.558594 L 195.222656 130.601562 L 193.535156 124.824219 L 187.894531 124.785156 Z M 166.660156 121.402344 L 158.902344 125.152344 L 159.929688 125.039062 L 166.839844 121.375 Z M 215.082031 125.019531 L 216.105469 125.136719 L 208.34375 121.390625 L 208.164062 121.363281 Z M 169 121.117188 L 161.902344 124.878906 L 164.21875 124.695312 L 170.21875 121.015625 Z M 210.800781 124.667969 L 213.113281 124.851562 L 206.007812 121.101562 L 204.792969 120.996094 Z M 171.949219 120.867188 L 165.863281 124.59375 L 169.265625 124.40625 L 174.03125 120.742188 Z M 205.75 124.390625 L 209.152344 124.582031 L 203.058594 120.859375 L 200.976562 120.738281 Z M 175.414062 120.664062 L 170.609375 124.347656 L 174.90625 124.191406 L 178.203125 120.554688 Z M 200.113281 124.183594 L 204.40625 124.335938 L 199.597656 120.652344 L 196.800781 120.542969 Z M 179.296875 120.511719 L 175.984375 124.164062 L 180.941406 124.0625 L 182.632812 120.4375 Z M 194.082031 124.054688 L 199.039062 124.160156 L 195.714844 120.503906 L 192.386719 120.429688 Z M 183.492188 120.417969 L 181.800781 124.046875 L 187.121094 124.011719 L 187.113281 120.394531 Z M 187.902344 124.011719 L 193.21875 124.046875 L 191.523438 120.417969 L 187.902344 120.394531 Z M 175.851562 119.636719 L 175.003906 119.902344 L 175.1875 119.890625 Z M 199.816406 119.882812 L 200 119.894531 L 199.167969 119.636719 Z M 181.453125 118.34375 L 177.632812 119.796875 L 179.050781 119.722656 L 181.628906 118.335938 Z M 195.996094 119.738281 L 197.378906 119.792969 L 193.558594 118.335938 L 193.378906 118.332031 Z M 183.40625 118.261719 L 180.734375 119.699219 L 183.074219 119.644531 L 184.429688 118.230469 Z M 191.9375 119.644531 L 194.277344 119.695312 L 191.597656 118.257812 L 190.574219 118.230469 Z M 185.535156 118.214844 L 184.167969 119.636719 L 187.113281 119.613281 L 187.113281 118.203125 Z M 187.894531 119.613281 L 190.84375 119.632812 L 189.46875 118.214844 L 187.890625 118.203125 Z M 187.894531 119.613281 " fill-opacity="1" fill-rule="nonzero"/></g><path stroke-linecap="butt" transform="matrix(0.75, 0, 0, 0.75, 0.0000045, 153.121236)" fill="none" stroke-linejoin="miter" d="M 198.500007 69.947732 L 183.192714 69.947732 L 183.192714 57.791481 L 204.380216 57.791481 C 204.776049 57.791481 205.119799 57.458148 205.119799 57.197731 L 205.119799 48.609189 C 205.119799 48.281064 204.776049 47.999814 204.380216 47.999814 L 183.192714 47.999814 L 183.192714 35.79148 L 198.500007 35.79148 L 198.500007 26.005021 L 173.598964 26.005021 C 173.187505 26.005021 172.85938 26.348771 172.85938 26.614396 L 172.85938 79.390441 C 172.85938 79.671691 173.187505 79.999816 173.598964 79.999816 L 198.500007 79.999816 Z M 216.328133 26.005021 L 207.479174 26.005021 C 207.067716 26.005021 206.734383 26.348771 206.734383 26.614396 L 206.734383 47.801897 L 217.067717 47.801897 L 217.067717 35.859188 C 228.796884 35.249813 237.515635 40.176897 237.515635 53.010231 C 237.515635 69.666482 223.609384 70.343566 217.067717 70.083149 L 217.067717 58.20294 L 206.734383 58.20294 L 206.734383 79.390441 C 206.734383 79.671691 207.067716 79.999816 207.479174 79.999816 L 216.328133 79.999816 C 229.755217 79.999816 247.911469 76.077941 247.911469 53.010231 C 247.911469 29.051896 229.473967 26.005021 216.328133 26.005021 Z M 291.171888 35.921688 L 291.171888 26.614396 C 291.171888 26.348771 290.890638 26.005021 290.411471 26.005021 L 281.645846 26.005021 C 268.218762 26.005021 249.994802 29.926896 249.994802 53.010231 C 249.994802 76.968566 268.416678 79.999816 281.645846 79.999816 L 290.411471 79.999816 C 290.890638 79.999816 291.171888 79.671691 291.171888 79.390441 L 291.171888 46.322731 L 270.44272 46.322731 L 270.44272 56.650856 L 280.838554 56.650856 L 280.838554 70.145649 C 269.088553 70.755024 260.390636 65.82794 260.390636 53.010231 C 260.390636 36.338355 274.296887 35.661272 280.838554 35.921688 Z M 318.89064 69.947732 L 303.583347 69.947732 L 303.583347 57.791481 L 324.770849 57.791481 C 325.166682 57.791481 325.51564 57.458148 325.51564 57.197731 L 325.51564 48.609189 C 325.51564 48.281064 325.166682 47.999814 324.770849 47.999814 L 303.583347 47.999814 L 303.583347 35.79148 L 318.89064 35.79148 L 318.89064 26.005021 L 293.994805 26.005021 C 293.583347 26.005021 293.250013 26.348771 293.250013 26.614396 L 293.250013 79.390441 C 293.250013 79.671691 293.583347 79.999816 293.994805 79.999816 L 318.89064 79.999816 Z M 318.89064 69.947732 " stroke="#ffffff" stroke-width="10.799296" stroke-opacity="1" stroke-miterlimit="4"/><g fill="#000000" fill-opacity="1"><g transform="translate(129.644531, 213.121232)"><g><path d="M 19.234375 -7.546875 L 7.75 -7.546875 L 7.75 -16.65625 L 23.640625 -16.65625 C 23.953125 -16.65625 24.203125 -16.90625 24.203125 -17.109375 L 24.203125 -23.546875 C 24.203125 -23.796875 23.953125 -24 23.640625 -24 L 7.75 -24 L 7.75 -33.15625 L 19.234375 -33.15625 L 19.234375 -40.5 L 0.5625 -40.5 C 0.25 -40.5 0 -40.25 0 -40.046875 L 0 -0.453125 C 0 -0.25 0.25 0 0.5625 0 L 19.234375 0 Z M 19.234375 -7.546875 "/></g></g></g><g fill="#000000" fill-opacity="1"><g transform="translate(155.052393, 213.121232)"><g><path d="M 7.1875 -40.5 L 0.5625 -40.5 C 0.25 -40.5 0 -40.25 0 -40.046875 L 0 -24.140625 L 7.75 -24.140625 L 7.75 -33.109375 C 16.546875 -33.5625 23.078125 -29.875 23.078125 -20.25 C 23.078125 -7.75 12.65625 -7.234375 7.75 -7.4375 L 7.75 -16.359375 L 0 -16.359375 L 0 -0.453125 C 0 -0.25 0.25 0 0.5625 0 L 7.1875 0 C 17.265625 0 30.875 -2.9375 30.875 -20.25 C 30.875 -38.21875 17.0625 -40.5 7.1875 -40.5 Z M 7.1875 -40.5 "/></g></g></g><g fill="#000000" fill-opacity="1"><g transform="translate(187.495509, 213.121232)"><g><path d="M 30.875 -33.0625 L 30.875 -40.046875 C 30.875 -40.25 30.671875 -40.5 30.328125 -40.5 L 23.75 -40.5 C 13.671875 -40.5 0 -37.5625 0 -20.25 C 0 -2.28125 13.828125 0 23.75 0 L 30.328125 0 C 30.671875 0 30.875 -0.25 30.875 -0.453125 L 30.875 -25.265625 L 15.34375 -25.265625 L 15.34375 -17.515625 L 23.140625 -17.515625 L 23.140625 -7.390625 C 14.328125 -6.9375 7.796875 -10.625 7.796875 -20.25 C 7.796875 -32.75 18.21875 -33.265625 23.140625 -33.0625 Z M 30.875 -33.0625 "/></g></g></g><g fill="#000000" fill-opacity="1"><g transform="translate(219.938626, 213.121232)"><g><path d="M 19.234375 -7.546875 L 7.75 -7.546875 L 7.75 -16.65625 L 23.640625 -16.65625 C 23.953125 -16.65625 24.203125 -16.90625 24.203125 -17.109375 L 24.203125 -23.546875 C 24.203125 -23.796875 23.953125 -24 23.640625 -24 L 7.75 -24 L 7.75 -33.15625 L 19.234375 -33.15625 L 19.234375 -40.5 L 0.5625 -40.5 C 0.25 -40.5 0 -40.25 0 -40.046875 L 0 -0.453125 C 0 -0.25 0.25 0 0.5625 0 L 19.234375 0 Z M 19.234375 -7.546875 "/></g></g></g><g fill="#ffffff" fill-opacity="1"><g transform="translate(108.949179, 89.027796)"><g><path d="M 3.515625 -13.90625 C 3.828125 -14.082031 4.210938 -14.210938 4.671875 -14.296875 C 5.140625 -14.378906 5.617188 -14.375 6.109375 -14.28125 C 6.609375 -14.195312 7.101562 -14.015625 7.59375 -13.734375 C 8.09375 -13.453125 8.535156 -13.039062 8.921875 -12.5 C 9.378906 -11.832031 9.671875 -11.1875 9.796875 -10.5625 C 9.929688 -9.945312 9.957031 -9.378906 9.875 -8.859375 C 9.800781 -8.347656 9.648438 -7.875 9.421875 -7.4375 C 9.203125 -7.007812 8.957031 -6.632812 8.6875 -6.3125 C 8.425781 -6 8.175781 -5.742188 7.9375 -5.546875 C 7.695312 -5.347656 7.535156 -5.222656 7.453125 -5.171875 L 5.140625 -3.5625 L 3.921875 -5.328125 L 6.09375 -6.84375 C 6.8125 -7.332031 7.207031 -7.941406 7.28125 -8.671875 C 7.363281 -9.398438 7.144531 -10.144531 6.625 -10.90625 C 6.125 -11.625 5.492188 -12.082031 4.734375 -12.28125 C 3.984375 -12.488281 3.207031 -12.316406 2.40625 -11.765625 L 0.40625 -10.375 L -0.703125 -12 L 0.25 -12.671875 C 0.539062 -12.867188 0.832031 -13.078125 1.125 -13.296875 C 1.425781 -13.523438 1.660156 -13.800781 1.828125 -14.125 C 2.003906 -14.457031 2.0625 -14.835938 2 -15.265625 C 1.945312 -15.691406 1.710938 -16.207031 1.296875 -16.8125 C 1.140625 -17.050781 0.9375 -17.273438 0.6875 -17.484375 C 0.445312 -17.703125 0.148438 -17.847656 -0.203125 -17.921875 C -0.554688 -17.992188 -0.960938 -17.96875 -1.421875 -17.84375 C -1.878906 -17.726562 -2.414062 -17.457031 -3.03125 -17.03125 L -3.8125 -16.484375 L -5.078125 -18.296875 L -4.0625 -19.015625 C -3.4375 -19.441406 -2.78125 -19.785156 -2.09375 -20.046875 C -1.40625 -20.304688 -0.722656 -20.4375 -0.046875 -20.4375 C 0.628906 -20.4375 1.273438 -20.269531 1.890625 -19.9375 C 2.515625 -19.601562 3.070312 -19.082031 3.5625 -18.375 C 3.851562 -17.957031 4.046875 -17.535156 4.140625 -17.109375 C 4.242188 -16.679688 4.285156 -16.269531 4.265625 -15.875 C 4.242188 -15.488281 4.160156 -15.117188 4.015625 -14.765625 C 3.878906 -14.421875 3.710938 -14.132812 3.515625 -13.90625 Z M -8.296875 -16.0625 L -5.90625 -17.734375 L 4.3125 -3 L 1.921875 -1.328125 Z M -8.296875 -16.0625 "/></g></g></g><g fill="#ffffff" fill-opacity="1"><g transform="translate(129.177886, 75.915781)"><g><path d="M -5.234375 -17.28125 L -2.5625 -18.46875 L 4.671875 -2.0625 L 2 -0.875 Z M 13.140625 -5.796875 L 10.3125 -4.546875 L 4.59375 -9.140625 C 4.550781 -9.117188 4.503906 -9.085938 4.453125 -9.046875 C 4.398438 -9.015625 4.320312 -8.972656 4.21875 -8.921875 C 4.113281 -8.878906 3.960938 -8.8125 3.765625 -8.71875 C 3.566406 -8.632812 3.304688 -8.523438 2.984375 -8.390625 L 2.125 -10.34375 L 3.640625 -11 C 3.960938 -11.144531 4.257812 -11.347656 4.53125 -11.609375 C 4.8125 -11.867188 5.03125 -12.1875 5.1875 -12.5625 C 5.34375 -12.9375 5.398438 -13.382812 5.359375 -13.90625 C 5.316406 -14.425781 5.148438 -15.019531 4.859375 -15.6875 C 4.742188 -15.945312 4.570312 -16.234375 4.34375 -16.546875 C 4.113281 -16.867188 3.8125 -17.140625 3.4375 -17.359375 C 3.070312 -17.578125 2.632812 -17.703125 2.125 -17.734375 C 1.613281 -17.765625 1.015625 -17.628906 0.328125 -17.328125 L -0.75 -16.859375 L -1.640625 -18.875 L -0.515625 -19.375 C 0.191406 -19.675781 0.9375 -19.863281 1.71875 -19.9375 C 2.5 -20.019531 3.253906 -19.957031 3.984375 -19.75 C 4.722656 -19.550781 5.398438 -19.207031 6.015625 -18.71875 C 6.628906 -18.238281 7.109375 -17.609375 7.453125 -16.828125 C 7.984375 -15.628906 8.15625 -14.492188 7.96875 -13.421875 C 7.78125 -12.359375 7.304688 -11.421875 6.546875 -10.609375 Z M 13.140625 -5.796875 "/></g></g></g><g fill="#ffffff" fill-opacity="1"><g transform="translate(151.189807, 66.914436)"><g><path d="M -0.109375 -9.25 C -0.410156 -10.65625 -0.507812 -11.9375 -0.40625 -13.09375 C -0.300781 -14.257812 -0.0234375 -15.285156 0.421875 -16.171875 C 0.867188 -17.054688 1.460938 -17.789062 2.203125 -18.375 C 2.941406 -18.957031 3.796875 -19.390625 4.765625 -19.671875 L 5.296875 -17.296875 C 4.765625 -17.117188 4.289062 -16.84375 3.875 -16.46875 C 3.457031 -16.09375 3.128906 -15.601562 2.890625 -15 C 2.660156 -14.394531 2.53125 -13.664062 2.5 -12.8125 C 2.476562 -11.96875 2.578125 -10.988281 2.796875 -9.875 C 3.066406 -8.757812 3.390625 -7.820312 3.765625 -7.0625 C 4.140625 -6.3125 4.5625 -5.703125 5.03125 -5.234375 C 5.507812 -4.773438 6.019531 -4.457031 6.5625 -4.28125 C 7.101562 -4.113281 7.640625 -4.0625 8.171875 -4.125 L 8.6875 -1.765625 C 7.695312 -1.617188 6.738281 -1.65625 5.8125 -1.875 C 4.882812 -2.101562 4.035156 -2.523438 3.265625 -3.140625 C 2.492188 -3.765625 1.816406 -4.585938 1.234375 -5.609375 C 0.648438 -6.628906 0.203125 -7.84375 -0.109375 -9.25 Z M 5.71875 -19.875 C 6.6875 -20.039062 7.632812 -20.007812 8.5625 -19.78125 C 9.5 -19.550781 10.351562 -19.125 11.125 -18.5 C 11.894531 -17.882812 12.570312 -17.070312 13.15625 -16.0625 C 13.738281 -15.050781 14.179688 -13.84375 14.484375 -12.4375 C 14.796875 -11.03125 14.898438 -9.738281 14.796875 -8.5625 C 14.691406 -7.394531 14.414062 -6.367188 13.96875 -5.484375 C 13.519531 -4.597656 12.925781 -3.859375 12.1875 -3.265625 C 11.445312 -2.679688 10.597656 -2.25 9.640625 -1.96875 L 9.125 -4.328125 C 9.632812 -4.515625 10.097656 -4.796875 10.515625 -5.171875 C 10.941406 -5.554688 11.269531 -6.050781 11.5 -6.65625 C 11.726562 -7.269531 11.859375 -8 11.890625 -8.84375 C 11.929688 -9.6875 11.832031 -10.671875 11.59375 -11.796875 C 11.34375 -12.921875 11.023438 -13.859375 10.640625 -14.609375 C 10.253906 -15.359375 9.820312 -15.960938 9.34375 -16.421875 C 8.875 -16.878906 8.367188 -17.191406 7.828125 -17.359375 C 7.296875 -17.535156 6.765625 -17.59375 6.234375 -17.53125 Z M 5.71875 -19.875 "/></g></g></g><g fill="#ffffff" fill-opacity="1"><g transform="translate(176.82625, 61.745998)"><g><path d="M 8.3125 -2.25 L 12.09375 -17.65625 L 13.234375 -17.625 L 13.078125 -11.125 L 10.15625 0.34375 L 6.328125 0.25 L 2.21875 -17.890625 L 5.53125 -17.8125 Z M 22 -17.40625 L 25.3125 -17.328125 L 20.03125 0.578125 L 16.234375 0.484375 L 14.0625 -10.625 L 14.234375 -17.59375 L 15.40625 -17.578125 L 18.1875 -2.015625 Z M 22 -17.40625 "/></g></g></g><g fill="#ffffff" fill-opacity="1"><g transform="translate(210.848732, 64.139464)"><g><path d="M 13.828125 -12.171875 C 13.765625 -12.234375 13.6875 -12.316406 13.59375 -12.421875 C 13.5 -12.523438 13.359375 -12.632812 13.171875 -12.75 C 12.984375 -12.875 12.738281 -13 12.4375 -13.125 C 12.132812 -13.25 11.738281 -13.359375 11.25 -13.453125 L 11.84375 -15.859375 C 12.53125 -15.660156 13.210938 -15.40625 13.890625 -15.09375 C 14.578125 -14.78125 15.109375 -14.425781 15.484375 -14.03125 C 15.328125 -13.851562 15.15625 -13.65625 14.96875 -13.4375 C 14.78125 -13.226562 14.601562 -13.03125 14.4375 -12.84375 C 14.28125 -12.65625 14.144531 -12.5 14.03125 -12.375 C 13.914062 -12.257812 13.847656 -12.191406 13.828125 -12.171875 Z M 5.21875 -12.328125 C 5.382812 -13.015625 5.65625 -13.601562 6.03125 -14.09375 C 6.414062 -14.582031 6.859375 -14.984375 7.359375 -15.296875 C 7.859375 -15.617188 8.410156 -15.832031 9.015625 -15.9375 C 9.617188 -16.050781 10.226562 -16.078125 10.84375 -16.015625 L 10.234375 -13.53125 C 9.691406 -13.476562 9.203125 -13.28125 8.765625 -12.9375 C 8.328125 -12.59375 8.050781 -12.195312 7.9375 -11.75 C 7.789062 -11.132812 7.832031 -10.597656 8.0625 -10.140625 C 8.300781 -9.679688 8.632812 -9.242188 9.0625 -8.828125 L 8.390625 -6.140625 C 7.929688 -6.523438 7.476562 -6.925781 7.03125 -7.34375 C 6.59375 -7.757812 6.207031 -8.21875 5.875 -8.71875 C 5.539062 -9.21875 5.300781 -9.757812 5.15625 -10.34375 C 5.019531 -10.9375 5.039062 -11.597656 5.21875 -12.328125 Z M 3.203125 -2.59375 C 3.398438 -2.40625 3.648438 -2.207031 3.953125 -2 C 4.265625 -1.800781 4.585938 -1.601562 4.921875 -1.40625 C 5.253906 -1.21875 5.59375 -1.050781 5.9375 -0.90625 C 6.28125 -0.757812 6.613281 -0.644531 6.9375 -0.5625 L 7 -0.546875 L 6.453125 1.703125 L 6.40625 1.6875 C 6.03125 1.59375 5.644531 1.472656 5.25 1.328125 C 4.851562 1.191406 4.460938 1.023438 4.078125 0.828125 C 3.691406 0.640625 3.332031 0.414062 3 0.15625 C 2.675781 -0.09375 2.40625 -0.375 2.1875 -0.6875 Z M 9.921875 -8.125 C 10.378906 -7.75 10.847656 -7.359375 11.328125 -6.953125 C 11.804688 -6.554688 12.21875 -6.109375 12.5625 -5.609375 C 12.90625 -5.117188 13.148438 -4.5625 13.296875 -3.9375 C 13.441406 -3.320312 13.414062 -2.609375 13.21875 -1.796875 C 13.070312 -1.222656 12.828125 -0.691406 12.484375 -0.203125 C 12.140625 0.273438 11.71875 0.679688 11.21875 1.015625 C 10.71875 1.359375 10.144531 1.609375 9.5 1.765625 C 8.863281 1.921875 8.179688 1.957031 7.453125 1.875 L 8.015625 -0.40625 C 9.367188 -0.394531 10.222656 -1.09375 10.578125 -2.5 C 10.710938 -3.039062 10.644531 -3.535156 10.375 -3.984375 C 10.101562 -4.441406 9.726562 -4.898438 9.25 -5.359375 Z M 9.921875 -8.125 "/></g></g></g><g fill="#ffffff" fill-opacity="1"><g transform="translate(231.161286, 69.808591)"><g><path d="M 9.421875 -15.4375 L 12.140625 -14.21875 L 4.828125 2.15625 L 2.109375 0.9375 Z M 14.96875 -2.15625 L 9.03125 -4.8125 L 9.84375 -6.640625 L 15.78125 -3.984375 Z M 6.640625 0.53125 L 13.265625 3.484375 L 12.359375 5.515625 L 5.734375 2.5625 Z M 19.671875 -10.859375 L 18.765625 -8.84375 L 12.140625 -11.796875 L 13.046875 -13.8125 Z M 19.671875 -10.859375 "/></g></g></g><g fill="#ffffff" fill-opacity="1"><g transform="translate(251.952767, 79.861267)"><g><path d="M 12.03125 -13.484375 L 14.421875 -11.8125 L 4.1875 2.921875 L 1.796875 1.25 Z M 11.796875 8.203125 L 9.25 6.4375 L 10.1875 -0.84375 C 10.144531 -0.875 10.097656 -0.898438 10.046875 -0.921875 C 9.992188 -0.941406 9.914062 -0.984375 9.8125 -1.046875 C 9.71875 -1.109375 9.582031 -1.203125 9.40625 -1.328125 C 9.226562 -1.453125 8.992188 -1.617188 8.703125 -1.828125 L 9.9375 -3.578125 L 11.296875 -2.625 C 11.585938 -2.425781 11.914062 -2.273438 12.28125 -2.171875 C 12.644531 -2.078125 13.023438 -2.0625 13.421875 -2.125 C 13.816406 -2.1875 14.226562 -2.367188 14.65625 -2.671875 C 15.09375 -2.972656 15.519531 -3.421875 15.9375 -4.015625 C 16.101562 -4.253906 16.253906 -4.550781 16.390625 -4.90625 C 16.535156 -5.269531 16.609375 -5.664062 16.609375 -6.09375 C 16.609375 -6.53125 16.488281 -6.972656 16.25 -7.421875 C 16.007812 -7.867188 15.578125 -8.304688 14.953125 -8.734375 L 13.984375 -9.421875 L 15.25 -11.25 L 16.265625 -10.546875 C 16.898438 -10.097656 17.453125 -9.5625 17.921875 -8.9375 C 18.390625 -8.3125 18.726562 -7.628906 18.9375 -6.890625 C 19.15625 -6.160156 19.210938 -5.40625 19.109375 -4.625 C 19.015625 -3.84375 18.726562 -3.101562 18.25 -2.40625 C 17.5 -1.332031 16.617188 -0.597656 15.609375 -0.203125 C 14.597656 0.191406 13.546875 0.28125 12.453125 0.0625 Z M 11.796875 8.203125 "/></g></g></g><g fill="#ffffff" fill-opacity="1"><g transform="translate(107.081443, 304.655963)"><g><path d="M 18.0625 -6.03125 C 17.945312 -6.59375 17.765625 -7.070312 17.515625 -7.46875 C 17.265625 -7.875 16.941406 -8.207031 16.546875 -8.46875 L 17.78125 -10.53125 C 19.289062 -9.539062 20.269531 -8.210938 20.71875 -6.546875 Z M 9.578125 3.109375 C 10.023438 3.304688 10.488281 3.421875 10.96875 3.453125 C 11.445312 3.492188 11.941406 3.4375 12.453125 3.28125 L 13.265625 5.84375 C 12.421875 6.039062 11.585938 6.082031 10.765625 5.96875 C 9.953125 5.851562 9.144531 5.585938 8.34375 5.171875 Z M 6.296875 -6.765625 C 7.046875 -8.003906 7.851562 -9.003906 8.71875 -9.765625 C 9.59375 -10.535156 10.488281 -11.085938 11.40625 -11.421875 C 12.320312 -11.753906 13.25 -11.882812 14.1875 -11.8125 C 15.125 -11.75 16.035156 -11.492188 16.921875 -11.046875 L 15.671875 -8.96875 C 15.171875 -9.1875 14.644531 -9.296875 14.09375 -9.296875 C 13.550781 -9.296875 12.988281 -9.15625 12.40625 -8.875 C 11.820312 -8.59375 11.234375 -8.15625 10.640625 -7.5625 C 10.046875 -6.96875 9.445312 -6.191406 8.84375 -5.234375 C 8.28125 -4.253906 7.875 -3.363281 7.625 -2.5625 C 7.382812 -1.769531 7.273438 -1.046875 7.296875 -0.390625 C 7.328125 0.265625 7.472656 0.84375 7.734375 1.34375 C 7.992188 1.84375 8.320312 2.257812 8.71875 2.59375 L 7.5 4.625 C 6.6875 4.0625 6.03125 3.382812 5.53125 2.59375 C 5.03125 1.800781 4.710938 0.921875 4.578125 -0.046875 C 4.441406 -1.023438 4.507812 -2.082031 4.78125 -3.21875 C 5.050781 -4.351562 5.554688 -5.535156 6.296875 -6.765625 Z M 6.296875 -6.765625 "/></g></g></g><g fill="#ffffff" fill-opacity="1"><g transform="translate(131.012881, 317.886967)"><g><path d="M 4.78125 -7.90625 C 5.269531 -9.269531 5.863281 -10.414062 6.5625 -11.34375 C 7.257812 -12.28125 8.03125 -13.003906 8.875 -13.515625 C 9.71875 -14.035156 10.609375 -14.347656 11.546875 -14.453125 C 12.492188 -14.566406 13.457031 -14.484375 14.4375 -14.203125 L 13.625 -11.90625 C 13.082031 -12.039062 12.535156 -12.054688 11.984375 -11.953125 C 11.429688 -11.859375 10.894531 -11.613281 10.375 -11.21875 C 9.863281 -10.832031 9.367188 -10.285156 8.890625 -9.578125 C 8.421875 -8.867188 7.984375 -7.984375 7.578125 -6.921875 C 7.210938 -5.828125 6.992188 -4.859375 6.921875 -4.015625 C 6.847656 -3.179688 6.890625 -2.441406 7.046875 -1.796875 C 7.210938 -1.148438 7.472656 -0.609375 7.828125 -0.171875 C 8.191406 0.253906 8.625 0.578125 9.125 0.796875 L 8.3125 3.078125 C 7.394531 2.679688 6.597656 2.140625 5.921875 1.453125 C 5.253906 0.773438 4.753906 -0.0234375 4.421875 -0.953125 C 4.085938 -1.890625 3.941406 -2.941406 3.984375 -4.109375 C 4.035156 -5.285156 4.300781 -6.550781 4.78125 -7.90625 Z M 15.34375 -13.875 C 16.257812 -13.5 17.046875 -12.96875 17.703125 -12.28125 C 18.367188 -11.601562 18.867188 -10.796875 19.203125 -9.859375 C 19.535156 -8.929688 19.679688 -7.882812 19.640625 -6.71875 C 19.609375 -5.550781 19.347656 -4.285156 18.859375 -2.921875 C 18.378906 -1.566406 17.785156 -0.421875 17.078125 0.515625 C 16.367188 1.453125 15.59375 2.175781 14.75 2.6875 C 13.90625 3.207031 13.015625 3.523438 12.078125 3.640625 C 11.140625 3.753906 10.1875 3.675781 9.21875 3.40625 L 10.03125 1.125 C 10.570312 1.25 11.117188 1.257812 11.671875 1.15625 C 12.234375 1.050781 12.769531 0.800781 13.28125 0.40625 C 13.800781 0.0078125 14.296875 -0.535156 14.765625 -1.234375 C 15.234375 -1.941406 15.664062 -2.832031 16.0625 -3.90625 C 16.4375 -5 16.660156 -5.960938 16.734375 -6.796875 C 16.816406 -7.640625 16.773438 -8.378906 16.609375 -9.015625 C 16.453125 -9.660156 16.191406 -10.195312 15.828125 -10.625 C 15.460938 -11.050781 15.03125 -11.378906 14.53125 -11.609375 Z M 15.34375 -13.875 "/></g></g></g><g fill="#ffffff" fill-opacity="1"><g transform="translate(159.415053, 326.664692)"><g><path d="M 14.53125 -16.140625 L 17.484375 -15.734375 L 15.078125 2.046875 L 12.125 1.640625 L 7.5625 -9.6875 L 8.3125 -15.234375 L 12.875 -3.890625 Z M 2.21875 0.296875 L 4.625 -17.484375 L 7.5625 -17.078125 L 5.15625 0.703125 Z M 2.21875 0.296875 "/></g></g></g><g fill="#ffffff" fill-opacity="1"><g transform="translate(187.611135, 329.30605)"><g><path d="M 1.34375 -18.03125 L 4.296875 -18.1875 L 5.265625 -0.28125 L 2.3125 -0.125 Z M 12.328125 -8.75 L 5.828125 -8.40625 L 5.71875 -10.40625 L 12.21875 -10.75 Z M 12.546875 -18.640625 L 12.65625 -16.4375 L 5.40625 -16.046875 L 5.296875 -18.25 Z M 12.546875 -18.640625 "/></g></g></g><g fill="#ffffff" fill-opacity="1"><g transform="translate(212.455695, 326.89032)"><g><path d="M 5.140625 -1.078125 L 2.234375 -0.46875 L -1.4375 -18.03125 L 1.46875 -18.640625 Z M 5.140625 -1.078125 "/></g></g></g><g fill="#ffffff" fill-opacity="1"><g transform="translate(230.168972, 322.70372)"><g><path d="M 6.3125 -17.96875 C 5.78125 -18.269531 5.238281 -18.425781 4.6875 -18.4375 C 4.144531 -18.445312 3.625 -18.359375 3.125 -18.171875 L 3.046875 -18.125 L 2.171875 -20.375 L 2.1875 -20.390625 C 3.09375 -20.742188 4 -20.921875 4.90625 -20.921875 C 5.8125 -20.921875 6.691406 -20.738281 7.546875 -20.375 Z M -1.46875 -9.125 C -1.96875 -10.425781 -2.257812 -11.640625 -2.34375 -12.765625 C -2.4375 -13.898438 -2.351562 -14.914062 -2.09375 -15.8125 C -1.84375 -16.71875 -1.425781 -17.519531 -0.84375 -18.21875 C -0.257812 -18.925781 0.445312 -19.492188 1.28125 -19.921875 L 2.15625 -17.65625 C 1.738281 -17.351562 1.394531 -16.984375 1.125 -16.546875 C 0.851562 -16.117188 0.664062 -15.59375 0.5625 -14.96875 C 0.46875 -14.351562 0.472656 -13.65625 0.578125 -12.875 C 0.691406 -12.09375 0.929688 -11.203125 1.296875 -10.203125 C 1.703125 -9.234375 2.128906 -8.410156 2.578125 -7.734375 C 3.023438 -7.054688 3.5 -6.503906 4 -6.078125 C 4.5 -5.660156 5.003906 -5.363281 5.515625 -5.1875 C 6.023438 -5.019531 6.535156 -4.960938 7.046875 -5.015625 L 7.84375 -2.9375 C 6.9375 -2.71875 6.03125 -2.671875 5.125 -2.796875 C 4.21875 -2.929688 3.363281 -3.25 2.5625 -3.75 C 1.757812 -4.257812 1.015625 -4.957031 0.328125 -5.84375 C -0.359375 -6.726562 -0.957031 -7.820312 -1.46875 -9.125 Z M 10.953125 -14.140625 L 13.453125 -7.671875 C 13.265625 -7.097656 13.007812 -6.585938 12.6875 -6.140625 C 12.363281 -5.691406 12 -5.285156 11.59375 -4.921875 C 11.1875 -4.554688 10.742188 -4.238281 10.265625 -3.96875 C 9.796875 -3.695312 9.3125 -3.46875 8.8125 -3.28125 L 8.796875 -3.265625 L 8.015625 -5.25 C 8.179688 -5.320312 8.394531 -5.421875 8.65625 -5.546875 C 8.925781 -5.679688 9.191406 -5.828125 9.453125 -5.984375 C 9.710938 -6.148438 9.945312 -6.328125 10.15625 -6.515625 C 10.363281 -6.703125 10.5 -6.898438 10.5625 -7.109375 L 8.96875 -11.234375 L 6.140625 -10.140625 L 5.421875 -12 Z M 10.953125 -14.140625 "/></g></g></g><g fill="#ffffff" fill-opacity="1"><g transform="translate(255.95284, 311.460198)"><g><path d="M 0.96875 -18.390625 C 0.875 -18.398438 0.757812 -18.40625 0.625 -18.40625 C 0.488281 -18.414062 0.304688 -18.394531 0.078125 -18.34375 C -0.140625 -18.289062 -0.394531 -18.195312 -0.6875 -18.0625 C -0.988281 -17.9375 -1.34375 -17.734375 -1.75 -17.453125 L -3.046875 -19.546875 C -2.429688 -19.898438 -1.769531 -20.210938 -1.0625 -20.484375 C -0.363281 -20.753906 0.25 -20.882812 0.78125 -20.875 C 0.800781 -20.644531 0.820312 -20.390625 0.84375 -20.109375 C 0.875 -19.828125 0.894531 -19.5625 0.90625 -19.3125 C 0.925781 -19.0625 0.941406 -18.851562 0.953125 -18.6875 C 0.960938 -18.519531 0.96875 -18.421875 0.96875 -18.390625 Z M -5.15625 -12.34375 C -5.53125 -12.945312 -5.757812 -13.554688 -5.84375 -14.171875 C -5.9375 -14.785156 -5.921875 -15.382812 -5.796875 -15.96875 C -5.679688 -16.550781 -5.445312 -17.09375 -5.09375 -17.59375 C -4.75 -18.101562 -4.335938 -18.554688 -3.859375 -18.953125 L -2.515625 -16.765625 C -2.859375 -16.347656 -3.0625 -15.859375 -3.125 -15.296875 C -3.1875 -14.742188 -3.097656 -14.273438 -2.859375 -13.890625 C -2.515625 -13.347656 -2.097656 -13 -1.609375 -12.84375 C -1.117188 -12.695312 -0.570312 -12.628906 0.03125 -12.640625 L 1.484375 -10.296875 C 0.878906 -10.234375 0.273438 -10.1875 -0.328125 -10.15625 C -0.929688 -10.132812 -1.523438 -10.179688 -2.109375 -10.296875 C -2.703125 -10.410156 -3.257812 -10.617188 -3.78125 -10.921875 C -4.3125 -11.234375 -4.769531 -11.707031 -5.15625 -12.34375 Z M 0.390625 -4.109375 C 0.648438 -4.109375 0.960938 -4.144531 1.328125 -4.21875 C 1.691406 -4.300781 2.054688 -4.394531 2.421875 -4.5 C 2.785156 -4.613281 3.144531 -4.738281 3.5 -4.875 C 3.851562 -5.019531 4.164062 -5.179688 4.4375 -5.359375 L 4.5 -5.390625 L 5.71875 -3.421875 L 5.6875 -3.40625 C 5.34375 -3.195312 4.984375 -3 4.609375 -2.8125 C 4.242188 -2.632812 3.851562 -2.472656 3.4375 -2.328125 C 3.03125 -2.191406 2.617188 -2.09375 2.203125 -2.03125 C 1.796875 -1.976562 1.410156 -1.984375 1.046875 -2.046875 Z M 1.140625 -12.765625 C 1.710938 -12.835938 2.3125 -12.898438 2.9375 -12.953125 C 3.5625 -13.015625 4.171875 -13 4.765625 -12.90625 C 5.359375 -12.8125 5.925781 -12.597656 6.46875 -12.265625 C 7.019531 -11.941406 7.519531 -11.421875 7.96875 -10.703125 C 8.269531 -10.203125 8.472656 -9.65625 8.578125 -9.0625 C 8.679688 -8.476562 8.679688 -7.890625 8.578125 -7.296875 C 8.472656 -6.710938 8.25 -6.132812 7.90625 -5.5625 C 7.570312 -5 7.117188 -4.476562 6.546875 -4 L 5.3125 -6 C 6.269531 -6.96875 6.367188 -8.070312 5.609375 -9.3125 C 5.316406 -9.789062 4.910156 -10.085938 4.390625 -10.203125 C 3.878906 -10.328125 3.296875 -10.375 2.640625 -10.34375 Z M 1.140625 -12.765625 "/></g></g></g><g clip-path="url(#9148465b18)"><path fill="#0097b2" d="M 270.964844 234.835938 C 272.15625 230.527344 273.121094 229.558594 277.429688 228.371094 C 273.121094 227.179688 272.15625 226.214844 270.964844 221.90625 C 269.773438 226.214844 268.808594 227.179688 264.5 228.371094 C 268.808594 229.5625 269.773438 230.527344 270.964844 234.835938 Z M 236.898438 249.25 C 247.703125 246.265625 250.117188 243.847656 253.101562 233.046875 C 256.085938 243.847656 258.503906 246.265625 269.304688 249.25 C 258.503906 252.230469 256.085938 254.648438 253.101562 265.453125 C 250.117188 254.648438 247.703125 252.230469 236.898438 249.25 Z M 236.898438 249.25 " fill-opacity="1" fill-rule="nonzero"/></g><g clip-path="url(#bbaf8014fc)"><path fill="#0097b2" d="M 103.648438 141.734375 C 102.460938 146.042969 101.492188 147.007812 97.183594 148.199219 C 101.492188 149.386719 102.460938 150.355469 103.648438 154.664062 C 104.839844 150.355469 105.804688 149.386719 110.117188 148.199219 C 105.804688 147.007812 104.839844 146.042969 103.648438 141.734375 Z M 137.714844 127.320312 C 126.914062 130.304688 124.496094 132.722656 121.511719 143.523438 C 118.527344 132.722656 116.109375 130.304688 105.308594 127.320312 C 116.109375 124.335938 118.527344 121.917969 121.511719 111.117188 C 124.496094 121.917969 126.914062 124.335938 137.714844 127.320312 Z M 137.714844 127.320312 " fill-opacity="1" fill-rule="nonzero"/></g><g clip-path="url(#0a71684c09)"><g clip-path="url(#c4544a5008)"><g clip-path="url(#d141823bda)"><path fill="#0097b2" d="M 268.121094 140.066406 C 269.394531 144.351562 270.378906 145.300781 274.710938 146.40625 C 270.421875 147.679688 269.476562 148.664062 268.371094 152.996094 C 267.097656 148.710938 266.113281 147.761719 261.78125 146.65625 C 266.066406 145.382812 267.015625 144.398438 268.121094 140.066406 Z M 233.78125 126.316406 C 244.640625 129.089844 247.105469 131.460938 250.296875 142.203125 C 253.070312 131.34375 255.441406 128.878906 266.183594 125.6875 C 255.324219 122.914062 252.863281 120.542969 249.667969 109.800781 C 246.894531 120.660156 244.523438 123.125 233.78125 126.316406 Z M 233.78125 126.316406 " fill-opacity="1" fill-rule="nonzero"/></g></g></g></svg>