<svg xmlns="http://www.w3.org/2000/svg" xmlns:xlink="http://www.w3.org/1999/xlink" width="500" zoomAndPan="magnify" viewBox="0 0 375 374.999991" height="500" preserveAspectRatio="xMidYMid meet" version="1.0"><defs><g/><clipPath id="13a8ee0635"><path d="M 104 165 L 219 165 L 219 304 L 104 304 Z M 104 165 " clip-rule="nonzero"/></clipPath><clipPath id="51f211fbca"><path d="M 133.738281 320.835938 L 82.769531 282.515625 L 180.722656 152.234375 L 231.691406 190.558594 Z M 133.738281 320.835938 " clip-rule="nonzero"/></clipPath><clipPath id="550c44086b"><path d="M 105.679688 290.125 L 158.742188 182.773438 C 162.914062 174.335938 170.628906 168.1875 179.789062 166.011719 C 188.949219 163.832031 198.601562 165.84375 206.128906 171.503906 C 213.652344 177.160156 218.269531 185.878906 218.71875 195.28125 C 219.167969 204.6875 215.410156 213.804688 208.457031 220.15625 L 120.066406 300.941406 C 116.8125 303.914062 111.90625 304.148438 108.386719 301.5 C 104.867188 298.851562 103.730469 294.074219 105.679688 290.125 Z M 105.679688 290.125 " clip-rule="nonzero"/></clipPath><clipPath id="d21e53de79"><path d="M 117 73 L 232 73 L 232 213 L 117 213 Z M 117 73 " clip-rule="nonzero"/></clipPath><clipPath id="aa237c1124"><path d="M 197.535156 53.230469 L 258.261719 97.105469 L 165.707031 225.207031 L 104.984375 181.332031 Z M 197.535156 53.230469 " clip-rule="nonzero"/></clipPath><clipPath id="aa4a279d38"><path d="M 231.109375 86.402344 L 187.242188 193.734375 C 183.679688 202.445312 176.324219 209.039062 167.277344 211.625 C 158.230469 214.210938 148.5 212.507812 140.875 206.996094 L 130.070312 199.191406 C 122.445312 193.683594 117.769531 184.976562 117.382812 175.578125 C 117 166.175781 120.949219 157.121094 128.097656 151.003906 L 216.222656 75.644531 C 219.539062 72.8125 224.363281 72.613281 227.898438 75.167969 C 231.433594 77.722656 232.757812 82.363281 231.109375 86.402344 Z M 231.109375 86.402344 " clip-rule="nonzero"/></clipPath><clipPath id="7646220f61"><path d="M 105 87 L 262 87 L 262 288 L 105 288 Z M 105 87 " clip-rule="nonzero"/></clipPath><clipPath id="9b421780a1"><path d="M 94.90625 101.226562 L 253.527344 82.253906 L 275.882812 269.171875 L 117.265625 288.144531 Z M 94.90625 101.226562 " clip-rule="nonzero"/></clipPath><clipPath id="e9727ee9b6"><path d="M 94.90625 101.226562 L 253.527344 82.253906 L 275.882812 269.171875 L 117.265625 288.144531 Z M 94.90625 101.226562 " clip-rule="nonzero"/></clipPath><clipPath id="330f561e78"><path d="M 107 89 L 260 89 L 260 286 L 107 286 Z M 107 89 " clip-rule="nonzero"/></clipPath><clipPath id="406cf3461c"><path d="M 94.90625 101.226562 L 253.527344 82.253906 L 275.882812 269.171875 L 117.265625 288.144531 Z M 94.90625 101.226562 " clip-rule="nonzero"/></clipPath><clipPath id="7a7f05b3ff"><path d="M 94.90625 101.226562 L 253.527344 82.253906 L 275.882812 269.171875 L 117.265625 288.144531 Z M 94.90625 101.226562 " clip-rule="nonzero"/></clipPath><clipPath id="43a7e68408"><path d="M 219 147 L 277 147 L 277 182 L 219 182 Z M 219 147 " clip-rule="nonzero"/></clipPath><clipPath id="c169501106"><path d="M 215.578125 150.195312 L 272.171875 143.425781 L 276.09375 176.191406 L 219.496094 182.960938 Z M 215.578125 150.195312 " clip-rule="nonzero"/></clipPath><clipPath id="8dcb5d7b55"><path d="M 215.578125 150.195312 L 272.171875 143.425781 L 276.09375 176.191406 L 219.496094 182.960938 Z M 215.578125 150.195312 " clip-rule="nonzero"/></clipPath><clipPath id="240a894bdb"><path d="M 215.578125 150.195312 L 275.894531 142.980469 L 279.816406 175.746094 L 219.496094 182.960938 Z M 215.578125 150.195312 " clip-rule="nonzero"/></clipPath><clipPath id="f7494f9eab"><path d="M 219 147 L 277 147 L 277 183 L 219 183 Z M 219 147 " clip-rule="nonzero"/></clipPath><clipPath id="41f5b3cc95"><path d="M 215.578125 150.195312 L 272.171875 143.425781 L 276.09375 176.191406 L 219.496094 182.960938 Z M 215.578125 150.195312 " clip-rule="nonzero"/></clipPath><clipPath id="121caec522"><path d="M 215.578125 150.195312 L 272.171875 143.425781 L 276.09375 176.191406 L 219.496094 182.960938 Z M 215.578125 150.195312 " clip-rule="nonzero"/></clipPath><clipPath id="77c99d25d0"><path d="M 215.578125 150.195312 L 275.894531 142.980469 L 279.816406 175.746094 L 219.496094 182.960938 Z M 215.578125 150.195312 " clip-rule="nonzero"/></clipPath><clipPath id="a2a68ac22a"><path d="M 219 147 L 273 147 L 273 181 L 219 181 Z M 219 147 " clip-rule="nonzero"/></clipPath><clipPath id="acb83f01a0"><path d="M 215.578125 150.195312 L 272.171875 143.425781 L 276.09375 176.191406 L 219.496094 182.960938 Z M 215.578125 150.195312 " clip-rule="nonzero"/></clipPath><clipPath id="47e1fbb91c"><path d="M 215.578125 150.195312 L 272.171875 143.425781 L 276.09375 176.191406 L 219.496094 182.960938 Z M 215.578125 150.195312 " clip-rule="nonzero"/></clipPath><clipPath id="06513bf815"><path d="M 215.578125 150.195312 L 275.894531 142.980469 L 279.816406 175.746094 L 219.496094 182.960938 Z M 215.578125 150.195312 " clip-rule="nonzero"/></clipPath><clipPath id="2b60c83d8e"><path d="M 219 147 L 274 147 L 274 182 L 219 182 Z M 219 147 " clip-rule="nonzero"/></clipPath><clipPath id="509ef4f228"><path d="M 215.578125 150.195312 L 272.171875 143.425781 L 276.09375 176.191406 L 219.496094 182.960938 Z M 215.578125 150.195312 " clip-rule="nonzero"/></clipPath><clipPath id="3d38b432eb"><path d="M 215.578125 150.195312 L 272.171875 143.425781 L 276.09375 176.191406 L 219.496094 182.960938 Z M 215.578125 150.195312 " clip-rule="nonzero"/></clipPath><clipPath id="a8edd174c9"><path d="M 215.578125 150.195312 L 275.894531 142.980469 L 279.816406 175.746094 L 219.496094 182.960938 Z M 215.578125 150.195312 " clip-rule="nonzero"/></clipPath><clipPath id="1da29774cc"><path d="M 101 161 L 158 161 L 158 197 L 101 197 Z M 101 161 " clip-rule="nonzero"/></clipPath><clipPath id="d38897e22c"><path d="M 97.027344 164.375 L 153.625 157.605469 L 157.542969 190.371094 L 100.949219 197.140625 Z M 97.027344 164.375 " clip-rule="nonzero"/></clipPath><clipPath id="20b22393cc"><path d="M 97.027344 164.375 L 154.371094 157.515625 L 158.289062 190.285156 L 100.949219 197.140625 Z M 97.027344 164.375 " clip-rule="nonzero"/></clipPath><clipPath id="891a1eca70"><path d="M 97.027344 164.375 L 157.347656 157.160156 L 161.269531 189.925781 L 100.949219 197.140625 Z M 97.027344 164.375 " clip-rule="nonzero"/></clipPath><clipPath id="adf65cc08d"><path d="M 100 161 L 158 161 L 158 197 L 100 197 Z M 100 161 " clip-rule="nonzero"/></clipPath><clipPath id="a8974821e5"><path d="M 97.027344 164.375 L 153.625 157.605469 L 157.542969 190.371094 L 100.949219 197.140625 Z M 97.027344 164.375 " clip-rule="nonzero"/></clipPath><clipPath id="d14d8aab94"><path d="M 97.027344 164.375 L 154.371094 157.515625 L 158.289062 190.285156 L 100.949219 197.140625 Z M 97.027344 164.375 " clip-rule="nonzero"/></clipPath><clipPath id="a4b2b67c68"><path d="M 97.027344 164.375 L 157.347656 157.160156 L 161.269531 189.925781 L 100.949219 197.140625 Z M 97.027344 164.375 " clip-rule="nonzero"/></clipPath><clipPath id="0ab512d319"><path d="M 101 161 L 155 161 L 155 195 L 101 195 Z M 101 161 " clip-rule="nonzero"/></clipPath><clipPath id="b048b7ff65"><path d="M 97.027344 164.375 L 153.625 157.605469 L 157.542969 190.371094 L 100.949219 197.140625 Z M 97.027344 164.375 " clip-rule="nonzero"/></clipPath><clipPath id="69cd25bc0e"><path d="M 97.027344 164.375 L 154.371094 157.515625 L 158.289062 190.285156 L 100.949219 197.140625 Z M 97.027344 164.375 " clip-rule="nonzero"/></clipPath><clipPath id="221331b235"><path d="M 97.027344 164.375 L 157.347656 157.160156 L 161.269531 189.925781 L 100.949219 197.140625 Z M 97.027344 164.375 " clip-rule="nonzero"/></clipPath><clipPath id="327c897606"><path d="M 100 161 L 155 161 L 155 196 L 100 196 Z M 100 161 " clip-rule="nonzero"/></clipPath><clipPath id="4d37397be1"><path d="M 97.027344 164.375 L 153.625 157.605469 L 157.542969 190.371094 L 100.949219 197.140625 Z M 97.027344 164.375 " clip-rule="nonzero"/></clipPath><clipPath id="5fcd7093bb"><path d="M 97.027344 164.375 L 154.371094 157.515625 L 158.289062 190.285156 L 100.949219 197.140625 Z M 97.027344 164.375 " clip-rule="nonzero"/></clipPath><clipPath id="6aa2fda5e4"><path d="M 97.027344 164.375 L 157.347656 157.160156 L 161.269531 189.925781 L 100.949219 197.140625 Z M 97.027344 164.375 " clip-rule="nonzero"/></clipPath></defs><g clip-path="url(#13a8ee0635)"><g clip-path="url(#51f211fbca)"><g clip-path="url(#550c44086b)"><path fill="#ffff00" d="M 114.566406 356.75 L 53.59375 310.90625 L 175.722656 148.476562 L 236.695312 194.316406 Z M 114.566406 356.75 " fill-opacity="1" fill-rule="nonzero"/></g></g></g><g clip-path="url(#d21e53de79)"><g clip-path="url(#aa237c1124)"><g clip-path="url(#aa4a279d38)"><path fill="#ffff00" d="M 208.851562 23.558594 L 282.878906 77.042969 L 172.566406 229.722656 L 98.539062 176.238281 Z M 208.851562 23.558594 " fill-opacity="1" fill-rule="nonzero"/></g></g></g><path stroke-linecap="butt" transform="matrix(0.744692, -0.0890723, 0.0890723, 0.744692, -1.402448, 127.592716)" fill="none" stroke-linejoin="miter" d="M 146.206229 69.733824 L 111.91143 69.733784 L 111.913192 162.998236 L 88.843695 162.998013 L 88.841933 69.73356 L 55.014199 69.731685 L 55.014455 51.047395 L 146.206486 51.049534 Z M 204.641696 100.642558 C 201.61678 100.233539 198.950207 100.029992 196.642594 100.026743 C 188.23396 100.028117 182.726863 102.873381 180.11096 108.561297 L 180.109362 162.998469 L 157.889396 163.000194 L 157.889442 79.807237 L 178.881964 79.80557 L 179.494746 89.724589 C 183.954375 82.085581 190.133978 78.266418 198.028384 78.266482 C 200.488444 78.266984 202.793288 78.600365 204.948088 79.267246 Z M 265.15285 154.543869 C 259.666665 161.205082 252.081953 164.536207 242.393542 164.536626 C 233.470682 164.539439 226.669935 161.974021 221.979722 156.849478 C 217.289509 151.724935 214.888407 144.214745 214.786759 134.320144 L 214.787292 79.804164 L 237.011811 79.808229 L 237.00912 133.552869 C 237.011832 142.213444 240.957497 146.546041 248.851903 146.546105 C 256.384529 146.544861 261.564688 143.933256 264.382653 138.704881 L 264.383153 79.803694 L 286.68131 79.806076 L 286.681264 162.999033 L 265.767551 162.999634 Z M 348.499902 140.011446 C 348.499684 137.294272 347.155581 135.155967 344.463041 133.59074 C 341.770501 132.025512 337.45281 130.627838 331.504796 129.397098 C 311.722193 125.247452 301.827628 116.840971 301.826271 104.178274 C 301.827775 96.798094 304.888842 90.633632 311.014644 85.685506 C 317.139827 80.742552 325.1516 78.270307 335.044791 78.268155 C 345.604037 78.266987 354.045277 80.75586 360.38009 85.725667 C 366.709113 90.700028 369.87598 97.158301 369.87552 105.09987 L 347.655554 105.101595 C 347.652882 101.922528 346.629209 99.298003 344.579981 97.222231 C 342.525581 95.14584 339.324187 94.10724 334.965457 94.105194 C 331.225001 94.108909 328.328193 94.953142 326.279587 96.643683 C 324.225809 98.333605 323.20232 100.487715 323.203948 103.105393 C 323.203447 105.565453 324.366498 107.550966 326.698272 109.062551 C 329.035218 110.574755 332.965444 111.878876 338.503847 112.981941 C 344.037078 114.084387 348.703459 115.329686 352.498436 116.712048 C 364.236933 121.016824 370.106258 128.475001 370.106412 139.086581 C 370.106641 146.671541 366.849059 152.812497 360.339453 157.504898 C 353.830466 162.192128 345.424596 164.538553 335.122463 164.539001 C 328.151226 164.539201 321.958297 163.294903 316.554021 160.807344 C 311.143954 158.324338 306.89892 154.915853 303.824092 150.582507 C 300.749263 146.249162 299.210159 141.574958 299.21319 136.550172 L 320.278731 136.551994 C 320.483788 140.494878 321.946965 143.523417 324.664946 145.621479 C 327.382308 147.724712 331.017883 148.77328 335.581394 148.773592 C 339.835458 148.77361 343.052897 147.967728 345.228539 146.355327 C 347.40997 144.738373 348.496977 142.623334 348.499902 140.011446 Z M 411.011012 59.354193 L 411.009161 79.806012 L 425.234607 79.807984 L 425.236535 96.105852 L 411.011089 96.10388 L 411.011969 137.62703 C 411.011497 140.700812 411.597522 142.905808 412.775835 144.237464 C 413.959319 145.56974 416.213614 146.23803 419.544509 146.237782 C 422.004569 146.238283 424.182003 146.058107 426.081983 145.697872 L 426.081639 162.540996 C 421.720939 163.871061 417.240423 164.536358 412.623961 164.540203 C 397.039928 164.53834 389.095332 156.669331 388.790171 140.933175 L 388.791123 96.105605 L 376.637481 96.104904 L 376.640724 79.807655 L 388.789195 79.807737 L 388.786493 59.350128 Z M 411.011012 59.354193 " stroke="#ffff00" stroke-width="28.34532" stroke-opacity="1" stroke-miterlimit="4"/><g fill="#ffff00" fill-opacity="1"><g transform="translate(51.793777, 244.3513)"><g><path d="M 61.890625 -77.84375 L 36.359375 -74.796875 L 44.671875 -5.34375 L 27.484375 -3.28125 L 19.171875 -72.734375 L -6.015625 -69.734375 L -7.671875 -83.65625 L 60.234375 -91.765625 Z M 61.890625 -77.84375 "/></g></g></g><g fill="#ffff00" fill-opacity="1"><g transform="translate(124.340478, 235.674016)"><g><path d="M 35.625 -51.359375 C 33.332031 -51.398438 31.328125 -51.320312 29.609375 -51.125 C 23.347656 -50.375 19.5 -47.753906 18.0625 -43.265625 L 22.90625 -2.734375 L 6.359375 -0.765625 L -1.046875 -62.734375 L 14.578125 -64.59375 L 15.921875 -57.25 C 18.554688 -63.332031 22.8125 -66.722656 28.6875 -67.421875 C 30.53125 -67.648438 32.285156 -67.613281 33.953125 -67.3125 Z M 35.625 -51.359375 "/></g></g></g><g fill="#ffff00" fill-opacity="1"><g transform="translate(167.112684, 230.558047)"><g><path d="M 42.703125 -11.5 C 39.210938 -6.050781 33.863281 -2.894531 26.65625 -2.03125 C 20.007812 -1.238281 14.707031 -2.535156 10.75 -5.921875 C 6.800781 -9.316406 4.347656 -14.703125 3.390625 -22.078125 L -1.453125 -62.6875 L 15.109375 -64.65625 L 19.890625 -24.625 C 20.660156 -18.164062 23.984375 -15.289062 29.859375 -16 C 35.460938 -16.664062 39.082031 -19.070312 40.71875 -23.21875 L 35.46875 -67.09375 L 52.09375 -69.078125 L 59.5 -7.109375 L 43.921875 -5.25 Z M 42.703125 -11.5 "/></g></g></g><g fill="#ffff00" fill-opacity="1"><g transform="translate(232.73109, 222.709454)"><g><path d="M 37.875 -21.90625 C 37.632812 -23.925781 36.441406 -25.394531 34.296875 -26.3125 C 32.148438 -27.226562 28.804688 -27.890625 24.265625 -28.296875 C 9.160156 -29.609375 1.046875 -34.984375 -0.078125 -44.421875 C -0.734375 -49.910156 0.992188 -54.769531 5.109375 -59 C 9.222656 -63.226562 14.96875 -65.785156 22.34375 -66.671875 C 30.207031 -67.609375 36.71875 -66.503906 41.875 -63.359375 C 47.039062 -60.222656 49.976562 -55.695312 50.6875 -49.78125 L 34.125 -47.8125 C 33.84375 -50.1875 32.84375 -52.054688 31.125 -53.421875 C 29.414062 -54.785156 26.9375 -55.269531 23.6875 -54.875 C 20.90625 -54.539062 18.820312 -53.648438 17.4375 -52.203125 C 16.0625 -50.753906 15.492188 -49.0625 15.734375 -47.125 C 15.953125 -45.289062 16.992188 -43.910156 18.859375 -42.984375 C 20.734375 -42.066406 23.78125 -41.445312 28 -41.125 C 32.21875 -40.8125 35.800781 -40.300781 38.75 -39.59375 C 47.882812 -37.4375 52.925781 -32.410156 53.875 -24.515625 C 54.550781 -18.867188 52.671875 -14.003906 48.234375 -9.921875 C 43.804688 -5.847656 37.753906 -3.351562 30.078125 -2.4375 C 24.890625 -1.820312 20.171875 -2.195312 15.921875 -3.5625 C 11.671875 -4.925781 8.207031 -7.085938 5.53125 -10.046875 C 2.863281 -13.003906 1.304688 -16.351562 0.859375 -20.09375 L 16.53125 -21.96875 C 17.039062 -19.03125 18.398438 -16.898438 20.609375 -15.578125 C 22.828125 -14.265625 25.628906 -13.8125 29.015625 -14.21875 C 32.191406 -14.59375 34.519531 -15.476562 36 -16.875 C 37.476562 -18.28125 38.101562 -19.957031 37.875 -21.90625 Z M 37.875 -21.90625 "/></g></g></g><g fill="#ffff00" fill-opacity="1"><g transform="translate(293.024453, 215.497786)"><g><path d="M 16.9375 -80.3125 L 18.765625 -65.09375 L 29.359375 -66.359375 L 30.8125 -54.203125 L 20.21875 -52.9375 L 23.90625 -22.015625 C 24.1875 -19.734375 24.820312 -18.148438 25.8125 -17.265625 C 26.8125 -16.378906 28.546875 -16.082031 31.015625 -16.375 C 32.859375 -16.59375 34.46875 -16.914062 35.84375 -17.34375 L 37.34375 -4.8125 C 34.21875 -3.4375 30.941406 -2.539062 27.515625 -2.125 C 15.898438 -0.738281 9.28125 -5.894531 7.65625 -17.59375 L 3.671875 -50.96875 L -5.375 -49.875 L -6.828125 -62.03125 L 2.21875 -63.125 L 0.390625 -78.34375 Z M 16.9375 -80.3125 "/></g></g></g><g clip-path="url(#7646220f61)"><g clip-path="url(#9b421780a1)"><g clip-path="url(#e9727ee9b6)"><path fill="#000000" d="M 123.175781 287.375 C 121.132812 287.617188 119.050781 286.632812 117.871094 284.859375 C 116.722656 283.132812 116.664062 280.984375 117.710938 279.132812 L 162.109375 200.78125 C 162.269531 200.503906 162.1875 200.246094 162.121094 200.128906 C 162.058594 200.003906 161.90625 199.796875 161.578125 199.761719 L 113.699219 194.945312 C 110.222656 194.59375 107.394531 192.316406 106.3125 189.003906 C 105.230469 185.683594 106.175781 182.179688 108.769531 179.847656 L 209.585938 89.378906 C 210.679688 88.398438 211.976562 87.796875 213.351562 87.632812 C 215.773438 87.34375 218.296875 88.472656 219.777344 90.507812 C 221.246094 92.527344 221.480469 95.03125 220.40625 97.355469 L 197.515625 147.074219 C 197.371094 147.382812 197.484375 147.636719 197.566406 147.757812 C 197.648438 147.882812 197.832031 148.085938 198.171875 148.089844 L 253.09375 147.601562 C 256.566406 147.570312 259.515625 149.546875 260.804688 152.765625 C 262.089844 155.988281 261.320312 159.453125 258.789062 161.828125 L 126.277344 285.875 C 125.394531 286.722656 124.3125 287.238281 123.175781 287.375 Z M 123.175781 287.375 " fill-opacity="1" fill-rule="nonzero"/></g></g></g><g clip-path="url(#330f561e78)"><g clip-path="url(#406cf3461c)"><g clip-path="url(#7a7f05b3ff)"><path fill="#8c52ff" d="M 198.195312 149.753906 L 253.117188 149.269531 C 259.101562 149.210938 262.03125 156.539062 257.667969 160.625 L 125.148438 284.671875 C 121.917969 287.699219 116.96875 283.796875 119.15625 279.953125 L 163.550781 201.605469 C 164.386719 200.125 163.429688 198.285156 161.746094 198.109375 L 113.867188 193.296875 C 107.796875 192.6875 105.34375 185.160156 109.886719 181.085938 L 210.703125 90.617188 C 214.910156 86.839844 221.269531 91.53125 218.902344 96.667969 L 196.015625 146.382812 C 195.285156 147.972656 196.453125 149.773438 198.195312 149.753906 Z M 198.195312 149.753906 " fill-opacity="1" fill-rule="nonzero"/></g></g></g><g fill="#000000" fill-opacity="1"><g transform="translate(55.180335, 248.717342)"><g><path d="M 61.890625 -77.84375 L 36.359375 -74.796875 L 44.671875 -5.34375 L 27.484375 -3.28125 L 19.171875 -72.734375 L -6.015625 -69.734375 L -7.671875 -83.65625 L 60.234375 -91.765625 Z M 61.890625 -77.84375 "/></g></g></g><g fill="#000000" fill-opacity="1"><g transform="translate(127.727036, 240.040057)"><g><path d="M 35.625 -51.359375 C 33.332031 -51.398438 31.328125 -51.320312 29.609375 -51.125 C 23.347656 -50.375 19.5 -47.753906 18.0625 -43.265625 L 22.90625 -2.734375 L 6.359375 -0.765625 L -1.046875 -62.734375 L 14.578125 -64.59375 L 15.921875 -57.25 C 18.554688 -63.332031 22.8125 -66.722656 28.6875 -67.421875 C 30.53125 -67.648438 32.285156 -67.613281 33.953125 -67.3125 Z M 35.625 -51.359375 "/></g></g></g><g fill="#000000" fill-opacity="1"><g transform="translate(170.499242, 234.924089)"><g><path d="M 42.703125 -11.5 C 39.210938 -6.050781 33.863281 -2.894531 26.65625 -2.03125 C 20.007812 -1.238281 14.707031 -2.535156 10.75 -5.921875 C 6.800781 -9.316406 4.347656 -14.703125 3.390625 -22.078125 L -1.453125 -62.6875 L 15.109375 -64.65625 L 19.890625 -24.625 C 20.660156 -18.164062 23.984375 -15.289062 29.859375 -16 C 35.460938 -16.664062 39.082031 -19.070312 40.71875 -23.21875 L 35.46875 -67.09375 L 52.09375 -69.078125 L 59.5 -7.109375 L 43.921875 -5.25 Z M 42.703125 -11.5 "/></g></g></g><g fill="#000000" fill-opacity="1"><g transform="translate(236.117648, 227.075495)"><g><path d="M 37.875 -21.90625 C 37.632812 -23.925781 36.441406 -25.394531 34.296875 -26.3125 C 32.148438 -27.226562 28.804688 -27.890625 24.265625 -28.296875 C 9.160156 -29.609375 1.046875 -34.984375 -0.078125 -44.421875 C -0.734375 -49.910156 0.992188 -54.769531 5.109375 -59 C 9.222656 -63.226562 14.96875 -65.785156 22.34375 -66.671875 C 30.207031 -67.609375 36.71875 -66.503906 41.875 -63.359375 C 47.039062 -60.222656 49.976562 -55.695312 50.6875 -49.78125 L 34.125 -47.8125 C 33.84375 -50.1875 32.84375 -52.054688 31.125 -53.421875 C 29.414062 -54.785156 26.9375 -55.269531 23.6875 -54.875 C 20.90625 -54.539062 18.820312 -53.648438 17.4375 -52.203125 C 16.0625 -50.753906 15.492188 -49.0625 15.734375 -47.125 C 15.953125 -45.289062 16.992188 -43.910156 18.859375 -42.984375 C 20.734375 -42.066406 23.78125 -41.445312 28 -41.125 C 32.21875 -40.8125 35.800781 -40.300781 38.75 -39.59375 C 47.882812 -37.4375 52.925781 -32.410156 53.875 -24.515625 C 54.550781 -18.867188 52.671875 -14.003906 48.234375 -9.921875 C 43.804688 -5.847656 37.753906 -3.351562 30.078125 -2.4375 C 24.890625 -1.820312 20.171875 -2.195312 15.921875 -3.5625 C 11.671875 -4.925781 8.207031 -7.085938 5.53125 -10.046875 C 2.863281 -13.003906 1.304688 -16.351562 0.859375 -20.09375 L 16.53125 -21.96875 C 17.039062 -19.03125 18.398438 -16.898438 20.609375 -15.578125 C 22.828125 -14.265625 25.628906 -13.8125 29.015625 -14.21875 C 32.191406 -14.59375 34.519531 -15.476562 36 -16.875 C 37.476562 -18.28125 38.101562 -19.957031 37.875 -21.90625 Z M 37.875 -21.90625 "/></g></g></g><g fill="#000000" fill-opacity="1"><g transform="translate(296.41101, 219.863827)"><g><path d="M 16.9375 -80.3125 L 18.765625 -65.09375 L 29.359375 -66.359375 L 30.8125 -54.203125 L 20.21875 -52.9375 L 23.90625 -22.015625 C 24.1875 -19.734375 24.820312 -18.148438 25.8125 -17.265625 C 26.8125 -16.378906 28.546875 -16.082031 31.015625 -16.375 C 32.859375 -16.59375 34.46875 -16.914062 35.84375 -17.34375 L 37.34375 -4.8125 C 34.21875 -3.4375 30.941406 -2.539062 27.515625 -2.125 C 15.898438 -0.738281 9.28125 -5.894531 7.65625 -17.59375 L 3.671875 -50.96875 L -5.375 -49.875 L -6.828125 -62.03125 L 2.21875 -63.125 L 0.390625 -78.34375 Z M 16.9375 -80.3125 "/></g></g></g><path stroke-linecap="butt" transform="matrix(0.744692, -0.0890723, 0.0890723, 0.744692, 5.398124, 123.916998)" fill="none" stroke-linejoin="miter" d="M 134.094865 69.732849 L 99.800066 69.732808 L 99.801209 163.002432 L 76.736883 163.002828 L 76.73574 69.733204 L 42.902835 69.73071 L 42.903091 51.04642 L 134.095121 51.048558 Z M 192.530331 100.641582 C 189.505416 100.232564 186.838842 100.029016 184.536401 100.026386 C 176.127767 100.02776 170.615499 102.872406 168.004766 108.560941 L 168.003169 162.998112 L 145.783203 162.999837 L 145.783249 79.80688 L 166.7706 79.804595 L 167.388553 89.724233 C 171.848181 82.085224 178.022613 78.265442 185.91702 78.265507 C 188.37708 78.266008 190.687095 78.600008 192.836723 79.26627 Z M 253.041485 154.542893 C 247.555301 161.204106 239.970589 164.535232 230.282178 164.535651 C 221.364489 164.539082 214.558571 161.973046 209.868357 156.848503 C 205.178144 151.72396 202.782214 144.214388 202.680566 134.319787 L 202.681099 79.803807 L 224.900446 79.807253 L 224.897755 133.551893 C 224.900468 142.212469 228.846132 146.545065 236.740538 146.54513 C 244.278336 146.544504 249.453323 143.932281 252.271288 138.703906 L 252.271788 79.802718 L 274.569945 79.8051 L 274.569899 162.998057 L 253.656186 162.998659 Z M 336.388538 140.01047 C 336.388319 137.293297 335.044217 135.154992 332.351676 133.589764 C 329.664308 132.025156 325.341445 130.626863 319.397984 129.401912 C 299.610829 125.246477 289.716263 116.839996 289.720078 104.177917 C 289.71641 96.797119 292.782649 90.633275 298.90845 85.685149 C 305.033634 80.742195 313.040235 78.269332 322.933426 78.267179 C 333.492672 78.266012 341.939084 80.755503 348.268725 85.724692 C 354.597748 90.699052 357.764615 97.157326 357.763537 105.104066 L 335.544189 105.100619 C 335.541518 101.921552 334.517844 99.297028 332.468616 97.221255 C 330.419388 95.145483 327.212823 94.106265 322.859263 94.104837 C 319.113636 94.107934 316.216829 94.952166 314.168222 96.642707 C 312.118998 98.33842 311.090956 100.486739 311.092584 103.104417 C 311.092082 105.564477 312.260305 107.550609 314.592079 109.062194 C 316.923853 110.57378 320.858632 111.88369 326.392482 112.980965 C 331.930885 114.08403 336.592094 115.328711 340.387071 116.711073 C 352.125568 121.015848 357.994893 128.474026 357.995047 139.085606 C 357.994658 146.675737 354.742865 152.812141 348.228088 157.503923 C 341.719101 162.191153 333.313232 164.537577 323.011099 164.538025 C 316.039861 164.538226 309.852104 163.294547 304.442656 160.806369 C 299.032589 158.323362 294.792727 154.915496 291.717898 150.58215 C 288.64307 146.248805 287.103966 141.574601 287.101825 136.549197 L 308.172538 136.551637 C 308.377595 140.494521 309.835601 143.522442 312.553581 145.620503 C 315.270944 147.723736 318.911071 148.778095 323.470029 148.772617 C 327.729265 148.773253 330.941532 147.966752 333.122345 146.35497 C 335.298606 144.737398 336.390784 142.622977 336.388538 140.01047 Z M 398.899647 59.353217 L 398.897796 79.805036 L 413.123242 79.807009 L 413.12517 96.104877 L 398.899106 96.108076 L 398.900604 137.626055 C 398.900132 140.699837 399.491329 142.905451 400.669642 144.237108 C 401.847336 145.573936 404.102249 146.237054 407.433145 146.236807 C 409.893205 146.237308 412.07581 146.05775 413.97 145.702068 L 413.970274 162.54002 C 409.614745 163.870704 405.129059 164.535382 400.512596 164.539227 C 384.933735 164.537983 376.989138 156.668974 376.678807 140.932199 L 376.679758 96.10463 L 364.531288 96.104548 L 364.529359 79.806679 L 376.67783 79.806762 L 376.679681 59.354943 Z M 398.899647 59.353217 " stroke="#000000" stroke-width="5.51159" stroke-opacity="1" stroke-miterlimit="4"/><g fill="#ffffff" fill-opacity="1"><g transform="translate(49.576595, 241.754193)"><g><path d="M 61.890625 -77.84375 L 36.359375 -74.796875 L 44.671875 -5.34375 L 27.484375 -3.28125 L 19.171875 -72.734375 L -6.015625 -69.734375 L -7.671875 -83.65625 L 60.234375 -91.765625 Z M 61.890625 -77.84375 "/></g></g></g><g fill="#ffffff" fill-opacity="1"><g transform="translate(122.123296, 233.076909)"><g><path d="M 35.625 -51.359375 C 33.332031 -51.398438 31.328125 -51.320312 29.609375 -51.125 C 23.347656 -50.375 19.5 -47.753906 18.0625 -43.265625 L 22.90625 -2.734375 L 6.359375 -0.765625 L -1.046875 -62.734375 L 14.578125 -64.59375 L 15.921875 -57.25 C 18.554688 -63.332031 22.8125 -66.722656 28.6875 -67.421875 C 30.53125 -67.648438 32.285156 -67.613281 33.953125 -67.3125 Z M 35.625 -51.359375 "/></g></g></g><g fill="#ffffff" fill-opacity="1"><g transform="translate(164.895503, 227.96094)"><g><path d="M 42.703125 -11.5 C 39.210938 -6.050781 33.863281 -2.894531 26.65625 -2.03125 C 20.007812 -1.238281 14.707031 -2.535156 10.75 -5.921875 C 6.800781 -9.316406 4.347656 -14.703125 3.390625 -22.078125 L -1.453125 -62.6875 L 15.109375 -64.65625 L 19.890625 -24.625 C 20.660156 -18.164062 23.984375 -15.289062 29.859375 -16 C 35.460938 -16.664062 39.082031 -19.070312 40.71875 -23.21875 L 35.46875 -67.09375 L 52.09375 -69.078125 L 59.5 -7.109375 L 43.921875 -5.25 Z M 42.703125 -11.5 "/></g></g></g><g fill="#ffffff" fill-opacity="1"><g transform="translate(230.513908, 220.112346)"><g><path d="M 37.875 -21.90625 C 37.632812 -23.925781 36.441406 -25.394531 34.296875 -26.3125 C 32.148438 -27.226562 28.804688 -27.890625 24.265625 -28.296875 C 9.160156 -29.609375 1.046875 -34.984375 -0.078125 -44.421875 C -0.734375 -49.910156 0.992188 -54.769531 5.109375 -59 C 9.222656 -63.226562 14.96875 -65.785156 22.34375 -66.671875 C 30.207031 -67.609375 36.71875 -66.503906 41.875 -63.359375 C 47.039062 -60.222656 49.976562 -55.695312 50.6875 -49.78125 L 34.125 -47.8125 C 33.84375 -50.1875 32.84375 -52.054688 31.125 -53.421875 C 29.414062 -54.785156 26.9375 -55.269531 23.6875 -54.875 C 20.90625 -54.539062 18.820312 -53.648438 17.4375 -52.203125 C 16.0625 -50.753906 15.492188 -49.0625 15.734375 -47.125 C 15.953125 -45.289062 16.992188 -43.910156 18.859375 -42.984375 C 20.734375 -42.066406 23.78125 -41.445312 28 -41.125 C 32.21875 -40.8125 35.800781 -40.300781 38.75 -39.59375 C 47.882812 -37.4375 52.925781 -32.410156 53.875 -24.515625 C 54.550781 -18.867188 52.671875 -14.003906 48.234375 -9.921875 C 43.804688 -5.847656 37.753906 -3.351562 30.078125 -2.4375 C 24.890625 -1.820312 20.171875 -2.195312 15.921875 -3.5625 C 11.671875 -4.925781 8.207031 -7.085938 5.53125 -10.046875 C 2.863281 -13.003906 1.304688 -16.351562 0.859375 -20.09375 L 16.53125 -21.96875 C 17.039062 -19.03125 18.398438 -16.898438 20.609375 -15.578125 C 22.828125 -14.265625 25.628906 -13.8125 29.015625 -14.21875 C 32.191406 -14.59375 34.519531 -15.476562 36 -16.875 C 37.476562 -18.28125 38.101562 -19.957031 37.875 -21.90625 Z M 37.875 -21.90625 "/></g></g></g><g fill="#ffffff" fill-opacity="1"><g transform="translate(290.807271, 212.900679)"><g><path d="M 16.9375 -80.3125 L 18.765625 -65.09375 L 29.359375 -66.359375 L 30.8125 -54.203125 L 20.21875 -52.9375 L 23.90625 -22.015625 C 24.1875 -19.734375 24.820312 -18.148438 25.8125 -17.265625 C 26.8125 -16.378906 28.546875 -16.082031 31.015625 -16.375 C 32.859375 -16.59375 34.46875 -16.914062 35.84375 -17.34375 L 37.34375 -4.8125 C 34.21875 -3.4375 30.941406 -2.539062 27.515625 -2.125 C 15.898438 -0.738281 9.28125 -5.894531 7.65625 -17.59375 L 3.671875 -50.96875 L -5.375 -49.875 L -6.828125 -62.03125 L 2.21875 -63.125 L 0.390625 -78.34375 Z M 16.9375 -80.3125 "/></g></g></g><g clip-path="url(#43a7e68408)"><g clip-path="url(#c169501106)"><g clip-path="url(#8dcb5d7b55)"><g clip-path="url(#240a894bdb)"><path fill="#000000" d="M 246.226562 148.894531 L 246.136719 159.667969 L 266.191406 157.824219 L 272.902344 155.425781 L 277.058594 156.820312 L 245.378906 168.121094 L 243.453125 179.648438 L 239.296875 178.253906 L 239.539062 176.820312 L 236.1875 174.398438 L 223.851562 181.992188 L 219.691406 180.601562 L 227.703125 175.660156 L 231.265625 169.8125 L 225.566406 162.976562 L 237.421875 160.710938 L 246.226562 148.894531 L 242.066406 147.5 L 242.007812 154.550781 Z M 246.226562 148.894531 " fill-opacity="1" fill-rule="evenodd"/></g></g></g></g><g clip-path="url(#f7494f9eab)"><g clip-path="url(#41f5b3cc95)"><g clip-path="url(#121caec522)"><g clip-path="url(#77c99d25d0)"><path fill="#000000" d="M 246.632812 148.914062 L 246.546875 159.214844 L 266.109375 157.421875 L 272.773438 155.050781 C 272.855469 155.019531 272.949219 155.019531 273.035156 155.042969 L 277.191406 156.4375 C 277.402344 156.507812 277.527344 156.738281 277.445312 156.949219 C 277.402344 157.085938 277.304688 157.179688 277.179688 157.207031 L 245.734375 168.421875 L 243.855469 179.71875 C 243.820312 179.933594 243.613281 180.078125 243.382812 180.046875 C 243.359375 180.050781 243.347656 180.039062 243.320312 180.03125 L 239.164062 178.636719 C 238.964844 178.566406 238.84375 178.355469 238.90625 178.160156 L 239.097656 177.003906 L 236.160156 174.882812 L 224.070312 182.332031 C 223.957031 182.40625 223.828125 182.410156 223.71875 182.375 L 219.570312 180.980469 C 219.347656 180.914062 219.238281 180.679688 219.308594 180.46875 C 219.34375 180.371094 219.417969 180.289062 219.507812 180.242188 L 227.40625 175.363281 L 230.773438 169.847656 L 225.253906 163.242188 C 225.113281 163.066406 225.132812 162.816406 225.304688 162.667969 C 225.371094 162.625 225.425781 162.59375 225.496094 162.585938 L 237.1875 160.335938 L 241.609375 154.40625 L 241.667969 147.523438 C 241.660156 147.476562 241.667969 147.417969 241.683594 147.367188 C 241.753906 147.148438 241.988281 147.039062 242.199219 147.105469 L 246.355469 148.5 L 246.359375 148.511719 C 246.394531 148.519531 246.433594 148.539062 246.472656 148.570312 C 246.589844 148.648438 246.640625 148.785156 246.632812 148.914062 Z M 245.730469 159.65625 L 245.816406 150.125 L 237.757812 160.929688 C 237.699219 161.019531 237.613281 161.089844 237.496094 161.101562 L 226.324219 163.253906 L 231.578125 169.550781 C 231.691406 169.675781 231.699219 169.867188 231.613281 170.019531 L 228.070312 175.851562 C 228.027344 175.917969 227.988281 175.96875 227.921875 176.011719 L 220.652344 180.484375 L 223.808594 181.550781 L 235.964844 174.046875 C 236.109375 173.96875 236.289062 173.972656 236.417969 174.0625 L 239.773438 176.484375 C 239.890625 176.578125 239.96875 176.722656 239.941406 176.878906 L 239.75 177.976562 L 243.128906 179.109375 L 244.96875 168.078125 C 244.988281 167.933594 245.089844 167.792969 245.238281 167.738281 L 275.828125 156.835938 L 272.90625 155.863281 L 266.332031 158.207031 L 266.332031 158.195312 C 266.296875 158.210938 266.261719 158.21875 266.226562 158.222656 L 246.171875 160.066406 C 246.160156 160.066406 246.148438 160.066406 246.136719 160.070312 C 245.910156 160.074219 245.734375 159.878906 245.730469 159.65625 Z M 242.429688 153.304688 L 245.5625 149.101562 L 242.46875 148.054688 Z M 242.429688 153.304688 " fill-opacity="1" fill-rule="nonzero"/></g></g></g></g><g clip-path="url(#a2a68ac22a)"><g clip-path="url(#acb83f01a0)"><g clip-path="url(#47e1fbb91c)"><g clip-path="url(#06513bf815)"><path fill="#ffff00" d="M 242.066406 147.5 L 241.980469 158.273438 L 272.902344 155.425781 L 241.21875 166.730469 L 239.296875 178.253906 L 232.027344 173.003906 L 219.691406 180.601562 L 227.109375 168.417969 L 221.410156 161.585938 L 233.265625 159.316406 Z M 242.066406 147.5 " fill-opacity="1" fill-rule="evenodd"/></g></g></g></g><g clip-path="url(#2b60c83d8e)"><g clip-path="url(#509ef4f228)"><g clip-path="url(#3d38b432eb)"><g clip-path="url(#a8edd174c9)"><path fill="#000000" d="M 242.472656 147.523438 L 242.386719 157.824219 L 272.867188 155.027344 C 273.089844 155.003906 273.289062 155.167969 273.3125 155.390625 C 273.324219 155.578125 273.214844 155.742188 273.042969 155.8125 L 241.578125 167.03125 L 239.695312 178.3125 C 239.664062 178.542969 239.453125 178.683594 239.226562 178.652344 C 239.164062 178.636719 239.101562 178.621094 239.0625 178.578125 L 239.050781 178.578125 L 232.015625 173.492188 L 219.910156 180.941406 C 219.722656 181.058594 219.46875 181.003906 219.347656 180.804688 C 219.261719 180.675781 219.277344 180.496094 219.367188 180.367188 L 226.613281 168.453125 L 221.097656 161.847656 C 220.957031 161.675781 220.984375 161.421875 221.15625 161.273438 C 221.210938 161.230469 221.269531 161.199219 221.339844 161.191406 L 233.03125 158.941406 L 241.742188 147.253906 C 241.875 147.074219 242.128906 147.03125 242.3125 147.164062 C 242.429688 147.257812 242.484375 147.390625 242.472656 147.523438 Z M 241.574219 158.261719 L 241.65625 148.730469 L 233.601562 159.535156 C 233.539062 159.625 233.453125 159.695312 233.335938 159.710938 L 222.167969 161.859375 L 227.421875 168.15625 C 227.53125 168.285156 227.554688 168.472656 227.453125 168.625 L 220.921875 179.367188 L 231.820312 172.652344 C 231.953125 172.574219 232.132812 172.578125 232.261719 172.667969 L 238.996094 177.546875 L 240.8125 166.683594 C 240.828125 166.539062 240.929688 166.398438 241.078125 166.34375 L 269.742188 156.125 L 242.015625 158.671875 C 242.003906 158.671875 241.992188 158.675781 241.980469 158.675781 C 241.753906 158.679688 241.578125 158.488281 241.574219 158.261719 Z M 241.574219 158.261719 " fill-opacity="1" fill-rule="nonzero"/></g></g></g></g><g clip-path="url(#1da29774cc)"><g clip-path="url(#d38897e22c)"><g clip-path="url(#20b22393cc)"><g clip-path="url(#891a1eca70)"><path fill="#000000" d="M 127.679688 163.074219 L 127.589844 173.847656 L 147.644531 172.003906 L 154.355469 169.605469 L 158.511719 171 L 126.832031 182.300781 L 124.90625 193.828125 L 120.75 192.433594 L 120.992188 191 L 117.636719 188.578125 L 105.300781 196.171875 L 101.144531 194.777344 L 109.152344 189.839844 L 112.71875 183.988281 L 107.019531 177.15625 L 118.875 174.886719 L 127.679688 163.074219 L 123.519531 161.679688 L 123.460938 168.726562 Z M 127.679688 163.074219 " fill-opacity="1" fill-rule="evenodd"/></g></g></g></g><g clip-path="url(#adf65cc08d)"><g clip-path="url(#a8974821e5)"><g clip-path="url(#d14d8aab94)"><g clip-path="url(#a4b2b67c68)"><path fill="#000000" d="M 128.085938 163.09375 L 128 173.394531 L 147.5625 171.597656 L 154.226562 169.230469 C 154.304688 169.199219 154.402344 169.199219 154.488281 169.222656 L 158.644531 170.617188 C 158.855469 170.6875 158.976562 170.917969 158.898438 171.128906 C 158.851562 171.265625 158.757812 171.359375 158.628906 171.386719 L 127.1875 182.601562 L 125.308594 193.898438 C 125.273438 194.113281 125.066406 194.257812 124.835938 194.226562 C 124.8125 194.226562 124.800781 194.21875 124.773438 194.210938 L 120.617188 192.816406 C 120.417969 192.746094 120.296875 192.535156 120.355469 192.339844 L 120.550781 191.183594 L 117.613281 189.0625 L 105.519531 196.511719 C 105.410156 196.585938 105.28125 196.589844 105.167969 196.554688 L 101.023438 195.160156 C 100.800781 195.089844 100.691406 194.855469 100.761719 194.648438 C 100.796875 194.550781 100.871094 194.46875 100.960938 194.421875 L 108.855469 189.542969 L 112.222656 184.027344 L 106.707031 177.417969 C 106.566406 177.246094 106.585938 176.996094 106.757812 176.847656 C 106.824219 176.804688 106.878906 176.773438 106.949219 176.765625 L 118.640625 174.515625 L 123.0625 168.585938 L 123.121094 161.703125 C 123.113281 161.65625 123.117188 161.597656 123.136719 161.546875 C 123.203125 161.328125 123.441406 161.214844 123.652344 161.285156 L 127.808594 162.679688 L 127.8125 162.691406 C 127.847656 162.699219 127.886719 162.71875 127.925781 162.746094 C 128.039062 162.828125 128.09375 162.964844 128.085938 163.09375 Z M 127.183594 173.835938 L 127.265625 164.304688 L 119.210938 175.109375 C 119.152344 175.199219 119.0625 175.269531 118.945312 175.28125 L 107.777344 177.433594 L 113.03125 183.726562 C 113.140625 183.855469 113.152344 184.042969 113.0625 184.195312 L 109.519531 190.03125 C 109.480469 190.09375 109.441406 190.148438 109.375 190.191406 L 102.105469 194.664062 L 105.261719 195.726562 L 117.417969 188.226562 C 117.5625 188.148438 117.742188 188.152344 117.871094 188.242188 L 121.226562 190.664062 C 121.34375 190.757812 121.421875 190.902344 121.390625 191.058594 L 121.203125 192.15625 L 124.582031 193.289062 L 126.421875 182.257812 C 126.441406 182.113281 126.542969 181.96875 126.6875 181.917969 L 157.28125 171.015625 L 154.359375 170.042969 L 147.785156 172.386719 L 147.785156 172.375 C 147.75 172.390625 147.714844 172.394531 147.679688 172.398438 L 127.625 174.242188 C 127.613281 174.246094 127.601562 174.246094 127.589844 174.25 C 127.363281 174.25 127.1875 174.058594 127.183594 173.835938 Z M 123.882812 167.484375 L 127.015625 163.28125 L 123.917969 162.234375 Z M 123.882812 167.484375 " fill-opacity="1" fill-rule="nonzero"/></g></g></g></g><g clip-path="url(#0ab512d319)"><g clip-path="url(#b048b7ff65)"><g clip-path="url(#69cd25bc0e)"><g clip-path="url(#221331b235)"><path fill="#ffff00" d="M 123.519531 161.679688 L 123.429688 172.453125 L 154.355469 169.605469 L 122.671875 180.910156 L 120.75 192.433594 L 113.480469 187.183594 L 101.144531 194.777344 L 108.5625 182.597656 L 102.863281 175.765625 L 114.71875 173.496094 Z M 123.519531 161.679688 " fill-opacity="1" fill-rule="evenodd"/></g></g></g></g><g clip-path="url(#327c897606)"><g clip-path="url(#4d37397be1)"><g clip-path="url(#5fcd7093bb)"><g clip-path="url(#6aa2fda5e4)"><path fill="#000000" d="M 123.925781 161.703125 L 123.839844 172.003906 L 154.320312 169.207031 C 154.542969 169.179688 154.738281 169.347656 154.765625 169.566406 C 154.777344 169.753906 154.664062 169.921875 154.496094 169.988281 L 123.027344 181.210938 L 121.148438 192.492188 C 121.117188 192.722656 120.90625 192.863281 120.675781 192.832031 C 120.617188 192.816406 120.554688 192.800781 120.515625 192.757812 L 120.503906 192.757812 L 113.46875 187.667969 L 101.363281 195.117188 C 101.175781 195.234375 100.917969 195.183594 100.800781 194.984375 C 100.714844 194.855469 100.726562 194.675781 100.820312 194.546875 L 108.066406 182.632812 L 102.546875 176.027344 C 102.410156 175.855469 102.4375 175.601562 102.609375 175.453125 C 102.664062 175.410156 102.71875 175.378906 102.789062 175.371094 L 114.484375 173.121094 L 123.195312 161.433594 C 123.328125 161.253906 123.582031 161.210938 123.765625 161.34375 C 123.882812 161.433594 123.933594 161.570312 123.925781 161.703125 Z M 123.027344 172.441406 L 123.109375 162.910156 L 115.054688 173.714844 C 114.992188 173.804688 114.90625 173.875 114.789062 173.890625 L 103.617188 176.039062 L 108.875 182.335938 C 108.984375 182.464844 109.007812 182.648438 108.90625 182.804688 L 102.375 193.542969 L 113.273438 186.832031 C 113.40625 186.753906 113.585938 186.757812 113.714844 186.847656 L 120.449219 191.726562 L 122.261719 180.863281 C 122.28125 180.71875 122.382812 180.578125 122.53125 180.523438 L 151.195312 170.300781 L 123.464844 172.851562 C 123.453125 172.851562 123.441406 172.855469 123.429688 172.855469 C 123.207031 172.859375 123.027344 172.667969 123.027344 172.441406 Z M 123.027344 172.441406 " fill-opacity="1" fill-rule="nonzero"/></g></g></g></g></svg>