<?xml version="1.0" encoding="iso-8859-1"?>
<!-- Generator: Adobe Illustrator 22.1.0, SVG Export Plug-In . SVG Version: 6.00 Build 0)  -->
<svg version="1.1" id="Layer_1" xmlns="http://www.w3.org/2000/svg" xmlns:xlink="http://www.w3.org/1999/xlink" x="0px" y="0px"
	 viewBox="0 0 48 48" style="enable-background:new 0 0 48 48;" xml:space="preserve">
<path style="fill:#F48FB1;" d="M45.516,17.247l-35.462-6.202c-1.63-0.285-3.187,0.809-3.472,2.438L3.826,29.244
	c-0.285,1.63,0.809,3.187,2.438,3.472l35.462,6.202c1.63,0.285,3.187-0.809,3.472-2.438l2.756-15.761
	C48.24,19.089,47.146,17.532,45.516,17.247z"/>
<path style="fill:#D81B60;" d="M41.726,38.918l-13.791-2.412l3.79-21.671l13.791,2.412c1.632,0.285,2.724,1.84,2.438,3.472
	L45.198,36.48C44.913,38.112,43.358,39.203,41.726,38.918z"/>
<rect x="31.538" y="14.992" transform="matrix(0.985 0.1723 -0.1723 0.985 3.2415 -5.3663)" style="fill:#E91E63;" width="2" height="2"/>
<rect x="30.849" y="18.933" transform="matrix(0.985 0.1723 -0.1723 0.985 3.9099 -5.1887)" style="fill:#E91E63;" width="2" height="2"/>
<rect x="30.16" y="22.873" transform="matrix(0.985 0.1723 -0.1723 0.985 4.5784 -5.0111)" style="fill:#E91E63;" width="2" height="2"/>
<rect x="29.471" y="26.813" transform="matrix(0.985 0.1723 -0.1723 0.985 5.2469 -4.8335)" style="fill:#E91E63;" width="2" height="2"/>
<rect x="28.093" y="34.693" transform="matrix(0.985 0.1723 -0.1723 0.985 6.5839 -4.4782)" style="fill:#AD1457;" width="2" height="2"/>
<rect x="28.782" y="30.753" transform="matrix(0.985 0.1723 -0.1723 0.985 5.9154 -4.6558)" style="fill:#AD1457;" width="2" height="2"/>
<path style="fill:#F8BBD0;" d="M27,9H3c-1.654,0-3,1.346-3,3v16c0,1.654,1.346,3,3,3h24V9z"/>
<path style="fill:#FF4081;" d="M39,31H25V9h14c1.657,0,3,1.343,3,3v16C42,29.657,40.657,31,39,31z"/>
<path style="fill:#F8BBD0;" d="M30,21h8v2h-8V21z"/>
<path style="fill:#F8BBD0;" d="M30,17h3v2h-3V17z"/>
<path style="fill:#F8BBD0;" d="M35,17h3v2h-3V17z"/>
<path style="fill:#F8BBD0;" d="M30,25h3v2h-3V25z"/>
<path style="fill:#F8BBD0;" d="M35,25h3v2h-3V25z"/>
<path style="fill:#F8BBD0;" d="M30,13h8v2h-8V13z"/>
<circle style="fill:#FF4081;" cx="9" cy="18" r="4"/>
<polygon style="fill:#FF4081;" points="12.5,17.904 6.15,20.85 12.5,27 18.85,20.85 "/>
<circle style="fill:#FF4081;" cx="16" cy="18" r="4"/>
<rect x="25" y="9" style="fill:#E91E63;" width="2" height="2"/>
<rect x="25" y="13" style="fill:#E91E63;" width="2" height="2"/>
<rect x="25" y="17" style="fill:#E91E63;" width="2" height="2"/>
<rect x="25" y="21" style="fill:#E91E63;" width="2" height="2"/>
<rect x="25" y="29" style="fill:#E91E63;" width="2" height="2"/>
<rect x="25" y="25" style="fill:#E91E63;" width="2" height="2"/>
</svg>