<?xml version="1.0" encoding="iso-8859-1"?>
<!-- Generator: Adobe Illustrator 24.1.0, SVG Export Plug-In . SVG Version: 6.00 Build 0)  -->
<svg version="1.1" id="Layer_1" xmlns="http://www.w3.org/2000/svg" xmlns:xlink="http://www.w3.org/1999/xlink" x="0px" y="0px"
	 viewBox="0 0 48 48" style="enable-background:new 0 0 48 48;" xml:space="preserve">
<linearGradient id="SVGID_1_" gradientUnits="userSpaceOnUse" x1="4" y1="12.5" x2="44" y2="12.5">
	<stop  offset="0.1762" style="stop-color:#CDCDCD"/>
	<stop  offset="0.2439" style="stop-color:#B5B5B5"/>
	<stop  offset="0.2735" style="stop-color:#B5B5B5"/>
	<stop  offset="0.3081" style="stop-color:#BDBDBD"/>
	<stop  offset="0.3486" style="stop-color:#CDCDCD"/>
	<stop  offset="0.6384" style="stop-color:#CDCDCD"/>
	<stop  offset="0.6677" style="stop-color:#C5C5C5"/>
	<stop  offset="0.7022" style="stop-color:#B5B5B5"/>
	<stop  offset="0.7598" style="stop-color:#B5B5B5"/>
	<stop  offset="0.7798" style="stop-color:#BDBDBD"/>
	<stop  offset="0.8033" style="stop-color:#CDCDCD"/>
</linearGradient>
<rect x="4" y="11" style="fill:url(#SVGID_1_);" width="40" height="3"/>
<linearGradient id="SVGID_2_" gradientUnits="userSpaceOnUse" x1="6.4376" y1="-0.4988" x2="25.7066" y2="29.4464">
	<stop  offset="0" style="stop-color:#FCFCFC"/>
	<stop  offset="0.4953" style="stop-color:#F4F4F4"/>
	<stop  offset="0.9464" style="stop-color:#E8E8E8"/>
	<stop  offset="1" style="stop-color:#E8E8E8"/>
</linearGradient>
<path style="fill:url(#SVGID_2_);" d="M42,41H6c-1.105,0-2-0.895-2-2V14h40v25C44,40.105,43.105,41,42,41z"/>
<polygon style="fill:#F2F2F2;" points="16,1 13,4 13,14 16,14 "/>
<polygon style="fill:#F2F2F2;" points="32,1 35,4 35,14 32,14 "/>
<rect x="16" y="1" style="fill:#CCCCCC;" width="16" height="3"/>
<rect x="17" y="20" style="fill:#F25022;" width="6.5" height="6.5"/>
<rect x="24.5" y="20" style="fill:#7FBA00;" width="6.5" height="6.5"/>
<rect x="17" y="27.5" style="fill:#00A4EF;" width="6.5" height="6.5"/>
<rect x="24.5" y="27.5" style="fill:#FFB900;" width="6.5" height="6.5"/>
<linearGradient id="SVGID_3_" gradientUnits="userSpaceOnUse" x1="24" y1="37.9561" x2="24" y2="41.2103">
	<stop  offset="0" style="stop-color:#E8E8E8"/>
	<stop  offset="0.3315" style="stop-color:#E0E0E0"/>
	<stop  offset="0.8476" style="stop-color:#CACACA"/>
	<stop  offset="1" style="stop-color:#C2C2C2"/>
</linearGradient>
<path style="fill:url(#SVGID_3_);" d="M42,41H6c-1.105,0-2-0.895-2-2v-1h40v1C44,40.105,43.105,41,42,41z"/>
</svg>