<?xml version="1.0" encoding="UTF-8"?>
<!DOCTYPE svg PUBLIC "-//W3C//DTD SVG 1.1//EN" "http://www.w3.org/Graphics/SVG/1.1/DTD/svg11.dtd">
<svg xmlns="http://www.w3.org/2000/svg" version="1.1" width="1597px" height="543px" style="shape-rendering:geometricPrecision; text-rendering:geometricPrecision; image-rendering:optimizeQuality; fill-rule:evenodd; clip-rule:evenodd" xmlns:xlink="http://www.w3.org/1999/xlink">
<g><path style="opacity:1" fill="#e00e74" d="M 1214.5,33.5 C 1212.97,33.427 1211.97,34.0937 1211.5,35.5C 1202.87,42.6401 1192.87,46.8068 1181.5,48C 1162.1,50.0527 1142.77,49.5527 1123.5,46.5C 1114.35,45.5064 1105.01,45.1731 1095.5,45.5C 1095.5,46.8333 1095.5,48.1667 1095.5,49.5C 1094.3,66.2175 1087.97,80.5508 1076.5,92.5C 1075.09,92.9731 1074.43,93.9731 1074.5,95.5C 1060.88,110.488 1044.55,114.321 1025.5,107C 1013.39,97.4091 1009.89,85.2424 1015,70.5C 1016.44,66.5891 1018.61,63.2558 1021.5,60.5C 1022.91,60.0269 1023.57,59.0269 1023.5,57.5C 1025.5,54.8333 1027.83,52.5 1030.5,50.5C 1032.03,50.573 1033.03,49.9063 1033.5,48.5C 1033.5,47.8333 1033.83,47.5 1034.5,47.5C 1036.03,47.573 1037.03,46.9063 1037.5,45.5C 1039.03,45.573 1040.03,44.9063 1040.5,43.5C 1040.84,42.6618 1041.51,42.3284 1042.5,42.5C 1044.03,42.573 1045.03,41.9063 1045.5,40.5C 1052.55,36.1491 1060.22,33.1491 1068.5,31.5C 1069.98,31.762 1071.31,31.4287 1072.5,30.5C 1072.38,29.8933 1072.04,29.56 1071.5,29.5C 1067.61,25.4229 1067.61,21.4229 1071.5,17.5C 1073.03,17.573 1074.03,16.9063 1074.5,15.5C 1077.3,14.3622 1080.3,14.1955 1083.5,15C 1085.58,15.6972 1087.25,16.8639 1088.5,18.5C 1088.43,20.0269 1089.09,21.0269 1090.5,21.5C 1091.96,22.4057 1092.96,23.739 1093.5,25.5C 1094.83,25.8333 1096.17,26.1667 1097.5,26.5C 1101.15,26.0248 1104.82,25.6914 1108.5,25.5C 1126.5,26.8936 1144.5,28.227 1162.5,29.5C 1173.14,29.5461 1183.47,27.8795 1193.5,24.5C 1195.03,24.573 1196.03,23.9063 1196.5,22.5C 1198.03,22.573 1199.03,21.9063 1199.5,20.5C 1200.83,18.5 1202.5,16.8333 1204.5,15.5C 1205.91,15.0269 1206.57,14.0269 1206.5,12.5C 1208.3,9.59745 1210.97,8.26412 1214.5,8.5C 1222.45,9.28725 1225.62,13.6206 1224,21.5C 1221.54,26.1155 1218.37,30.1155 1214.5,33.5 Z M 1071.5,50.5 C 1072.49,50.3284 1073.16,50.6618 1073.5,51.5C 1071.28,60.6114 1067.94,69.278 1063.5,77.5C 1062.09,77.9731 1061.43,78.9731 1061.5,80.5C 1060.83,80.5 1060.5,80.8333 1060.5,81.5C 1058.17,83.1667 1056.17,85.1667 1054.5,87.5C 1053.83,87.5 1053.5,87.8333 1053.5,88.5C 1051.97,88.427 1050.97,89.0937 1050.5,90.5C 1038.8,92.9646 1034.3,88.2979 1037,76.5C 1040.78,69.0515 1046.28,63.2182 1053.5,59C 1059.44,55.8618 1065.44,53.0285 1071.5,50.5 Z"/></g>
<g><path style="opacity:0.514" fill="#390a1f" d="M 1206.5,12.5 C 1206.57,14.0269 1205.91,15.0269 1204.5,15.5C 1204.43,13.9731 1205.09,12.9731 1206.5,12.5 Z"/></g>
<g><path style="opacity:0.933" fill="#621334" d="M 1074.5,15.5 C 1074.03,16.9063 1073.03,17.573 1071.5,17.5C 1071.97,16.0937 1072.97,15.427 1074.5,15.5 Z"/></g>
<g><path style="opacity:1" fill="#dd0e73" d="M 1424.5,19.5 C 1424.43,21.0269 1425.09,22.0269 1426.5,22.5C 1427.65,26.0535 1427.49,29.7202 1426,33.5C 1418.93,52.4506 1413.1,71.784 1408.5,91.5C 1407.83,91.5 1407.5,91.8333 1407.5,92.5C 1406.43,93.2506 1406.26,94.2506 1407,95.5C 1408.48,94.5291 1409.31,93.1958 1409.5,91.5C 1409.83,90.5 1410.5,89.8333 1411.5,89.5C 1412.91,89.0269 1413.57,88.0269 1413.5,86.5C 1414.5,84.8333 1415.83,83.5 1417.5,82.5C 1419.17,81.5 1420.5,80.1667 1421.5,78.5C 1431.28,66.2968 1443.28,63.4635 1457.5,70C 1464.99,76.1482 1467.49,83.9816 1465,93.5C 1461.29,105.262 1457.29,116.929 1453,128.5C 1451.33,133.81 1451.17,139.143 1452.5,144.5C 1452.5,146.5 1453.5,147.5 1455.5,147.5C 1458.33,147.416 1460.99,146.75 1463.5,145.5C 1465.03,145.573 1466.03,144.906 1466.5,143.5C 1467.17,142.167 1468.17,141.167 1469.5,140.5C 1470.91,140.027 1471.57,139.027 1471.5,137.5C 1479.41,127.443 1484.24,116.109 1486,103.5C 1487.73,97.7138 1490.23,92.3804 1493.5,87.5C 1494.91,87.0269 1495.57,86.0269 1495.5,84.5C 1495.74,82.5956 1496.74,81.2623 1498.5,80.5C 1499.91,80.0269 1500.57,79.0269 1500.5,77.5C 1503.17,74.1667 1506.17,71.1667 1509.5,68.5C 1511.03,68.573 1512.03,67.9063 1512.5,66.5C 1512.5,65.8333 1512.83,65.5 1513.5,65.5C 1515.03,65.573 1516.03,64.9063 1516.5,63.5C 1527.18,55.6638 1539.18,52.8304 1552.5,55C 1564.32,58.4593 1569.15,66.2926 1567,78.5C 1563.74,87.0941 1558.24,93.9274 1550.5,99C 1537.75,107.973 1523.75,114.139 1508.5,117.5C 1507.71,126.443 1511.38,132.609 1519.5,136C 1532.89,137.735 1545.23,134.902 1556.5,127.5C 1558.03,127.573 1559.03,126.906 1559.5,125.5C 1562.46,122.036 1565.63,118.703 1569,115.5C 1572.53,109.769 1576.03,104.103 1579.5,98.5C 1580.91,98.0269 1581.57,97.0269 1581.5,95.5C 1584.94,93.042 1588.61,92.8754 1592.5,95C 1595.19,97.6534 1596.03,100.82 1595,104.5C 1576.1,143.112 1545.77,158.779 1504,151.5C 1500.19,150.356 1497.03,148.356 1494.5,145.5C 1493.83,144.167 1492.83,143.167 1491.5,142.5C 1490.54,142.047 1489.71,141.381 1489,140.5C 1487.96,141.71 1486.79,142.71 1485.5,143.5C 1484.09,143.973 1483.43,144.973 1483.5,146.5C 1473.96,158.269 1461.63,163.436 1446.5,162C 1433.67,156.853 1428.17,147.353 1430,133.5C 1433.73,119.985 1438.06,106.652 1443,93.5C 1443.5,90.5184 1443.66,87.5184 1443.5,84.5C 1442.85,83.2749 1441.68,82.6083 1440,82.5C 1438.62,82.5143 1437.45,82.8476 1436.5,83.5C 1430.9,87.765 1425.56,92.4317 1420.5,97.5C 1419.09,97.9731 1418.43,98.9731 1418.5,100.5C 1403.82,120.551 1393.98,142.884 1389,167.5C 1385.6,171.203 1381.44,172.369 1376.5,171C 1374.68,170.34 1373.34,169.173 1372.5,167.5C 1372.72,166.325 1372.39,165.325 1371.5,164.5C 1370.89,164.624 1370.56,164.957 1370.5,165.5C 1361.23,174.195 1350.23,177.361 1337.5,175C 1333.65,173.914 1330.32,172.081 1327.5,169.5C 1327.57,167.973 1326.91,166.973 1325.5,166.5C 1323.86,165.251 1322.7,163.584 1322,161.5C 1319.15,148.807 1319.48,136.14 1323,123.5C 1325.04,114.333 1327.54,105.333 1330.5,96.5C 1331.04,96.44 1331.38,96.1067 1331.5,95.5C 1327.22,94.5078 1322.88,94.1744 1318.5,94.5C 1314.96,91.0503 1314.63,87.217 1317.5,83C 1323.65,80.9385 1329.98,79.7718 1336.5,79.5C 1339.36,70.0903 1342.53,60.7569 1346,51.5C 1347.36,48.1019 1349.19,45.1019 1351.5,42.5C 1352.91,42.0269 1353.57,41.0269 1353.5,39.5C 1357.73,34.2967 1362.73,33.2967 1368.5,36.5C 1368.43,38.0269 1369.09,39.0269 1370.5,39.5C 1371.63,41.9664 1371.8,44.633 1371,47.5C 1367.17,56.1424 1363.67,64.809 1360.5,73.5C 1357.7,77.3981 1358.7,78.3981 1363.5,76.5C 1368.76,74.4294 1373.26,75.4294 1377,79.5C 1378.51,85.3239 1376.34,88.8239 1370.5,90C 1365.54,90.9122 1360.54,91.4122 1355.5,91.5C 1354.17,91.5 1353.5,92.1667 1353.5,93.5C 1350.03,105.736 1346.87,118.07 1344,130.5C 1342.56,138.452 1342.22,146.452 1343,154.5C 1343.85,158.512 1346.35,160.512 1350.5,160.5C 1353.03,160.237 1355.36,159.404 1357.5,158C 1359.7,155.628 1362.04,153.461 1364.5,151.5C 1365.91,151.027 1366.57,150.027 1366.5,148.5C 1366.5,147.833 1366.83,147.5 1367.5,147.5C 1368.91,147.027 1369.57,146.027 1369.5,144.5C 1371.92,139.333 1374.58,134.333 1377.5,129.5C 1379.16,127.562 1379.83,125.228 1379.5,122.5C 1387.06,90.2651 1395.56,58.2651 1405,26.5C 1409.48,18.0636 1415.98,15.7303 1424.5,19.5 Z M 1542.5,69.5 C 1544.23,71.8201 1544.89,74.4867 1544.5,77.5C 1543.89,78.391 1543.56,79.391 1543.5,80.5C 1542.09,80.9731 1541.43,81.9731 1541.5,83.5C 1533.31,91.7671 1523.64,97.7671 1512.5,101.5C 1511.51,101.672 1510.84,101.338 1510.5,100.5C 1514.01,90.6714 1519.68,82.1714 1527.5,75C 1531.89,71.4824 1536.89,69.6491 1542.5,69.5 Z"/></g>
<g><path style="opacity:0.537" fill="#400c22" d="M 1088.5,18.5 C 1089.91,18.9731 1090.57,19.9731 1090.5,21.5C 1089.09,21.0269 1088.43,20.0269 1088.5,18.5 Z"/></g>
<g><path style="opacity:0.843" fill="#591030" d="M 1199.5,20.5 C 1199.03,21.9063 1198.03,22.573 1196.5,22.5C 1196.97,21.0937 1197.97,20.427 1199.5,20.5 Z"/></g>
<g><path style="opacity:0.384" fill="#330c1c" d="M 1424.5,19.5 C 1425.91,19.9731 1426.57,20.9731 1426.5,22.5C 1425.09,22.0269 1424.43,21.0269 1424.5,19.5 Z"/></g>
<g><path style="opacity:0.878" fill="#581130" d="M 1196.5,22.5 C 1196.03,23.9063 1195.03,24.573 1193.5,24.5C 1193.97,23.0937 1194.97,22.427 1196.5,22.5 Z"/></g>
<g><path style="opacity:0.631" fill="#390a1f" d="M 1071.5,29.5 C 1072.04,29.56 1072.38,29.8933 1072.5,30.5C 1071.31,31.4287 1069.98,31.762 1068.5,31.5C 1069.5,30.8333 1070.5,30.1667 1071.5,29.5 Z"/></g>
<g><path style="opacity:0.004" fill="#1b040d" d="M 1214.5,33.5 C 1214.03,34.9063 1213.03,35.573 1211.5,35.5C 1211.97,34.0937 1212.97,33.427 1214.5,33.5 Z"/></g>
<g><path style="opacity:0.502" fill="#470d26" d="M 1368.5,36.5 C 1369.91,36.9731 1370.57,37.9731 1370.5,39.5C 1369.09,39.0269 1368.43,38.0269 1368.5,36.5 Z"/></g>
<g><path style="opacity:0.922" fill="#5d1432" d="M 1045.5,40.5 C 1045.03,41.9063 1044.03,42.573 1042.5,42.5C 1042.97,41.0937 1043.97,40.427 1045.5,40.5 Z"/></g>
<g><path style="opacity:0.596" fill="#520f2c" d="M 1353.5,39.5 C 1353.57,41.0269 1352.91,42.0269 1351.5,42.5C 1351.43,40.9731 1352.09,39.9731 1353.5,39.5 Z"/></g>
<g><path style="opacity:0.894" fill="#5c1131" d="M 1040.5,43.5 C 1040.03,44.9063 1039.03,45.573 1037.5,45.5C 1037.97,44.0937 1038.97,43.427 1040.5,43.5 Z"/></g>
<g><path style="opacity:0.041" fill="#0e0106" d="M 1123.5,46.5 C 1114.5,46.5 1105.5,46.5 1096.5,46.5C 1096.74,47.791 1096.4,48.791 1095.5,49.5C 1095.5,48.1667 1095.5,46.8333 1095.5,45.5C 1105.01,45.1731 1114.35,45.5064 1123.5,46.5 Z"/></g>
<g><path style="opacity:0.91" fill="#601133" d="M 1037.5,45.5 C 1037.03,46.9063 1036.03,47.573 1034.5,47.5C 1034.97,46.0937 1035.97,45.427 1037.5,45.5 Z"/></g>
<g><path style="opacity:0.812" fill="#55102e" d="M 1033.5,48.5 C 1033.03,49.9063 1032.03,50.573 1030.5,50.5C 1030.97,49.0937 1031.97,48.427 1033.5,48.5 Z"/></g>
<g><path style="opacity:0.294" fill="#33091c" d="M 1071.5,50.5 C 1072.39,49.2241 1073.39,49.2241 1074.5,50.5C 1074.38,51.1067 1074.04,51.44 1073.5,51.5C 1073.16,50.6618 1072.49,50.3284 1071.5,50.5 Z"/></g>
<g><path style="opacity:1" fill="#de0e73" d="M 991.5,202.5 C 990.089,200.086 988.089,198.419 985.5,197.5C 969.41,181.224 962.743,161.891 965.5,139.5C 966.906,139.027 967.573,138.027 967.5,136.5C 969.027,136.573 970.027,135.906 970.5,134.5C 973.228,132.924 976.228,132.424 979.5,133C 992.86,138.787 1006.53,143.787 1020.5,148C 1030.33,150.69 1040.33,152.356 1050.5,153C 1052.29,153.785 1053.79,154.951 1055,156.5C 1055.67,159.5 1055.67,162.5 1055,165.5C 1054.62,166.056 1054.12,166.389 1053.5,166.5C 1052.5,166.833 1051.83,167.5 1051.5,168.5C 1051.08,169.222 1050.42,169.722 1049.5,170C 1028.53,170.705 1008.53,166.871 989.5,158.5C 988.791,157.596 987.791,157.263 986.5,157.5C 986.263,158.791 986.596,159.791 987.5,160.5C 990.296,166.755 993.629,172.755 997.5,178.5C 997.427,180.027 998.094,181.027 999.5,181.5C 1001.17,182.5 1002.5,183.833 1003.5,185.5C 1003.97,186.906 1004.97,187.573 1006.5,187.5C 1027.65,203.176 1049.65,204.509 1072.5,191.5C 1074.4,191.262 1075.74,190.262 1076.5,188.5C 1076.5,187.833 1076.83,187.5 1077.5,187.5C 1079.26,186.738 1080.26,185.404 1080.5,183.5C 1087.2,173.753 1092.04,163.086 1095,151.5C 1098.42,131.783 1102.09,112.116 1106,92.5C 1108.43,84.0012 1112.26,76.3345 1117.5,69.5C 1118.91,69.0269 1119.57,68.0269 1119.5,66.5C 1124.65,58.4226 1131.99,54.9226 1141.5,56C 1145.86,58.2258 1147.36,61.7258 1146,66.5C 1138.28,74.5579 1132.62,83.8912 1129,94.5C 1124.91,116.874 1120.58,139.208 1116,161.5C 1102.41,205.723 1072.58,224.89 1026.5,219C 1013.2,216.682 1001.54,211.182 991.5,202.5 Z"/></g>
<g><path style="opacity:0.741" fill="#6c1339" d="M 1023.5,57.5 C 1023.57,59.0269 1022.91,60.0269 1021.5,60.5C 1021.43,58.9731 1022.09,57.9731 1023.5,57.5 Z"/></g>
<g><path style="opacity:0.929" fill="#641236" d="M 1516.5,63.5 C 1516.03,64.9063 1515.03,65.573 1513.5,65.5C 1513.97,64.0937 1514.97,63.427 1516.5,63.5 Z"/></g>
<g><path style="opacity:0.914" fill="#6c1339" d="M 1512.5,66.5 C 1512.03,67.9063 1511.03,68.573 1509.5,68.5C 1509.97,67.0937 1510.97,66.427 1512.5,66.5 Z"/></g>
<g><path style="opacity:0.604" fill="#520f2b" d="M 1119.5,66.5 C 1119.57,68.0269 1118.91,69.0269 1117.5,69.5C 1117.43,67.9731 1118.09,66.9731 1119.5,66.5 Z"/></g>
<g><path style="opacity:0.064" fill="#1a060e" d="M 1542.5,69.5 C 1543.5,69.4142 1544.33,69.7476 1545,70.5C 1545.8,73.0385 1545.63,75.3718 1544.5,77.5C 1544.89,74.4867 1544.23,71.8201 1542.5,69.5 Z"/></g>
<g><path style="opacity:0.231" fill="#230714" d="M 1360.5,73.5 C 1360.5,74.5 1360.5,75.5 1360.5,76.5C 1361.5,76.5 1362.5,76.5 1363.5,76.5C 1358.7,78.3981 1357.7,77.3981 1360.5,73.5 Z"/></g>
<g><path style="opacity:0.478" fill="#410c23" d="M 1063.5,77.5 C 1063.57,79.0269 1062.91,80.0269 1061.5,80.5C 1061.43,78.9731 1062.09,77.9731 1063.5,77.5 Z"/></g>
<g><path style="opacity:0.624" fill="#57102e" d="M 1500.5,77.5 C 1500.57,79.0269 1499.91,80.0269 1498.5,80.5C 1498.43,78.9731 1499.09,77.9731 1500.5,77.5 Z"/></g>
<g><path style="opacity:0.592" fill="#370a1e" d="M 1421.5,78.5 C 1420.5,80.1667 1419.17,81.5 1417.5,82.5C 1417.83,80.1667 1419.17,78.8333 1421.5,78.5 Z"/></g>
<g><path style="opacity:0.055" fill="#19060d" d="M 1436.5,83.5 C 1437.45,82.8476 1438.62,82.5143 1440,82.5C 1441.68,82.6083 1442.85,83.2749 1443.5,84.5C 1441.28,83.6314 1438.95,83.298 1436.5,83.5 Z"/></g>
<g><path style="opacity:0.443" fill="#350a1c" d="M 1543.5,80.5 C 1543.57,82.0269 1542.91,83.0269 1541.5,83.5C 1541.43,81.9731 1542.09,80.9731 1543.5,80.5 Z"/></g>
<g><path style="opacity:0.659" fill="#50102a" d="M 1060.5,81.5 C 1059.5,84.5 1057.5,86.5 1054.5,87.5C 1056.17,85.1667 1058.17,83.1667 1060.5,81.5 Z"/></g>
<g><path style="opacity:0.353" fill="#320e1c" d="M 1495.5,84.5 C 1495.57,86.0269 1494.91,87.0269 1493.5,87.5C 1493.43,85.9731 1494.09,84.9731 1495.5,84.5 Z"/></g>
<g><path style="opacity:0.667" fill="#5a1030" d="M 1413.5,86.5 C 1413.57,88.0269 1412.91,89.0269 1411.5,89.5C 1411.43,87.9731 1412.09,86.9731 1413.5,86.5 Z"/></g>
<g><path style="opacity:0.89" fill="#591230" d="M 1053.5,88.5 C 1053.03,89.9063 1052.03,90.573 1050.5,90.5C 1050.97,89.0937 1051.97,88.427 1053.5,88.5 Z"/></g>
<g><path style="opacity:0.086" fill="#0f0005" d="M 1355.5,91.5 C 1355.17,92.5 1354.5,93.1667 1353.5,93.5C 1353.5,92.1667 1354.17,91.5 1355.5,91.5 Z"/></g>
<g><path style="opacity:0.008" fill="#2a0d18" d="M 1076.5,92.5 C 1076.57,94.0269 1075.91,95.0269 1074.5,95.5C 1074.43,93.9731 1075.09,92.9731 1076.5,92.5 Z"/></g>
<g><path style="opacity:0.278" fill="#300c1b" d="M 1408.5,91.5 C 1408.83,91.5 1409.17,91.5 1409.5,91.5C 1409.31,93.1958 1408.48,94.5291 1407,95.5C 1406.26,94.2506 1406.43,93.2506 1407.5,92.5C 1408.17,92.5 1408.5,92.1667 1408.5,91.5 Z"/></g>
<g><path style="opacity:0.077" fill="#240b15" d="M 1318.5,94.5 C 1322.88,94.1744 1327.22,94.5078 1331.5,95.5C 1331.38,96.1067 1331.04,96.44 1330.5,96.5C 1326.5,95.8333 1322.5,95.1667 1318.5,94.5 Z"/></g>
<g><path style="opacity:1" fill="#dd0e73" d="M 1229.5,105.5 C 1229.43,107.027 1230.09,108.027 1231.5,108.5C 1234.56,111.824 1236.4,115.824 1237,120.5C 1239.23,136.184 1236.07,150.517 1227.5,163.5C 1226.96,163.56 1226.62,163.893 1226.5,164.5C 1228.64,165.793 1230.64,165.793 1232.5,164.5C 1235.54,163.483 1238.54,162.149 1241.5,160.5C 1243.03,160.573 1244.03,159.906 1244.5,158.5C 1245.17,157.167 1246.17,156.167 1247.5,155.5C 1248.91,155.027 1249.57,154.027 1249.5,152.5C 1252.65,146.861 1255.82,141.194 1259,135.5C 1263.94,131.631 1268.61,131.964 1273,136.5C 1274.37,138.695 1274.71,141.029 1274,143.5C 1262.88,168.982 1243.38,181.149 1215.5,180C 1201.13,194.235 1184.13,198.902 1164.5,194C 1162.27,193.059 1160.27,191.892 1158.5,190.5C 1158.03,189.094 1157.03,188.427 1155.5,188.5C 1152.11,186.275 1149.61,183.275 1148,179.5C 1141.49,159.918 1144.32,141.918 1156.5,125.5C 1157.91,125.027 1158.57,124.027 1158.5,122.5C 1158.5,121.833 1158.83,121.5 1159.5,121.5C 1160.91,121.027 1161.57,120.027 1161.5,118.5C 1175.14,101.342 1192.81,94.1754 1214.5,97C 1220.46,98.3102 1225.46,101.144 1229.5,105.5 Z M 1197.5,112.5 C 1204.13,111.231 1208.96,113.564 1212,119.5C 1214.47,132.062 1213.64,144.396 1209.5,156.5C 1200.72,157.753 1197.39,162.587 1199.5,171C 1192.95,179.191 1184.95,181.191 1175.5,177C 1173.62,175.457 1172.12,173.624 1171,171.5C 1166.99,149.866 1173.16,131.699 1189.5,117C 1192.19,115.395 1194.86,113.895 1197.5,112.5 Z"/></g>
<g><path style="opacity:0.58" fill="#4d0e29" d="M 1581.5,95.5 C 1581.57,97.0269 1580.91,98.0269 1579.5,98.5C 1579.43,96.9731 1580.09,95.9731 1581.5,95.5 Z"/></g>
<g><path style="opacity:0.004" fill="#260b16" d="M 1420.5,97.5 C 1420.57,99.0269 1419.91,100.027 1418.5,100.5C 1418.43,98.9731 1419.09,97.9731 1420.5,97.5 Z"/></g>
<g><path style="opacity:0.298" fill="#220913" d="M 1510.5,100.5 C 1510.84,101.338 1511.51,101.672 1512.5,101.5C 1509.81,104.374 1509.14,104.041 1510.5,100.5 Z"/></g>
<g><path style="opacity:0.549" fill="#440c25" d="M 1229.5,105.5 C 1230.91,105.973 1231.57,106.973 1231.5,108.5C 1230.09,108.027 1229.43,107.027 1229.5,105.5 Z"/></g>
<g><path style="opacity:1" fill="#e00e74" d="M 253.5,299.5 C 252.094,299.973 251.427,300.973 251.5,302.5C 249.973,302.427 248.973,303.094 248.5,304.5C 236.197,317.102 221.197,322.269 203.5,320C 199.771,319.156 196.437,317.656 193.5,315.5C 193.027,314.094 192.027,313.427 190.5,313.5C 189.5,313.167 188.833,312.5 188.5,311.5C 187.833,310.167 186.833,309.167 185.5,308.5C 179.45,302.064 175.784,294.398 174.5,285.5C 174.785,283.712 174.452,282.045 173.5,280.5C 172.893,280.624 172.56,280.957 172.5,281.5C 162.511,301.992 147.511,317.825 127.5,329C 114.63,334.534 101.63,334.867 88.5,330C 85.7339,328.629 83.4006,326.796 81.5,324.5C 80.5,322.833 79.1667,321.5 77.5,320.5C 72.891,316.223 70.0577,310.89 69,304.5C 68.6227,300.981 68.1227,297.481 67.5,294C 68.7,283.066 71.5333,272.566 76,262.5C 86.3486,244.136 95.3486,225.136 103,205.5C 106.743,195.207 106.243,185.207 101.5,175.5C 101.238,173.436 100.071,172.103 98,171.5C 97.5172,172.448 97.3505,173.448 97.5,174.5C 92.216,201.578 78.8827,223.744 57.5,241C 44.3492,249.63 30.6826,250.63 16.5,244C 4.82173,232.45 1.98839,218.95 8,203.5C 9.77442,198.93 12.2744,194.93 15.5,191.5C 16.9063,191.027 17.573,190.027 17.5,188.5C 17.8333,187.5 18.5,186.833 19.5,186.5C 21.2624,185.738 22.2624,184.404 22.5,182.5C 23.5,180.833 24.8333,179.5 26.5,178.5C 28.4044,178.262 29.7377,177.262 30.5,175.5C 31.8908,173.11 33.8908,171.443 36.5,170.5C 38.0269,170.573 39.0269,169.906 39.5,168.5C 41.0269,168.573 42.0269,167.906 42.5,166.5C 44.0269,166.573 45.0269,165.906 45.5,164.5C 54.007,158.884 63.3403,155.217 73.5,153.5C 74.9778,153.762 76.3112,153.429 77.5,152.5C 77.3764,151.893 77.0431,151.56 76.5,151.5C 75.6806,148.239 74.1806,145.239 72,142.5C 71.6375,135.35 75.1375,131.35 82.5,130.5C 92.8713,133.545 98.2046,140.545 98.5,151.5C 99.1834,153.176 100.517,153.843 102.5,153.5C 120.03,158.683 129.03,170.516 129.5,189C 129.022,196.704 127.522,204.204 125,211.5C 117.136,230.227 108.469,248.56 99,266.5C 95.4948,274.846 93.3281,283.512 92.5,292.5C 92.7389,297.363 93.7389,302.03 95.5,306.5C 95.5,308.5 96.5,309.5 98.5,309.5C 102.135,312.322 106.301,313.655 111,313.5C 115.67,313.22 120.17,312.22 124.5,310.5C 126.027,310.573 127.027,309.906 127.5,308.5C 131.807,304.528 136.141,300.528 140.5,296.5C 142.262,295.738 143.262,294.404 143.5,292.5C 143.5,291.833 143.833,291.5 144.5,291.5C 145.906,291.027 146.573,290.027 146.5,288.5C 147.906,288.027 148.573,287.027 148.5,285.5C 161.698,263.098 172.198,239.432 180,214.5C 184.333,200.167 188.667,185.833 193,171.5C 194.172,167.142 196.339,163.475 199.5,160.5C 201.167,159.5 202.5,158.167 203.5,156.5C 207.135,153.935 210.801,153.935 214.5,156.5C 214.427,158.027 215.094,159.027 216.5,159.5C 217.222,159.918 217.722,160.584 218,161.5C 218.689,167.882 218.355,174.215 217,180.5C 211.272,195.683 205.939,211.016 201,226.5C 196.047,242.839 194.38,259.506 196,276.5C 196.573,282.129 198.073,287.463 200.5,292.5C 201.167,295.167 202.833,296.833 205.5,297.5C 213.317,301.567 220.983,301.234 228.5,296.5C 230.027,296.573 231.027,295.906 231.5,294.5C 232.5,292.833 233.833,291.5 235.5,290.5C 237.262,289.738 238.262,288.404 238.5,286.5C 238.5,285.833 238.833,285.5 239.5,285.5C 240.906,285.027 241.573,284.027 241.5,282.5C 265.778,246.506 280.278,206.839 285,163.5C 285.667,156.5 285.667,149.5 285,142.5C 283.375,137.602 282.709,132.602 283,127.5C 289.541,117.863 296.874,117.196 305,125.5C 306,127.5 307,129.5 308,131.5C 311.6,159.379 308.934,186.712 300,213.5C 292.106,239.213 280.772,263.213 266,285.5C 262.52,290.804 258.353,295.471 253.5,299.5 Z M 63.5,207.5 C 62.0937,207.973 61.427,208.973 61.5,210.5C 60.5987,211.29 59.9321,212.29 59.5,213.5C 58.0937,213.973 57.427,214.973 57.5,216.5C 53.6678,220.164 49.6678,223.664 45.5,227C 40.9899,229.481 36.3232,229.981 31.5,228.5C 30.8333,227.167 29.8333,226.167 28.5,225.5C 26.5814,212.922 29.9147,201.922 38.5,192.5C 39.9063,192.027 40.573,191.027 40.5,189.5C 48.6604,181.913 57.9938,176.08 68.5,172C 71.1262,171.005 73.7929,170.672 76.5,171C 73.8547,183.769 69.5213,195.936 63.5,207.5 Z"/></g>
<g><path style="opacity:0.573" fill="#4b0e28" d="M 1161.5,118.5 C 1161.57,120.027 1160.91,121.027 1159.5,121.5C 1159.43,119.973 1160.09,118.973 1161.5,118.5 Z"/></g>
<g><path style="opacity:0.49" fill="#440c25" d="M 1158.5,122.5 C 1158.57,124.027 1157.91,125.027 1156.5,125.5C 1156.43,123.973 1157.09,122.973 1158.5,122.5 Z"/></g>
<g><path style="opacity:0.757" fill="#3f0f22" d="M 1379.5,122.5 C 1379.83,125.228 1379.16,127.562 1377.5,129.5C 1377.72,126.933 1378.39,124.599 1379.5,122.5 Z"/></g>
<g><path style="opacity:0.863" fill="#611133" d="M 1559.5,125.5 C 1559.03,126.906 1558.03,127.573 1556.5,127.5C 1556.97,126.094 1557.97,125.427 1559.5,125.5 Z"/></g>
<g><path style="opacity:0.737" fill="#3e0f22" d="M 970.5,134.5 C 970.027,135.906 969.027,136.573 967.5,136.5C 967.973,135.094 968.973,134.427 970.5,134.5 Z"/></g>
<g><path style="opacity:1" fill="#de0e73" d="M 447.5,139.5 C 447.833,140.5 448.5,141.167 449.5,141.5C 450.972,143.117 451.639,145.117 451.5,147.5C 451.318,150.226 450.818,152.893 450,155.5C 443.063,174.978 435.729,194.311 428,213.5C 423.314,228.403 420.147,243.57 418.5,259C 419.21,262.825 420.044,266.658 421,270.5C 424.302,273.712 428.135,274.379 432.5,272.5C 434.027,272.573 435.027,271.906 435.5,270.5C 436.5,268.833 437.833,267.5 439.5,266.5C 440.906,266.027 441.573,265.027 441.5,263.5C 446.159,256.858 450.325,249.858 454,242.5C 454.907,232.609 458.073,223.609 463.5,215.5C 464.906,215.027 465.573,214.027 465.5,212.5C 466.906,212.027 467.573,211.027 467.5,209.5C 467.5,208.833 467.833,208.5 468.5,208.5C 469.906,208.027 470.573,207.027 470.5,205.5C 473.5,201.833 476.833,198.5 480.5,195.5C 482.027,195.573 483.027,194.906 483.5,193.5C 496.898,181.818 512.231,178.318 529.5,183C 531.346,184.03 533.013,185.196 534.5,186.5C 534.427,188.027 535.094,189.027 536.5,189.5C 537.79,190.058 538.623,191.058 539,192.5C 541.018,200.413 539.685,207.746 535,214.5C 529.675,221.535 523.175,223.201 515.5,219.5C 515.167,218.5 514.5,217.833 513.5,217.5C 511.859,216.129 510.859,214.296 510.5,212C 511.679,206.962 513.346,202.129 515.5,197.5C 516.043,197.44 516.376,197.107 516.5,196.5C 514.027,195.203 511.693,195.203 509.5,196.5C 504.665,198.414 500.331,201.081 496.5,204.5C 495.167,204.5 494.5,205.167 494.5,206.5C 485.1,216.978 479.766,229.311 478.5,243.5C 479.017,259.839 487.35,266.339 503.5,263C 512.215,261.487 520.215,258.32 527.5,253.5C 529.027,253.573 530.027,252.906 530.5,251.5C 532.833,248.5 535.5,245.833 538.5,243.5C 539.906,243.027 540.573,242.027 540.5,240.5C 542.172,237.978 543.672,235.312 545,232.5C 546.239,221.611 549.739,211.611 555.5,202.5C 556.906,202.027 557.573,201.027 557.5,199.5C 558.906,199.027 559.573,198.027 559.5,196.5C 559.5,195.833 559.833,195.5 560.5,195.5C 561.906,195.027 562.573,194.027 562.5,192.5C 565.167,189.167 568.167,186.167 571.5,183.5C 573.027,183.573 574.027,182.906 574.5,181.5C 576.147,179.674 578.147,178.34 580.5,177.5C 582.027,177.573 583.027,176.906 583.5,175.5C 596.343,168.655 609.676,167.822 623.5,173C 625.684,174.363 627.684,175.863 629.5,177.5C 629.738,179.404 630.738,180.738 632.5,181.5C 634.474,183.428 635.974,185.761 637,188.5C 641.227,205.808 638.727,222.141 629.5,237.5C 629.833,237.833 630.167,238.167 630.5,238.5C 633.447,237.577 636.447,236.911 639.5,236.5C 641.027,236.573 642.027,235.906 642.5,234.5C 644.027,234.573 645.027,233.906 645.5,232.5C 646.5,230.833 647.833,229.5 649.5,228.5C 650.906,228.027 651.573,227.027 651.5,225.5C 652.906,225.027 653.573,224.027 653.5,222.5C 658.149,206.24 662.649,189.907 667,173.5C 667.843,169.8 669.676,166.8 672.5,164.5C 674.027,164.573 675.027,163.906 675.5,162.5C 687.175,160.01 691.675,164.676 689,176.5C 689.383,175.944 689.883,175.611 690.5,175.5C 691.906,175.027 692.573,174.027 692.5,172.5C 692.833,171.5 693.5,170.833 694.5,170.5C 696.914,169.089 698.581,167.089 699.5,164.5C 701.027,164.573 702.027,163.906 702.5,162.5C 710.437,155.234 719.437,153.734 729.5,158C 733.506,160.851 735.84,164.685 736.5,169.5C 736.337,171.857 736.503,174.19 737,176.5C 738.039,175.756 738.539,174.756 738.5,173.5C 738.5,172.833 738.833,172.5 739.5,172.5C 740.906,172.027 741.573,171.027 741.5,169.5C 742.443,166.891 744.11,164.891 746.5,163.5C 748.262,162.738 749.262,161.404 749.5,159.5C 749.833,158.5 750.5,157.833 751.5,157.5C 753.404,157.262 754.738,156.262 755.5,154.5C 759.358,150.878 764.025,149.212 769.5,149.5C 776.111,149.143 781.444,151.477 785.5,156.5C 785.427,158.027 786.094,159.027 787.5,159.5C 789.023,162.897 790.023,166.564 790.5,170.5C 786.905,185.118 782.405,199.451 777,213.5C 775.455,233.107 781.621,235.774 795.5,221.5C 796.906,221.027 797.573,220.027 797.5,218.5C 801.495,212.516 804.995,206.182 808,199.5C 809.241,188.607 812.741,178.607 818.5,169.5C 819.906,169.027 820.573,168.027 820.5,166.5C 821.906,166.027 822.573,165.027 822.5,163.5C 822.833,162.5 823.5,161.833 824.5,161.5C 826.262,160.738 827.262,159.404 827.5,157.5C 828.167,156.167 829.167,155.167 830.5,154.5C 832.749,153.92 834.415,152.587 835.5,150.5C 835.5,149.833 835.833,149.5 836.5,149.5C 838.027,149.573 839.027,148.906 839.5,147.5C 841.027,147.573 842.027,146.906 842.5,145.5C 855.674,136.799 869.674,135.299 884.5,141C 895.454,152.802 894.787,163.969 882.5,174.5C 881.5,174.833 880.833,175.5 880.5,176.5C 872.254,184.639 862.588,190.805 851.5,195C 845.697,197.546 839.697,199.379 833.5,200.5C 831.448,201.053 831.115,202.053 832.5,203.5C 833.248,206.905 834.248,210.238 835.5,213.5C 835.5,215.5 836.5,216.5 838.5,216.5C 842.387,218.699 846.554,220.032 851,220.5C 859.812,219.339 868.312,217.005 876.5,213.5C 878.027,213.573 879.027,212.906 879.5,211.5C 881.027,211.573 882.027,210.906 882.5,209.5C 882.5,208.833 882.833,208.5 883.5,208.5C 885.404,208.262 886.738,207.262 887.5,205.5C 888.167,204.167 889.167,203.167 890.5,202.5C 892.262,201.738 893.262,200.404 893.5,198.5C 893.5,197.833 893.833,197.5 894.5,197.5C 895.906,197.027 896.573,196.027 896.5,194.5C 898.64,190.22 900.807,185.886 903,181.5C 906.554,176.549 911.054,175.382 916.5,178C 918.708,179.836 920.042,182.169 920.5,185C 915.495,197.193 908.162,207.693 898.5,216.5C 896.973,216.427 895.973,217.094 895.5,218.5C 884.825,228.333 872.159,234.166 857.5,236C 848.088,238.099 838.755,237.766 829.5,235C 826.826,234.33 824.493,233.163 822.5,231.5C 822.027,230.094 821.027,229.427 819.5,229.5C 817.5,228.167 815.833,226.5 814.5,224.5C 814.289,222.576 813.623,222.243 812.5,223.5C 804.424,236.582 792.757,243.915 777.5,245.5C 773.069,245.726 769.069,244.726 765.5,242.5C 765.027,241.094 764.027,240.427 762.5,240.5C 758.249,237.678 755.749,233.678 755,228.5C 754.333,223.167 754.333,217.833 755,212.5C 758.269,202.026 761.936,191.693 766,181.5C 767.25,176.58 767.75,171.58 767.5,166.5C 764.68,166.248 762.014,166.748 759.5,168C 757.297,170.372 754.963,172.539 752.5,174.5C 751.094,174.973 750.427,175.973 750.5,177.5C 736.566,198.112 727.399,220.779 723,245.5C 719.412,253.433 713.578,255.6 705.5,252C 703.833,250.177 702.833,248.01 702.5,245.5C 707.063,224.517 711.563,203.517 716,182.5C 718.803,172.957 715.969,170.457 707.5,175C 686.601,196.297 673.768,221.797 669,251.5C 666.173,259.779 660.673,262.279 652.5,259C 651.667,258.167 650.833,257.333 650,256.5C 648.87,253.384 648.37,250.384 648.5,247.5C 638.993,252.334 628.993,254 618.5,252.5C 611.844,258.316 604.511,263.149 596.5,267C 584.611,270.741 572.945,270.241 561.5,265.5C 556.856,262.69 553.023,259.023 550,254.5C 528.911,276.483 503.411,284.317 473.5,278C 470.761,276.974 468.428,275.474 466.5,273.5C 466.027,272.094 465.027,271.427 463.5,271.5C 461.549,270.284 460.049,268.618 459,266.5C 450.132,280.221 437.632,287.888 421.5,289.5C 413.673,289.336 407.173,286.336 402,280.5C 401.209,279.255 400.709,277.922 400.5,276.5C 399.833,273.833 399.167,273.833 398.5,276.5C 396.973,276.427 395.973,277.094 395.5,278.5C 383.854,289.678 369.854,296.178 353.5,298C 340.168,300.456 327.834,298.123 316.5,291C 312.007,287.166 309.174,282.333 308,276.5C 304.073,256.872 308.573,239.538 321.5,224.5C 323.262,223.738 324.262,222.404 324.5,220.5C 326.167,218.167 328.167,216.167 330.5,214.5C 332.404,214.262 333.738,213.262 334.5,211.5C 334.5,210.833 334.833,210.5 335.5,210.5C 337.027,210.573 338.027,209.906 338.5,208.5C 351.799,199.08 366.132,196.913 381.5,202C 382.571,202.852 383.571,203.685 384.5,204.5C 384.427,206.027 385.094,207.027 386.5,207.5C 387.79,208.058 388.623,209.058 389,210.5C 391.495,218.521 390.162,225.854 385,232.5C 369.983,248.094 351.816,258.094 330.5,262.5C 330.057,272.139 334.391,278.305 343.5,281C 356.122,282.094 367.789,279.261 378.5,272.5C 380.027,272.573 381.027,271.906 381.5,270.5C 381.5,269.833 381.833,269.5 382.5,269.5C 386.167,267.833 388.833,265.167 390.5,261.5C 393.239,257.696 395.739,253.696 398,249.5C 404.164,217.675 413.164,186.675 425,156.5C 426.689,152.44 428.856,148.773 431.5,145.5C 433.262,144.738 434.262,143.404 434.5,141.5C 436.404,141.262 437.738,140.262 438.5,138.5C 439.449,137.848 440.615,137.514 442,137.5C 444.221,137.393 446.054,138.06 447.5,139.5 Z M 866.5,165.5 C 864.738,166.262 863.738,167.596 863.5,169.5C 861.251,170.08 859.585,171.413 858.5,173.5C 856.205,174.475 854.205,175.808 852.5,177.5C 850.973,177.427 849.973,178.094 849.5,179.5C 845.261,180.796 841.261,182.462 837.5,184.5C 836.167,184.5 835.5,183.833 835.5,182.5C 839.496,170.994 846.496,161.828 856.5,155C 868.615,150.281 871.948,153.781 866.5,165.5 Z M 611.5,228.5 C 610.5,228.833 609.833,229.5 609.5,230.5C 602.054,231.922 599.054,236.255 600.5,243.5C 600.267,245.062 599.6,246.395 598.5,247.5C 591.701,253.379 584.367,254.379 576.5,250.5C 575.833,249.167 574.833,248.167 573.5,247.5C 569.315,235.706 569.815,224.039 575,212.5C 578.941,201.894 585.775,193.727 595.5,188C 599.375,186.48 603.375,186.146 607.5,187C 610,188.167 611.833,190 613,192.5C 614.476,196.879 615.309,201.379 615.5,206C 614.865,213.643 613.532,221.143 611.5,228.5 Z M 366.5,224.5 C 365.094,224.973 364.427,225.973 364.5,227.5C 363.833,227.5 363.5,227.833 363.5,228.5C 361.167,230.167 359.167,232.167 357.5,234.5C 356.833,234.5 356.5,234.833 356.5,235.5C 354.973,235.427 353.973,236.094 353.5,237.5C 351.973,237.427 350.973,238.094 350.5,239.5C 345.162,241.836 339.829,244.169 334.5,246.5C 333.662,246.158 333.328,245.492 333.5,244.5C 335.721,238.39 338.721,232.723 342.5,227.5C 343.906,227.027 344.573,226.027 344.5,224.5C 349.3,219.098 355.3,215.765 362.5,214.5C 364.374,214.39 365.874,215.056 367,216.5C 367.43,219.192 367.263,221.859 366.5,224.5 Z"/></g>
<g><path style="opacity:0.471" fill="#3f0c22" d="M 967.5,136.5 C 967.573,138.027 966.906,139.027 965.5,139.5C 965.427,137.973 966.094,136.973 967.5,136.5 Z"/></g>
<g><path style="opacity:0.776" fill="#4c1029" d="M 1471.5,137.5 C 1471.57,139.027 1470.91,140.027 1469.5,140.5C 1469.43,138.973 1470.09,137.973 1471.5,137.5 Z"/></g>
<g><path style="opacity:0.78" fill="#58132f" d="M 438.5,138.5 C 437.738,140.262 436.404,141.262 434.5,141.5C 435.262,139.738 436.596,138.738 438.5,138.5 Z"/></g>
<g><path style="opacity:0.004" fill="#250815" d="M 447.5,139.5 C 448.833,139.5 449.5,140.167 449.5,141.5C 448.5,141.167 447.833,140.5 447.5,139.5 Z"/></g>
<g><path style="opacity:0.91" fill="#54112d" d="M 434.5,141.5 C 434.262,143.404 433.262,144.738 431.5,145.5C 431.738,143.596 432.738,142.262 434.5,141.5 Z"/></g>
<g><path style="opacity:0.008" fill="#340d1c" d="M 1491.5,142.5 C 1492.83,143.167 1493.83,144.167 1494.5,145.5C 1492.5,145.5 1491.5,144.5 1491.5,142.5 Z"/></g>
<g><path style="opacity:0.741" fill="#4f0e2a" d="M 1466.5,143.5 C 1466.03,144.906 1465.03,145.573 1463.5,145.5C 1463.97,144.094 1464.97,143.427 1466.5,143.5 Z"/></g>
<g><path style="opacity:0.004" fill="#230914" d="M 1485.5,143.5 C 1485.57,145.027 1484.91,146.027 1483.5,146.5C 1483.43,144.973 1484.09,143.973 1485.5,143.5 Z"/></g>
<g><path style="opacity:0.624" fill="#320c1b" d="M 1452.5,144.5 C 1453.83,145.167 1454.83,146.167 1455.5,147.5C 1453.5,147.5 1452.5,146.5 1452.5,144.5 Z"/></g>
<g><path style="opacity:0.91" fill="#5f1133" d="M 842.5,145.5 C 842.027,146.906 841.027,147.573 839.5,147.5C 839.973,146.094 840.973,145.427 842.5,145.5 Z"/></g>
<g><path style="opacity:0.51" fill="#490d27" d="M 1369.5,144.5 C 1369.57,146.027 1368.91,147.027 1367.5,147.5C 1367.43,145.973 1368.09,144.973 1369.5,144.5 Z"/></g>
<g><path style="opacity:0.82" fill="#500f2b" d="M 839.5,147.5 C 839.027,148.906 838.027,149.573 836.5,149.5C 836.973,148.094 837.973,147.427 839.5,147.5 Z"/></g>
<g><path style="opacity:0.451" fill="#33091b" d="M 1366.5,148.5 C 1366.57,150.027 1365.91,151.027 1364.5,151.5C 1364.43,149.973 1365.09,148.973 1366.5,148.5 Z"/></g>
<g><path style="opacity:0.776" fill="#5c1131" d="M 76.5,151.5 C 77.0431,151.56 77.3764,151.893 77.5,152.5C 76.3112,153.429 74.9778,153.762 73.5,153.5C 74.5,152.833 75.5,152.167 76.5,151.5 Z"/></g>
<g><path style="opacity:0.08" fill="#1d0710" d="M 98.5,151.5 C 99.9952,151.989 101.329,152.655 102.5,153.5C 100.517,153.843 99.1834,153.176 98.5,151.5 Z"/></g>
<g><path style="opacity:0.984" fill="#6e143b" d="M 835.5,150.5 C 834.415,152.587 832.749,153.92 830.5,154.5C 831.585,152.413 833.251,151.08 835.5,150.5 Z"/></g>
<g><path style="opacity:0.475" fill="#35091c" d="M 1249.5,152.5 C 1249.57,154.027 1248.91,155.027 1247.5,155.5C 1247.43,153.973 1248.09,152.973 1249.5,152.5 Z"/></g>
<g><path style="opacity:0.745" fill="#56102e" d="M 755.5,154.5 C 754.738,156.262 753.404,157.262 751.5,157.5C 752.262,155.738 753.596,154.738 755.5,154.5 Z"/></g>
<g><path style="opacity:0.702" fill="#460c25" d="M 203.5,156.5 C 202.5,158.167 201.167,159.5 199.5,160.5C 199.833,158.167 201.167,156.833 203.5,156.5 Z"/></g>
<g><path style="opacity:0.294" fill="#290917" d="M 989.5,158.5 C 988.167,158.5 987.5,159.167 987.5,160.5C 986.596,159.791 986.263,158.791 986.5,157.5C 987.791,157.263 988.791,157.596 989.5,158.5 Z"/></g>
<g><path style="opacity:0.698" fill="#611233" d="M 214.5,156.5 C 215.906,156.973 216.573,157.973 216.5,159.5C 215.094,159.027 214.427,158.027 214.5,156.5 Z"/></g>
<g><path style="opacity:0.345" fill="#2d0d1a" d="M 785.5,156.5 C 786.906,156.973 787.573,157.973 787.5,159.5C 786.094,159.027 785.427,158.027 785.5,156.5 Z"/></g>
<g><path style="opacity:0.976" fill="#631435" d="M 827.5,157.5 C 827.262,159.404 826.262,160.738 824.5,161.5C 824.738,159.596 825.738,158.262 827.5,157.5 Z"/></g>
<g><path style="opacity:0.694" fill="#410c22" d="M 1244.5,158.5 C 1244.03,159.906 1243.03,160.573 1241.5,160.5C 1241.97,159.094 1242.97,158.427 1244.5,158.5 Z"/></g>
<g><path style="opacity:0.898" fill="#611333" d="M 749.5,159.5 C 749.262,161.404 748.262,162.738 746.5,163.5C 746.738,161.596 747.738,160.262 749.5,159.5 Z"/></g>
<g><path style="opacity:0.824" fill="#4a1229" d="M 675.5,162.5 C 675.027,163.906 674.027,164.573 672.5,164.5C 672.973,163.094 673.973,162.427 675.5,162.5 Z"/></g>
<g><path style="opacity:0.753" fill="#520f2c" d="M 702.5,162.5 C 702.027,163.906 701.027,164.573 699.5,164.5C 699.973,163.094 700.973,162.427 702.5,162.5 Z"/></g>
<g><path style="opacity:0.335" fill="#35081c" d="M 1227.5,163.5 C 1228.92,164.451 1230.59,164.784 1232.5,164.5C 1230.64,165.793 1228.64,165.793 1226.5,164.5C 1226.62,163.893 1226.96,163.56 1227.5,163.5 Z"/></g>
<g><path style="opacity:0.78" fill="#451026" d="M 45.5,164.5 C 45.0269,165.906 44.0269,166.573 42.5,166.5C 42.9731,165.094 43.9731,164.427 45.5,164.5 Z"/></g>
<g><path style="opacity:0.4" fill="#2d0a19" d="M 822.5,163.5 C 822.573,165.027 821.906,166.027 820.5,166.5C 820.427,164.973 821.094,163.973 822.5,163.5 Z"/></g>
<g><path style="opacity:0.016" fill="#17030c" d="M 1370.5,165.5 C 1370.56,164.957 1370.89,164.624 1371.5,164.5C 1372.39,165.325 1372.72,166.325 1372.5,167.5C 1371.83,166.833 1371.17,166.167 1370.5,165.5 Z"/></g>
<g><path style="opacity:0.969" fill="#6a1338" d="M 42.5,166.5 C 42.0269,167.906 41.0269,168.573 39.5,168.5C 39.9731,167.094 40.9731,166.427 42.5,166.5 Z"/></g>
<g><path style="opacity:0.647" fill="#450e25" d="M 866.5,165.5 C 866.262,167.404 865.262,168.738 863.5,169.5C 863.738,167.596 864.738,166.262 866.5,165.5 Z"/></g>
<g><path style="opacity:0.004" fill="#220512" d="M 1053.5,166.5 C 1053.5,167.833 1052.83,168.5 1051.5,168.5C 1051.83,167.5 1052.5,166.833 1053.5,166.5 Z"/></g>
<g><path style="opacity:0.004" fill="#230913" d="M 1325.5,166.5 C 1326.91,166.973 1327.57,167.973 1327.5,169.5C 1326.09,169.027 1325.43,168.027 1325.5,166.5 Z"/></g>
<g><path style="opacity:0.616" fill="#440e24" d="M 699.5,164.5 C 698.581,167.089 696.914,169.089 694.5,170.5C 695.419,167.911 697.086,165.911 699.5,164.5 Z"/></g>
<g><path style="opacity:0.369" fill="#350e1d" d="M 820.5,166.5 C 820.573,168.027 819.906,169.027 818.5,169.5C 818.427,167.973 819.094,166.973 820.5,166.5 Z"/></g>
<g><path style="opacity:0.902" fill="#611134" d="M 39.5,168.5 C 39.0269,169.906 38.0269,170.573 36.5,170.5C 36.9731,169.094 37.9731,168.427 39.5,168.5 Z"/></g>
<g><path style="opacity:0.569" fill="#450d25" d="M 863.5,169.5 C 862.415,171.587 860.749,172.92 858.5,173.5C 859.585,171.413 861.251,170.08 863.5,169.5 Z"/></g>
<g><path style="opacity:0.451" fill="#400c22" d="M 741.5,169.5 C 741.573,171.027 740.906,172.027 739.5,172.5C 739.427,170.973 740.094,169.973 741.5,169.5 Z"/></g>
<g><path style="opacity:0.038" fill="#1d0810" d="M 101.5,175.5 C 100.295,173.862 98.9621,173.529 97.5,174.5C 97.3505,173.448 97.5172,172.448 98,171.5C 100.071,172.103 101.238,173.436 101.5,175.5 Z"/></g>
<g><path style="opacity:0.533" fill="#32081b" d="M 736.5,169.5 C 737.167,170.833 737.833,172.167 738.5,173.5C 738.539,174.756 738.039,175.756 737,176.5C 736.503,174.19 736.337,171.857 736.5,169.5 Z"/></g>
<g><path style="opacity:0.612" fill="#540f2c" d="M 692.5,172.5 C 692.573,174.027 691.906,175.027 690.5,175.5C 690.427,173.973 691.094,172.973 692.5,172.5 Z"/></g>
<g><path style="opacity:0.004" fill="#280c17" d="M 752.5,174.5 C 752.573,176.027 751.906,177.027 750.5,177.5C 750.427,175.973 751.094,174.973 752.5,174.5 Z"/></g>
<g><path style="opacity:0.004" fill="#240714" d="M 882.5,174.5 C 882.5,175.833 881.833,176.5 880.5,176.5C 880.833,175.5 881.5,174.833 882.5,174.5 Z"/></g>
<g><path style="opacity:0.765" fill="#5a1130" d="M 30.5,175.5 C 29.7377,177.262 28.4044,178.262 26.5,178.5C 27.2623,176.738 28.5956,175.738 30.5,175.5 Z"/></g>
<g><path style="opacity:0.961" fill="#641536" d="M 583.5,175.5 C 583.027,176.906 582.027,177.573 580.5,177.5C 580.973,176.094 581.973,175.427 583.5,175.5 Z"/></g>
<g><path style="opacity:0.835" fill="#4e102a" d="M 629.5,177.5 C 631.262,178.262 632.262,179.596 632.5,181.5C 630.738,180.738 629.738,179.404 629.5,177.5 Z"/></g>
<g><path style="opacity:0.133" fill="#19030d" d="M 688.5,177.5 C 688.27,179.983 687.603,180.483 686.5,179C 686.836,177.97 687.503,177.47 688.5,177.5 Z"/></g>
<g><path style="opacity:0.894" fill="#58132f" d="M 852.5,177.5 C 852.027,178.906 851.027,179.573 849.5,179.5C 849.973,178.094 850.973,177.427 852.5,177.5 Z"/></g>
<g><path style="opacity:0.569" fill="#430d24" d="M 997.5,178.5 C 998.906,178.973 999.573,179.973 999.5,181.5C 998.094,181.027 997.427,180.027 997.5,178.5 Z"/></g>
<g><path style="opacity:0.749" fill="#4b0e28" d="M 574.5,181.5 C 574.027,182.906 573.027,183.573 571.5,183.5C 571.973,182.094 572.973,181.427 574.5,181.5 Z"/></g>
<g><path style="opacity:0.847" fill="#57122e" d="M 22.5,182.5 C 22.2624,184.404 21.2624,185.738 19.5,186.5C 19.7376,184.596 20.7376,183.262 22.5,182.5 Z"/></g>
<g><path style="opacity:0.067" fill="#120108" d="M 835.5,182.5 C 835.5,183.833 836.167,184.5 837.5,184.5C 836.791,185.404 835.791,185.737 834.5,185.5C 834.263,184.209 834.596,183.209 835.5,182.5 Z"/></g>
<g><path style="opacity:0.741" fill="#420d23" d="M 1080.5,183.5 C 1080.26,185.404 1079.26,186.738 1077.5,187.5C 1077.74,185.596 1078.74,184.262 1080.5,183.5 Z"/></g>
<g><path style="opacity:0.004" fill="#260b15" d="M 1003.5,185.5 C 1005.03,185.427 1006.03,186.094 1006.5,187.5C 1004.97,187.573 1003.97,186.906 1003.5,185.5 Z"/></g>
<g><path style="opacity:0.784" fill="#4d102a" d="M 534.5,186.5 C 535.906,186.973 536.573,187.973 536.5,189.5C 535.094,189.027 534.427,188.027 534.5,186.5 Z"/></g>
<g><path style="opacity:0.631" fill="#450d25" d="M 1076.5,188.5 C 1075.74,190.262 1074.4,191.262 1072.5,191.5C 1073.26,189.738 1074.6,188.738 1076.5,188.5 Z"/></g>
<g><path style="opacity:0.341" fill="#2c0d19" d="M 1155.5,188.5 C 1157.03,188.427 1158.03,189.094 1158.5,190.5C 1156.97,190.573 1155.97,189.906 1155.5,188.5 Z"/></g>
<g><path style="opacity:0.51" fill="#420c24" d="M 17.5,188.5 C 17.573,190.027 16.9063,191.027 15.5,191.5C 15.427,189.973 16.0937,188.973 17.5,188.5 Z"/></g>
<g><path style="opacity:0.004" fill="#220813" d="M 40.5,189.5 C 40.573,191.027 39.9063,192.027 38.5,192.5C 38.427,190.973 39.0937,189.973 40.5,189.5 Z"/></g>
<g><path style="opacity:0.745" fill="#490d27" d="M 483.5,193.5 C 483.027,194.906 482.027,195.573 480.5,195.5C 480.973,194.094 481.973,193.427 483.5,193.5 Z"/></g>
<g><path style="opacity:0.506" fill="#3b0b20" d="M 562.5,192.5 C 562.573,194.027 561.906,195.027 560.5,195.5C 560.427,193.973 561.094,192.973 562.5,192.5 Z"/></g>
<g><path style="opacity:0.113" fill="#0d0005" d="M 509.5,196.5 C 511.693,195.203 514.027,195.203 516.5,196.5C 516.376,197.107 516.043,197.44 515.5,197.5C 513.735,196.539 511.735,196.205 509.5,196.5 Z"/></g>
<g><path style="opacity:0.463" fill="#3c0b20" d="M 896.5,194.5 C 896.573,196.027 895.906,197.027 894.5,197.5C 894.427,195.973 895.094,194.973 896.5,194.5 Z"/></g>
<g><path style="opacity:0.855" fill="#471026" d="M 985.5,197.5 C 988.089,198.419 990.089,200.086 991.5,202.5C 988.911,201.581 986.911,199.914 985.5,197.5 Z"/></g>
<g><path style="opacity:0.384" fill="#2e0b19" d="M 559.5,196.5 C 559.573,198.027 558.906,199.027 557.5,199.5C 557.427,197.973 558.094,196.973 559.5,196.5 Z"/></g>
<g><path style="opacity:0.698" fill="#4f102a" d="M 893.5,198.5 C 893.262,200.404 892.262,201.738 890.5,202.5C 890.738,200.596 891.738,199.262 893.5,198.5 Z"/></g>
<g><path style="opacity:0.325" fill="#2d0e1a" d="M 557.5,199.5 C 557.573,201.027 556.906,202.027 555.5,202.5C 555.427,200.973 556.094,199.973 557.5,199.5 Z"/></g>
<g><path style="opacity:0.506" fill="#3a071e" d="M 833.5,200.5 C 832.89,201.391 832.557,202.391 832.5,203.5C 831.115,202.053 831.448,201.053 833.5,200.5 Z"/></g>
<g><path style="opacity:0.016" fill="#1f0a12" d="M 496.5,204.5 C 496.167,205.5 495.5,206.167 494.5,206.5C 494.5,205.167 495.167,204.5 496.5,204.5 Z"/></g>
<g><path style="opacity:0.827" fill="#56122e" d="M 384.5,204.5 C 385.906,204.973 386.573,205.973 386.5,207.5C 385.094,207.027 384.427,206.027 384.5,204.5 Z"/></g>
<g><path style="opacity:0.643" fill="#480d26" d="M 887.5,205.5 C 886.738,207.262 885.404,208.262 883.5,208.5C 884.262,206.738 885.596,205.738 887.5,205.5 Z"/></g>
<g><path style="opacity:0.565" fill="#470d26" d="M 470.5,205.5 C 470.573,207.027 469.906,208.027 468.5,208.5C 468.427,206.973 469.094,205.973 470.5,205.5 Z"/></g>
<g><path style="opacity:0.341" fill="#2f0e1b" d="M 63.5,207.5 C 63.573,209.027 62.9063,210.027 61.5,210.5C 61.427,208.973 62.0937,207.973 63.5,207.5 Z"/></g>
<g><path style="opacity:0.718" fill="#3b0e21" d="M 338.5,208.5 C 338.027,209.906 337.027,210.573 335.5,210.5C 335.973,209.094 336.973,208.427 338.5,208.5 Z"/></g>
<g><path style="opacity:0.796" fill="#4e0e2a" d="M 882.5,209.5 C 882.027,210.906 881.027,211.573 879.5,211.5C 879.973,210.094 880.973,209.427 882.5,209.5 Z"/></g>
<g><path style="opacity:0.424" fill="#350a1d" d="M 467.5,209.5 C 467.573,211.027 466.906,212.027 465.5,212.5C 465.427,210.973 466.094,209.973 467.5,209.5 Z"/></g>
<g><path style="opacity:0.71" fill="#510f2b" d="M 334.5,211.5 C 333.738,213.262 332.404,214.262 330.5,214.5C 331.262,212.738 332.596,211.738 334.5,211.5 Z"/></g>
<g><path style="opacity:0.949" fill="#631436" d="M 879.5,211.5 C 879.027,212.906 878.027,213.573 876.5,213.5C 876.973,212.094 877.973,211.427 879.5,211.5 Z"/></g>
<g><path style="opacity:0.361" fill="#330e1d" d="M 465.5,212.5 C 465.573,214.027 464.906,215.027 463.5,215.5C 463.427,213.973 464.094,212.973 465.5,212.5 Z"/></g>
<g><path style="opacity:0.714" fill="#3a0f20" d="M 835.5,213.5 C 836.833,214.167 837.833,215.167 838.5,216.5C 836.5,216.5 835.5,215.5 835.5,213.5 Z"/></g>
<g><path style="opacity:0.588" fill="#4e0e2a" d="M 59.5,213.5 C 59.573,215.027 58.9063,216.027 57.5,216.5C 57.427,214.973 58.0937,213.973 59.5,213.5 Z"/></g>
<g><path style="opacity:0.004" fill="#1f0711" d="M 898.5,216.5 C 898.027,217.906 897.027,218.573 895.5,218.5C 895.973,217.094 896.973,216.427 898.5,216.5 Z"/></g>
<g><path style="opacity:0.004" fill="#260915" d="M 513.5,217.5 C 514.5,217.833 515.167,218.5 515.5,219.5C 514.167,219.5 513.5,218.833 513.5,217.5 Z"/></g>
<g><path style="opacity:0.467" fill="#34091c" d="M 797.5,218.5 C 797.573,220.027 796.906,221.027 795.5,221.5C 795.427,219.973 796.094,218.973 797.5,218.5 Z"/></g>
<g><path style="opacity:0.953" fill="#5e1332" d="M 324.5,220.5 C 324.262,222.404 323.262,223.738 321.5,224.5C 321.738,222.596 322.738,221.262 324.5,220.5 Z"/></g>
<g><path style="opacity:0.443" fill="#1e0210" d="M 812.5,223.5 C 813.623,222.243 814.289,222.576 814.5,224.5C 813.833,224.167 813.167,223.833 812.5,223.5 Z"/></g>
<g><path style="opacity:0.349" fill="#300d1b" d="M 653.5,222.5 C 653.573,224.027 652.906,225.027 651.5,225.5C 651.427,223.973 652.094,222.973 653.5,222.5 Z"/></g>
<g><path style="opacity:0.004" fill="#210812" d="M 344.5,224.5 C 344.573,226.027 343.906,227.027 342.5,227.5C 342.427,225.973 343.094,224.973 344.5,224.5 Z"/></g>
<g><path style="opacity:0.98" fill="#611735" d="M 28.5,225.5 C 29.8333,226.167 30.8333,227.167 31.5,228.5C 29.5,228.5 28.5,227.5 28.5,225.5 Z"/></g>
<g><path style="opacity:0.392" fill="#310b1b" d="M 366.5,224.5 C 366.573,226.027 365.906,227.027 364.5,227.5C 364.427,225.973 365.094,224.973 366.5,224.5 Z"/></g>
<g><path style="opacity:0.604" fill="#500e2a" d="M 651.5,225.5 C 651.573,227.027 650.906,228.027 649.5,228.5C 649.427,226.973 650.094,225.973 651.5,225.5 Z"/></g>
<g><path style="opacity:0.498" fill="#230613" d="M 611.5,228.5 C 611.5,229.833 610.833,230.5 609.5,230.5C 609.833,229.5 610.5,228.833 611.5,228.5 Z"/></g>
<g><path style="opacity:0.427" fill="#370b1d" d="M 819.5,229.5 C 821.027,229.427 822.027,230.094 822.5,231.5C 820.973,231.573 819.973,230.906 819.5,229.5 Z"/></g>
<g><path style="opacity:0.729" fill="#5e1432" d="M 363.5,228.5 C 362.5,231.5 360.5,233.5 357.5,234.5C 359.167,232.167 361.167,230.167 363.5,228.5 Z"/></g>
<g><path style="opacity:0.867" fill="#601133" d="M 645.5,232.5 C 645.027,233.906 644.027,234.573 642.5,234.5C 642.973,233.094 643.973,232.427 645.5,232.5 Z"/></g>
<g><path style="opacity:0.898" fill="#5d1132" d="M 642.5,234.5 C 642.027,235.906 641.027,236.573 639.5,236.5C 639.973,235.094 640.973,234.427 642.5,234.5 Z"/></g>
<g><path style="opacity:0.835" fill="#55102d" d="M 356.5,235.5 C 356.027,236.906 355.027,237.573 353.5,237.5C 353.973,236.094 354.973,235.427 356.5,235.5 Z"/></g>
<g><path style="opacity:0.867" fill="#53122d" d="M 353.5,237.5 C 353.027,238.906 352.027,239.573 350.5,239.5C 350.973,238.094 351.973,237.427 353.5,237.5 Z"/></g>
<g><path style="opacity:0.431" fill="#370a1e" d="M 762.5,240.5 C 764.027,240.427 765.027,241.094 765.5,242.5C 763.973,242.573 762.973,241.906 762.5,240.5 Z"/></g>
<g><path style="opacity:0.447" fill="#30091a" d="M 540.5,240.5 C 540.573,242.027 539.906,243.027 538.5,243.5C 538.427,241.973 539.094,240.973 540.5,240.5 Z"/></g>
<g><path style="opacity:0.065" fill="#0c0005" d="M 333.5,244.5 C 333.328,245.492 333.662,246.158 334.5,246.5C 333.698,247.885 333.031,247.718 332.5,246C 332.57,245.235 332.903,244.735 333.5,244.5 Z"/></g>
<g><path style="opacity:0.859" fill="#5f1633" d="M 600.5,243.5 C 601.976,245.709 601.309,247.042 598.5,247.5C 599.6,246.395 600.267,245.062 600.5,243.5 Z"/></g>
<g><path style="opacity:0.761" fill="#3f1023" d="M 573.5,247.5 C 574.833,248.167 575.833,249.167 576.5,250.5C 574.5,250.5 573.5,249.5 573.5,247.5 Z"/></g>
<g><path style="opacity:0.757" fill="#460d26" d="M 530.5,251.5 C 530.027,252.906 529.027,253.573 527.5,253.5C 527.973,252.094 528.973,251.427 530.5,251.5 Z"/></g>
<g><path style="opacity:0.757" fill="#490f27" d="M 441.5,263.5 C 441.573,265.027 440.906,266.027 439.5,266.5C 439.427,264.973 440.094,263.973 441.5,263.5 Z"/></g>
<g><path style="opacity:0.635" fill="#4e102a" d="M 390.5,261.5 C 388.833,265.167 386.167,267.833 382.5,269.5C 384.833,266.5 387.5,263.833 390.5,261.5 Z"/></g>
<g><path style="opacity:0.725" fill="#410d23" d="M 381.5,270.5 C 381.027,271.906 380.027,272.573 378.5,272.5C 378.973,271.094 379.973,270.427 381.5,270.5 Z"/></g>
<g><path style="opacity:0.859" fill="#5e1132" d="M 435.5,270.5 C 435.027,271.906 434.027,272.573 432.5,272.5C 432.973,271.094 433.973,270.427 435.5,270.5 Z"/></g>
<g><path style="opacity:0.694" fill="#5f1132" d="M 463.5,271.5 C 465.027,271.427 466.027,272.094 466.5,273.5C 464.973,273.573 463.973,272.906 463.5,271.5 Z"/></g>
<g><path style="opacity:0.08" fill="#220913" d="M 400.5,276.5 C 399.833,276.5 399.167,276.5 398.5,276.5C 399.167,273.833 399.833,273.833 400.5,276.5 Z"/></g>
<g><path style="opacity:0.004" fill="#1f0711" d="M 398.5,276.5 C 398.027,277.906 397.027,278.573 395.5,278.5C 395.973,277.094 396.973,276.427 398.5,276.5 Z"/></g>
<g><path style="opacity:0.073" fill="#220a13" d="M 172.5,281.5 C 172.56,280.957 172.893,280.624 173.5,280.5C 174.452,282.045 174.785,283.712 174.5,285.5C 173.833,284.167 173.167,282.833 172.5,281.5 Z"/></g>
<g><path style="opacity:0.498" fill="#3b0b1f" d="M 241.5,282.5 C 241.573,284.027 240.906,285.027 239.5,285.5C 239.427,283.973 240.094,282.973 241.5,282.5 Z"/></g>
<g><path style="opacity:0.42" fill="#350b1d" d="M 148.5,285.5 C 148.573,287.027 147.906,288.027 146.5,288.5C 146.427,286.973 147.094,285.973 148.5,285.5 Z"/></g>
<g><path style="opacity:0.929" fill="#5a1231" d="M 238.5,286.5 C 238.262,288.404 237.262,289.738 235.5,290.5C 235.738,288.596 236.738,287.262 238.5,286.5 Z"/></g>
<g><path style="opacity:0.576" fill="#510f2c" d="M 146.5,288.5 C 146.573,290.027 145.906,291.027 144.5,291.5C 144.427,289.973 145.094,288.973 146.5,288.5 Z"/></g>
<g><path style="opacity:0.718" fill="#591030" d="M 143.5,292.5 C 143.262,294.404 142.262,295.738 140.5,296.5C 140.738,294.596 141.738,293.262 143.5,292.5 Z"/></g>
<g><path style="opacity:0.576" fill="#350d1d" d="M 200.5,292.5 C 202.5,293.833 204.167,295.5 205.5,297.5C 202.833,296.833 201.167,295.167 200.5,292.5 Z"/></g>
<g><path style="opacity:0.78" fill="#500f2b" d="M 231.5,294.5 C 231.027,295.906 230.027,296.573 228.5,296.5C 228.973,295.094 229.973,294.427 231.5,294.5 Z"/></g>
<g><path style="opacity:0.008" fill="#280c17" d="M 253.5,299.5 C 253.573,301.027 252.906,302.027 251.5,302.5C 251.427,300.973 252.094,299.973 253.5,299.5 Z"/></g>
<g><path style="opacity:0.004" fill="#220a13" d="M 251.5,302.5 C 251.027,303.906 250.027,304.573 248.5,304.5C 248.973,303.094 249.973,302.427 251.5,302.5 Z"/></g>
<g><path style="opacity:0.929" fill="#5a1631" d="M 95.5,306.5 C 96.8333,307.167 97.8333,308.167 98.5,309.5C 96.5,309.5 95.5,308.5 95.5,306.5 Z"/></g>
<g><path style="opacity:0.957" fill="#681238" d="M 127.5,308.5 C 127.027,309.906 126.027,310.573 124.5,310.5C 124.973,309.094 125.973,308.427 127.5,308.5 Z"/></g>
<g><path style="opacity:0.004" fill="#280a16" d="M 185.5,308.5 C 186.833,309.167 187.833,310.167 188.5,311.5C 186.5,311.5 185.5,310.5 185.5,308.5 Z"/></g>
<g><path style="opacity:0.349" fill="#310e1c" d="M 190.5,313.5 C 192.027,313.427 193.027,314.094 193.5,315.5C 191.973,315.573 190.973,314.906 190.5,313.5 Z"/></g>
<g><path style="opacity:0.004" fill="#2e0c19" d="M 77.5,320.5 C 79.1667,321.5 80.5,322.833 81.5,324.5C 79.1667,324.167 77.8333,322.833 77.5,320.5 Z"/></g>
<g><path style="opacity:1" fill="#df0e74" d="M 812.5,501.5 C 810.833,502.5 809.5,503.833 808.5,505.5C 796.886,517.765 782.552,523.265 765.5,522C 761,521.559 757,520.059 753.5,517.5C 753.027,516.094 752.027,515.427 750.5,515.5C 749.833,515.5 749.5,515.167 749.5,514.5C 749.027,513.094 748.027,512.427 746.5,512.5C 739.251,504.999 734.917,495.999 733.5,485.5C 733.862,480.644 733.196,479.978 731.5,483.5C 727.305,492.562 721.638,500.562 714.5,507.5C 713.094,507.973 712.427,508.973 712.5,510.5C 699.119,527.023 681.786,535.19 660.5,535C 653.61,534.381 647.61,531.881 642.5,527.5C 641.738,525.738 640.404,524.738 638.5,524.5C 628.97,514.071 625.47,501.738 628,487.5C 629.664,478.841 632.331,470.508 636,462.5C 643,448.833 650,435.167 657,421.5C 662.802,410.159 665.135,398.159 664,385.5C 663.213,381.259 661.379,377.592 658.5,374.5C 658.44,373.957 658.107,373.624 657.5,373.5C 656.571,374.689 656.238,376.022 656.5,377.5C 651.094,402.147 639.094,422.98 620.5,440C 608.516,449.552 595.183,452.219 580.5,448C 578.416,447.303 576.749,446.136 575.5,444.5C 574.738,442.738 573.404,441.738 571.5,441.5C 564.455,431.892 562.622,421.225 566,409.5C 567.143,404.547 569.31,400.214 572.5,396.5C 573.906,396.027 574.573,395.027 574.5,393.5C 575.906,393.027 576.573,392.027 576.5,390.5C 576.833,389.5 577.5,388.833 578.5,388.5C 579.906,388.027 580.573,387.027 580.5,385.5C 582.167,383.167 584.167,381.167 586.5,379.5C 588.404,379.262 589.738,378.262 590.5,376.5C 590.833,375.5 591.5,374.833 592.5,374.5C 594.027,374.573 595.027,373.906 595.5,372.5C 607.077,362.852 620.411,356.852 635.5,354.5C 635.201,349.634 633.534,345.301 630.5,341.5C 632.822,334.004 637.822,331.171 645.5,333C 648.106,333.792 650.106,335.292 651.5,337.5C 651.427,339.027 652.094,340.027 653.5,340.5C 656,343.66 657.333,347.327 657.5,351.5C 657.285,353.179 657.952,354.179 659.5,354.5C 667.16,355.495 673.493,358.828 678.5,364.5C 678.738,366.404 679.738,367.738 681.5,368.5C 684.974,372.453 687.14,377.12 688,382.5C 688.788,389.556 688.455,396.556 687,403.5C 684.791,412.127 681.791,420.46 678,428.5C 670.712,442.742 663.712,457.075 657,471.5C 654.23,478.969 652.397,486.635 651.5,494.5C 651.865,509.665 659.532,516.499 674.5,515C 679.08,513.709 683.413,511.876 687.5,509.5C 689.027,509.573 690.027,508.906 690.5,507.5C 693.167,504.167 696.167,501.167 699.5,498.5C 701.262,497.738 702.262,496.404 702.5,494.5C 702.5,493.833 702.833,493.5 703.5,493.5C 704.906,493.027 705.573,492.027 705.5,490.5C 719.278,468.606 730.112,445.273 738,420.5C 743,404.167 748,387.833 753,371.5C 754.357,368.102 756.19,365.102 758.5,362.5C 760.167,361.5 761.5,360.167 762.5,358.5C 765.764,357.676 769.098,357.342 772.5,357.5C 776.303,360.102 778.303,363.768 778.5,368.5C 776.969,382.956 772.802,396.623 766,409.5C 760.76,424.46 757.093,439.793 755,455.5C 753.091,469.471 755.091,482.805 761,495.5C 769.573,503.851 778.74,504.518 788.5,497.5C 790.027,497.573 791.027,496.906 791.5,495.5C 792.167,494.167 793.167,493.167 794.5,492.5C 796.262,491.738 797.262,490.404 797.5,488.5C 797.5,487.833 797.833,487.5 798.5,487.5C 799.906,487.027 800.573,486.027 800.5,484.5C 802.265,481.291 804.265,478.291 806.5,475.5C 807.906,475.027 808.573,474.027 808.5,472.5C 827.59,440.4 839.423,405.733 844,368.5C 844.667,359.5 844.667,350.5 844,341.5C 839.282,333.065 841.116,326.565 849.5,322C 860.294,320.784 866.461,325.617 868,336.5C 870.595,395.379 854.261,448.379 819,495.5C 816.963,497.706 814.797,499.706 812.5,501.5 Z M 634.5,371.5 C 635.338,371.842 635.672,372.508 635.5,373.5C 632.567,388.639 626.9,402.639 618.5,415.5C 617.094,415.973 616.427,416.973 616.5,418.5C 613.5,420.833 610.833,423.5 608.5,426.5C 606.973,426.427 605.973,427.094 605.5,428.5C 600.245,431.495 594.912,431.829 589.5,429.5C 589.573,427.973 588.906,426.973 587.5,426.5C 586.657,420.533 587.157,414.533 589,408.5C 598.59,389.419 613.757,377.086 634.5,371.5 Z"/></g>
<g><path style="opacity:0.471" fill="#3a0b20" d="M 651.5,337.5 C 652.906,337.973 653.573,338.973 653.5,340.5C 652.094,340.027 651.427,339.027 651.5,337.5 Z"/></g>
<g><path style="opacity:1" fill="#dd0f73" d="M 974.5,344.5 C 974.833,345.5 975.5,346.167 976.5,346.5C 977.117,346.611 977.617,346.944 978,347.5C 978.322,358.221 975.655,368.221 970,377.5C 967.315,387.247 964.481,396.914 961.5,406.5C 960.086,408.044 959.753,409.711 960.5,411.5C 961.522,411.145 962.189,410.478 962.5,409.5C 963.167,408.167 964.167,407.167 965.5,406.5C 967.027,406.573 968.027,405.906 968.5,404.5C 980.465,392.901 994.465,389.401 1010.5,394C 1018.62,399.36 1021.46,406.86 1019,416.5C 1010.83,434.839 997.327,447.506 978.5,454.5C 976.576,454.711 976.243,455.377 977.5,456.5C 980.296,461.893 983.963,466.726 988.5,471C 994.286,474.401 999.953,474.234 1005.5,470.5C 1007.75,469.92 1009.42,468.587 1010.5,466.5C 1012.59,465.415 1013.92,463.749 1014.5,461.5C 1014.5,460.833 1014.83,460.5 1015.5,460.5C 1016.91,460.027 1017.57,459.027 1017.5,457.5C 1020.32,452.527 1023.15,447.527 1026,442.5C 1028.79,425.803 1033.79,409.803 1041,394.5C 1042.67,391.669 1044.83,389.336 1047.5,387.5C 1049.03,387.573 1050.03,386.906 1050.5,385.5C 1057.48,383.323 1061.81,385.823 1063.5,393C 1057.68,407.142 1052.85,421.642 1049,436.5C 1047,444.828 1046.66,453.161 1048,461.5C 1050.11,467.303 1053.94,468.803 1059.5,466C 1062.67,463.665 1065.67,461.165 1068.5,458.5C 1069.91,458.027 1070.57,457.027 1070.5,455.5C 1075.85,446.131 1081.18,436.798 1086.5,427.5C 1088.03,427.573 1089.03,426.906 1089.5,425.5C 1092.41,424.299 1095.41,424.466 1098.5,426C 1100.44,427.722 1101.44,429.889 1101.5,432.5C 1094.66,452.024 1082.66,467.524 1065.5,479C 1056.29,483.102 1046.95,483.435 1037.5,480C 1033.67,477.5 1030.5,474.333 1028,470.5C 1014.92,487.416 998.086,492.916 977.5,487C 965.646,479.612 957.646,469.279 953.5,456C 954.236,453.861 955.236,451.861 956.5,450C 961.657,447.338 966.99,445.171 972.5,443.5C 974.027,443.573 975.027,442.906 975.5,441.5C 977.619,439.6 979.953,437.934 982.5,436.5C 984.027,436.573 985.027,435.906 985.5,434.5C 986.5,432.833 987.833,431.5 989.5,430.5C 990.906,430.027 991.573,429.027 991.5,427.5C 991.5,426.833 991.833,426.5 992.5,426.5C 993.906,426.027 994.573,425.027 994.5,423.5C 996.95,418.47 997.95,413.136 997.5,407.5C 994.059,407.301 990.726,407.801 987.5,409C 970.013,418.153 957.847,431.987 951,450.5C 946.86,464.062 943.193,477.729 940,491.5C 936.064,497.391 930.897,498.891 924.5,496C 923.177,495.184 922.511,494.017 922.5,492.5C 922.655,489.147 921.988,488.814 920.5,491.5C 910.089,501.083 898.089,503.583 884.5,499C 883.058,498.623 882.058,497.79 881.5,496.5C 881.027,495.094 880.027,494.427 878.5,494.5C 874.738,490.297 872.571,485.297 872,479.5C 871.907,455.202 877.74,432.535 889.5,411.5C 891.262,410.738 892.262,409.404 892.5,407.5C 894.027,407.573 895.027,406.906 895.5,405.5C 900.426,402.466 904.926,403.132 909,407.5C 909.167,409 909.333,410.5 909.5,412C 905.499,424.514 901.332,437.014 897,449.5C 894.25,458.661 893.25,467.995 894,477.5C 895.929,486.548 900.762,488.548 908.5,483.5C 911.5,482.5 913.5,480.5 914.5,477.5C 915.604,475.611 916.937,473.945 918.5,472.5C 919.906,472.027 920.573,471.027 920.5,469.5C 923.307,463.886 926.14,458.22 929,452.5C 937.427,417.456 947.093,382.789 958,348.5C 962.859,343.407 968.359,342.074 974.5,344.5 Z"/></g>
<g><path style="opacity:0.004" fill="#250814" d="M 974.5,344.5 C 975.833,344.5 976.5,345.167 976.5,346.5C 975.5,346.167 974.833,345.5 974.5,344.5 Z"/></g>
<g><path style="opacity:1" fill="#d5106f" d="M 1062.5,347.5 C 1075.19,346.677 1080.02,352.343 1077,364.5C 1072.22,373.208 1065.05,376.042 1055.5,373C 1048.36,364.737 1049.03,357.07 1057.5,350C 1059.31,349.243 1060.98,348.41 1062.5,347.5 Z"/></g>
<g><path style="opacity:0.076" fill="#040002" d="M 657.5,351.5 C 658.401,352.29 659.068,353.29 659.5,354.5C 657.952,354.179 657.285,353.179 657.5,351.5 Z"/></g>
<g><path style="opacity:0.639" fill="#3d0c21" d="M 772.5,357.5 C 769.098,357.342 765.764,357.676 762.5,358.5C 762.611,357.883 762.944,357.383 763.5,357C 766.696,356.195 769.696,356.362 772.5,357.5 Z"/></g>
<g><path style="opacity:0.796" fill="#590f2f" d="M 762.5,358.5 C 761.5,360.167 760.167,361.5 758.5,362.5C 758.833,360.167 760.167,358.833 762.5,358.5 Z"/></g>
<g><path style="opacity:0.729" fill="#5a1130" d="M 678.5,364.5 C 680.262,365.262 681.262,366.596 681.5,368.5C 679.738,367.738 678.738,366.404 678.5,364.5 Z"/></g>
<g><path style="opacity:1" fill="#d71070" d="M 901.5,390.5 C 901.167,389.5 900.5,388.833 899.5,388.5C 897.555,386.693 896.555,384.36 896.5,381.5C 896.555,378.64 897.555,376.307 899.5,374.5C 900.906,374.027 901.573,373.027 901.5,371.5C 906.215,366.878 911.882,365.378 918.5,367C 922.953,369.071 924.953,372.571 924.5,377.5C 923.526,387.141 918.193,392.474 908.5,393.5C 905.64,393.445 903.307,392.445 901.5,390.5 Z"/></g>
<g><path style="opacity:0.525" fill="#450223" d="M 634.5,371.5 C 635.302,370.115 635.969,370.282 636.5,372C 636.43,372.765 636.097,373.265 635.5,373.5C 635.672,372.508 635.338,371.842 634.5,371.5 Z"/></g>
<g><path style="opacity:0.808" fill="#510f2b" d="M 595.5,372.5 C 595.027,373.906 594.027,374.573 592.5,374.5C 592.973,373.094 593.973,372.427 595.5,372.5 Z"/></g>
<g><path style="opacity:0.624" fill="#560f2e" d="M 901.5,371.5 C 901.573,373.027 900.906,374.027 899.5,374.5C 899.427,372.973 900.094,371.973 901.5,371.5 Z"/></g>
<g><path style="opacity:0.065" fill="#100107" d="M 658.5,374.5 C 657.833,375.5 657.167,376.5 656.5,377.5C 656.238,376.022 656.571,374.689 657.5,373.5C 658.107,373.624 658.44,373.957 658.5,374.5 Z"/></g>
<g><path style="opacity:0.757" fill="#56102e" d="M 590.5,376.5 C 589.738,378.262 588.404,379.262 586.5,379.5C 587.262,377.738 588.596,376.738 590.5,376.5 Z"/></g>
<g><path style="opacity:0.78" fill="#4c1029" d="M 580.5,385.5 C 580.573,387.027 579.906,388.027 578.5,388.5C 578.427,386.973 579.094,385.973 580.5,385.5 Z"/></g>
<g><path style="opacity:0.867" fill="#50142c" d="M 1050.5,385.5 C 1050.03,386.906 1049.03,387.573 1047.5,387.5C 1047.97,386.094 1048.97,385.427 1050.5,385.5 Z"/></g>
<g><path style="opacity:0.012" fill="#2e0c1a" d="M 899.5,388.5 C 900.5,388.833 901.167,389.5 901.5,390.5C 900.167,390.5 899.5,389.833 899.5,388.5 Z"/></g>
<g><path style="opacity:0.431" fill="#340a1c" d="M 576.5,390.5 C 576.573,392.027 575.906,393.027 574.5,393.5C 574.427,391.973 575.094,390.973 576.5,390.5 Z"/></g>
<g><path style="opacity:0.471" fill="#400b22" d="M 574.5,393.5 C 574.573,395.027 573.906,396.027 572.5,396.5C 572.427,394.973 573.094,393.973 574.5,393.5 Z"/></g>
<g><path style="opacity:0.827" fill="#54102c" d="M 968.5,404.5 C 968.027,405.906 967.027,406.573 965.5,406.5C 965.973,405.094 966.973,404.427 968.5,404.5 Z"/></g>
<g><path style="opacity:0.851" fill="#59102f" d="M 895.5,405.5 C 895.027,406.906 894.027,407.573 892.5,407.5C 892.973,406.094 893.973,405.427 895.5,405.5 Z"/></g>
<g><path style="opacity:0.906" fill="#54112d" d="M 892.5,407.5 C 892.262,409.404 891.262,410.738 889.5,411.5C 889.738,409.596 890.738,408.262 892.5,407.5 Z"/></g>
<g><path style="opacity:0.041" fill="#2b0b18" d="M 961.5,406.5 C 961.263,407.791 961.596,408.791 962.5,409.5C 962.189,410.478 961.522,411.145 960.5,411.5C 959.753,409.711 960.086,408.044 961.5,406.5 Z"/></g>
<g><path style="opacity:0.573" fill="#490e27" d="M 618.5,415.5 C 618.573,417.027 617.906,418.027 616.5,418.5C 616.427,416.973 617.094,415.973 618.5,415.5 Z"/></g>
<g><path style="opacity:0.494" fill="#450c25" d="M 994.5,423.5 C 994.573,425.027 993.906,426.027 992.5,426.5C 992.427,424.973 993.094,423.973 994.5,423.5 Z"/></g>
<g><path style="opacity:0.835" fill="#4e122a" d="M 1089.5,425.5 C 1089.03,426.906 1088.03,427.573 1086.5,427.5C 1086.97,426.094 1087.97,425.427 1089.5,425.5 Z"/></g>
<g><path style="opacity:0.824" fill="#500f2b" d="M 608.5,426.5 C 608.027,427.906 607.027,428.573 605.5,428.5C 605.973,427.094 606.973,426.427 608.5,426.5 Z"/></g>
<g><path style="opacity:0.447" fill="#340a1c" d="M 587.5,426.5 C 588.906,426.973 589.573,427.973 589.5,429.5C 588.094,429.027 587.427,428.027 587.5,426.5 Z"/></g>
<g><path style="opacity:0.843" fill="#581230" d="M 991.5,427.5 C 991.573,429.027 990.906,430.027 989.5,430.5C 989.427,428.973 990.094,427.973 991.5,427.5 Z"/></g>
<g><path style="opacity:0.82" fill="#5d1132" d="M 985.5,434.5 C 985.027,435.906 984.027,436.573 982.5,436.5C 982.973,435.094 983.973,434.427 985.5,434.5 Z"/></g>
<g><path style="opacity:0.812" fill="#50112b" d="M 571.5,441.5 C 573.404,441.738 574.738,442.738 575.5,444.5C 573.596,444.262 572.262,443.262 571.5,441.5 Z"/></g>
<g><path style="opacity:0.816" fill="#4c1129" d="M 975.5,441.5 C 975.027,442.906 974.027,443.573 972.5,443.5C 972.973,442.094 973.973,441.427 975.5,441.5 Z"/></g>
<g><path style="opacity:0.329" fill="#1c010e" d="M 978.5,454.5 C 978.167,455.167 977.833,455.833 977.5,456.5C 976.243,455.377 976.576,454.711 978.5,454.5 Z"/></g>
<g><path style="opacity:0.655" fill="#5f1133" d="M 1070.5,455.5 C 1070.57,457.027 1069.91,458.027 1068.5,458.5C 1068.43,456.973 1069.09,455.973 1070.5,455.5 Z"/></g>
<g><path style="opacity:0.451" fill="#380a1e" d="M 1017.5,457.5 C 1017.57,459.027 1016.91,460.027 1015.5,460.5C 1015.43,458.973 1016.09,457.973 1017.5,457.5 Z"/></g>
<g><path style="opacity:0.682" fill="#4f112a" d="M 1014.5,461.5 C 1013.92,463.749 1012.59,465.415 1010.5,466.5C 1011.08,464.251 1012.41,462.585 1014.5,461.5 Z"/></g>
<g><path style="opacity:0.604" fill="#4c0e28" d="M 1010.5,466.5 C 1009.42,468.587 1007.75,469.92 1005.5,470.5C 1006.58,468.413 1008.25,467.08 1010.5,466.5 Z"/></g>
<g><path style="opacity:0.396" fill="#310b1b" d="M 920.5,469.5 C 920.573,471.027 919.906,472.027 918.5,472.5C 918.427,470.973 919.094,469.973 920.5,469.5 Z"/></g>
<g><path style="opacity:0.341" fill="#300e1b" d="M 808.5,472.5 C 808.573,474.027 807.906,475.027 806.5,475.5C 806.427,473.973 807.094,472.973 808.5,472.5 Z"/></g>
<g><path style="opacity:0.741" fill="#601333" d="M 914.5,477.5 C 913.5,480.5 911.5,482.5 908.5,483.5C 910.167,481.167 912.167,479.167 914.5,477.5 Z"/></g>
<g><path style="opacity:0.243" fill="#1b040e" d="M 733.5,485.5 C 732.833,484.833 732.167,484.167 731.5,483.5C 733.196,479.978 733.862,480.644 733.5,485.5 Z"/></g>
<g><path style="opacity:0.475" fill="#370a1e" d="M 800.5,484.5 C 800.573,486.027 799.906,487.027 798.5,487.5C 798.427,485.973 799.094,484.973 800.5,484.5 Z"/></g>
<g><path style="opacity:0.675" fill="#4c0f29" d="M 797.5,488.5 C 797.262,490.404 796.262,491.738 794.5,492.5C 794.738,490.596 795.738,489.262 797.5,488.5 Z"/></g>
<g><path style="opacity:0.267" fill="#1b030e" d="M 922.5,492.5 C 921.833,492.167 921.167,491.833 920.5,491.5C 921.988,488.814 922.655,489.147 922.5,492.5 Z"/></g>
<g><path style="opacity:0.525" fill="#470d26" d="M 705.5,490.5 C 705.573,492.027 704.906,493.027 703.5,493.5C 703.427,491.973 704.094,490.973 705.5,490.5 Z"/></g>
<g><path style="opacity:0.545" fill="#3c0b20" d="M 878.5,494.5 C 880.027,494.427 881.027,495.094 881.5,496.5C 879.973,496.573 878.973,495.906 878.5,494.5 Z"/></g>
<g><path style="opacity:0.745" fill="#5b1131" d="M 702.5,494.5 C 702.262,496.404 701.262,497.738 699.5,498.5C 699.738,496.596 700.738,495.262 702.5,494.5 Z"/></g>
<g><path style="opacity:0.678" fill="#410c23" d="M 791.5,495.5 C 791.027,496.906 790.027,497.573 788.5,497.5C 788.973,496.094 789.973,495.427 791.5,495.5 Z"/></g>
<g><path style="opacity:0.004" fill="#240a14" d="M 812.5,501.5 C 812.167,503.833 810.833,505.167 808.5,505.5C 809.5,503.833 810.833,502.5 812.5,501.5 Z"/></g>
<g><path style="opacity:0.824" fill="#54102e" d="M 690.5,507.5 C 690.027,508.906 689.027,509.573 687.5,509.5C 687.973,508.094 688.973,507.427 690.5,507.5 Z"/></g>
<g><path style="opacity:0.008" fill="#290c17" d="M 714.5,507.5 C 714.573,509.027 713.906,510.027 712.5,510.5C 712.427,508.973 713.094,507.973 714.5,507.5 Z"/></g>
<g><path style="opacity:0.851" fill="#591330" d="M 746.5,512.5 C 748.027,512.427 749.027,513.094 749.5,514.5C 747.973,514.573 746.973,513.906 746.5,512.5 Z"/></g>
<g><path style="opacity:0.475" fill="#430c24" d="M 750.5,515.5 C 752.027,515.427 753.027,516.094 753.5,517.5C 751.973,517.573 750.973,516.906 750.5,515.5 Z"/></g>
<g><path style="opacity:0.984" fill="#651436" d="M 638.5,524.5 C 640.404,524.738 641.738,525.738 642.5,527.5C 640.596,527.262 639.262,526.262 638.5,524.5 Z"/></g>
</svg>
