<?xml version="1.0" encoding="UTF-8"?>
<!DOCTYPE svg PUBLIC "-//W3C//DTD SVG 1.1//EN" "http://www.w3.org/Graphics/SVG/1.1/DTD/svg11.dtd">
<svg xmlns="http://www.w3.org/2000/svg" version="1.1" width="1918px" height="1080px" style="shape-rendering:geometricPrecision; text-rendering:geometricPrecision; image-rendering:optimizeQuality; fill-rule:evenodd; clip-rule:evenodd" xmlns:xlink="http://www.w3.org/1999/xlink">
<g><path style="opacity:1" fill="#e20b75" d="M 1260.5,174.5 C 1251.35,173.506 1242.01,173.173 1232.5,173.5C 1232.5,174.833 1232.5,176.167 1232.5,177.5C 1230.22,201.919 1218.88,220.752 1198.5,234C 1186.64,239.541 1174.64,239.875 1162.5,235C 1152.51,227.718 1148.34,217.885 1150,205.5C 1153.93,190.901 1162.43,179.734 1175.5,172C 1184.81,166.174 1194.81,162.007 1205.5,159.5C 1206.98,159.762 1208.31,159.429 1209.5,158.5C 1209.38,157.893 1209.04,157.56 1208.5,157.5C 1205.77,154.845 1205.1,151.845 1206.5,148.5C 1207.91,148.027 1208.57,147.027 1208.5,145.5C 1210.33,143.106 1212.83,142.106 1216,142.5C 1219.87,142.359 1223.04,143.693 1225.5,146.5C 1225.43,148.027 1226.09,149.027 1227.5,149.5C 1228.96,150.406 1229.96,151.739 1230.5,153.5C 1250.16,153.713 1269.83,154.88 1289.5,157C 1302.79,158.353 1315.79,157.02 1328.5,153C 1333.22,150.313 1337.55,147.146 1341.5,143.5C 1342.91,143.027 1343.57,142.027 1343.5,140.5C 1344.34,138.827 1345.68,137.66 1347.5,137C 1357.5,135.338 1362,139.504 1361,149.5C 1355.1,160.378 1346.27,167.878 1334.5,172C 1322.47,175.837 1310.14,177.67 1297.5,177.5C 1285.11,177.04 1272.78,176.04 1260.5,174.5 Z M 1200.5,205.5 C 1199.09,205.973 1198.43,206.973 1198.5,208.5C 1197.17,209.167 1196.17,210.167 1195.5,211.5C 1193.83,212.5 1192.5,213.833 1191.5,215.5C 1187.97,218.055 1183.97,219.388 1179.5,219.5C 1178.71,218.599 1177.71,217.932 1176.5,217.5C 1174.07,215.492 1173.07,212.826 1173.5,209.5C 1174.19,201.628 1177.86,195.462 1184.5,191C 1192.07,185.414 1200.4,181.247 1209.5,178.5C 1209.8,182.842 1208.97,187.175 1207,191.5C 1205.08,196.339 1202.91,201.006 1200.5,205.5 Z"/></g>
<g><path style="opacity:0.722" fill="#5e1231" d="M 1343.5,140.5 C 1343.57,142.027 1342.91,143.027 1341.5,143.5C 1341.43,141.973 1342.09,140.973 1343.5,140.5 Z"/></g>
<g><path style="opacity:1" fill="#e10b74" d="M 1561.5,147.5 C 1561.43,149.027 1562.09,150.027 1563.5,150.5C 1564.65,154.054 1564.49,157.72 1563,161.5C 1555.93,180.451 1550.1,199.784 1545.5,219.5C 1544.83,219.5 1544.5,219.833 1544.5,220.5C 1543.43,221.251 1543.26,222.251 1544,223.5C 1545.48,222.529 1546.31,221.196 1546.5,219.5C 1548.45,215.88 1551.12,212.88 1554.5,210.5C 1556.17,209.5 1557.5,208.167 1558.5,206.5C 1566.8,195.899 1577.47,192.399 1590.5,196C 1601.07,201.333 1604.9,209.833 1602,221.5C 1598.29,233.262 1594.29,244.929 1590,256.5C 1588.16,261.86 1588.16,267.193 1590,272.5C 1591.12,274.124 1592.62,275.124 1594.5,275.5C 1599.01,273.975 1603.01,271.641 1606.5,268.5C 1607.91,268.027 1608.57,267.027 1608.5,265.5C 1616.41,255.443 1621.24,244.109 1623,231.5C 1631.3,206.87 1647.8,190.703 1672.5,183C 1680.35,181.912 1688.01,182.579 1695.5,185C 1703.41,190.045 1706.24,197.212 1704,206.5C 1700.74,215.094 1695.24,221.927 1687.5,227C 1674.75,235.973 1660.75,242.139 1645.5,245.5C 1644.71,254.443 1648.38,260.609 1656.5,264C 1676.59,265.874 1693.09,259.04 1706,243.5C 1710.04,236.583 1714.21,229.75 1718.5,223C 1725.95,219.559 1730.61,221.725 1732.5,229.5C 1719.03,262.61 1694.37,280.277 1658.5,282.5C 1648.02,282.614 1638.36,279.447 1629.5,273C 1628.7,271.229 1627.53,269.729 1626,268.5C 1617.22,281.218 1605.22,288.551 1590,290.5C 1575.09,289.255 1567.26,281.088 1566.5,266C 1566.95,261.43 1567.78,256.93 1569,252.5C 1573.33,241.664 1577.17,230.664 1580.5,219.5C 1581.16,218.378 1581.49,217.045 1581.5,215.5C 1581.41,213.667 1580.75,212.334 1579.5,211.5C 1575.28,210.979 1571.61,212.146 1568.5,215C 1553.71,229.41 1542.54,246.243 1535,265.5C 1532,275.511 1529,285.511 1526,295.5C 1522.6,299.203 1518.44,300.369 1513.5,299C 1511.68,298.34 1510.34,297.173 1509.5,295.5C 1509.72,294.325 1509.39,293.325 1508.5,292.5C 1507.89,292.624 1507.56,292.957 1507.5,293.5C 1497.25,303.186 1485.25,306.019 1471.5,302C 1460.99,296.496 1455.99,287.663 1456.5,275.5C 1458.12,258.024 1461.79,241.024 1467.5,224.5C 1468.04,224.44 1468.38,224.107 1468.5,223.5C 1464.22,222.508 1459.88,222.174 1455.5,222.5C 1451.96,219.05 1451.63,215.217 1454.5,211C 1460.65,208.938 1466.98,207.772 1473.5,207.5C 1477,193.827 1482.17,180.827 1489,168.5C 1493.57,162.498 1499.07,161.165 1505.5,164.5C 1505.43,166.027 1506.09,167.027 1507.5,167.5C 1508.63,169.966 1508.8,172.633 1508,175.5C 1504.17,184.142 1500.67,192.809 1497.5,201.5C 1496.75,202.531 1496.08,203.698 1495.5,205C 1496.75,205.74 1497.75,205.573 1498.5,204.5C 1502.46,203.56 1506.46,203.393 1510.5,204C 1514.95,207.356 1515.61,211.356 1512.5,216C 1506.07,218.419 1499.41,219.585 1492.5,219.5C 1491.17,219.5 1490.5,220.167 1490.5,221.5C 1487.03,233.736 1483.87,246.07 1481,258.5C 1479.56,266.452 1479.22,274.452 1480,282.5C 1480.85,286.512 1483.35,288.512 1487.5,288.5C 1490.03,288.237 1492.36,287.404 1494.5,286C 1496.7,283.628 1499.04,281.461 1501.5,279.5C 1502.91,279.027 1503.57,278.027 1503.5,276.5C 1507.1,270.962 1510.43,265.296 1513.5,259.5C 1515.86,257.081 1516.86,254.081 1516.5,250.5C 1524.06,218.265 1532.56,186.265 1542,154.5C 1546.48,146.064 1552.98,143.73 1561.5,147.5 Z M 1680.5,208.5 C 1679.09,208.973 1678.43,209.973 1678.5,211.5C 1669.89,220.468 1659.56,226.302 1647.5,229C 1650.9,218.862 1656.57,210.196 1664.5,203C 1668.24,200.215 1672.4,198.382 1677,197.5C 1678.71,197.439 1680.04,198.106 1681,199.5C 1681.63,202.555 1681.47,205.555 1680.5,208.5 Z"/></g>
<g><path style="opacity:0.455" fill="#611134" d="M 1208.5,145.5 C 1208.57,147.027 1207.91,148.027 1206.5,148.5C 1206.43,146.973 1207.09,145.973 1208.5,145.5 Z"/></g>
<g><path style="opacity:0.792" fill="#651337" d="M 1225.5,146.5 C 1226.91,146.973 1227.57,147.973 1227.5,149.5C 1226.09,149.027 1225.43,148.027 1225.5,146.5 Z"/></g>
<g><path style="opacity:0.384" fill="#540f2d" d="M 1561.5,147.5 C 1562.91,147.973 1563.57,148.973 1563.5,150.5C 1562.09,150.027 1561.43,149.027 1561.5,147.5 Z"/></g>
<g><path style="opacity:0.631" fill="#640d35" d="M 1208.5,157.5 C 1209.04,157.56 1209.38,157.893 1209.5,158.5C 1208.31,159.429 1206.98,159.762 1205.5,159.5C 1206.5,158.833 1207.5,158.167 1208.5,157.5 Z"/></g>
<g><path style="opacity:0.502" fill="#661236" d="M 1505.5,164.5 C 1506.91,164.973 1507.57,165.973 1507.5,167.5C 1506.09,167.027 1505.43,166.027 1505.5,164.5 Z"/></g>
<g><path style="opacity:0.017" fill="#200812" d="M 1260.5,174.5 C 1251.5,174.5 1242.5,174.5 1233.5,174.5C 1233.74,175.791 1233.4,176.791 1232.5,177.5C 1232.5,176.167 1232.5,174.833 1232.5,173.5C 1242.01,173.173 1251.35,173.506 1260.5,174.5 Z"/></g>
<g><path style="opacity:1" fill="#e10b75" d="M 1128.5,330.5 C 1128.03,329.094 1127.03,328.427 1125.5,328.5C 1107.35,311.905 1099.68,291.572 1102.5,267.5C 1103.91,267.027 1104.57,266.027 1104.5,264.5C 1106.03,264.573 1107.03,263.906 1107.5,262.5C 1111.62,260.061 1115.95,259.894 1120.5,262C 1141.64,272.535 1163.97,278.868 1187.5,281C 1189.29,281.785 1190.79,282.951 1192,284.5C 1193.97,294.87 1189.63,299.537 1179,298.5C 1160.44,297.567 1142.6,293.567 1125.5,286.5C 1124.7,285.115 1124.03,285.282 1123.5,287C 1123.57,287.765 1123.9,288.265 1124.5,288.5C 1127.3,294.755 1130.63,300.755 1134.5,306.5C 1134.43,308.027 1135.09,309.027 1136.5,309.5C 1146.15,319.326 1157.81,325.493 1171.5,328C 1185.33,330.068 1198,327.235 1209.5,319.5C 1211.4,319.262 1212.74,318.262 1213.5,316.5C 1213.5,315.833 1213.83,315.5 1214.5,315.5C 1216.26,314.738 1217.26,313.404 1217.5,311.5C 1224.2,301.753 1229.04,291.086 1232,279.5C 1235.32,263.947 1237.98,248.28 1240,232.5C 1242.76,215.165 1250.26,200.331 1262.5,188C 1267.96,183.568 1273.96,182.568 1280.5,185C 1283.19,187.653 1284.03,190.82 1283,194.5C 1275.28,202.558 1269.62,211.891 1266,222.5C 1261.91,244.874 1257.58,267.208 1253,289.5C 1239.41,333.723 1209.58,352.89 1163.5,347C 1150.2,344.682 1138.54,339.182 1128.5,330.5 Z"/></g>
<g><path style="opacity:0.231" fill="#3d0521" d="M 1497.5,201.5 C 1497.26,202.791 1497.6,203.791 1498.5,204.5C 1497.75,205.573 1496.75,205.74 1495.5,205C 1496.08,203.698 1496.75,202.531 1497.5,201.5 Z"/></g>
<g><path style="opacity:0.478" fill="#621035" d="M 1200.5,205.5 C 1200.57,207.027 1199.91,208.027 1198.5,208.5C 1198.43,206.973 1199.09,205.973 1200.5,205.5 Z"/></g>
<g><path style="opacity:0.592" fill="#5b1131" d="M 1558.5,206.5 C 1557.5,208.167 1556.17,209.5 1554.5,210.5C 1554.83,208.167 1556.17,206.833 1558.5,206.5 Z"/></g>
<g><path style="opacity:0.443" fill="#590f2f" d="M 1680.5,208.5 C 1680.57,210.027 1679.91,211.027 1678.5,211.5C 1678.43,209.973 1679.09,208.973 1680.5,208.5 Z"/></g>
<g><path style="opacity:0.659" fill="#651435" d="M 1195.5,211.5 C 1195.17,213.833 1193.83,215.167 1191.5,215.5C 1192.5,213.833 1193.83,212.5 1195.5,211.5 Z"/></g>
<g><path style="opacity:0.243" fill="#55042d" d="M 1579.5,211.5 C 1580.75,212.334 1581.41,213.667 1581.5,215.5C 1581.49,217.045 1581.16,218.378 1580.5,219.5C 1580.72,216.721 1580.39,214.054 1579.5,211.5 Z"/></g>
<g><path style="opacity:0.878" fill="#5d1432" d="M 1176.5,217.5 C 1177.71,217.932 1178.71,218.599 1179.5,219.5C 1177.82,219.715 1176.82,219.048 1176.5,217.5 Z"/></g>
<g><path style="opacity:0.086" fill="#230814" d="M 1492.5,219.5 C 1492.17,220.5 1491.5,221.167 1490.5,221.5C 1490.5,220.167 1491.17,219.5 1492.5,219.5 Z"/></g>
<g><path style="opacity:0.278" fill="#570a2e" d="M 1545.5,219.5 C 1545.83,219.5 1546.17,219.5 1546.5,219.5C 1546.31,221.196 1545.48,222.529 1544,223.5C 1543.26,222.251 1543.43,221.251 1544.5,220.5C 1545.17,220.5 1545.5,220.167 1545.5,219.5 Z"/></g>
<g><path style="opacity:0.69" fill="#580b2e" d="M 1455.5,222.5 C 1459.88,222.174 1464.22,222.508 1468.5,223.5C 1468.38,224.107 1468.04,224.44 1467.5,224.5C 1463.5,223.833 1459.5,223.167 1455.5,222.5 Z"/></g>
<g><path style="opacity:1" fill="#e10b75" d="M 1366.5,233.5 C 1366.43,235.027 1367.09,236.027 1368.5,236.5C 1371.56,239.824 1373.4,243.824 1374,248.5C 1376.19,264.234 1373.02,278.734 1364.5,292C 1369.55,292.404 1374.22,291.237 1378.5,288.5C 1380.03,288.573 1381.03,287.906 1381.5,286.5C 1382.17,285.167 1383.17,284.167 1384.5,283.5C 1385.91,283.027 1386.57,282.027 1386.5,280.5C 1389.65,274.861 1392.82,269.194 1396,263.5C 1400.94,259.631 1405.61,259.964 1410,264.5C 1411.37,266.695 1411.71,269.029 1411,271.5C 1399.88,296.982 1380.38,309.149 1352.5,308C 1338.13,322.235 1321.13,326.902 1301.5,322C 1299.27,321.059 1297.27,319.892 1295.5,318.5C 1295.03,317.094 1294.03,316.427 1292.5,316.5C 1289.11,314.275 1286.61,311.275 1285,307.5C 1278.49,287.918 1281.32,269.918 1293.5,253.5C 1294.91,253.027 1295.57,252.027 1295.5,250.5C 1309.12,230.853 1327.79,222.353 1351.5,225C 1357.46,226.31 1362.46,229.144 1366.5,233.5 Z M 1334.5,240.5 C 1341.13,239.231 1345.96,241.564 1349,247.5C 1351.47,260.062 1350.64,272.396 1346.5,284.5C 1337.72,285.753 1334.39,290.587 1336.5,299C 1329.95,307.191 1321.95,309.191 1312.5,305C 1310.62,303.457 1309.12,301.624 1308,299.5C 1303.99,277.866 1310.16,259.699 1326.5,245C 1329.19,243.395 1331.86,241.895 1334.5,240.5 Z"/></g>
<g><path style="opacity:0.827" fill="#691439" d="M 1366.5,233.5 C 1367.91,233.973 1368.57,234.973 1368.5,236.5C 1367.09,236.027 1366.43,235.027 1366.5,233.5 Z"/></g>
<g><path style="opacity:1" fill="#e20b75" d="M 330.5,443.5 C 330.027,442.094 329.027,441.427 327.5,441.5C 326.5,441.167 325.833,440.5 325.5,439.5C 325.027,438.094 324.027,437.427 322.5,437.5C 316.681,430.526 313.014,422.526 311.5,413.5C 311.785,411.712 311.452,410.045 310.5,408.5C 309.893,408.624 309.56,408.957 309.5,409.5C 298.656,431.843 281.99,448.343 259.5,459C 245.848,463.337 232.848,462.004 220.5,455C 207.001,443.544 202.168,429.044 206,411.5C 207.934,404.363 210.268,397.363 213,390.5C 223.349,372.136 232.349,353.136 240,333.5C 242.751,325.25 243.084,316.917 241,308.5C 239.988,305.798 238.488,303.465 236.5,301.5C 235.012,298.814 234.345,299.147 234.5,302.5C 229.216,329.578 215.883,351.744 194.5,369C 181.349,377.63 167.683,378.63 153.5,372C 141.822,360.45 138.988,346.95 145,331.5C 146.774,326.93 149.274,322.93 152.5,319.5C 153.906,319.027 154.573,318.027 154.5,316.5C 161.055,307.07 169.388,299.736 179.5,294.5C 181.027,294.573 182.027,293.906 182.5,292.5C 192.076,286.691 202.409,282.525 213.5,280C 212.764,276.45 211.264,273.283 209,270.5C 208.638,263.35 212.138,259.35 219.5,258.5C 229.871,261.545 235.205,268.545 235.5,279.5C 236.183,281.176 237.517,281.843 239.5,281.5C 257.03,286.683 266.03,298.516 266.5,317C 266.022,324.704 264.522,332.204 262,339.5C 254.136,358.227 245.469,376.56 236,394.5C 232.495,402.846 230.328,411.512 229.5,420.5C 230.012,436.183 238.012,443.016 253.5,441C 258.725,439.721 263.391,437.388 267.5,434C 270.703,430.629 274.036,427.462 277.5,424.5C 278.906,424.027 279.573,423.027 279.5,421.5C 280.604,419.611 281.937,417.945 283.5,416.5C 284.906,416.027 285.573,415.027 285.5,413.5C 298.698,391.098 309.198,367.432 317,342.5C 321.333,328.167 325.667,313.833 330,299.5C 331.533,294.501 334.033,290.167 337.5,286.5C 339.027,286.573 340.027,285.906 340.5,284.5C 350.86,280.653 355.86,284.486 355.5,296C 355.263,301.591 354.429,307.091 353,312.5C 344.459,331.791 338.125,351.791 334,372.5C 332.522,383.127 332.188,393.794 333,404.5C 333.573,410.129 335.073,415.463 337.5,420.5C 337.833,422.833 339.167,424.167 341.5,424.5C 350.989,430.192 359.989,429.359 368.5,422C 371.067,418.997 373.734,416.164 376.5,413.5C 377.906,413.027 378.573,412.027 378.5,410.5C 402.778,374.506 417.278,334.839 422,291.5C 423.127,280.477 422.294,269.644 419.5,259C 422.356,248.739 428.689,245.739 438.5,250C 441.531,252.559 443.698,255.726 445,259.5C 448.449,284.877 446.449,309.877 439,334.5C 429.745,370.015 413.411,401.682 390,429.5C 376.614,443.941 360.114,450.108 340.5,448C 336.771,447.156 333.437,445.656 330.5,443.5 Z M 200.5,335.5 C 199.094,335.973 198.427,336.973 198.5,338.5C 193.231,346.601 186.231,352.768 177.5,357C 168.961,358.468 164.627,354.802 164.5,346C 167.068,329.53 175.401,316.863 189.5,308C 196.76,302.805 204.76,299.805 213.5,299C 210.855,311.769 206.521,323.936 200.5,335.5 Z"/></g>
<g><path style="opacity:0.49" fill="#651035" d="M 1295.5,250.5 C 1295.57,252.027 1294.91,253.027 1293.5,253.5C 1293.43,251.973 1294.09,250.973 1295.5,250.5 Z"/></g>
<g><path style="opacity:0.757" fill="#5e0f32" d="M 1516.5,250.5 C 1516.86,254.081 1515.86,257.081 1513.5,259.5C 1514.33,256.341 1515.33,253.341 1516.5,250.5 Z"/></g>
<g><path style="opacity:0.737" fill="#5f0f34" d="M 1107.5,262.5 C 1107.03,263.906 1106.03,264.573 1104.5,264.5C 1104.97,263.094 1105.97,262.427 1107.5,262.5 Z"/></g>
<g><path style="opacity:1" fill="#e10b75" d="M 576.5,394.5 C 577.906,394.027 578.573,393.027 578.5,391.5C 583.159,384.858 587.325,377.858 591,370.5C 592.004,359.308 595.837,349.308 602.5,340.5C 603.906,340.027 604.573,339.027 604.5,337.5C 604.5,336.833 604.833,336.5 605.5,336.5C 606.906,336.027 607.573,335.027 607.5,333.5C 621.707,314.893 640.374,307.059 663.5,310C 672.081,312.646 676.748,318.48 677.5,327.5C 676.619,337.2 671.952,344.367 663.5,349C 655.125,351.151 649.792,348.151 647.5,340C 648.679,334.962 650.346,330.129 652.5,325.5C 653.043,325.44 653.376,325.107 653.5,324.5C 651.027,323.203 648.693,323.203 646.5,324.5C 630.692,332.415 620.858,345.082 617,362.5C 612.982,388.134 623.482,396.967 648.5,389C 654.252,387.289 659.586,384.789 664.5,381.5C 666.027,381.573 667.027,380.906 667.5,379.5C 669.833,376.5 672.5,373.833 675.5,371.5C 676.906,371.027 677.573,370.027 677.5,368.5C 679.172,365.978 680.672,363.312 682,360.5C 683.421,348.348 687.588,337.348 694.5,327.5C 695.906,327.027 696.573,326.027 696.5,324.5C 696.5,323.833 696.833,323.5 697.5,323.5C 698.906,323.027 699.573,322.027 699.5,320.5C 715.438,300.195 735.772,293.695 760.5,301C 763.02,302.697 765.353,304.53 767.5,306.5C 767.427,308.027 768.094,309.027 769.5,309.5C 771.474,311.428 772.974,313.761 774,316.5C 778.227,333.808 775.727,350.141 766.5,365.5C 775.649,365.252 782.982,361.252 788.5,353.5C 789.906,353.027 790.573,352.027 790.5,350.5C 795.491,331.692 800.991,313.025 807,294.5C 811.643,289.479 817.143,288.313 823.5,291C 824.701,291.903 825.535,293.069 826,294.5C 826.369,297.877 826.369,301.21 826,304.5C 827.331,302.004 829.164,300.004 831.5,298.5C 833.262,297.738 834.262,296.404 834.5,294.5C 843.157,284.169 853.823,281.336 866.5,286C 870.506,288.851 872.84,292.685 873.5,297.5C 873.337,299.857 873.503,302.19 874,304.5C 875.039,303.756 875.539,302.756 875.5,301.5C 875.5,300.833 875.833,300.5 876.5,300.5C 877.906,300.027 878.573,299.027 878.5,297.5C 883.48,288.354 890.813,281.854 900.5,278C 909.258,275.868 916.591,278.035 922.5,284.5C 922.427,286.027 923.094,287.027 924.5,287.5C 926.023,290.897 927.023,294.564 927.5,298.5C 923.905,313.118 919.405,327.451 914,341.5C 912.455,361.107 918.621,363.774 932.5,349.5C 933.906,349.027 934.573,348.027 934.5,346.5C 938.495,340.516 941.995,334.182 945,327.5C 946.337,315.31 950.503,304.31 957.5,294.5C 958.906,294.027 959.573,293.027 959.5,291.5C 961.453,287.88 964.119,284.88 967.5,282.5C 969.749,281.92 971.415,280.587 972.5,278.5C 986.927,265.645 1003.26,262.478 1021.5,269C 1029.95,276.652 1031.45,285.485 1026,295.5C 1016.01,307.928 1003.51,317.095 988.5,323C 982.637,325.399 976.637,327.399 970.5,329C 969.915,333.26 970.581,337.427 972.5,341.5C 972.5,343.5 973.5,344.5 975.5,344.5C 982.263,348.016 989.263,348.849 996.5,347C 1005.36,345.329 1013.36,341.829 1020.5,336.5C 1022.4,336.262 1023.74,335.262 1024.5,333.5C 1026.37,330.418 1028.71,327.751 1031.5,325.5C 1032.91,325.027 1033.57,324.027 1033.5,322.5C 1035.64,318.22 1037.81,313.886 1040,309.5C 1043.55,304.549 1048.05,303.382 1053.5,306C 1055.71,307.836 1057.04,310.169 1057.5,313C 1039.73,352.386 1009.4,369.052 966.5,363C 963.826,362.33 961.493,361.163 959.5,359.5C 959.027,358.094 958.027,357.427 956.5,357.5C 954.203,355.706 952.037,353.706 950,351.5C 941.564,364.458 929.731,371.791 914.5,373.5C 910.069,373.726 906.069,372.726 902.5,370.5C 902.027,369.094 901.027,368.427 899.5,368.5C 895.249,365.678 892.749,361.678 892,356.5C 891.333,351.167 891.333,345.833 892,340.5C 895.269,330.026 898.936,319.693 903,309.5C 904.25,304.58 904.75,299.58 904.5,294.5C 901.68,294.248 899.014,294.748 896.5,296C 883.565,309.693 874.065,325.526 868,343.5C 864.661,354.861 861.328,366.194 858,377.5C 853.454,381.749 848.287,382.582 842.5,380C 840.833,378.177 839.833,376.01 839.5,373.5C 844.063,352.517 848.563,331.517 853,310.5C 855.803,300.957 852.969,298.457 844.5,303C 823.601,324.297 810.768,349.797 806,379.5C 803.173,387.779 797.673,390.279 789.5,387C 788.667,386.167 787.833,385.333 787,384.5C 785.87,381.384 785.37,378.384 785.5,375.5C 775.993,380.334 765.993,382 755.5,380.5C 748.844,386.316 741.511,391.149 733.5,395C 721.611,398.741 709.945,398.241 698.5,393.5C 693.856,390.69 690.023,387.023 687,382.5C 666.928,403.65 642.428,411.816 613.5,407C 606.248,404.738 600.415,400.571 596,394.5C 587.132,408.221 574.632,415.888 558.5,417.5C 548.687,417.264 541.354,412.93 536.5,404.5C 515.244,423.749 490.577,430.249 462.5,424C 453.138,420.64 447.305,414.14 445,404.5C 441.217,377.071 450.383,355.071 472.5,338.5C 474.027,338.573 475.027,337.906 475.5,336.5C 488.799,327.08 503.132,324.913 518.5,330C 529.013,338.94 530.179,349.107 522,360.5C 506.983,376.094 488.816,386.094 467.5,390.5C 467.057,400.139 471.391,406.305 480.5,409C 493.122,410.094 504.789,407.261 515.5,400.5C 517.027,400.573 518.027,399.906 518.5,398.5C 518.5,397.833 518.833,397.5 519.5,397.5C 522.5,396.5 524.5,394.5 525.5,391.5C 529.228,387.262 532.394,382.595 535,377.5C 541.716,340.621 553.049,305.287 569,271.5C 575.559,263.544 581.892,263.544 588,271.5C 588.274,279.083 586.94,286.416 584,293.5C 577.471,309.421 571.137,325.421 565,341.5C 560.314,356.403 557.147,371.57 555.5,387C 557.198,403.477 564.198,405.977 576.5,394.5 Z M 1003.5,293.5 C 1001.74,294.262 1000.74,295.596 1000.5,297.5C 998.251,298.08 996.585,299.413 995.5,301.5C 988.876,305.978 981.876,309.645 974.5,312.5C 973.167,312.5 972.5,311.833 972.5,310.5C 976.496,298.994 983.496,289.828 993.5,283C 1005.61,278.281 1008.95,281.781 1003.5,293.5 Z M 734.5,314.5 C 737.85,314.335 741.183,314.502 744.5,315C 746.286,315.785 747.786,316.951 749,318.5C 753.575,331.222 753.242,343.889 748,356.5C 744.176,358.083 740.843,360.416 738,363.5C 736.34,366.77 736.006,370.103 737,373.5C 728.703,382.608 720.036,383.275 711,375.5C 704.898,353.455 710.398,334.621 727.5,319C 729.898,317.476 732.231,315.976 734.5,314.5 Z M 503.5,352.5 C 502.094,352.973 501.427,353.973 501.5,355.5C 493.083,364.234 483.083,370.568 471.5,374.5C 470.662,374.158 470.328,373.492 470.5,372.5C 474.017,361.627 480.35,352.794 489.5,346C 493.486,343.335 497.819,342.335 502.5,343C 503.894,343.956 504.561,345.289 504.5,347C 504.057,348.825 503.723,350.658 503.5,352.5 Z"/></g>
<g><path style="opacity:0.471" fill="#601133" d="M 1104.5,264.5 C 1104.57,266.027 1103.91,267.027 1102.5,267.5C 1102.43,265.973 1103.09,264.973 1104.5,264.5 Z"/></g>
<g><path style="opacity:0.776" fill="#671436" d="M 1608.5,265.5 C 1608.57,267.027 1607.91,268.027 1606.5,268.5C 1606.43,266.973 1607.09,265.973 1608.5,265.5 Z"/></g>
<g><path style="opacity:0.451" fill="#570f2d" d="M 1503.5,276.5 C 1503.57,278.027 1502.91,279.027 1501.5,279.5C 1501.43,277.973 1502.09,276.973 1503.5,276.5 Z"/></g>
<g><path style="opacity:0.016" fill="#2d0d1a" d="M 235.5,279.5 C 236.995,279.989 238.329,280.655 239.5,281.5C 237.517,281.843 236.183,281.176 235.5,279.5 Z"/></g>
<g><path style="opacity:0.984" fill="#831446" d="M 972.5,278.5 C 971.415,280.587 969.749,281.92 967.5,282.5C 968.585,280.413 970.251,279.08 972.5,278.5 Z"/></g>
<g><path style="opacity:0.722" fill="#5c1230" d="M 1386.5,280.5 C 1386.57,282.027 1385.91,283.027 1384.5,283.5C 1384.43,281.973 1385.09,280.973 1386.5,280.5 Z"/></g>
<g><path style="opacity:0.702" fill="#611234" d="M 340.5,284.5 C 340.027,285.906 339.027,286.573 337.5,286.5C 337.973,285.094 338.973,284.427 340.5,284.5 Z"/></g>
<g><path style="opacity:0.294" fill="#4c0427" d="M 1125.5,286.5 C 1124.66,286.842 1124.33,287.508 1124.5,288.5C 1123.9,288.265 1123.57,287.765 1123.5,287C 1124.03,285.282 1124.7,285.115 1125.5,286.5 Z"/></g>
<g><path style="opacity:0.345" fill="#510d2a" d="M 922.5,284.5 C 923.906,284.973 924.573,285.973 924.5,287.5C 923.094,287.027 922.427,286.027 922.5,284.5 Z"/></g>
<g><path style="opacity:0.694" fill="#651134" d="M 1381.5,286.5 C 1381.03,287.906 1380.03,288.573 1378.5,288.5C 1378.97,287.094 1379.97,286.427 1381.5,286.5 Z"/></g>
<g><path style="opacity:0.518" fill="#420923" d="M 1507.5,293.5 C 1507.56,292.957 1507.89,292.624 1508.5,292.5C 1509.39,293.325 1509.72,294.325 1509.5,295.5C 1508.83,294.833 1508.17,294.167 1507.5,293.5 Z"/></g>
<g><path style="opacity:0.78" fill="#670e36" d="M 182.5,292.5 C 182.027,293.906 181.027,294.573 179.5,294.5C 179.973,293.094 180.973,292.427 182.5,292.5 Z"/></g>
<g><path style="opacity:0.4" fill="#510e2c" d="M 959.5,291.5 C 959.573,293.027 958.906,294.027 957.5,294.5C 957.427,292.973 958.094,291.973 959.5,291.5 Z"/></g>
<g><path style="opacity:0.863" fill="#691438" d="M 1003.5,293.5 C 1003.26,295.404 1002.26,296.738 1000.5,297.5C 1000.74,295.596 1001.74,294.262 1003.5,293.5 Z"/></g>
<g><path style="opacity:0.773" fill="#5f1333" d="M 834.5,294.5 C 834.262,296.404 833.262,297.738 831.5,298.5C 831.738,296.596 832.738,295.262 834.5,294.5 Z"/></g>
<g><path style="opacity:0.569" fill="#651236" d="M 1000.5,297.5 C 999.415,299.587 997.749,300.92 995.5,301.5C 996.585,299.413 998.251,298.08 1000.5,297.5 Z"/></g>
<g><path style="opacity:0.451" fill="#611034" d="M 878.5,297.5 C 878.573,299.027 877.906,300.027 876.5,300.5C 876.427,298.973 877.094,297.973 878.5,297.5 Z"/></g>
<g><path style="opacity:0.09" fill="#1a030d" d="M 236.5,301.5 C 235.833,301.833 235.167,302.167 234.5,302.5C 234.345,299.147 235.012,298.814 236.5,301.5 Z"/></g>
<g><path style="opacity:0.427" fill="#55092d" d="M 873.5,297.5 C 874.167,298.833 874.833,300.167 875.5,301.5C 875.539,302.756 875.039,303.756 874,304.5C 873.503,302.19 873.337,299.857 873.5,297.5 Z"/></g>
<g><path style="opacity:0.133" fill="#2c0718" d="M 825.5,305.5 C 825.013,306.473 824.513,307.473 824,308.5C 823.275,306.843 823.775,305.843 825.5,305.5 Z"/></g>
<g><path style="opacity:0.725" fill="#5d1331" d="M 767.5,306.5 C 768.906,306.973 769.573,307.973 769.5,309.5C 768.094,309.027 767.427,308.027 767.5,306.5 Z"/></g>
<g><path style="opacity:0.78" fill="#661435" d="M 1134.5,306.5 C 1135.91,306.973 1136.57,307.973 1136.5,309.5C 1135.09,309.027 1134.43,308.027 1134.5,306.5 Z"/></g>
<g><path style="opacity:0.114" fill="#260918" d="M 972.5,310.5 C 972.5,311.833 973.167,312.5 974.5,312.5C 973.791,313.404 972.791,313.737 971.5,313.5C 971.263,312.209 971.596,311.209 972.5,310.5 Z"/></g>
<g><path style="opacity:0.561" fill="#621133" d="M 1217.5,311.5 C 1217.26,313.404 1216.26,314.738 1214.5,315.5C 1214.74,313.596 1215.74,312.262 1217.5,311.5 Z"/></g>
<g><path style="opacity:0.631" fill="#671237" d="M 1213.5,316.5 C 1212.74,318.262 1211.4,319.262 1209.5,319.5C 1210.26,317.738 1211.6,316.738 1213.5,316.5 Z"/></g>
<g><path style="opacity:0.341" fill="#4e0e29" d="M 1292.5,316.5 C 1294.03,316.427 1295.03,317.094 1295.5,318.5C 1293.97,318.573 1292.97,317.906 1292.5,316.5 Z"/></g>
<g><path style="opacity:0.51" fill="#641135" d="M 154.5,316.5 C 154.573,318.027 153.906,319.027 152.5,319.5C 152.427,317.973 153.094,316.973 154.5,316.5 Z"/></g>
<g><path style="opacity:0.765" fill="#621333" d="M 699.5,320.5 C 699.573,322.027 698.906,323.027 697.5,323.5C 697.427,321.973 698.094,320.973 699.5,320.5 Z"/></g>
<g><path style="opacity:0.086" fill="#2a0516" d="M 646.5,324.5 C 648.693,323.203 651.027,323.203 653.5,324.5C 653.376,325.107 653.043,325.44 652.5,325.5C 650.735,324.539 648.735,324.205 646.5,324.5 Z"/></g>
<g><path style="opacity:0.463" fill="#5f0f33" d="M 1033.5,322.5 C 1033.57,324.027 1032.91,325.027 1031.5,325.5C 1031.43,323.973 1032.09,322.973 1033.5,322.5 Z"/></g>
<g><path style="opacity:0.384" fill="#520e2b" d="M 696.5,324.5 C 696.573,326.027 695.906,327.027 694.5,327.5C 694.427,325.973 695.094,324.973 696.5,324.5 Z"/></g>
<g><path style="opacity:0.592" fill="#4f112a" d="M 1125.5,328.5 C 1127.03,328.427 1128.03,329.094 1128.5,330.5C 1126.97,330.573 1125.97,329.906 1125.5,328.5 Z"/></g>
<g><path style="opacity:0.839" fill="#6b153a" d="M 607.5,333.5 C 607.573,335.027 606.906,336.027 605.5,336.5C 605.427,334.973 606.094,333.973 607.5,333.5 Z"/></g>
<g><path style="opacity:0.643" fill="#691237" d="M 1024.5,333.5 C 1023.74,335.262 1022.4,336.262 1020.5,336.5C 1021.26,334.738 1022.6,333.738 1024.5,333.5 Z"/></g>
<g><path style="opacity:0.341" fill="#520d2c" d="M 200.5,335.5 C 200.573,337.027 199.906,338.027 198.5,338.5C 198.427,336.973 199.094,335.973 200.5,335.5 Z"/></g>
<g><path style="opacity:0.718" fill="#5e1033" d="M 475.5,336.5 C 475.027,337.906 474.027,338.573 472.5,338.5C 472.973,337.094 473.973,336.427 475.5,336.5 Z"/></g>
<g><path style="opacity:0.424" fill="#590e2f" d="M 604.5,337.5 C 604.573,339.027 603.906,340.027 602.5,340.5C 602.427,338.973 603.094,337.973 604.5,337.5 Z"/></g>
<g><path style="opacity:0.714" fill="#51142c" d="M 972.5,341.5 C 973.833,342.167 974.833,343.167 975.5,344.5C 973.5,344.5 972.5,343.5 972.5,341.5 Z"/></g>
<g><path style="opacity:0.467" fill="#58102f" d="M 934.5,346.5 C 934.573,348.027 933.906,349.027 932.5,349.5C 932.427,347.973 933.094,346.973 934.5,346.5 Z"/></g>
<g><path style="opacity:0.349" fill="#530d2c" d="M 790.5,350.5 C 790.573,352.027 789.906,353.027 788.5,353.5C 788.427,351.973 789.094,350.973 790.5,350.5 Z"/></g>
<g><path style="opacity:0.392" fill="#570c2d" d="M 503.5,352.5 C 503.573,354.027 502.906,355.027 501.5,355.5C 501.427,353.973 502.094,352.973 503.5,352.5 Z"/></g>
<g><path style="opacity:0.427" fill="#590f30" d="M 956.5,357.5 C 958.027,357.427 959.027,358.094 959.5,359.5C 957.973,359.573 956.973,358.906 956.5,357.5 Z"/></g>
<g><path style="opacity:0.431" fill="#5b0d30" d="M 899.5,368.5 C 901.027,368.427 902.027,369.094 902.5,370.5C 900.973,370.573 899.973,369.906 899.5,368.5 Z"/></g>
<g><path style="opacity:0.447" fill="#550f2d" d="M 677.5,368.5 C 677.573,370.027 676.906,371.027 675.5,371.5C 675.427,369.973 676.094,368.973 677.5,368.5 Z"/></g>
<g><path style="opacity:0.065" fill="#260819" d="M 470.5,372.5 C 470.328,373.492 470.662,374.158 471.5,374.5C 470.698,375.885 470.031,375.718 469.5,374C 469.57,373.235 469.903,372.735 470.5,372.5 Z"/></g>
<g><path style="opacity:0.757" fill="#671138" d="M 667.5,379.5 C 667.027,380.906 666.027,381.573 664.5,381.5C 664.973,380.094 665.973,379.427 667.5,379.5 Z"/></g>
<g><path style="opacity:0.757" fill="#661437" d="M 578.5,391.5 C 578.573,393.027 577.906,394.027 576.5,394.5C 576.427,392.973 577.094,391.973 578.5,391.5 Z"/></g>
<g><path style="opacity:0.894" fill="#75143e" d="M 525.5,391.5 C 524.5,394.5 522.5,396.5 519.5,397.5C 521.167,395.167 523.167,393.167 525.5,391.5 Z"/></g>
<g><path style="opacity:0.725" fill="#631036" d="M 518.5,398.5 C 518.027,399.906 517.027,400.573 515.5,400.5C 515.973,399.094 516.973,398.427 518.5,398.5 Z"/></g>
<g><path style="opacity:0.122" fill="#3e0b21" d="M 309.5,409.5 C 309.56,408.957 309.893,408.624 310.5,408.5C 311.452,410.045 311.785,411.712 311.5,413.5C 310.833,412.167 310.167,410.833 309.5,409.5 Z"/></g>
<g><path style="opacity:0.769" fill="#621334" d="M 378.5,410.5 C 378.573,412.027 377.906,413.027 376.5,413.5C 376.427,411.973 377.094,410.973 378.5,410.5 Z"/></g>
<g><path style="opacity:0.42" fill="#580e2f" d="M 285.5,413.5 C 285.573,415.027 284.906,416.027 283.5,416.5C 283.427,414.973 284.094,413.973 285.5,413.5 Z"/></g>
<g><path style="opacity:0.808" fill="#51122d" d="M 337.5,420.5 C 339.167,421.5 340.5,422.833 341.5,424.5C 339.167,424.167 337.833,422.833 337.5,420.5 Z"/></g>
<g><path style="opacity:0.718" fill="#5f1232" d="M 279.5,421.5 C 279.573,423.027 278.906,424.027 277.5,424.5C 277.427,422.973 278.094,421.973 279.5,421.5 Z"/></g>
<g><path style="opacity:0.592" fill="#54122d" d="M 322.5,437.5 C 324.027,437.427 325.027,438.094 325.5,439.5C 323.973,439.573 322.973,438.906 322.5,437.5 Z"/></g>
<g><path style="opacity:0.349" fill="#520e2c" d="M 327.5,441.5 C 329.027,441.427 330.027,442.094 330.5,443.5C 328.973,443.573 327.973,442.906 327.5,441.5 Z"/></g>
<g><path style="opacity:1" fill="#e20b75" d="M 870.5,613.5 C 870.862,608.644 870.196,607.978 868.5,611.5C 858.071,633.096 842.071,649.263 820.5,660C 809.933,664.058 799.266,664.391 788.5,661C 785.102,659.643 782.102,657.81 779.5,655.5C 779.027,654.094 778.027,653.427 776.5,653.5C 766.196,642.987 762.363,630.32 765,615.5C 766.664,606.841 769.331,598.508 773,590.5C 780,576.833 787,563.167 794,549.5C 799.802,538.159 802.135,526.159 801,513.5C 800.213,509.259 798.379,505.592 795.5,502.5C 795.44,501.957 795.107,501.624 794.5,501.5C 793.571,502.689 793.238,504.022 793.5,505.5C 788.094,530.147 776.094,550.98 757.5,568C 745.516,577.552 732.183,580.219 717.5,576C 715.416,575.303 713.749,574.136 712.5,572.5C 712.027,571.094 711.027,570.427 709.5,570.5C 703.997,564.502 701.33,557.335 701.5,549C 701.597,538.534 704.93,529.368 711.5,521.5C 712.906,521.027 713.573,520.027 713.5,518.5C 713.833,517.5 714.5,516.833 715.5,516.5C 716.906,516.027 717.573,515.027 717.5,513.5C 732.403,497.212 750.736,486.878 772.5,482.5C 772.201,477.634 770.534,473.301 767.5,469.5C 769.822,462.004 774.822,459.171 782.5,461C 785.106,461.792 787.106,463.292 788.5,465.5C 788.427,467.027 789.094,468.027 790.5,468.5C 793,471.66 794.333,475.327 794.5,479.5C 794.285,481.179 794.952,482.179 796.5,482.5C 804.63,483.657 811.297,487.323 816.5,493.5C 816.427,495.027 817.094,496.027 818.5,496.5C 821.974,500.453 824.14,505.12 825,510.5C 825.788,517.556 825.455,524.556 824,531.5C 821.791,540.127 818.791,548.46 815,556.5C 807.712,570.742 800.712,585.075 794,599.5C 791.23,606.969 789.397,614.635 788.5,622.5C 790.047,639.276 799.047,645.776 815.5,642C 825.501,637.162 833.834,630.329 840.5,621.5C 841.906,621.027 842.573,620.027 842.5,618.5C 856.278,596.606 867.112,573.273 875,548.5C 880,532.167 885,515.833 890,499.5C 891.357,496.102 893.19,493.102 895.5,490.5C 896.906,490.027 897.573,489.027 897.5,487.5C 907.728,481.326 913.728,484.326 915.5,496.5C 913.727,511.986 909.227,526.653 902,540.5C 895.869,557.656 892.369,575.323 891.5,593.5C 891.036,604.1 893.203,614.1 898,623.5C 906.573,631.851 915.74,632.518 925.5,625.5C 927.027,625.573 928.027,624.906 928.5,623.5C 930.372,620.418 932.705,617.751 935.5,615.5C 936.906,615.027 937.573,614.027 937.5,612.5C 961.152,577.389 975.652,538.723 981,496.5C 981.667,487.5 981.667,478.5 981,469.5C 975.876,458.752 979.042,452.085 990.5,449.5C 999.183,450.684 1004.02,455.684 1005,464.5C 1007.69,501.718 1001.36,537.385 986,571.5C 976.688,593.476 964.355,613.476 949,631.5C 933.904,647.311 915.737,652.811 894.5,648C 880.229,640.986 872.229,629.486 870.5,613.5 Z M 726.5,557.5 C 726.573,555.973 725.906,554.973 724.5,554.5C 723.657,548.533 724.157,542.533 726,536.5C 735.714,516.38 751.214,504.547 772.5,501C 769.18,521.671 760.18,539.338 745.5,554C 739.715,558.871 733.382,560.037 726.5,557.5 Z"/></g>
<g><path style="opacity:0.471" fill="#5d1032" d="M 788.5,465.5 C 789.906,465.973 790.573,466.973 790.5,468.5C 789.094,468.027 788.427,467.027 788.5,465.5 Z"/></g>
<g><path style="opacity:1" fill="#e00b74" d="M 1142.5,598.5 C 1144.75,597.92 1146.42,596.587 1147.5,594.5C 1148.91,594.027 1149.57,593.027 1149.5,591.5C 1150.17,590.167 1151.17,589.167 1152.5,588.5C 1153.91,588.027 1154.57,587.027 1154.5,585.5C 1157.32,580.527 1160.15,575.527 1163,570.5C 1165.88,552.527 1171.55,535.527 1180,519.5C 1185.47,511.753 1191.81,510.753 1199,516.5C 1199.87,517.873 1200.37,519.373 1200.5,521C 1197.6,530.706 1194.1,540.206 1190,549.5C 1186.61,559.925 1184.45,570.592 1183.5,581.5C 1183.83,586.021 1185.17,590.187 1187.5,594C 1190.46,595.85 1193.46,595.85 1196.5,594C 1199.63,591.872 1202.46,589.372 1205,586.5C 1211.88,575.915 1218.38,565.082 1224.5,554C 1230.07,551.395 1234.57,552.562 1238,557.5C 1238.67,559.5 1238.67,561.5 1238,563.5C 1230.53,581.633 1218.69,596.133 1202.5,607C 1192.48,611.559 1182.48,611.559 1172.5,607C 1169.63,604.463 1167.13,601.63 1165,598.5C 1153.72,613.05 1138.89,619.217 1120.5,617C 1105.28,610.78 1095.28,599.78 1090.5,584C 1091.24,581.861 1092.24,579.861 1093.5,578C 1105.68,573.665 1116.51,567.165 1126,558.5C 1132.21,552.088 1135.04,544.421 1134.5,535.5C 1131.06,535.301 1127.73,535.801 1124.5,537C 1107.01,546.153 1094.85,559.987 1088,578.5C 1083.86,592.062 1080.19,605.729 1077,619.5C 1073.06,625.391 1067.9,626.891 1061.5,624C 1060.18,623.184 1059.51,622.017 1059.5,620.5C 1059.65,617.147 1058.99,616.814 1057.5,619.5C 1047.09,629.083 1035.09,631.583 1021.5,627C 1013.96,622.783 1009.8,616.283 1009,607.5C 1009.05,582.643 1015.05,559.31 1027,537.5C 1032.82,530.521 1039.16,529.854 1046,535.5C 1046.17,537 1046.33,538.5 1046.5,540C 1040.97,555.242 1036.14,570.742 1032,586.5C 1030.1,594.182 1030.1,601.849 1032,609.5C 1034.33,614.249 1037.83,615.416 1042.5,613C 1047.36,609.303 1051.7,605.136 1055.5,600.5C 1056.91,600.027 1057.57,599.027 1057.5,597.5C 1060.31,591.886 1063.14,586.22 1066,580.5C 1074.38,546.992 1083.38,513.659 1093,480.5C 1097.24,472.126 1103.74,469.459 1112.5,472.5C 1115.42,476.315 1116.26,480.649 1115,485.5C 1112.89,492.382 1110.23,499.049 1107,505.5C 1103.69,516.088 1101.02,526.755 1099,537.5C 1109.11,527.362 1121.28,521.362 1135.5,519.5C 1151.69,520.188 1158.52,528.521 1156,544.5C 1151.51,556.325 1144.01,565.825 1133.5,573C 1127.33,576.919 1121,580.586 1114.5,584C 1117.19,589.71 1120.86,594.71 1125.5,599C 1131.29,602.401 1136.95,602.234 1142.5,598.5 Z"/></g>
<g><path style="opacity:1" fill="#db0b71" d="M 1199.5,475.5 C 1212.19,474.677 1217.02,480.343 1214,492.5C 1209.22,501.208 1202.05,504.042 1192.5,501C 1185.36,492.737 1186.03,485.07 1194.5,478C 1196.31,477.243 1197.98,476.41 1199.5,475.5 Z"/></g>
<g><path style="opacity:0.129" fill="#1d030f" d="M 794.5,479.5 C 795.401,480.29 796.068,481.29 796.5,482.5C 794.952,482.179 794.285,481.179 794.5,479.5 Z"/></g>
<g><path style="opacity:0.796" fill="#661537" d="M 897.5,487.5 C 897.573,489.027 896.906,490.027 895.5,490.5C 895.427,488.973 896.094,487.973 897.5,487.5 Z"/></g>
<g><path style="opacity:0.729" fill="#5f1231" d="M 816.5,493.5 C 817.906,493.973 818.573,494.973 818.5,496.5C 817.094,496.027 816.427,495.027 816.5,493.5 Z"/></g>
<g><path style="opacity:1" fill="#db0c72" d="M 1045.5,494.5 C 1060.66,493.794 1065.16,500.46 1059,514.5C 1051.15,523.157 1043.15,523.491 1035,515.5C 1032.45,505.531 1035.95,498.531 1045.5,494.5 Z"/></g>
<g><path style="opacity:0.02" fill="#240915" d="M 795.5,502.5 C 794.833,503.5 794.167,504.5 793.5,505.5C 793.238,504.022 793.571,502.689 794.5,501.5C 795.107,501.624 795.44,501.957 795.5,502.5 Z"/></g>
<g><path style="opacity:0.78" fill="#681436" d="M 717.5,513.5 C 717.573,515.027 716.906,516.027 715.5,516.5C 715.427,514.973 716.094,513.973 717.5,513.5 Z"/></g>
<g><path style="opacity:0.431" fill="#580f2e" d="M 713.5,518.5 C 713.573,520.027 712.906,521.027 711.5,521.5C 711.427,519.973 712.094,518.973 713.5,518.5 Z"/></g>
<g><path style="opacity:0.447" fill="#590f30" d="M 724.5,554.5 C 725.906,554.973 726.573,555.973 726.5,557.5C 725.094,557.027 724.427,556.027 724.5,554.5 Z"/></g>
<g><path style="opacity:0.784" fill="#631535" d="M 709.5,570.5 C 711.027,570.427 712.027,571.094 712.5,572.5C 710.973,572.573 709.973,571.906 709.5,570.5 Z"/></g>
<g><path style="opacity:0.451" fill="#5b1030" d="M 1154.5,585.5 C 1154.57,587.027 1153.91,588.027 1152.5,588.5C 1152.43,586.973 1153.09,585.973 1154.5,585.5 Z"/></g>
<g><path style="opacity:0.682" fill="#5a1330" d="M 1149.5,591.5 C 1149.57,593.027 1148.91,594.027 1147.5,594.5C 1147.43,592.973 1148.09,591.973 1149.5,591.5 Z"/></g>
<g><path style="opacity:0.604" fill="#6c1339" d="M 1147.5,594.5 C 1146.42,596.587 1144.75,597.92 1142.5,598.5C 1143.58,596.413 1145.25,595.08 1147.5,594.5 Z"/></g>
<g><path style="opacity:0.396" fill="#560d2d" d="M 1057.5,597.5 C 1057.57,599.027 1056.91,600.027 1055.5,600.5C 1055.43,598.973 1056.09,597.973 1057.5,597.5 Z"/></g>
<g><path style="opacity:0.243" fill="#3c0620" d="M 870.5,613.5 C 869.833,612.833 869.167,612.167 868.5,611.5C 870.196,607.978 870.862,608.644 870.5,613.5 Z"/></g>
<g><path style="opacity:0.475" fill="#5b1031" d="M 937.5,612.5 C 937.573,614.027 936.906,615.027 935.5,615.5C 935.427,613.973 936.094,612.973 937.5,612.5 Z"/></g>
<g><path style="opacity:0.267" fill="#430725" d="M 1059.5,620.5 C 1058.83,620.167 1058.17,619.833 1057.5,619.5C 1058.99,616.814 1059.65,617.147 1059.5,620.5 Z"/></g>
<g><path style="opacity:0.525" fill="#691037" d="M 842.5,618.5 C 842.573,620.027 841.906,621.027 840.5,621.5C 840.427,619.973 841.094,618.973 842.5,618.5 Z"/></g>
<g><path style="opacity:0.678" fill="#661035" d="M 928.5,623.5 C 928.027,624.906 927.027,625.573 925.5,625.5C 925.973,624.094 926.973,623.427 928.5,623.5 Z"/></g>
<g><path style="opacity:0.808" fill="#661438" d="M 776.5,653.5 C 778.027,653.427 779.027,654.094 779.5,655.5C 777.973,655.573 776.973,654.906 776.5,653.5 Z"/></g>
</svg>
