<svg xmlns="http://www.w3.org/2000/svg" xmlns:xlink="http://www.w3.org/1999/xlink" width="500" zoomAndPan="magnify" viewBox="0 0 375 374.999991" height="500" preserveAspectRatio="xMidYMid meet" version="1.0"><defs><g/><clipPath id="9a73b449ba"><path d="M 252 132 L 365 132 L 365 267 L 252 267 Z M 252 132 " clip-rule="nonzero"/></clipPath><clipPath id="811d21ddb6"><path d="M 198.261719 171.230469 L 322.609375 94.246094 L 384.988281 195 L 260.636719 271.984375 Z M 198.261719 171.230469 " clip-rule="nonzero"/></clipPath><clipPath id="e71f90dc09"><path d="M 198.261719 171.230469 L 322.609375 94.246094 L 384.988281 195 L 260.636719 271.984375 Z M 198.261719 171.230469 " clip-rule="nonzero"/></clipPath><clipPath id="5298734537"><path d="M 14 137 L 135 137 L 135 259 L 14 259 Z M 14 137 " clip-rule="nonzero"/></clipPath><clipPath id="a8190a149e"><path d="M -9.933594 141.117188 L 135.398438 110.597656 L 164.679688 250.058594 L 19.351562 280.574219 Z M -9.933594 141.117188 " clip-rule="nonzero"/></clipPath><clipPath id="04ceb8553d"><path d="M -9.933594 141.117188 L 135.398438 110.597656 L 164.679688 250.058594 L 19.351562 280.574219 Z M -9.933594 141.117188 " clip-rule="nonzero"/></clipPath><clipPath id="ccbd4d23e2"><path d="M -9.933594 141.117188 L 135.398438 110.597656 L 164.679688 250.058594 L 19.351562 280.574219 Z M -9.933594 141.117188 " clip-rule="nonzero"/></clipPath><clipPath id="3b0257de37"><path d="M 8 131 L 141 131 L 141 265 L 8 265 Z M 8 131 " clip-rule="nonzero"/></clipPath><clipPath id="17ddc6cec2"><path d="M -9.933594 141.117188 L 135.398438 110.597656 L 164.679688 250.058594 L 19.351562 280.574219 Z M -9.933594 141.117188 " clip-rule="nonzero"/></clipPath><clipPath id="a1814e7412"><path d="M -9.933594 141.117188 L 135.398438 110.597656 L 164.679688 250.058594 L 19.351562 280.574219 Z M -9.933594 141.117188 " clip-rule="nonzero"/></clipPath><clipPath id="c8e0378cd0"><path d="M -9.933594 141.117188 L 135.398438 110.597656 L 164.679688 250.058594 L 19.351562 280.574219 Z M -9.933594 141.117188 " clip-rule="nonzero"/></clipPath><clipPath id="2885935f99"><path d="M 2 125 L 148 125 L 148 271 L 2 271 Z M 2 125 " clip-rule="nonzero"/></clipPath><clipPath id="4f0ac9c68a"><path d="M -9.933594 141.117188 L 135.398438 110.597656 L 164.679688 250.058594 L 19.351562 280.574219 Z M -9.933594 141.117188 " clip-rule="nonzero"/></clipPath><clipPath id="60639e4d63"><path d="M -9.933594 141.117188 L 135.398438 110.597656 L 164.679688 250.058594 L 19.351562 280.574219 Z M -9.933594 141.117188 " clip-rule="nonzero"/></clipPath><clipPath id="00b300a6ec"><path d="M -9.933594 141.117188 L 135.398438 110.597656 L 164.679688 250.058594 L 19.351562 280.574219 Z M -9.933594 141.117188 " clip-rule="nonzero"/></clipPath><clipPath id="2ad3623854"><path d="M 4 127 L 146 127 L 146 269 L 4 269 Z M 4 127 " clip-rule="nonzero"/></clipPath><clipPath id="96a27224e4"><path d="M -9.933594 141.117188 L 135.398438 110.597656 L 164.679688 250.058594 L 19.351562 280.574219 Z M -9.933594 141.117188 " clip-rule="nonzero"/></clipPath><clipPath id="00ca6be5a8"><path d="M -9.933594 141.117188 L 135.398438 110.597656 L 164.679688 250.058594 L 19.351562 280.574219 Z M -9.933594 141.117188 " clip-rule="nonzero"/></clipPath><clipPath id="066b7dfdef"><path d="M -9.933594 141.117188 L 135.398438 110.597656 L 164.679688 250.058594 L 19.351562 280.574219 Z M -9.933594 141.117188 " clip-rule="nonzero"/></clipPath><clipPath id="edb89bcd5c"><path d="M 14 137 L 135 137 L 135 259 L 14 259 Z M 14 137 " clip-rule="nonzero"/></clipPath><clipPath id="d9693c7951"><path d="M -9.933594 141.117188 L 135.398438 110.597656 L 164.679688 250.058594 L 19.351562 280.574219 Z M -9.933594 141.117188 " clip-rule="nonzero"/></clipPath><clipPath id="582a8ed717"><path d="M -9.933594 141.117188 L 135.398438 110.597656 L 164.679688 250.058594 L 19.351562 280.574219 Z M -9.933594 141.117188 " clip-rule="nonzero"/></clipPath><clipPath id="3582d3ddd7"><path d="M -9.933594 141.117188 L 135.398438 110.597656 L 164.679688 250.058594 L 19.351562 280.574219 Z M -9.933594 141.117188 " clip-rule="nonzero"/></clipPath><clipPath id="917b8bc1bd"><path d="M 8 131 L 141 131 L 141 265 L 8 265 Z M 8 131 " clip-rule="nonzero"/></clipPath><clipPath id="a5743df8b2"><path d="M -9.933594 141.117188 L 135.398438 110.597656 L 164.679688 250.058594 L 19.351562 280.574219 Z M -9.933594 141.117188 " clip-rule="nonzero"/></clipPath><clipPath id="1e135a9ecf"><path d="M -9.933594 141.117188 L 135.398438 110.597656 L 164.679688 250.058594 L 19.351562 280.574219 Z M -9.933594 141.117188 " clip-rule="nonzero"/></clipPath><clipPath id="99510c6c77"><path d="M -9.933594 141.117188 L 135.398438 110.597656 L 164.679688 250.058594 L 19.351562 280.574219 Z M -9.933594 141.117188 " clip-rule="nonzero"/></clipPath><clipPath id="ad1c521410"><path d="M 2 125 L 148 125 L 148 271 L 2 271 Z M 2 125 " clip-rule="nonzero"/></clipPath><clipPath id="4bedde4d10"><path d="M -9.933594 141.117188 L 135.398438 110.597656 L 164.679688 250.058594 L 19.351562 280.574219 Z M -9.933594 141.117188 " clip-rule="nonzero"/></clipPath><clipPath id="0effa1923d"><path d="M -9.933594 141.117188 L 135.398438 110.597656 L 164.679688 250.058594 L 19.351562 280.574219 Z M -9.933594 141.117188 " clip-rule="nonzero"/></clipPath><clipPath id="b79b7b5d73"><path d="M -9.933594 141.117188 L 135.398438 110.597656 L 164.679688 250.058594 L 19.351562 280.574219 Z M -9.933594 141.117188 " clip-rule="nonzero"/></clipPath><clipPath id="18fddace24"><path d="M 4 127 L 146 127 L 146 269 L 4 269 Z M 4 127 " clip-rule="nonzero"/></clipPath><clipPath id="0979df848c"><path d="M -9.933594 141.117188 L 135.398438 110.597656 L 164.679688 250.058594 L 19.351562 280.574219 Z M -9.933594 141.117188 " clip-rule="nonzero"/></clipPath><clipPath id="d6e9902e39"><path d="M -9.933594 141.117188 L 135.398438 110.597656 L 164.679688 250.058594 L 19.351562 280.574219 Z M -9.933594 141.117188 " clip-rule="nonzero"/></clipPath><clipPath id="73cef005f9"><path d="M -9.933594 141.117188 L 135.398438 110.597656 L 164.679688 250.058594 L 19.351562 280.574219 Z M -9.933594 141.117188 " clip-rule="nonzero"/></clipPath></defs><g clip-path="url(#9a73b449ba)"><g clip-path="url(#811d21ddb6)"><g clip-path="url(#e71f90dc09)"><path fill="#ec297b" d="M 301.332031 246.21875 C 286.609375 255.332031 271.707031 262.15625 257.804688 266.542969 C 266.851562 262.679688 276.109375 257.882812 285.300781 252.191406 C 331.375 223.667969 358.195312 183.539062 345.203125 162.554688 C 336.367188 148.285156 311.382812 146.554688 281.792969 155.882812 C 318.085938 140.359375 350.839844 139.789062 361.238281 156.589844 C 374.226562 177.566406 347.40625 217.695312 301.332031 246.21875 Z M 253.136719 164.90625 L 252.945312 164.597656 C 271.339844 153.210938 270.824219 149.402344 260.453125 132.652344 L 260.761719 132.460938 C 271.132812 149.210938 274.320312 151.367188 292.714844 139.980469 L 292.90625 140.285156 C 274.511719 151.671875 275.011719 155.480469 285.382812 172.230469 L 285.074219 172.421875 C 274.703125 155.671875 271.527344 153.519531 253.136719 164.90625 " fill-opacity="1" fill-rule="evenodd"/></g></g></g><g clip-path="url(#5298734537)"><g clip-path="url(#a8190a149e)"><g clip-path="url(#04ceb8553d)"><g clip-path="url(#ccbd4d23e2)"><path fill="#f2e3e6" d="M 126.734375 245.296875 C 123.90625 245.890625 119.457031 243.929688 117.976562 243.289062 L 117.785156 243.199219 C 111.476562 240.457031 101.992188 237.046875 87.929688 232.519531 C 86.902344 232.171875 85.808594 232.144531 84.769531 232.363281 C 83.730469 232.582031 82.753906 233.089844 81.910156 233.828125 C 72.667969 242.125 66.445312 248.054688 62.234375 252.613281 L 62.09375 252.773438 C 60.996094 253.957031 57.671875 257.550781 54.886719 258.136719 C 54.554688 258.207031 54.253906 258.226562 53.984375 258.195312 C 53.667969 258.132812 53.300781 258.035156 53.050781 257.875 C 52.1875 257.277344 51.136719 255.378906 50.945312 249.710938 L 50.960938 249.578125 C 50.734375 242.925781 50.0625 232.6875 49.183594 220.03125 C 49.042969 218.117188 48.019531 216.34375 46.371094 215.304688 C 35.585938 208.40625 27.980469 203.820312 22.378906 200.929688 L 22.1875 200.839844 C 16.398438 197.863281 14.996094 195.738281 14.816406 194.476562 C 14.773438 194.054688 14.859375 193.648438 14.875 193.515625 C 15.183594 192.5 16.726562 190.964844 22.238281 189.289062 L 22.363281 189.261719 C 28.96875 187.226562 39.167969 183.699219 50.855469 179.601562 C 52.757812 178.945312 54.25 177.375 54.757812 175.453125 C 58.222656 162.578125 60.382812 153.648438 61.484375 147.320312 L 61.535156 147.140625 C 62.660156 140.71875 64.285156 138.734375 65.429688 138.191406 C 65.585938 138.117188 65.796875 138.074219 65.960938 138.039062 C 66.046875 138.019531 66.210938 137.984375 66.386719 137.992188 C 67.4375 138.03125 69.335938 139.015625 72.617188 143.6875 L 72.6875 143.804688 C 76.542969 149.347656 82.949219 157.945312 90.261719 167.738281 C 91.523438 169.421875 93.589844 170.371094 95.679688 170.191406 C 108.019531 169.199219 118.816406 168.316406 125.519531 167.554688 L 125.644531 167.53125 C 131.371094 166.890625 133.359375 167.683594 134.082031 168.4375 C 134.191406 168.546875 134.4375 168.882812 134.523438 169.296875 C 134.867188 170.523438 134.449219 173.074219 130.34375 178.128906 L 130.203125 178.289062 C 126.617188 182.71875 121.917969 189.28125 115.800781 198.390625 C 114.707031 200.003906 114.480469 202.039062 115.121094 203.851562 C 119.988281 217.3125 124.167969 228.929688 126.925781 235.875 L 126.953125 236 C 129.058594 241.265625 128.859375 243.425781 128.308594 244.316406 C 128.175781 244.519531 127.886719 244.796875 127.582031 244.988281 C 127.351562 245.125 127.066406 245.226562 126.734375 245.296875 Z M 126.734375 245.296875 " fill-opacity="1" fill-rule="nonzero"/></g></g></g></g><g clip-path="url(#3b0257de37)"><g clip-path="url(#17ddc6cec2)"><g clip-path="url(#a1814e7412)"><g clip-path="url(#c8e0378cd0)"><path fill="#ed83b5" d="M 67.753906 147.390625 C 71.675781 153.050781 78.066406 161.566406 85.375 171.359375 C 87.914062 174.761719 91.988281 176.585938 96.21875 176.261719 C 108.9375 175.230469 119.273438 174.402344 126.054688 173.625 C 125.921875 173.828125 125.742188 173.996094 125.570312 174.203125 L 125.429688 174.363281 C 121.671875 179 117.003906 185.515625 110.6875 194.925781 C 108.5 198.152344 108.011719 202.234375 109.339844 205.886719 C 114.160156 219.316406 118.328125 230.894531 121.15625 237.953125 C 120.921875 237.871094 120.679688 237.75 120.445312 237.667969 L 120.25 237.578125 C 113.753906 234.75 104.082031 231.289062 89.828125 226.671875 C 87.730469 225.988281 85.546875 225.929688 83.507812 226.359375 C 81.429688 226.792969 79.421875 227.777344 77.777344 229.246094 C 68.386719 237.660156 62.023438 243.753906 57.707031 248.421875 L 57.566406 248.582031 C 57.394531 248.789062 57.210938 248.957031 57.03125 249.125 C 56.789062 242.386719 56.117188 232.152344 55.253906 219.578125 C 55.003906 215.699219 52.925781 212.199219 49.664062 210.117188 C 38.722656 203.078125 30.933594 198.441406 25.140625 195.464844 L 24.949219 195.375 C 24.707031 195.253906 24.503906 195.125 24.269531 195.042969 C 30.949219 192.949219 41.152344 189.421875 52.804688 185.375 C 56.652344 184.050781 59.558594 180.933594 60.648438 177.027344 C 64.257812 164.035156 66.46875 154.921875 67.609375 148.371094 L 67.660156 148.1875 C 67.640625 147.890625 67.671875 147.625 67.753906 147.390625 M 64.734375 131.984375 C 64.152344 132.105469 63.496094 132.285156 62.824219 132.601562 C 57.253906 135.238281 55.902344 143.480469 55.445312 146.257812 C 54.328125 152.71875 52.007812 161.9375 48.753906 173.730469 C 36.335938 178.070312 26.699219 181.390625 20.460938 183.304688 C 17.652344 184.199219 10.664062 186.269531 8.941406 191.515625 C 8.835938 191.84375 8.367188 193.324219 8.632812 195.214844 C 9.476562 201.304688 16.992188 205.046875 19.46875 206.296875 C 25.160156 209.210938 33.027344 214 42.964844 220.386719 C 43.84375 233.261719 44.515625 243.277344 44.738281 249.71875 C 44.832031 252.636719 45.011719 259.90625 49.679688 262.90625 C 49.980469 263.101562 51.277344 263.910156 53.15625 264.164062 C 54.179688 264.292969 55.164062 264.21875 56.121094 264.015625 C 60.984375 262.996094 65.175781 258.351562 66.769531 256.636719 C 71.011719 252.027344 77.5 245.90625 86.003906 238.242188 C 98.957031 242.441406 108.84375 245.898438 115.300781 248.734375 C 117.449219 249.667969 123.113281 252.238281 127.976562 251.21875 C 128.933594 251.019531 129.90625 250.683594 130.792969 250.152344 C 132.410156 249.164062 133.273438 247.902344 133.46875 247.601562 C 136.496094 242.988281 133.738281 236.261719 132.679688 233.5 C 130.023438 226.835938 126.078125 215.90625 120.960938 201.675781 C 126.675781 193.125 131.367188 186.519531 135.027344 182.03125 C 136.78125 179.847656 142.160156 173.402344 140.492188 167.523438 C 139.976562 165.6875 138.949219 164.519531 138.722656 164.265625 C 135.035156 160.152344 127.792969 161.027344 124.871094 161.378906 C 118.390625 162.136719 108.273438 162.964844 95.25 164.011719 C 87.46875 153.625 81.476562 145.546875 77.796875 140.222656 C 76.117188 137.808594 72.039062 131.832031 66.472656 131.792969 C 66.214844 131.800781 65.566406 131.808594 64.734375 131.984375 Z M 64.734375 131.984375 " fill-opacity="1" fill-rule="nonzero"/></g></g></g></g><g clip-path="url(#2885935f99)"><g clip-path="url(#4f0ac9c68a)"><g clip-path="url(#60639e4d63)"><g clip-path="url(#00b300a6ec)"><path fill="#fff48b" d="M 64.734375 131.984375 C 65.605469 131.800781 66.257812 131.792969 66.472656 131.792969 C 72.039062 131.832031 76.125 137.847656 77.796875 140.222656 C 81.476562 145.546875 87.511719 153.617188 95.242188 163.96875 C 108.265625 162.921875 118.378906 162.09375 124.871094 161.378906 C 127.792969 161.027344 135.035156 160.152344 138.722656 164.265625 C 138.949219 164.519531 139.976562 165.6875 140.492188 167.523438 C 142.167969 173.441406 136.792969 179.890625 135.027344 182.03125 C 131.367188 186.519531 126.683594 193.164062 120.960938 201.675781 C 126.078125 215.90625 130.023438 226.835938 132.679688 233.5 C 133.769531 236.210938 136.527344 242.9375 133.46875 247.601562 C 133.273438 247.902344 132.410156 249.164062 130.792969 250.152344 C 129.90625 250.683594 128.976562 251.007812 127.976562 251.21875 C 123.113281 252.238281 117.40625 249.675781 115.300781 248.734375 C 108.84375 245.898438 98.957031 242.441406 86.003906 238.242188 C 77.492188 245.867188 71.011719 252.027344 66.769531 256.636719 C 65.175781 258.351562 61.027344 262.984375 56.121094 264.015625 C 55.164062 264.21875 54.140625 264.300781 53.15625 264.164062 C 51.277344 263.910156 49.972656 263.058594 49.679688 262.90625 C 45.054688 259.898438 44.871094 252.628906 44.738281 249.71875 C 44.515625 243.277344 43.84375 233.261719 42.964844 220.386719 C 33.027344 214 25.171875 209.25 19.46875 206.296875 C 16.984375 205.003906 9.46875 201.265625 8.632812 195.214844 C 8.367188 193.324219 8.835938 191.84375 8.941406 191.515625 C 10.664062 186.269531 17.644531 184.15625 20.460938 183.304688 C 26.691406 181.347656 36.328125 178.027344 48.753906 173.730469 C 52.007812 161.9375 54.328125 152.71875 55.445312 146.257812 C 55.902344 143.480469 57.253906 135.238281 62.824219 132.601562 C 63.496094 132.285156 64.152344 132.105469 64.734375 131.984375 M 63.429688 125.773438 C 62.265625 126.015625 61.167969 126.375 60.140625 126.851562 C 51.683594 130.832031 49.835938 141.46875 49.226562 144.96875 L 49.175781 145.152344 C 48.257812 150.488281 46.367188 158.234375 43.511719 168.824219 C 33.269531 172.355469 24.40625 175.429688 18.574219 177.214844 L 18.449219 177.242188 C 14.941406 178.324219 5.609375 181.234375 2.882812 189.546875 C 2.476562 190.710938 1.898438 193.125 2.300781 196.066406 C 3.539062 205.277344 13.171875 210.214844 16.335938 211.839844 L 16.527344 211.929688 C 21.25 214.355469 27.898438 218.320312 36.8125 223.972656 C 37.578125 235.050781 38.148438 243.96875 38.347656 249.890625 L 38.335938 250.023438 C 38.449219 253.675781 38.800781 263.417969 46.140625 268.1875 C 46.140625 268.1875 46.191406 268.21875 46.191406 268.21875 C 48.042969 269.386719 50.117188 270.164062 52.300781 270.4375 C 53.996094 270.644531 55.71875 270.585938 57.425781 270.226562 C 64.160156 268.8125 69.144531 263.398438 71.308594 261.085938 L 71.449219 260.925781 C 74.914062 257.171875 80.1875 252.089844 87.558594 245.4375 C 99.308594 249.285156 107.390625 252.210938 112.785156 254.539062 L 112.976562 254.628906 C 115.847656 255.882812 122.628906 258.828125 129.367188 257.414062 C 131.113281 257.046875 132.714844 256.40625 134.140625 255.546875 C 136.492188 254.144531 137.976562 252.316406 138.839844 251.054688 C 138.839844 251.054688 138.875 251.003906 138.875 251.003906 C 143.675781 243.683594 140.039062 234.632812 138.71875 231.238281 L 138.648438 231.121094 C 136.171875 224.898438 132.4375 214.570312 128.082031 202.515625 C 133.125 195.097656 137.019531 189.65625 140.019531 185.957031 L 140.160156 185.796875 C 141.265625 184.441406 143.257812 181.945312 144.886719 178.75 C 147.214844 174.113281 147.808594 169.707031 146.65625 165.667969 C 145.839844 162.8125 144.347656 160.878906 143.5 159.933594 C 137.660156 153.421875 127.945312 154.507812 124.300781 154.929688 L 124.175781 154.953125 C 118.28125 155.628906 109.023438 156.40625 98.265625 157.28125 C 91.875 148.765625 86.414062 141.351562 83.046875 136.484375 L 82.976562 136.367188 C 80.867188 133.351562 75.324219 125.351562 66.542969 125.292969 C 66.542969 125.292969 66.5 125.300781 66.5 125.300781 C 65.441406 125.4375 64.429688 125.5625 63.429688 125.773438 Z M 63.429688 125.773438 " fill-opacity="1" fill-rule="nonzero"/></g></g></g></g><g clip-path="url(#2ad3623854)"><g clip-path="url(#96a27224e4)"><g clip-path="url(#00ca6be5a8)"><g clip-path="url(#066b7dfdef)"><path fill="#ec297b" d="M 128.867188 255.65625 C 122.753906 256.941406 116.398438 254.167969 113.671875 252.96875 L 113.480469 252.878906 C 107.882812 250.421875 99.433594 247.398438 87.03125 243.34375 C 79.230469 250.429688 73.628906 255.800781 70.023438 259.714844 L 69.882812 259.871094 C 67.40625 262.554688 60.785156 269.695312 52.527344 268.617188 C 50.652344 268.363281 48.820312 267.710938 47.21875 266.707031 C 47.21875 266.707031 47.21875 266.707031 47.171875 266.675781 C 40.675781 262.417969 40.347656 253.40625 40.242188 250.011719 L 40.257812 249.878906 C 40.0625 243.78125 39.445312 234.441406 38.679688 222.929688 C 29.304688 216.945312 22.308594 212.792969 17.4375 210.269531 L 17.246094 210.179688 C 13.980469 208.488281 5.328125 204.078125 4.246094 195.832031 C 3.882812 193.269531 4.398438 191.175781 4.746094 190.148438 C 7.148438 182.769531 15.789062 180.089844 19.054688 179.101562 L 19.179688 179.078125 C 25.214844 177.207031 34.441406 174.011719 45.125 170.300781 C 48.167969 159.15625 50.152344 151.042969 51.113281 145.480469 L 51.160156 145.296875 C 51.796875 141.703125 53.429688 132.109375 61.023438 128.570312 C 62.722656 127.78125 64.667969 127.328125 66.535156 127.324219 C 74.359375 127.367188 79.515625 134.761719 81.445312 137.554688 L 81.515625 137.667969 C 85.050781 142.71875 90.75 150.429688 97.402344 159.367188 C 108.632812 158.476562 118.316406 157.65625 124.425781 156.976562 L 124.550781 156.949219 C 127.945312 156.582031 136.9375 155.558594 142.09375 161.308594 C 142.785156 162.113281 144.089844 163.785156 144.828125 166.269531 C 147.117188 174.261719 140.972656 181.820312 138.699219 184.632812 L 138.558594 184.792969 C 135.417969 188.652344 131.285156 194.40625 125.988281 202.261719 C 130.472656 214.722656 134.324219 225.414062 136.890625 231.835938 L 136.957031 231.953125 C 138.226562 235.101562 141.550781 243.484375 137.316406 249.992188 C 137.316406 249.992188 137.316406 249.992188 137.28125 250.042969 C 136.558594 251.144531 135.238281 252.71875 133.191406 253.929688 C 131.734375 254.839844 130.324219 255.351562 128.867188 255.65625 Z M 85.066406 233.984375 C 85.816406 233.828125 86.609375 233.878906 87.351562 234.109375 C 101.371094 238.648438 110.808594 242.027344 117.066406 244.734375 L 117.257812 244.824219 C 125.285156 248.324219 127.671875 246.871094 128.445312 246.40625 C 129.140625 246.003906 129.542969 245.441406 129.707031 245.191406 C 131.410156 242.542969 129.3125 237.320312 128.546875 235.316406 L 128.480469 235.203125 C 125.726562 228.300781 121.550781 216.683594 116.691406 203.261719 C 116.199219 201.941406 116.410156 200.46875 117.164062 199.316406 C 123.25 190.253906 127.910156 183.699219 131.460938 179.320312 L 131.601562 179.164062 C 137.125 172.382812 136.34375 169.691406 136.121094 168.832031 C 135.84375 167.9375 135.332031 167.355469 135.324219 167.3125 C 133.21875 164.945312 127.542969 165.617188 125.421875 165.847656 L 125.296875 165.875 C 118.59375 166.632812 108.3125 167.496094 95.539062 168.488281 C 94 168.597656 92.519531 167.957031 91.609375 166.722656 C 84.300781 156.929688 77.902344 148.371094 74.042969 142.824219 L 73.976562 142.710938 C 72.746094 140.980469 69.503906 136.300781 66.371094 136.265625 C 66.195312 136.257812 65.464844 136.285156 64.675781 136.664062 C 61.316406 138.234375 60.207031 144.738281 59.824219 146.851562 L 59.777344 147.03125 C 58.664062 153.320312 56.535156 162.199219 52.996094 174.917969 C 52.601562 176.339844 51.535156 177.472656 50.15625 177.933594 C 38.460938 181.988281 28.261719 185.515625 21.695312 187.542969 L 21.570312 187.566406 C 19.535156 188.210938 14.070312 189.878906 13.09375 192.894531 C 13.0625 192.945312 12.828125 193.683594 12.976562 194.605469 C 13.484375 198.257812 19.324219 201.269531 21.265625 202.246094 L 21.460938 202.335938 C 27.007812 205.191406 34.605469 209.734375 45.339844 216.601562 C 46.539062 217.347656 47.28125 218.617188 47.359375 220.027344 C 48.238281 232.683594 48.902344 242.875 49.117188 249.488281 L 49.144531 249.613281 C 49.207031 251.761719 49.429688 257.378906 52.054688 259.121094 C 52.546875 259.40625 53.117188 259.632812 53.699219 259.726562 C 57.363281 260.210938 61.820312 255.382812 63.304688 253.773438 L 63.445312 253.613281 C 67.578125 249.113281 73.800781 243.183594 83.011719 234.9375 C 83.613281 234.507812 84.320312 234.144531 85.066406 233.984375 Z M 134.996094 182.082031 Z M 134.996094 182.082031 " fill-opacity="1" fill-rule="nonzero"/></g></g></g></g><g clip-path="url(#edb89bcd5c)"><g clip-path="url(#d9693c7951)"><g clip-path="url(#582a8ed717)"><g clip-path="url(#3582d3ddd7)"><path fill="#f2e3e6" d="M 126.734375 245.296875 C 123.90625 245.890625 119.457031 243.929688 117.976562 243.289062 L 117.785156 243.199219 C 111.476562 240.457031 101.992188 237.046875 87.929688 232.519531 C 86.902344 232.171875 85.808594 232.144531 84.769531 232.363281 C 83.730469 232.582031 82.753906 233.089844 81.910156 233.828125 C 72.667969 242.125 66.445312 248.054688 62.234375 252.613281 L 62.09375 252.773438 C 60.996094 253.957031 57.671875 257.550781 54.886719 258.136719 C 54.554688 258.207031 54.253906 258.226562 53.984375 258.195312 C 53.667969 258.132812 53.300781 258.035156 53.050781 257.875 C 52.1875 257.277344 51.136719 255.378906 50.945312 249.710938 L 50.960938 249.578125 C 50.734375 242.925781 50.0625 232.6875 49.183594 220.03125 C 49.042969 218.117188 48.019531 216.34375 46.371094 215.304688 C 35.585938 208.40625 27.980469 203.820312 22.378906 200.929688 L 22.1875 200.839844 C 16.398438 197.863281 14.996094 195.738281 14.816406 194.476562 C 14.773438 194.054688 14.859375 193.648438 14.875 193.515625 C 15.183594 192.5 16.726562 190.964844 22.238281 189.289062 L 22.363281 189.261719 C 28.96875 187.226562 39.167969 183.699219 50.855469 179.601562 C 52.757812 178.945312 54.25 177.375 54.757812 175.453125 C 58.222656 162.578125 60.382812 153.648438 61.484375 147.320312 L 61.535156 147.140625 C 62.660156 140.71875 64.285156 138.734375 65.429688 138.191406 C 65.585938 138.117188 65.796875 138.074219 65.960938 138.039062 C 66.046875 138.019531 66.210938 137.984375 66.386719 137.992188 C 67.4375 138.03125 69.335938 139.015625 72.617188 143.6875 L 72.6875 143.804688 C 76.542969 149.347656 82.949219 157.945312 90.261719 167.738281 C 91.523438 169.421875 93.589844 170.371094 95.679688 170.191406 C 108.019531 169.199219 118.816406 168.316406 125.519531 167.554688 L 125.644531 167.53125 C 131.371094 166.890625 133.359375 167.683594 134.082031 168.4375 C 134.191406 168.546875 134.4375 168.882812 134.523438 169.296875 C 134.867188 170.523438 134.449219 173.074219 130.34375 178.128906 L 130.203125 178.289062 C 126.617188 182.71875 121.917969 189.28125 115.800781 198.390625 C 114.707031 200.003906 114.480469 202.039062 115.121094 203.851562 C 119.988281 217.3125 124.167969 228.929688 126.925781 235.875 L 126.953125 236 C 129.058594 241.265625 128.859375 243.425781 128.308594 244.316406 C 128.175781 244.519531 127.886719 244.796875 127.582031 244.988281 C 127.351562 245.125 127.066406 245.226562 126.734375 245.296875 Z M 126.734375 245.296875 " fill-opacity="1" fill-rule="nonzero"/></g></g></g></g><g clip-path="url(#917b8bc1bd)"><g clip-path="url(#a5743df8b2)"><g clip-path="url(#1e135a9ecf)"><g clip-path="url(#99510c6c77)"><path fill="#ed83b5" d="M 67.753906 147.390625 C 71.675781 153.050781 78.066406 161.566406 85.375 171.359375 C 87.914062 174.761719 91.988281 176.585938 96.21875 176.261719 C 108.9375 175.230469 119.273438 174.402344 126.054688 173.625 C 125.921875 173.828125 125.742188 173.996094 125.570312 174.203125 L 125.429688 174.363281 C 121.671875 179 117.003906 185.515625 110.6875 194.925781 C 108.5 198.152344 108.011719 202.234375 109.339844 205.886719 C 114.160156 219.316406 118.328125 230.894531 121.15625 237.953125 C 120.921875 237.871094 120.679688 237.75 120.445312 237.667969 L 120.25 237.578125 C 113.753906 234.75 104.082031 231.289062 89.828125 226.671875 C 87.730469 225.988281 85.546875 225.929688 83.507812 226.359375 C 81.429688 226.792969 79.421875 227.777344 77.777344 229.246094 C 68.386719 237.660156 62.023438 243.753906 57.707031 248.421875 L 57.566406 248.582031 C 57.394531 248.789062 57.210938 248.957031 57.03125 249.125 C 56.789062 242.386719 56.117188 232.152344 55.253906 219.578125 C 55.003906 215.699219 52.925781 212.199219 49.664062 210.117188 C 38.722656 203.078125 30.933594 198.441406 25.140625 195.464844 L 24.949219 195.375 C 24.707031 195.253906 24.503906 195.125 24.269531 195.042969 C 30.949219 192.949219 41.152344 189.421875 52.804688 185.375 C 56.652344 184.050781 59.558594 180.933594 60.648438 177.027344 C 64.257812 164.035156 66.46875 154.921875 67.609375 148.371094 L 67.660156 148.1875 C 67.640625 147.890625 67.671875 147.625 67.753906 147.390625 M 64.734375 131.984375 C 64.152344 132.105469 63.496094 132.285156 62.824219 132.601562 C 57.253906 135.238281 55.902344 143.480469 55.445312 146.257812 C 54.328125 152.71875 52.007812 161.9375 48.753906 173.730469 C 36.335938 178.070312 26.699219 181.390625 20.460938 183.304688 C 17.652344 184.199219 10.664062 186.269531 8.941406 191.515625 C 8.835938 191.84375 8.367188 193.324219 8.632812 195.214844 C 9.476562 201.304688 16.992188 205.046875 19.46875 206.296875 C 25.160156 209.210938 33.027344 214 42.964844 220.386719 C 43.84375 233.261719 44.515625 243.277344 44.738281 249.71875 C 44.832031 252.636719 45.011719 259.90625 49.679688 262.90625 C 49.980469 263.101562 51.277344 263.910156 53.15625 264.164062 C 54.179688 264.292969 55.164062 264.21875 56.121094 264.015625 C 60.984375 262.996094 65.175781 258.351562 66.769531 256.636719 C 71.011719 252.027344 77.5 245.90625 86.003906 238.242188 C 98.957031 242.441406 108.84375 245.898438 115.300781 248.734375 C 117.449219 249.667969 123.113281 252.238281 127.976562 251.21875 C 128.933594 251.019531 129.90625 250.683594 130.792969 250.152344 C 132.410156 249.164062 133.273438 247.902344 133.46875 247.601562 C 136.496094 242.988281 133.738281 236.261719 132.679688 233.5 C 130.023438 226.835938 126.078125 215.90625 120.960938 201.675781 C 126.675781 193.125 131.367188 186.519531 135.027344 182.03125 C 136.78125 179.847656 142.160156 173.402344 140.492188 167.523438 C 139.976562 165.6875 138.949219 164.519531 138.722656 164.265625 C 135.035156 160.152344 127.792969 161.027344 124.871094 161.378906 C 118.390625 162.136719 108.273438 162.964844 95.25 164.011719 C 87.46875 153.625 81.476562 145.546875 77.796875 140.222656 C 76.117188 137.808594 72.039062 131.832031 66.472656 131.792969 C 66.214844 131.800781 65.566406 131.808594 64.734375 131.984375 Z M 64.734375 131.984375 " fill-opacity="1" fill-rule="nonzero"/></g></g></g></g><g clip-path="url(#ad1c521410)"><g clip-path="url(#4bedde4d10)"><g clip-path="url(#0effa1923d)"><g clip-path="url(#b79b7b5d73)"><path fill="#fff48b" d="M 64.734375 131.984375 C 65.605469 131.800781 66.257812 131.792969 66.472656 131.792969 C 72.039062 131.832031 76.125 137.847656 77.796875 140.222656 C 81.476562 145.546875 87.511719 153.617188 95.242188 163.96875 C 108.265625 162.921875 118.378906 162.09375 124.871094 161.378906 C 127.792969 161.027344 135.035156 160.152344 138.722656 164.265625 C 138.949219 164.519531 139.976562 165.6875 140.492188 167.523438 C 142.167969 173.441406 136.792969 179.890625 135.027344 182.03125 C 131.367188 186.519531 126.683594 193.164062 120.960938 201.675781 C 126.078125 215.90625 130.023438 226.835938 132.679688 233.5 C 133.769531 236.210938 136.527344 242.9375 133.46875 247.601562 C 133.273438 247.902344 132.410156 249.164062 130.792969 250.152344 C 129.90625 250.683594 128.976562 251.007812 127.976562 251.21875 C 123.113281 252.238281 117.40625 249.675781 115.300781 248.734375 C 108.84375 245.898438 98.957031 242.441406 86.003906 238.242188 C 77.492188 245.867188 71.011719 252.027344 66.769531 256.636719 C 65.175781 258.351562 61.027344 262.984375 56.121094 264.015625 C 55.164062 264.21875 54.140625 264.300781 53.15625 264.164062 C 51.277344 263.910156 49.972656 263.058594 49.679688 262.90625 C 45.054688 259.898438 44.871094 252.628906 44.738281 249.71875 C 44.515625 243.277344 43.84375 233.261719 42.964844 220.386719 C 33.027344 214 25.171875 209.25 19.46875 206.296875 C 16.984375 205.003906 9.46875 201.265625 8.632812 195.214844 C 8.367188 193.324219 8.835938 191.84375 8.941406 191.515625 C 10.664062 186.269531 17.644531 184.15625 20.460938 183.304688 C 26.691406 181.347656 36.328125 178.027344 48.753906 173.730469 C 52.007812 161.9375 54.328125 152.71875 55.445312 146.257812 C 55.902344 143.480469 57.253906 135.238281 62.824219 132.601562 C 63.496094 132.285156 64.152344 132.105469 64.734375 131.984375 M 63.429688 125.773438 C 62.265625 126.015625 61.167969 126.375 60.140625 126.851562 C 51.683594 130.832031 49.835938 141.46875 49.226562 144.96875 L 49.175781 145.152344 C 48.257812 150.488281 46.367188 158.234375 43.511719 168.824219 C 33.269531 172.355469 24.40625 175.429688 18.574219 177.214844 L 18.449219 177.242188 C 14.941406 178.324219 5.609375 181.234375 2.882812 189.546875 C 2.476562 190.710938 1.898438 193.125 2.300781 196.066406 C 3.539062 205.277344 13.171875 210.214844 16.335938 211.839844 L 16.527344 211.929688 C 21.25 214.355469 27.898438 218.320312 36.8125 223.972656 C 37.578125 235.050781 38.148438 243.96875 38.347656 249.890625 L 38.335938 250.023438 C 38.449219 253.675781 38.800781 263.417969 46.140625 268.1875 C 46.140625 268.1875 46.191406 268.21875 46.191406 268.21875 C 48.042969 269.386719 50.117188 270.164062 52.300781 270.4375 C 53.996094 270.644531 55.71875 270.585938 57.425781 270.226562 C 64.160156 268.8125 69.144531 263.398438 71.308594 261.085938 L 71.449219 260.925781 C 74.914062 257.171875 80.1875 252.089844 87.558594 245.4375 C 99.308594 249.285156 107.390625 252.210938 112.785156 254.539062 L 112.976562 254.628906 C 115.847656 255.882812 122.628906 258.828125 129.367188 257.414062 C 131.113281 257.046875 132.714844 256.40625 134.140625 255.546875 C 136.492188 254.144531 137.976562 252.316406 138.839844 251.054688 C 138.839844 251.054688 138.875 251.003906 138.875 251.003906 C 143.675781 243.683594 140.039062 234.632812 138.71875 231.238281 L 138.648438 231.121094 C 136.171875 224.898438 132.4375 214.570312 128.082031 202.515625 C 133.125 195.097656 137.019531 189.65625 140.019531 185.957031 L 140.160156 185.796875 C 141.265625 184.441406 143.257812 181.945312 144.886719 178.75 C 147.214844 174.113281 147.808594 169.707031 146.65625 165.667969 C 145.839844 162.8125 144.347656 160.878906 143.5 159.933594 C 137.660156 153.421875 127.945312 154.507812 124.300781 154.929688 L 124.175781 154.953125 C 118.28125 155.628906 109.023438 156.40625 98.265625 157.28125 C 91.875 148.765625 86.414062 141.351562 83.046875 136.484375 L 82.976562 136.367188 C 80.867188 133.351562 75.324219 125.351562 66.542969 125.292969 C 66.542969 125.292969 66.5 125.300781 66.5 125.300781 C 65.441406 125.4375 64.429688 125.5625 63.429688 125.773438 Z M 63.429688 125.773438 " fill-opacity="1" fill-rule="nonzero"/></g></g></g></g><g clip-path="url(#18fddace24)"><g clip-path="url(#0979df848c)"><g clip-path="url(#d6e9902e39)"><g clip-path="url(#73cef005f9)"><path fill="#ec297b" d="M 128.867188 255.65625 C 122.753906 256.941406 116.398438 254.167969 113.671875 252.96875 L 113.480469 252.878906 C 107.882812 250.421875 99.433594 247.398438 87.03125 243.34375 C 79.230469 250.429688 73.628906 255.800781 70.023438 259.714844 L 69.882812 259.871094 C 67.40625 262.554688 60.785156 269.695312 52.527344 268.617188 C 50.652344 268.363281 48.820312 267.710938 47.21875 266.707031 C 47.21875 266.707031 47.21875 266.707031 47.171875 266.675781 C 40.675781 262.417969 40.347656 253.40625 40.242188 250.011719 L 40.257812 249.878906 C 40.0625 243.78125 39.445312 234.441406 38.679688 222.929688 C 29.304688 216.945312 22.308594 212.792969 17.4375 210.269531 L 17.246094 210.179688 C 13.980469 208.488281 5.328125 204.078125 4.246094 195.832031 C 3.882812 193.269531 4.398438 191.175781 4.746094 190.148438 C 7.148438 182.769531 15.789062 180.089844 19.054688 179.101562 L 19.179688 179.078125 C 25.214844 177.207031 34.441406 174.011719 45.125 170.300781 C 48.167969 159.15625 50.152344 151.042969 51.113281 145.480469 L 51.160156 145.296875 C 51.796875 141.703125 53.429688 132.109375 61.023438 128.570312 C 62.722656 127.78125 64.667969 127.328125 66.535156 127.324219 C 74.359375 127.367188 79.515625 134.761719 81.445312 137.554688 L 81.515625 137.667969 C 85.050781 142.71875 90.75 150.429688 97.402344 159.367188 C 108.632812 158.476562 118.316406 157.65625 124.425781 156.976562 L 124.550781 156.949219 C 127.945312 156.582031 136.9375 155.558594 142.09375 161.308594 C 142.785156 162.113281 144.089844 163.785156 144.828125 166.269531 C 147.117188 174.261719 140.972656 181.820312 138.699219 184.632812 L 138.558594 184.792969 C 135.417969 188.652344 131.285156 194.40625 125.988281 202.261719 C 130.472656 214.722656 134.324219 225.414062 136.890625 231.835938 L 136.957031 231.953125 C 138.226562 235.101562 141.550781 243.484375 137.316406 249.992188 C 137.316406 249.992188 137.316406 249.992188 137.28125 250.042969 C 136.558594 251.144531 135.238281 252.71875 133.191406 253.929688 C 131.734375 254.839844 130.324219 255.351562 128.867188 255.65625 Z M 85.066406 233.984375 C 85.816406 233.828125 86.609375 233.878906 87.351562 234.109375 C 101.371094 238.648438 110.808594 242.027344 117.066406 244.734375 L 117.257812 244.824219 C 125.285156 248.324219 127.671875 246.871094 128.445312 246.40625 C 129.140625 246.003906 129.542969 245.441406 129.707031 245.191406 C 131.410156 242.542969 129.3125 237.320312 128.546875 235.316406 L 128.480469 235.203125 C 125.726562 228.300781 121.550781 216.683594 116.691406 203.261719 C 116.199219 201.941406 116.410156 200.46875 117.164062 199.316406 C 123.25 190.253906 127.910156 183.699219 131.460938 179.320312 L 131.601562 179.164062 C 137.125 172.382812 136.34375 169.691406 136.121094 168.832031 C 135.84375 167.9375 135.332031 167.355469 135.324219 167.3125 C 133.21875 164.945312 127.542969 165.617188 125.421875 165.847656 L 125.296875 165.875 C 118.59375 166.632812 108.3125 167.496094 95.539062 168.488281 C 94 168.597656 92.519531 167.957031 91.609375 166.722656 C 84.300781 156.929688 77.902344 148.371094 74.042969 142.824219 L 73.976562 142.710938 C 72.746094 140.980469 69.503906 136.300781 66.371094 136.265625 C 66.195312 136.257812 65.464844 136.285156 64.675781 136.664062 C 61.316406 138.234375 60.207031 144.738281 59.824219 146.851562 L 59.777344 147.03125 C 58.664062 153.320312 56.535156 162.199219 52.996094 174.917969 C 52.601562 176.339844 51.535156 177.472656 50.15625 177.933594 C 38.460938 181.988281 28.261719 185.515625 21.695312 187.542969 L 21.570312 187.566406 C 19.535156 188.210938 14.070312 189.878906 13.09375 192.894531 C 13.0625 192.945312 12.828125 193.683594 12.976562 194.605469 C 13.484375 198.257812 19.324219 201.269531 21.265625 202.246094 L 21.460938 202.335938 C 27.007812 205.191406 34.605469 209.734375 45.339844 216.601562 C 46.539062 217.347656 47.28125 218.617188 47.359375 220.027344 C 48.238281 232.683594 48.902344 242.875 49.117188 249.488281 L 49.144531 249.613281 C 49.207031 251.761719 49.429688 257.378906 52.054688 259.121094 C 52.546875 259.40625 53.117188 259.632812 53.699219 259.726562 C 57.363281 260.210938 61.820312 255.382812 63.304688 253.773438 L 63.445312 253.613281 C 67.578125 249.113281 73.800781 243.183594 83.011719 234.9375 C 83.613281 234.507812 84.320312 234.144531 85.066406 233.984375 Z M 134.996094 182.082031 Z M 134.996094 182.082031 " fill-opacity="1" fill-rule="nonzero"/></g></g></g></g><path stroke-linecap="butt" transform="matrix(0.85136, 0, 0, 0.85136, 57.019472, 165.950776)" fill="none" stroke-linejoin="miter" d="M 5.372907 54.00184 L 36.394046 54.00184 C 41.142882 54.00184 44.620773 50.510184 44.620773 45.761348 L 44.620773 40.209569 C 44.620773 37.227209 42.445944 35.056968 39.477348 35.056968 L 39.018523 35.056968 C 38.302757 35.056968 37.747579 34.50179 37.747579 33.7952 C 37.747579 33.079433 38.302757 32.524255 39.018523 32.524255 L 39.477348 32.524255 C 42.445944 32.524255 44.620773 30.354014 44.620773 27.371654 L 44.620773 21.819875 C 44.620773 17.071039 41.142882 13.579383 36.394046 13.579383 L 5.372907 13.579383 C 4.65714 13.579383 4.101963 14.134561 4.101963 14.850327 L 4.101963 52.740072 C 4.101963 53.446662 4.65714 54.00184 5.372907 54.00184 Z M 20.532476 27.986479 C 19.816709 27.986479 19.261531 27.431301 19.261531 26.715534 C 19.261531 26.013533 19.816709 25.458355 20.532476 25.458355 L 28.103083 25.458355 C 28.805085 25.458355 29.360263 26.013533 29.360263 26.715534 C 29.360263 27.431301 28.805085 27.986479 28.103083 27.986479 Z M 20.532476 42.122868 C 19.816709 42.122868 19.261531 41.56769 19.261531 40.865689 C 19.261531 40.159099 19.816709 39.608509 20.532476 39.608509 L 28.103083 39.608509 C 28.805085 39.608509 29.360263 40.159099 29.360263 40.865689 C 29.360263 41.56769 28.805085 42.122868 28.103083 42.122868 Z M 48.461136 54.00184 L 61.042109 54.00184 C 61.744111 54.00184 62.299289 53.446662 62.299289 52.740072 L 62.299289 14.850327 C 62.299289 14.134561 61.69364 13.579383 60.991639 13.579383 L 48.410665 13.579383 C 47.694899 13.579383 47.139721 14.134561 47.139721 14.850327 L 47.139721 52.740072 C 47.139721 53.446662 47.759134 54.00184 48.461136 54.00184 Z M 73.765319 54.00184 L 86.346292 54.00184 C 87.062059 54.00184 87.612649 53.396192 87.612649 52.69419 L 87.612649 28.491186 C 87.612649 27.780008 88.218297 27.22483 88.920299 27.22483 L 93.981136 27.22483 C 94.683137 27.22483 95.238315 26.669652 95.238315 25.963062 L 95.238315 14.850327 C 95.238315 14.185032 94.683137 13.579383 93.981136 13.579383 L 66.093769 13.5335 C 65.378003 13.5335 64.822825 14.088678 64.822825 14.804445 L 64.822825 25.963062 C 64.822825 26.669652 65.378003 27.22483 66.093769 27.22483 L 71.136253 27.22483 C 71.85202 27.22483 72.457668 27.780008 72.457668 28.491186 L 72.457668 52.740072 C 72.457668 53.446662 73.058729 54.00184 73.765319 54.00184 Z M 99.028207 54.00184 L 126.814632 54.00184 C 127.521222 54.00184 128.0764 53.446662 128.0764 52.740072 L 128.0764 41.618161 C 128.0764 40.911571 127.521222 40.356393 126.814632 40.356393 L 114.238247 40.356393 C 113.52248 40.356393 112.916831 39.805804 112.916831 39.099213 L 112.916831 14.900798 C 112.916831 14.185032 112.361654 13.579383 111.659652 13.579383 L 99.078678 13.579383 C 98.376676 13.579383 97.757263 14.134561 97.757263 14.850327 L 97.757263 52.740072 C 97.757263 53.446662 98.312441 54.00184 99.028207 54.00184 Z M 140.905139 54.00184 L 153.128229 54.00184 C 159.097539 54.00184 163.438021 49.65677 163.438021 43.687461 L 163.438021 23.893762 C 163.438021 17.924453 159.097539 13.579383 153.128229 13.579383 L 140.905139 13.579383 C 134.945006 13.579383 130.590759 17.924453 130.590759 23.893762 L 130.590759 43.687461 C 130.590759 49.65677 134.945006 54.00184 140.905139 54.00184 Z M 147.021272 42.37981 C 146.305506 42.37981 145.750328 41.824632 145.750328 41.12263 L 145.750328 26.472357 C 145.750328 25.756591 146.305506 25.201413 147.021272 25.201413 C 147.723274 25.201413 148.278452 25.756591 148.278452 26.472357 L 148.278452 41.12263 C 148.278452 41.824632 147.723274 42.37981 147.021272 42.37981 Z M 176.266759 54.00184 L 205.113069 54.00184 C 205.819659 54.00184 206.370249 53.396192 206.370249 52.69419 L 206.370249 41.618161 C 206.370249 40.911571 205.819659 40.356393 205.113069 40.356393 L 182.382893 40.356393 C 181.667126 40.356393 181.111948 39.805804 181.111948 39.099213 L 181.111948 28.491186 C 181.111948 27.780008 181.667126 27.22483 182.382893 27.22483 L 205.113069 27.22483 C 205.819659 27.22483 206.370249 26.619181 206.370249 25.917179 L 206.370249 14.850327 C 206.370249 14.134561 205.819659 13.579383 205.113069 13.579383 L 176.266759 13.579383 C 170.306626 13.579383 165.95238 17.924453 165.95238 23.893762 L 165.95238 43.687461 C 165.95238 49.65677 170.306626 54.00184 176.266759 54.00184 Z M 210.164729 54.00184 L 222.741115 54.00184 C 223.447705 54.00184 224.048765 53.446662 224.048765 52.740072 L 224.048765 42.333928 C 224.048765 41.618161 224.603943 41.062983 225.319709 41.062983 C 226.0263 41.062983 226.581477 41.618161 226.581477 42.333928 L 226.581477 52.740072 C 226.581477 53.446662 227.132067 54.00184 227.838657 54.00184 L 240.419631 54.00184 C 241.135397 54.00184 241.736458 53.446662 241.736458 52.740072 L 241.736458 47.683824 C 241.736458 47.032293 241.690575 46.674409 241.529987 46.119232 L 238.097978 34.598143 C 237.891507 33.896141 237.951154 33.538258 238.097978 32.98308 L 241.529987 21.461992 C 241.690575 20.906814 241.736458 20.452577 241.736458 19.897399 L 241.736458 14.850327 C 241.736458 14.134561 241.135397 13.579383 240.419631 13.579383 L 227.838657 13.579383 C 227.132067 13.579383 226.581477 14.134561 226.581477 14.850327 L 226.581477 25.247295 C 226.581477 25.963062 226.0263 26.51824 225.319709 26.51824 C 224.603943 26.51824 224.048765 25.963062 224.048765 25.247295 L 224.048765 14.850327 C 224.048765 14.134561 223.447705 13.579383 222.741115 13.579383 L 210.164729 13.579383 C 209.448963 13.579383 208.893785 14.134561 208.893785 14.850327 L 208.893785 52.740072 C 208.893785 53.446662 209.448963 54.00184 210.164729 54.00184 Z M 245.572232 54.00184 L 283.461977 54.00184 C 284.163979 54.00184 284.719157 53.446662 284.719157 52.740072 L 284.719157 43.132283 C 284.719157 42.430281 284.118096 41.875103 283.411506 41.875103 L 260.68133 41.875103 C 259.965564 41.875103 259.410386 41.319925 259.410386 40.617923 C 259.410386 39.902157 259.965564 39.346979 260.68133 39.346979 L 281.43856 39.346979 C 282.14515 39.346979 282.700328 38.791801 282.700328 38.089799 L 282.700328 29.491424 C 282.700328 28.789422 282.094679 28.234244 281.392678 28.234244 L 260.68133 28.234244 C 259.965564 28.234244 259.410386 27.679066 259.410386 26.977065 C 259.410386 26.261298 259.965564 25.70612 260.68133 25.70612 L 283.461977 25.70612 C 284.163979 25.70612 284.719157 25.150942 284.719157 24.44894 L 284.719157 14.850327 C 284.719157 14.134561 284.163979 13.579383 283.461977 13.579383 L 245.521762 13.579383 C 244.805995 13.579383 244.255405 14.134561 244.255405 14.850327 L 244.255405 52.740072 C 244.255405 53.446662 244.870231 54.00184 245.572232 54.00184 Z M 288.513637 54.00184 L 301.140493 54.00184 C 301.847083 54.00184 302.402261 53.396192 302.402261 52.69419 L 302.402261 40.865689 C 302.402261 40.159099 302.957439 39.608509 303.673206 39.608509 L 311.243813 39.608509 C 311.945815 39.608509 312.500993 40.159099 312.500993 40.865689 L 312.500993 52.740072 C 312.500993 53.446662 313.056171 54.00184 313.771938 54.00184 L 326.403382 54.00184 C 327.105384 54.00184 327.660562 53.396192 327.660562 52.69419 L 327.660562 40.209569 C 327.660562 37.227209 325.490321 35.056968 322.503372 35.056968 L 322.0629 35.056968 C 321.347134 35.056968 320.791956 34.50179 320.791956 33.7952 C 320.791956 33.079433 321.347134 32.524255 322.0629 32.524255 L 322.503372 32.524255 C 325.490321 32.524255 327.660562 30.354014 327.660562 27.371654 L 327.660562 21.819875 C 327.660562 17.071039 324.18267 13.579383 319.433835 13.579383 L 288.513637 13.579383 C 287.797871 13.579383 287.242693 14.134561 287.242693 14.850327 L 287.242693 52.740072 C 287.242693 53.446662 287.797871 54.00184 288.513637 54.00184 Z M 303.673206 27.986479 C 302.957439 27.986479 302.402261 27.431301 302.402261 26.715534 C 302.402261 26.013533 302.957439 25.458355 303.673206 25.458355 L 311.243813 25.458355 C 311.945815 25.458355 312.500993 26.013533 312.500993 26.715534 C 312.500993 27.431301 311.945815 27.986479 311.243813 27.986479 Z M 303.673206 27.986479 " stroke="#fff48b" stroke-width="7.326734" stroke-opacity="1" stroke-miterlimit="4"/><g fill="#ec297b" fill-opacity="1"><g transform="translate(59.440527, 211.924215)"><g><path d="M 2.15625 0 L 28.5625 0 C 32.609375 0 35.578125 -2.96875 35.578125 -7.015625 L 35.578125 -11.75 C 35.578125 -14.28125 33.71875 -16.125 31.1875 -16.125 L 30.796875 -16.125 C 30.203125 -16.125 29.71875 -16.609375 29.71875 -17.203125 C 29.71875 -17.8125 30.203125 -18.28125 30.796875 -18.28125 L 31.1875 -18.28125 C 33.71875 -18.28125 35.578125 -20.125 35.578125 -22.671875 L 35.578125 -27.40625 C 35.578125 -31.4375 32.609375 -34.40625 28.5625 -34.40625 L 2.15625 -34.40625 C 1.546875 -34.40625 1.078125 -33.9375 1.078125 -33.34375 L 1.078125 -1.078125 C 1.078125 -0.46875 1.546875 0 2.15625 0 Z M 15.0625 -22.15625 C 14.453125 -22.15625 13.984375 -22.625 13.984375 -23.234375 C 13.984375 -23.828125 14.453125 -24.296875 15.0625 -24.296875 L 21.515625 -24.296875 C 22.109375 -24.296875 22.578125 -23.828125 22.578125 -23.234375 C 22.578125 -22.625 22.109375 -22.15625 21.515625 -22.15625 Z M 15.0625 -10.109375 C 14.453125 -10.109375 13.984375 -10.578125 13.984375 -11.1875 C 13.984375 -11.78125 14.453125 -12.265625 15.0625 -12.265625 L 21.515625 -12.265625 C 22.109375 -12.265625 22.578125 -11.78125 22.578125 -11.1875 C 22.578125 -10.578125 22.109375 -10.109375 21.515625 -10.109375 Z M 15.0625 -10.109375 "/></g></g></g><g fill="#ec297b" fill-opacity="1"><g transform="translate(96.082496, 211.924215)"><g><path d="M 2.1875 0 L 12.90625 0 C 13.5 0 13.984375 -0.46875 13.984375 -1.078125 L 13.984375 -33.34375 C 13.984375 -33.9375 13.46875 -34.40625 12.859375 -34.40625 L 2.15625 -34.40625 C 1.546875 -34.40625 1.078125 -33.9375 1.078125 -33.34375 L 1.078125 -1.078125 C 1.078125 -0.46875 1.59375 0 2.1875 0 Z M 2.1875 0 "/></g></g></g><g fill="#ec297b" fill-opacity="1"><g transform="translate(111.13495, 211.924215)"><g><path d="M 8.6875 0 L 19.40625 0 C 20 0 20.46875 -0.515625 20.46875 -1.125 L 20.46875 -21.71875 C 20.46875 -22.328125 20.984375 -22.796875 21.59375 -22.796875 L 25.890625 -22.796875 C 26.5 -22.796875 26.96875 -23.265625 26.96875 -23.875 L 26.96875 -33.34375 C 26.96875 -33.890625 26.5 -34.40625 25.890625 -34.40625 L 2.15625 -34.453125 C 1.546875 -34.453125 1.078125 -33.984375 1.078125 -33.375 L 1.078125 -23.875 C 1.078125 -23.265625 1.546875 -22.796875 2.15625 -22.796875 L 6.453125 -22.796875 C 7.046875 -22.796875 7.578125 -22.328125 7.578125 -21.71875 L 7.578125 -1.078125 C 7.578125 -0.46875 8.09375 0 8.6875 0 Z M 8.6875 0 "/></g></g></g><g fill="#ec297b" fill-opacity="1"><g transform="translate(139.175515, 211.924215)"><g><path d="M 2.15625 0 L 25.8125 0 C 26.40625 0 26.890625 -0.46875 26.890625 -1.078125 L 26.890625 -10.53125 C 26.890625 -11.140625 26.40625 -11.609375 25.8125 -11.609375 L 15.09375 -11.609375 C 14.5 -11.609375 13.984375 -12.09375 13.984375 -12.6875 L 13.984375 -33.296875 C 13.984375 -33.890625 13.5 -34.40625 12.90625 -34.40625 L 2.1875 -34.40625 C 1.59375 -34.40625 1.078125 -33.9375 1.078125 -33.34375 L 1.078125 -1.078125 C 1.078125 -0.46875 1.546875 0 2.15625 0 Z M 2.15625 0 "/></g></g></g><g fill="#ec297b" fill-opacity="1"><g transform="translate(167.13007, 211.924215)"><g><path d="M 9.84375 0 L 20.265625 0 C 25.34375 0 29.03125 -3.703125 29.03125 -8.78125 L 29.03125 -25.640625 C 29.03125 -30.71875 25.34375 -34.40625 20.265625 -34.40625 L 9.84375 -34.40625 C 4.78125 -34.40625 1.078125 -30.71875 1.078125 -25.640625 L 1.078125 -8.78125 C 1.078125 -3.703125 4.78125 0 9.84375 0 Z M 15.0625 -9.890625 C 14.453125 -9.890625 13.984375 -10.359375 13.984375 -10.96875 L 13.984375 -23.4375 C 13.984375 -24.046875 14.453125 -24.515625 15.0625 -24.515625 C 15.65625 -24.515625 16.125 -24.046875 16.125 -23.4375 L 16.125 -10.96875 C 16.125 -10.359375 15.65625 -9.890625 15.0625 -9.890625 Z M 15.0625 -9.890625 "/></g></g></g><g fill="#ec297b" fill-opacity="1"><g transform="translate(197.234978, 211.924215)"><g><path d="M 9.84375 0 L 34.40625 0 C 35.015625 0 35.484375 -0.515625 35.484375 -1.125 L 35.484375 -10.53125 C 35.484375 -11.140625 35.015625 -11.609375 34.40625 -11.609375 L 15.0625 -11.609375 C 14.453125 -11.609375 13.984375 -12.09375 13.984375 -12.6875 L 13.984375 -21.71875 C 13.984375 -22.328125 14.453125 -22.796875 15.0625 -22.796875 L 34.40625 -22.796875 C 35.015625 -22.796875 35.484375 -23.3125 35.484375 -23.921875 L 35.484375 -33.34375 C 35.484375 -33.9375 35.015625 -34.40625 34.40625 -34.40625 L 9.84375 -34.40625 C 4.78125 -34.40625 1.078125 -30.71875 1.078125 -25.640625 L 1.078125 -8.78125 C 1.078125 -3.703125 4.78125 0 9.84375 0 Z M 9.84375 0 "/></g></g></g><g fill="#ec297b" fill-opacity="1"><g transform="translate(233.790936, 211.924215)"><g><path d="M 2.15625 0 L 12.859375 0 C 13.46875 0 13.984375 -0.46875 13.984375 -1.078125 L 13.984375 -9.9375 C 13.984375 -10.53125 14.453125 -11.015625 15.0625 -11.015625 C 15.65625 -11.015625 16.125 -10.53125 16.125 -9.9375 L 16.125 -1.078125 C 16.125 -0.46875 16.609375 0 17.203125 0 L 27.921875 0 C 28.515625 0 29.03125 -0.46875 29.03125 -1.078125 L 29.03125 -5.375 C 29.03125 -5.9375 29 -6.234375 28.859375 -6.703125 L 25.9375 -16.515625 C 25.765625 -17.125 25.8125 -17.421875 25.9375 -17.890625 L 28.859375 -27.703125 C 29 -28.171875 29.03125 -28.5625 29.03125 -29.03125 L 29.03125 -33.34375 C 29.03125 -33.9375 28.515625 -34.40625 27.921875 -34.40625 L 17.203125 -34.40625 C 16.609375 -34.40625 16.125 -33.9375 16.125 -33.34375 L 16.125 -24.46875 C 16.125 -23.875 15.65625 -23.40625 15.0625 -23.40625 C 14.453125 -23.40625 13.984375 -23.875 13.984375 -24.46875 L 13.984375 -33.34375 C 13.984375 -33.9375 13.46875 -34.40625 12.859375 -34.40625 L 2.15625 -34.40625 C 1.546875 -34.40625 1.078125 -33.9375 1.078125 -33.34375 L 1.078125 -1.078125 C 1.078125 -0.46875 1.546875 0 2.15625 0 Z M 2.15625 0 "/></g></g></g><g fill="#ec297b" fill-opacity="1"><g transform="translate(263.895844, 211.924215)"><g><path d="M 2.1875 0 L 34.453125 0 C 35.0625 0 35.53125 -0.46875 35.53125 -1.078125 L 35.53125 -9.25 C 35.53125 -9.84375 35.015625 -10.328125 34.40625 -10.328125 L 15.0625 -10.328125 C 14.453125 -10.328125 13.984375 -10.796875 13.984375 -11.40625 C 13.984375 -12 14.453125 -12.46875 15.0625 -12.46875 L 32.734375 -12.46875 C 33.34375 -12.46875 33.8125 -12.953125 33.8125 -13.546875 L 33.8125 -20.859375 C 33.8125 -21.46875 33.296875 -21.9375 32.6875 -21.9375 L 15.0625 -21.9375 C 14.453125 -21.9375 13.984375 -22.40625 13.984375 -23.015625 C 13.984375 -23.609375 14.453125 -24.09375 15.0625 -24.09375 L 34.453125 -24.09375 C 35.0625 -24.09375 35.53125 -24.5625 35.53125 -25.171875 L 35.53125 -33.34375 C 35.53125 -33.9375 35.0625 -34.40625 34.453125 -34.40625 L 2.15625 -34.40625 C 1.546875 -34.40625 1.078125 -33.9375 1.078125 -33.34375 L 1.078125 -1.078125 C 1.078125 -0.46875 1.59375 0 2.1875 0 Z M 2.1875 0 "/></g></g></g><g fill="#ec297b" fill-opacity="1"><g transform="translate(300.494814, 211.924215)"><g><path d="M 2.15625 0 L 12.90625 0 C 13.5 0 13.984375 -0.515625 13.984375 -1.125 L 13.984375 -11.1875 C 13.984375 -11.78125 14.453125 -12.265625 15.0625 -12.265625 L 21.515625 -12.265625 C 22.109375 -12.265625 22.578125 -11.78125 22.578125 -11.1875 L 22.578125 -1.078125 C 22.578125 -0.46875 23.0625 0 23.65625 0 L 34.40625 0 C 35.015625 0 35.484375 -0.515625 35.484375 -1.125 L 35.484375 -11.75 C 35.484375 -14.28125 33.640625 -16.125 31.09375 -16.125 L 30.71875 -16.125 C 30.109375 -16.125 29.640625 -16.609375 29.640625 -17.203125 C 29.640625 -17.8125 30.109375 -18.28125 30.71875 -18.28125 L 31.09375 -18.28125 C 33.640625 -18.28125 35.484375 -20.125 35.484375 -22.671875 L 35.484375 -27.40625 C 35.484375 -31.4375 32.515625 -34.40625 28.46875 -34.40625 L 2.15625 -34.40625 C 1.546875 -34.40625 1.078125 -33.9375 1.078125 -33.34375 L 1.078125 -1.078125 C 1.078125 -0.46875 1.546875 0 2.15625 0 Z M 15.0625 -22.15625 C 14.453125 -22.15625 13.984375 -22.625 13.984375 -23.234375 C 13.984375 -23.828125 14.453125 -24.296875 15.0625 -24.296875 L 21.515625 -24.296875 C 22.109375 -24.296875 22.578125 -23.828125 22.578125 -23.234375 C 22.578125 -22.625 22.109375 -22.15625 21.515625 -22.15625 Z M 15.0625 -22.15625 "/></g></g></g><path stroke-linecap="butt" transform="matrix(0.85136, 0, 0, 0.85136, 142.268155, 229.644566)" fill="none" stroke-linejoin="miter" d="M 1.295502 8.630452 L 1.157855 9.603161 C 1.006442 10.635516 0.896325 11.323753 0.845854 11.690813 L 0.845854 12.007402 C 0.845854 12.434109 0.946795 12.723169 1.107384 12.90211 C 1.323032 13.090229 1.662562 13.227876 2.19021 13.278347 C 2.506799 13.301288 3.034448 13.328817 3.750214 13.328817 L 10.210466 13.328817 C 10.187525 13.567406 10.159995 13.723407 10.132466 13.833525 C 10.132466 13.961996 10.081995 14.072113 10.026936 14.145525 C 9.971877 14.200584 9.898465 14.223526 9.792936 14.273996 L 0.501735 14.273996 C 0.341147 15.443999 0.263146 16.20106 0.263146 16.577296 C 0.263146 16.967297 0.313617 17.260945 0.451265 17.472005 C 0.607265 17.660123 0.845854 17.788594 1.157855 17.871182 C 1.534091 17.949182 2.378328 17.999653 3.750214 17.999653 L 9.554347 17.999653 C 10.903292 17.999653 11.77047 17.949182 12.13753 17.871182 C 12.536707 17.788594 12.825767 17.632593 13.032238 17.394004 C 13.192827 17.205886 13.298357 16.967297 13.408474 16.600238 C 13.509416 16.233178 13.670005 15.443999 13.826005 14.273996 L 13.963652 13.328817 C 14.092123 12.273521 14.174712 11.589872 14.174712 11.273283 L 14.174712 11.112694 C 14.174712 10.607987 14.092123 10.268457 13.908593 10.080338 C 13.725063 9.84175 13.358004 9.713279 12.770708 9.662808 C 12.454119 9.603161 11.77047 9.603161 10.715173 9.603161 L 4.911041 9.603161 C 4.961511 9.314101 4.989041 9.13516 4.989041 9.052571 C 5.011982 8.947041 5.039512 8.869041 5.094571 8.81857 C 5.14963 8.735982 5.250571 8.685511 5.356101 8.657982 C 5.46163 8.630452 5.727749 8.630452 6.094809 8.630452 L 11.270351 8.630452 C 12.114589 8.630452 12.720237 8.607511 13.032238 8.579982 C 13.408474 8.529511 13.670005 8.469864 13.876476 8.368922 C 14.252712 8.180804 14.514242 7.841274 14.670242 7.309037 C 14.80789 6.941977 14.959302 6.152799 15.119891 4.932325 L 5.328571 4.932325 C 4.383392 4.932325 3.722685 4.932325 3.351037 4.991972 C 2.873859 5.042443 2.534329 5.147973 2.29574 5.331503 C 2.029622 5.519621 1.82315 5.886681 1.690091 6.414329 C 1.584562 6.758448 1.451502 7.497155 1.295502 8.630452 Z M 19.864138 4.909384 C 18.648253 4.909384 17.854486 4.932325 17.487426 4.991972 C 17.010248 5.042443 16.643189 5.198444 16.381659 5.437032 C 16.14307 5.648092 15.954952 6.09774 15.826481 6.730918 C 15.77601 7.047507 15.665892 7.653156 15.509892 8.607511 L 14.716125 14.251055 C 14.583066 15.306352 14.505066 15.994589 14.482124 16.361649 L 14.482124 16.549767 C 14.482124 16.916827 14.532595 17.182945 14.642713 17.366475 C 14.794125 17.605064 15.060243 17.761064 15.427303 17.871182 C 15.798951 17.921653 16.4826 17.972124 17.542485 17.972124 L 27.512746 17.972124 L 27.512746 17.550005 C 27.512746 16.756238 27.512746 16.233178 27.462275 15.912001 C 27.434746 15.333881 27.333804 14.966822 27.122745 14.751174 C 26.957568 14.540115 26.668509 14.411644 26.250978 14.361173 C 25.961919 14.306114 25.296623 14.273996 24.273444 14.273996 L 18.460135 14.273996 C 18.519782 13.984937 18.547311 13.805995 18.547311 13.723407 C 18.570252 13.567406 18.597782 13.457288 18.648253 13.406818 C 18.698723 13.356347 18.7859 13.328817 18.859312 13.328817 C 18.937312 13.301288 19.07496 13.301288 19.253901 13.301288 L 24.796504 13.301288 C 25.72333 13.301288 26.35192 13.278347 26.696038 13.227876 C 27.223687 13.168229 27.595335 13.012228 27.833923 12.801169 C 28.040395 12.56258 28.228513 12.19552 28.334042 11.690813 C 28.439572 11.351283 28.545102 10.663046 28.678161 9.603161 L 28.834161 8.607511 C 28.944279 7.763274 29.022279 7.208096 29.045221 6.919036 C 29.07275 6.680447 29.07275 6.492329 29.07275 6.336329 C 29.07275 5.80868 28.971809 5.437032 28.70569 5.258091 C 28.494631 5.092914 28.095453 4.991972 27.512746 4.932325 C 27.196157 4.909384 26.567567 4.909384 25.613212 4.909384 Z M 19.919197 8.630452 L 25.058034 8.630452 C 25.035093 8.9241 25.007563 9.13516 24.980034 9.236101 C 24.980034 9.346219 24.957092 9.39669 24.906622 9.451749 C 24.851563 9.502219 24.741445 9.55269 24.590033 9.58022 L 19.12543 9.58022 C 19.175901 9.26363 19.203431 9.084689 19.203431 8.997512 C 19.253901 8.896571 19.281431 8.81857 19.313548 8.758923 C 19.364019 8.708453 19.41449 8.657982 19.464961 8.657982 C 19.52002 8.630452 19.680608 8.630452 19.919197 8.630452 Z M 34.606176 -0.47263 L 33.86288 4.932325 L 33.31229 4.932325 C 32.518524 4.932325 31.963346 4.932325 31.623816 4.991972 C 31.096167 5.042443 30.729107 5.198444 30.462989 5.409503 C 30.2244 5.648092 30.036282 6.09774 29.88487 6.758448 C 29.829811 7.075037 29.724281 7.712803 29.591222 8.657982 L 33.335232 8.657982 L 33.206761 9.603161 L 32.679112 13.328817 L 32.550641 14.306114 C 32.390053 15.278822 32.284523 15.944118 32.229464 16.288237 L 32.229464 16.678238 C 32.229464 16.994827 32.284523 17.260945 32.390053 17.444475 C 32.578171 17.710593 32.995701 17.898712 33.683938 17.972124 C 34.050998 17.972124 34.684176 17.999653 35.611002 17.999653 L 38.006067 17.999653 C 39.038423 17.999653 39.72666 17.972124 40.070778 17.949182 C 40.598427 17.871182 40.993016 17.738123 41.231605 17.522475 C 41.442664 17.316004 41.630783 16.944356 41.759253 16.467178 C 41.860195 16.100119 41.970313 15.384352 42.098784 14.306114 L 36.294651 14.306114 L 36.42771 13.328817 L 36.959947 9.603161 L 37.088418 8.657982 L 39.148541 8.657982 C 40.254308 8.657982 40.965487 8.630452 41.305017 8.607511 C 41.837254 8.529511 42.236431 8.391864 42.47502 8.231275 C 42.709021 8.024804 42.89255 7.712803 43.02561 7.286096 C 43.131139 6.919036 43.264198 6.152799 43.420199 4.932325 L 37.616066 4.932325 L 37.854655 3.24385 C 38.006067 2.326201 38.093244 1.743493 38.093244 1.504905 C 38.143715 1.266316 38.143715 1.082786 38.143715 0.926785 C 38.143715 0.637726 38.116185 0.399137 38.038185 0.238548 C 37.877596 -0.128511 37.455478 -0.344159 36.721358 -0.39463 C 36.317592 -0.4451 35.611002 -0.47263 34.606176 -0.47263 Z M 48.586565 -0.47263 L 47.843269 4.932325 L 47.288091 4.932325 C 46.498913 4.932325 45.943735 4.932325 45.599616 4.991972 C 45.071968 5.042443 44.704908 5.198444 44.443378 5.409503 C 44.204789 5.648092 44.016671 6.09774 43.860671 6.758448 C 43.8102 7.075037 43.700082 7.712803 43.571611 8.657982 L 47.315621 8.657982 L 47.18715 9.603161 L 46.659501 13.328817 L 46.53103 14.306114 C 46.365854 15.278822 46.264912 15.944118 46.205265 16.288237 L 46.205265 16.678238 C 46.205265 16.994827 46.264912 17.260945 46.365854 17.444475 C 46.553972 17.710593 46.971502 17.898712 47.664327 17.972124 C 48.031387 17.972124 48.659977 17.999653 49.591391 17.999653 L 51.986456 17.999653 C 53.018812 17.999653 53.707049 17.972124 54.046579 17.949182 C 54.574228 17.871182 54.968817 17.738123 55.207406 17.522475 C 55.418465 17.316004 55.606583 16.944356 55.735054 16.467178 C 55.840584 16.100119 55.950702 15.384352 56.079173 14.306114 L 50.270452 14.306114 L 50.408099 13.328817 L 50.935748 9.603161 L 51.064219 8.657982 L 53.124342 8.657982 C 54.234697 8.657982 54.941287 8.630452 55.285406 8.607511 C 55.813054 8.529511 56.212232 8.391864 56.450821 8.231275 C 56.68941 8.024804 56.868351 7.712803 57.005999 7.286096 C 57.10694 6.919036 57.244587 6.152799 57.396 4.932325 L 51.591867 4.932325 L 51.830456 3.24385 C 51.986456 2.326201 52.069045 1.743493 52.069045 1.504905 C 52.119515 1.266316 52.119515 1.082786 52.119515 0.926785 C 52.119515 0.637726 52.096574 0.399137 52.018574 0.238548 C 51.857985 -0.128511 51.431278 -0.344159 50.697159 -0.39463 C 50.297981 -0.4451 49.591391 -0.47263 48.586565 -0.47263 Z M 63.090014 -0.47263 C 61.846599 -0.47263 61.03448 -0.4451 60.662832 -0.39463 C 60.245301 -0.344159 59.896594 -0.18357 59.690123 0.0320772 C 59.474476 0.238548 59.290946 0.637726 59.162475 1.215845 C 59.075298 1.532434 58.974357 2.220671 58.813768 3.220909 L 58.735768 3.936676 L 62.484366 3.936676 Z M 58.607297 4.909384 L 57.703412 11.300812 L 56.758233 17.999653 C 58.079648 17.999653 58.923886 17.949182 59.290946 17.871182 C 59.791065 17.761064 60.135183 17.550005 60.346243 17.233416 C 60.506831 16.994827 60.635302 16.655297 60.713302 16.178119 C 60.795891 15.834 60.90142 15.20541 61.03448 14.306114 L 61.589658 10.240927 L 62.351307 4.909384 Z M 63.379074 8.657982 L 63.246015 9.603161 L 62.713778 13.328817 L 62.585307 14.306114 L 62.057659 17.999653 C 63.190956 17.999653 63.934252 17.972124 64.273782 17.949182 C 64.75096 17.871182 65.11802 17.738123 65.333667 17.572946 C 65.595197 17.366475 65.806257 17.054474 65.911786 16.600238 C 66.012728 16.233178 66.173316 15.466941 66.338493 14.306114 L 66.466964 13.328817 L 66.994613 9.603161 C 67.045083 9.314101 67.072613 9.13516 67.072613 9.052571 C 67.123084 8.896571 67.205672 8.786453 67.256143 8.735982 C 67.334143 8.685511 67.412143 8.657982 67.522261 8.657982 C 67.572732 8.630452 67.650732 8.630452 67.73332 8.630452 C 67.83885 8.630452 67.967321 8.630452 68.10038 8.657982 L 72.936393 8.657982 L 72.798745 9.603161 L 72.271097 13.328817 L 72.142626 14.306114 L 71.614977 17.999653 C 72.899687 17.999653 73.743924 17.949182 74.12016 17.898712 C 74.56522 17.788594 74.886398 17.632593 75.092869 17.394004 C 75.303928 17.182945 75.441576 16.838826 75.542517 16.416708 C 75.648047 16.072589 75.758165 15.356823 75.886636 14.306114 L 76.019695 13.328817 L 76.547343 9.603161 L 76.675814 8.657982 C 76.836403 7.497155 76.914403 6.730918 76.914403 6.391388 L 76.914403 6.20327 C 76.891462 5.753621 76.753814 5.437032 76.547343 5.281032 C 76.386754 5.120443 76.125224 5.042443 75.781106 4.991972 C 75.464517 4.932325 74.964398 4.932325 74.248631 4.932325 L 66.834024 4.932325 C 66.150375 4.932325 65.645668 4.932325 65.333667 4.991972 C 64.90696 5.042443 64.590371 5.147973 64.379312 5.308561 C 64.113193 5.487503 63.906722 5.83621 63.746134 6.336329 C 63.668133 6.680447 63.535074 7.446685 63.379074 8.657982 Z M 77.648522 8.657982 C 77.648522 8.685511 77.538405 9.58022 77.276874 11.378812 C 77.221815 11.690813 77.171345 12.167991 77.061227 12.82411 C 76.983227 13.457288 76.909815 13.961996 76.854756 14.306114 C 76.744638 15.150352 76.694167 15.733059 76.643696 16.049648 C 76.643696 16.233178 76.616167 16.416708 76.616167 16.577296 C 76.616167 16.916827 76.671226 17.182945 76.772167 17.366475 C 76.932756 17.660123 77.276874 17.839064 77.804523 17.949182 C 78.176171 17.972124 78.83229 17.999653 79.837116 17.999653 L 85.907367 17.999653 C 85.852308 18.527301 85.797249 18.87142 85.746779 19.032009 C 85.696308 19.243068 85.645837 19.399068 85.535719 19.50001 C 85.457719 19.587186 85.329248 19.637657 85.14113 19.688128 C 84.980541 19.688128 84.663952 19.715657 84.186775 19.715657 L 79.626057 19.715657 C 78.83229 19.715657 78.254171 19.715657 77.914641 19.766128 C 77.460404 19.821187 77.120874 19.899187 76.882285 20.055188 C 76.565696 20.243306 76.304166 20.642483 76.116048 21.220602 C 76.010518 21.564721 75.826988 22.303429 75.588399 23.436726 L 85.14113 23.436726 C 86.402898 23.436726 87.224194 23.386255 87.595842 23.326608 C 88.07302 23.253196 88.389609 23.097196 88.59608 22.858607 C 88.834669 22.592488 89.018199 22.193311 89.123729 21.638133 C 89.206317 21.271073 89.311847 20.642483 89.412788 19.715657 L 89.651377 17.999653 L 90.179025 14.306114 L 90.495614 11.956932 L 90.972792 8.657982 C 91.050792 7.974333 91.105851 7.497155 91.105851 7.235625 L 91.105851 6.17574 C 91.073734 5.785739 90.972792 5.519621 90.761733 5.359032 C 90.656203 5.230561 90.468085 5.147973 90.229496 5.092914 C 90.078084 5.042443 89.839495 4.991972 89.550435 4.991972 C 89.256788 4.932325 88.651139 4.932325 87.724313 4.932325 L 81.920181 4.932325 C 80.864884 4.932325 80.153705 4.932325 79.782057 4.991972 C 79.19935 5.042443 78.809349 5.198444 78.543231 5.437032 C 78.332171 5.648092 78.144053 6.047269 77.988053 6.602447 C 77.937582 6.919036 77.804523 7.602685 77.648522 8.657982 Z M 82.346888 8.657982 L 87.224194 8.657982 L 86.563487 13.356347 C 86.513016 13.645406 86.490075 13.856466 86.435016 13.961996 C 86.402898 14.072113 86.379957 14.122584 86.301957 14.173055 C 86.251486 14.223526 86.145956 14.251055 86.012897 14.273996 C 85.907367 14.273996 85.719249 14.306114 85.43019 14.306114 L 80.626295 14.306114 L 80.947472 11.878931 L 81.264061 9.635278 C 81.314532 9.373748 81.342061 9.21316 81.342061 9.13516 C 81.392532 8.974571 81.415473 8.869041 81.475121 8.81857 C 81.525591 8.735982 81.631121 8.685511 81.732062 8.685511 C 81.84218 8.657982 82.030298 8.657982 82.346888 8.657982 Z M 91.890442 8.630452 L 91.752794 9.603161 C 91.601382 10.635516 91.491264 11.323753 91.440793 11.690813 L 91.440793 12.007402 C 91.440793 12.434109 91.541735 12.723169 91.702323 12.90211 C 91.917971 13.090229 92.257501 13.227876 92.78515 13.278347 C 93.101739 13.301288 93.629387 13.328817 94.345154 13.328817 L 100.805406 13.328817 C 100.782464 13.567406 100.754935 13.723407 100.727405 13.833525 C 100.727405 13.961996 100.676935 14.072113 100.621876 14.145525 C 100.566817 14.200584 100.493405 14.223526 100.387875 14.273996 L 91.096675 14.273996 C 90.936086 15.443999 90.858086 16.20106 90.858086 16.577296 C 90.858086 16.967297 90.908557 17.260945 91.046204 17.472005 C 91.202204 17.660123 91.440793 17.788594 91.752794 17.871182 C 92.12903 17.949182 92.973268 17.999653 94.345154 17.999653 L 100.149286 17.999653 C 101.498231 17.999653 102.36541 17.949182 102.732469 17.871182 C 103.131647 17.788594 103.420707 17.632593 103.627178 17.394004 C 103.787766 17.205886 103.893296 16.967297 104.003414 16.600238 C 104.104355 16.233178 104.264944 15.443999 104.420944 14.273996 L 104.558592 13.328817 C 104.687063 12.273521 104.769651 11.589872 104.769651 11.273283 L 104.769651 11.112694 C 104.769651 10.607987 104.687063 10.268457 104.503533 10.080338 C 104.320003 9.84175 103.952943 9.713279 103.365648 9.662808 C 103.049059 9.603161 102.36541 9.603161 101.310113 9.603161 L 95.50598 9.603161 C 95.556451 9.314101 95.58398 9.13516 95.58398 9.052571 C 95.606922 8.947041 95.634451 8.869041 95.68951 8.81857 C 95.744569 8.735982 95.845511 8.685511 95.95104 8.657982 C 96.05657 8.630452 96.322688 8.630452 96.689748 8.630452 L 101.865291 8.630452 C 102.709528 8.630452 103.315177 8.607511 103.627178 8.579982 C 104.003414 8.529511 104.264944 8.469864 104.471415 8.368922 C 104.847651 8.180804 105.109182 7.841274 105.265182 7.309037 C 105.402829 6.941977 105.554241 6.152799 105.71483 4.932325 L 95.923511 4.932325 C 94.978332 4.932325 94.317624 4.932325 93.945976 4.991972 C 93.468799 5.042443 93.129268 5.147973 92.890679 5.331503 C 92.624561 5.519621 92.41809 5.886681 92.285031 6.414329 C 92.179501 6.758448 92.046442 7.497155 91.890442 8.630452 Z M 91.890442 8.630452 " stroke="#fff48b" stroke-width="6.92769" stroke-opacity="1" stroke-miterlimit="4"/><g fill="#ec297b" fill-opacity="1"><g transform="translate(142.268155, 244.969045)"><g><path d="M 1.09375 -7.96875 L 0.984375 -7.140625 C 0.859375 -6.265625 0.765625 -5.6875 0.71875 -5.375 L 0.71875 -5.09375 C 0.71875 -4.734375 0.8125 -4.5 0.9375 -4.34375 C 1.125 -4.171875 1.421875 -4.0625 1.859375 -4.015625 C 2.140625 -4 2.578125 -3.984375 3.1875 -3.984375 L 8.703125 -3.984375 C 8.671875 -3.78125 8.65625 -3.640625 8.625 -3.546875 C 8.625 -3.4375 8.578125 -3.34375 8.53125 -3.28125 C 8.5 -3.234375 8.421875 -3.21875 8.328125 -3.171875 L 0.421875 -3.171875 C 0.296875 -2.171875 0.21875 -1.53125 0.21875 -1.21875 C 0.21875 -0.875 0.265625 -0.625 0.375 -0.453125 C 0.515625 -0.296875 0.71875 -0.1875 0.984375 -0.109375 C 1.296875 -0.046875 2.015625 0 3.1875 0 L 8.140625 0 C 9.28125 0 10.015625 -0.046875 10.328125 -0.109375 C 10.671875 -0.1875 10.921875 -0.3125 11.09375 -0.515625 C 11.234375 -0.671875 11.328125 -0.875 11.421875 -1.1875 C 11.5 -1.5 11.640625 -2.171875 11.78125 -3.171875 L 11.890625 -3.984375 C 12 -4.875 12.0625 -5.453125 12.0625 -5.734375 L 12.0625 -5.859375 C 12.0625 -6.296875 12 -6.578125 11.84375 -6.734375 C 11.6875 -6.9375 11.375 -7.0625 10.875 -7.09375 C 10.609375 -7.140625 10.015625 -7.140625 9.125 -7.140625 L 4.171875 -7.140625 C 4.21875 -7.390625 4.25 -7.546875 4.25 -7.609375 C 4.265625 -7.703125 4.296875 -7.78125 4.34375 -7.8125 C 4.375 -7.890625 4.46875 -7.9375 4.5625 -7.953125 C 4.65625 -7.96875 4.875 -7.96875 5.1875 -7.96875 L 9.59375 -7.96875 C 10.3125 -7.96875 10.828125 -8 11.09375 -8.015625 C 11.421875 -8.0625 11.640625 -8.109375 11.8125 -8.203125 C 12.140625 -8.359375 12.359375 -8.65625 12.5 -9.09375 C 12.609375 -9.421875 12.734375 -10.09375 12.875 -11.125 L 4.53125 -11.125 C 3.734375 -11.125 3.171875 -11.125 2.859375 -11.078125 C 2.453125 -11.03125 2.15625 -10.9375 1.953125 -10.78125 C 1.734375 -10.625 1.546875 -10.3125 1.4375 -9.859375 C 1.34375 -9.578125 1.234375 -8.9375 1.09375 -7.96875 Z M 1.09375 -7.96875 "/></g></g></g><g fill="#ec297b" fill-opacity="1"><g transform="translate(154.370824, 244.969045)"><g><path d="M 4.8125 -11.140625 C 3.78125 -11.140625 3.09375 -11.125 2.78125 -11.078125 C 2.375 -11.03125 2.0625 -10.890625 1.84375 -10.6875 C 1.640625 -10.515625 1.484375 -10.140625 1.375 -9.59375 C 1.328125 -9.328125 1.234375 -8.8125 1.09375 -8 L 0.421875 -3.1875 C 0.3125 -2.296875 0.25 -1.703125 0.21875 -1.390625 L 0.21875 -1.234375 C 0.21875 -0.921875 0.265625 -0.703125 0.359375 -0.546875 C 0.5 -0.34375 0.71875 -0.203125 1.03125 -0.109375 C 1.34375 -0.0625 1.9375 -0.015625 2.828125 -0.015625 L 11.328125 -0.015625 L 11.328125 -0.375 C 11.328125 -1.0625 11.328125 -1.5 11.28125 -1.78125 C 11.25 -2.265625 11.171875 -2.578125 10.984375 -2.765625 C 10.859375 -2.9375 10.609375 -3.0625 10.25 -3.09375 C 10 -3.140625 9.4375 -3.171875 8.5625 -3.171875 L 3.625 -3.171875 C 3.65625 -3.421875 3.6875 -3.578125 3.6875 -3.640625 C 3.703125 -3.78125 3.734375 -3.859375 3.78125 -3.90625 C 3.8125 -3.953125 3.890625 -3.984375 3.953125 -3.984375 C 4.015625 -4 4.140625 -4 4.296875 -4 L 9.015625 -4 C 9.796875 -4 10.328125 -4.015625 10.625 -4.0625 C 11.078125 -4.109375 11.390625 -4.25 11.59375 -4.421875 C 11.78125 -4.625 11.9375 -4.9375 12.015625 -5.375 C 12.109375 -5.65625 12.203125 -6.25 12.3125 -7.140625 L 12.453125 -8 C 12.53125 -8.71875 12.609375 -9.1875 12.625 -9.4375 C 12.65625 -9.640625 12.65625 -9.796875 12.65625 -9.9375 C 12.65625 -10.375 12.5625 -10.6875 12.328125 -10.859375 C 12.15625 -10.984375 11.8125 -11.078125 11.328125 -11.125 C 11.046875 -11.140625 10.515625 -11.140625 9.703125 -11.140625 Z M 4.859375 -7.96875 L 9.234375 -7.96875 C 9.21875 -7.734375 9.1875 -7.546875 9.171875 -7.453125 C 9.171875 -7.375 9.140625 -7.328125 9.09375 -7.28125 C 9.0625 -7.234375 8.96875 -7.1875 8.828125 -7.171875 L 4.171875 -7.171875 C 4.21875 -7.4375 4.25 -7.59375 4.25 -7.65625 C 4.296875 -7.75 4.3125 -7.8125 4.34375 -7.859375 C 4.375 -7.90625 4.421875 -7.953125 4.46875 -7.953125 C 4.515625 -7.96875 4.65625 -7.96875 4.859375 -7.96875 Z M 4.859375 -7.96875 "/></g></g></g><g fill="#ec297b" fill-opacity="1"><g transform="translate(166.56331, 244.969045)"><g><path d="M 5.171875 -15.734375 L 4.53125 -11.125 L 4.0625 -11.125 C 3.390625 -11.125 2.921875 -11.125 2.625 -11.078125 C 2.171875 -11.03125 1.859375 -10.890625 1.640625 -10.71875 C 1.4375 -10.515625 1.28125 -10.140625 1.140625 -9.578125 C 1.09375 -9.296875 1.015625 -8.765625 0.90625 -7.953125 L 4.09375 -7.953125 L 3.984375 -7.140625 L 3.53125 -3.984375 L 3.421875 -3.140625 C 3.28125 -2.3125 3.1875 -1.75 3.140625 -1.453125 L 3.140625 -1.125 C 3.140625 -0.859375 3.1875 -0.625 3.28125 -0.46875 C 3.4375 -0.25 3.796875 -0.09375 4.375 -0.015625 C 4.703125 -0.015625 5.234375 0 6.015625 0 L 8.0625 0 C 8.9375 0 9.53125 -0.015625 9.8125 -0.046875 C 10.265625 -0.109375 10.609375 -0.21875 10.8125 -0.40625 C 10.984375 -0.578125 11.140625 -0.90625 11.25 -1.296875 C 11.34375 -1.625 11.4375 -2.21875 11.546875 -3.140625 L 6.609375 -3.140625 L 6.71875 -3.984375 L 7.171875 -7.140625 L 7.28125 -7.953125 L 9.03125 -7.953125 C 9.96875 -7.953125 10.578125 -7.96875 10.875 -8 C 11.328125 -8.0625 11.65625 -8.171875 11.859375 -8.3125 C 12.0625 -8.5 12.21875 -8.765625 12.328125 -9.125 C 12.421875 -9.4375 12.53125 -10.09375 12.671875 -11.125 L 7.734375 -11.125 L 7.9375 -12.5625 C 8.0625 -13.34375 8.140625 -13.84375 8.140625 -14.046875 C 8.171875 -14.25 8.171875 -14.40625 8.171875 -14.53125 C 8.171875 -14.78125 8.15625 -14.984375 8.09375 -15.125 C 7.953125 -15.4375 7.59375 -15.609375 6.96875 -15.65625 C 6.625 -15.703125 6.015625 -15.734375 5.171875 -15.734375 Z M 5.171875 -15.734375 "/></g></g></g><g fill="#ec297b" fill-opacity="1"><g transform="translate(178.46388, 244.969045)"><g><path d="M 5.171875 -15.734375 L 4.53125 -11.125 L 4.0625 -11.125 C 3.390625 -11.125 2.921875 -11.125 2.625 -11.078125 C 2.171875 -11.03125 1.859375 -10.890625 1.640625 -10.71875 C 1.4375 -10.515625 1.28125 -10.140625 1.140625 -9.578125 C 1.09375 -9.296875 1.015625 -8.765625 0.90625 -7.953125 L 4.09375 -7.953125 L 3.984375 -7.140625 L 3.53125 -3.984375 L 3.421875 -3.140625 C 3.28125 -2.3125 3.1875 -1.75 3.140625 -1.453125 L 3.140625 -1.125 C 3.140625 -0.859375 3.1875 -0.625 3.28125 -0.46875 C 3.4375 -0.25 3.796875 -0.09375 4.375 -0.015625 C 4.703125 -0.015625 5.234375 0 6.015625 0 L 8.0625 0 C 8.9375 0 9.53125 -0.015625 9.8125 -0.046875 C 10.265625 -0.109375 10.609375 -0.21875 10.8125 -0.40625 C 10.984375 -0.578125 11.140625 -0.90625 11.25 -1.296875 C 11.34375 -1.625 11.4375 -2.21875 11.546875 -3.140625 L 6.609375 -3.140625 L 6.71875 -3.984375 L 7.171875 -7.140625 L 7.28125 -7.953125 L 9.03125 -7.953125 C 9.96875 -7.953125 10.578125 -7.96875 10.875 -8 C 11.328125 -8.0625 11.65625 -8.171875 11.859375 -8.3125 C 12.0625 -8.5 12.21875 -8.765625 12.328125 -9.125 C 12.421875 -9.4375 12.53125 -10.09375 12.671875 -11.125 L 7.734375 -11.125 L 7.9375 -12.5625 C 8.0625 -13.34375 8.140625 -13.84375 8.140625 -14.046875 C 8.171875 -14.25 8.171875 -14.40625 8.171875 -14.53125 C 8.171875 -14.78125 8.15625 -14.984375 8.09375 -15.125 C 7.953125 -15.4375 7.59375 -15.609375 6.96875 -15.65625 C 6.625 -15.703125 6.015625 -15.734375 5.171875 -15.734375 Z M 5.171875 -15.734375 "/></g></g></g><g fill="#ec297b" fill-opacity="1"><g transform="translate(190.364454, 244.969045)"><g><path d="M 5.625 -15.734375 C 4.5625 -15.734375 3.859375 -15.703125 3.546875 -15.65625 C 3.1875 -15.609375 2.90625 -15.484375 2.71875 -15.296875 C 2.53125 -15.125 2.375 -14.78125 2.265625 -14.296875 C 2.203125 -14.015625 2.109375 -13.4375 1.984375 -12.578125 L 1.90625 -11.96875 L 5.09375 -11.96875 Z M 1.796875 -11.140625 L 1.03125 -5.703125 L 0.21875 0 C 1.34375 0 2.0625 -0.046875 2.375 -0.109375 C 2.8125 -0.203125 3.09375 -0.375 3.28125 -0.65625 C 3.421875 -0.859375 3.53125 -1.140625 3.59375 -1.546875 C 3.65625 -1.84375 3.75 -2.375 3.859375 -3.140625 L 4.34375 -6.609375 L 4.984375 -11.140625 Z M 1.796875 -11.140625 "/></g></g></g><g fill="#ec297b" fill-opacity="1"><g transform="translate(194.87745, 244.969045)"><g><path d="M 1.34375 -7.953125 L 1.234375 -7.140625 L 0.78125 -3.984375 L 0.671875 -3.140625 L 0.21875 0 C 1.1875 0 1.8125 -0.015625 2.109375 -0.046875 C 2.515625 -0.109375 2.828125 -0.21875 3.015625 -0.359375 C 3.234375 -0.546875 3.421875 -0.8125 3.5 -1.1875 C 3.59375 -1.5 3.734375 -2.15625 3.859375 -3.140625 L 3.984375 -3.984375 L 4.421875 -7.140625 C 4.46875 -7.390625 4.5 -7.546875 4.5 -7.609375 C 4.53125 -7.75 4.609375 -7.84375 4.65625 -7.890625 C 4.71875 -7.9375 4.78125 -7.953125 4.875 -7.953125 C 4.921875 -7.96875 4.984375 -7.96875 5.0625 -7.96875 C 5.140625 -7.96875 5.25 -7.96875 5.375 -7.953125 L 9.484375 -7.953125 L 9.375 -7.140625 L 8.921875 -3.984375 L 8.8125 -3.140625 L 8.359375 0 C 9.453125 0 10.171875 -0.046875 10.5 -0.09375 C 10.875 -0.1875 11.140625 -0.3125 11.328125 -0.515625 C 11.5 -0.703125 11.609375 -0.984375 11.703125 -1.34375 C 11.796875 -1.640625 11.890625 -2.25 12 -3.140625 L 12.109375 -3.984375 L 12.5625 -7.140625 L 12.671875 -7.953125 C 12.8125 -8.9375 12.875 -9.59375 12.875 -9.890625 L 12.875 -10.046875 C 12.859375 -10.421875 12.734375 -10.6875 12.5625 -10.828125 C 12.421875 -10.96875 12.203125 -11.03125 11.90625 -11.078125 C 11.640625 -11.125 11.21875 -11.125 10.609375 -11.125 L 4.296875 -11.125 C 3.703125 -11.125 3.28125 -11.125 3.015625 -11.078125 C 2.65625 -11.03125 2.375 -10.9375 2.203125 -10.8125 C 1.984375 -10.65625 1.796875 -10.359375 1.65625 -9.9375 C 1.59375 -9.640625 1.484375 -8.984375 1.34375 -7.953125 Z M 1.34375 -7.953125 "/></g></g></g><g fill="#ec297b" fill-opacity="1"><g transform="translate(207.294483, 244.969045)"><g><path d="M 1.078125 -7.953125 C 1.078125 -7.9375 0.984375 -7.171875 0.765625 -5.640625 C 0.71875 -5.375 0.671875 -4.96875 0.578125 -4.40625 C 0.515625 -3.859375 0.453125 -3.4375 0.40625 -3.140625 C 0.3125 -2.421875 0.265625 -1.9375 0.21875 -1.65625 C 0.21875 -1.5 0.203125 -1.34375 0.203125 -1.21875 C 0.203125 -0.921875 0.25 -0.703125 0.34375 -0.546875 C 0.46875 -0.296875 0.765625 -0.140625 1.21875 -0.046875 C 1.53125 -0.015625 2.09375 0 2.9375 0 L 8.109375 0 C 8.0625 0.453125 8.015625 0.734375 7.96875 0.875 C 7.9375 1.0625 7.890625 1.1875 7.796875 1.28125 C 7.734375 1.34375 7.609375 1.390625 7.453125 1.4375 C 7.328125 1.4375 7.0625 1.453125 6.65625 1.453125 L 2.765625 1.453125 C 2.09375 1.453125 1.59375 1.453125 1.296875 1.5 C 0.921875 1.546875 0.625 1.625 0.421875 1.75 C 0.15625 1.90625 -0.0625 2.25 -0.21875 2.734375 C -0.3125 3.03125 -0.46875 3.65625 -0.671875 4.625 L 7.453125 4.625 C 8.53125 4.625 9.234375 4.578125 9.546875 4.53125 C 9.953125 4.46875 10.21875 4.34375 10.40625 4.140625 C 10.609375 3.90625 10.765625 3.578125 10.859375 3.09375 C 10.921875 2.78125 11.015625 2.25 11.09375 1.453125 L 11.296875 0 L 11.75 -3.140625 L 12.015625 -5.140625 L 12.421875 -7.953125 C 12.5 -8.53125 12.53125 -8.9375 12.53125 -9.171875 L 12.53125 -10.0625 C 12.515625 -10.40625 12.421875 -10.625 12.25 -10.765625 C 12.15625 -10.875 12 -10.9375 11.796875 -10.984375 C 11.65625 -11.03125 11.453125 -11.078125 11.21875 -11.078125 C 10.96875 -11.125 10.453125 -11.125 9.65625 -11.125 L 4.71875 -11.125 C 3.8125 -11.125 3.21875 -11.125 2.90625 -11.078125 C 2.40625 -11.03125 2.0625 -10.890625 1.84375 -10.6875 C 1.65625 -10.515625 1.5 -10.171875 1.375 -9.703125 C 1.328125 -9.4375 1.21875 -8.859375 1.078125 -7.953125 Z M 5.078125 -7.953125 L 9.234375 -7.953125 L 8.671875 -3.953125 C 8.625 -3.703125 8.609375 -3.53125 8.5625 -3.4375 C 8.53125 -3.34375 8.515625 -3.296875 8.453125 -3.265625 C 8.40625 -3.21875 8.3125 -3.1875 8.203125 -3.171875 C 8.109375 -3.171875 7.953125 -3.140625 7.703125 -3.140625 L 3.625 -3.140625 L 3.890625 -5.21875 L 4.15625 -7.125 C 4.203125 -7.34375 4.21875 -7.484375 4.21875 -7.546875 C 4.265625 -7.6875 4.296875 -7.78125 4.34375 -7.8125 C 4.375 -7.890625 4.46875 -7.9375 4.5625 -7.9375 C 4.65625 -7.953125 4.8125 -7.953125 5.078125 -7.953125 Z M 5.078125 -7.953125 "/></g></g></g><g fill="#ec297b" fill-opacity="1"><g transform="translate(219.397153, 244.969045)"><g><path d="M 1.09375 -7.96875 L 0.984375 -7.140625 C 0.859375 -6.265625 0.765625 -5.6875 0.71875 -5.375 L 0.71875 -5.09375 C 0.71875 -4.734375 0.8125 -4.5 0.9375 -4.34375 C 1.125 -4.171875 1.421875 -4.0625 1.859375 -4.015625 C 2.140625 -4 2.578125 -3.984375 3.1875 -3.984375 L 8.703125 -3.984375 C 8.671875 -3.78125 8.65625 -3.640625 8.625 -3.546875 C 8.625 -3.4375 8.578125 -3.34375 8.53125 -3.28125 C 8.5 -3.234375 8.421875 -3.21875 8.328125 -3.171875 L 0.421875 -3.171875 C 0.296875 -2.171875 0.21875 -1.53125 0.21875 -1.21875 C 0.21875 -0.875 0.265625 -0.625 0.375 -0.453125 C 0.515625 -0.296875 0.71875 -0.1875 0.984375 -0.109375 C 1.296875 -0.046875 2.015625 0 3.1875 0 L 8.140625 0 C 9.28125 0 10.015625 -0.046875 10.328125 -0.109375 C 10.671875 -0.1875 10.921875 -0.3125 11.09375 -0.515625 C 11.234375 -0.671875 11.328125 -0.875 11.421875 -1.1875 C 11.5 -1.5 11.640625 -2.171875 11.78125 -3.171875 L 11.890625 -3.984375 C 12 -4.875 12.0625 -5.453125 12.0625 -5.734375 L 12.0625 -5.859375 C 12.0625 -6.296875 12 -6.578125 11.84375 -6.734375 C 11.6875 -6.9375 11.375 -7.0625 10.875 -7.09375 C 10.609375 -7.140625 10.015625 -7.140625 9.125 -7.140625 L 4.171875 -7.140625 C 4.21875 -7.390625 4.25 -7.546875 4.25 -7.609375 C 4.265625 -7.703125 4.296875 -7.78125 4.34375 -7.8125 C 4.375 -7.890625 4.46875 -7.9375 4.5625 -7.953125 C 4.65625 -7.96875 4.875 -7.96875 5.1875 -7.96875 L 9.59375 -7.96875 C 10.3125 -7.96875 10.828125 -8 11.09375 -8.015625 C 11.421875 -8.0625 11.640625 -8.109375 11.8125 -8.203125 C 12.140625 -8.359375 12.359375 -8.65625 12.5 -9.09375 C 12.609375 -9.421875 12.734375 -10.09375 12.875 -11.125 L 4.53125 -11.125 C 3.734375 -11.125 3.171875 -11.125 2.859375 -11.078125 C 2.453125 -11.03125 2.15625 -10.9375 1.953125 -10.78125 C 1.734375 -10.625 1.546875 -10.3125 1.4375 -9.859375 C 1.34375 -9.578125 1.234375 -8.9375 1.09375 -7.96875 Z M 1.09375 -7.96875 "/></g></g></g></svg>