<svg xmlns="http://www.w3.org/2000/svg" xmlns:xlink="http://www.w3.org/1999/xlink" width="1200" zoomAndPan="magnify" viewBox="0 0 900 374.999991" height="500" preserveAspectRatio="xMidYMid meet" version="1.0"><defs><g/><clipPath id="75e844c358"><path d="M 136 41 L 311 41 L 311 334 L 136 334 Z M 136 41 " clip-rule="nonzero"/></clipPath><clipPath id="54c2dfe1ab"><path d="M 386.832031 135.664062 L 172.578125 349.917969 L 61.738281 239.078125 L 275.992188 24.824219 Z M 386.832031 135.664062 " clip-rule="nonzero"/></clipPath><clipPath id="54659d0e34"><path d="M 172.519531 349.976562 L 386.773438 135.722656 L 275.933594 24.882812 L 61.679688 239.136719 Z M 172.519531 349.976562 " clip-rule="nonzero"/></clipPath><clipPath id="e77c4a1c30"><path d="M 545 43 L 748 43 L 748 335 L 545 335 Z M 545 43 " clip-rule="nonzero"/></clipPath><clipPath id="7aec3b78a0"><path d="M 733.453125 353.742188 L 476.582031 161.238281 L 575.984375 28.601562 L 832.855469 221.105469 Z M 733.453125 353.742188 " clip-rule="nonzero"/></clipPath><clipPath id="c97931d589"><path d="M 733.453125 353.742188 L 476.582031 161.238281 L 575.984375 28.601562 L 832.855469 221.105469 Z M 733.453125 353.742188 " clip-rule="nonzero"/></clipPath><clipPath id="aba859872d"><path d="M 612 36 L 815 36 L 815 328 L 612 328 Z M 612 36 " clip-rule="nonzero"/></clipPath><clipPath id="7e1e0b0d31"><path d="M 800.660156 346.203125 L 543.789062 153.699219 L 643.191406 21.0625 L 900.0625 213.566406 Z M 800.660156 346.203125 " clip-rule="nonzero"/></clipPath><clipPath id="8265740370"><path d="M 800.660156 346.203125 L 543.789062 153.699219 L 643.191406 21.0625 L 900.0625 213.566406 Z M 800.660156 346.203125 " clip-rule="nonzero"/></clipPath><clipPath id="c8cf2030eb"><path d="M 74 41 L 249 41 L 249 334 L 74 334 Z M 74 41 " clip-rule="nonzero"/></clipPath><clipPath id="6040ac93df"><path d="M 324.949219 135.664062 L 110.699219 349.917969 L -0.140625 239.078125 L 214.113281 24.824219 Z M 324.949219 135.664062 " clip-rule="nonzero"/></clipPath><clipPath id="65836eabb0"><path d="M 110.640625 349.976562 L 324.894531 135.722656 L 214.054688 24.882812 L -0.199219 239.136719 Z M 110.640625 349.976562 " clip-rule="nonzero"/></clipPath><clipPath id="e81fa2e49f"><path d="M 299.738281 67.527344 L 320 67.527344 L 320 87 L 299.738281 87 Z M 299.738281 67.527344 " clip-rule="nonzero"/></clipPath><clipPath id="64aefc7fff"><path d="M 338 67.527344 L 358 67.527344 L 358 87 L 338 87 Z M 338 67.527344 " clip-rule="nonzero"/></clipPath><clipPath id="94995b5f26"><path d="M 377 67.527344 L 397 67.527344 L 397 87 L 377 87 Z M 377 67.527344 " clip-rule="nonzero"/></clipPath><clipPath id="d4982a9786"><path d="M 415 67.527344 L 436 67.527344 L 436 87 L 415 87 Z M 415 67.527344 " clip-rule="nonzero"/></clipPath><clipPath id="3204bea04a"><path d="M 454 67.527344 L 474 67.527344 L 474 87 L 454 87 Z M 454 67.527344 " clip-rule="nonzero"/></clipPath><clipPath id="ba3fa6613d"><path d="M 493 67.527344 L 513 67.527344 L 513 87 L 493 87 Z M 493 67.527344 " clip-rule="nonzero"/></clipPath><clipPath id="0409763653"><path d="M 531 67.527344 L 552 67.527344 L 552 87 L 531 87 Z M 531 67.527344 " clip-rule="nonzero"/></clipPath><clipPath id="530f7c3f9b"><path d="M 319 86 L 339 86 L 339 106.527344 L 319 106.527344 Z M 319 86 " clip-rule="nonzero"/></clipPath><clipPath id="ce8d3eb364"><path d="M 357 86 L 378 86 L 378 106.527344 L 357 106.527344 Z M 357 86 " clip-rule="nonzero"/></clipPath><clipPath id="c116bcb321"><path d="M 396 86 L 416 86 L 416 106.527344 L 396 106.527344 Z M 396 86 " clip-rule="nonzero"/></clipPath><clipPath id="8360807d08"><path d="M 435 86 L 455 86 L 455 106.527344 L 435 106.527344 Z M 435 86 " clip-rule="nonzero"/></clipPath><clipPath id="d8d07ffb36"><path d="M 473 86 L 494 86 L 494 106.527344 L 473 106.527344 Z M 473 86 " clip-rule="nonzero"/></clipPath><clipPath id="b34b08fc33"><path d="M 512 86 L 532 86 L 532 106.527344 L 512 106.527344 Z M 512 86 " clip-rule="nonzero"/></clipPath><clipPath id="40d65d0450"><path d="M 551 86 L 570.488281 86 L 570.488281 106.527344 L 551 106.527344 Z M 551 86 " clip-rule="nonzero"/></clipPath><clipPath id="cff36281c7"><path d="M 551 67.527344 L 570.488281 67.527344 L 570.488281 87 L 551 87 Z M 551 67.527344 " clip-rule="nonzero"/></clipPath><clipPath id="739f39d1a3"><path d="M 512 67.527344 L 532 67.527344 L 532 87 L 512 87 Z M 512 67.527344 " clip-rule="nonzero"/></clipPath><clipPath id="8a18a2e14a"><path d="M 473 67.527344 L 494 67.527344 L 494 87 L 473 87 Z M 473 67.527344 " clip-rule="nonzero"/></clipPath><clipPath id="a3e475b17f"><path d="M 435 67.527344 L 455 67.527344 L 455 87 L 435 87 Z M 435 67.527344 " clip-rule="nonzero"/></clipPath><clipPath id="e1b16c11ef"><path d="M 396 67.527344 L 416 67.527344 L 416 87 L 396 87 Z M 396 67.527344 " clip-rule="nonzero"/></clipPath><clipPath id="d9e95139d8"><path d="M 357 67.527344 L 378 67.527344 L 378 87 L 357 87 Z M 357 67.527344 " clip-rule="nonzero"/></clipPath><clipPath id="eb818d1edf"><path d="M 319 67.527344 L 339 67.527344 L 339 87 L 319 87 Z M 319 67.527344 " clip-rule="nonzero"/></clipPath><clipPath id="87436c126d"><path d="M 531 86 L 552 86 L 552 106.527344 L 531 106.527344 Z M 531 86 " clip-rule="nonzero"/></clipPath><clipPath id="7305177f55"><path d="M 493 86 L 513 86 L 513 106.527344 L 493 106.527344 Z M 493 86 " clip-rule="nonzero"/></clipPath><clipPath id="8bb5427ebc"><path d="M 454 86 L 474 86 L 474 106.527344 L 454 106.527344 Z M 454 86 " clip-rule="nonzero"/></clipPath><clipPath id="1819fb7287"><path d="M 415 86 L 436 86 L 436 106.527344 L 415 106.527344 Z M 415 86 " clip-rule="nonzero"/></clipPath><clipPath id="edbeb3d06c"><path d="M 377 86 L 397 86 L 397 106.527344 L 377 106.527344 Z M 377 86 " clip-rule="nonzero"/></clipPath><clipPath id="da07dd0b24"><path d="M 338 86 L 358 86 L 358 106.527344 L 338 106.527344 Z M 338 86 " clip-rule="nonzero"/></clipPath><clipPath id="e0044dd36c"><path d="M 299.75 86 L 320 86 L 320 106.527344 L 299.75 106.527344 Z M 299.75 86 " clip-rule="nonzero"/></clipPath></defs><g clip-path="url(#75e844c358)"><g clip-path="url(#54c2dfe1ab)"><g clip-path="url(#54659d0e34)"><path fill="#ff66c4" d="M 256.425781 228.949219 L 216.039062 306.449219 L 230.011719 249.6875 L 156.65625 333.957031 L 215.820312 228.078125 L 198.136719 237.027344 L 212.328125 210.175781 L 136.136719 179.828125 L 235.25 135.292969 L 229.136719 106.039062 L 253.371094 107.128906 L 259.304688 41.894531 L 280.003906 82.679688 L 288.738281 51.242188 L 298.996094 69.796875 L 310.785156 59.757812 L 298.78125 105.382812 L 272.363281 106.039062 L 278.167969 133.675781 L 179.144531 180.484375 L 255.335938 210.828125 L 238.960938 236.371094 Z M 256.425781 228.949219 " fill-opacity="1" fill-rule="nonzero"/></g></g></g><g clip-path="url(#e77c4a1c30)"><g clip-path="url(#7aec3b78a0)"><g clip-path="url(#c97931d589)"><path fill="#ff66c4" d="M 627.363281 239.515625 L 681.316406 314.664062 L 658.15625 257.285156 L 747.667969 334.578125 L 669.78125 232.507812 L 689.65625 239.230469 L 670.757812 213.222656 L 746.042969 169.988281 L 635.496094 138.199219 L 637.511719 106.625 L 612.28125 111.40625 L 596.273438 43.941406 L 580.703125 89.78125 L 566.835938 58.152344 L 558.867188 79.136719 L 545.007812 70.382812 L 564.4375 116.394531 L 592.214844 113.113281 L 590.28125 142.945312 L 701.074219 177.132812 L 625.785156 220.363281 L 646.777344 244.671875 Z M 627.363281 239.515625 " fill-opacity="1" fill-rule="nonzero"/></g></g></g><path stroke-linecap="butt" transform="matrix(1.366308, 0, 0, 1.366308, 136.605338, 92.101597)" fill="none" stroke-linejoin="miter" d="M 114.648117 108.295339 C 114.648117 110.519626 114.493732 112.329362 114.184962 113.721686 C 113.873333 115.093997 113.255793 116.177551 112.326624 116.969489 C 111.417468 117.761427 110.150939 118.304633 108.527037 118.59339 C 106.923149 118.864994 104.804643 118.999366 102.17438 118.999366 L 63.220756 118.999366 C 61.248059 118.999366 59.624157 118.824968 58.346192 118.479031 C 57.071087 118.110223 56.056148 117.492683 55.301377 116.620693 C 54.566619 115.751563 54.034848 114.582239 53.706065 113.112723 C 53.397295 111.643206 53.240051 109.767714 53.240051 107.483388 L 53.240051 95.93882 C 53.240051 91.899079 54.944004 89.877779 58.346192 89.877779 C 61.593995 89.877779 63.220756 91.984849 63.220756 96.201847 L 63.220756 100.233011 C 63.220756 102.051323 63.335115 103.520839 63.566693 104.64156 C 63.801129 105.745127 64.235694 106.614258 64.873247 107.25181 C 65.5108 107.872209 66.399944 108.306775 67.540677 108.558365 C 68.701424 108.789943 70.190953 108.907161 72.009265 108.907161 L 87.933793 108.907161 C 89.672054 108.907161 91.095827 108.809955 92.196534 108.615545 C 93.317255 108.40398 94.149219 107.949402 94.692425 107.25181 C 95.252786 106.537065 95.630171 105.550716 95.821723 104.292764 C 96.016134 103.017659 96.113339 101.305129 96.113339 99.160892 L 96.113339 89.528983 C 96.113339 87.556286 95.996121 85.980987 95.764544 84.800228 C 95.532966 83.602315 95.058375 82.704594 94.34363 82.104208 C 93.628884 81.503822 92.593933 81.109283 91.238776 80.914872 C 89.90649 80.720461 88.125345 80.623256 85.903916 80.623256 L 63.915488 80.623256 C 61.788406 80.623256 60.030132 80.468871 58.637808 80.160101 C 57.262638 79.831318 56.181943 79.270957 55.387146 78.47902 C 54.595208 77.684223 54.034848 76.603528 53.706065 75.228358 C 53.397295 73.836033 53.240051 72.029157 53.240051 69.804869 L 53.240051 50.340923 C 53.240051 47.885057 53.397295 46.106771 53.706065 45.006063 C 54.034848 43.882483 54.632375 42.887558 55.504365 42.018427 C 56.373495 41.146438 57.457049 40.557488 58.752168 40.248718 C 60.067299 39.919935 61.991394 39.754114 64.524452 39.754114 L 103.014921 39.754114 C 105.316401 39.754114 107.211906 39.899922 108.701435 40.188679 C 110.210978 40.460282 111.400314 40.934873 112.269444 41.612452 C 113.158588 42.267159 113.778987 43.196328 114.124923 44.3971 C 114.473719 45.575 114.648117 47.073107 114.648117 48.891419 L 114.648117 57.099555 C 114.648117 61.779708 112.947023 64.121214 109.541976 64.121214 C 106.468571 64.121214 104.804643 62.177106 104.553053 58.288892 L 104.438694 56.376233 C 104.361501 54.963896 104.175667 53.823162 103.88691 52.951173 C 103.615307 52.082042 103.160729 51.404464 102.523176 50.921296 C 101.905636 50.438128 101.033647 50.120781 99.912926 49.963537 C 98.809359 49.809152 97.351278 49.73196 95.532966 49.73196 L 71.283084 49.73196 C 69.619157 49.73196 68.258282 49.877768 67.19474 50.166525 C 66.131199 50.438128 65.299236 50.949886 64.698849 51.704657 C 64.098463 52.459428 63.703924 53.514392 63.509513 54.866691 C 63.315102 56.201835 63.220756 57.931519 63.220756 60.058601 C 63.220756 62.437274 63.315102 64.324202 63.509513 65.716526 C 63.703924 67.10885 64.118476 68.160955 64.756029 68.8757 C 65.396441 69.573292 66.322751 70.047883 67.540677 70.299473 C 68.778616 70.531051 70.422531 70.64541 72.47242 70.64541 L 102.900562 70.64541 C 105.839595 70.64541 107.938087 70.771205 109.196039 71.022796 C 110.471145 71.254373 111.543263 71.806157 112.415252 72.678146 C 113.284383 73.470084 113.873333 74.505035 114.184962 75.780141 C 114.493732 77.038093 114.648117 78.970764 114.648117 81.581015 Z M 133.300113 118.999366 C 131.404608 118.999366 129.837886 118.90216 128.599947 118.710609 C 127.382021 118.516198 126.455711 118.081633 125.815299 117.404054 C 125.177746 116.726475 124.743181 115.800165 124.511604 114.619406 C 124.280026 113.421493 124.162808 111.834758 124.162808 109.862061 L 124.162808 70.036447 C 124.162808 67.271812 124.471578 65.376307 125.091977 64.352791 C 125.72953 63.326417 126.87884 62.814659 128.542768 62.814659 C 130.129502 62.814659 131.241646 63.326417 131.879199 64.352791 C 132.516752 65.376307 132.836958 67.271812 132.836958 70.036447 L 132.836958 78.593379 C 132.836958 80.508897 133.068535 81.804015 133.53169 82.481594 C 134.014858 83.13916 135.089835 83.67093 136.750904 84.076906 C 138.414831 84.540061 139.478372 85.169037 139.941527 85.960974 C 140.424695 86.755771 140.667709 88.339647 140.667709 90.71832 L 140.667709 104.032597 C 140.667709 105.464947 140.724888 106.594245 140.842106 107.426208 C 140.956466 108.258172 141.239505 108.895725 141.682647 109.341726 C 142.128648 109.767714 142.786214 110.036458 143.655344 110.153677 C 144.524475 110.268036 145.665208 110.328075 147.077545 110.328075 L 152.79265 110.328075 C 154.144948 110.328075 155.239938 110.250882 156.069042 110.093638 C 156.901006 109.939253 157.529982 109.650496 157.95597 109.224508 C 158.399112 108.781366 158.699306 108.140954 158.853691 107.311849 C 159.008076 106.479885 159.088127 105.387754 159.088127 104.032597 L 159.088127 70.036447 C 159.088127 67.271812 159.405474 65.376307 160.043027 64.352791 C 160.683439 63.326417 161.832749 62.814659 163.496677 62.814659 C 165.157745 62.814659 166.281325 63.326417 166.861698 64.352791 C 167.459225 65.376307 167.759418 67.271812 167.759418 70.036447 L 167.759418 109.862061 C 167.759418 111.834758 167.633623 113.421493 167.382033 114.619406 C 167.150455 115.800165 166.71589 116.726475 166.078337 117.404054 C 165.457938 118.081633 164.548782 118.516198 163.350869 118.710609 C 162.170109 118.90216 160.59481 118.999366 158.622113 118.999366 Z M 177.265532 72.183542 C 177.265532 70.288037 177.38275 68.752764 177.614328 67.572005 C 177.845905 66.374091 178.300483 65.436346 178.978062 64.758767 C 179.652782 64.081188 180.581951 63.62661 181.76271 63.395033 C 182.960623 63.163455 184.467307 63.046237 186.285619 63.046237 L 211.724837 63.046237 C 213.697535 63.046237 215.272833 63.163455 216.453593 63.395033 C 217.651506 63.62661 218.560662 64.061175 219.178202 64.698728 C 219.818614 65.33914 220.253179 66.256873 220.484757 67.454787 C 220.736347 68.635546 220.862142 70.210845 220.862142 72.183542 L 220.862142 109.601893 C 220.862142 111.671796 220.764937 113.324287 220.570526 114.562226 C 220.378975 115.780153 219.961563 116.726475 219.32401 117.404054 C 218.686457 118.081633 217.748711 118.516198 216.510772 118.710609 C 215.292846 118.90216 213.697535 118.999366 211.724837 118.999366 L 191.506119 118.999366 C 189.301845 118.999366 187.823751 119.356739 187.06898 120.074343 C 186.314209 120.789088 185.936823 122.210002 185.936823 124.337084 L 185.936823 132.662439 C 185.936823 135.427074 185.639489 137.322579 185.039103 138.346094 C 184.438717 139.392482 183.309419 139.912816 181.645492 139.912816 C 179.981565 139.912816 178.832254 139.372469 178.194701 138.288915 C 177.574302 137.225374 177.265532 135.309856 177.265532 132.545221 Z M 192.232301 71.603169 C 189.544858 71.603169 187.823751 71.980554 187.06898 72.735326 C 186.314209 73.490097 185.936823 75.211204 185.936823 77.898646 L 185.936823 81.203629 C 185.936823 83.119147 186.17126 84.414265 186.634415 85.091844 C 187.117583 85.74941 188.189701 86.28118 189.853628 86.687156 C 191.517555 87.150311 192.581096 87.779287 193.044251 88.571225 C 193.527419 89.366022 193.770433 90.949897 193.770433 93.32857 L 193.770433 104.032597 C 193.770433 105.464947 193.827612 106.594245 193.944831 107.426208 C 194.05919 108.258172 194.359383 108.895725 194.842551 109.341726 C 195.325719 109.767714 195.983285 110.036458 196.815248 110.153677 C 197.647212 110.268036 198.767933 110.328075 200.18027 110.328075 L 205.895374 110.328075 C 207.247672 110.328075 208.339803 110.250882 209.171767 110.093638 C 210.00373 109.939253 210.632706 109.650496 211.058695 109.224508 C 211.501837 108.781366 211.80203 108.140954 211.956415 107.311849 C 212.1108 106.479885 212.187992 105.387754 212.187992 104.032597 L 212.187992 77.898646 C 212.187992 75.211204 211.83062 73.490097 211.115874 72.735326 C 210.401129 71.980554 208.697176 71.603169 206.009733 71.603169 Z M 230.368256 72.183542 C 230.368256 70.288037 230.482616 68.752764 230.714193 67.572005 C 230.94863 66.374091 231.403208 65.436346 232.077927 64.758767 C 232.755506 64.081188 233.684675 63.62661 234.862575 63.395033 C 236.063348 63.163455 237.570031 63.046237 239.388343 63.046237 L 264.827562 63.046237 C 266.800259 63.046237 268.375558 63.163455 269.556317 63.395033 C 270.75423 63.62661 271.663387 64.061175 272.280927 64.698728 C 272.918479 65.33914 273.355904 66.256873 273.587481 67.454787 C 273.839072 68.635546 273.964867 70.210845 273.964867 72.183542 L 273.964867 109.601893 C 273.964867 111.671796 273.867661 113.324287 273.673251 114.562226 C 273.481699 115.780153 273.064288 116.726475 272.426735 117.404054 C 271.789182 118.081633 270.851436 118.516198 269.613497 118.710609 C 268.395571 118.90216 266.800259 118.999366 264.827562 118.999366 L 244.608844 118.999366 C 242.404569 118.999366 240.926475 119.356739 240.171704 120.074343 C 239.416933 120.789088 239.039547 122.210002 239.039547 124.337084 L 239.039547 132.662439 C 239.039547 135.427074 238.739354 137.322579 238.141827 138.346094 C 237.541441 139.392482 236.409284 139.912816 234.748216 139.912816 C 233.084289 139.912816 231.934978 139.372469 231.294566 138.288915 C 230.677026 137.225374 230.368256 135.309856 230.368256 132.545221 Z M 245.335025 71.603169 C 242.647582 71.603169 240.926475 71.980554 240.171704 72.735326 C 239.416933 73.490097 239.039547 75.211204 239.039547 77.898646 L 239.039547 81.203629 C 239.039547 83.119147 239.271125 84.414265 239.737139 85.091844 C 240.220307 85.74941 241.292425 86.28118 242.956352 86.687156 C 244.62028 87.150311 245.683821 87.779287 246.146976 88.571225 C 246.630144 89.366022 246.873157 90.949897 246.873157 93.32857 L 246.873157 104.032597 C 246.873157 105.464947 246.930337 106.594245 247.047555 107.426208 C 247.161914 108.258172 247.462107 108.895725 247.945275 109.341726 C 248.428443 109.767714 249.086009 110.036458 249.917972 110.153677 C 250.749936 110.268036 251.870657 110.328075 253.282994 110.328075 L 258.998098 110.328075 C 260.350396 110.328075 261.442527 110.250882 262.274491 110.093638 C 263.106455 109.939253 263.735431 109.650496 264.15856 109.224508 C 264.604561 108.781366 264.904754 108.140954 265.059139 107.311849 C 265.213524 106.479885 265.290717 105.387754 265.290717 104.032597 L 265.290717 77.898646 C 265.290717 75.211204 264.933344 73.490097 264.218598 72.735326 C 263.500994 71.980554 261.7999 71.603169 259.112457 71.603169 Z M 327.067591 109.862061 C 327.067591 111.834758 326.941796 113.421493 326.690205 114.619406 C 326.455769 115.800165 326.021204 116.726475 325.383651 117.404054 C 324.766111 118.081633 323.856955 118.516198 322.656182 118.710609 C 321.478282 118.90216 319.902983 118.999366 317.930286 118.999366 L 292.605427 118.999366 C 290.712781 118.999366 289.146059 118.90216 287.90812 118.710609 C 286.690194 118.516198 285.761025 118.081633 285.123472 117.404054 C 284.485919 116.726475 284.048495 115.800165 283.816917 114.619406 C 283.58534 113.421493 283.470981 111.834758 283.470981 109.862061 L 283.470981 72.41512 C 283.470981 70.36523 283.565327 68.732751 283.759738 67.514825 C 283.954148 66.276886 284.388714 65.319127 285.066292 64.641549 C 285.741012 63.96397 286.670181 63.529405 287.85094 63.337853 C 289.048854 63.143442 290.635588 63.046237 292.605427 63.046237 L 317.930286 63.046237 C 319.902983 63.046237 321.498295 63.143442 322.716221 63.337853 C 323.95416 63.529405 324.891906 63.96397 325.529459 64.641549 C 326.167012 65.319127 326.581564 66.276886 326.775975 67.514825 C 326.970386 68.732751 327.067591 70.36523 327.067591 72.41512 Z M 298.437749 71.603169 C 295.750307 71.603169 294.0292 71.980554 293.274428 72.735326 C 292.519657 73.490097 292.142272 75.211204 292.142272 77.898646 L 292.142272 81.203629 C 292.142272 83.119147 292.373849 84.414265 292.839863 85.091844 C 293.323031 85.74941 294.395149 86.28118 296.059077 86.687156 C 297.720145 87.150311 298.783686 87.779287 299.2497 88.571225 C 299.732868 89.366022 299.973022 90.949897 299.973022 93.32857 L 299.973022 104.032597 C 299.973022 105.464947 300.033061 106.594245 300.14742 107.426208 C 300.264638 108.258172 300.564832 108.895725 301.047999 109.341726 C 301.531167 109.767714 302.188733 110.036458 303.020697 110.153677 C 303.85266 110.268036 304.973381 110.328075 306.385718 110.328075 L 312.097963 110.328075 C 313.453121 110.328075 314.545252 110.250882 315.377215 110.093638 C 316.209179 109.939253 316.835296 109.650496 317.261284 109.224508 C 317.707285 108.781366 318.007478 108.140954 318.161863 107.311849 C 318.316248 106.479885 318.393441 105.387754 318.393441 104.032597 L 318.393441 77.898646 C 318.393441 75.211204 318.036068 73.490097 317.321323 72.735326 C 316.603718 71.980554 314.902624 71.603169 312.215182 71.603169 Z M 353.075747 108.907161 C 353.075747 110.954192 352.978541 112.638132 352.786989 113.953263 C 352.592579 115.268395 352.19518 116.303346 351.597653 117.055258 C 350.997267 117.790017 350.185316 118.304633 349.161801 118.59339 C 348.135426 118.864994 346.791705 118.999366 345.127778 118.999366 C 342.671913 118.999366 340.902203 118.787801 339.821508 118.361813 C 338.757967 117.915812 337.90599 117.055258 337.268437 115.780153 C 336.959667 115.162613 336.765257 114.396405 336.688064 113.490108 C 336.610872 112.560939 336.570846 111.034243 336.570846 108.907161 L 336.570846 72.41512 C 336.570846 70.36523 336.668051 68.732751 336.862462 67.514825 C 337.054014 66.276886 337.491438 65.319127 338.166158 64.641549 C 338.843736 63.96397 339.772905 63.529405 340.950806 63.337853 C 342.151578 63.143442 343.735454 63.046237 345.708151 63.046237 L 360.792138 63.046237 C 363.576786 63.046237 365.500881 63.366443 366.564422 64.003996 C 367.627963 64.621536 368.159734 65.725103 368.159734 67.311837 C 368.159734 69.050098 367.627963 70.222281 366.564422 70.819808 C 365.500881 71.420194 363.576786 71.720387 360.792138 71.720387 L 351.540473 71.720387 C 348.850172 71.720387 347.129065 72.097773 346.377153 72.849685 C 345.622382 73.604456 345.244996 75.325563 345.244996 78.013006 L 345.244996 78.593379 C 345.244996 80.508897 345.476573 81.804015 345.939729 82.481594 C 346.425755 83.13916 347.497873 83.67093 349.161801 84.076906 C 350.822869 84.540061 351.88641 85.169037 352.352424 85.960974 C 352.835592 86.755771 353.075747 88.339647 353.075747 90.71832 Z M 378.50067 50.197974 C 378.50067 47.430479 378.818017 45.517821 379.458429 44.45428 C 380.095982 43.370726 381.245292 42.830378 382.90922 42.830378 C 384.573147 42.830378 385.713881 43.350713 386.331421 44.3971 C 386.968973 45.420615 387.289179 47.31612 387.289179 50.080755 L 387.289179 58.520469 C 387.289179 60.415974 387.463577 61.60531 387.812373 62.088478 C 388.178323 62.571646 389.116069 62.854685 390.625611 62.931878 C 394.259377 63.00907 396.077689 64.467151 396.077689 67.311837 C 396.077689 70.173678 394.413762 71.643195 391.088766 71.720387 C 389.347646 71.79758 388.255515 72.07776 387.812373 72.560928 C 387.386385 73.024083 387.171961 74.204842 387.171961 76.100347 L 387.171961 78.593379 C 387.171961 80.508897 387.403539 81.804015 387.869553 82.481594 C 388.352721 83.13916 389.424839 83.67093 391.088766 84.076906 C 392.752693 84.540061 393.816234 85.169037 394.279389 85.960974 C 394.762557 86.755771 395.005571 88.339647 395.005571 90.71832 L 395.005571 108.907161 C 395.005571 110.954192 394.908365 112.638132 394.713955 113.953263 C 394.522403 115.268395 394.125004 116.303346 393.524618 117.055258 C 392.944245 117.790017 392.132294 118.304633 391.088766 118.59339 C 390.062392 118.864994 388.71867 118.999366 387.057602 118.999366 C 384.601737 118.999366 382.812014 118.787801 381.691293 118.361813 C 380.587727 117.915812 379.767199 117.055258 379.223992 115.780153 C 378.895209 115.162613 378.692222 114.396405 378.615029 113.490108 C 378.537837 112.560939 378.50067 111.034243 378.50067 108.907161 L 378.50067 76.823669 L 378.383452 74.793792 C 378.383452 73.693084 378.200477 72.966903 377.831668 72.618107 C 377.485731 72.252158 376.799576 71.989131 375.773202 71.834746 L 374.235069 71.720387 C 371.218844 71.48881 369.712161 70.05646 369.712161 67.426197 C 369.712161 64.507176 371.373229 63.046237 374.701083 63.046237 C 375.570214 63.046237 376.256369 62.989057 376.75955 62.871839 C 377.282744 62.737467 377.660129 62.457287 377.891707 62.031298 C 378.143297 61.588156 378.306259 60.947744 378.383452 60.115781 C 378.460644 59.286676 378.50067 58.163096 378.50067 56.753618 Z M 378.50067 50.197974 " stroke="#000000" stroke-width="31.189726" stroke-opacity="1" stroke-miterlimit="4"/><g fill="#ffffff" fill-opacity="1"><g transform="translate(202.849937, 254.692273)"><g><path d="M 90.421875 -14.609375 C 90.421875 -11.578125 90.203125 -9.113281 89.765625 -7.21875 C 89.335938 -5.332031 88.5 -3.847656 87.25 -2.765625 C 86.007812 -1.679688 84.28125 -0.945312 82.0625 -0.5625 C 79.84375 -0.1875 76.945312 0 73.375 0 L 20.125 0 C 17.425781 0 15.207031 -0.242188 13.46875 -0.734375 C 11.738281 -1.222656 10.359375 -2.0625 9.328125 -3.25 C 8.304688 -4.4375 7.578125 -6.03125 7.140625 -8.03125 C 6.710938 -10.03125 6.5 -12.601562 6.5 -15.75 L 6.5 -31.484375 C 6.5 -37.003906 8.820312 -39.765625 13.46875 -39.765625 C 17.90625 -39.765625 20.125 -36.898438 20.125 -31.171875 L 20.125 -25.640625 C 20.125 -23.160156 20.285156 -21.160156 20.609375 -19.640625 C 20.941406 -18.128906 21.539062 -16.9375 22.40625 -16.0625 C 23.269531 -15.195312 24.484375 -14.601562 26.046875 -14.28125 C 27.617188 -13.957031 29.648438 -13.796875 32.140625 -13.796875 L 53.890625 -13.796875 C 56.273438 -13.796875 58.222656 -13.929688 59.734375 -14.203125 C 61.253906 -14.472656 62.390625 -15.09375 63.140625 -16.0625 C 63.898438 -17.039062 64.414062 -18.394531 64.6875 -20.125 C 64.957031 -21.851562 65.09375 -24.179688 65.09375 -27.109375 L 65.09375 -40.25 C 65.09375 -42.957031 64.929688 -45.125 64.609375 -46.75 C 64.285156 -48.375 63.632812 -49.59375 62.65625 -50.40625 C 61.6875 -51.21875 60.28125 -51.757812 58.4375 -52.03125 C 56.59375 -52.300781 54.160156 -52.4375 51.140625 -52.4375 L 21.109375 -52.4375 C 18.179688 -52.4375 15.769531 -52.648438 13.875 -53.078125 C 11.976562 -53.515625 10.488281 -54.273438 9.40625 -55.359375 C 8.332031 -56.441406 7.578125 -57.925781 7.140625 -59.8125 C 6.710938 -61.707031 6.5 -64.171875 6.5 -67.203125 L 6.5 -93.828125 C 6.5 -97.179688 6.710938 -99.613281 7.140625 -101.125 C 7.578125 -102.644531 8.390625 -104 9.578125 -105.1875 C 10.765625 -106.375 12.25 -107.179688 14.03125 -107.609375 C 15.820312 -108.046875 18.453125 -108.265625 21.921875 -108.265625 L 74.515625 -108.265625 C 77.648438 -108.265625 80.242188 -108.078125 82.296875 -107.703125 C 84.359375 -107.328125 85.984375 -106.675781 87.171875 -105.75 C 88.359375 -104.832031 89.195312 -103.5625 89.6875 -101.9375 C 90.175781 -100.3125 90.421875 -98.257812 90.421875 -95.78125 L 90.421875 -84.578125 C 90.421875 -78.191406 88.09375 -75 83.4375 -75 C 79.21875 -75 76.945312 -77.648438 76.625 -82.953125 L 76.453125 -85.546875 C 76.347656 -87.492188 76.101562 -89.0625 75.71875 -90.25 C 75.34375 -91.445312 74.722656 -92.367188 73.859375 -93.015625 C 72.992188 -93.660156 71.800781 -94.09375 70.28125 -94.3125 C 68.769531 -94.53125 66.769531 -94.640625 64.28125 -94.640625 L 31.171875 -94.640625 C 28.898438 -94.640625 27.03125 -94.445312 25.5625 -94.0625 C 24.101562 -93.6875 22.96875 -92.984375 22.15625 -91.953125 C 21.34375 -90.929688 20.800781 -89.5 20.53125 -87.65625 C 20.257812 -85.8125 20.125 -83.429688 20.125 -80.515625 C 20.125 -77.265625 20.257812 -74.691406 20.53125 -72.796875 C 20.800781 -70.910156 21.367188 -69.476562 22.234375 -68.5 C 23.097656 -67.53125 24.367188 -66.878906 26.046875 -66.546875 C 27.722656 -66.222656 29.972656 -66.0625 32.796875 -66.0625 L 74.34375 -66.0625 C 78.351562 -66.0625 81.222656 -65.898438 82.953125 -65.578125 C 84.679688 -65.253906 86.140625 -64.5 87.328125 -63.3125 C 88.523438 -62.226562 89.335938 -60.816406 89.765625 -59.078125 C 90.203125 -57.347656 90.421875 -54.703125 90.421875 -51.140625 Z M 90.421875 -14.609375 "/></g></g></g><g fill="#ffffff" fill-opacity="1"><g transform="translate(299.750847, 254.692273)"><g><path d="M 19 0 C 16.394531 0 14.253906 -0.132812 12.578125 -0.40625 C 10.898438 -0.675781 9.628906 -1.269531 8.765625 -2.1875 C 7.898438 -3.113281 7.304688 -4.382812 6.984375 -6 C 6.660156 -7.625 6.5 -9.789062 6.5 -12.5 L 6.5 -66.875 C 6.5 -70.664062 6.929688 -73.265625 7.796875 -74.671875 C 8.660156 -76.078125 10.226562 -76.78125 12.5 -76.78125 C 14.664062 -76.78125 16.179688 -76.078125 17.046875 -74.671875 C 17.910156 -73.265625 18.34375 -70.664062 18.34375 -66.875 L 18.34375 -55.1875 C 18.34375 -52.59375 18.664062 -50.832031 19.3125 -49.90625 C 19.96875 -48.988281 21.429688 -48.257812 23.703125 -47.71875 C 25.972656 -47.070312 27.429688 -46.207031 28.078125 -45.125 C 28.734375 -44.039062 29.0625 -41.878906 29.0625 -38.640625 L 29.0625 -20.453125 C 29.0625 -18.503906 29.140625 -16.960938 29.296875 -15.828125 C 29.460938 -14.691406 29.84375 -13.828125 30.4375 -13.234375 C 31.03125 -12.640625 31.921875 -12.257812 33.109375 -12.09375 C 34.304688 -11.925781 35.878906 -11.84375 37.828125 -11.84375 L 45.609375 -11.84375 C 47.453125 -11.84375 48.941406 -11.953125 50.078125 -12.171875 C 51.210938 -12.390625 52.078125 -12.796875 52.671875 -13.390625 C 53.265625 -13.984375 53.671875 -14.847656 53.890625 -15.984375 C 54.109375 -17.117188 54.21875 -18.609375 54.21875 -20.453125 L 54.21875 -66.875 C 54.21875 -70.664062 54.648438 -73.265625 55.515625 -74.671875 C 56.378906 -76.078125 57.945312 -76.78125 60.21875 -76.78125 C 62.488281 -76.78125 64.03125 -76.078125 64.84375 -74.671875 C 65.65625 -73.265625 66.0625 -70.664062 66.0625 -66.875 L 66.0625 -12.5 C 66.0625 -9.789062 65.898438 -7.625 65.578125 -6 C 65.253906 -4.382812 64.660156 -3.113281 63.796875 -2.1875 C 62.929688 -1.269531 61.6875 -0.675781 60.0625 -0.40625 C 58.4375 -0.132812 56.269531 0 53.5625 0 Z M 19 0 "/></g></g></g><g fill="#ffffff" fill-opacity="1"><g transform="translate(372.304801, 254.692273)"><g><path d="M 6.5 -63.953125 C 6.5 -66.554688 6.660156 -68.664062 6.984375 -70.28125 C 7.304688 -71.90625 7.925781 -73.175781 8.84375 -74.09375 C 9.769531 -75.019531 11.039062 -75.644531 12.65625 -75.96875 C 14.28125 -76.289062 16.335938 -76.453125 18.828125 -76.453125 L 53.5625 -76.453125 C 56.269531 -76.453125 58.4375 -76.289062 60.0625 -75.96875 C 61.6875 -75.644531 62.929688 -75.050781 63.796875 -74.1875 C 64.660156 -73.320312 65.253906 -72.078125 65.578125 -70.453125 C 65.898438 -68.828125 66.0625 -66.660156 66.0625 -63.953125 L 66.0625 -12.828125 C 66.0625 -10.015625 65.925781 -7.769531 65.65625 -6.09375 C 65.382812 -4.414062 64.816406 -3.113281 63.953125 -2.1875 C 63.085938 -1.269531 61.816406 -0.675781 60.140625 -0.40625 C 58.460938 -0.132812 56.269531 0 53.5625 0 L 25.96875 0 C 22.9375 0 20.90625 0.484375 19.875 1.453125 C 18.851562 2.429688 18.34375 4.382812 18.34375 7.3125 L 18.34375 18.671875 C 18.34375 22.453125 17.9375 25.046875 17.125 26.453125 C 16.3125 27.859375 14.769531 28.5625 12.5 28.5625 C 10.226562 28.5625 8.660156 27.832031 7.796875 26.375 C 6.929688 24.914062 6.5 22.289062 6.5 18.5 Z M 26.953125 -64.765625 C 23.265625 -64.765625 20.90625 -64.25 19.875 -63.21875 C 18.851562 -62.195312 18.34375 -59.847656 18.34375 -56.171875 L 18.34375 -51.625 C 18.34375 -49.019531 18.664062 -47.257812 19.3125 -46.34375 C 19.96875 -45.425781 21.429688 -44.695312 23.703125 -44.15625 C 25.972656 -43.5 27.429688 -42.628906 28.078125 -41.546875 C 28.734375 -40.472656 29.0625 -38.3125 29.0625 -35.0625 L 29.0625 -20.453125 C 29.0625 -18.503906 29.140625 -16.960938 29.296875 -15.828125 C 29.460938 -14.691406 29.867188 -13.828125 30.515625 -13.234375 C 31.160156 -12.640625 32.050781 -12.257812 33.1875 -12.09375 C 34.332031 -11.925781 35.878906 -11.84375 37.828125 -11.84375 L 45.609375 -11.84375 C 47.453125 -11.84375 48.941406 -11.953125 50.078125 -12.171875 C 51.210938 -12.390625 52.078125 -12.796875 52.671875 -13.390625 C 53.265625 -13.984375 53.671875 -14.847656 53.890625 -15.984375 C 54.109375 -17.117188 54.21875 -18.609375 54.21875 -20.453125 L 54.21875 -56.171875 C 54.21875 -59.847656 53.726562 -62.195312 52.75 -63.21875 C 51.78125 -64.25 49.457031 -64.765625 45.78125 -64.765625 Z M 26.953125 -64.765625 "/></g></g></g><g fill="#ffffff" fill-opacity="1"><g transform="translate(444.858756, 254.692273)"><g><path d="M 6.5 -63.953125 C 6.5 -66.554688 6.660156 -68.664062 6.984375 -70.28125 C 7.304688 -71.90625 7.925781 -73.175781 8.84375 -74.09375 C 9.769531 -75.019531 11.039062 -75.644531 12.65625 -75.96875 C 14.28125 -76.289062 16.335938 -76.453125 18.828125 -76.453125 L 53.5625 -76.453125 C 56.269531 -76.453125 58.4375 -76.289062 60.0625 -75.96875 C 61.6875 -75.644531 62.929688 -75.050781 63.796875 -74.1875 C 64.660156 -73.320312 65.253906 -72.078125 65.578125 -70.453125 C 65.898438 -68.828125 66.0625 -66.660156 66.0625 -63.953125 L 66.0625 -12.828125 C 66.0625 -10.015625 65.925781 -7.769531 65.65625 -6.09375 C 65.382812 -4.414062 64.816406 -3.113281 63.953125 -2.1875 C 63.085938 -1.269531 61.816406 -0.675781 60.140625 -0.40625 C 58.460938 -0.132812 56.269531 0 53.5625 0 L 25.96875 0 C 22.9375 0 20.90625 0.484375 19.875 1.453125 C 18.851562 2.429688 18.34375 4.382812 18.34375 7.3125 L 18.34375 18.671875 C 18.34375 22.453125 17.9375 25.046875 17.125 26.453125 C 16.3125 27.859375 14.769531 28.5625 12.5 28.5625 C 10.226562 28.5625 8.660156 27.832031 7.796875 26.375 C 6.929688 24.914062 6.5 22.289062 6.5 18.5 Z M 26.953125 -64.765625 C 23.265625 -64.765625 20.90625 -64.25 19.875 -63.21875 C 18.851562 -62.195312 18.34375 -59.847656 18.34375 -56.171875 L 18.34375 -51.625 C 18.34375 -49.019531 18.664062 -47.257812 19.3125 -46.34375 C 19.96875 -45.425781 21.429688 -44.695312 23.703125 -44.15625 C 25.972656 -43.5 27.429688 -42.628906 28.078125 -41.546875 C 28.734375 -40.472656 29.0625 -38.3125 29.0625 -35.0625 L 29.0625 -20.453125 C 29.0625 -18.503906 29.140625 -16.960938 29.296875 -15.828125 C 29.460938 -14.691406 29.867188 -13.828125 30.515625 -13.234375 C 31.160156 -12.640625 32.050781 -12.257812 33.1875 -12.09375 C 34.332031 -11.925781 35.878906 -11.84375 37.828125 -11.84375 L 45.609375 -11.84375 C 47.453125 -11.84375 48.941406 -11.953125 50.078125 -12.171875 C 51.210938 -12.390625 52.078125 -12.796875 52.671875 -13.390625 C 53.265625 -13.984375 53.671875 -14.847656 53.890625 -15.984375 C 54.109375 -17.117188 54.21875 -18.609375 54.21875 -20.453125 L 54.21875 -56.171875 C 54.21875 -59.847656 53.726562 -62.195312 52.75 -63.21875 C 51.78125 -64.25 49.457031 -64.765625 45.78125 -64.765625 Z M 26.953125 -64.765625 "/></g></g></g><g fill="#ffffff" fill-opacity="1"><g transform="translate(517.412711, 254.692273)"><g><path d="M 66.0625 -12.5 C 66.0625 -9.789062 65.898438 -7.625 65.578125 -6 C 65.253906 -4.382812 64.660156 -3.113281 63.796875 -2.1875 C 62.929688 -1.269531 61.6875 -0.675781 60.0625 -0.40625 C 58.4375 -0.132812 56.269531 0 53.5625 0 L 19 0 C 16.394531 0 14.253906 -0.132812 12.578125 -0.40625 C 10.898438 -0.675781 9.628906 -1.269531 8.765625 -2.1875 C 7.898438 -3.113281 7.304688 -4.382812 6.984375 -6 C 6.660156 -7.625 6.5 -9.789062 6.5 -12.5 L 6.5 -63.625 C 6.5 -66.445312 6.632812 -68.695312 6.90625 -70.375 C 7.175781 -72.050781 7.769531 -73.347656 8.6875 -74.265625 C 9.601562 -75.179688 10.875 -75.773438 12.5 -76.046875 C 14.125 -76.316406 16.289062 -76.453125 19 -76.453125 L 53.5625 -76.453125 C 56.269531 -76.453125 58.460938 -76.316406 60.140625 -76.046875 C 61.816406 -75.773438 63.085938 -75.179688 63.953125 -74.265625 C 64.816406 -73.347656 65.382812 -72.050781 65.65625 -70.375 C 65.925781 -68.695312 66.0625 -66.445312 66.0625 -63.625 Z M 26.953125 -64.765625 C 23.265625 -64.765625 20.90625 -64.25 19.875 -63.21875 C 18.851562 -62.195312 18.34375 -59.847656 18.34375 -56.171875 L 18.34375 -51.625 C 18.34375 -49.019531 18.664062 -47.257812 19.3125 -46.34375 C 19.96875 -45.425781 21.429688 -44.695312 23.703125 -44.15625 C 25.972656 -43.5 27.429688 -42.628906 28.078125 -41.546875 C 28.734375 -40.472656 29.0625 -38.3125 29.0625 -35.0625 L 29.0625 -20.453125 C 29.0625 -18.503906 29.140625 -16.960938 29.296875 -15.828125 C 29.460938 -14.691406 29.867188 -13.828125 30.515625 -13.234375 C 31.160156 -12.640625 32.050781 -12.257812 33.1875 -12.09375 C 34.332031 -11.925781 35.878906 -11.84375 37.828125 -11.84375 L 45.609375 -11.84375 C 47.453125 -11.84375 48.941406 -11.953125 50.078125 -12.171875 C 51.210938 -12.390625 52.078125 -12.796875 52.671875 -13.390625 C 53.265625 -13.984375 53.671875 -14.847656 53.890625 -15.984375 C 54.109375 -17.117188 54.21875 -18.609375 54.21875 -20.453125 L 54.21875 -56.171875 C 54.21875 -59.847656 53.726562 -62.195312 52.75 -63.21875 C 51.78125 -64.25 49.457031 -64.765625 45.78125 -64.765625 Z M 26.953125 -64.765625 "/></g></g></g><g fill="#ffffff" fill-opacity="1"><g transform="translate(589.966645, 254.692273)"><g><path d="M 29.0625 -13.796875 C 29.0625 -10.984375 28.925781 -8.679688 28.65625 -6.890625 C 28.382812 -5.109375 27.84375 -3.703125 27.03125 -2.671875 C 26.21875 -1.648438 25.109375 -0.945312 23.703125 -0.5625 C 22.296875 -0.1875 20.457031 0 18.1875 0 C 14.832031 0 12.421875 -0.296875 10.953125 -0.890625 C 9.492188 -1.484375 8.332031 -2.648438 7.46875 -4.390625 C 7.03125 -5.253906 6.757812 -6.304688 6.65625 -7.546875 C 6.550781 -8.796875 6.5 -10.878906 6.5 -13.796875 L 6.5 -63.625 C 6.5 -66.445312 6.632812 -68.695312 6.90625 -70.375 C 7.175781 -72.050781 7.769531 -73.347656 8.6875 -74.265625 C 9.601562 -75.179688 10.875 -75.773438 12.5 -76.046875 C 14.125 -76.316406 16.289062 -76.453125 19 -76.453125 L 39.609375 -76.453125 C 43.398438 -76.453125 46.023438 -76.019531 47.484375 -75.15625 C 48.941406 -74.289062 49.671875 -72.773438 49.671875 -70.609375 C 49.671875 -68.234375 48.941406 -66.640625 47.484375 -65.828125 C 46.023438 -65.015625 43.398438 -64.609375 39.609375 -64.609375 L 26.953125 -64.609375 C 23.265625 -64.609375 20.90625 -64.09375 19.875 -63.0625 C 18.851562 -62.03125 18.34375 -59.675781 18.34375 -56 L 18.34375 -55.1875 C 18.34375 -52.59375 18.664062 -50.832031 19.3125 -49.90625 C 19.96875 -48.988281 21.429688 -48.257812 23.703125 -47.71875 C 25.972656 -47.070312 27.429688 -46.207031 28.078125 -45.125 C 28.734375 -44.039062 29.0625 -41.878906 29.0625 -38.640625 Z M 29.0625 -13.796875 "/></g></g></g><g fill="#ffffff" fill-opacity="1"><g transform="translate(641.744505, 254.692273)"><g><path d="M 12.015625 -93.984375 C 12.015625 -97.773438 12.445312 -100.398438 13.3125 -101.859375 C 14.175781 -103.316406 15.742188 -104.046875 18.015625 -104.046875 C 20.285156 -104.046875 21.851562 -103.34375 22.71875 -101.9375 C 23.59375 -100.53125 24.03125 -97.9375 24.03125 -94.15625 L 24.03125 -82.625 C 24.03125 -80.03125 24.269531 -78.40625 24.75 -77.75 C 25.238281 -77.101562 26.507812 -76.726562 28.5625 -76.625 C 33.539062 -76.507812 36.03125 -74.503906 36.03125 -70.609375 C 36.03125 -66.710938 33.757812 -64.710938 29.21875 -64.609375 C 26.832031 -64.492188 25.34375 -64.113281 24.75 -63.46875 C 24.15625 -62.820312 23.859375 -61.195312 23.859375 -58.59375 L 23.859375 -55.1875 C 23.859375 -52.59375 24.179688 -50.832031 24.828125 -49.90625 C 25.484375 -48.988281 26.945312 -48.257812 29.21875 -47.71875 C 31.488281 -47.070312 32.945312 -46.207031 33.59375 -45.125 C 34.25 -44.039062 34.578125 -41.878906 34.578125 -38.640625 L 34.578125 -13.796875 C 34.578125 -10.984375 34.441406 -8.679688 34.171875 -6.890625 C 33.898438 -5.109375 33.359375 -3.703125 32.546875 -2.671875 C 31.734375 -1.648438 30.625 -0.945312 29.21875 -0.5625 C 27.8125 -0.1875 25.972656 0 23.703125 0 C 20.347656 0 17.910156 -0.296875 16.390625 -0.890625 C 14.878906 -1.484375 13.742188 -2.648438 12.984375 -4.390625 C 12.554688 -5.253906 12.285156 -6.304688 12.171875 -7.546875 C 12.066406 -8.796875 12.015625 -10.878906 12.015625 -13.796875 L 12.015625 -57.625 L 11.84375 -60.390625 C 11.84375 -61.898438 11.597656 -62.898438 11.109375 -63.390625 C 10.628906 -63.878906 9.6875 -64.226562 8.28125 -64.4375 L 6.171875 -64.609375 C 2.054688 -64.929688 0 -66.878906 0 -70.453125 C 0 -74.453125 2.269531 -76.453125 6.8125 -76.453125 C 8.007812 -76.453125 8.957031 -76.53125 9.65625 -76.6875 C 10.363281 -76.851562 10.878906 -77.234375 11.203125 -77.828125 C 11.523438 -78.429688 11.738281 -79.300781 11.84375 -80.4375 C 11.957031 -81.570312 12.015625 -83.113281 12.015625 -85.0625 Z M 12.015625 -93.984375 "/></g></g></g><g clip-path="url(#aba859872d)"><g clip-path="url(#7e1e0b0d31)"><g clip-path="url(#8265740370)"><path fill="#faff00" d="M 694.570312 231.976562 L 748.523438 307.125 L 725.363281 249.746094 L 814.875 327.039062 L 736.988281 224.96875 L 756.863281 231.691406 L 737.960938 205.683594 L 813.246094 162.449219 L 702.703125 130.65625 L 704.71875 99.085938 L 679.488281 103.867188 L 663.476562 36.398438 L 647.910156 82.242188 L 634.039062 50.609375 L 626.074219 71.597656 L 612.214844 62.84375 L 631.644531 108.851562 L 659.421875 105.574219 L 657.484375 135.40625 L 768.277344 169.589844 L 692.992188 212.824219 L 713.984375 237.132812 Z M 694.570312 231.976562 " fill-opacity="1" fill-rule="nonzero"/></g></g></g><g clip-path="url(#c8cf2030eb)"><g clip-path="url(#6040ac93df)"><g clip-path="url(#65836eabb0)"><path fill="#faff00" d="M 194.546875 228.949219 L 154.160156 306.449219 L 168.132812 249.6875 L 94.777344 333.957031 L 153.941406 228.078125 L 136.257812 237.027344 L 150.449219 210.175781 L 74.253906 179.828125 L 173.371094 135.292969 L 167.257812 106.039062 L 191.492188 107.128906 L 197.425781 41.894531 L 218.125 82.679688 L 226.855469 51.242188 L 237.117188 69.796875 L 248.90625 59.757812 L 236.898438 105.382812 L 210.484375 106.039062 L 216.289062 133.675781 L 117.261719 180.484375 L 193.457031 210.828125 L 177.082031 236.371094 Z M 194.546875 228.949219 " fill-opacity="1" fill-rule="nonzero"/></g></g></g><path stroke-linecap="butt" transform="matrix(1.366308, 0, 0, 1.366308, 136.605338, 92.101597)" fill="none" stroke-linejoin="miter" d="M 114.648117 108.295339 C 114.648117 110.519626 114.493732 112.329362 114.184962 113.721686 C 113.873333 115.093997 113.255793 116.177551 112.326624 116.969489 C 111.417468 117.761427 110.150939 118.304633 108.527037 118.59339 C 106.923149 118.864994 104.804643 118.999366 102.17438 118.999366 L 63.220756 118.999366 C 61.248059 118.999366 59.624157 118.824968 58.346192 118.479031 C 57.071087 118.110223 56.056148 117.492683 55.301377 116.620693 C 54.566619 115.751563 54.034848 114.582239 53.706065 113.112723 C 53.397295 111.643206 53.240051 109.767714 53.240051 107.483388 L 53.240051 95.93882 C 53.240051 91.899079 54.944004 89.877779 58.346192 89.877779 C 61.593995 89.877779 63.220756 91.984849 63.220756 96.201847 L 63.220756 100.233011 C 63.220756 102.051323 63.335115 103.520839 63.566693 104.64156 C 63.801129 105.745127 64.235694 106.614258 64.873247 107.25181 C 65.5108 107.872209 66.399944 108.306775 67.540677 108.558365 C 68.701424 108.789943 70.190953 108.907161 72.009265 108.907161 L 87.933793 108.907161 C 89.672054 108.907161 91.095827 108.809955 92.196534 108.615545 C 93.317255 108.40398 94.149219 107.949402 94.692425 107.25181 C 95.252786 106.537065 95.630171 105.550716 95.821723 104.292764 C 96.016134 103.017659 96.113339 101.305129 96.113339 99.160892 L 96.113339 89.528983 C 96.113339 87.556286 95.996121 85.980987 95.764544 84.800228 C 95.532966 83.602315 95.058375 82.704594 94.34363 82.104208 C 93.628884 81.503822 92.593933 81.109283 91.238776 80.914872 C 89.90649 80.720461 88.125345 80.623256 85.903916 80.623256 L 63.915488 80.623256 C 61.788406 80.623256 60.030132 80.468871 58.637808 80.160101 C 57.262638 79.831318 56.181943 79.270957 55.387146 78.47902 C 54.595208 77.684223 54.034848 76.603528 53.706065 75.228358 C 53.397295 73.836033 53.240051 72.029157 53.240051 69.804869 L 53.240051 50.340923 C 53.240051 47.885057 53.397295 46.106771 53.706065 45.006063 C 54.034848 43.882483 54.632375 42.887558 55.504365 42.018427 C 56.373495 41.146438 57.457049 40.557488 58.752168 40.248718 C 60.067299 39.919935 61.991394 39.754114 64.524452 39.754114 L 103.014921 39.754114 C 105.316401 39.754114 107.211906 39.899922 108.701435 40.188679 C 110.210978 40.460282 111.400314 40.934873 112.269444 41.612452 C 113.158588 42.267159 113.778987 43.196328 114.124923 44.3971 C 114.473719 45.575 114.648117 47.073107 114.648117 48.891419 L 114.648117 57.099555 C 114.648117 61.779708 112.947023 64.121214 109.541976 64.121214 C 106.468571 64.121214 104.804643 62.177106 104.553053 58.288892 L 104.438694 56.376233 C 104.361501 54.963896 104.175667 53.823162 103.88691 52.951173 C 103.615307 52.082042 103.160729 51.404464 102.523176 50.921296 C 101.905636 50.438128 101.033647 50.120781 99.912926 49.963537 C 98.809359 49.809152 97.351278 49.73196 95.532966 49.73196 L 71.283084 49.73196 C 69.619157 49.73196 68.258282 49.877768 67.19474 50.166525 C 66.131199 50.438128 65.299236 50.949886 64.698849 51.704657 C 64.098463 52.459428 63.703924 53.514392 63.509513 54.866691 C 63.315102 56.201835 63.220756 57.931519 63.220756 60.058601 C 63.220756 62.437274 63.315102 64.324202 63.509513 65.716526 C 63.703924 67.10885 64.118476 68.160955 64.756029 68.8757 C 65.396441 69.573292 66.322751 70.047883 67.540677 70.299473 C 68.778616 70.531051 70.422531 70.64541 72.47242 70.64541 L 102.900562 70.64541 C 105.839595 70.64541 107.938087 70.771205 109.196039 71.022796 C 110.471145 71.254373 111.543263 71.806157 112.415252 72.678146 C 113.284383 73.470084 113.873333 74.505035 114.184962 75.780141 C 114.493732 77.038093 114.648117 78.970764 114.648117 81.581015 Z M 133.300113 118.999366 C 131.404608 118.999366 129.837886 118.90216 128.599947 118.710609 C 127.382021 118.516198 126.455711 118.081633 125.815299 117.404054 C 125.177746 116.726475 124.743181 115.800165 124.511604 114.619406 C 124.280026 113.421493 124.162808 111.834758 124.162808 109.862061 L 124.162808 70.036447 C 124.162808 67.271812 124.471578 65.376307 125.091977 64.352791 C 125.72953 63.326417 126.87884 62.814659 128.542768 62.814659 C 130.129502 62.814659 131.241646 63.326417 131.879199 64.352791 C 132.516752 65.376307 132.836958 67.271812 132.836958 70.036447 L 132.836958 78.593379 C 132.836958 80.508897 133.068535 81.804015 133.53169 82.481594 C 134.014858 83.13916 135.089835 83.67093 136.750904 84.076906 C 138.414831 84.540061 139.478372 85.169037 139.941527 85.960974 C 140.424695 86.755771 140.667709 88.339647 140.667709 90.71832 L 140.667709 104.032597 C 140.667709 105.464947 140.724888 106.594245 140.842106 107.426208 C 140.956466 108.258172 141.239505 108.895725 141.682647 109.341726 C 142.128648 109.767714 142.786214 110.036458 143.655344 110.153677 C 144.524475 110.268036 145.665208 110.328075 147.077545 110.328075 L 152.79265 110.328075 C 154.144948 110.328075 155.239938 110.250882 156.069042 110.093638 C 156.901006 109.939253 157.529982 109.650496 157.95597 109.224508 C 158.399112 108.781366 158.699306 108.140954 158.853691 107.311849 C 159.008076 106.479885 159.088127 105.387754 159.088127 104.032597 L 159.088127 70.036447 C 159.088127 67.271812 159.405474 65.376307 160.043027 64.352791 C 160.683439 63.326417 161.832749 62.814659 163.496677 62.814659 C 165.157745 62.814659 166.281325 63.326417 166.861698 64.352791 C 167.459225 65.376307 167.759418 67.271812 167.759418 70.036447 L 167.759418 109.862061 C 167.759418 111.834758 167.633623 113.421493 167.382033 114.619406 C 167.150455 115.800165 166.71589 116.726475 166.078337 117.404054 C 165.457938 118.081633 164.548782 118.516198 163.350869 118.710609 C 162.170109 118.90216 160.59481 118.999366 158.622113 118.999366 Z M 177.265532 72.183542 C 177.265532 70.288037 177.38275 68.752764 177.614328 67.572005 C 177.845905 66.374091 178.300483 65.436346 178.978062 64.758767 C 179.652782 64.081188 180.581951 63.62661 181.76271 63.395033 C 182.960623 63.163455 184.467307 63.046237 186.285619 63.046237 L 211.724837 63.046237 C 213.697535 63.046237 215.272833 63.163455 216.453593 63.395033 C 217.651506 63.62661 218.560662 64.061175 219.178202 64.698728 C 219.818614 65.33914 220.253179 66.256873 220.484757 67.454787 C 220.736347 68.635546 220.862142 70.210845 220.862142 72.183542 L 220.862142 109.601893 C 220.862142 111.671796 220.764937 113.324287 220.570526 114.562226 C 220.378975 115.780153 219.961563 116.726475 219.32401 117.404054 C 218.686457 118.081633 217.748711 118.516198 216.510772 118.710609 C 215.292846 118.90216 213.697535 118.999366 211.724837 118.999366 L 191.506119 118.999366 C 189.301845 118.999366 187.823751 119.356739 187.06898 120.074343 C 186.314209 120.789088 185.936823 122.210002 185.936823 124.337084 L 185.936823 132.662439 C 185.936823 135.427074 185.639489 137.322579 185.039103 138.346094 C 184.438717 139.392482 183.309419 139.912816 181.645492 139.912816 C 179.981565 139.912816 178.832254 139.372469 178.194701 138.288915 C 177.574302 137.225374 177.265532 135.309856 177.265532 132.545221 Z M 192.232301 71.603169 C 189.544858 71.603169 187.823751 71.980554 187.06898 72.735326 C 186.314209 73.490097 185.936823 75.211204 185.936823 77.898646 L 185.936823 81.203629 C 185.936823 83.119147 186.17126 84.414265 186.634415 85.091844 C 187.117583 85.74941 188.189701 86.28118 189.853628 86.687156 C 191.517555 87.150311 192.581096 87.779287 193.044251 88.571225 C 193.527419 89.366022 193.770433 90.949897 193.770433 93.32857 L 193.770433 104.032597 C 193.770433 105.464947 193.827612 106.594245 193.944831 107.426208 C 194.05919 108.258172 194.359383 108.895725 194.842551 109.341726 C 195.325719 109.767714 195.983285 110.036458 196.815248 110.153677 C 197.647212 110.268036 198.767933 110.328075 200.18027 110.328075 L 205.895374 110.328075 C 207.247672 110.328075 208.339803 110.250882 209.171767 110.093638 C 210.00373 109.939253 210.632706 109.650496 211.058695 109.224508 C 211.501837 108.781366 211.80203 108.140954 211.956415 107.311849 C 212.1108 106.479885 212.187992 105.387754 212.187992 104.032597 L 212.187992 77.898646 C 212.187992 75.211204 211.83062 73.490097 211.115874 72.735326 C 210.401129 71.980554 208.697176 71.603169 206.009733 71.603169 Z M 230.368256 72.183542 C 230.368256 70.288037 230.482616 68.752764 230.714193 67.572005 C 230.94863 66.374091 231.403208 65.436346 232.077927 64.758767 C 232.755506 64.081188 233.684675 63.62661 234.862575 63.395033 C 236.063348 63.163455 237.570031 63.046237 239.388343 63.046237 L 264.827562 63.046237 C 266.800259 63.046237 268.375558 63.163455 269.556317 63.395033 C 270.75423 63.62661 271.663387 64.061175 272.280927 64.698728 C 272.918479 65.33914 273.355904 66.256873 273.587481 67.454787 C 273.839072 68.635546 273.964867 70.210845 273.964867 72.183542 L 273.964867 109.601893 C 273.964867 111.671796 273.867661 113.324287 273.673251 114.562226 C 273.481699 115.780153 273.064288 116.726475 272.426735 117.404054 C 271.789182 118.081633 270.851436 118.516198 269.613497 118.710609 C 268.395571 118.90216 266.800259 118.999366 264.827562 118.999366 L 244.608844 118.999366 C 242.404569 118.999366 240.926475 119.356739 240.171704 120.074343 C 239.416933 120.789088 239.039547 122.210002 239.039547 124.337084 L 239.039547 132.662439 C 239.039547 135.427074 238.739354 137.322579 238.141827 138.346094 C 237.541441 139.392482 236.409284 139.912816 234.748216 139.912816 C 233.084289 139.912816 231.934978 139.372469 231.294566 138.288915 C 230.677026 137.225374 230.368256 135.309856 230.368256 132.545221 Z M 245.335025 71.603169 C 242.647582 71.603169 240.926475 71.980554 240.171704 72.735326 C 239.416933 73.490097 239.039547 75.211204 239.039547 77.898646 L 239.039547 81.203629 C 239.039547 83.119147 239.271125 84.414265 239.737139 85.091844 C 240.220307 85.74941 241.292425 86.28118 242.956352 86.687156 C 244.62028 87.150311 245.683821 87.779287 246.146976 88.571225 C 246.630144 89.366022 246.873157 90.949897 246.873157 93.32857 L 246.873157 104.032597 C 246.873157 105.464947 246.930337 106.594245 247.047555 107.426208 C 247.161914 108.258172 247.462107 108.895725 247.945275 109.341726 C 248.428443 109.767714 249.086009 110.036458 249.917972 110.153677 C 250.749936 110.268036 251.870657 110.328075 253.282994 110.328075 L 258.998098 110.328075 C 260.350396 110.328075 261.442527 110.250882 262.274491 110.093638 C 263.106455 109.939253 263.735431 109.650496 264.15856 109.224508 C 264.604561 108.781366 264.904754 108.140954 265.059139 107.311849 C 265.213524 106.479885 265.290717 105.387754 265.290717 104.032597 L 265.290717 77.898646 C 265.290717 75.211204 264.933344 73.490097 264.218598 72.735326 C 263.500994 71.980554 261.7999 71.603169 259.112457 71.603169 Z M 327.067591 109.862061 C 327.067591 111.834758 326.941796 113.421493 326.690205 114.619406 C 326.455769 115.800165 326.021204 116.726475 325.383651 117.404054 C 324.766111 118.081633 323.856955 118.516198 322.656182 118.710609 C 321.478282 118.90216 319.902983 118.999366 317.930286 118.999366 L 292.605427 118.999366 C 290.712781 118.999366 289.146059 118.90216 287.90812 118.710609 C 286.690194 118.516198 285.761025 118.081633 285.123472 117.404054 C 284.485919 116.726475 284.048495 115.800165 283.816917 114.619406 C 283.58534 113.421493 283.470981 111.834758 283.470981 109.862061 L 283.470981 72.41512 C 283.470981 70.36523 283.565327 68.732751 283.759738 67.514825 C 283.954148 66.276886 284.388714 65.319127 285.066292 64.641549 C 285.741012 63.96397 286.670181 63.529405 287.85094 63.337853 C 289.048854 63.143442 290.635588 63.046237 292.605427 63.046237 L 317.930286 63.046237 C 319.902983 63.046237 321.498295 63.143442 322.716221 63.337853 C 323.95416 63.529405 324.891906 63.96397 325.529459 64.641549 C 326.167012 65.319127 326.581564 66.276886 326.775975 67.514825 C 326.970386 68.732751 327.067591 70.36523 327.067591 72.41512 Z M 298.437749 71.603169 C 295.750307 71.603169 294.0292 71.980554 293.274428 72.735326 C 292.519657 73.490097 292.142272 75.211204 292.142272 77.898646 L 292.142272 81.203629 C 292.142272 83.119147 292.373849 84.414265 292.839863 85.091844 C 293.323031 85.74941 294.395149 86.28118 296.059077 86.687156 C 297.720145 87.150311 298.783686 87.779287 299.2497 88.571225 C 299.732868 89.366022 299.973022 90.949897 299.973022 93.32857 L 299.973022 104.032597 C 299.973022 105.464947 300.033061 106.594245 300.14742 107.426208 C 300.264638 108.258172 300.564832 108.895725 301.047999 109.341726 C 301.531167 109.767714 302.188733 110.036458 303.020697 110.153677 C 303.85266 110.268036 304.973381 110.328075 306.385718 110.328075 L 312.097963 110.328075 C 313.453121 110.328075 314.545252 110.250882 315.377215 110.093638 C 316.209179 109.939253 316.835296 109.650496 317.261284 109.224508 C 317.707285 108.781366 318.007478 108.140954 318.161863 107.311849 C 318.316248 106.479885 318.393441 105.387754 318.393441 104.032597 L 318.393441 77.898646 C 318.393441 75.211204 318.036068 73.490097 317.321323 72.735326 C 316.603718 71.980554 314.902624 71.603169 312.215182 71.603169 Z M 353.075747 108.907161 C 353.075747 110.954192 352.978541 112.638132 352.786989 113.953263 C 352.592579 115.268395 352.19518 116.303346 351.597653 117.055258 C 350.997267 117.790017 350.185316 118.304633 349.161801 118.59339 C 348.135426 118.864994 346.791705 118.999366 345.127778 118.999366 C 342.671913 118.999366 340.902203 118.787801 339.821508 118.361813 C 338.757967 117.915812 337.90599 117.055258 337.268437 115.780153 C 336.959667 115.162613 336.765257 114.396405 336.688064 113.490108 C 336.610872 112.560939 336.570846 111.034243 336.570846 108.907161 L 336.570846 72.41512 C 336.570846 70.36523 336.668051 68.732751 336.862462 67.514825 C 337.054014 66.276886 337.491438 65.319127 338.166158 64.641549 C 338.843736 63.96397 339.772905 63.529405 340.950806 63.337853 C 342.151578 63.143442 343.735454 63.046237 345.708151 63.046237 L 360.792138 63.046237 C 363.576786 63.046237 365.500881 63.366443 366.564422 64.003996 C 367.627963 64.621536 368.159734 65.725103 368.159734 67.311837 C 368.159734 69.050098 367.627963 70.222281 366.564422 70.819808 C 365.500881 71.420194 363.576786 71.720387 360.792138 71.720387 L 351.540473 71.720387 C 348.850172 71.720387 347.129065 72.097773 346.377153 72.849685 C 345.622382 73.604456 345.244996 75.325563 345.244996 78.013006 L 345.244996 78.593379 C 345.244996 80.508897 345.476573 81.804015 345.939729 82.481594 C 346.425755 83.13916 347.497873 83.67093 349.161801 84.076906 C 350.822869 84.540061 351.88641 85.169037 352.352424 85.960974 C 352.835592 86.755771 353.075747 88.339647 353.075747 90.71832 Z M 378.50067 50.197974 C 378.50067 47.430479 378.818017 45.517821 379.458429 44.45428 C 380.095982 43.370726 381.245292 42.830378 382.90922 42.830378 C 384.573147 42.830378 385.713881 43.350713 386.331421 44.3971 C 386.968973 45.420615 387.289179 47.31612 387.289179 50.080755 L 387.289179 58.520469 C 387.289179 60.415974 387.463577 61.60531 387.812373 62.088478 C 388.178323 62.571646 389.116069 62.854685 390.625611 62.931878 C 394.259377 63.00907 396.077689 64.467151 396.077689 67.311837 C 396.077689 70.173678 394.413762 71.643195 391.088766 71.720387 C 389.347646 71.79758 388.255515 72.07776 387.812373 72.560928 C 387.386385 73.024083 387.171961 74.204842 387.171961 76.100347 L 387.171961 78.593379 C 387.171961 80.508897 387.403539 81.804015 387.869553 82.481594 C 388.352721 83.13916 389.424839 83.67093 391.088766 84.076906 C 392.752693 84.540061 393.816234 85.169037 394.279389 85.960974 C 394.762557 86.755771 395.005571 88.339647 395.005571 90.71832 L 395.005571 108.907161 C 395.005571 110.954192 394.908365 112.638132 394.713955 113.953263 C 394.522403 115.268395 394.125004 116.303346 393.524618 117.055258 C 392.944245 117.790017 392.132294 118.304633 391.088766 118.59339 C 390.062392 118.864994 388.71867 118.999366 387.057602 118.999366 C 384.601737 118.999366 382.812014 118.787801 381.691293 118.361813 C 380.587727 117.915812 379.767199 117.055258 379.223992 115.780153 C 378.895209 115.162613 378.692222 114.396405 378.615029 113.490108 C 378.537837 112.560939 378.50067 111.034243 378.50067 108.907161 L 378.50067 76.823669 L 378.383452 74.793792 C 378.383452 73.693084 378.200477 72.966903 377.831668 72.618107 C 377.485731 72.252158 376.799576 71.989131 375.773202 71.834746 L 374.235069 71.720387 C 371.218844 71.48881 369.712161 70.05646 369.712161 67.426197 C 369.712161 64.507176 371.373229 63.046237 374.701083 63.046237 C 375.570214 63.046237 376.256369 62.989057 376.75955 62.871839 C 377.282744 62.737467 377.660129 62.457287 377.891707 62.031298 C 378.143297 61.588156 378.306259 60.947744 378.383452 60.115781 C 378.460644 59.286676 378.50067 58.163096 378.50067 56.753618 Z M 378.50067 50.197974 " stroke="#80004e" stroke-width="8.91135" stroke-opacity="1" stroke-miterlimit="4"/><g fill="#ff66c4" fill-opacity="1"><g transform="translate(202.849937, 254.692273)"><g><path d="M 90.421875 -14.609375 C 90.421875 -11.578125 90.203125 -9.113281 89.765625 -7.21875 C 89.335938 -5.332031 88.5 -3.847656 87.25 -2.765625 C 86.007812 -1.679688 84.28125 -0.945312 82.0625 -0.5625 C 79.84375 -0.1875 76.945312 0 73.375 0 L 20.125 0 C 17.425781 0 15.207031 -0.242188 13.46875 -0.734375 C 11.738281 -1.222656 10.359375 -2.0625 9.328125 -3.25 C 8.304688 -4.4375 7.578125 -6.03125 7.140625 -8.03125 C 6.710938 -10.03125 6.5 -12.601562 6.5 -15.75 L 6.5 -31.484375 C 6.5 -37.003906 8.820312 -39.765625 13.46875 -39.765625 C 17.90625 -39.765625 20.125 -36.898438 20.125 -31.171875 L 20.125 -25.640625 C 20.125 -23.160156 20.285156 -21.160156 20.609375 -19.640625 C 20.941406 -18.128906 21.539062 -16.9375 22.40625 -16.0625 C 23.269531 -15.195312 24.484375 -14.601562 26.046875 -14.28125 C 27.617188 -13.957031 29.648438 -13.796875 32.140625 -13.796875 L 53.890625 -13.796875 C 56.273438 -13.796875 58.222656 -13.929688 59.734375 -14.203125 C 61.253906 -14.472656 62.390625 -15.09375 63.140625 -16.0625 C 63.898438 -17.039062 64.414062 -18.394531 64.6875 -20.125 C 64.957031 -21.851562 65.09375 -24.179688 65.09375 -27.109375 L 65.09375 -40.25 C 65.09375 -42.957031 64.929688 -45.125 64.609375 -46.75 C 64.285156 -48.375 63.632812 -49.59375 62.65625 -50.40625 C 61.6875 -51.21875 60.28125 -51.757812 58.4375 -52.03125 C 56.59375 -52.300781 54.160156 -52.4375 51.140625 -52.4375 L 21.109375 -52.4375 C 18.179688 -52.4375 15.769531 -52.648438 13.875 -53.078125 C 11.976562 -53.515625 10.488281 -54.273438 9.40625 -55.359375 C 8.332031 -56.441406 7.578125 -57.925781 7.140625 -59.8125 C 6.710938 -61.707031 6.5 -64.171875 6.5 -67.203125 L 6.5 -93.828125 C 6.5 -97.179688 6.710938 -99.613281 7.140625 -101.125 C 7.578125 -102.644531 8.390625 -104 9.578125 -105.1875 C 10.765625 -106.375 12.25 -107.179688 14.03125 -107.609375 C 15.820312 -108.046875 18.453125 -108.265625 21.921875 -108.265625 L 74.515625 -108.265625 C 77.648438 -108.265625 80.242188 -108.078125 82.296875 -107.703125 C 84.359375 -107.328125 85.984375 -106.675781 87.171875 -105.75 C 88.359375 -104.832031 89.195312 -103.5625 89.6875 -101.9375 C 90.175781 -100.3125 90.421875 -98.257812 90.421875 -95.78125 L 90.421875 -84.578125 C 90.421875 -78.191406 88.09375 -75 83.4375 -75 C 79.21875 -75 76.945312 -77.648438 76.625 -82.953125 L 76.453125 -85.546875 C 76.347656 -87.492188 76.101562 -89.0625 75.71875 -90.25 C 75.34375 -91.445312 74.722656 -92.367188 73.859375 -93.015625 C 72.992188 -93.660156 71.800781 -94.09375 70.28125 -94.3125 C 68.769531 -94.53125 66.769531 -94.640625 64.28125 -94.640625 L 31.171875 -94.640625 C 28.898438 -94.640625 27.03125 -94.445312 25.5625 -94.0625 C 24.101562 -93.6875 22.96875 -92.984375 22.15625 -91.953125 C 21.34375 -90.929688 20.800781 -89.5 20.53125 -87.65625 C 20.257812 -85.8125 20.125 -83.429688 20.125 -80.515625 C 20.125 -77.265625 20.257812 -74.691406 20.53125 -72.796875 C 20.800781 -70.910156 21.367188 -69.476562 22.234375 -68.5 C 23.097656 -67.53125 24.367188 -66.878906 26.046875 -66.546875 C 27.722656 -66.222656 29.972656 -66.0625 32.796875 -66.0625 L 74.34375 -66.0625 C 78.351562 -66.0625 81.222656 -65.898438 82.953125 -65.578125 C 84.679688 -65.253906 86.140625 -64.5 87.328125 -63.3125 C 88.523438 -62.226562 89.335938 -60.816406 89.765625 -59.078125 C 90.203125 -57.347656 90.421875 -54.703125 90.421875 -51.140625 Z M 90.421875 -14.609375 "/></g></g></g><g fill="#ff66c4" fill-opacity="1"><g transform="translate(299.750847, 254.692273)"><g><path d="M 19 0 C 16.394531 0 14.253906 -0.132812 12.578125 -0.40625 C 10.898438 -0.675781 9.628906 -1.269531 8.765625 -2.1875 C 7.898438 -3.113281 7.304688 -4.382812 6.984375 -6 C 6.660156 -7.625 6.5 -9.789062 6.5 -12.5 L 6.5 -66.875 C 6.5 -70.664062 6.929688 -73.265625 7.796875 -74.671875 C 8.660156 -76.078125 10.226562 -76.78125 12.5 -76.78125 C 14.664062 -76.78125 16.179688 -76.078125 17.046875 -74.671875 C 17.910156 -73.265625 18.34375 -70.664062 18.34375 -66.875 L 18.34375 -55.1875 C 18.34375 -52.59375 18.664062 -50.832031 19.3125 -49.90625 C 19.96875 -48.988281 21.429688 -48.257812 23.703125 -47.71875 C 25.972656 -47.070312 27.429688 -46.207031 28.078125 -45.125 C 28.734375 -44.039062 29.0625 -41.878906 29.0625 -38.640625 L 29.0625 -20.453125 C 29.0625 -18.503906 29.140625 -16.960938 29.296875 -15.828125 C 29.460938 -14.691406 29.84375 -13.828125 30.4375 -13.234375 C 31.03125 -12.640625 31.921875 -12.257812 33.109375 -12.09375 C 34.304688 -11.925781 35.878906 -11.84375 37.828125 -11.84375 L 45.609375 -11.84375 C 47.453125 -11.84375 48.941406 -11.953125 50.078125 -12.171875 C 51.210938 -12.390625 52.078125 -12.796875 52.671875 -13.390625 C 53.265625 -13.984375 53.671875 -14.847656 53.890625 -15.984375 C 54.109375 -17.117188 54.21875 -18.609375 54.21875 -20.453125 L 54.21875 -66.875 C 54.21875 -70.664062 54.648438 -73.265625 55.515625 -74.671875 C 56.378906 -76.078125 57.945312 -76.78125 60.21875 -76.78125 C 62.488281 -76.78125 64.03125 -76.078125 64.84375 -74.671875 C 65.65625 -73.265625 66.0625 -70.664062 66.0625 -66.875 L 66.0625 -12.5 C 66.0625 -9.789062 65.898438 -7.625 65.578125 -6 C 65.253906 -4.382812 64.660156 -3.113281 63.796875 -2.1875 C 62.929688 -1.269531 61.6875 -0.675781 60.0625 -0.40625 C 58.4375 -0.132812 56.269531 0 53.5625 0 Z M 19 0 "/></g></g></g><g fill="#ff66c4" fill-opacity="1"><g transform="translate(372.304801, 254.692273)"><g><path d="M 6.5 -63.953125 C 6.5 -66.554688 6.660156 -68.664062 6.984375 -70.28125 C 7.304688 -71.90625 7.925781 -73.175781 8.84375 -74.09375 C 9.769531 -75.019531 11.039062 -75.644531 12.65625 -75.96875 C 14.28125 -76.289062 16.335938 -76.453125 18.828125 -76.453125 L 53.5625 -76.453125 C 56.269531 -76.453125 58.4375 -76.289062 60.0625 -75.96875 C 61.6875 -75.644531 62.929688 -75.050781 63.796875 -74.1875 C 64.660156 -73.320312 65.253906 -72.078125 65.578125 -70.453125 C 65.898438 -68.828125 66.0625 -66.660156 66.0625 -63.953125 L 66.0625 -12.828125 C 66.0625 -10.015625 65.925781 -7.769531 65.65625 -6.09375 C 65.382812 -4.414062 64.816406 -3.113281 63.953125 -2.1875 C 63.085938 -1.269531 61.816406 -0.675781 60.140625 -0.40625 C 58.460938 -0.132812 56.269531 0 53.5625 0 L 25.96875 0 C 22.9375 0 20.90625 0.484375 19.875 1.453125 C 18.851562 2.429688 18.34375 4.382812 18.34375 7.3125 L 18.34375 18.671875 C 18.34375 22.453125 17.9375 25.046875 17.125 26.453125 C 16.3125 27.859375 14.769531 28.5625 12.5 28.5625 C 10.226562 28.5625 8.660156 27.832031 7.796875 26.375 C 6.929688 24.914062 6.5 22.289062 6.5 18.5 Z M 26.953125 -64.765625 C 23.265625 -64.765625 20.90625 -64.25 19.875 -63.21875 C 18.851562 -62.195312 18.34375 -59.847656 18.34375 -56.171875 L 18.34375 -51.625 C 18.34375 -49.019531 18.664062 -47.257812 19.3125 -46.34375 C 19.96875 -45.425781 21.429688 -44.695312 23.703125 -44.15625 C 25.972656 -43.5 27.429688 -42.628906 28.078125 -41.546875 C 28.734375 -40.472656 29.0625 -38.3125 29.0625 -35.0625 L 29.0625 -20.453125 C 29.0625 -18.503906 29.140625 -16.960938 29.296875 -15.828125 C 29.460938 -14.691406 29.867188 -13.828125 30.515625 -13.234375 C 31.160156 -12.640625 32.050781 -12.257812 33.1875 -12.09375 C 34.332031 -11.925781 35.878906 -11.84375 37.828125 -11.84375 L 45.609375 -11.84375 C 47.453125 -11.84375 48.941406 -11.953125 50.078125 -12.171875 C 51.210938 -12.390625 52.078125 -12.796875 52.671875 -13.390625 C 53.265625 -13.984375 53.671875 -14.847656 53.890625 -15.984375 C 54.109375 -17.117188 54.21875 -18.609375 54.21875 -20.453125 L 54.21875 -56.171875 C 54.21875 -59.847656 53.726562 -62.195312 52.75 -63.21875 C 51.78125 -64.25 49.457031 -64.765625 45.78125 -64.765625 Z M 26.953125 -64.765625 "/></g></g></g><g fill="#ff66c4" fill-opacity="1"><g transform="translate(444.858756, 254.692273)"><g><path d="M 6.5 -63.953125 C 6.5 -66.554688 6.660156 -68.664062 6.984375 -70.28125 C 7.304688 -71.90625 7.925781 -73.175781 8.84375 -74.09375 C 9.769531 -75.019531 11.039062 -75.644531 12.65625 -75.96875 C 14.28125 -76.289062 16.335938 -76.453125 18.828125 -76.453125 L 53.5625 -76.453125 C 56.269531 -76.453125 58.4375 -76.289062 60.0625 -75.96875 C 61.6875 -75.644531 62.929688 -75.050781 63.796875 -74.1875 C 64.660156 -73.320312 65.253906 -72.078125 65.578125 -70.453125 C 65.898438 -68.828125 66.0625 -66.660156 66.0625 -63.953125 L 66.0625 -12.828125 C 66.0625 -10.015625 65.925781 -7.769531 65.65625 -6.09375 C 65.382812 -4.414062 64.816406 -3.113281 63.953125 -2.1875 C 63.085938 -1.269531 61.816406 -0.675781 60.140625 -0.40625 C 58.460938 -0.132812 56.269531 0 53.5625 0 L 25.96875 0 C 22.9375 0 20.90625 0.484375 19.875 1.453125 C 18.851562 2.429688 18.34375 4.382812 18.34375 7.3125 L 18.34375 18.671875 C 18.34375 22.453125 17.9375 25.046875 17.125 26.453125 C 16.3125 27.859375 14.769531 28.5625 12.5 28.5625 C 10.226562 28.5625 8.660156 27.832031 7.796875 26.375 C 6.929688 24.914062 6.5 22.289062 6.5 18.5 Z M 26.953125 -64.765625 C 23.265625 -64.765625 20.90625 -64.25 19.875 -63.21875 C 18.851562 -62.195312 18.34375 -59.847656 18.34375 -56.171875 L 18.34375 -51.625 C 18.34375 -49.019531 18.664062 -47.257812 19.3125 -46.34375 C 19.96875 -45.425781 21.429688 -44.695312 23.703125 -44.15625 C 25.972656 -43.5 27.429688 -42.628906 28.078125 -41.546875 C 28.734375 -40.472656 29.0625 -38.3125 29.0625 -35.0625 L 29.0625 -20.453125 C 29.0625 -18.503906 29.140625 -16.960938 29.296875 -15.828125 C 29.460938 -14.691406 29.867188 -13.828125 30.515625 -13.234375 C 31.160156 -12.640625 32.050781 -12.257812 33.1875 -12.09375 C 34.332031 -11.925781 35.878906 -11.84375 37.828125 -11.84375 L 45.609375 -11.84375 C 47.453125 -11.84375 48.941406 -11.953125 50.078125 -12.171875 C 51.210938 -12.390625 52.078125 -12.796875 52.671875 -13.390625 C 53.265625 -13.984375 53.671875 -14.847656 53.890625 -15.984375 C 54.109375 -17.117188 54.21875 -18.609375 54.21875 -20.453125 L 54.21875 -56.171875 C 54.21875 -59.847656 53.726562 -62.195312 52.75 -63.21875 C 51.78125 -64.25 49.457031 -64.765625 45.78125 -64.765625 Z M 26.953125 -64.765625 "/></g></g></g><g fill="#ff66c4" fill-opacity="1"><g transform="translate(517.412711, 254.692273)"><g><path d="M 66.0625 -12.5 C 66.0625 -9.789062 65.898438 -7.625 65.578125 -6 C 65.253906 -4.382812 64.660156 -3.113281 63.796875 -2.1875 C 62.929688 -1.269531 61.6875 -0.675781 60.0625 -0.40625 C 58.4375 -0.132812 56.269531 0 53.5625 0 L 19 0 C 16.394531 0 14.253906 -0.132812 12.578125 -0.40625 C 10.898438 -0.675781 9.628906 -1.269531 8.765625 -2.1875 C 7.898438 -3.113281 7.304688 -4.382812 6.984375 -6 C 6.660156 -7.625 6.5 -9.789062 6.5 -12.5 L 6.5 -63.625 C 6.5 -66.445312 6.632812 -68.695312 6.90625 -70.375 C 7.175781 -72.050781 7.769531 -73.347656 8.6875 -74.265625 C 9.601562 -75.179688 10.875 -75.773438 12.5 -76.046875 C 14.125 -76.316406 16.289062 -76.453125 19 -76.453125 L 53.5625 -76.453125 C 56.269531 -76.453125 58.460938 -76.316406 60.140625 -76.046875 C 61.816406 -75.773438 63.085938 -75.179688 63.953125 -74.265625 C 64.816406 -73.347656 65.382812 -72.050781 65.65625 -70.375 C 65.925781 -68.695312 66.0625 -66.445312 66.0625 -63.625 Z M 26.953125 -64.765625 C 23.265625 -64.765625 20.90625 -64.25 19.875 -63.21875 C 18.851562 -62.195312 18.34375 -59.847656 18.34375 -56.171875 L 18.34375 -51.625 C 18.34375 -49.019531 18.664062 -47.257812 19.3125 -46.34375 C 19.96875 -45.425781 21.429688 -44.695312 23.703125 -44.15625 C 25.972656 -43.5 27.429688 -42.628906 28.078125 -41.546875 C 28.734375 -40.472656 29.0625 -38.3125 29.0625 -35.0625 L 29.0625 -20.453125 C 29.0625 -18.503906 29.140625 -16.960938 29.296875 -15.828125 C 29.460938 -14.691406 29.867188 -13.828125 30.515625 -13.234375 C 31.160156 -12.640625 32.050781 -12.257812 33.1875 -12.09375 C 34.332031 -11.925781 35.878906 -11.84375 37.828125 -11.84375 L 45.609375 -11.84375 C 47.453125 -11.84375 48.941406 -11.953125 50.078125 -12.171875 C 51.210938 -12.390625 52.078125 -12.796875 52.671875 -13.390625 C 53.265625 -13.984375 53.671875 -14.847656 53.890625 -15.984375 C 54.109375 -17.117188 54.21875 -18.609375 54.21875 -20.453125 L 54.21875 -56.171875 C 54.21875 -59.847656 53.726562 -62.195312 52.75 -63.21875 C 51.78125 -64.25 49.457031 -64.765625 45.78125 -64.765625 Z M 26.953125 -64.765625 "/></g></g></g><g fill="#ff66c4" fill-opacity="1"><g transform="translate(589.966645, 254.692273)"><g><path d="M 29.0625 -13.796875 C 29.0625 -10.984375 28.925781 -8.679688 28.65625 -6.890625 C 28.382812 -5.109375 27.84375 -3.703125 27.03125 -2.671875 C 26.21875 -1.648438 25.109375 -0.945312 23.703125 -0.5625 C 22.296875 -0.1875 20.457031 0 18.1875 0 C 14.832031 0 12.421875 -0.296875 10.953125 -0.890625 C 9.492188 -1.484375 8.332031 -2.648438 7.46875 -4.390625 C 7.03125 -5.253906 6.757812 -6.304688 6.65625 -7.546875 C 6.550781 -8.796875 6.5 -10.878906 6.5 -13.796875 L 6.5 -63.625 C 6.5 -66.445312 6.632812 -68.695312 6.90625 -70.375 C 7.175781 -72.050781 7.769531 -73.347656 8.6875 -74.265625 C 9.601562 -75.179688 10.875 -75.773438 12.5 -76.046875 C 14.125 -76.316406 16.289062 -76.453125 19 -76.453125 L 39.609375 -76.453125 C 43.398438 -76.453125 46.023438 -76.019531 47.484375 -75.15625 C 48.941406 -74.289062 49.671875 -72.773438 49.671875 -70.609375 C 49.671875 -68.234375 48.941406 -66.640625 47.484375 -65.828125 C 46.023438 -65.015625 43.398438 -64.609375 39.609375 -64.609375 L 26.953125 -64.609375 C 23.265625 -64.609375 20.90625 -64.09375 19.875 -63.0625 C 18.851562 -62.03125 18.34375 -59.675781 18.34375 -56 L 18.34375 -55.1875 C 18.34375 -52.59375 18.664062 -50.832031 19.3125 -49.90625 C 19.96875 -48.988281 21.429688 -48.257812 23.703125 -47.71875 C 25.972656 -47.070312 27.429688 -46.207031 28.078125 -45.125 C 28.734375 -44.039062 29.0625 -41.878906 29.0625 -38.640625 Z M 29.0625 -13.796875 "/></g></g></g><g fill="#ff66c4" fill-opacity="1"><g transform="translate(641.744505, 254.692273)"><g><path d="M 12.015625 -93.984375 C 12.015625 -97.773438 12.445312 -100.398438 13.3125 -101.859375 C 14.175781 -103.316406 15.742188 -104.046875 18.015625 -104.046875 C 20.285156 -104.046875 21.851562 -103.34375 22.71875 -101.9375 C 23.59375 -100.53125 24.03125 -97.9375 24.03125 -94.15625 L 24.03125 -82.625 C 24.03125 -80.03125 24.269531 -78.40625 24.75 -77.75 C 25.238281 -77.101562 26.507812 -76.726562 28.5625 -76.625 C 33.539062 -76.507812 36.03125 -74.503906 36.03125 -70.609375 C 36.03125 -66.710938 33.757812 -64.710938 29.21875 -64.609375 C 26.832031 -64.492188 25.34375 -64.113281 24.75 -63.46875 C 24.15625 -62.820312 23.859375 -61.195312 23.859375 -58.59375 L 23.859375 -55.1875 C 23.859375 -52.59375 24.179688 -50.832031 24.828125 -49.90625 C 25.484375 -48.988281 26.945312 -48.257812 29.21875 -47.71875 C 31.488281 -47.070312 32.945312 -46.207031 33.59375 -45.125 C 34.25 -44.039062 34.578125 -41.878906 34.578125 -38.640625 L 34.578125 -13.796875 C 34.578125 -10.984375 34.441406 -8.679688 34.171875 -6.890625 C 33.898438 -5.109375 33.359375 -3.703125 32.546875 -2.671875 C 31.734375 -1.648438 30.625 -0.945312 29.21875 -0.5625 C 27.8125 -0.1875 25.972656 0 23.703125 0 C 20.347656 0 17.910156 -0.296875 16.390625 -0.890625 C 14.878906 -1.484375 13.742188 -2.648438 12.984375 -4.390625 C 12.554688 -5.253906 12.285156 -6.304688 12.171875 -7.546875 C 12.066406 -8.796875 12.015625 -10.878906 12.015625 -13.796875 L 12.015625 -57.625 L 11.84375 -60.390625 C 11.84375 -61.898438 11.597656 -62.898438 11.109375 -63.390625 C 10.628906 -63.878906 9.6875 -64.226562 8.28125 -64.4375 L 6.171875 -64.609375 C 2.054688 -64.929688 0 -66.878906 0 -70.453125 C 0 -74.453125 2.269531 -76.453125 6.8125 -76.453125 C 8.007812 -76.453125 8.957031 -76.53125 9.65625 -76.6875 C 10.363281 -76.851562 10.878906 -77.234375 11.203125 -77.828125 C 11.523438 -78.429688 11.738281 -79.300781 11.84375 -80.4375 C 11.957031 -81.570312 12.015625 -83.113281 12.015625 -85.0625 Z M 12.015625 -93.984375 "/></g></g></g><g clip-path="url(#e81fa2e49f)"><path fill="#ff66c4" d="M 299.738281 67.597656 L 319.132812 67.597656 L 319.132812 86.988281 L 299.738281 86.988281 Z M 299.738281 67.597656 " fill-opacity="1" fill-rule="nonzero"/></g><g clip-path="url(#64aefc7fff)"><path fill="#ff66c4" d="M 338.417969 67.597656 L 357.8125 67.597656 L 357.8125 86.988281 L 338.417969 86.988281 Z M 338.417969 67.597656 " fill-opacity="1" fill-rule="nonzero"/></g><g clip-path="url(#94995b5f26)"><path fill="#ff66c4" d="M 377.097656 67.597656 L 396.488281 67.597656 L 396.488281 86.988281 L 377.097656 86.988281 Z M 377.097656 67.597656 " fill-opacity="1" fill-rule="nonzero"/></g><g clip-path="url(#d4982a9786)"><path fill="#ff66c4" d="M 415.777344 67.597656 L 435.171875 67.597656 L 435.171875 86.988281 L 415.777344 86.988281 Z M 415.777344 67.597656 " fill-opacity="1" fill-rule="nonzero"/></g><g clip-path="url(#3204bea04a)"><path fill="#ff66c4" d="M 454.457031 67.597656 L 473.847656 67.597656 L 473.847656 86.988281 L 454.457031 86.988281 Z M 454.457031 67.597656 " fill-opacity="1" fill-rule="nonzero"/></g><g clip-path="url(#ba3fa6613d)"><path fill="#ff66c4" d="M 493.136719 67.597656 L 512.527344 67.597656 L 512.527344 86.988281 L 493.136719 86.988281 Z M 493.136719 67.597656 " fill-opacity="1" fill-rule="nonzero"/></g><g clip-path="url(#0409763653)"><path fill="#ff66c4" d="M 531.816406 67.597656 L 551.207031 67.597656 L 551.207031 86.988281 L 531.816406 86.988281 Z M 531.816406 67.597656 " fill-opacity="1" fill-rule="nonzero"/></g><g clip-path="url(#530f7c3f9b)"><path fill="#ff66c4" d="M 319.023438 86.988281 L 338.417969 86.988281 L 338.417969 106.382812 L 319.023438 106.382812 Z M 319.023438 86.988281 " fill-opacity="1" fill-rule="nonzero"/></g><g clip-path="url(#ce8d3eb364)"><path fill="#ff66c4" d="M 357.703125 86.988281 L 377.097656 86.988281 L 377.097656 106.382812 L 357.703125 106.382812 Z M 357.703125 86.988281 " fill-opacity="1" fill-rule="nonzero"/></g><g clip-path="url(#c116bcb321)"><path fill="#ff66c4" d="M 396.382812 86.988281 L 415.777344 86.988281 L 415.777344 106.382812 L 396.382812 106.382812 Z M 396.382812 86.988281 " fill-opacity="1" fill-rule="nonzero"/></g><g clip-path="url(#8360807d08)"><path fill="#ff66c4" d="M 435.0625 86.988281 L 454.457031 86.988281 L 454.457031 106.382812 L 435.0625 106.382812 Z M 435.0625 86.988281 " fill-opacity="1" fill-rule="nonzero"/></g><g clip-path="url(#d8d07ffb36)"><path fill="#ff66c4" d="M 473.742188 86.988281 L 493.136719 86.988281 L 493.136719 106.382812 L 473.742188 106.382812 Z M 473.742188 86.988281 " fill-opacity="1" fill-rule="nonzero"/></g><g clip-path="url(#b34b08fc33)"><path fill="#ff66c4" d="M 512.421875 86.988281 L 531.816406 86.988281 L 531.816406 106.382812 L 512.421875 106.382812 Z M 512.421875 86.988281 " fill-opacity="1" fill-rule="nonzero"/></g><g clip-path="url(#40d65d0450)"><path fill="#ff66c4" d="M 551.101562 86.988281 L 570.496094 86.988281 L 570.496094 106.382812 L 551.101562 106.382812 Z M 551.101562 86.988281 " fill-opacity="1" fill-rule="nonzero"/></g><g clip-path="url(#cff36281c7)"><path fill="#000000" d="M 570.5 67.597656 L 551.105469 67.597656 L 551.105469 86.988281 L 570.5 86.988281 Z M 570.5 67.597656 " fill-opacity="1" fill-rule="nonzero"/></g><g clip-path="url(#739f39d1a3)"><path fill="#000000" d="M 531.820312 67.597656 L 512.425781 67.597656 L 512.425781 86.988281 L 531.820312 86.988281 Z M 531.820312 67.597656 " fill-opacity="1" fill-rule="nonzero"/></g><g clip-path="url(#8a18a2e14a)"><path fill="#000000" d="M 493.140625 67.597656 L 473.746094 67.597656 L 473.746094 86.988281 L 493.140625 86.988281 Z M 493.140625 67.597656 " fill-opacity="1" fill-rule="nonzero"/></g><g clip-path="url(#a3e475b17f)"><path fill="#000000" d="M 454.460938 67.597656 L 435.066406 67.597656 L 435.066406 86.988281 L 454.460938 86.988281 Z M 454.460938 67.597656 " fill-opacity="1" fill-rule="nonzero"/></g><g clip-path="url(#e1b16c11ef)"><path fill="#000000" d="M 415.78125 67.597656 L 396.386719 67.597656 L 396.386719 86.988281 L 415.78125 86.988281 Z M 415.78125 67.597656 " fill-opacity="1" fill-rule="nonzero"/></g><g clip-path="url(#d9e95139d8)"><path fill="#000000" d="M 377.101562 67.597656 L 357.707031 67.597656 L 357.707031 86.988281 L 377.101562 86.988281 Z M 377.101562 67.597656 " fill-opacity="1" fill-rule="nonzero"/></g><g clip-path="url(#eb818d1edf)"><path fill="#000000" d="M 338.421875 67.597656 L 319.03125 67.597656 L 319.03125 86.988281 L 338.421875 86.988281 Z M 338.421875 67.597656 " fill-opacity="1" fill-rule="nonzero"/></g><g clip-path="url(#87436c126d)"><path fill="#000000" d="M 551.210938 86.988281 L 531.820312 86.988281 L 531.820312 106.382812 L 551.210938 106.382812 Z M 551.210938 86.988281 " fill-opacity="1" fill-rule="nonzero"/></g><g clip-path="url(#7305177f55)"><path fill="#000000" d="M 512.535156 86.988281 L 493.140625 86.988281 L 493.140625 106.382812 L 512.535156 106.382812 Z M 512.535156 86.988281 " fill-opacity="1" fill-rule="nonzero"/></g><g clip-path="url(#8bb5427ebc)"><path fill="#000000" d="M 473.855469 86.988281 L 454.460938 86.988281 L 454.460938 106.382812 L 473.855469 106.382812 Z M 473.855469 86.988281 " fill-opacity="1" fill-rule="nonzero"/></g><g clip-path="url(#1819fb7287)"><path fill="#000000" d="M 435.175781 86.988281 L 415.78125 86.988281 L 415.78125 106.382812 L 435.175781 106.382812 Z M 435.175781 86.988281 " fill-opacity="1" fill-rule="nonzero"/></g><g clip-path="url(#edbeb3d06c)"><path fill="#000000" d="M 396.496094 86.988281 L 377.101562 86.988281 L 377.101562 106.382812 L 396.496094 106.382812 Z M 396.496094 86.988281 " fill-opacity="1" fill-rule="nonzero"/></g><g clip-path="url(#da07dd0b24)"><path fill="#000000" d="M 357.816406 86.988281 L 338.421875 86.988281 L 338.421875 106.382812 L 357.816406 106.382812 Z M 357.816406 86.988281 " fill-opacity="1" fill-rule="nonzero"/></g><g clip-path="url(#e0044dd36c)"><path fill="#000000" d="M 319.136719 86.988281 L 299.742188 86.988281 L 299.742188 106.382812 L 319.136719 106.382812 Z M 319.136719 86.988281 " fill-opacity="1" fill-rule="nonzero"/></g></svg>