<?xml version="1.0" encoding="iso-8859-1"?>
<!-- Generator: Adobe Illustrator 24.1.2, SVG Export Plug-In . SVG Version: 6.00 Build 0)  -->
<svg version="1.1" baseProfile="basic" id="&#x421;&#x43B;&#x43E;&#x439;_1"
	 xmlns="http://www.w3.org/2000/svg" xmlns:xlink="http://www.w3.org/1999/xlink" x="0px" y="0px" viewBox="0 0 64 64"
	 xml:space="preserve">
<path marker-end="none" marker-start="none" style="fill:#FFA500;" d="M33.721,25.702l2.583,2.581c0.944,0.944,0.944,2.477,0,3.421
	l-2.587,2.587c-0.944,0.944-2.477,0.944-3.421,0l-2.583-2.583c-0.944-0.944-0.944-2.477,0-3.421l2.587-2.585
	C31.243,24.758,32.777,24.758,33.721,25.702z"/>
<path marker-end="none" marker-start="none" style="fill:#FFA500;" d="M11.725,25.701l2.583,2.581c0.944,0.944,0.944,2.477,0,3.421
	l-2.587,2.587c-0.944,0.944-2.477,0.944-3.421,0l-2.583-2.583c-0.944-0.944-0.944-2.477,0-3.421l2.587-2.585
	C9.247,24.757,10.781,24.757,11.725,25.701z"/>
<path marker-end="none" marker-start="none" style="fill:#FFA500;" d="M55.718,25.701l2.583,2.581c0.944,0.944,0.944,2.477,0,3.421
	l-2.587,2.587c-0.944,0.944-2.477,0.944-3.421,0l-2.583-2.583c-0.944-0.944-0.944-2.477,0-3.421l2.587-2.585
	C53.241,24.757,54.774,24.757,55.718,25.701z"/>
<path marker-end="none" marker-start="none" style="fill:#FFA500;" d="M19.298,23.295l-2.581-2.583
	c-0.944-0.943-0.944-2.479,0-3.421l13.58-13.584c0.944-0.945,2.477-0.945,3.421-0.001l13.583,13.576
	c0.943,0.944,0.944,2.477,0,3.421l-2.587,2.588c-0.944,0.943-2.477,0.943-3.421-0.001l-9.284-9.292l-9.288,9.297
	C21.777,24.239,20.243,24.241,19.298,23.295z"/>
<path marker-end="none" marker-start="none" style="fill:#FFA500;" d="M19.297,36.701l-2.583,2.583
	c-0.944,0.944-0.944,2.477,0,3.421l13.58,13.585c0.944,0.944,2.477,0.944,3.421,0l13.583-13.576c0.944-0.944,0.944-2.477,0-3.421
	l-2.587-2.587c-0.944-0.944-2.477-0.944-3.421,0l-9.284,9.292l-9.288-9.297C21.774,35.757,20.241,35.757,19.297,36.701z"/>
<path marker-end="none" marker-start="none" style="fill:#FFFFFF;fill-opacity:0.298;" d="M16.715,17.293L30.297,3.707
	c0.944-0.945,2.477-0.945,3.421-0.001l13.583,13.577c-1.957,1.472-4.753,1.317-6.535-0.464l-8.76-8.752l-8.753,8.759
	C21.47,18.61,18.674,18.765,16.715,17.293z"/>
<path marker-end="none" marker-start="none" style="fill-rule:evenodd;clip-rule:evenodd;fill:#FFFFFF;" d="M23.43,14.577
	c-0.585-0.585-0.585-1.536,0-2.121l3.024-3.024c0.585-0.585,1.536-0.585,2.121,0c0.585,0.585,0.585,1.536,0,2.121l-3.024,3.024
	C24.966,15.162,24.015,15.162,23.43,14.577z"/>
<path marker-end="none" marker-start="none" style="fill-opacity:0.149;" d="M16.715,42.706l13.581,13.585
	c0.944,0.945,2.477,0.945,3.421,0.001l13.583-13.577c-1.957-1.472-4.753-1.317-6.535,0.464l-8.76,8.752l-8.753-8.759
	C21.47,41.389,18.674,41.234,16.715,42.706z"/>
<path marker-end="none" marker-start="none" style="fill-opacity:0.298;" d="M58.009,61c0-1.656-11.648-3-26-3s-26,1.344-26,3
	c0,1.656,11.648,3,26,3S58.009,62.656,58.009,61z"/>
</svg>