<svg xmlns="http://www.w3.org/2000/svg" xmlns:xlink="http://www.w3.org/1999/xlink" width="500" zoomAndPan="magnify" viewBox="0 0 375 374.999991" height="500" preserveAspectRatio="xMidYMid meet" version="1.0"><defs><g/><clipPath id="c69ad62a8c"><path d="M 273.664062 164.65625 L 300.257812 164.65625 L 300.257812 191.25 L 273.664062 191.25 Z M 273.664062 164.65625 " clip-rule="nonzero"/></clipPath><clipPath id="98fb094086"><path d="M 286.960938 164.65625 C 279.617188 164.65625 273.664062 170.609375 273.664062 177.953125 C 273.664062 185.296875 279.617188 191.25 286.960938 191.25 C 294.304688 191.25 300.257812 185.296875 300.257812 177.953125 C 300.257812 170.609375 294.304688 164.65625 286.960938 164.65625 Z M 286.960938 164.65625 " clip-rule="nonzero"/></clipPath><clipPath id="fac903a8cc"><path d="M 24.640625 90.773438 L 336.640625 90.773438 L 336.640625 284.273438 L 24.640625 284.273438 Z M 24.640625 90.773438 " clip-rule="nonzero"/></clipPath><clipPath id="148c7457fa"><path d="M 145.816406 117.4375 L 169.816406 117.4375 L 169.816406 141.4375 L 145.816406 141.4375 Z M 145.816406 117.4375 " clip-rule="nonzero"/></clipPath><clipPath id="754f2f2b97"><path d="M 96.539062 245.277344 L 120.539062 245.277344 L 120.539062 269.277344 L 96.539062 269.277344 Z M 96.539062 245.277344 " clip-rule="nonzero"/></clipPath><clipPath id="e8857fd33c"><path d="M 311.859375 191.25 L 335.859375 191.25 L 335.859375 215.25 L 311.859375 215.25 Z M 311.859375 191.25 " clip-rule="nonzero"/></clipPath></defs><g clip-path="url(#c69ad62a8c)"><g clip-path="url(#98fb094086)"><path fill="#00ff9c" d="M 273.664062 164.65625 L 300.257812 164.65625 L 300.257812 191.25 L 273.664062 191.25 Z M 273.664062 164.65625 " fill-opacity="1" fill-rule="nonzero"/></g></g><g clip-path="url(#fac903a8cc)"><path fill="#00ff9c" d="M 130.195312 90.78125 L 145.398438 147.9375 L 336.609375 140.824219 L 156.402344 207.417969 L 182.875 284.148438 L 110.027344 230.011719 L 34.808594 272.285156 L 73.894531 198.519531 L 24.613281 157.429688 L 92.453125 151.5 Z M 130.195312 90.78125 " fill-opacity="1" fill-rule="nonzero"/></g><path stroke-linecap="butt" transform="matrix(1.255785, 0, 0, 1.255785, 0.0000045, 142.061928)" fill="none" stroke-linejoin="miter" d="M 65.254264 42.575303 C 72.648172 42.575303 77.687351 38.155134 81.718695 30.045787 C 82.197728 29.131269 80.325144 27.691059 79.563046 28.851315 C 77.920647 31.24337 74.418106 31.968141 71.441257 31.968141 C 65.114287 31.968141 62.04412 28.418941 62.04412 24.0952 C 62.04412 19.348417 65.347582 14.729169 69.717982 14.729169 C 72.402434 14.729169 73.562689 16.698182 71.064874 21.457407 C 70.539182 22.511902 71.30128 23.42642 72.648172 23.42642 C 76.200482 23.42642 81.239662 19.301758 81.239662 13.674674 C 81.239662 9.550012 78.216154 6.818901 72.122479 6.818901 C 62.230756 6.818901 53.346869 17.133667 53.346869 28.804656 C 53.346869 38.400872 58.432708 42.575303 65.254264 42.575303 Z M 87.476425 41.999841 C 93.044407 41.999841 98.130246 37.875179 102.360669 30.045787 C 102.886361 29.131269 100.964007 27.691059 100.192577 28.851315 C 98.036928 32.154777 94.145561 33.843836 90.888758 33.843836 C 88.145205 33.843836 85.896237 32.975977 85.896237 31.299361 C 85.896237 30.667908 86.375271 30.527931 86.714327 30.714567 C 87.815481 31.34913 89.106382 31.489108 90.453274 31.489108 C 95.153397 31.489108 98.176905 27.551082 98.176905 24.04543 C 98.176905 20.881945 96.220335 18.001525 91.753506 18.001525 C 77.973527 18.001525 73.988842 41.999841 87.476425 41.999841 Z M 89.212142 27.890138 C 87.663061 27.890138 86.950733 26.97562 86.950733 25.921125 C 86.950733 24.620892 88.098546 23.227341 89.97424 23.227341 C 91.461109 23.227341 92.176549 24.141859 92.176549 25.196354 C 92.176549 26.403269 91.075394 27.890138 89.212142 27.890138 Z M 119.154824 28.851315 C 118.196758 30.291525 117.28224 31.299361 115.851362 31.299361 C 113.68327 31.299361 112.874513 30.291525 112.874513 28.944633 C 112.874513 25.967784 114.936844 23.952112 114.936844 21.211669 C 114.936844 18.620536 110.320706 15.550369 105.807219 15.550369 C 103.219196 15.550369 101.54258 17.905097 101.54258 19.874109 C 101.54258 21.597384 102.164701 22.219505 103.125877 22.558561 C 102.304678 24.773312 101.110206 27.551082 100.195688 28.851315 C 99.573567 29.765833 101.729216 31.299361 102.363779 30.045787 C 103.125877 28.4656 104.706065 25.196354 105.573923 23.286443 C 107.496277 23.998771 108.118398 25.196354 108.118398 25.675387 C 108.118398 27.983456 104.752724 32.496944 104.752724 36.960662 C 104.752724 39.408708 106.102726 41.999841 110.037641 41.999841 C 116.520142 41.999841 119.776945 32.68358 121.313584 30.045787 C 121.851718 29.131269 119.929365 27.691059 119.154824 28.851315 Z M 122.906213 41.999841 C 129.817977 41.999841 133.510265 32.789341 134.953586 30.045787 C 135.432619 29.131269 133.556924 27.737718 132.785494 28.851315 C 131.833649 30.341295 130.287679 31.24337 128.377767 31.24337 C 125.540896 31.24337 124.054027 29.131269 125.061863 25.781148 C 125.97638 22.558561 126.256335 22.465243 130.723163 22.465243 C 132.642406 22.465243 133.217868 18.048184 131.930078 18.048184 L 129.432262 18.048184 C 128.517744 18.048184 128.657722 17.226985 129.385603 15.690346 C 130.875583 12.666838 130.24102 11.179969 128.471085 11.179969 C 127.264171 11.179969 126.209676 11.612343 125.061863 14.402556 C 124.393083 16.125831 122.859554 18.048184 120.069342 18.048184 C 118.968188 18.048184 119.014847 21.737362 121.792617 21.737362 C 120.598145 25.053266 119.540539 27.890138 118.72245 30.291525 C 116.566801 36.434969 117.524867 41.999841 122.906213 41.999841 Z M 141.330326 16.032512 C 143.825031 16.032512 145.794044 15.071336 146.089551 12.094487 C 146.322846 9.117638 144.353834 8.20312 141.905788 8.20312 C 139.267995 8.20312 137.112346 9.210956 137.112346 12.620179 C 137.112346 15.164654 139.034699 16.032512 141.330326 16.032512 Z M 136.011191 41.999841 C 142.198184 41.999841 145.268351 32.590262 146.80188 29.999128 C 147.284023 29.131269 145.408329 27.691059 144.64623 28.851315 C 143.685054 30.291525 142.770536 31.24337 141.330326 31.24337 C 140.042535 31.24337 139.174677 30.434613 139.174677 28.851315 C 139.174677 26.260181 141.330326 23.087364 141.330326 20.157174 C 141.330326 18.620536 140.708205 18.001525 139.700369 18.001525 C 136.972368 18.001525 135.003356 21.889781 132.788605 28.851315 C 132.073166 31.146941 131.591022 33.738075 131.591022 35.999485 C 131.591022 39.362048 132.788605 41.999841 136.011191 41.999841 Z M 160.345453 5.285373 C 155.060535 5.285373 151.169169 10.417871 148.099002 18.048184 L 144.888858 18.048184 C 143.728602 18.048184 141.619612 21.690703 146.08333 21.690703 L 146.764552 21.690703 C 145.990012 23.952112 145.274573 26.35661 144.596461 28.851315 C 142.297724 37.72276 141.526294 41.999841 145.990012 41.999841 C 150.690136 41.999841 150.360411 36.574947 150.889214 31.874823 C 151.169169 29.333459 151.651312 25.582069 152.422742 22.029758 C 155.153853 22.219505 157.508581 22.465243 157.368604 22.465243 C 159.290958 22.465243 159.86642 18.048184 158.563076 18.048184 L 153.523897 18.048184 C 154.578392 14.788271 156.068371 12.386884 158.130702 12.386884 C 159.290958 12.386884 159.913079 13.102323 159.913079 14.68251 C 159.913079 15.071336 160.193033 15.410391 160.920915 15.410391 C 164.656751 15.410391 167.975766 5.285373 160.345453 5.285373 Z M 165.571269 16.032512 C 168.065974 16.032512 170.034987 15.071336 170.327384 12.094487 C 170.56379 9.117638 168.594777 8.20312 166.14362 8.20312 C 163.508938 8.20312 161.350178 9.210956 161.350178 12.620179 C 161.350178 15.164654 163.272532 16.032512 165.571269 16.032512 Z M 160.249024 41.999841 C 166.436017 41.999841 169.509295 32.590262 171.042823 29.999128 C 171.524967 29.131269 169.649272 27.691059 168.887174 28.851315 C 167.925997 30.291525 167.011479 31.24337 165.571269 31.24337 C 164.280368 31.24337 163.41562 30.434613 163.41562 28.851315 C 163.41562 26.260181 165.571269 23.087364 165.571269 20.157174 C 165.571269 18.620536 164.949148 18.001525 163.941312 18.001525 C 161.210201 18.001525 159.241188 21.889781 157.026438 28.851315 C 156.314109 31.146941 155.831965 33.738075 155.831965 35.999485 C 155.831965 39.362048 157.026438 41.999841 160.249024 41.999841 Z M 176.181542 41.999841 C 181.796184 41.999841 186.928682 37.875179 191.159104 30.045787 C 191.687907 29.131269 189.765553 27.691059 189.003455 28.851315 C 184.493078 35.377364 175.033729 34.991649 175.033729 28.558918 C 175.033729 26.157531 176.277971 23.905453 178.43362 23.905453 C 179.87383 23.905453 180.402633 24.71421 180.402633 25.582069 C 180.402633 27.317787 179.301479 27.504423 179.301479 28.325623 C 179.301479 28.944633 180.119568 29.660072 181.796184 29.660072 C 183.858515 29.660072 186.695386 28.030115 186.695386 23.905453 C 186.695386 20.788627 184.679714 18.001525 180.072909 18.001525 C 172.492365 18.001525 167.873116 25.921125 167.873116 32.636921 C 167.873116 37.629442 170.417591 41.999841 176.181542 41.999841 Z M 192.978808 41.999841 C 196.391141 41.999841 199.271561 38.883015 201.193915 34.991649 L 201.383662 34.991649 C 200.8082 38.976333 202.201751 41.999841 205.508324 41.999841 C 210.839901 41.999841 213.474583 34.512616 215.832421 30.045787 C 216.311454 29.131269 214.389101 27.691059 213.673662 28.851315 C 212.715595 30.387954 211.508681 31.299361 209.878724 31.299361 C 207.769734 31.299361 207.240931 29.380118 208.870888 25.874466 C 209.925383 23.087364 211.178957 21.597384 211.178957 19.780791 C 211.178957 18.713854 210.746582 18.001525 209.493009 18.001525 C 207.240931 18.001525 206.901875 19.82745 205.318577 19.82745 C 204.065003 19.82745 204.264082 18.001525 200.422485 18.001525 C 192.170051 18.001525 188.036057 28.076774 188.036057 34.758353 C 188.036057 39.022993 189.722005 41.999841 192.978808 41.999841 Z M 197.784692 32.061459 C 196.294713 32.061459 195.383305 31.100282 195.383305 29.473436 C 195.383305 27.364446 196.963493 25.006607 199.461308 25.006607 C 200.994836 25.006607 201.956013 25.967784 201.956013 27.551082 C 201.956013 29.566754 200.279397 32.061459 197.784692 32.061459 Z M 217.41883 41.999841 C 224.330594 41.999841 228.022882 32.789341 229.463092 30.045787 C 229.945235 29.131269 228.069541 27.737718 227.295 28.851315 C 226.346266 30.341295 224.800295 31.24337 222.890384 31.24337 C 220.053512 31.24337 218.566643 29.131269 219.574479 25.781148 C 220.488997 22.558561 220.768951 22.465243 225.232669 22.465243 C 227.155023 22.465243 227.730485 18.048184 226.439584 18.048184 L 223.944879 18.048184 C 223.030361 18.048184 223.170338 17.226985 223.89822 15.690346 C 225.385089 12.666838 224.753636 11.179969 222.983702 11.179969 C 221.776787 11.179969 220.722292 11.612343 219.574479 14.402556 C 218.905699 16.125831 217.372171 18.048184 214.581958 18.048184 C 213.480804 18.048184 213.527463 21.737362 216.305233 21.737362 C 215.10765 25.053266 214.053155 27.890138 213.235066 30.291525 C 211.076307 36.434969 212.037483 41.999841 217.41883 41.999841 Z M 235.220821 41.999841 C 240.788804 41.999841 245.874643 37.875179 250.105065 30.045787 C 250.630757 29.131269 248.708404 27.691059 247.936974 28.851315 C 245.781324 32.154777 241.889958 33.843836 238.630044 33.843836 C 235.889601 33.843836 233.640634 32.975977 233.640634 31.299361 C 233.640634 30.667908 234.119667 30.527931 234.458723 30.714567 C 235.559877 31.34913 236.850778 31.489108 238.19767 31.489108 C 242.897794 31.489108 245.921302 27.551082 245.921302 24.04543 C 245.921302 20.881945 243.964731 18.001525 239.497903 18.001525 C 225.717923 18.001525 221.733239 41.999841 235.220821 41.999841 Z M 236.956539 27.890138 C 235.407457 27.890138 234.695129 26.97562 234.695129 25.921125 C 234.695129 24.620892 235.842942 23.227341 237.718637 23.227341 C 239.205506 23.227341 239.920945 24.141859 239.920945 25.196354 C 239.920945 26.403269 238.819791 27.890138 236.956539 27.890138 Z M 236.956539 27.890138 " stroke="#000000" stroke-width="12.12" stroke-opacity="1" stroke-miterlimit="4"/><g fill="#ffffff" fill-opacity="1"><g transform="translate(65.006486, 194.804887)"><g><path d="M 16.9375 0.71875 C 26.21875 0.71875 32.546875 -4.828125 37.609375 -15.015625 C 38.21875 -16.15625 35.875 -17.96875 34.90625 -16.515625 C 32.859375 -13.5 28.453125 -12.59375 24.71875 -12.59375 C 16.765625 -12.59375 12.90625 -17.0625 12.90625 -22.484375 C 12.90625 -28.453125 17.0625 -34.234375 22.546875 -34.234375 C 25.921875 -34.234375 27.375 -31.765625 24.234375 -25.796875 C 23.5625 -24.46875 24.53125 -23.328125 26.21875 -23.328125 C 30.6875 -23.328125 37.015625 -28.515625 37.015625 -35.5625 C 37.015625 -40.75 33.21875 -44.1875 25.5625 -44.1875 C 13.140625 -44.1875 1.984375 -31.21875 1.984375 -16.578125 C 1.984375 -4.515625 8.375 0.71875 16.9375 0.71875 Z M 16.9375 0.71875 "/></g></g></g><g fill="#ffffff" fill-opacity="1"><g transform="translate(98.52093, 194.804887)"><g><path d="M 11.328125 0 C 18.328125 0 24.71875 -5.1875 30.015625 -15.015625 C 30.6875 -16.15625 28.265625 -17.96875 27.3125 -16.515625 C 24.59375 -12.359375 19.71875 -10.25 15.609375 -10.25 C 12.171875 -10.25 9.34375 -11.328125 9.34375 -13.4375 C 9.34375 -14.21875 9.953125 -14.40625 10.375 -14.171875 C 11.75 -13.375 13.375 -13.203125 15.078125 -13.203125 C 20.984375 -13.203125 24.78125 -18.140625 24.78125 -22.546875 C 24.78125 -26.53125 22.296875 -30.140625 16.703125 -30.140625 C -0.609375 -30.140625 -5.609375 0 11.328125 0 Z M 13.5 -17.71875 C 11.578125 -17.71875 10.671875 -18.875 10.671875 -20.1875 C 10.671875 -21.828125 12.109375 -23.5625 14.46875 -23.5625 C 16.34375 -23.5625 17.234375 -22.421875 17.234375 -21.09375 C 17.234375 -19.59375 15.859375 -17.71875 13.5 -17.71875 Z M 13.5 -17.71875 "/></g></g></g><g fill="#ffffff" fill-opacity="1"><g transform="translate(124.440383, 194.804887)"><g><path d="M 25.203125 -16.515625 C 23.984375 -14.703125 22.84375 -13.4375 21.03125 -13.4375 C 18.328125 -13.4375 17.296875 -14.703125 17.296875 -16.390625 C 17.296875 -20.140625 19.890625 -22.671875 19.890625 -26.109375 C 19.890625 -29.359375 14.109375 -33.21875 8.4375 -33.21875 C 5.1875 -33.21875 3.078125 -30.265625 3.078125 -27.796875 C 3.078125 -25.625 3.859375 -24.828125 5.0625 -24.40625 C 4.03125 -21.640625 2.53125 -18.140625 1.390625 -16.515625 C 0.609375 -15.375 3.3125 -13.4375 4.09375 -15.015625 C 5.0625 -17 7.046875 -21.09375 8.140625 -23.515625 C 10.546875 -22.609375 11.328125 -21.09375 11.328125 -20.5 C 11.328125 -17.609375 7.109375 -11.9375 7.109375 -6.328125 C 7.109375 -3.25 8.796875 0 13.75 0 C 21.875 0 25.984375 -11.6875 27.90625 -15.015625 C 28.578125 -16.15625 26.15625 -17.96875 25.203125 -16.515625 Z M 25.203125 -16.515625 "/></g></g></g><g fill="#ffffff" fill-opacity="1"><g transform="translate(148.250108, 194.804887)"><g><path d="M 6.09375 0 C 14.765625 0 19.40625 -11.578125 21.21875 -15.015625 C 21.828125 -16.15625 19.46875 -17.90625 18.5 -16.515625 C 17.296875 -14.640625 15.375 -13.5 12.953125 -13.5 C 9.40625 -13.5 7.53125 -16.15625 8.796875 -20.375 C 9.953125 -24.40625 10.3125 -24.53125 15.921875 -24.53125 C 18.328125 -24.53125 19.046875 -30.078125 17.421875 -30.078125 L 14.28125 -30.078125 C 13.140625 -30.078125 13.328125 -31.109375 14.21875 -33.03125 C 16.09375 -36.828125 15.3125 -38.703125 13.078125 -38.703125 C 11.578125 -38.703125 10.25 -38.15625 8.796875 -34.65625 C 7.953125 -32.484375 6.03125 -30.078125 2.53125 -30.078125 C 1.140625 -30.078125 1.203125 -25.4375 4.703125 -25.4375 C 3.1875 -21.28125 1.875 -17.71875 0.84375 -14.703125 C -1.875 -7 -0.65625 0 6.09375 0 Z M 6.09375 0 "/></g></g></g><g fill="#ffffff" fill-opacity="1"><g transform="translate(165.369009, 194.804887)"><g><path d="M 12.109375 -32.609375 C 15.25 -32.609375 17.71875 -33.8125 18.078125 -37.5625 C 18.390625 -41.296875 15.921875 -42.4375 12.84375 -42.4375 C 9.53125 -42.4375 6.8125 -41.171875 6.8125 -36.890625 C 6.8125 -33.703125 9.21875 -32.609375 12.109375 -32.609375 Z M 5.421875 0 C 13.203125 0 17.0625 -11.8125 18.984375 -15.078125 C 19.59375 -16.15625 17.234375 -17.96875 16.28125 -16.515625 C 15.078125 -14.703125 13.921875 -13.5 12.109375 -13.5 C 10.484375 -13.5 9.40625 -14.53125 9.40625 -16.515625 C 9.40625 -19.765625 12.109375 -23.75 12.109375 -27.421875 C 12.109375 -29.359375 11.328125 -30.140625 10.0625 -30.140625 C 6.625 -30.140625 4.15625 -25.265625 1.390625 -16.515625 C 0.484375 -13.625 -0.125 -10.375 -0.125 -7.53125 C -0.125 -3.3125 1.390625 0 5.421875 0 Z M 5.421875 0 "/></g></g></g><g fill="#ffffff" fill-opacity="1"><g transform="translate(180.197351, 194.804887)"><g><path d="M 21.15625 -46.109375 C 14.53125 -46.109375 9.640625 -39.671875 5.78125 -30.078125 L 1.75 -30.078125 C 0.296875 -30.078125 -2.34375 -25.5 3.25 -25.5 L 4.09375 -25.5 C 3.140625 -22.671875 2.234375 -19.65625 1.390625 -16.515625 C -1.5 -5.359375 -2.46875 0 3.140625 0 C 9.046875 0 8.625 -6.8125 9.28125 -12.71875 C 9.640625 -15.921875 10.25 -20.609375 11.21875 -25.078125 C 14.640625 -24.828125 17.609375 -24.53125 17.421875 -24.53125 C 19.828125 -24.53125 20.5625 -30.078125 18.921875 -30.078125 L 12.59375 -30.078125 C 13.921875 -34.171875 15.796875 -37.1875 18.390625 -37.1875 C 19.828125 -37.1875 20.609375 -36.296875 20.609375 -34.296875 C 20.609375 -33.8125 20.984375 -33.390625 21.875 -33.390625 C 26.578125 -33.390625 30.75 -46.109375 21.15625 -46.109375 Z M 21.15625 -46.109375 "/></g></g></g><g fill="#ffffff" fill-opacity="1"><g transform="translate(195.809295, 194.804887)"><g><path d="M 12.109375 -32.609375 C 15.25 -32.609375 17.71875 -33.8125 18.078125 -37.5625 C 18.390625 -41.296875 15.921875 -42.4375 12.84375 -42.4375 C 9.53125 -42.4375 6.8125 -41.171875 6.8125 -36.890625 C 6.8125 -33.703125 9.21875 -32.609375 12.109375 -32.609375 Z M 5.421875 0 C 13.203125 0 17.0625 -11.8125 18.984375 -15.078125 C 19.59375 -16.15625 17.234375 -17.96875 16.28125 -16.515625 C 15.078125 -14.703125 13.921875 -13.5 12.109375 -13.5 C 10.484375 -13.5 9.40625 -14.53125 9.40625 -16.515625 C 9.40625 -19.765625 12.109375 -23.75 12.109375 -27.421875 C 12.109375 -29.359375 11.328125 -30.140625 10.0625 -30.140625 C 6.625 -30.140625 4.15625 -25.265625 1.390625 -16.515625 C 0.484375 -13.625 -0.125 -10.375 -0.125 -7.53125 C -0.125 -3.3125 1.390625 0 5.421875 0 Z M 5.421875 0 "/></g></g></g><g fill="#ffffff" fill-opacity="1"><g transform="translate(210.637637, 194.804887)"><g><path d="M 10.609375 0 C 17.65625 0 24.109375 -5.1875 29.421875 -15.015625 C 30.078125 -16.15625 27.671875 -17.96875 26.703125 -16.515625 C 21.03125 -8.3125 9.15625 -8.796875 9.15625 -16.875 C 9.15625 -19.890625 10.734375 -22.71875 13.4375 -22.71875 C 15.25 -22.71875 15.921875 -21.703125 15.921875 -20.609375 C 15.921875 -18.453125 14.53125 -18.203125 14.53125 -17.1875 C 14.53125 -16.390625 15.546875 -15.5 17.65625 -15.5 C 20.25 -15.5 23.8125 -17.546875 23.8125 -22.71875 C 23.8125 -26.640625 21.28125 -30.140625 15.5 -30.140625 C 5.96875 -30.140625 0.1875 -20.1875 0.1875 -11.75 C 0.1875 -5.484375 3.375 0 10.609375 0 Z M 10.609375 0 "/></g></g></g><g fill="#ffffff" fill-opacity="1"><g transform="translate(235.9543, 194.804887)"><g><path d="M 6.390625 0 C 10.671875 0 14.28125 -3.921875 16.703125 -8.796875 L 16.9375 -8.796875 C 16.21875 -3.796875 17.96875 0 22.125 0 C 28.8125 0 32.125 -9.40625 35.078125 -15.015625 C 35.6875 -16.15625 33.28125 -17.96875 32.375 -16.515625 C 31.171875 -14.59375 29.65625 -13.4375 27.609375 -13.4375 C 24.953125 -13.4375 24.296875 -15.859375 26.34375 -20.25 C 27.671875 -23.75 29.234375 -25.625 29.234375 -27.90625 C 29.234375 -29.234375 28.6875 -30.140625 27.125 -30.140625 C 24.296875 -30.140625 23.875 -27.84375 21.875 -27.84375 C 20.3125 -27.84375 20.5625 -30.140625 15.734375 -30.140625 C 5.359375 -30.140625 0.1875 -17.484375 0.1875 -9.109375 C 0.1875 -3.734375 2.296875 0 6.390625 0 Z M 12.421875 -12.484375 C 10.546875 -12.484375 9.40625 -13.6875 9.40625 -15.734375 C 9.40625 -18.390625 11.390625 -21.34375 14.53125 -21.34375 C 16.453125 -21.34375 17.65625 -20.140625 17.65625 -18.140625 C 17.65625 -15.609375 15.546875 -12.484375 12.421875 -12.484375 Z M 12.421875 -12.484375 "/></g></g></g><g fill="#ffffff" fill-opacity="1"><g transform="translate(266.937075, 194.804887)"><g><path d="M 6.09375 0 C 14.765625 0 19.40625 -11.578125 21.21875 -15.015625 C 21.828125 -16.15625 19.46875 -17.90625 18.5 -16.515625 C 17.296875 -14.640625 15.375 -13.5 12.953125 -13.5 C 9.40625 -13.5 7.53125 -16.15625 8.796875 -20.375 C 9.953125 -24.40625 10.3125 -24.53125 15.921875 -24.53125 C 18.328125 -24.53125 19.046875 -30.078125 17.421875 -30.078125 L 14.28125 -30.078125 C 13.140625 -30.078125 13.328125 -31.109375 14.21875 -33.03125 C 16.09375 -36.828125 15.3125 -38.703125 13.078125 -38.703125 C 11.578125 -38.703125 10.25 -38.15625 8.796875 -34.65625 C 7.953125 -32.484375 6.03125 -30.078125 2.53125 -30.078125 C 1.140625 -30.078125 1.203125 -25.4375 4.703125 -25.4375 C 3.1875 -21.28125 1.875 -17.71875 0.84375 -14.703125 C -1.875 -7 -0.65625 0 6.09375 0 Z M 6.09375 0 "/></g></g></g><g fill="#ffffff" fill-opacity="1"><g transform="translate(284.055975, 194.804887)"><g><path d="M 11.328125 0 C 18.328125 0 24.71875 -5.1875 30.015625 -15.015625 C 30.6875 -16.15625 28.265625 -17.96875 27.3125 -16.515625 C 24.59375 -12.359375 19.71875 -10.25 15.609375 -10.25 C 12.171875 -10.25 9.34375 -11.328125 9.34375 -13.4375 C 9.34375 -14.21875 9.953125 -14.40625 10.375 -14.171875 C 11.75 -13.375 13.375 -13.203125 15.078125 -13.203125 C 20.984375 -13.203125 24.78125 -18.140625 24.78125 -22.546875 C 24.78125 -26.53125 22.296875 -30.140625 16.703125 -30.140625 C -0.609375 -30.140625 -5.609375 0 11.328125 0 Z M 13.5 -17.71875 C 11.578125 -17.71875 10.671875 -18.875 10.671875 -20.1875 C 10.671875 -21.828125 12.109375 -23.5625 14.46875 -23.5625 C 16.34375 -23.5625 17.234375 -22.421875 17.234375 -21.09375 C 17.234375 -19.59375 15.859375 -17.71875 13.5 -17.71875 Z M 13.5 -17.71875 "/></g></g></g><path stroke-linecap="butt" transform="matrix(0.75, 0, 0, 0.75, 149.316866, 203.671729)" fill="none" stroke-linejoin="miter" d="M 74.832725 28.380405 C 79.759809 28.380405 83.119184 25.437696 85.806684 20.031446 C 86.124393 19.422071 84.874393 18.463738 84.369184 19.234571 C 83.275434 20.828321 80.942101 21.312696 78.957726 21.312696 C 74.738975 21.312696 72.6921 18.948113 72.6921 16.067904 C 72.6921 12.901237 74.895225 9.82832 77.806684 9.82832 C 79.598351 9.82832 80.369184 11.135612 78.707726 14.307487 C 78.353559 15.010612 78.863976 15.619987 79.759809 15.619987 C 82.129601 15.619987 85.483768 12.869987 85.483768 9.125195 C 85.483768 6.375195 83.473351 4.552278 79.410851 4.552278 C 72.8171 4.552278 66.900433 11.427279 66.900433 19.203321 C 66.900433 25.604363 70.28585 28.380405 74.832725 28.380405 Z M 85.806684 28.000196 C 87.91606 28.000196 88.327518 26.244988 88.327518 24.609571 L 88.327518 23.172071 C 88.327518 20.323113 89.931685 17.666862 91.780643 17.666862 C 92.520227 17.666862 92.999393 18.052279 92.999393 18.786654 C 92.999393 20.093946 91.499393 22.244988 91.499393 24.672071 C 91.499393 26.463738 92.202518 28.000196 94.311893 28.000196 C 98.629602 28.000196 100.806685 21.791863 101.832727 20.031446 C 102.181686 19.422071 100.900435 18.463738 100.390019 19.234571 C 99.749394 20.198113 99.145227 20.869988 98.186894 20.869988 C 97.160852 20.869988 96.707727 20.354363 96.707727 19.265821 C 96.707727 17.666862 97.733769 16.646029 97.733769 14.948112 C 97.733769 13.349154 96.811893 12.005404 94.858768 12.005404 C 93.442102 12.005404 92.171268 12.677279 90.983768 13.823112 C 90.280643 14.536654 89.765018 14.401237 90.119185 13.088737 C 90.50981 11.588737 91.624393 9.864779 92.452518 8.005403 C 93.379602 5.958528 92.999393 5.000195 91.686893 5.000195 C 89.093143 5.000195 87.624393 9.896029 84.390018 19.234571 C 83.754601 21.057488 83.306684 23.073113 83.306684 24.703321 C 83.306684 26.593946 83.947309 28.000196 85.806684 28.000196 Z M 105.666061 28.000196 C 109.374394 28.000196 112.76502 25.250196 115.582728 20.031446 C 115.936895 19.422071 114.655645 18.463738 114.14002 19.234571 C 112.70252 21.437696 110.108769 22.562696 107.936894 22.562696 C 106.108769 22.562696 104.608769 21.984571 104.608769 20.869988 C 104.608769 20.448113 104.931686 20.354363 105.155644 20.479363 C 105.890019 20.901238 106.749394 20.994988 107.650436 20.994988 C 110.780644 20.994988 112.79627 18.369988 112.79627 16.036654 C 112.79627 13.927279 111.488978 12.005404 108.515019 12.005404 C 99.332727 12.005404 96.676477 28.000196 105.666061 28.000196 Z M 106.822311 18.599154 C 105.791061 18.599154 105.311894 17.989779 105.311894 17.286654 C 105.311894 16.416862 106.077519 15.489779 107.327519 15.489779 C 108.322311 15.489779 108.796269 16.099154 108.796269 16.802279 C 108.796269 17.604362 108.061894 18.599154 106.822311 18.599154 Z M 119.035853 28.000196 C 122.775437 28.000196 126.197312 25.250196 129.015021 20.031446 C 129.369187 19.422071 128.087937 18.463738 127.577521 19.234571 C 124.572312 23.588738 118.270228 23.328321 118.270228 19.041863 C 118.270228 17.442904 119.098353 15.942904 120.535853 15.942904 C 121.494187 15.942904 121.848353 16.479362 121.848353 17.057487 C 121.848353 18.213737 121.113978 18.338738 121.113978 18.885613 C 121.113978 19.297071 121.660853 19.776238 122.775437 19.776238 C 124.150437 19.776238 126.041062 18.692904 126.041062 15.942904 C 126.041062 13.864779 124.697312 12.005404 121.629603 12.005404 C 116.57752 12.005404 113.499395 17.286654 113.499395 21.760613 C 113.499395 25.088738 115.192103 28.000196 119.035853 28.000196 Z M 129.015021 28.000196 C 131.124396 28.000196 131.541062 26.244988 131.541062 24.609571 L 131.541062 22.182488 C 131.541062 20.229363 133.296271 20.062696 133.525438 21.698113 C 134.134813 26.109571 134.994188 28.000196 137.202521 28.000196 C 141.718146 28.000196 144.02023 21.823113 145.041063 20.031446 C 145.39523 19.422071 144.337938 18.114779 143.598355 19.234571 C 142.80148 20.479363 141.202521 20.869988 139.348355 20.869988 C 137.58273 20.869988 136.468146 20.260613 136.468146 19.203321 C 136.468146 18.432488 136.910854 17.791862 138.004605 17.760612 C 140.624396 17.760612 141.968146 16.677279 141.968146 14.494987 C 141.968146 13.224154 141.077521 12.005404 139.155646 12.005404 C 136.848354 12.005404 135.379604 13.791862 134.072313 16.771029 C 133.686896 17.635612 132.119187 17.635612 132.306687 16.583529 C 132.916063 13.510612 134.515021 10.599154 135.660854 8.005403 C 136.593146 5.958528 136.207729 5.000195 134.900438 5.000195 C 132.306687 5.000195 130.837937 9.896029 127.603562 19.234571 C 126.962937 21.057488 126.520229 23.073113 126.520229 24.703321 C 126.520229 26.593946 127.155645 28.000196 129.015021 28.000196 Z M 149.291064 10.692904 C 150.952522 10.692904 152.265022 10.052279 152.462939 8.067903 C 152.619189 6.083528 151.306689 5.474153 149.671272 5.474153 C 147.916064 5.474153 146.478563 6.146028 146.478563 8.42207 C 146.478563 10.114779 147.759814 10.692904 149.291064 10.692904 Z M 145.744188 28.000196 C 149.869189 28.000196 151.916064 21.729363 152.936897 20.000196 C 153.259814 19.422071 152.009814 18.463738 151.499397 19.234571 C 150.858772 20.198113 150.249397 20.828321 149.291064 20.828321 C 148.431689 20.828321 147.853564 20.291863 147.853564 19.234571 C 147.853564 17.510612 149.291064 15.396029 149.291064 13.442904 C 149.291064 12.416862 148.874397 12.005404 148.202522 12.005404 C 146.384813 12.005404 145.072313 14.599154 143.598355 19.234571 C 143.119188 20.765821 142.80148 22.494988 142.80148 24.000196 C 142.80148 26.244988 143.598355 28.000196 145.744188 28.000196 Z M 152.744189 28.000196 C 154.957731 28.000196 155.369189 26.244988 155.369189 24.609571 L 155.369189 23.172071 C 155.369189 20.323113 156.968147 17.666862 158.822314 17.666862 C 159.556689 17.666862 160.041064 18.052279 160.041064 18.786654 C 160.041064 20.093946 158.697314 22.244988 158.697314 24.672071 C 158.697314 26.463738 159.400439 28.000196 161.416064 28.000196 C 165.733773 28.000196 167.910856 21.791863 168.936898 20.031446 C 169.285857 19.422071 168.004607 18.463738 167.488981 19.234571 C 166.848356 20.198113 166.249398 20.869988 165.285856 20.869988 C 164.233773 20.869988 163.749398 20.354363 163.749398 19.265821 C 163.749398 17.666862 164.770231 16.646029 164.770231 14.948112 C 164.770231 13.349154 163.843148 12.005404 161.900439 12.005404 C 160.483773 12.005404 159.202523 12.677279 158.025439 13.823112 C 156.999397 14.854362 156.358772 14.463737 156.358772 13.224154 C 156.358772 12.583529 156.166064 12.005404 155.306689 12.005404 C 154.119189 12.005404 152.52023 15.489779 151.462939 19.234571 C 150.728564 21.859571 150.410855 24.156446 150.410855 25.666863 C 150.410855 27.010613 151.244189 28.000196 152.744189 28.000196 Z M 183.645233 19.234571 C 182.718149 20.578321 181.499399 22.015821 180.541066 22.015821 C 179.806691 22.015821 179.228566 21.437696 179.681691 19.744988 C 180.994191 15.880404 182.275441 14.369987 182.275441 13.192904 C 182.275441 12.479362 181.983774 12.005404 181.150441 12.005404 C 179.650441 12.005404 179.421274 13.224154 178.369191 13.224154 C 177.530649 13.224154 177.666065 12.005404 175.103565 12.005404 C 169.603565 12.005404 166.848356 18.724154 166.848356 23.453321 C 166.848356 25.859571 168.291065 27.70853 170.49419 27.70853 C 172.129607 27.70853 173.957732 26.338738 174.811899 24.125196 C 175.103565 23.484571 175.68169 23.484571 175.68169 24.031446 C 175.68169 26.854363 173.05669 30.015822 170.113982 30.047072 C 167.973357 30.015822 166.660856 28.95853 166.49419 27.359571 C 166.43169 26.718946 164.160856 28.125196 164.160856 31.390822 C 164.160856 34.45853 166.082731 36.349155 169.473357 36.349155 C 173.11919 36.349155 175.483774 33.859572 177.530649 27.297071 C 177.791065 27.73978 178.171274 28.000196 178.655649 28.000196 C 181.759816 28.000196 183.223358 23.937696 185.082733 20.031446 C 185.436899 19.297071 184.030649 18.692904 183.645233 19.234571 Z M 173.410857 21.375196 C 172.192107 21.375196 171.74419 20.578321 171.74419 19.651238 C 171.74419 18.244987 172.801482 16.677279 174.36919 16.677279 C 175.61919 16.677279 176.124399 17.442904 176.124399 18.369988 C 176.124399 19.713738 175.009815 21.375196 173.410857 21.375196 Z M 173.410857 21.375196 " stroke="#000000" stroke-width="8.079975" stroke-opacity="1" stroke-miterlimit="4"/><g fill="#ffffff" fill-opacity="1"><g transform="translate(198.699675, 224.671728)"><g><path d="M 6.75 0.28125 C 10.4375 0.28125 12.953125 -1.921875 14.96875 -5.96875 C 15.21875 -6.4375 14.28125 -7.15625 13.890625 -6.578125 C 13.078125 -5.375 11.328125 -5.015625 9.84375 -5.015625 C 6.671875 -5.015625 5.140625 -6.796875 5.140625 -8.953125 C 5.140625 -11.328125 6.796875 -13.625 8.96875 -13.625 C 10.3125 -13.625 10.890625 -12.640625 9.640625 -10.265625 C 9.390625 -9.75 9.765625 -9.28125 10.4375 -9.28125 C 12.21875 -9.28125 14.734375 -11.359375 14.734375 -14.15625 C 14.734375 -16.21875 13.21875 -17.59375 10.171875 -17.59375 C 5.234375 -17.59375 0.796875 -12.4375 0.796875 -6.59375 C 0.796875 -1.796875 3.34375 0.28125 6.75 0.28125 Z M 6.75 0.28125 "/></g></g></g><g fill="#ffffff" fill-opacity="1"><g transform="translate(212.037146, 224.671728)"><g><path d="M 1.625 0 C 3.21875 0 3.53125 -1.3125 3.53125 -2.546875 L 3.53125 -3.625 C 3.53125 -5.765625 4.734375 -7.75 6.125 -7.75 C 6.671875 -7.75 7.03125 -7.46875 7.03125 -6.90625 C 7.03125 -5.921875 5.90625 -4.3125 5.90625 -2.5 C 5.90625 -1.15625 6.4375 0 8.015625 0 C 11.25 0 12.890625 -4.65625 13.65625 -5.96875 C 13.921875 -6.4375 12.953125 -7.15625 12.578125 -6.578125 C 12.09375 -5.859375 11.640625 -5.359375 10.921875 -5.359375 C 10.15625 -5.359375 9.8125 -5.734375 9.8125 -6.546875 C 9.8125 -7.75 10.578125 -8.515625 10.578125 -9.796875 C 10.578125 -10.984375 9.890625 -12 8.421875 -12 C 7.375 -12 6.40625 -11.5 5.515625 -10.625 C 4.984375 -10.109375 4.609375 -10.203125 4.875 -11.1875 C 5.15625 -12.3125 6 -13.609375 6.625 -15 C 7.3125 -16.53125 7.03125 -17.25 6.046875 -17.25 C 4.109375 -17.25 3 -13.578125 0.578125 -6.578125 C 0.09375 -5.203125 -0.234375 -3.703125 -0.234375 -2.46875 C -0.234375 -1.0625 0.234375 0 1.625 0 Z M 1.625 0 "/></g></g></g><g fill="#ffffff" fill-opacity="1"><g transform="translate(224.055261, 224.671728)"><g><path d="M 4.515625 0 C 7.296875 0 9.84375 -2.0625 11.953125 -5.96875 C 12.21875 -6.4375 11.25 -7.15625 10.875 -6.578125 C 9.796875 -4.921875 7.84375 -4.078125 6.21875 -4.078125 C 4.84375 -4.078125 3.71875 -4.515625 3.71875 -5.359375 C 3.71875 -5.65625 3.953125 -5.734375 4.125 -5.640625 C 4.6875 -5.328125 5.328125 -5.25 6 -5.25 C 8.359375 -5.25 9.859375 -7.21875 9.859375 -8.96875 C 9.859375 -10.5625 8.875 -12 6.640625 -12 C -0.234375 -12 -2.234375 0 4.515625 0 Z M 5.375 -7.0625 C 4.609375 -7.0625 4.25 -7.515625 4.25 -8.046875 C 4.25 -8.6875 4.828125 -9.390625 5.765625 -9.390625 C 6.5 -9.390625 6.859375 -8.921875 6.859375 -8.40625 C 6.859375 -7.796875 6.3125 -7.0625 5.375 -7.0625 Z M 5.375 -7.0625 "/></g></g></g><g fill="#ffffff" fill-opacity="1"><g transform="translate(234.370209, 224.671728)"><g><path d="M 4.21875 0 C 7.03125 0 9.59375 -2.0625 11.71875 -5.96875 C 11.96875 -6.4375 11.015625 -7.15625 10.625 -6.578125 C 8.375 -3.3125 3.640625 -3.5 3.640625 -6.71875 C 3.640625 -7.921875 4.265625 -9.046875 5.359375 -9.046875 C 6.078125 -9.046875 6.34375 -8.640625 6.34375 -8.203125 C 6.34375 -7.34375 5.78125 -7.25 5.78125 -6.84375 C 5.78125 -6.53125 6.1875 -6.171875 7.03125 -6.171875 C 8.0625 -6.171875 9.484375 -6.984375 9.484375 -9.046875 C 9.484375 -10.609375 8.46875 -12 6.171875 -12 C 2.375 -12 0.078125 -8.046875 0.078125 -4.6875 C 0.078125 -2.1875 1.34375 0 4.21875 0 Z M 4.21875 0 "/></g></g></g><g fill="#ffffff" fill-opacity="1"><g transform="translate(244.445278, 224.671728)"><g><path d="M 1.625 0 C 3.21875 0 3.53125 -1.3125 3.53125 -2.546875 L 3.53125 -4.375 C 3.53125 -5.828125 4.84375 -5.953125 5.015625 -4.734375 C 5.46875 -1.421875 6.125 0 7.78125 0 C 11.15625 0 12.890625 -4.625 13.65625 -5.96875 C 13.921875 -6.4375 13.125 -7.421875 12.578125 -6.578125 C 11.96875 -5.640625 10.78125 -5.359375 9.390625 -5.359375 C 8.0625 -5.359375 7.21875 -5.8125 7.21875 -6.59375 C 7.21875 -7.171875 7.5625 -7.65625 8.375 -7.6875 C 10.34375 -7.6875 11.359375 -8.5 11.359375 -10.125 C 11.359375 -11.09375 10.6875 -12 9.234375 -12 C 7.515625 -12 6.40625 -10.65625 5.421875 -8.421875 C 5.140625 -7.78125 3.953125 -7.78125 4.109375 -8.5625 C 4.5625 -10.875 5.765625 -13.0625 6.625 -15 C 7.3125 -16.53125 7.03125 -17.25 6.046875 -17.25 C 4.109375 -17.25 3 -13.578125 0.578125 -6.578125 C 0.09375 -5.203125 -0.234375 -3.703125 -0.234375 -2.46875 C -0.234375 -1.0625 0.234375 0 1.625 0 Z M 1.625 0 "/></g></g></g><g fill="#ffffff" fill-opacity="1"><g transform="translate(256.463393, 224.671728)"><g><path d="M 4.828125 -12.984375 C 6.078125 -12.984375 7.0625 -13.46875 7.203125 -14.953125 C 7.3125 -16.4375 6.34375 -16.890625 5.109375 -16.890625 C 3.796875 -16.890625 2.71875 -16.390625 2.71875 -14.6875 C 2.71875 -13.421875 3.671875 -12.984375 4.828125 -12.984375 Z M 2.15625 0 C 5.25 0 6.796875 -4.703125 7.5625 -6 C 7.796875 -6.4375 6.859375 -7.15625 6.484375 -6.578125 C 6 -5.859375 5.546875 -5.375 4.828125 -5.375 C 4.171875 -5.375 3.75 -5.78125 3.75 -6.578125 C 3.75 -7.875 4.828125 -9.453125 4.828125 -10.921875 C 4.828125 -11.6875 4.515625 -12 4.015625 -12 C 2.640625 -12 1.65625 -10.0625 0.546875 -6.578125 C 0.1875 -5.421875 -0.046875 -4.125 -0.046875 -3 C -0.046875 -1.3125 0.546875 0 2.15625 0 Z M 2.15625 0 "/></g></g></g><g fill="#ffffff" fill-opacity="1"><g transform="translate(262.364504, 224.671728)"><g><path d="M 1.515625 0 C 3.171875 0 3.484375 -1.3125 3.484375 -2.546875 L 3.484375 -3.625 C 3.484375 -5.765625 4.6875 -7.75 6.078125 -7.75 C 6.625 -7.75 6.984375 -7.46875 6.984375 -6.90625 C 6.984375 -5.921875 5.96875 -4.3125 5.96875 -2.5 C 5.96875 -1.15625 6.5 0 8.015625 0 C 11.25 0 12.890625 -4.65625 13.65625 -5.96875 C 13.921875 -6.4375 12.953125 -7.15625 12.578125 -6.578125 C 12.09375 -5.859375 11.640625 -5.359375 10.921875 -5.359375 C 10.125 -5.359375 9.765625 -5.734375 9.765625 -6.546875 C 9.765625 -7.75 10.53125 -8.515625 10.53125 -9.796875 C 10.53125 -10.984375 9.84375 -12 8.375 -12 C 7.3125 -12 6.359375 -11.5 5.46875 -10.625 C 4.703125 -9.859375 4.21875 -10.15625 4.21875 -11.09375 C 4.21875 -11.5625 4.078125 -12 3.4375 -12 C 2.546875 -12 1.34375 -9.390625 0.546875 -6.578125 C 0 -4.609375 -0.234375 -2.875 -0.234375 -1.75 C -0.234375 -0.75 0.390625 0 1.515625 0 Z M 1.515625 0 "/></g></g></g><g fill="#ffffff" fill-opacity="1"><g transform="translate(274.38262, 224.671728)"><g><path d="M 12.671875 -6.578125 C 11.96875 -5.5625 11.0625 -4.484375 10.34375 -4.484375 C 9.796875 -4.484375 9.359375 -4.921875 9.703125 -6.1875 C 10.6875 -9.09375 11.640625 -10.21875 11.640625 -11.109375 C 11.640625 -11.640625 11.421875 -12 10.796875 -12 C 9.671875 -12 9.5 -11.09375 8.71875 -11.09375 C 8.09375 -11.09375 8.1875 -12 6.265625 -12 C 2.140625 -12 0.078125 -6.953125 0.078125 -3.40625 C 0.078125 -1.609375 1.15625 -0.21875 2.8125 -0.21875 C 4.03125 -0.21875 5.40625 -1.25 6.046875 -2.90625 C 6.265625 -3.390625 6.703125 -3.390625 6.703125 -2.96875 C 6.703125 -0.859375 4.734375 1.515625 2.515625 1.53125 C 0.90625 1.515625 -0.078125 0.71875 -0.1875 -0.484375 C -0.234375 -0.953125 -1.9375 0.09375 -1.9375 2.546875 C -1.9375 4.84375 -0.5 6.265625 2.046875 6.265625 C 4.78125 6.265625 6.546875 4.390625 8.09375 -0.53125 C 8.28125 -0.1875 8.5625 0 8.921875 0 C 11.25 0 12.359375 -3.046875 13.75 -5.96875 C 14.015625 -6.53125 12.953125 -6.984375 12.671875 -6.578125 Z M 4.984375 -4.96875 C 4.078125 -4.96875 3.75 -5.5625 3.75 -6.265625 C 3.75 -7.3125 4.53125 -8.5 5.71875 -8.5 C 6.640625 -8.5 7.03125 -7.921875 7.03125 -7.21875 C 7.03125 -6.21875 6.1875 -4.96875 4.984375 -4.96875 Z M 4.984375 -4.96875 "/></g></g></g><path stroke-linecap="butt" transform="matrix(0.75, 0.000000000000000248, -0.000000000000000248, 0.75, 178.033939, 232.953426)" fill="none" stroke-linejoin="miter" d="M 0.00162272 1.999598 L 172.215176 1.999598 " stroke="#00ff9c" stroke-width="4" stroke-opacity="1" stroke-miterlimit="4"/><g clip-path="url(#148c7457fa)"><path fill="#00ff9c" d="M 169.863281 129.460938 C 161.847656 131.675781 160.050781 133.46875 157.839844 141.484375 C 155.628906 133.46875 153.832031 131.675781 145.816406 129.460938 C 153.832031 127.25 155.628906 125.457031 157.839844 117.4375 C 160.050781 125.457031 161.847656 127.25 169.863281 129.460938 Z M 169.863281 129.460938 " fill-opacity="1" fill-rule="nonzero"/></g><g clip-path="url(#754f2f2b97)"><path fill="#00ff9c" d="M 120.585938 257.300781 C 112.566406 259.511719 110.773438 261.304688 108.5625 269.324219 C 106.347656 261.304688 104.554688 259.511719 96.539062 257.300781 C 104.554688 255.085938 106.347656 253.292969 108.5625 245.277344 C 110.773438 253.292969 112.566406 255.085938 120.585938 257.300781 Z M 120.585938 257.300781 " fill-opacity="1" fill-rule="nonzero"/></g><g clip-path="url(#e8857fd33c)"><path fill="#00ff9c" d="M 335.90625 203.273438 C 327.886719 205.484375 326.09375 207.28125 323.882812 215.296875 C 321.667969 207.28125 319.875 205.484375 311.859375 203.273438 C 319.875 201.0625 321.667969 199.265625 323.882812 191.25 C 326.09375 199.265625 327.886719 201.0625 335.90625 203.273438 Z M 335.90625 203.273438 " fill-opacity="1" fill-rule="nonzero"/></g><path stroke-linecap="butt" transform="matrix(0.75, 0, 0, 0.75, 179.912263, 242.208718)" fill="none" stroke-linejoin="miter" d="M 47.981569 17.226918 C 47.361777 18.164418 46.288861 18.674835 45.262819 18.674835 C 43.903444 18.674835 43.080527 17.59671 43.080527 16.258168 C 43.080527 15.555043 43.335735 15.013376 43.903444 14.78421 C 47.387819 13.372751 49.835736 9.513376 49.835736 6.445667 C 49.835736 4.461292 48.861777 3.612334 47.413861 3.612334 C 44.69511 3.612334 43.106569 6.674834 41.205527 12.180043 C 40.835735 13.169626 40.752402 13.62796 39.986777 13.680043 C 39.44511 13.737335 38.88261 13.737335 38.564902 13.737335 C 38.085735 13.737335 37.575318 13.56546 38.002402 12.461293 C 38.033652 12.430043 38.033652 12.430043 38.033652 12.398793 C 38.53886 11.127959 39.023235 9.794626 39.41386 8.544626 C 40.497194 5.711292 39.44511 3.893584 35.648235 3.893584 C 29.518026 3.893584 25.148234 7.976918 25.148234 12.831085 C 25.148234 15.013376 26.366984 16.997751 28.695109 16.997751 C 31.44511 16.997751 32.919068 14.560251 32.41386 13.310251 C 31.78886 13.310251 31.335735 12.685251 31.335735 11.893584 C 31.335735 9.450876 33.689901 7.690459 36.356568 8.430043 C 35.47636 10.612334 34.622193 12.601918 33.94511 14.388376 C 32.637818 17.825877 30.278443 19.242543 28.325318 19.242543 C 26.768026 19.242543 25.544068 18.393585 25.544068 17.138376 C 25.544068 16.945668 25.351359 16.799835 25.122193 16.799835 C 22.846151 16.799835 21.346151 19.09671 21.346151 21.424835 C 21.346151 23.779002 22.965942 26.19046 26.257609 26.19046 C 30.314901 26.19046 33.205526 23.325877 35.304485 18.841502 C 35.502402 18.419627 35.78886 17.768585 36.127402 16.97171 C 36.179485 16.825876 36.273235 16.65921 36.356568 16.487335 C 36.747193 15.726918 37.153443 15.75296 37.575318 15.75296 C 39.049277 15.75296 39.986777 15.497751 39.47636 17.138376 L 39.44511 17.258168 C 38.88261 18.961293 38.762818 20.34671 38.762818 21.591502 C 38.762818 23.810252 40.075319 24.997752 42.080527 24.997752 C 46.288861 24.997752 48.356569 19.523793 49.268027 17.935252 C 49.575319 17.393585 48.439902 16.544626 47.981569 17.226918 Z M 44.241985 10.898793 C 44.585735 9.877959 44.976361 8.919626 45.773236 8.919626 C 46.169069 8.919626 46.372194 9.200876 46.372194 9.622751 C 46.372194 10.674834 45.007611 12.544626 44.153444 12.544626 C 43.903444 12.544626 43.78886 12.346709 44.241985 10.898793 Z M 61.48157 17.226918 C 60.804487 18.22171 60.033653 18.612335 59.210736 18.612335 L 59.018028 18.612335 C 59.299278 17.680043 59.439903 16.69046 59.439903 15.695668 C 59.439903 12.117543 57.622195 10.815459 55.299278 10.815459 C 50.788861 10.815459 47.497194 15.976918 47.497194 20.232127 C 47.497194 23.185252 49.340944 24.997752 51.887819 24.997752 C 54.023236 24.997752 56.033653 23.75296 57.45032 21.820668 L 57.788861 21.820668 C 60.549278 21.820668 61.934695 19.664418 62.757612 17.935252 C 63.070112 17.28421 61.820112 16.742543 61.48157 17.226918 Z M 53.507611 19.12796 C 52.429486 19.12796 52.033653 18.419627 52.033653 17.59671 C 52.033653 16.34671 52.971153 14.956085 54.361778 14.956085 C 55.471153 14.956085 55.91907 15.633168 55.91907 16.461293 C 55.91907 17.648793 54.929486 19.12796 53.507611 19.12796 Z M 63.689903 24.997752 C 67.778445 24.997752 69.960737 19.555043 70.809696 17.935252 C 71.096154 17.393585 69.986779 16.570668 69.528445 17.226918 C 68.971154 18.107127 68.054487 18.643585 66.924279 18.643585 C 65.252404 18.643585 64.372195 17.393585 64.965945 15.414418 C 65.507612 13.508168 65.674279 13.456085 68.309695 13.456085 C 69.445112 13.456085 69.788862 10.841501 69.023237 10.841501 L 67.549279 10.841501 C 67.007612 10.841501 67.090945 10.357126 67.523237 9.450876 C 68.403445 7.664418 68.028445 6.784209 66.98157 6.784209 C 66.268029 6.784209 65.643029 7.039417 64.965945 8.690459 C 64.570112 9.706084 63.663862 10.841501 62.01282 10.841501 C 61.361778 10.841501 61.393028 13.023793 63.033653 13.023793 C 62.32532 14.982126 61.705528 16.65921 61.221153 18.081085 C 59.945111 21.711293 60.51282 24.997752 63.689903 24.997752 Z M 76.851363 25.341502 C 81.221155 25.341502 84.200321 22.726918 86.58053 17.935252 C 86.866988 17.393585 85.757613 16.544626 85.309696 17.226918 C 84.335738 18.643585 82.26803 19.070668 80.507613 19.070668 C 76.768029 19.070668 74.950321 16.97171 74.950321 14.414418 C 74.950321 11.612334 76.903446 8.883168 79.486779 8.883168 C 81.075321 8.883168 81.762821 10.044626 80.283654 12.857126 C 79.976363 13.482126 80.42428 14.023793 81.221155 14.023793 C 83.320113 14.023793 86.29928 11.586293 86.29928 8.258168 C 86.29928 5.820667 84.512821 4.206084 80.908655 4.206084 C 75.064904 4.206084 69.814904 10.305043 69.814904 17.200876 C 69.814904 22.872752 72.820112 25.341502 76.851363 25.341502 Z M 87.653447 24.997752 C 89.669072 24.997752 91.372197 23.15921 92.507614 20.857127 L 92.616989 20.857127 C 92.278447 23.211294 93.101364 24.997752 95.054489 24.997752 C 98.205531 24.997752 99.768031 20.575877 101.158656 17.935252 C 101.439906 17.393585 100.304489 16.544626 99.882614 17.226918 C 99.314906 18.138377 98.601364 18.674835 97.637822 18.674835 C 96.393031 18.674835 96.080531 17.539418 97.044072 15.47171 C 97.669072 13.820668 98.408656 12.94046 98.408656 11.867543 C 98.408656 11.237334 98.153447 10.815459 97.408656 10.815459 C 96.080531 10.815459 95.882614 11.893584 94.945114 11.893584 C 94.20553 11.893584 94.320114 10.815459 92.04928 10.815459 C 87.17428 10.815459 84.731571 16.773793 84.731571 20.72171 C 84.731571 23.242544 85.726363 24.997752 87.653447 24.997752 Z M 90.491988 19.12796 C 89.61178 19.12796 89.070113 18.560252 89.070113 17.59671 C 89.070113 16.34671 90.007613 14.956085 91.481572 14.956085 C 92.387822 14.956085 92.95553 15.523793 92.95553 16.461293 C 92.95553 17.648793 91.965947 19.12796 90.491988 19.12796 Z M 101.153448 24.997752 C 103.023239 24.997752 103.393031 23.44046 103.393031 21.992543 L 103.393031 19.841502 C 103.393031 18.107127 104.950323 17.961293 105.153448 19.40921 C 105.689906 23.325877 106.455531 24.997752 108.413865 24.997752 C 112.419073 24.997752 114.46074 19.523793 115.36699 17.935252 C 115.67949 17.393585 114.74199 16.232126 114.08574 17.226918 C 113.377407 18.331085 111.96074 18.674835 110.320115 18.674835 C 108.752406 18.674835 107.762823 18.138377 107.762823 17.200876 C 107.762823 16.513376 108.158656 15.945668 109.127406 15.919626 C 111.445115 15.919626 112.637823 14.956085 112.637823 13.023793 C 112.637823 11.893584 111.851365 10.815459 110.143031 10.815459 C 108.101365 10.815459 106.799281 12.398793 105.637823 15.039418 C 105.299281 15.810251 103.903448 15.810251 104.070114 14.872751 C 104.611781 12.154001 106.033656 9.570668 107.049281 7.268584 C 107.872198 5.456084 107.533656 4.601917 106.372198 4.601917 C 104.070114 4.601917 102.768031 8.945668 99.903447 17.226918 C 99.335739 18.841502 98.939906 20.62796 98.939906 22.075877 C 98.939906 23.75296 99.507614 24.997752 101.153448 24.997752 Z M 118.762824 24.997752 C 122.054491 24.997752 125.059699 22.560252 127.559699 17.935252 C 127.872199 17.393585 126.736783 16.544626 126.278449 17.226918 C 125.002407 19.180043 122.705532 20.180043 120.778449 20.180043 C 119.158657 20.180043 117.830532 19.664418 117.830532 18.674835 C 117.830532 18.299835 118.111782 18.22171 118.314907 18.331085 C 118.965949 18.706085 119.726365 18.789418 120.52324 18.789418 C 123.299282 18.789418 125.085741 16.461293 125.085741 14.388376 C 125.085741 12.518584 123.929491 10.815459 121.294074 10.815459 C 113.14824 10.815459 110.794073 24.997752 118.762824 24.997752 Z M 119.788865 16.65921 C 118.872199 16.65921 118.450324 16.122751 118.450324 15.497751 C 118.450324 14.726918 119.132615 13.904001 120.236782 13.904001 C 121.116991 13.904001 121.538866 14.445668 121.538866 15.06546 C 121.538866 15.779001 120.887824 16.65921 119.788865 16.65921 Z M 128.830533 26.19046 C 136.549283 26.19046 136.491992 17.706085 138.080533 17.706085 C 139.445117 17.706085 136.575325 24.997752 141.34095 24.997752 C 145.65345 24.997752 148.038867 19.664418 148.861784 17.935252 C 149.231576 17.174835 148.064909 16.430043 147.580534 17.226918 C 147.038867 18.138377 145.65345 18.393585 144.658659 18.393585 C 142.502409 18.393585 141.111783 17.112335 141.111783 14.78421 C 141.111783 12.94046 142.054492 10.815459 143.611784 10.815459 C 144.861784 10.815459 144.320117 12.263376 145.65345 12.263376 C 147.783659 12.263376 149.570117 9.341501 149.570117 6.904001 C 149.570117 5.226917 148.689909 3.779001 146.590951 3.779001 C 141.96595 3.779001 140.861783 11.070668 139.981575 11.070668 C 138.820117 11.070668 141.882617 3.779001 135.981575 3.779001 C 129.481574 3.779001 128.153449 14.47171 132.4347 14.47171 C 133.398241 14.47171 133.851366 13.94046 133.570116 13.112335 C 133.174283 11.976918 133.851366 9.825876 135.585741 9.825876 C 137.200325 9.825876 137.512825 11.695668 136.804492 13.94046 C 136.007616 16.461293 134.2472 18.961293 131.471158 18.961293 C 129.903449 18.961293 128.684699 18.107127 128.684699 16.857126 C 128.684699 16.65921 128.491991 16.513376 128.007616 16.513376 C 125.825324 16.513376 124.205532 18.961293 124.205532 21.424835 C 124.205532 23.779002 125.825324 26.19046 128.830533 26.19046 Z M 128.830533 26.19046 " stroke="#000000" stroke-width="7.163804" stroke-opacity="1" stroke-miterlimit="4"/><g fill="#ffffff" fill-opacity="1"><g transform="translate(196.986481, 260.958717)"><g><path d="M 18.921875 -5.828125 C 18.453125 -5.125 17.640625 -4.75 16.875 -4.75 C 15.859375 -4.75 15.234375 -5.546875 15.234375 -6.546875 C 15.234375 -7.09375 15.421875 -7.484375 15.859375 -7.65625 C 18.46875 -8.71875 20.296875 -11.625 20.296875 -13.921875 C 20.296875 -15.40625 19.578125 -16.046875 18.5 -16.046875 C 16.453125 -16.046875 15.265625 -13.75 13.828125 -9.625 C 13.5625 -8.875 13.5 -8.53125 12.921875 -8.484375 C 12.515625 -8.453125 12.09375 -8.453125 11.859375 -8.453125 C 11.484375 -8.453125 11.109375 -8.578125 11.421875 -9.40625 C 11.453125 -9.421875 11.453125 -9.421875 11.453125 -9.453125 C 11.828125 -10.40625 12.1875 -11.40625 12.484375 -12.34375 C 13.296875 -14.46875 12.515625 -15.828125 9.65625 -15.828125 C 5.0625 -15.828125 1.78125 -12.765625 1.78125 -9.125 C 1.78125 -7.484375 2.703125 -6 4.453125 -6 C 6.515625 -6 7.625 -7.828125 7.234375 -8.765625 C 6.765625 -8.765625 6.421875 -9.234375 6.421875 -9.828125 C 6.421875 -11.65625 8.1875 -12.984375 10.1875 -12.421875 C 9.53125 -10.796875 8.890625 -9.296875 8.390625 -7.953125 C 7.40625 -5.390625 5.640625 -4.3125 4.171875 -4.3125 C 3 -4.3125 2.078125 -4.953125 2.078125 -5.890625 C 2.078125 -6.046875 1.9375 -6.15625 1.765625 -6.15625 C 0.0625 -6.15625 -1.0625 -4.421875 -1.0625 -2.6875 C -1.0625 -0.921875 0.15625 0.890625 2.625 0.890625 C 5.65625 0.890625 7.828125 -1.25 9.40625 -4.625 C 9.5625 -4.9375 9.765625 -5.421875 10.03125 -6.015625 C 10.0625 -6.125 10.125 -6.25 10.1875 -6.390625 C 10.484375 -6.953125 10.796875 -6.9375 11.109375 -6.9375 C 12.21875 -6.9375 12.921875 -7.125 12.53125 -5.890625 L 12.515625 -5.8125 C 12.09375 -4.53125 12 -3.484375 12 -2.546875 C 12 -0.890625 12.984375 0 14.5 0 C 17.640625 0 19.203125 -4.109375 19.875 -5.296875 C 20.109375 -5.703125 19.265625 -6.34375 18.921875 -5.828125 Z M 16.109375 -10.578125 C 16.359375 -11.34375 16.65625 -12.0625 17.265625 -12.0625 C 17.5625 -12.0625 17.703125 -11.859375 17.703125 -11.53125 C 17.703125 -10.75 16.6875 -9.34375 16.046875 -9.34375 C 15.859375 -9.34375 15.765625 -9.484375 16.109375 -10.578125 Z M 16.109375 -10.578125 "/></g></g></g><g fill="#ffffff" fill-opacity="1"><g transform="translate(215.405917, 260.958717)"><g><path d="M 10.625 -5.828125 C 10.109375 -5.09375 9.53125 -4.78125 8.921875 -4.78125 L 8.765625 -4.78125 C 8.984375 -5.484375 9.09375 -6.234375 9.09375 -6.984375 C 9.09375 -9.65625 7.71875 -10.640625 5.984375 -10.640625 C 2.59375 -10.640625 0.125 -6.765625 0.125 -3.578125 C 0.125 -1.359375 1.515625 0 3.421875 0 C 5.015625 0 6.53125 -0.9375 7.59375 -2.390625 L 7.859375 -2.390625 C 9.921875 -2.390625 10.953125 -4 11.578125 -5.296875 C 11.8125 -5.78125 10.875 -6.1875 10.625 -5.828125 Z M 4.640625 -4.40625 C 3.828125 -4.40625 3.53125 -4.9375 3.53125 -5.546875 C 3.53125 -6.484375 4.234375 -7.53125 5.28125 -7.53125 C 6.109375 -7.53125 6.453125 -7.015625 6.453125 -6.40625 C 6.453125 -5.515625 5.703125 -4.40625 4.640625 -4.40625 Z M 4.640625 -4.40625 "/></g></g></g><g fill="#ffffff" fill-opacity="1"><g transform="translate(225.53023, 260.958717)"><g><path d="M 2.15625 0 C 5.21875 0 6.859375 -4.09375 7.484375 -5.296875 C 7.703125 -5.703125 6.875 -6.328125 6.53125 -5.828125 C 6.109375 -5.171875 5.421875 -4.765625 4.578125 -4.765625 C 3.3125 -4.765625 2.65625 -5.703125 3.109375 -7.1875 C 3.515625 -8.625 3.640625 -8.65625 5.625 -8.65625 C 6.46875 -8.65625 6.71875 -10.625 6.15625 -10.625 L 5.046875 -10.625 C 4.640625 -10.625 4.703125 -10.984375 5.015625 -11.65625 C 5.6875 -13 5.40625 -13.65625 4.625 -13.65625 C 4.09375 -13.65625 3.625 -13.46875 3.109375 -12.234375 C 2.8125 -11.46875 2.125 -10.625 0.890625 -10.625 C 0.40625 -10.625 0.421875 -8.984375 1.65625 -8.984375 C 1.125 -7.515625 0.65625 -6.25 0.296875 -5.1875 C -0.65625 -2.46875 -0.234375 0 2.15625 0 Z M 2.15625 0 "/></g></g></g><g fill="#ffffff" fill-opacity="1"><g transform="translate(231.570787, 260.958717)"><g><path d="M 5.984375 0.25 C 9.25 0.25 11.484375 -1.703125 13.28125 -5.296875 C 13.5 -5.703125 12.65625 -6.34375 12.328125 -5.828125 C 11.59375 -4.765625 10.046875 -4.453125 8.71875 -4.453125 C 5.921875 -4.453125 4.546875 -6.015625 4.546875 -7.9375 C 4.546875 -10.046875 6.015625 -12.09375 7.953125 -12.09375 C 9.15625 -12.09375 9.65625 -11.21875 8.5625 -9.109375 C 8.328125 -8.640625 8.65625 -8.234375 9.25 -8.234375 C 10.828125 -8.234375 13.0625 -10.0625 13.0625 -12.5625 C 13.0625 -14.390625 11.71875 -15.59375 9.015625 -15.59375 C 4.640625 -15.59375 0.703125 -11.03125 0.703125 -5.859375 C 0.703125 -1.59375 2.953125 0.25 5.984375 0.25 Z M 5.984375 0.25 "/></g></g></g><g fill="#ffffff" fill-opacity="1"><g transform="translate(243.396664, 260.958717)"><g><path d="M 2.25 0 C 3.765625 0 5.046875 -1.390625 5.890625 -3.109375 L 5.984375 -3.109375 C 5.71875 -1.34375 6.34375 0 7.8125 0 C 10.171875 0 11.34375 -3.3125 12.390625 -5.296875 C 12.59375 -5.703125 11.75 -6.34375 11.421875 -5.828125 C 11 -5.15625 10.46875 -4.75 9.75 -4.75 C 8.8125 -4.75 8.578125 -5.59375 9.296875 -7.15625 C 9.765625 -8.390625 10.328125 -9.046875 10.328125 -9.859375 C 10.328125 -10.328125 10.125 -10.640625 9.578125 -10.640625 C 8.578125 -10.640625 8.421875 -9.828125 7.71875 -9.828125 C 7.171875 -9.828125 7.25 -10.640625 5.546875 -10.640625 C 1.890625 -10.640625 0.0625 -6.171875 0.0625 -3.21875 C 0.0625 -1.3125 0.8125 0 2.25 0 Z M 4.390625 -4.40625 C 3.71875 -4.40625 3.3125 -4.828125 3.3125 -5.546875 C 3.3125 -6.484375 4.015625 -7.53125 5.125 -7.53125 C 5.8125 -7.53125 6.234375 -7.109375 6.234375 -6.40625 C 6.234375 -5.515625 5.484375 -4.40625 4.390625 -4.40625 Z M 4.390625 -4.40625 "/></g></g></g><g fill="#ffffff" fill-opacity="1"><g transform="translate(254.329216, 260.958717)"><g><path d="M 1.453125 0 C 2.859375 0 3.125 -1.171875 3.125 -2.25 L 3.125 -3.875 C 3.125 -5.171875 4.296875 -5.28125 4.453125 -4.1875 C 4.859375 -1.25 5.421875 0 6.890625 0 C 9.890625 0 11.421875 -4.109375 12.109375 -5.296875 C 12.34375 -5.703125 11.640625 -6.578125 11.15625 -5.828125 C 10.625 -5 9.5625 -4.75 8.328125 -4.75 C 7.15625 -4.75 6.40625 -5.15625 6.40625 -5.859375 C 6.40625 -6.359375 6.703125 -6.78125 7.421875 -6.8125 C 9.171875 -6.8125 10.0625 -7.53125 10.0625 -8.984375 C 10.0625 -9.828125 9.46875 -10.640625 8.1875 -10.640625 C 6.65625 -10.640625 5.6875 -9.453125 4.8125 -7.46875 C 4.546875 -6.890625 3.515625 -6.890625 3.640625 -7.59375 C 4.046875 -9.640625 5.109375 -11.578125 5.875 -13.296875 C 6.484375 -14.65625 6.234375 -15.296875 5.359375 -15.296875 C 3.640625 -15.296875 2.65625 -12.046875 0.515625 -5.828125 C 0.078125 -4.625 -0.21875 -3.28125 -0.21875 -2.1875 C -0.21875 -0.9375 0.21875 0 1.453125 0 Z M 1.453125 0 "/></g></g></g><g fill="#ffffff" fill-opacity="1"><g transform="translate(264.985267, 260.958717)"><g><path d="M 4 0 C 6.46875 0 8.71875 -1.828125 10.59375 -5.296875 C 10.828125 -5.703125 9.984375 -6.34375 9.640625 -5.828125 C 8.6875 -4.359375 6.953125 -3.625 5.515625 -3.625 C 4.296875 -3.625 3.296875 -4 3.296875 -4.75 C 3.296875 -5.015625 3.515625 -5.09375 3.65625 -5 C 4.15625 -4.71875 4.71875 -4.65625 5.3125 -4.65625 C 7.40625 -4.65625 8.75 -6.40625 8.75 -7.953125 C 8.75 -9.359375 7.875 -10.640625 5.890625 -10.640625 C -0.21875 -10.640625 -1.984375 0 4 0 Z M 4.765625 -6.25 C 4.09375 -6.25 3.765625 -6.65625 3.765625 -7.125 C 3.765625 -7.703125 4.28125 -8.328125 5.109375 -8.328125 C 5.765625 -8.328125 6.09375 -7.921875 6.09375 -7.453125 C 6.09375 -6.921875 5.59375 -6.25 4.765625 -6.25 Z M 4.765625 -6.25 "/></g></g></g><g fill="#ffffff" fill-opacity="1"><g transform="translate(274.131179, 260.958717)"><g><path d="M 2.40625 0.890625 C 8.1875 0.890625 8.15625 -5.46875 9.34375 -5.46875 C 10.359375 -5.46875 8.21875 0 11.796875 0 C 15.03125 0 16.8125 -4 17.421875 -5.296875 C 17.703125 -5.875 16.828125 -6.421875 16.46875 -5.828125 C 16.0625 -5.15625 15.03125 -4.953125 14.28125 -4.953125 C 12.65625 -4.953125 11.625 -5.921875 11.625 -7.65625 C 11.625 -9.046875 12.328125 -10.640625 13.5 -10.640625 C 14.421875 -10.640625 14.03125 -9.5625 15.03125 -9.5625 C 16.625 -9.5625 17.96875 -11.75 17.96875 -13.578125 C 17.96875 -14.828125 17.296875 -15.921875 15.734375 -15.921875 C 12.265625 -15.921875 11.421875 -10.453125 10.765625 -10.453125 C 9.890625 -10.453125 12.1875 -15.921875 7.765625 -15.921875 C 2.890625 -15.921875 1.890625 -7.890625 5.109375 -7.890625 C 5.828125 -7.890625 6.171875 -8.296875 5.953125 -8.921875 C 5.65625 -9.765625 6.171875 -11.390625 7.46875 -11.390625 C 8.6875 -11.390625 8.921875 -9.984375 8.390625 -8.296875 C 7.78125 -6.40625 6.46875 -4.53125 4.390625 -4.53125 C 3.21875 -4.53125 2.296875 -5.171875 2.296875 -6.109375 C 2.296875 -6.25 2.15625 -6.359375 1.78125 -6.359375 C 0.15625 -6.359375 -1.0625 -4.53125 -1.0625 -2.6875 C -1.0625 -0.921875 0.15625 0.890625 2.40625 0.890625 Z M 2.40625 0.890625 "/></g></g></g></svg>