<svg xmlns="http://www.w3.org/2000/svg" xmlns:xlink="http://www.w3.org/1999/xlink" width="500" zoomAndPan="magnify" viewBox="0 0 375 374.999991" height="500" preserveAspectRatio="xMidYMid meet" version="1.0"><defs><g/><clipPath id="2c86d646b0"><path d="M 233 249 L 287 249 L 287 302.953125 L 233 302.953125 Z M 233 249 " clip-rule="nonzero"/></clipPath><clipPath id="38a92bfe4b"><path d="M 38 71.953125 L 103 71.953125 L 103 137 L 38 137 Z M 38 71.953125 " clip-rule="nonzero"/></clipPath><clipPath id="ae0abb00fd"><path d="M 118 71.953125 L 154 71.953125 L 154 107 L 118 107 Z M 118 71.953125 " clip-rule="nonzero"/></clipPath></defs><path fill="#ff2e9f" d="M 265.773438 132.210938 C 245.363281 111.800781 212.277344 111.800781 191.871094 132.210938 L 187.078125 137.003906 L 182.28125 132.210938 C 161.875 111.800781 128.789062 111.800781 108.378906 132.210938 C 87.972656 152.621094 87.972656 185.707031 108.378906 206.113281 L 113.175781 210.90625 L 187.078125 284.808594 L 265.773438 206.113281 C 286.183594 185.707031 286.183594 152.621094 265.773438 132.210938 " fill-opacity="1" fill-rule="nonzero"/><g clip-path="url(#2c86d646b0)"><path fill="#ff2e9f" d="M 286.847656 276.441406 C 272.152344 276.441406 260.242188 264.527344 260.242188 249.835938 C 260.242188 264.527344 248.328125 276.441406 233.636719 276.441406 C 248.328125 276.441406 260.242188 288.355469 260.242188 303.046875 C 260.242188 288.355469 272.152344 276.441406 286.847656 276.441406 " fill-opacity="1" fill-rule="nonzero"/></g><g clip-path="url(#38a92bfe4b)"><path fill="#ff2e9f" d="M 102.488281 104.003906 C 84.789062 104.003906 70.4375 89.652344 70.4375 71.953125 C 70.4375 89.652344 56.089844 104.003906 38.390625 104.003906 C 56.089844 104.003906 70.4375 118.347656 70.4375 136.046875 C 70.4375 118.347656 84.789062 104.003906 102.488281 104.003906 " fill-opacity="1" fill-rule="nonzero"/></g><path fill="#ff2e9f" d="M 350.847656 239.578125 C 332.546875 239.578125 317.714844 224.746094 317.714844 206.445312 C 317.714844 224.746094 302.878906 239.578125 284.582031 239.578125 C 302.878906 239.578125 317.714844 254.410156 317.714844 272.710938 C 317.714844 254.410156 332.546875 239.578125 350.847656 239.578125 " fill-opacity="1" fill-rule="nonzero"/><path fill="#ff2e9f" d="M 60.761719 170.742188 C 46.070312 170.742188 34.15625 158.828125 34.15625 144.136719 C 34.15625 158.828125 22.246094 170.742188 7.550781 170.742188 C 22.246094 170.742188 34.15625 182.652344 34.15625 197.34375 C 34.15625 182.652344 46.070312 170.742188 60.761719 170.742188 " fill-opacity="1" fill-rule="nonzero"/><g clip-path="url(#ae0abb00fd)"><path fill="#ff2e9f" d="M 153.203125 89.339844 C 143.601562 89.339844 135.816406 81.554688 135.816406 71.953125 C 135.816406 81.554688 128.03125 89.339844 118.429688 89.339844 C 128.03125 89.339844 135.816406 97.125 135.816406 106.726562 C 135.816406 97.125 143.601562 89.339844 153.203125 89.339844 " fill-opacity="1" fill-rule="nonzero"/></g><path fill="#ff2e9f" d="M 152.324219 250.0625 C 91.328125 264 43.960938 263.726562 38.84375 247.441406 C 34.703125 234.273438 59.226562 213.878906 99.4375 194.15625 C 98.511719 192.457031 97.679688 190.722656 96.957031 188.953125 C 37.875 214.707031 0.0351562 241.910156 5.105469 258.042969 C 11.101562 277.128906 75.207031 274.570312 156.15625 253.890625 L 152.324219 250.0625 " fill-opacity="1" fill-rule="nonzero"/><path fill="#ff2e9f" d="M 369.046875 143.671875 C 364.402344 128.890625 324.902344 127.09375 269.714844 136.636719 C 271.296875 138.617188 272.714844 140.683594 273.964844 142.824219 C 308.21875 139.441406 331.785156 143.058594 335.308594 154.273438 C 340.074219 169.433594 306.867188 194.160156 255.457031 216.433594 L 246.699219 225.183594 C 322.800781 196.167969 374.941406 162.433594 369.046875 143.671875 " fill-opacity="1" fill-rule="nonzero"/><path stroke-linecap="butt" transform="matrix(0.932385, -0.0631365, 0.0631365, 0.932385, 8.712834, 173.19529)" fill="none" stroke-linejoin="miter" d="M 113.786498 23.001047 L 129.011216 23.001366 C 132.153422 23.000475 134.445249 20.708982 134.444922 17.558436 L 134.445811 14.575553 C 134.445203 11.429178 132.15371 9.13735 129.011505 9.138242 L 121.7848 9.13487 C 121.407769 9.134476 121.117515 8.842503 121.117344 8.473813 C 121.117737 8.096782 121.409993 7.802358 121.787024 7.802751 L 133.781676 7.802202 C 134.154537 7.802313 134.446793 7.507888 134.446621 7.139198 L 134.444677 2.342059 C 134.445071 1.965028 134.155099 1.668884 133.782239 1.668773 L 118.557238 1.672624 C 115.415315 1.669344 113.115147 3.960272 113.115473 7.110818 L 113.118472 10.098154 C 113.114911 13.244247 115.415026 15.532469 118.556949 15.535748 L 125.783937 15.534949 C 126.152627 15.534778 126.447051 15.827034 126.446658 16.204065 C 126.446547 16.576925 126.154573 16.867179 125.781712 16.867068 L 113.78706 16.867618 C 113.41003 16.867224 113.117773 17.161649 113.117662 17.534509 L 113.115154 22.335537 C 113.115043 22.708397 113.409467 23.000653 113.786498 23.001047 Z M 136.472876 22.9997 L 156.465259 23.000269 C 156.83812 23.00038 157.130376 22.705955 157.130204 22.337265 L 157.130217 17.263749 C 157.130045 16.895059 156.810599 16.601109 156.441909 16.60128 L 144.443086 16.601547 C 144.066055 16.601154 143.775801 16.30918 143.775913 15.93632 C 143.772136 15.559006 144.06828 15.269035 144.445311 15.269428 L 155.396731 15.269458 C 155.769592 15.269569 156.061848 14.975145 156.061959 14.602285 L 156.063358 10.065122 C 156.063187 9.696432 155.74374 9.402481 155.370879 9.40237 L 144.444481 9.404035 C 144.06745 9.403641 143.773026 9.111385 143.773137 8.738525 C 143.773531 8.361494 144.065787 8.06707 144.442818 8.067463 L 156.466663 8.06889 C 156.835353 8.068719 157.131779 7.774577 157.131608 7.405887 L 157.131055 2.340712 C 157.131449 1.963681 156.837024 1.671425 156.464164 1.671314 L 136.446759 1.669051 C 136.069446 1.672828 135.773301 1.9628 135.772908 2.33983 L 135.776227 22.336666 C 135.776399 22.705356 136.100016 22.999589 136.472876 22.9997 Z M 163.901614 23.001079 L 179.126333 23.001398 C 179.495023 23.001227 179.788973 22.68178 179.789084 22.30892 L 179.786843 16.464378 C 179.786672 16.095688 179.4967 15.799544 179.12384 15.799433 L 167.129187 15.799982 C 166.752157 15.799589 166.457732 15.507333 166.457561 15.138643 L 166.45951 9.541567 C 166.460186 9.160366 166.75216 8.870112 167.129191 8.870505 L 179.123843 8.869956 C 179.496703 8.870067 179.786483 8.550338 179.786594 8.177477 L 179.787958 2.341559 C 179.788352 1.964528 179.493928 1.672272 179.125238 1.672443 L 163.900519 1.672124 C 160.758596 1.668845 158.458428 3.959772 158.458755 7.110319 L 158.459249 17.559032 C 158.459576 20.709578 160.755238 23.001688 163.901614 23.001079 Z M 186.558517 23.001926 L 193.006421 22.998646 C 196.156967 22.998319 198.448794 20.706827 198.448186 17.560451 L 198.448223 2.339903 C 198.448616 1.962872 198.158362 1.670899 197.781331 1.670505 L 191.141024 1.669136 C 190.768164 1.669024 190.450885 1.961754 190.450209 2.342956 L 190.451036 15.137826 C 190.451207 15.506516 190.158951 15.80094 189.786091 15.800829 C 189.40906 15.800436 189.114635 15.50818 189.114747 15.135319 L 189.118091 2.340731 C 189.114314 1.963418 188.82406 1.671444 188.451199 1.671333 L 181.815063 1.670246 C 181.442202 1.670135 181.116583 1.9623 181.116189 2.339331 L 181.116152 17.559879 C 181.116479 20.710425 183.416594 22.998647 186.558517 23.001926 Z M 200.446947 22.999738 L 207.112558 22.998632 C 207.481248 22.99846 207.775199 22.679014 207.775028 22.310324 L 207.774592 16.067899 C 207.774703 15.695039 208.066677 15.404785 208.447878 15.405461 L 212.440629 15.403511 C 212.813489 15.403622 213.107914 15.695878 213.107802 16.068739 L 213.106544 22.336186 C 213.106433 22.709046 213.400857 23.001302 213.777888 23.001696 L 220.4435 23.000589 C 220.81219 23.000418 221.10614 22.680971 221.106252 22.308111 L 221.10395 15.722019 C 221.105872 14.146887 219.960126 13.000973 218.384711 13.003222 L 218.150039 13.004089 C 217.773008 13.003695 217.478584 12.711439 217.478695 12.338579 C 217.479089 11.961548 217.771345 11.667124 218.152546 11.6678 L 218.383048 11.66665 C 219.95818 11.668572 221.104093 10.522826 221.106015 8.947694 L 221.107403 6.019309 C 221.105292 3.513829 219.269326 1.6718 216.764129 1.669742 L 200.445852 1.670784 C 200.068821 1.67039 199.776565 1.964814 199.776171 2.341845 L 199.775603 22.334228 C 199.775491 22.707088 200.069916 22.999345 200.446947 22.999738 Z M 208.44427 9.27175 C 208.067239 9.271356 207.776985 8.979382 207.777379 8.602351 C 207.777207 8.233662 208.069464 7.939237 208.446494 7.939631 L 212.443416 7.937963 C 212.812106 7.937792 213.10653 8.230048 213.106419 8.602908 C 213.106025 8.979939 212.813769 9.274364 212.440909 9.274253 Z M 223.129154 22.998109 L 229.769462 22.999479 C 230.142322 22.99959 230.434578 22.705165 230.434407 22.336476 L 230.435258 2.339922 C 230.431481 1.962609 230.116204 1.668941 229.743344 1.66883 L 223.102755 1.671631 C 222.725724 1.671237 222.43375 1.961491 222.433074 2.342692 L 222.432506 22.335075 C 222.432395 22.707936 222.760465 22.998281 223.129154 22.998109 Z M 236.480948 23.001479 L 243.121537 22.998678 C 243.498568 22.999071 243.792519 22.679624 243.792348 22.310934 L 243.789827 9.541086 C 243.79022 9.164056 244.111952 8.867438 244.480642 8.867266 L 247.149332 8.867827 C 247.522192 8.867938 247.814166 8.577684 247.814277 8.204824 L 247.813448 2.339431 C 247.816317 1.987705 247.519417 1.670144 247.150727 1.670315 L 232.434581 1.64578 C 232.05755 1.645387 231.765577 1.935641 231.764901 2.316842 L 231.764036 8.207258 C 231.764207 8.575948 232.054461 8.867922 232.435662 8.868597 L 235.096012 8.868594 C 235.473043 8.868987 235.792489 9.162938 235.792096 9.539968 L 235.792922 22.334839 C 235.792811 22.707699 236.112258 23.00165 236.480948 23.001479 Z M 254.533679 23.000579 L 261.169816 23.001666 C 261.542677 23.001777 261.834933 22.707353 261.835044 22.334492 L 261.836439 15.13698 C 261.836832 14.759949 262.129089 14.465525 262.497778 14.465353 L 265.866033 14.467201 C 266.2097 14.465335 266.529173 14.20208 266.527589 13.854242 L 266.529208 2.446271 C 266.526626 1.989437 266.263372 1.669965 265.831843 1.670071 L 259.199877 1.669266 C 258.822846 1.668873 258.53059 1.963297 258.52772 2.315023 L 258.527163 7.644063 C 258.527834 8.067251 258.21225 8.334958 257.839389 8.334847 C 257.462359 8.334454 257.140935 8.069696 257.144435 7.646791 L 257.141104 2.313298 C 257.143691 1.965742 256.849549 1.669316 256.480859 1.669487 L 249.84027 1.672288 C 249.408741 1.672393 249.144266 1.989647 249.142677 2.446197 L 249.145229 13.854451 C 249.142642 14.202007 249.468236 14.467047 249.811903 14.465182 L 253.171817 14.466464 C 253.544677 14.466575 253.834931 14.758549 253.834538 15.13558 L 253.837031 22.337545 C 253.837202 22.706235 254.156649 23.000185 254.533679 23.000579 Z M 254.533679 23.000579 " stroke="#ff2e9f" stroke-width="4.633339" stroke-opacity="1" stroke-miterlimit="4"/><path stroke-linecap="butt" transform="matrix(0.932385, -0.0631365, 0.0631365, 0.932385, 8.712834, 173.19529)" fill="none" stroke-linejoin="miter" d="M 5.06532 51.999887 L 12.732176 51.999547 C 13.159535 51.999159 13.494408 51.632209 13.494019 51.204851 L 13.494002 44.028191 C 13.493614 43.600833 13.830681 43.263358 14.26638 43.263535 L 18.86221 43.264717 C 19.289568 43.264328 19.622873 43.601113 19.623261 44.028471 L 19.625472 51.234606 C 19.62586 51.661964 19.963335 51.999031 20.394863 51.998925 L 28.06172 51.998586 C 28.489078 51.998198 28.823951 51.631248 28.82328 51.20806 L 28.825069 43.633517 C 28.822236 41.81926 27.507893 40.502728 25.693919 40.501391 L 25.425601 40.504169 C 24.989902 40.503992 24.656598 40.167208 24.656209 39.73985 C 24.656386 39.304151 24.993453 38.966676 25.424981 38.966571 L 25.697187 38.968245 C 27.506991 38.9693 28.823806 37.650787 28.82486 35.840983 L 28.822537 32.472446 C 28.824989 29.590218 26.714604 27.469856 23.832094 27.471575 L 5.067287 27.470341 C 4.631588 27.470164 4.294522 27.807639 4.294345 28.243338 L 4.295928 51.235568 C 4.296316 51.662926 4.629621 51.99971 5.06532 51.999887 Z M 14.266232 36.212551 C 13.830533 36.212374 13.493058 35.875308 13.492952 35.443779 C 13.492564 35.016421 13.829631 34.678946 14.26533 34.679123 L 18.86116 34.680305 C 19.288518 34.679917 19.625993 35.016984 19.626381 35.444342 C 19.626487 35.87587 19.28942 36.213345 18.862062 36.213733 Z M 31.153598 51.998476 L 54.149716 52.001345 C 54.577074 52.000957 54.91414 51.663483 54.913752 51.236125 L 54.910664 45.404094 C 54.910276 44.976736 54.543326 44.641863 54.120138 44.642534 L 40.324022 44.642593 C 39.888324 44.642416 39.550849 44.30535 39.550461 43.877992 C 39.550637 43.442293 39.887422 43.108989 40.32312 43.109165 L 52.921135 43.107577 C 53.348493 43.107189 53.685559 42.769714 53.685171 42.342356 L 53.686444 37.126482 C 53.686056 36.699124 53.319106 36.364251 52.891748 36.364639 L 40.323209 36.364033 C 39.88751 36.363857 39.550035 36.02679 39.553818 35.599714 C 39.553994 35.164016 39.890779 34.830711 40.322307 34.830605 L 54.147898 34.828352 C 54.575256 34.827964 54.912322 34.490489 54.911934 34.063131 L 54.912451 28.239724 C 54.912346 27.808196 54.574871 27.471129 54.147513 27.471517 L 31.12192 27.470842 C 30.690391 27.470947 30.353325 27.808422 30.35343 28.239951 L 30.354731 51.236351 C 30.350949 51.663426 30.72624 51.998864 31.153598 51.998476 Z M 62.700764 51.998036 L 80.208519 52.002128 C 80.631707 52.001458 80.97075 51.63479 80.970362 51.207432 L 80.969039 44.483152 C 80.972538 44.060247 80.635064 43.72318 80.207988 43.719398 L 66.411873 43.719458 C 65.976174 43.719281 65.642869 43.382497 65.642199 42.959309 L 65.642524 36.520029 C 65.642701 36.08433 65.979485 35.751025 66.411014 35.75092 L 80.207129 35.75086 C 80.634487 35.750472 80.96936 35.383522 80.968972 34.956164 L 80.971254 28.240507 C 80.971149 27.808979 80.633674 27.471912 80.206316 27.4723 L 62.698278 27.472378 C 59.082841 27.470551 56.440871 30.107012 56.442932 33.726903 L 56.442069 45.742407 C 56.439677 49.366186 59.085044 52.000379 62.700764 51.998036 Z M 88.755397 51.998537 L 96.17507 51.998217 C 99.798849 52.000609 102.432478 49.363583 102.430417 45.743693 L 102.431279 33.728189 C 102.433671 30.10441 99.796646 27.470781 96.177037 27.468671 L 88.757364 27.468991 C 85.141644 27.471334 82.499956 30.103625 82.497564 33.727403 L 82.500872 45.74319 C 82.49848 49.366969 85.139676 52.00088 88.755397 51.998537 Z M 92.471341 44.947817 C 92.035642 44.94764 91.698167 44.610574 91.697779 44.183216 L 91.696492 35.292953 C 91.696669 34.857254 92.033735 34.519779 92.469434 34.519956 C 92.89651 34.523738 93.234267 34.856634 93.23409 35.292333 L 93.230925 44.186484 C 93.231313 44.613842 92.894528 44.947146 92.471341 44.947817 Z M 104.759199 52.001337 L 112.392693 51.998739 C 112.820051 51.99835 113.156835 51.665046 113.156447 51.237688 L 113.158732 37.592554 C 113.158344 37.165196 113.495976 36.819381 113.927504 36.819275 C 114.354862 36.818887 114.691772 37.164294 114.69216 37.591652 L 114.694262 51.295737 C 114.692456 51.693619 115.061383 51.9993 115.455096 52.000823 L 123.121953 52.000483 C 123.524288 51.998401 123.892741 51.692378 123.890376 51.294213 L 123.892445 37.590411 C 123.892057 37.163053 124.229406 36.821408 124.656764 36.821019 C 125.088292 36.820914 125.425485 37.162151 125.425873 37.589509 L 125.427758 51.234925 C 125.428146 51.662283 125.794813 52.001326 126.218001 52.000656 L 133.855665 51.99834 C 134.282741 52.002122 134.619807 51.664647 134.619419 51.237289 L 134.618118 28.240889 C 134.618012 27.80936 134.251345 27.470317 133.823987 27.470705 L 120.823919 27.470205 C 120.396561 27.470593 120.057518 27.837261 120.057341 28.27296 L 120.058181 32.529576 C 120.05857 32.956934 119.721503 33.294409 119.289975 33.294514 C 118.862617 33.294902 118.525142 32.957836 118.524754 32.530478 L 118.526172 28.240498 C 118.526067 27.80897 118.159399 27.469927 117.732041 27.470315 L 104.727803 27.469532 C 104.296275 27.469638 103.959208 27.807113 103.959031 28.242812 L 103.960615 51.235042 C 103.956833 51.662117 104.331841 52.001725 104.759199 52.001337 Z M 136.947543 51.99823 L 144.584925 52.000084 C 145.012283 51.999696 145.345179 51.661939 145.348961 51.234863 L 145.347076 37.589447 C 145.346688 37.162089 145.684037 36.820444 146.119736 36.82062 C 146.542924 36.81995 146.879834 37.165357 146.880504 37.588545 L 146.882324 51.2968 C 146.880518 51.694682 147.249445 52.000362 147.643157 52.001886 L 155.310014 52.001546 C 155.71235 51.999464 156.080803 51.693441 156.082608 51.295558 L 156.080507 37.591474 C 156.080118 37.164116 156.41775 36.8183 156.845108 36.817912 C 157.280807 36.818089 157.617717 37.163496 157.613934 37.590572 L 157.615819 51.235988 C 157.616208 51.663346 157.983158 51.998219 158.410233 52.002001 L 166.043727 51.999403 C 166.471085 51.999014 166.808152 51.66154 166.807481 51.238352 L 166.80618 28.241952 C 166.806357 27.806253 166.439407 27.47138 166.012049 27.471768 L 153.011981 27.471268 C 152.584623 27.471656 152.24975 27.838606 152.249856 28.270135 L 152.250414 32.530921 C 152.246631 32.957997 151.913735 33.295754 151.478036 33.295577 C 151.050678 33.295965 150.713203 32.958899 150.712815 32.531541 L 150.714234 28.241561 C 150.714411 27.805863 150.347461 27.47099 149.920103 27.471378 L 136.920035 27.470878 C 136.484337 27.470701 136.14727 27.808176 136.147376 28.239704 L 136.148677 51.236105 C 136.149065 51.663463 136.520185 51.998618 136.947543 51.99823 Z M 169.139775 51.999575 L 192.132005 51.997992 C 192.559081 52.001774 192.896147 51.664299 192.895759 51.236941 L 192.896841 45.405193 C 192.896453 44.977835 192.529503 44.642962 192.102145 44.64335 L 178.306029 44.64341 C 177.874501 44.643516 177.537026 44.306449 177.536638 43.879091 C 177.536815 43.443392 177.873881 43.105917 178.30541 43.105812 L 190.903142 43.108394 C 191.3305 43.108006 191.667566 42.770531 191.667178 42.343173 L 191.668451 37.127299 C 191.668063 36.699941 191.301113 36.365068 190.874038 36.361285 L 178.305216 36.36485 C 177.873688 36.364956 177.536213 36.027889 177.535825 35.600531 C 177.536001 35.164832 177.873068 34.827358 178.308767 34.827534 L 192.134075 34.829452 C 192.561433 34.829063 192.89433 34.491306 192.898112 34.064231 L 192.894458 28.240541 C 192.894353 27.809013 192.561048 27.472228 192.13369 27.472617 L 169.108097 27.471941 C 168.672398 27.471764 168.335332 27.809239 168.335437 28.240767 L 168.336738 51.237168 C 168.337127 51.664526 168.712417 51.999963 169.139775 51.999575 Z M 195.228054 51.998165 L 202.861265 51.999736 C 203.288623 51.999348 203.62569 51.661873 203.625302 51.234515 L 203.623416 37.589099 C 203.622746 37.165912 203.960377 36.820096 204.396076 36.820273 C 204.823434 36.819885 205.160344 37.165292 205.160732 37.59265 L 205.160641 51.267259 C 205.159052 51.72381 205.496592 51.998038 205.953143 51.999627 L 222.786639 51.999957 C 223.222338 52.000134 223.559405 51.662659 223.559016 51.235301 L 223.557433 28.243071 C 223.55761 27.807372 223.220135 27.470305 222.788606 27.470411 L 215.12175 27.470751 C 214.694392 27.471139 214.357325 27.808614 214.357431 28.240142 L 214.357707 42.094926 C 214.358095 42.522284 214.021028 42.859758 213.5895 42.859864 C 213.162142 42.860252 212.824667 42.523186 212.824279 42.095828 L 212.82598 28.211851 C 212.825939 27.717484 212.486422 27.472449 212.021531 27.470295 L 195.196375 27.47053 C 194.760677 27.470353 194.42361 27.807828 194.423716 28.239357 L 194.425017 51.235757 C 194.425405 51.663115 194.800696 51.998553 195.228054 51.998165 Z M 225.853495 51.998153 L 238.757078 52.000498 C 242.381139 51.99872 245.014486 49.365865 245.016878 45.742086 L 245.01357 33.726299 C 245.015679 30.106691 242.378936 27.468892 238.759046 27.470953 L 225.851292 27.468325 C 225.419481 27.472601 225.082697 27.805905 225.08252 28.241604 L 225.079651 51.237722 C 225.080039 51.66508 225.417796 51.997976 225.853495 51.998153 Z M 235.053349 44.950098 C 234.61765 44.949922 234.280175 44.612855 234.279787 44.185497 L 234.282953 35.291346 C 234.282847 34.859818 234.619914 34.522343 235.051442 34.522237 C 235.4788 34.521849 235.816275 34.858916 235.816098 35.294614 L 235.817386 44.184877 C 235.817774 44.612235 235.480707 44.94971 235.053349 44.950098 Z M 247.34149 51.999448 L 254.978871 52.001302 C 255.402059 52.000632 255.739126 51.663157 255.738737 51.235799 L 255.740439 46.941649 C 255.740051 46.514291 256.077117 46.176816 256.512816 46.176993 C 256.940174 46.176605 257.275672 46.542864 257.27606 46.970222 L 257.276336 51.235179 C 257.276724 51.662537 257.643391 52.001581 258.066579 52.00091 L 265.704243 51.998594 C 266.139942 51.998771 266.472838 51.661013 266.476338 51.238108 L 266.47626 33.730071 C 266.474481 30.10601 263.841626 27.472663 260.217848 27.470271 L 252.798174 27.470591 C 249.182736 27.468764 246.540767 30.105224 246.542545 33.729285 L 246.542623 51.237323 C 246.543011 51.664681 246.914132 51.999836 247.34149 51.999448 Z M 256.512431 38.820158 C 256.076732 38.819981 255.739257 38.482915 255.739434 38.047216 L 255.741709 35.600686 C 255.741886 35.164988 256.078953 34.827513 256.510481 34.827407 C 256.937839 34.827019 257.275314 35.164086 257.275137 35.599784 L 257.277032 38.046596 C 257.276856 38.482295 256.939789 38.81977 256.512431 38.820158 Z M 273.425315 52.001926 L 281.062979 51.999609 C 281.498678 51.999786 281.833551 51.632836 281.833163 51.205478 L 281.834586 36.521283 C 281.834763 36.085584 282.201023 35.750086 282.628381 35.749698 L 285.695236 35.747894 C 286.122594 35.747506 286.459379 35.414202 286.45899 34.986844 L 286.459079 28.241712 C 286.461449 27.835488 286.121781 27.468946 285.694423 27.469334 L 268.77059 27.441939 C 268.339062 27.442045 268.001995 27.77952 268.002101 28.211048 L 268.000035 34.985373 C 268.000423 35.412731 268.337898 35.749798 268.773597 35.749974 L 271.832112 35.747606 C 272.267811 35.747782 272.634478 36.086826 272.634584 36.518354 L 272.635072 51.236195 C 272.63546 51.663553 273.00241 51.998426 273.425315 52.001926 Z M 288.788504 51.999053 L 296.425886 52.000907 C 296.853244 52.000519 297.18614 51.662762 297.189922 51.235686 L 297.188339 28.243456 C 297.188516 27.807757 296.821848 27.468714 296.39449 27.469102 L 288.760996 27.471701 C 288.325298 27.471524 287.988231 27.808999 287.988337 28.240527 L 287.989638 51.236927 C 287.990026 51.664285 288.361146 51.999441 288.788504 51.999053 Z M 304.976652 52.001768 L 312.392155 52.001166 C 316.016216 51.999387 318.653733 49.366815 318.651954 45.742754 L 318.652817 33.727249 C 318.650756 30.107359 316.018183 27.469842 312.394122 27.47162 L 304.974449 27.47194 C 301.359011 27.470113 298.717041 30.106573 298.719102 33.726464 L 298.718239 45.741968 C 298.720018 49.366029 301.361214 51.999941 304.976652 52.001768 Z M 308.688425 44.950766 C 308.252727 44.950589 307.919422 44.613805 307.919034 44.186447 L 307.918029 35.292014 C 307.917924 34.860485 308.25499 34.52301 308.690689 34.523187 C 309.113877 34.522517 309.451351 34.859583 309.451457 35.291112 L 309.452462 44.185545 C 309.45285 44.612903 309.115783 44.950378 308.688425 44.950766 Z M 320.980736 52.000398 L 328.613948 52.00197 C 329.041306 52.001582 329.378372 51.664107 329.377984 51.236749 L 329.376099 37.591333 C 329.375711 37.163975 329.713342 36.818159 330.149041 36.818336 C 330.576399 36.817948 330.913309 37.163355 330.913697 37.590713 L 330.913606 51.265322 C 330.912017 51.721873 331.249275 52.000272 331.705826 52.00186 L 348.539604 51.99802 C 348.975303 51.998197 349.312087 51.664892 349.311699 51.237534 L 349.310398 28.241134 C 349.310575 27.805435 348.9731 27.468369 348.541289 27.472645 L 340.874715 27.468814 C 340.447357 27.469202 340.11029 27.806677 340.110113 28.242376 L 340.11039 42.097159 C 340.110778 42.524517 339.773711 42.861992 339.342183 42.862098 C 338.914825 42.862486 338.57735 42.525419 338.576962 42.098061 L 338.574774 28.209632 C 338.578622 27.719718 338.239387 27.470512 337.774496 27.468359 L 320.949341 27.468593 C 320.513642 27.468417 320.176575 27.805891 320.176398 28.24159 L 320.177699 51.23799 C 320.17837 51.661178 320.553378 52.000786 320.980736 52.000398 Z M 351.606177 52.000386 L 369.114215 52.000308 C 372.729653 52.002135 375.363282 49.36511 375.365674 45.741331 L 375.363134 42.314126 C 375.365525 38.690348 372.7285 36.056719 369.113062 36.054892 L 360.805027 36.057899 C 360.369328 36.057722 360.031853 35.720655 360.031465 35.293297 C 360.031642 34.857598 360.368709 34.520124 360.804407 34.5203 L 374.600523 34.520241 C 375.027881 34.519853 375.364665 34.186548 375.364277 33.75919 L 375.365031 28.241635 C 375.365207 27.805936 375.027733 27.468869 374.600375 27.469257 L 357.092337 27.469335 C 353.476617 27.471679 350.83493 30.103969 350.832538 33.727748 L 350.834513 37.163293 C 350.832686 40.778731 353.478052 43.412925 357.09349 43.414752 L 365.401243 43.415916 C 365.828601 43.415527 366.161905 43.752312 366.166181 44.184122 C 366.162399 44.611198 365.825332 44.948673 365.402145 44.949343 L 351.606029 44.949403 C 351.17033 44.949226 350.833264 45.286701 350.833652 45.714059 L 350.832616 51.235785 C 350.833004 51.663143 351.170479 52.00021 351.606177 52.000386 Z M 351.606177 52.000386 " stroke="#ff2e9f" stroke-width="4.633339" stroke-opacity="1" stroke-miterlimit="4"/><g fill="#ffffff" fill-opacity="1"><g transform="translate(115.01453, 187.54024)"><g><path d="M 1.25 -0.078125 L 15.4375 -1.046875 C 18.375 -1.25 20.375 -3.53125 20.171875 -6.453125 L 19.984375 -9.25 C 19.78125 -12.171875 17.5 -14.171875 14.5625 -13.96875 L 7.828125 -13.515625 C 7.484375 -13.484375 7.1875 -13.75 7.15625 -14.09375 C 7.140625 -14.453125 7.40625 -14.734375 7.75 -14.765625 L 18.9375 -15.515625 C 19.28125 -15.546875 19.53125 -15.84375 19.515625 -16.1875 L 19.21875 -20.65625 C 19.1875 -21 18.890625 -21.265625 18.546875 -21.234375 L 4.34375 -20.28125 C 1.421875 -20.078125 -0.578125 -17.796875 -0.375 -14.875 L -0.1875 -12.078125 C 0.015625 -9.15625 2.296875 -7.15625 5.21875 -7.359375 L 11.96875 -7.8125 C 12.3125 -7.828125 12.59375 -7.578125 12.625 -7.234375 C 12.640625 -6.875 12.390625 -6.578125 12.046875 -6.5625 L 0.859375 -5.796875 C 0.5 -5.78125 0.25 -5.484375 0.28125 -5.140625 L 0.578125 -0.671875 C 0.609375 -0.328125 0.890625 -0.0625 1.25 -0.078125 Z M 1.25 -0.078125 "/></g></g></g><g fill="#ffffff" fill-opacity="1"><g transform="translate(136.140248, 186.10971)"><g><path d="M 1.265625 -0.078125 L 19.921875 -1.34375 C 20.265625 -1.375 20.515625 -1.671875 20.484375 -2.015625 L 20.171875 -6.734375 C 20.140625 -7.078125 19.828125 -7.34375 19.484375 -7.3125 L 8.296875 -6.5625 C 7.953125 -6.53125 7.65625 -6.78125 7.625 -7.140625 C 7.609375 -7.484375 7.875 -7.78125 8.21875 -7.8125 L 18.4375 -8.5 C 18.78125 -8.515625 19.046875 -8.8125 19.015625 -9.15625 L 18.734375 -13.390625 C 18.703125 -13.734375 18.390625 -13.96875 18.03125 -13.953125 L 7.84375 -13.265625 C 7.5 -13.234375 7.203125 -13.5 7.171875 -13.84375 C 7.15625 -14.203125 7.421875 -14.484375 7.765625 -14.515625 L 18.984375 -15.265625 C 19.328125 -15.296875 19.5625 -15.59375 19.546875 -15.9375 L 19.234375 -20.65625 C 19.203125 -21 18.921875 -21.265625 18.578125 -21.234375 L -0.09375 -19.96875 C -0.453125 -19.953125 -0.703125 -19.65625 -0.671875 -19.3125 L 0.578125 -0.671875 C 0.609375 -0.328125 0.921875 -0.0625 1.265625 -0.078125 Z M 1.265625 -0.078125 "/></g></g></g><g fill="#ffffff" fill-opacity="1"><g transform="translate(157.29082, 184.677498)"><g><path d="M 5.6875 -0.390625 L 19.890625 -1.34375 C 20.234375 -1.375 20.5 -1.6875 20.46875 -2.03125 L 20.109375 -7.484375 C 20.078125 -7.828125 19.78125 -8.09375 19.4375 -8.0625 L 8.25 -7.3125 C 7.90625 -7.28125 7.609375 -7.53125 7.578125 -7.890625 L 7.234375 -13.09375 C 7.203125 -13.453125 7.46875 -13.734375 7.8125 -13.765625 L 19 -14.515625 C 19.34375 -14.546875 19.609375 -14.859375 19.578125 -15.21875 L 19.21875 -20.65625 C 19.1875 -21 18.890625 -21.265625 18.546875 -21.234375 L 4.34375 -20.28125 C 1.421875 -20.078125 -0.578125 -17.796875 -0.375 -14.875 L 0.28125 -5.109375 C 0.484375 -2.1875 2.765625 -0.1875 5.6875 -0.390625 Z M 5.6875 -0.390625 "/></g></g></g><g fill="#ffffff" fill-opacity="1"><g transform="translate(178.416537, 183.246968)"><g><path d="M 5.6875 -0.390625 L 11.703125 -0.796875 C 14.640625 -0.984375 16.65625 -3.28125 16.453125 -6.203125 L 15.5 -20.40625 C 15.46875 -20.75 15.171875 -21.015625 14.828125 -20.984375 L 8.640625 -20.5625 C 8.28125 -20.546875 8 -20.234375 8.03125 -19.890625 L 8.828125 -7.96875 C 8.859375 -7.609375 8.609375 -7.328125 8.25 -7.3125 C 7.90625 -7.28125 7.609375 -7.53125 7.578125 -7.890625 L 6.78125 -19.8125 C 6.75 -20.15625 6.46875 -20.421875 6.125 -20.390625 L -0.078125 -19.96875 C -0.421875 -19.953125 -0.703125 -19.65625 -0.671875 -19.3125 L 0.28125 -5.109375 C 0.484375 -2.1875 2.765625 -0.1875 5.6875 -0.390625 Z M 5.6875 -0.390625 "/></g></g></g><g fill="#ffffff" fill-opacity="1"><g transform="translate(195.814182, 182.068886)"><g><path d="M 1.25 -0.078125 L 7.46875 -0.5 C 7.8125 -0.53125 8.0625 -0.84375 8.03125 -1.1875 L 7.640625 -7.015625 C 7.609375 -7.359375 7.875 -7.65625 8.21875 -7.6875 L 11.953125 -7.9375 C 12.296875 -7.953125 12.578125 -7.703125 12.609375 -7.359375 L 13 -1.515625 C 13.03125 -1.171875 13.328125 -0.90625 13.671875 -0.921875 L 19.890625 -1.34375 C 20.234375 -1.375 20.5 -1.6875 20.46875 -2.03125 L 20.0625 -8.171875 C 19.953125 -9.65625 18.8125 -10.640625 17.34375 -10.546875 L 17.125 -10.53125 C 16.78125 -10.5 16.46875 -10.765625 16.453125 -11.109375 C 16.421875 -11.4375 16.6875 -11.734375 17.03125 -11.765625 L 17.25 -11.78125 C 18.71875 -11.875 19.734375 -13.015625 19.625 -14.5 L 19.4375 -17.234375 C 19.28125 -19.5625 17.453125 -21.15625 15.125 -21 L -0.09375 -19.96875 C -0.453125 -19.953125 -0.703125 -19.65625 -0.671875 -19.3125 L 0.578125 -0.671875 C 0.609375 -0.328125 0.890625 -0.0625 1.25 -0.078125 Z M 7.84375 -13.390625 C 7.5 -13.359375 7.1875 -13.625 7.171875 -13.96875 C 7.140625 -14.328125 7.40625 -14.609375 7.75 -14.640625 L 11.484375 -14.890625 C 11.828125 -14.90625 12.109375 -14.671875 12.140625 -14.3125 C 12.15625 -13.96875 11.921875 -13.65625 11.578125 -13.640625 Z M 7.84375 -13.390625 "/></g></g></g><g fill="#ffffff" fill-opacity="1"><g transform="translate(216.9399, 180.638356)"><g><path d="M 1.265625 -0.078125 L 7.46875 -0.5 C 7.8125 -0.53125 8.0625 -0.828125 8.03125 -1.171875 L 6.78125 -19.8125 C 6.75 -20.15625 6.4375 -20.421875 6.09375 -20.390625 L -0.09375 -19.96875 C -0.453125 -19.953125 -0.703125 -19.65625 -0.671875 -19.3125 L 0.578125 -0.671875 C 0.609375 -0.328125 0.921875 -0.0625 1.265625 -0.078125 Z M 1.265625 -0.078125 "/></g></g></g><g fill="#ffffff" fill-opacity="1"><g transform="translate(225.638722, 180.049315)"><g><path d="M 5.015625 -0.34375 L 11.203125 -0.765625 C 11.5625 -0.78125 11.8125 -1.09375 11.78125 -1.4375 L 10.984375 -13.34375 C 10.953125 -13.703125 11.234375 -14 11.59375 -14.015625 L 14.078125 -14.1875 C 14.4375 -14.203125 14.6875 -14.515625 14.65625 -14.859375 L 14.296875 -20.328125 C 14.265625 -20.65625 13.984375 -20.921875 13.625 -20.90625 L -0.09375 -20 C -0.453125 -19.984375 -0.703125 -19.6875 -0.6875 -19.34375 L -0.3125 -13.84375 C -0.28125 -13.5 0 -13.234375 0.359375 -13.25 L 2.828125 -13.421875 C 3.1875 -13.453125 3.5 -13.203125 3.53125 -12.84375 L 4.328125 -0.921875 C 4.359375 -0.578125 4.671875 -0.3125 5.015625 -0.34375 Z M 5.015625 -0.34375 "/></g></g></g><g fill="#ffffff" fill-opacity="1"><g transform="translate(241.843386, 178.952015)"><g><path d="M 5.640625 -0.375 L 11.828125 -0.796875 C 12.1875 -0.828125 12.4375 -1.125 12.40625 -1.46875 L 11.953125 -8.1875 C 11.9375 -8.53125 12.203125 -8.8125 12.546875 -8.84375 L 15.6875 -9.046875 C 16.015625 -9.078125 16.28125 -9.34375 16.265625 -9.671875 L 15.546875 -20.3125 C 15.515625 -20.734375 15.25 -21.015625 14.84375 -20.984375 L 8.65625 -20.5625 C 8.3125 -20.546875 8.046875 -20.25 8.0625 -19.9375 L 8.40625 -14.96875 C 8.4375 -14.5625 8.15625 -14.28125 7.8125 -14.265625 C 7.46875 -14.234375 7.140625 -14.46875 7.109375 -14.875 L 6.765625 -19.84375 C 6.75 -20.15625 6.46875 -20.421875 6.125 -20.390625 L -0.078125 -19.96875 C -0.46875 -19.953125 -0.703125 -19.640625 -0.671875 -19.21875 L 0.046875 -8.578125 C 0.0625 -8.25 0.390625 -8.015625 0.71875 -8.03125 L 3.84375 -8.25 C 4.1875 -8.265625 4.484375 -8.03125 4.5 -7.6875 L 4.953125 -0.96875 C 4.984375 -0.625 5.296875 -0.359375 5.640625 -0.375 Z M 5.640625 -0.375 "/></g></g></g><g fill="#ffffff" fill-opacity="1"><g transform="translate(15.288414, 221.456336)"><g><path d="M 1.4375 -0.09375 L 8.578125 -0.578125 C 8.984375 -0.609375 9.28125 -0.96875 9.25 -1.375 L 8.796875 -8.0625 C 8.765625 -8.46875 9.0625 -8.8125 9.46875 -8.828125 L 13.75 -9.125 C 14.15625 -9.15625 14.484375 -8.859375 14.515625 -8.453125 L 14.96875 -1.734375 C 15 -1.328125 15.328125 -1.03125 15.734375 -1.0625 L 22.875 -1.546875 C 23.28125 -1.578125 23.578125 -1.9375 23.546875 -2.34375 L 23.0625 -9.40625 C 22.953125 -11.09375 21.640625 -12.234375 19.953125 -12.125 L 19.6875 -12.09375 C 19.296875 -12.078125 18.953125 -12.359375 18.921875 -12.765625 C 18.90625 -13.15625 19.1875 -13.5 19.578125 -13.515625 L 19.84375 -13.546875 C 21.53125 -13.65625 22.6875 -14.96875 22.578125 -16.671875 L 22.359375 -19.796875 C 22.171875 -22.5 20.078125 -24.34375 17.375 -24.15625 L -0.109375 -22.96875 C -0.515625 -22.9375 -0.8125 -22.609375 -0.78125 -22.203125 L 0.671875 -0.765625 C 0.703125 -0.359375 1.03125 -0.0625 1.4375 -0.09375 Z M 9.015625 -15.40625 C 8.609375 -15.390625 8.28125 -15.671875 8.25 -16.0625 C 8.21875 -16.46875 8.515625 -16.8125 8.921875 -16.828125 L 13.203125 -17.125 C 13.609375 -17.15625 13.9375 -16.859375 13.96875 -16.453125 C 14 -16.0625 13.703125 -15.734375 13.296875 -15.703125 Z M 9.015625 -15.40625 "/></g></g></g><g fill="#ffffff" fill-opacity="1"><g transform="translate(39.58439, 219.811133)"><g><path d="M 1.46875 -0.09375 L 22.90625 -1.546875 C 23.3125 -1.578125 23.609375 -1.90625 23.578125 -2.3125 L 23.203125 -7.734375 C 23.1875 -8.140625 22.8125 -8.4375 22.40625 -8.40625 L 9.546875 -7.53125 C 9.140625 -7.515625 8.8125 -7.796875 8.78125 -8.203125 C 8.75 -8.609375 9.046875 -8.953125 9.453125 -8.96875 L 21.203125 -9.765625 C 21.59375 -9.796875 21.90625 -10.125 21.875 -10.53125 L 21.546875 -15.375 C 21.515625 -15.78125 21.15625 -16.078125 20.75 -16.046875 L 9.03125 -15.25 C 8.625 -15.234375 8.28125 -15.53125 8.265625 -15.921875 C 8.234375 -16.328125 8.53125 -16.671875 8.9375 -16.6875 L 21.828125 -17.5625 C 22.234375 -17.59375 22.515625 -17.921875 22.5 -18.328125 L 22.125 -23.75 C 22.09375 -24.15625 21.765625 -24.453125 21.359375 -24.421875 L -0.109375 -22.96875 C -0.515625 -22.9375 -0.8125 -22.609375 -0.78125 -22.203125 L 0.671875 -0.765625 C 0.703125 -0.359375 1.0625 -0.078125 1.46875 -0.09375 Z M 1.46875 -0.09375 "/></g></g></g><g fill="#ffffff" fill-opacity="1"><g transform="translate(63.908949, 218.163993)"><g><path d="M 6.546875 -0.4375 L 22.875 -1.546875 C 23.28125 -1.578125 23.578125 -1.9375 23.546875 -2.34375 L 23.125 -8.59375 C 23.09375 -9 22.765625 -9.296875 22.359375 -9.265625 L 9.5 -8.390625 C 9.09375 -8.375 8.75 -8.65625 8.71875 -9.0625 L 8.3125 -15.0625 C 8.296875 -15.46875 8.578125 -15.8125 8.984375 -15.828125 L 21.84375 -16.703125 C 22.25 -16.734375 22.546875 -17.09375 22.515625 -17.5 L 22.09375 -23.75 C 22.0625 -24.15625 21.734375 -24.453125 21.328125 -24.421875 L 5 -23.3125 C 1.640625 -23.09375 -0.65625 -20.453125 -0.4375 -17.078125 L 0.328125 -5.875 C 0.546875 -2.515625 3.1875 -0.21875 6.546875 -0.4375 Z M 6.546875 -0.4375 "/></g></g></g><g fill="#ffffff" fill-opacity="1"><g transform="translate(88.204925, 216.51879)"><g><path d="M 6.546875 -0.4375 L 13.46875 -0.90625 C 16.84375 -1.140625 19.125 -3.78125 18.90625 -7.140625 L 18.140625 -18.34375 C 17.921875 -21.71875 15.296875 -24.015625 11.921875 -23.78125 L 5 -23.3125 C 1.640625 -23.09375 -0.65625 -20.453125 -0.4375 -17.078125 L 0.328125 -5.875 C 0.546875 -2.515625 3.1875 -0.21875 6.546875 -0.4375 Z M 9.5625 -7.25 C 9.15625 -7.234375 8.828125 -7.515625 8.796875 -7.921875 L 8.234375 -16.21875 C 8.21875 -16.609375 8.5 -16.953125 8.90625 -16.96875 C 9.296875 -17 9.640625 -16.703125 9.65625 -16.3125 L 10.21875 -8.015625 C 10.25 -7.609375 9.953125 -7.28125 9.5625 -7.25 Z M 9.5625 -7.25 "/></g></g></g><g fill="#ffffff" fill-opacity="1"><g transform="translate(108.213377, 215.163916)"><g><path d="M 1.46875 -0.09375 L 8.578125 -0.578125 C 8.984375 -0.609375 9.28125 -0.9375 9.25 -1.34375 L 8.390625 -14.0625 C 8.359375 -14.46875 8.65625 -14.8125 9.0625 -14.828125 C 9.453125 -14.859375 9.78125 -14.5625 9.8125 -14.15625 L 10.671875 -1.375 C 10.703125 -1 11.0625 -0.75 11.4375 -0.78125 L 18.578125 -1.265625 C 18.953125 -1.28125 19.28125 -1.59375 19.25 -1.96875 L 18.390625 -14.75 C 18.359375 -15.15625 18.65625 -15.484375 19.0625 -15.515625 C 19.453125 -15.53125 19.796875 -15.25 19.828125 -14.84375 L 20.6875 -2.125 C 20.71875 -1.71875 21.078125 -1.421875 21.46875 -1.453125 L 28.59375 -1.9375 C 29 -1.96875 29.296875 -2.296875 29.265625 -2.703125 L 27.8125 -24.140625 C 27.78125 -24.546875 27.421875 -24.84375 27.015625 -24.8125 L 14.90625 -23.984375 C 14.5 -23.96875 14.203125 -23.59375 14.234375 -23.203125 L 14.5 -19.21875 C 14.53125 -18.8125 14.234375 -18.484375 13.828125 -18.453125 C 13.421875 -18.421875 13.09375 -18.71875 13.0625 -19.125 L 12.796875 -23.125 C 12.765625 -23.53125 12.40625 -23.8125 12 -23.796875 L -0.109375 -22.96875 C -0.515625 -22.9375 -0.8125 -22.609375 -0.78125 -22.203125 L 0.671875 -0.765625 C 0.703125 -0.359375 1.0625 -0.078125 1.46875 -0.09375 Z M 1.46875 -0.09375 "/></g></g></g><g fill="#ffffff" fill-opacity="1"><g transform="translate(138.226041, 213.131606)"><g><path d="M 1.46875 -0.09375 L 8.578125 -0.578125 C 8.984375 -0.609375 9.28125 -0.9375 9.25 -1.34375 L 8.390625 -14.0625 C 8.359375 -14.46875 8.65625 -14.8125 9.0625 -14.828125 C 9.453125 -14.859375 9.78125 -14.5625 9.8125 -14.15625 L 10.671875 -1.375 C 10.703125 -1 11.0625 -0.75 11.4375 -0.78125 L 18.578125 -1.265625 C 18.953125 -1.28125 19.28125 -1.59375 19.25 -1.96875 L 18.390625 -14.75 C 18.359375 -15.15625 18.65625 -15.484375 19.0625 -15.515625 C 19.453125 -15.53125 19.796875 -15.25 19.828125 -14.84375 L 20.6875 -2.125 C 20.71875 -1.71875 21.078125 -1.421875 21.46875 -1.453125 L 28.59375 -1.9375 C 29 -1.96875 29.296875 -2.296875 29.265625 -2.703125 L 27.8125 -24.140625 C 27.78125 -24.546875 27.421875 -24.84375 27.015625 -24.8125 L 14.90625 -23.984375 C 14.5 -23.96875 14.203125 -23.59375 14.234375 -23.203125 L 14.5 -19.21875 C 14.53125 -18.8125 14.234375 -18.484375 13.828125 -18.453125 C 13.421875 -18.421875 13.09375 -18.71875 13.0625 -19.125 L 12.796875 -23.125 C 12.765625 -23.53125 12.40625 -23.8125 12 -23.796875 L -0.109375 -22.96875 C -0.515625 -22.9375 -0.8125 -22.609375 -0.78125 -22.203125 L 0.671875 -0.765625 C 0.703125 -0.359375 1.0625 -0.078125 1.46875 -0.09375 Z M 1.46875 -0.09375 "/></g></g></g><g fill="#ffffff" fill-opacity="1"><g transform="translate(168.238706, 211.099297)"><g><path d="M 1.46875 -0.09375 L 22.90625 -1.546875 C 23.3125 -1.578125 23.609375 -1.90625 23.578125 -2.3125 L 23.203125 -7.734375 C 23.1875 -8.140625 22.8125 -8.4375 22.40625 -8.40625 L 9.546875 -7.53125 C 9.140625 -7.515625 8.8125 -7.796875 8.78125 -8.203125 C 8.75 -8.609375 9.046875 -8.953125 9.453125 -8.96875 L 21.203125 -9.765625 C 21.59375 -9.796875 21.90625 -10.125 21.875 -10.53125 L 21.546875 -15.375 C 21.515625 -15.78125 21.15625 -16.078125 20.75 -16.046875 L 9.03125 -15.25 C 8.625 -15.234375 8.28125 -15.53125 8.265625 -15.921875 C 8.234375 -16.328125 8.53125 -16.671875 8.9375 -16.6875 L 21.828125 -17.5625 C 22.234375 -17.59375 22.515625 -17.921875 22.5 -18.328125 L 22.125 -23.75 C 22.09375 -24.15625 21.765625 -24.453125 21.359375 -24.421875 L -0.109375 -22.96875 C -0.515625 -22.9375 -0.8125 -22.609375 -0.78125 -22.203125 L 0.671875 -0.765625 C 0.703125 -0.359375 1.0625 -0.078125 1.46875 -0.09375 Z M 1.46875 -0.09375 "/></g></g></g><g fill="#ffffff" fill-opacity="1"><g transform="translate(192.563264, 209.452157)"><g><path d="M 1.46875 -0.09375 L 8.578125 -0.578125 C 8.984375 -0.609375 9.28125 -0.9375 9.25 -1.34375 L 8.390625 -14.0625 C 8.359375 -14.46875 8.65625 -14.8125 9.0625 -14.828125 C 9.453125 -14.859375 9.78125 -14.5625 9.8125 -14.15625 L 10.671875 -1.40625 C 10.703125 -0.984375 11.03125 -0.75 11.453125 -0.78125 L 27.15625 -1.84375 C 27.5625 -1.859375 27.859375 -2.203125 27.828125 -2.609375 L 26.375 -24.046875 C 26.34375 -24.453125 26.015625 -24.734375 25.609375 -24.71875 L 18.46875 -24.234375 C 18.0625 -24.203125 17.765625 -23.875 17.796875 -23.46875 L 18.671875 -10.546875 C 18.703125 -10.15625 18.40625 -9.8125 18 -9.796875 C 17.59375 -9.765625 17.265625 -10.046875 17.234375 -10.4375 L 16.359375 -23.390625 C 16.328125 -23.859375 16 -24.0625 15.578125 -24.03125 L -0.109375 -22.96875 C -0.515625 -22.9375 -0.8125 -22.609375 -0.78125 -22.203125 L 0.671875 -0.765625 C 0.703125 -0.359375 1.0625 -0.078125 1.46875 -0.09375 Z M 1.46875 -0.09375 "/></g></g></g><g fill="#ffffff" fill-opacity="1"><g transform="translate(221.146764, 207.516624)"><g><path d="M 1.4375 -0.09375 L 13.46875 -0.90625 C 16.84375 -1.140625 19.125 -3.78125 18.90625 -7.140625 L 18.140625 -18.34375 C 17.921875 -21.71875 15.296875 -24.015625 11.921875 -23.78125 L -0.109375 -22.96875 C -0.515625 -22.9375 -0.8125 -22.609375 -0.78125 -22.203125 L 0.671875 -0.765625 C 0.703125 -0.359375 1.03125 -0.0625 1.4375 -0.09375 Z M 9.5625 -7.25 C 9.15625 -7.234375 8.828125 -7.515625 8.796875 -7.921875 L 8.234375 -16.21875 C 8.21875 -16.609375 8.5 -16.953125 8.90625 -16.96875 C 9.296875 -17 9.640625 -16.703125 9.65625 -16.3125 L 10.21875 -8.015625 C 10.25 -7.609375 9.953125 -7.28125 9.5625 -7.25 Z M 9.5625 -7.25 "/></g></g></g><g fill="#ffffff" fill-opacity="1"><g transform="translate(241.155216, 206.16175)"><g><path d="M 1.46875 -0.09375 L 8.578125 -0.578125 C 8.984375 -0.609375 9.28125 -0.9375 9.25 -1.34375 L 8.984375 -5.34375 C 8.953125 -5.734375 9.234375 -6.078125 9.640625 -6.09375 C 10.03125 -6.125 10.375 -5.796875 10.40625 -5.40625 L 10.671875 -1.4375 C 10.703125 -1.03125 11.0625 -0.75 11.453125 -0.78125 L 18.578125 -1.265625 C 18.984375 -1.28125 19.28125 -1.625 19.25 -2.03125 L 18.140625 -18.34375 C 17.921875 -21.71875 15.296875 -24.015625 11.921875 -23.78125 L 5 -23.3125 C 1.640625 -23.09375 -0.65625 -20.453125 -0.4375 -17.078125 L 0.671875 -0.765625 C 0.703125 -0.359375 1.0625 -0.078125 1.46875 -0.09375 Z M 9.1875 -12.96875 C 8.78125 -12.953125 8.4375 -13.234375 8.421875 -13.625 L 8.265625 -15.921875 C 8.234375 -16.328125 8.53125 -16.671875 8.9375 -16.6875 C 9.328125 -16.71875 9.65625 -16.421875 9.6875 -16.015625 L 9.84375 -13.71875 C 9.859375 -13.328125 9.578125 -13 9.1875 -12.96875 Z M 9.1875 -12.96875 "/></g></g></g><g fill="#ffffff" fill-opacity="1"><g transform="translate(261.163668, 204.806876)"><g><path d="M 5.765625 -0.390625 L 12.890625 -0.875 C 13.296875 -0.90625 13.59375 -1.265625 13.5625 -1.671875 L 12.625 -15.359375 C 12.609375 -15.765625 12.921875 -16.09375 13.328125 -16.125 L 16.171875 -16.328125 C 16.578125 -16.34375 16.875 -16.6875 16.84375 -17.09375 L 16.421875 -23.375 C 16.390625 -23.75 16.0625 -24.0625 15.65625 -24.046875 L -0.109375 -23 C -0.515625 -22.96875 -0.8125 -22.640625 -0.78125 -22.234375 L -0.359375 -15.921875 C -0.328125 -15.515625 0 -15.21875 0.40625 -15.25 L 3.25 -15.453125 C 3.65625 -15.46875 4.03125 -15.1875 4.046875 -14.78125 L 4.984375 -1.0625 C 5.015625 -0.65625 5.375 -0.359375 5.765625 -0.390625 Z M 5.765625 -0.390625 "/></g></g></g><g fill="#ffffff" fill-opacity="1"><g transform="translate(279.800121, 203.544907)"><g><path d="M 1.46875 -0.09375 L 8.578125 -0.578125 C 8.984375 -0.609375 9.28125 -0.9375 9.25 -1.34375 L 7.796875 -22.78125 C 7.765625 -23.1875 7.40625 -23.484375 7 -23.453125 L -0.109375 -22.96875 C -0.515625 -22.9375 -0.8125 -22.609375 -0.78125 -22.203125 L 0.671875 -0.765625 C 0.703125 -0.359375 1.0625 -0.078125 1.46875 -0.09375 Z M 1.46875 -0.09375 "/></g></g></g><g fill="#ffffff" fill-opacity="1"><g transform="translate(289.804361, 202.86747)"><g><path d="M 6.546875 -0.4375 L 13.46875 -0.90625 C 16.84375 -1.140625 19.125 -3.78125 18.90625 -7.140625 L 18.140625 -18.34375 C 17.921875 -21.71875 15.296875 -24.015625 11.921875 -23.78125 L 5 -23.3125 C 1.640625 -23.09375 -0.65625 -20.453125 -0.4375 -17.078125 L 0.328125 -5.875 C 0.546875 -2.515625 3.1875 -0.21875 6.546875 -0.4375 Z M 9.5625 -7.25 C 9.15625 -7.234375 8.828125 -7.515625 8.796875 -7.921875 L 8.234375 -16.21875 C 8.21875 -16.609375 8.5 -16.953125 8.90625 -16.96875 C 9.296875 -17 9.640625 -16.703125 9.65625 -16.3125 L 10.21875 -8.015625 C 10.25 -7.609375 9.953125 -7.28125 9.5625 -7.25 Z M 9.5625 -7.25 "/></g></g></g><g fill="#ffffff" fill-opacity="1"><g transform="translate(309.812813, 201.512596)"><g><path d="M 1.46875 -0.09375 L 8.578125 -0.578125 C 8.984375 -0.609375 9.28125 -0.9375 9.25 -1.34375 L 8.390625 -14.0625 C 8.359375 -14.46875 8.65625 -14.8125 9.0625 -14.828125 C 9.453125 -14.859375 9.78125 -14.5625 9.8125 -14.15625 L 10.671875 -1.40625 C 10.703125 -0.984375 11.03125 -0.75 11.453125 -0.78125 L 27.15625 -1.84375 C 27.5625 -1.859375 27.859375 -2.203125 27.828125 -2.609375 L 26.375 -24.046875 C 26.34375 -24.453125 26.015625 -24.734375 25.609375 -24.71875 L 18.46875 -24.234375 C 18.0625 -24.203125 17.765625 -23.875 17.796875 -23.46875 L 18.671875 -10.546875 C 18.703125 -10.15625 18.40625 -9.8125 18 -9.796875 C 17.59375 -9.765625 17.265625 -10.046875 17.234375 -10.4375 L 16.359375 -23.390625 C 16.328125 -23.859375 16 -24.0625 15.578125 -24.03125 L -0.109375 -22.96875 C -0.515625 -22.9375 -0.8125 -22.609375 -0.78125 -22.203125 L 0.671875 -0.765625 C 0.703125 -0.359375 1.0625 -0.078125 1.46875 -0.09375 Z M 1.46875 -0.09375 "/></g></g></g><g fill="#ffffff" fill-opacity="1"><g transform="translate(338.396313, 199.577062)"><g><path d="M 1.4375 -0.09375 L 17.75 -1.203125 C 21.125 -1.4375 23.421875 -4.0625 23.203125 -7.421875 L 22.984375 -10.640625 C 22.75 -14 20.125 -16.3125 16.75 -16.078125 L 9.015625 -15.546875 C 8.609375 -15.53125 8.265625 -15.8125 8.234375 -16.21875 C 8.21875 -16.609375 8.5 -16.953125 8.90625 -16.96875 L 21.765625 -17.84375 C 22.171875 -17.875 22.46875 -18.21875 22.4375 -18.609375 L 22.09375 -23.75 C 22.0625 -24.15625 21.734375 -24.453125 21.328125 -24.421875 L 5 -23.3125 C 1.640625 -23.09375 -0.65625 -20.453125 -0.4375 -17.078125 L -0.21875 -13.890625 C 0.015625 -10.5 2.640625 -8.234375 6 -8.453125 L 13.75 -8.984375 C 14.15625 -9.015625 14.5 -8.703125 14.515625 -8.3125 C 14.546875 -7.90625 14.25 -7.578125 13.84375 -7.546875 L 0.984375 -6.671875 C 0.578125 -6.640625 0.296875 -6.3125 0.328125 -5.90625 L 0.671875 -0.765625 C 0.703125 -0.359375 1.03125 -0.0625 1.4375 -0.09375 Z M 1.4375 -0.09375 "/></g></g></g></svg>