<?xml version="1.0" encoding="iso-8859-1"?>
<!-- Generator: Adobe Illustrator 23.0.3, SVG Export Plug-In . SVG Version: 6.00 Build 0)  -->
<svg version="1.1" id="Layer_1" xmlns="http://www.w3.org/2000/svg" xmlns:xlink="http://www.w3.org/1999/xlink" x="0px" y="0px"
	 viewBox="0 0 48 48" style="enable-background:new 0 0 48 48;" xml:space="preserve">
<g>
	<path style="fill:#ECEFF1;" d="M24,4c-4.492,0-8.625,1.499-11.964,4h23.927C32.625,5.499,28.492,4,24,4z"/>
	<path style="fill:#ECEFF1;" d="M44,24c0-4.509-1.51-8.655-4.027-12H8.027C5.51,15.345,4,19.491,4,24c0,4.509,1.51,8.655,4.027,12
		h31.946C42.49,32.655,44,28.509,44,24z"/>
	<path style="fill:#ECEFF1;" d="M12.036,40c3.339,2.501,7.471,4,11.964,4s8.625-1.499,11.964-4H12.036z"/>
	<path style="fill:#3F51B5;" d="M39.973,36H8.027c1.141,1.517,2.49,2.862,4.009,4h23.927C37.483,38.862,38.831,37.517,39.973,36z"/>
	<path style="fill:#3F51B5;" d="M35.964,8H12.036c-1.519,1.138-2.868,2.483-4.009,4h31.946C38.831,10.483,37.483,9.138,35.964,8z"/>
</g>
<path style="fill:#3F51B5;" d="M17.008,28h4.668l1.461,2.504L24,31.984l0.863-1.48L26.324,28h4.668l-0.879-1.504L28.656,24
	l1.457-2.496L30.992,20h-4.668l-1.461-2.504L24,16.016l-0.863,1.48L21.676,20h-4.668l0.879,1.504L19.344,24l-1.457,2.496L17.008,28z
	 M24,30l-1.168-2h2.332L24,30z M22.25,27l-1.75-3l1.75-3h3.5l1.75,3l-1.75,3H22.25z M29.25,27h-2.344l1.172-2.008L29.25,27z
	 M29.25,21l-1.172,2.008L26.906,21H29.25z M24,18l1.168,2h-2.332L24,18z M18.75,21h2.344l-1.172,2.008L18.75,21z M19.922,24.992
	L21.094,27H18.75L19.922,24.992z"/>
</svg>