<svg xmlns="http://www.w3.org/2000/svg" xmlns:xlink="http://www.w3.org/1999/xlink" width="500" zoomAndPan="magnify" viewBox="0 0 375 374.999991" height="500" preserveAspectRatio="xMidYMid meet" version="1.0"><defs><g/><clipPath id="e9abbf33e4"><path d="M 52 72.214844 L 320 72.214844 L 320 300.964844 L 52 300.964844 Z M 52 72.214844 " clip-rule="nonzero"/></clipPath><clipPath id="dafe2eaba7"><path d="M 52 72.214844 L 320 72.214844 L 320 300.964844 L 52 300.964844 Z M 52 72.214844 " clip-rule="nonzero"/></clipPath><clipPath id="95cd07edb1"><path d="M 10.136719 77.195312 L 82.605469 77.195312 L 82.605469 144.695312 L 10.136719 144.695312 Z M 10.136719 77.195312 " clip-rule="nonzero"/></clipPath><clipPath id="ca20352511"><path d="M 83.511719 217 L 304 217 L 304 276.964844 L 83.511719 276.964844 Z M 83.511719 217 " clip-rule="nonzero"/></clipPath><clipPath id="974094e180"><path d="M 278.523438 245.992188 L 329.523438 245.992188 L 329.523438 293.242188 L 278.523438 293.242188 Z M 278.523438 245.992188 " clip-rule="nonzero"/></clipPath></defs><path fill="#ec297b" d="M 184.164062 272.417969 C 176.46875 265.671875 168.53125 258.691406 159.964844 251.949219 C 152.03125 245.679688 143.859375 239.648438 135.84375 233.777344 C 128.785156 228.542969 121.40625 223.148438 114.421875 217.753906 C 92.445312 200.613281 80.625 183.160156 77.371094 163.007812 C 74.914062 148.171875 77.214844 133.652344 83.796875 122.148438 C 91.257812 109.136719 103.554688 100.726562 120.292969 97.078125 C 123.46875 96.363281 126.484375 96.046875 129.417969 96.046875 C 139.734375 96.046875 149.253906 100.089844 158.535156 108.5 C 162.898438 112.46875 166.945312 117.148438 171.230469 122.070312 C 173.292969 124.449219 175.355469 126.910156 177.578125 129.289062 C 179.800781 131.75 183.050781 133.175781 186.382812 133.175781 C 186.464844 133.175781 186.542969 133.175781 186.621094 133.175781 C 190.035156 133.097656 193.285156 131.589844 195.507812 128.972656 C 197.175781 127.066406 198.761719 125.082031 200.347656 123.101562 C 203.679688 118.972656 206.933594 115.007812 210.34375 111.4375 C 220.105469 101.28125 231.449219 96.125 243.984375 96.125 C 265.644531 96.125 284.6875 111.597656 290.558594 126.589844 C 301.269531 153.804688 296.269531 178.558594 275.722656 200.21875 C 265.882812 210.53125 254.300781 219.417969 242.082031 228.859375 C 236.765625 232.90625 231.289062 237.109375 225.976562 241.476562 C 214.945312 250.441406 203.679688 259.5625 192.8125 268.371094 C 190.511719 270.195312 188.210938 272.101562 185.988281 273.925781 C 185.433594 273.449219 184.796875 272.894531 184.164062 272.417969 Z M 184.164062 272.417969 " fill-opacity="1" fill-rule="nonzero"/><path fill="#ed83b5" d="M 129.417969 107.945312 C 136.636719 107.945312 143.542969 111.039062 150.601562 117.386719 C 154.410156 120.878906 158.21875 125.242188 162.265625 129.921875 C 164.328125 132.382812 166.550781 134.84375 168.851562 137.382812 C 173.371094 142.378906 179.800781 145.15625 186.464844 145.15625 C 186.621094 145.15625 186.78125 145.15625 186.859375 145.15625 C 193.683594 144.996094 200.191406 141.984375 204.632812 136.667969 C 206.296875 134.683594 207.964844 132.621094 209.550781 130.636719 C 212.726562 126.671875 215.820312 122.941406 218.914062 119.6875 C 226.371094 111.914062 234.78125 108.027344 243.90625 108.027344 C 251.285156 108.027344 259.140625 110.5625 265.960938 115.246094 C 272.308594 119.53125 277.226562 125.242188 279.449219 130.875 C 283.972656 142.378906 285.242188 153.328125 283.179688 163.324219 C 281.117188 173.242188 275.722656 182.84375 266.992188 191.96875 C 257.789062 201.644531 246.601562 210.214844 234.78125 219.339844 C 229.386719 223.464844 223.832031 227.75 218.4375 232.191406 C 207.726562 240.917969 196.777344 249.726562 186.226562 258.292969 C 180.195312 253.058594 173.929688 247.664062 167.265625 242.425781 C 159.171875 236 150.839844 229.96875 142.828125 224.019531 C 135.449219 218.625 128.546875 213.546875 121.722656 208.152344 C 102.207031 192.917969 91.8125 177.921875 89.035156 160.867188 C 87.050781 148.726562 88.875 136.984375 94.113281 127.859375 C 99.824219 117.863281 109.503906 111.359375 122.832031 108.5 C 125.132812 108.183594 127.355469 107.945312 129.417969 107.945312 M 129.417969 84.144531 C 125.691406 84.144531 121.800781 84.539062 117.835938 85.414062 C 74.753906 94.777344 60.234375 131.75 65.710938 164.910156 C 69.992188 191.253906 86.335938 210.851562 107.203125 227.113281 C 122.121094 238.777344 137.75 249.488281 152.585938 261.230469 C 164.40625 270.59375 175.515625 280.828125 185.671875 289.476562 C 201.539062 276.621094 217.566406 263.691406 233.511719 250.679688 C 250.648438 236.714844 269.375 224.257812 284.367188 208.46875 C 307.773438 183.875 314.4375 154.597656 301.664062 122.226562 C 293.652344 101.996094 269.769531 84.222656 243.984375 84.222656 C 229.703125 84.222656 214.789062 89.699219 201.777344 103.265625 C 196.222656 109.058594 191.460938 115.402344 186.464844 121.355469 C 179.71875 113.898438 173.769531 106.121094 166.550781 99.617188 C 155.757812 90.015625 143.460938 84.144531 129.417969 84.144531 Z M 129.417969 84.144531 " fill-opacity="1" fill-rule="nonzero"/><g clip-path="url(#e9abbf33e4)"><path fill="#ec297b" d="M 129.417969 84.144531 C 143.460938 84.144531 155.757812 90.015625 166.550781 99.695312 C 173.769531 106.199219 179.71875 113.976562 186.464844 121.433594 C 191.460938 115.484375 196.300781 109.136719 201.777344 103.34375 C 214.789062 89.777344 229.625 84.304688 243.984375 84.304688 C 269.769531 84.304688 293.652344 101.996094 301.664062 122.308594 C 314.4375 154.675781 307.773438 183.875 284.367188 208.546875 C 269.375 224.335938 250.648438 236.871094 233.511719 250.757812 C 217.566406 263.769531 201.539062 276.703125 185.671875 289.554688 C 175.515625 280.828125 164.40625 270.59375 152.585938 261.308594 C 137.75 249.566406 122.121094 238.855469 107.203125 227.195312 C 86.335938 210.929688 69.992188 191.332031 65.710938 164.992188 C 60.234375 131.75 74.753906 94.777344 117.835938 85.414062 C 121.882812 84.539062 125.691406 84.144531 129.417969 84.144531 M 129.417969 72.242188 C 124.816406 72.242188 120.058594 72.796875 115.375 73.75 C 92.050781 78.828125 74.039062 91.445312 63.25 110.328125 C 53.964844 126.589844 50.632812 146.664062 53.964844 166.816406 C 56.269531 180.9375 61.820312 194.347656 70.546875 206.644531 C 77.925781 217.039062 87.527344 226.796875 99.90625 236.476562 C 107.125 242.109375 114.582031 247.582031 121.800781 252.898438 C 129.578125 258.613281 137.589844 264.5625 145.207031 270.511719 C 153.300781 276.859375 160.996094 283.683594 168.453125 290.1875 C 171.707031 293.046875 174.800781 295.824219 177.894531 298.441406 C 180.117188 300.34375 182.894531 301.296875 185.671875 301.296875 C 188.289062 301.296875 190.984375 300.425781 193.128906 298.679688 C 197.96875 294.789062 202.808594 290.824219 207.726562 286.855469 C 218.675781 278.050781 229.941406 268.925781 241.050781 259.882812 C 246.128906 255.757812 251.441406 251.710938 256.601562 247.742188 C 269.054688 238.222656 281.910156 228.304688 293.015625 216.640625 C 320.152344 188.078125 326.972656 153.964844 312.773438 117.863281 C 307.933594 105.566406 298.492188 94.21875 286.273438 85.808594 C 273.578125 77.164062 258.582031 72.324219 244.0625 72.324219 C 225.101562 72.324219 207.566406 80.175781 193.285156 95.015625 C 190.828125 97.632812 188.449219 100.25 186.226562 102.949219 C 182.578125 98.820312 178.769531 94.617188 174.484375 90.808594 C 160.835938 78.511719 145.683594 72.242188 129.417969 72.242188 Z M 129.417969 72.242188 " fill-opacity="1" fill-rule="nonzero"/></g><path fill="#122646" d="M 185.75 297.804688 C 183.84375 297.804688 181.863281 297.171875 180.355469 295.824219 C 177.261719 293.203125 174.167969 290.507812 170.914062 287.570312 C 163.375 280.984375 155.601562 274.164062 147.507812 267.734375 C 139.8125 261.707031 131.800781 255.757812 123.945312 250.042969 C 116.722656 244.726562 109.265625 239.253906 102.125 233.699219 C 76.183594 213.46875 61.664062 191.410156 57.535156 166.261719 C 54.285156 146.824219 57.457031 127.621094 66.34375 112.070312 C 76.578125 94.140625 93.796875 82.082031 116.089844 77.242188 C 136.402344 72.796875 155.285156 78.273438 172.101562 93.425781 C 177.339844 98.109375 181.863281 103.34375 186.226562 108.421875 C 189.242188 104.773438 192.335938 101.042969 195.746094 97.472656 C 212.566406 79.9375 234.304688 72.71875 256.839844 77.164062 C 280.164062 81.765625 301.269531 98.664062 309.359375 119.132812 C 323.007812 153.804688 316.421875 186.652344 290.320312 214.101562 C 279.371094 225.605469 266.675781 235.367188 254.378906 244.808594 C 249.222656 248.773438 243.828125 252.898438 238.75 257.023438 C 227.71875 266.070312 216.453125 275.113281 205.503906 284 C 200.585938 287.96875 195.746094 291.933594 190.90625 295.824219 C 189.398438 297.171875 187.574219 297.804688 185.75 297.804688 Z M 129.5 92.476562 C 126.324219 92.476562 122.992188 92.871094 119.660156 93.585938 C 102.125 97.394531 88.71875 106.675781 80.785156 120.402344 C 73.800781 132.621094 71.34375 147.933594 73.882812 163.5625 C 77.292969 184.667969 89.511719 202.757812 112.28125 220.527344 C 119.261719 226.003906 126.640625 231.398438 133.703125 236.636719 C 141.636719 242.425781 149.808594 248.457031 157.664062 254.722656 C 166.152344 261.390625 174.085938 268.371094 181.703125 275.113281 C 183.050781 276.304688 184.402344 277.496094 185.75 278.683594 C 188.84375 276.226562 191.859375 273.6875 194.953125 271.226562 C 205.824219 262.421875 217.089844 253.296875 228.117188 244.332031 C 233.355469 240.046875 238.828125 235.839844 244.144531 231.796875 C 256.519531 222.273438 268.183594 213.386719 278.179688 202.835938 C 299.839844 180.066406 305.078125 154.042969 293.808594 125.402344 C 287.78125 110.246094 271.277344 97.15625 253.585938 93.664062 C 241.683594 91.285156 224.148438 92.078125 207.726562 109.136719 C 204.15625 112.867188 200.824219 116.992188 197.492188 121.039062 C 195.90625 122.941406 194.320312 124.925781 192.730469 126.828125 C 191.144531 128.652344 188.921875 129.765625 186.542969 129.765625 C 184.164062 129.84375 181.863281 128.8125 180.195312 127.066406 C 177.972656 124.6875 175.910156 122.226562 173.847656 119.847656 C 169.484375 114.769531 165.359375 110.007812 160.835938 105.960938 C 151 96.917969 140.605469 92.476562 129.5 92.476562 Z M 129.5 92.476562 " fill-opacity="1" fill-rule="nonzero"/><path fill="#ec297b" d="M 184.164062 272.417969 C 176.46875 265.671875 168.53125 258.691406 159.964844 251.949219 C 152.03125 245.679688 143.859375 239.648438 135.84375 233.777344 C 128.785156 228.542969 121.40625 223.148438 114.421875 217.753906 C 92.445312 200.613281 80.625 183.160156 77.371094 163.007812 C 74.914062 148.171875 77.214844 133.652344 83.796875 122.148438 C 91.257812 109.136719 103.554688 100.726562 120.292969 97.078125 C 123.46875 96.363281 126.484375 96.046875 129.417969 96.046875 C 139.734375 96.046875 149.253906 100.089844 158.535156 108.5 C 162.898438 112.46875 166.945312 117.148438 171.230469 122.070312 C 173.292969 124.449219 175.355469 126.910156 177.578125 129.289062 C 179.800781 131.75 183.050781 133.175781 186.382812 133.175781 C 186.464844 133.175781 186.542969 133.175781 186.621094 133.175781 C 190.035156 133.097656 193.285156 131.589844 195.507812 128.972656 C 197.175781 127.066406 198.761719 125.082031 200.347656 123.101562 C 203.679688 118.972656 206.933594 115.007812 210.34375 111.4375 C 220.105469 101.28125 231.449219 96.125 243.984375 96.125 C 265.644531 96.125 284.6875 111.597656 290.558594 126.589844 C 301.269531 153.804688 296.269531 178.558594 275.722656 200.21875 C 265.882812 210.53125 254.300781 219.417969 242.082031 228.859375 C 236.765625 232.90625 231.289062 237.109375 225.976562 241.476562 C 214.945312 250.441406 203.679688 259.5625 192.8125 268.371094 C 190.511719 270.195312 188.210938 272.101562 185.988281 273.925781 C 185.433594 273.449219 184.796875 272.894531 184.164062 272.417969 Z M 184.164062 272.417969 " fill-opacity="1" fill-rule="nonzero"/><path fill="#ed83b5" d="M 129.417969 107.945312 C 136.636719 107.945312 143.542969 111.039062 150.601562 117.386719 C 154.410156 120.878906 158.21875 125.242188 162.265625 129.921875 C 164.328125 132.382812 166.550781 134.84375 168.851562 137.382812 C 173.371094 142.378906 179.800781 145.15625 186.464844 145.15625 C 186.621094 145.15625 186.78125 145.15625 186.859375 145.15625 C 193.683594 144.996094 200.191406 141.984375 204.632812 136.667969 C 206.296875 134.683594 207.964844 132.621094 209.550781 130.636719 C 212.726562 126.671875 215.820312 122.941406 218.914062 119.6875 C 226.371094 111.914062 234.78125 108.027344 243.90625 108.027344 C 251.285156 108.027344 259.140625 110.5625 265.960938 115.246094 C 272.308594 119.53125 277.226562 125.242188 279.449219 130.875 C 283.972656 142.378906 285.242188 153.328125 283.179688 163.324219 C 281.117188 173.242188 275.722656 182.84375 266.992188 191.96875 C 257.789062 201.644531 246.601562 210.214844 234.78125 219.339844 C 229.386719 223.464844 223.832031 227.75 218.4375 232.191406 C 207.726562 240.917969 196.777344 249.726562 186.226562 258.292969 C 180.195312 253.058594 173.929688 247.664062 167.265625 242.425781 C 159.171875 236 150.839844 229.96875 142.828125 224.019531 C 135.449219 218.625 128.546875 213.546875 121.722656 208.152344 C 102.207031 192.917969 91.8125 177.921875 89.035156 160.867188 C 87.050781 148.726562 88.875 136.984375 94.113281 127.859375 C 99.824219 117.863281 109.503906 111.359375 122.832031 108.5 C 125.132812 108.183594 127.355469 107.945312 129.417969 107.945312 M 129.417969 84.144531 C 125.691406 84.144531 121.800781 84.539062 117.835938 85.414062 C 74.753906 94.777344 60.234375 131.75 65.710938 164.910156 C 69.992188 191.253906 86.335938 210.851562 107.203125 227.113281 C 122.121094 238.777344 137.75 249.488281 152.585938 261.230469 C 164.40625 270.59375 175.515625 280.828125 185.671875 289.476562 C 201.539062 276.621094 217.566406 263.691406 233.511719 250.679688 C 250.648438 236.714844 269.375 224.257812 284.367188 208.46875 C 307.773438 183.875 314.4375 154.597656 301.664062 122.226562 C 293.652344 101.996094 269.769531 84.222656 243.984375 84.222656 C 229.703125 84.222656 214.789062 89.699219 201.777344 103.265625 C 196.222656 109.058594 191.460938 115.402344 186.464844 121.355469 C 179.71875 113.898438 173.769531 106.121094 166.550781 99.617188 C 155.757812 90.015625 143.460938 84.144531 129.417969 84.144531 Z M 129.417969 84.144531 " fill-opacity="1" fill-rule="nonzero"/><g clip-path="url(#dafe2eaba7)"><path fill="#ec297b" d="M 129.417969 84.144531 C 143.460938 84.144531 155.757812 90.015625 166.550781 99.695312 C 173.769531 106.199219 179.71875 113.976562 186.464844 121.433594 C 191.460938 115.484375 196.300781 109.136719 201.777344 103.34375 C 214.789062 89.777344 229.625 84.304688 243.984375 84.304688 C 269.769531 84.304688 293.652344 101.996094 301.664062 122.308594 C 314.4375 154.675781 307.773438 183.875 284.367188 208.546875 C 269.375 224.335938 250.648438 236.871094 233.511719 250.757812 C 217.566406 263.769531 201.539062 276.703125 185.671875 289.554688 C 175.515625 280.828125 164.40625 270.59375 152.585938 261.308594 C 137.75 249.566406 122.121094 238.855469 107.203125 227.195312 C 86.335938 210.929688 69.992188 191.332031 65.710938 164.992188 C 60.234375 131.75 74.753906 94.777344 117.835938 85.414062 C 121.882812 84.539062 125.691406 84.144531 129.417969 84.144531 M 129.417969 72.242188 C 124.816406 72.242188 120.058594 72.796875 115.375 73.75 C 92.050781 78.828125 74.039062 91.445312 63.25 110.328125 C 53.964844 126.589844 50.632812 146.664062 53.964844 166.816406 C 56.269531 180.9375 61.820312 194.347656 70.546875 206.644531 C 77.925781 217.039062 87.527344 226.796875 99.90625 236.476562 C 107.125 242.109375 114.582031 247.582031 121.800781 252.898438 C 129.578125 258.613281 137.589844 264.5625 145.207031 270.511719 C 153.300781 276.859375 160.996094 283.683594 168.453125 290.1875 C 171.707031 293.046875 174.800781 295.824219 177.894531 298.441406 C 180.117188 300.34375 182.894531 301.296875 185.671875 301.296875 C 188.289062 301.296875 190.984375 300.425781 193.128906 298.679688 C 197.96875 294.789062 202.808594 290.824219 207.726562 286.855469 C 218.675781 278.050781 229.941406 268.925781 241.050781 259.882812 C 246.128906 255.757812 251.441406 251.710938 256.601562 247.742188 C 269.054688 238.222656 281.910156 228.304688 293.015625 216.640625 C 320.152344 188.078125 326.972656 153.964844 312.773438 117.863281 C 307.933594 105.566406 298.492188 94.21875 286.273438 85.808594 C 273.578125 77.164062 258.582031 72.324219 244.0625 72.324219 C 225.101562 72.324219 207.566406 80.175781 193.285156 95.015625 C 190.828125 97.632812 188.449219 100.25 186.226562 102.949219 C 182.578125 98.820312 178.769531 94.617188 174.484375 90.808594 C 160.835938 78.511719 145.683594 72.242188 129.417969 72.242188 Z M 129.417969 72.242188 " fill-opacity="1" fill-rule="nonzero"/></g><path fill="#122646" d="M 185.75 297.804688 C 183.84375 297.804688 181.863281 297.171875 180.355469 295.824219 C 177.261719 293.203125 174.167969 290.507812 170.914062 287.570312 C 163.375 280.984375 155.601562 274.164062 147.507812 267.734375 C 139.8125 261.707031 131.800781 255.757812 123.945312 250.042969 C 116.722656 244.726562 109.265625 239.253906 102.125 233.699219 C 76.183594 213.46875 61.664062 191.410156 57.535156 166.261719 C 54.285156 146.824219 57.457031 127.621094 66.34375 112.070312 C 76.578125 94.140625 93.796875 82.082031 116.089844 77.242188 C 136.402344 72.796875 155.285156 78.273438 172.101562 93.425781 C 177.339844 98.109375 181.863281 103.34375 186.226562 108.421875 C 189.242188 104.773438 192.335938 101.042969 195.746094 97.472656 C 212.566406 79.9375 234.304688 72.71875 256.839844 77.164062 C 280.164062 81.765625 301.269531 98.664062 309.359375 119.132812 C 323.007812 153.804688 316.421875 186.652344 290.320312 214.101562 C 279.371094 225.605469 266.675781 235.367188 254.378906 244.808594 C 249.222656 248.773438 243.828125 252.898438 238.75 257.023438 C 227.71875 266.070312 216.453125 275.113281 205.503906 284 C 200.585938 287.96875 195.746094 291.933594 190.90625 295.824219 C 189.398438 297.171875 187.574219 297.804688 185.75 297.804688 Z M 129.5 92.476562 C 126.324219 92.476562 122.992188 92.871094 119.660156 93.585938 C 102.125 97.394531 88.71875 106.675781 80.785156 120.402344 C 73.800781 132.621094 71.34375 147.933594 73.882812 163.5625 C 77.292969 184.667969 89.511719 202.757812 112.28125 220.527344 C 119.261719 226.003906 126.640625 231.398438 133.703125 236.636719 C 141.636719 242.425781 149.808594 248.457031 157.664062 254.722656 C 166.152344 261.390625 174.085938 268.371094 181.703125 275.113281 C 183.050781 276.304688 184.402344 277.496094 185.75 278.683594 C 188.84375 276.226562 191.859375 273.6875 194.953125 271.226562 C 205.824219 262.421875 217.089844 253.296875 228.117188 244.332031 C 233.355469 240.046875 238.828125 235.839844 244.144531 231.796875 C 256.519531 222.273438 268.183594 213.386719 278.179688 202.835938 C 299.839844 180.066406 305.078125 154.042969 293.808594 125.402344 C 287.78125 110.246094 271.277344 97.15625 253.585938 93.664062 C 241.683594 91.285156 224.148438 92.078125 207.726562 109.136719 C 204.15625 112.867188 200.824219 116.992188 197.492188 121.039062 C 195.90625 122.941406 194.320312 124.925781 192.730469 126.828125 C 191.144531 128.652344 188.921875 129.765625 186.542969 129.765625 C 184.164062 129.84375 181.863281 128.8125 180.195312 127.066406 C 177.972656 124.6875 175.910156 122.226562 173.847656 119.847656 C 169.484375 114.769531 165.359375 110.007812 160.835938 105.960938 C 151 96.917969 140.605469 92.476562 129.5 92.476562 Z M 129.5 92.476562 " fill-opacity="1" fill-rule="nonzero"/><g clip-path="url(#95cd07edb1)"><path fill="#ec297b" d="M 31.65625 87.957031 C 24.484375 85.976562 22.875 84.371094 20.894531 77.199219 C 18.914062 84.371094 17.308594 85.976562 10.136719 87.957031 C 17.308594 89.9375 18.914062 91.546875 20.894531 98.71875 C 22.878906 91.546875 24.484375 89.9375 31.65625 87.957031 Z M 55.640625 144.648438 C 50.675781 126.671875 46.652344 122.648438 28.675781 117.683594 C 46.652344 112.71875 50.675781 108.695312 55.640625 90.71875 C 60.605469 108.695312 64.628906 112.71875 82.605469 117.683594 C 64.628906 122.648438 60.605469 126.671875 55.640625 144.648438 Z M 55.640625 144.648438 " fill-opacity="1" fill-rule="nonzero"/></g><path stroke-linecap="butt" transform="matrix(0.834584, -0.350189, 0.350189, 0.834584, -15.30222, 170.58686)" fill="none" stroke-linejoin="miter" d="M 67.04232 81.00031 C 66.640691 81.098575 66.143548 81.156762 65.54755 81.182831 C 64.951552 81.2089 64.404731 81.21816 63.903748 81.218571 C 62.714202 81.220252 61.847218 81.010924 61.299457 80.598546 C 60.752726 80.17256 60.400704 79.41639 60.242751 78.320409 L 54.955079 37.178877 L 39.937801 68.897181 C 39.245849 70.390102 38.508929 71.410148 37.731022 71.958989 C 36.964413 72.503211 35.986656 72.780977 34.798779 72.778678 C 34.090957 72.781228 33.29469 72.704543 32.408947 72.562231 L 16.058343 37.473615 C 14.708852 45.43052 13.526902 53.434322 12.506204 61.477702 C 11.484865 69.511453 10.926821 76.017185 10.82475 81.001188 C 10.023943 81.147261 9.15626 81.218468 8.22003 81.218789 C 6.871792 81.21941 5.913273 80.971674 5.342163 80.469931 C 4.769384 79.972168 4.483768 79.080046 4.485317 77.793565 C 4.481983 73.40656 5.241167 66.521858 6.762867 57.139459 C 8.278918 47.75937 9.934282 38.96195 11.719329 30.747839 L 10.15457 26.64644 C 10.552218 26.546505 11.016493 26.488567 11.537125 26.463638 C 12.061737 26.440379 12.521253 26.427249 12.923631 26.427589 C 14.25826 26.425938 15.239407 26.519352 15.856804 26.698842 C 16.49115 26.871402 17.055221 27.26722 17.554664 27.883987 C 18.052438 28.504733 18.669516 29.610823 19.411548 31.199948 L 35.615939 65.543865 L 53.604453 26.956336 C 55.200357 26.956664 56.45639 27.053088 57.380511 27.248947 C 58.306302 27.440826 58.984006 27.800076 59.420943 28.320408 C 59.869819 28.845749 60.173693 29.605118 60.332566 30.598515 Z M 67.04232 81.00031 " stroke="#ffffff" stroke-width="8.026638" stroke-opacity="1" stroke-miterlimit="4"/><path stroke-linecap="butt" transform="matrix(0.860824, -0.279544, 0.279544, 0.860824, 41.714241, 147.594643)" fill="none" stroke-linejoin="miter" d="M 8.367556 33.972627 C 6.969938 33.972545 5.879364 33.613855 5.104041 32.899221 C 4.338156 32.169501 3.954958 31.155652 3.955779 29.853569 C 3.954359 28.614288 4.339858 27.636788 5.104069 26.918405 C 5.880488 26.190374 6.969558 25.827065 8.367175 25.827146 C 9.752478 25.823228 10.826738 26.190235 11.592624 26.919955 C 12.372051 27.635922 12.757704 28.614265 12.759125 29.853547 C 12.758303 31.15563 12.370349 32.168634 11.59393 32.896666 C 10.825615 33.613716 9.751525 33.972814 8.367556 33.972627 Z M 12.684626 81.673756 C 10.207396 81.672492 8.340569 81.007269 7.090916 79.671207 C 5.8507 78.320059 5.229857 76.053747 5.233827 72.869498 L 5.23282 42.46589 C 5.524544 42.419952 5.903592 42.370607 6.378175 42.320522 C 6.852758 42.270437 7.268856 42.246737 7.61826 42.246757 C 9.065031 42.249187 10.063118 42.473474 10.607083 42.922389 C 11.155154 43.372637 11.428217 44.264503 11.429046 45.603424 L 11.427104 72.634487 C 11.427763 74.127638 11.62277 75.162055 12.013458 75.733631 C 12.413688 76.303769 13.161101 76.587323 14.254362 76.5884 C 15.601493 76.590237 16.703724 76.34011 17.55562 75.840789 C 17.84597 76.497765 17.989601 77.24323 17.989286 78.082621 C 17.989056 79.285064 17.645092 80.162606 16.950517 80.708477 C 16.101119 81.353818 14.681412 81.673285 12.684626 81.673756 Z M 12.684626 81.673756 " stroke="#ffffff" stroke-width="8.026638" stroke-opacity="1" stroke-miterlimit="4"/><path stroke-linecap="butt" transform="matrix(0.872561, -0.240416, 0.240416, 0.872561, 53.205615, 143.554239)" fill="none" stroke-linejoin="miter" d="M 17.464288 82.202274 C 15.082169 82.204014 12.642993 81.87666 10.152066 81.217197 C 7.660714 80.575524 5.796557 79.802242 4.557302 78.905672 C 3.513353 78.161403 2.991598 77.341653 2.989025 76.441114 C 2.989594 75.496673 3.632943 74.250323 4.922087 72.707372 C 6.511954 74.004966 8.439326 75.068749 10.700042 75.897574 C 12.973665 76.712048 15.279011 77.118924 17.62555 77.116334 C 21.005479 77.116437 23.564022 76.523129 25.298164 75.331103 C 27.048229 74.130034 27.924852 72.410746 27.923873 70.172094 C 27.925211 68.932399 27.598089 67.942437 26.938344 67.201063 C 26.295667 66.446484 25.250611 65.836213 23.805469 65.361929 C 22.369796 64.885776 20.311769 64.426172 17.624214 63.976661 C 14.588163 63.475897 12.08505 62.844413 10.116021 62.07805 C 8.149286 61.303364 6.618432 60.165287 5.521169 58.672139 C 4.429213 57.175977 3.884 55.190281 3.882516 52.709744 C 3.884086 50.364352 4.551013 48.350019 5.88559 46.658422 C 7.236811 44.971412 9.063174 43.688399 11.373002 42.811678 C 13.695313 41.938397 16.300387 41.501166 19.192386 41.501133 C 21.33262 41.499898 23.458159 41.763219 25.575456 42.283922 C 27.687446 42.80764 29.418454 43.544236 30.769628 44.48955 C 31.813577 45.233819 32.33546 46.00436 32.334129 46.805334 C 32.336703 47.705873 31.73437 48.900849 30.530143 50.395569 C 29.035423 49.191342 27.220138 48.256931 25.081275 47.58703 C 22.941265 46.921289 20.853006 46.587658 18.812337 46.584989 C 16.027077 46.587571 13.796907 47.110192 12.121827 48.152851 C 10.455068 49.197803 9.622563 50.691978 9.623165 52.639536 C 9.622717 53.973489 9.957608 55.032742 10.625972 55.807829 C 11.306096 56.572726 12.255452 57.156628 13.469877 57.55839 C 14.697931 57.95943 16.330401 58.306258 18.371448 58.60002 C 21.75298 59.14673 24.52065 59.792909 26.684647 60.550317 C 28.849069 61.289936 30.592681 62.419483 31.915482 63.938959 C 33.242444 65.459582 33.901741 67.534909 33.904708 70.172541 C 33.902753 72.66556 33.263845 74.821917 31.987986 76.641611 C 30.726901 78.456422 28.861687 79.831696 26.393064 80.78106 C 23.924442 81.730424 20.950957 82.204926 17.464288 82.202274 Z M 17.464288 82.202274 " stroke="#ffffff" stroke-width="8.026638" stroke-opacity="1" stroke-miterlimit="4"/><path stroke-linecap="butt" transform="matrix(0.88676, -0.181159, 0.181159, 0.88676, 81.606532, 135.561349)" fill="none" stroke-linejoin="miter" d="M 22.9134 41.812774 C 24.759475 41.811078 26.701809 42.071327 28.744631 42.594384 C 30.787453 43.117441 32.473801 43.876029 33.812135 44.871874 C 34.663722 45.468736 35.087997 46.2382 35.087458 47.189587 C 35.086146 48.123196 34.542895 49.316117 33.445882 50.761529 C 32.159838 49.811607 30.569382 48.993318 28.67115 48.301571 C 26.778009 47.606459 24.830946 47.261548 22.840144 47.260107 C 20.360099 47.260035 18.1606 47.784214 16.24251 48.828417 C 14.320192 49.871756 12.802686 51.477949 11.682398 53.64104 C 10.566339 55.804995 10.005775 58.527346 10.005799 61.804731 C 10.004912 64.892511 10.542553 67.522053 11.608538 69.700087 C 12.682206 71.862071 14.198963 73.515483 16.16813 74.657825 C 18.137297 75.800166 20.460934 76.371782 23.148362 76.370171 C 25.531059 76.372381 27.679953 76.009662 29.600909 75.296426 C 31.521093 74.565411 33.051382 73.759149 34.193504 72.869182 C 35.287492 74.4142 35.83699 75.605704 35.83354 76.441964 C 35.837002 77.244396 35.465073 77.943707 34.721982 78.540762 C 33.679118 79.376121 32.056755 80.137142 29.855756 80.819598 C 27.670899 81.487731 25.281748 81.818988 22.691669 81.818462 C 18.717658 81.821537 15.31141 81.050777 12.468695 79.505316 C 9.634438 77.961583 7.475203 75.701168 5.977443 72.725707 C 4.483137 69.733331 3.737106 66.118529 3.73512 61.880437 C 3.73668 57.603423 4.546496 53.962874 6.159477 50.962155 C 7.775049 47.94875 10.037646 45.671024 12.943039 44.128113 C 15.857754 42.582702 19.182329 41.812619 22.9134 41.812774 Z M 22.9134 41.812774 " stroke="#ffffff" stroke-width="8.026638" stroke-opacity="1" stroke-miterlimit="4"/><path stroke-linecap="butt" transform="matrix(0.897689, -0.1154, 0.1154, 0.897689, 112.518264, 129.046573)" fill="none" stroke-linejoin="miter" d="M 35.235103 72.268949 C 36.434698 73.363074 37.036157 74.506498 37.040032 75.694943 C 37.040663 76.739372 36.614688 77.615823 35.762659 78.320014 C 34.618753 79.365259 32.888083 80.269803 30.565817 81.037376 C 28.259574 81.815711 25.633495 82.204814 22.69241 82.200954 C 18.815013 82.202922 15.456423 81.418699 12.611808 79.852015 C 9.782237 78.26986 7.593289 75.969391 6.050347 72.942599 C 4.508505 69.907244 3.735893 66.270193 3.735143 62.044837 C 3.735857 57.706531 4.606483 53.980472 6.342188 50.87039 C 8.091285 47.757677 10.406733 45.418354 13.288532 43.852421 C 16.179443 42.283308 19.365247 41.500554 22.837934 41.498777 C 25.927315 41.499943 28.624654 42.012048 30.930502 43.030812 C 33.253473 44.051777 35.033292 45.472875 36.273689 47.298937 C 37.524849 49.108977 38.151337 51.208588 38.152054 53.60633 C 38.152064 57.431257 36.665614 60.294889 33.702365 62.189765 C 30.749329 64.072899 26.411469 65.016507 20.689336 65.016307 C 16.847286 65.014115 13.185935 64.621765 9.697823 63.829595 C 10.099373 68.254424 11.477146 71.516719 13.835422 73.617032 C 16.203361 75.709883 19.259127 76.751076 23.00107 76.753453 C 25.529434 76.752122 27.826449 76.316365 29.892666 75.441902 C 31.958882 74.567439 33.739878 73.508361 35.235103 72.268949 Z M 22.765565 46.732973 C 20.724894 46.731727 18.767277 47.167599 16.896444 48.045422 C 15.036374 48.907222 13.456699 50.26197 12.157418 52.109667 C 10.86835 53.945621 10.080194 56.285466 9.78867 59.128651 C 13.16542 59.771611 16.822733 60.093819 20.76116 60.090994 C 24.54218 60.094043 27.383761 59.619505 29.289633 58.672212 C 31.213178 57.72284 32.172145 55.983696 32.170264 53.459612 C 32.172135 52.158769 31.760249 50.9962 30.934055 49.976186 C 30.116423 48.957272 28.987527 48.159432 27.541985 47.590676 C 26.109836 47.01929 24.515025 46.731595 22.765565 46.732973 Z M 22.765565 46.732973 " stroke="#ffffff" stroke-width="8.026638" stroke-opacity="1" stroke-miterlimit="4"/><path stroke-linecap="butt" transform="matrix(0.902788, -0.0643149, 0.0643149, 0.902788, 146.5173, 124.799538)" fill="none" stroke-linejoin="miter" d="M 10.680502 70.463878 C 10.680309 72.713839 11.041613 74.323214 11.755497 75.295696 C 12.486908 76.265099 13.693928 76.753487 15.385781 76.752863 C 16.528134 76.752034 17.678746 76.513815 18.845919 76.043125 C 20.013399 75.56813 20.951475 75.033523 21.655841 74.438998 C 22.894972 75.630627 23.512022 76.747651 23.5156 77.790682 C 23.515395 78.340181 23.348521 78.860498 23.022975 79.360858 C 22.706345 79.857526 22.226113 80.281963 21.582279 80.634168 C 19.686137 81.680323 17.320962 82.204127 14.491368 82.201582 C 11.099053 82.202218 8.583237 81.257133 6.944533 79.357719 C 5.305523 77.46261 4.482412 74.500639 4.484423 70.463808 L 4.483876 26.498399 C 4.77722 26.450067 5.156971 26.403564 5.632046 26.355198 C 6.107121 26.306832 6.54161 26.281536 6.944125 26.279923 C 7.939188 26.281581 8.702415 26.379223 9.225198 26.572233 C 9.743675 26.764937 10.117655 27.103115 10.335144 27.572931 C 10.565241 28.047971 10.680682 28.735515 10.681465 29.63556 Z M 10.680502 70.463878 " stroke="#ffffff" stroke-width="8.026638" stroke-opacity="1" stroke-miterlimit="4"/><path stroke-linecap="butt" transform="matrix(0.904508, -0.0320672, 0.0320672, 0.904508, 162.581771, 123.562331)" fill="none" stroke-linejoin="miter" d="M 10.682583 70.466243 C 10.680705 72.711874 11.038196 74.322447 11.755209 75.293651 C 12.485161 76.265314 13.694367 76.753004 15.382979 76.752409 C 16.52736 76.754112 17.680305 76.514275 18.84582 76.041677 C 20.015648 75.569231 20.950237 75.032303 21.653594 74.439673 C 22.894099 75.628094 23.515183 76.747049 23.512683 77.792073 C 23.514829 78.340618 23.349523 78.861632 23.020927 79.359583 C 22.70527 79.857992 22.223845 80.281427 21.58081 80.634352 C 19.68667 81.68141 17.32318 82.202229 14.490187 82.201121 C 11.100023 82.201852 8.585649 81.2533 6.942601 79.359624 C 5.304018 77.461788 4.484818 74.500384 4.485457 70.462471 L 4.485062 26.498625 C 4.776036 26.452799 5.157894 26.401557 5.630329 26.353526 C 6.107078 26.305649 6.54409 26.282274 6.945831 26.279242 C 7.939097 26.279907 8.700091 26.375985 9.224348 26.571636 C 9.744293 26.767134 10.116854 27.099922 10.333253 27.574008 C 10.566906 28.048705 10.680768 28.735088 10.683468 29.633463 Z M 10.682583 70.466243 " stroke="#ffffff" stroke-width="8.026638" stroke-opacity="1" stroke-miterlimit="4"/><path stroke-linecap="butt" transform="matrix(0.904774, 0.0233625, -0.0233625, 0.904774, 179.722697, 122.50593)" fill="none" stroke-linejoin="miter" d="M 45.55087 75.843539 C 45.844043 76.496527 45.988548 77.244019 45.988589 78.081589 C 45.98947 79.286114 45.640816 80.162909 44.951144 80.707437 C 44.099972 81.351117 42.674912 81.672861 40.684591 81.672445 C 38.802245 81.673559 37.282255 81.328561 36.128938 80.637339 C 34.983803 79.928637 34.189389 78.757555 33.741158 77.115574 C 32.255268 78.760005 30.465744 80.015078 28.364178 80.889644 C 26.271242 81.763988 23.985732 82.202932 21.50754 82.202162 C 18.070971 82.204551 15.0063 81.394306 12.322379 79.779832 C 9.638124 78.152415 7.53587 75.823508 6.015729 72.797424 C 4.495254 69.758397 3.73724 66.151375 3.737262 61.972156 C 3.738508 57.840396 4.508718 54.228453 6.052428 51.144843 C 7.596026 48.056919 9.745224 45.682993 12.504113 44.014326 C 15.26289 42.341345 18.384237 41.50089 21.872691 41.501478 C 24.009816 41.50242 26.066585 41.902636 28.034371 42.702348 C 30.001934 43.493431 31.736129 44.610025 33.228438 46.056668 L 33.229684 45.603312 C 33.229664 44.264926 33.500212 43.372879 34.049844 42.922632 C 34.595163 42.472496 35.591001 42.248183 37.037361 42.249692 C 37.378429 42.24952 37.784883 42.273564 38.261037 42.321712 C 38.732877 42.369972 39.122742 42.420348 39.426205 42.468638 L 39.427991 72.634088 C 39.427707 74.127907 39.618395 75.159153 40.008797 75.731918 C 40.412141 76.304349 41.157719 76.587313 42.250067 76.589329 C 43.601396 76.588975 44.700225 76.340415 45.55087 75.843539 Z M 22.329635 76.753994 C 24.46676 76.754937 26.467289 76.314717 28.327132 75.442074 C 30.195492 74.564895 31.831477 73.382865 33.230549 71.887466 L 33.229916 51.798738 C 31.831634 50.315128 30.186595 49.140106 28.290262 48.265153 C 26.406872 47.389867 24.39656 46.949595 22.255232 46.953079 C 19.910788 46.948855 17.815482 47.564217 15.969089 48.790537 C 14.131102 50.008005 12.681957 51.737835 11.608933 53.988989 C 10.539778 56.222775 10.007575 58.852846 10.00801 61.879314 C 10.006216 64.819493 10.552749 67.426027 11.647608 69.698917 C 12.742133 71.958863 14.216243 73.703875 16.078455 74.929416 C 17.949073 76.146105 20.032762 76.752859 22.329635 76.753994 Z M 22.329635 76.753994 " stroke="#ffffff" stroke-width="8.026638" stroke-opacity="1" stroke-miterlimit="4"/><path stroke-linecap="butt" transform="matrix(0.899265, 0.102398, -0.102398, 0.899265, 218.97125, 123.372193)" fill="none" stroke-linejoin="miter" d="M 46.589452 75.84072 C 46.881502 76.498133 47.027477 77.246025 47.027377 78.084395 C 47.025411 79.287858 46.681765 80.161004 45.98835 80.709095 C 45.136483 81.353418 43.722282 81.675173 41.741461 81.674847 C 39.24828 81.676393 37.37812 81.007549 36.12669 79.668803 C 34.887149 78.320015 34.268524 76.053479 34.266527 72.869682 L 34.26833 57.779024 C 34.268599 53.852174 33.421697 51.068653 31.732399 49.43226 C 30.045436 47.778226 27.705374 46.950041 24.716988 46.951506 C 22.627496 46.950523 20.558875 47.438016 18.519214 48.40872 C 16.479552 49.379424 14.80747 50.564558 13.507255 51.963634 L 13.507124 81.145474 C 13.009796 81.241198 12.21208 81.292939 11.117287 81.29163 C 10.122588 81.291956 9.351152 81.193014 8.803467 80.999092 C 8.255782 80.80517 7.870243 80.471158 7.638272 79.998032 C 7.419165 79.523442 7.310532 78.836456 7.308085 77.937562 L 7.310908 51.14452 C 7.311259 49.697986 7.060156 48.675373 6.562378 48.08048 C 6.0646 47.485587 5.266414 47.189875 4.175909 47.188078 C 2.98151 47.189424 1.991143 47.380385 1.201496 47.770025 C 0.901251 47.078794 0.7467 46.33188 0.746418 45.528304 C 0.747683 44.242387 1.316164 43.321921 2.461902 42.778794 C 3.409619 42.327717 4.604356 42.100453 6.05089 42.100804 C 7.936394 42.103295 9.460204 42.477103 10.627584 43.230316 C 11.806852 43.973487 12.621433 45.214287 13.071327 46.952714 C 14.455034 45.409473 16.301256 44.11329 18.610481 43.068453 C 20.93257 42.022151 23.440543 41.502005 26.137712 41.49895 C 30.768531 41.501592 34.311 42.818371 36.766093 45.457864 C 39.233563 48.091604 40.464759 52.15189 40.463482 57.633944 L 40.464289 72.633084 C 40.465022 74.127277 40.665154 75.160038 41.064685 75.731367 C 41.468504 76.302208 42.213766 76.590916 43.308071 76.587936 C 44.645935 76.587629 45.738625 76.341579 46.589452 75.84072 Z M 46.589452 75.84072 " stroke="#ffffff" stroke-width="8.026638" stroke-opacity="1" stroke-miterlimit="4"/><path stroke-linecap="butt" transform="matrix(0.887672, 0.176636, -0.176636, 0.887672, 258.395877, 127.816398)" fill="none" stroke-linejoin="miter" d="M 35.233473 72.269345 C 36.436871 73.36325 37.038414 74.506509 37.037258 75.694889 C 37.038778 76.741919 36.613871 77.614169 35.76422 78.320108 C 34.621375 79.366024 32.887016 80.270011 30.56622 81.035461 C 28.25726 81.816158 25.63212 82.202113 22.692486 82.201793 C 18.815857 82.2031 15.456312 81.419427 12.61385 79.850775 C 9.782402 78.271131 7.594939 75.969266 6.051463 72.94518 C 4.50885 69.90332 3.737903 66.272253 3.736939 62.043512 C 3.736081 57.704736 4.605598 53.980465 6.345487 50.870699 C 8.093843 47.759248 10.409399 45.419443 13.287923 43.852124 C 16.179988 42.286512 19.363313 41.499048 22.840424 41.502431 C 25.924799 41.500353 28.622705 42.010833 30.933301 43.029637 C 33.253205 44.05099 35.032699 45.474716 36.270939 47.296581 C 37.524427 49.106611 38.149582 51.208893 38.150639 53.602584 C 38.151147 57.430965 36.665426 60.292129 33.702786 62.188625 C 30.75116 64.074128 26.409779 65.012822 20.689635 65.015721 C 16.847713 65.014523 13.183074 64.621602 9.698268 63.827651 C 10.099399 68.253998 11.478441 71.51323 13.833686 73.618888 C 16.203337 75.708477 19.258759 76.755092 23.003346 76.753657 C 25.529079 76.752728 27.827547 76.317362 29.892831 75.439936 C 31.958958 74.566742 33.73748 73.508748 35.233473 72.269345 Z M 22.767622 46.731575 C 20.726044 46.732974 18.766989 47.171209 16.898926 48.044595 C 15.037644 48.907831 13.458591 50.260575 12.158378 52.107903 C 10.869179 53.944237 10.080574 56.283835 9.78833 59.12754 C 13.168326 59.770725 16.82372 60.095077 20.762137 60.094676 C 24.541429 60.090735 27.382492 59.617808 29.292949 58.669978 C 31.212714 57.724696 32.173407 55.984534 32.172478 53.458801 C 32.172899 52.156153 31.757585 50.997839 30.934159 49.977942 C 30.119199 48.956361 28.988303 48.160467 27.541471 47.590262 C 26.107338 47.01753 24.514644 46.731581 22.767622 46.731575 Z M 22.767622 46.731575 " stroke="#ffffff" stroke-width="8.026638" stroke-opacity="1" stroke-miterlimit="4"/><path stroke-linecap="butt" transform="matrix(0.870453, 0.24794, -0.24794, 0.870453, 293.028705, 134.51504)" fill="none" stroke-linejoin="miter" d="M 22.910779 82.203711 C 18.988553 82.203506 15.58926 81.408133 12.721204 79.815227 C 9.867386 78.209291 7.655618 75.864009 6.085899 72.779382 C 4.520332 69.693573 3.736607 66.012591 3.737695 61.731105 C 3.736921 57.553364 4.530685 53.943612 6.124321 50.904818 C 7.713807 47.867207 9.941206 45.540925 12.797035 43.924187 C 15.662348 42.309236 18.96334 41.49912 22.692893 41.500355 C 26.628755 41.501163 30.028047 42.296536 32.882469 43.888838 C 35.750526 45.481744 37.969413 47.82051 39.534981 50.906319 C 41.104699 53.990946 41.886637 57.681411 41.887914 61.9712 C 41.884538 66.150123 41.090773 69.759875 39.501288 72.797486 C 37.908255 75.822645 35.676705 78.150109 32.810788 79.778695 C 29.954959 81.395433 26.652785 82.201398 22.910779 82.203711 Z M 22.910442 76.751365 C 25.45135 76.754603 27.681453 76.218107 29.603116 75.150177 C 31.520049 74.065643 33.016521 72.418758 34.08423 70.211886 C 35.154907 67.999681 35.691868 65.252896 35.689778 61.968563 C 35.690105 58.629691 35.142795 55.841717 34.047849 53.604642 C 32.954689 51.358082 31.437185 49.685641 29.492369 48.592652 C 27.547552 47.499663 25.282163 46.951235 22.693231 46.9527 C 20.152323 46.949462 17.92222 47.485958 16.004708 48.552706 C 14.097862 49.625391 12.605541 51.271094 11.538411 53.495751 C 10.467734 55.707956 9.934924 58.453559 9.935831 61.733741 C 9.935505 65.072613 10.479846 67.86592 11.57361 70.098845 C 12.668555 72.335921 14.180726 74.005393 16.111304 75.111413 C 18.05612 76.204402 20.32151 76.75283 22.910442 76.751365 Z M 22.910442 76.751365 " stroke="#ffffff" stroke-width="8.026638" stroke-opacity="1" stroke-miterlimit="4"/><path stroke-linecap="butt" transform="matrix(0.846651, 0.319914, -0.319914, 0.846651, 329.692161, 144.830249)" fill="none" stroke-linejoin="miter" d="M 43.890956 75.914366 C 44.194169 76.570293 44.348093 77.319541 44.34564 78.15556 C 44.348147 79.358806 44.000271 80.233071 43.307575 80.780865 C 42.457515 81.425031 41.037347 81.744806 39.044557 81.745754 C 37.001255 81.747334 35.384724 81.315442 34.19649 80.454115 C 33.00368 79.580677 32.206945 78.119271 31.805301 76.079495 C 30.958506 77.220714 29.821995 78.254558 28.39828 79.175463 C 26.989189 80.086229 25.420023 80.817564 23.693294 81.363907 C 21.980742 81.923347 20.281628 82.200883 18.59344 82.202079 C 14.206271 82.203465 10.815 80.89656 8.421154 78.285404 C 6.040406 75.66007 4.847468 71.709297 4.847904 66.435595 L 4.848983 42.249816 C 5.747889 42.150073 6.542364 42.103631 7.238956 42.103403 C 8.682654 42.102314 9.676328 42.326636 10.225541 42.77888 C 10.773229 43.227087 11.046223 44.120508 11.047034 45.45358 L 11.044644 66.29026 C 11.046787 69.971237 11.828354 72.637954 13.398944 74.291399 C 14.964957 75.932732 17.11993 76.751731 19.869425 76.750909 C 22.056191 76.750486 24.207749 76.205101 26.318534 75.112242 C 28.434343 74.008258 30.190261 72.611181 31.590325 70.919485 L 31.588939 42.319261 C 31.880798 42.273573 32.264082 42.225635 32.738792 42.175448 C 33.209464 42.126786 33.625139 42.103519 33.976217 42.10466 C 35.410314 42.102586 36.399951 42.328433 36.947639 42.77664 C 37.504927 43.225833 37.787521 44.12024 37.784295 45.454838 L 37.78433 72.708352 C 37.78605 74.202563 37.981086 75.231557 38.368451 75.804936 C 38.769454 76.377775 39.518284 76.662317 40.610904 76.660087 C 41.95914 76.662773 43.054165 76.410491 43.890956 75.914366 Z M 43.890956 75.914366 " stroke="#ffffff" stroke-width="8.026638" stroke-opacity="1" stroke-miterlimit="4"/><path stroke-linecap="butt" transform="matrix(0.82062, 0.381767, -0.381767, 0.82062, 364.500331, 157.985469)" fill="none" stroke-linejoin="miter" d="M 17.46364 82.20235 C 15.078953 82.202639 12.641728 81.875122 10.151963 81.219798 C 7.661927 80.57412 5.795195 79.805075 4.557773 78.905107 C 3.512847 78.163114 2.987661 77.341172 2.987951 76.441374 C 2.989601 75.493342 3.634836 74.250663 4.920015 72.705511 C 6.51495 74.005612 8.438951 75.071703 10.698024 75.896231 C 12.970929 76.709563 15.278475 77.116451 17.626394 77.118985 C 21.005526 77.117794 23.561441 76.523753 25.300143 75.329308 C 27.050585 74.129402 27.925576 72.408547 27.923023 70.172478 C 27.923193 68.934767 27.595846 67.944625 26.94098 67.202053 C 26.296034 66.450107 25.253302 65.835616 23.804959 65.362221 C 22.370176 64.887278 20.313263 64.425674 17.624572 63.977136 C 14.587861 63.476298 12.085813 62.845729 10.116606 62.081516 C 8.149764 61.301922 6.61773 60.167724 5.522595 58.673188 C 4.431374 57.176832 3.883067 55.189897 3.881586 52.710562 C 3.880208 50.364463 4.551134 48.348213 5.888631 46.659718 C 7.235775 44.971496 9.065842 43.686946 11.372826 42.813622 C 13.69337 41.938749 16.30281 41.500692 19.19332 41.50309 C 21.334741 41.501729 23.459166 41.760561 25.574148 42.285593 C 27.687309 42.806712 29.419802 43.543006 30.769804 44.490561 C 31.814731 45.232554 32.335543 46.004169 32.336156 46.803585 C 32.335867 47.703382 31.736314 48.901008 30.531763 50.39437 C 29.034488 49.19164 27.218798 48.256046 25.080779 47.589407 C 22.94276 46.922768 20.853367 46.585757 18.812328 46.58802 C 16.027934 46.588616 13.79855 47.106911 12.119992 48.154372 C 10.454994 49.200286 9.626944 50.694617 9.622283 52.638916 C 9.625124 53.975188 9.960213 55.03313 10.62573 55.808828 C 11.306899 56.577244 12.253978 57.160072 13.468788 57.561226 C 14.697158 57.960832 16.332603 58.304342 18.37303 58.597492 C 21.750206 59.144624 24.523915 59.796376 26.682691 60.54856 C 28.845652 61.289278 30.590191 62.419818 31.916306 63.94018 C 33.240601 65.45663 33.904041 67.537567 33.902987 70.175165 C 33.904195 72.664147 33.265953 74.822276 31.990352 76.643819 C 30.724671 78.455988 28.86112 79.832277 26.393696 80.780241 C 23.926271 81.728205 20.948888 82.204153 17.46364 82.20235 Z M 17.46364 82.20235 " stroke="#ffffff" stroke-width="8.026638" stroke-opacity="1" stroke-miterlimit="4"/><g fill="#122646" fill-opacity="1"><g transform="translate(13.063078, 238.188153)"><g><path d="M 55.953125 -23.484375 C 55.648438 -23.253906 55.253906 -23.023438 54.765625 -22.796875 C 54.273438 -22.566406 53.828125 -22.363281 53.421875 -22.1875 C 52.421875 -21.769531 51.613281 -21.640625 51 -21.796875 C 50.394531 -21.960938 49.84375 -22.476562 49.34375 -23.34375 L 30.515625 -55.828125 L 29.109375 -24.078125 C 29.046875 -22.597656 28.785156 -21.492188 28.328125 -20.765625 C 27.878906 -20.035156 27.15625 -19.460938 26.15625 -19.046875 C 25.582031 -18.796875 24.894531 -18.578125 24.09375 -18.390625 L -1.828125 -41.953125 C -0.171875 -34.835938 1.632812 -27.742188 3.59375 -20.671875 C 5.5625 -13.597656 7.375 -7.972656 9.03125 -3.796875 C 8.425781 -3.390625 7.726562 -3.019531 6.9375 -2.6875 C 5.8125 -2.21875 4.921875 -2.085938 4.265625 -2.296875 C 3.609375 -2.515625 3.054688 -3.164062 2.609375 -4.25 C 1.078125 -7.90625 -0.695312 -13.910156 -2.71875 -22.265625 C -4.738281 -30.628906 -6.4375 -38.554688 -7.8125 -46.046875 L -10.5625 -48.921875 C -10.257812 -49.140625 -9.894531 -49.351562 -9.46875 -49.5625 C -9.039062 -49.769531 -8.660156 -49.941406 -8.328125 -50.078125 C -7.203125 -50.554688 -6.347656 -50.828125 -5.765625 -50.890625 C -5.191406 -50.953125 -4.585938 -50.8125 -3.953125 -50.46875 C -3.328125 -50.132812 -2.425781 -49.429688 -1.25 -48.359375 L 24.3125 -25.359375 L 25.8125 -63.875 C 27.144531 -64.4375 28.226562 -64.796875 29.0625 -64.953125 C 29.90625 -65.117188 30.601562 -65.0625 31.15625 -64.78125 C 31.71875 -64.5 32.238281 -63.96875 32.71875 -63.1875 Z M 55.953125 -23.484375 "/></g></g></g><g fill="#122646" fill-opacity="1"><g transform="translate(64.357269, 217.321389)"><g><path d="M -5.96875 -42.828125 C -7.164062 -42.441406 -8.191406 -42.453125 -9.046875 -42.859375 C -9.910156 -43.265625 -10.523438 -44.023438 -10.890625 -45.140625 C -11.234375 -46.210938 -11.175781 -47.164062 -10.71875 -48 C -10.257812 -48.832031 -9.429688 -49.441406 -8.234375 -49.828125 C -7.035156 -50.222656 -6 -50.21875 -5.125 -49.8125 C -4.25 -49.414062 -3.640625 -48.679688 -3.296875 -47.609375 C -2.929688 -46.492188 -2.984375 -45.515625 -3.453125 -44.671875 C -3.929688 -43.835938 -4.769531 -43.222656 -5.96875 -42.828125 Z M 11.109375 -2.96875 C 8.972656 -2.269531 7.179688 -2.328125 5.734375 -3.140625 C 4.285156 -3.953125 3.117188 -5.726562 2.234375 -8.46875 L -6.265625 -34.640625 C -6.023438 -34.765625 -5.707031 -34.910156 -5.3125 -35.078125 C -4.914062 -35.253906 -4.570312 -35.390625 -4.28125 -35.484375 C -3.03125 -35.890625 -2.101562 -35.972656 -1.5 -35.734375 C -0.90625 -35.503906 -0.421875 -34.8125 -0.046875 -33.65625 L 7.515625 -10.375 C 7.921875 -9.101562 8.375 -8.273438 8.875 -7.890625 C 9.375 -7.515625 10.097656 -7.476562 11.046875 -7.78125 C 12.203125 -8.15625 13.070312 -8.671875 13.65625 -9.328125 C 14.09375 -8.859375 14.429688 -8.265625 14.671875 -7.546875 C 15.003906 -6.515625 14.953125 -5.660156 14.515625 -4.984375 C 13.960938 -4.191406 12.828125 -3.519531 11.109375 -2.96875 Z M 11.109375 -2.96875 "/></g></g></g><g fill="#122646" fill-opacity="1"><g transform="translate(72.67933, 214.231672)"><g><path d="M 15.53125 -3.15625 C 13.4375 -2.582031 11.226562 -2.273438 8.90625 -2.234375 C 6.59375 -2.203125 4.785156 -2.429688 3.484375 -2.921875 C 2.390625 -3.316406 1.734375 -3.910156 1.515625 -4.703125 C 1.285156 -5.523438 1.546875 -6.765625 2.296875 -8.421875 C 4.003906 -7.679688 5.941406 -7.222656 8.109375 -7.046875 C 10.285156 -6.867188 12.394531 -7.0625 14.4375 -7.625 C 17.394531 -8.4375 19.488281 -9.570312 20.71875 -11.03125 C 21.957031 -12.488281 22.304688 -14.195312 21.765625 -16.15625 C 21.472656 -17.25 20.953125 -18.039062 20.203125 -18.53125 C 19.453125 -19.03125 18.390625 -19.3125 17.015625 -19.375 C 15.640625 -19.4375 13.726562 -19.34375 11.28125 -19.09375 C 8.519531 -18.789062 6.1875 -18.738281 4.28125 -18.9375 C 2.375 -19.132812 0.765625 -19.753906 -0.546875 -20.796875 C -1.859375 -21.847656 -2.8125 -23.457031 -3.40625 -25.625 C -3.96875 -27.664062 -3.867188 -29.585938 -3.109375 -31.390625 C -2.347656 -33.191406 -1.0625 -34.75 0.75 -36.0625 C 2.5625 -37.382812 4.726562 -38.390625 7.25 -39.078125 C 9.101562 -39.597656 11.015625 -39.878906 12.984375 -39.921875 C 14.960938 -39.972656 16.65625 -39.75 18.0625 -39.25 C 19.15625 -38.851562 19.800781 -38.3125 20 -37.625 C 20.21875 -36.84375 19.976562 -35.648438 19.28125 -34.046875 C 17.6875 -34.734375 15.875 -35.113281 13.84375 -35.1875 C 11.8125 -35.257812 9.910156 -35.050781 8.140625 -34.5625 C 5.710938 -33.882812 3.894531 -32.890625 2.6875 -31.578125 C 1.488281 -30.265625 1.125 -28.757812 1.59375 -27.0625 C 1.90625 -25.894531 2.445312 -25.054688 3.21875 -24.546875 C 4 -24.035156 4.96875 -23.75 6.125 -23.6875 C 7.289062 -23.632812 8.796875 -23.722656 10.640625 -23.953125 C 13.722656 -24.296875 16.296875 -24.398438 18.359375 -24.265625 C 20.429688 -24.140625 22.226562 -23.570312 23.75 -22.5625 C 25.269531 -21.550781 26.34375 -19.894531 26.96875 -17.59375 C 27.570312 -15.425781 27.535156 -13.394531 26.859375 -11.5 C 26.191406 -9.613281 24.894531 -7.957031 22.96875 -6.53125 C 21.050781 -5.113281 18.570312 -3.988281 15.53125 -3.15625 Z M 15.53125 -3.15625 "/></g></g></g><g fill="#122646" fill-opacity="1"><g transform="translate(96.280438, 207.388934)"><g><path d="M 13.21875 -38.921875 C 14.851562 -39.253906 16.625 -39.375 18.53125 -39.28125 C 20.4375 -39.1875 22.070312 -38.816406 23.4375 -38.171875 C 24.300781 -37.796875 24.820312 -37.1875 25 -36.34375 C 25.164062 -35.507812 24.894531 -34.359375 24.1875 -32.890625 C 22.863281 -33.484375 21.300781 -33.914062 19.5 -34.1875 C 17.695312 -34.457031 15.910156 -34.414062 14.140625 -34.0625 C 11.941406 -33.613281 10.082031 -32.75 8.5625 -31.46875 C 7.050781 -30.195312 5.992188 -28.5 5.390625 -26.375 C 4.796875 -24.257812 4.796875 -21.742188 5.390625 -18.828125 C 5.953125 -16.085938 6.90625 -13.851562 8.25 -12.125 C 9.59375 -10.40625 11.238281 -9.21875 13.1875 -8.5625 C 15.132812 -7.90625 17.300781 -7.816406 19.6875 -8.296875 C 21.800781 -8.734375 23.640625 -9.441406 25.203125 -10.421875 C 26.773438 -11.410156 27.992188 -12.398438 28.859375 -13.390625 C 30.109375 -12.234375 30.804688 -11.285156 30.953125 -10.546875 C 31.097656 -9.835938 30.890625 -9.148438 30.328125 -8.484375 C 29.554688 -7.535156 28.265625 -6.5625 26.453125 -5.5625 C 24.640625 -4.570312 22.582031 -3.84375 20.28125 -3.375 C 16.75 -2.65625 13.582031 -2.722656 10.78125 -3.578125 C 7.988281 -4.441406 5.660156 -6.0625 3.796875 -8.4375 C 1.929688 -10.8125 0.613281 -13.875 -0.15625 -17.625 C -0.925781 -21.414062 -0.867188 -24.789062 0.015625 -27.75 C 0.898438 -30.707031 2.492188 -33.140625 4.796875 -35.046875 C 7.097656 -36.953125 9.90625 -38.242188 13.21875 -38.921875 Z M 13.21875 -38.921875 "/></g></g></g><g fill="#122646" fill-opacity="1"><g transform="translate(121.865685, 201.759377)"><g><path d="M 30.609375 -11.90625 C 31.816406 -11.0625 32.488281 -10.097656 32.625 -9.015625 C 32.738281 -8.078125 32.460938 -7.253906 31.796875 -6.546875 C 30.890625 -5.460938 29.441406 -4.441406 27.453125 -3.484375 C 25.460938 -2.535156 23.148438 -1.894531 20.515625 -1.5625 C 17.023438 -1.113281 13.914062 -1.425781 11.1875 -2.5 C 8.457031 -3.570312 6.222656 -5.382812 4.484375 -7.9375 C 2.753906 -10.488281 1.644531 -13.664062 1.15625 -17.46875 C 0.65625 -21.351562 1.007812 -24.789062 2.21875 -27.78125 C 3.425781 -30.769531 5.234375 -33.132812 7.640625 -34.875 C 10.054688 -36.613281 12.820312 -37.6875 15.9375 -38.09375 C 18.71875 -38.445312 21.207031 -38.300781 23.40625 -37.65625 C 25.601562 -37.007812 27.363281 -35.941406 28.6875 -34.453125 C 30.007812 -32.960938 30.8125 -31.144531 31.09375 -29 C 31.53125 -25.5625 30.523438 -22.820312 28.078125 -20.78125 C 25.640625 -18.738281 21.851562 -17.390625 16.71875 -16.734375 C 13.28125 -16.285156 9.945312 -16.222656 6.71875 -16.546875 C 7.59375 -12.609375 9.210938 -9.835938 11.578125 -8.234375 C 13.953125 -6.640625 16.8125 -6.054688 20.15625 -6.484375 C 22.4375 -6.773438 24.453125 -7.429688 26.203125 -8.453125 C 27.953125 -9.472656 29.421875 -10.625 30.609375 -11.90625 Z M 16.484375 -33.390625 C 14.660156 -33.160156 12.957031 -32.546875 11.375 -31.546875 C 9.789062 -30.546875 8.523438 -29.144531 7.578125 -27.34375 C 6.640625 -25.550781 6.195312 -23.359375 6.25 -20.765625 C 9.375 -20.578125 12.695312 -20.707031 16.21875 -21.15625 C 19.625 -21.59375 22.128906 -22.347656 23.734375 -23.421875 C 25.347656 -24.492188 26.007812 -26.171875 25.71875 -28.453125 C 25.5625 -29.609375 25.054688 -30.597656 24.203125 -31.421875 C 23.347656 -32.242188 22.238281 -32.828125 20.875 -33.171875 C 19.507812 -33.515625 18.046875 -33.585938 16.484375 -33.390625 Z M 16.484375 -33.390625 "/></g></g></g><g fill="#122646" fill-opacity="1"><g transform="translate(151.726807, 197.925362)"><g><path d="M 8.953125 -10.1875 C 9.097656 -8.164062 9.523438 -6.738281 10.234375 -5.90625 C 10.953125 -5.082031 12.078125 -4.722656 13.609375 -4.828125 C 14.628906 -4.898438 15.65625 -5.1875 16.6875 -5.6875 C 17.726562 -6.195312 18.539062 -6.742188 19.125 -7.328125 C 20.320312 -6.328125 20.957031 -5.359375 21.03125 -4.421875 C 21.0625 -3.921875 20.945312 -3.4375 20.6875 -2.96875 C 20.425781 -2.5 20.015625 -2.085938 19.453125 -1.734375 C 17.816406 -0.660156 15.71875 -0.0351562 13.15625 0.140625 C 10.101562 0.359375 7.769531 -0.328125 6.15625 -1.921875 C 4.550781 -3.515625 3.617188 -6.132812 3.359375 -9.78125 L 0.53125 -49.484375 C 0.789062 -49.554688 1.132812 -49.628906 1.5625 -49.703125 C 2 -49.773438 2.394531 -49.828125 2.75 -49.859375 C 3.65625 -49.921875 4.347656 -49.878906 4.828125 -49.734375 C 5.316406 -49.585938 5.671875 -49.304688 5.890625 -48.890625 C 6.117188 -48.472656 6.265625 -47.863281 6.328125 -47.0625 Z M 8.953125 -10.1875 "/></g></g></g><g fill="#122646" fill-opacity="1"><g transform="translate(165.179216, 196.827456)"><g><path d="M 9.3125 -9.875 C 9.382812 -7.84375 9.765625 -6.398438 10.453125 -5.546875 C 11.140625 -4.691406 12.242188 -4.296875 13.765625 -4.359375 C 14.796875 -4.390625 15.832031 -4.632812 16.875 -5.09375 C 17.925781 -5.5625 18.757812 -6.078125 19.375 -6.640625 C 20.53125 -5.597656 21.125 -4.601562 21.15625 -3.65625 C 21.175781 -3.15625 21.046875 -2.675781 20.765625 -2.21875 C 20.492188 -1.757812 20.070312 -1.363281 19.5 -1.03125 C 17.820312 -0.0195312 15.695312 0.523438 13.125 0.609375 C 10.070312 0.722656 7.769531 -0.046875 6.21875 -1.703125 C 4.675781 -3.359375 3.835938 -6.015625 3.703125 -9.671875 L 2.296875 -49.4375 C 2.566406 -49.5 2.914062 -49.554688 3.34375 -49.609375 C 3.78125 -49.671875 4.175781 -49.707031 4.53125 -49.71875 C 5.4375 -49.75 6.128906 -49.6875 6.609375 -49.53125 C 7.085938 -49.375 7.429688 -49.082031 7.640625 -48.65625 C 7.859375 -48.226562 7.984375 -47.613281 8.015625 -46.8125 Z M 9.3125 -9.875 "/></g></g></g><g fill="#122646" fill-opacity="1"><g transform="translate(177.830333, 195.792657)"><g><path d="M 41.328125 -3.59375 C 41.578125 -3 41.691406 -2.320312 41.671875 -1.5625 C 41.648438 -0.476562 41.316406 0.300781 40.671875 0.78125 C 39.890625 1.34375 38.597656 1.601562 36.796875 1.5625 C 35.085938 1.519531 33.722656 1.164062 32.703125 0.5 C 31.679688 -0.15625 30.988281 -1.234375 30.625 -2.734375 C 29.226562 -1.273438 27.578125 -0.175781 25.671875 0.5625 C 23.765625 1.300781 21.6875 1.640625 19.4375 1.578125 C 16.320312 1.492188 13.566406 0.691406 11.171875 -0.828125 C 8.773438 -2.359375 6.925781 -4.515625 5.625 -7.296875 C 4.320312 -10.078125 3.71875 -13.359375 3.8125 -17.140625 C 3.914062 -20.878906 4.703125 -24.125 6.171875 -26.875 C 7.640625 -29.632812 9.640625 -31.734375 12.171875 -33.171875 C 14.710938 -34.617188 17.5625 -35.300781 20.71875 -35.21875 C 22.65625 -35.175781 24.5 -34.769531 26.25 -34 C 28.007812 -33.238281 29.550781 -32.179688 30.875 -30.828125 L 30.890625 -31.234375 C 30.921875 -32.453125 31.1875 -33.257812 31.6875 -33.65625 C 32.195312 -34.050781 33.101562 -34.234375 34.40625 -34.203125 C 34.71875 -34.191406 35.085938 -34.15625 35.515625 -34.09375 C 35.953125 -34.039062 36.304688 -33.988281 36.578125 -33.9375 L 35.859375 -6.640625 C 35.828125 -5.296875 35.984375 -4.359375 36.328125 -3.828125 C 36.679688 -3.296875 37.351562 -3.019531 38.34375 -3 C 39.5625 -2.96875 40.554688 -3.164062 41.328125 -3.59375 Z M 20.296875 -3.34375 C 22.234375 -3.289062 24.054688 -3.632812 25.765625 -4.375 C 27.472656 -5.113281 28.976562 -6.144531 30.28125 -7.46875 L 30.75 -25.625 C 29.519531 -27.007812 28.0625 -28.117188 26.375 -28.953125 C 24.6875 -29.785156 22.875 -30.226562 20.9375 -30.28125 C 18.820312 -30.332031 16.914062 -29.828125 15.21875 -28.765625 C 13.519531 -27.703125 12.160156 -26.171875 11.140625 -24.171875 C 10.117188 -22.179688 9.578125 -19.8125 9.515625 -17.0625 C 9.441406 -14.40625 9.875 -12.035156 10.8125 -9.953125 C 11.75 -7.878906 13.046875 -6.269531 14.703125 -5.125 C 16.359375 -3.988281 18.222656 -3.394531 20.296875 -3.34375 Z M 20.296875 -3.34375 "/></g></g></g><g fill="#122646" fill-opacity="1"><g transform="translate(210.677009, 196.21264)"><g><path d="M 42.4375 0.140625 C 42.625 0.753906 42.675781 1.4375 42.59375 2.1875 C 42.46875 3.257812 42.066406 4.007812 41.390625 4.4375 C 40.566406 4.9375 39.257812 5.085938 37.46875 4.890625 C 35.226562 4.628906 33.613281 3.828125 32.625 2.484375 C 31.644531 1.148438 31.316406 -0.941406 31.640625 -3.796875 L 33.1875 -17.359375 C 33.59375 -20.898438 33.117188 -23.492188 31.765625 -25.140625 C 30.410156 -26.796875 28.394531 -27.773438 25.71875 -28.078125 C 23.832031 -28.296875 21.921875 -28.070312 19.984375 -27.40625 C 18.046875 -26.75 16.425781 -25.851562 15.125 -24.71875 L 12.140625 1.53125 C 11.679688 1.5625 10.957031 1.519531 9.96875 1.40625 C 9.070312 1.300781 8.390625 1.128906 7.921875 0.890625 C 7.453125 0.660156 7.140625 0.328125 6.984375 -0.109375 C 6.828125 -0.554688 6.796875 -1.1875 6.890625 -2 L 9.640625 -26.109375 C 9.785156 -27.398438 9.664062 -28.335938 9.28125 -28.921875 C 8.894531 -29.515625 8.207031 -29.867188 7.21875 -29.984375 C 6.144531 -30.097656 5.234375 -30.023438 4.484375 -29.765625 C 4.285156 -30.410156 4.222656 -31.09375 4.296875 -31.8125 C 4.429688 -32.976562 5.039062 -33.75 6.125 -34.125 C 7.03125 -34.4375 8.128906 -34.515625 9.421875 -34.359375 C 11.128906 -34.171875 12.46875 -33.679688 13.4375 -32.890625 C 14.40625 -32.097656 15.003906 -30.890625 15.234375 -29.265625 C 16.640625 -30.515625 18.4375 -31.488281 20.625 -32.1875 C 22.820312 -32.894531 25.128906 -33.113281 27.546875 -32.84375 C 31.710938 -32.363281 34.765625 -30.8125 36.703125 -28.1875 C 38.648438 -25.5625 39.34375 -21.789062 38.78125 -16.875 L 37.25 -3.375 C 37.09375 -2.039062 37.160156 -1.09375 37.453125 -0.53125 C 37.753906 0.03125 38.398438 0.367188 39.390625 0.484375 C 40.597656 0.617188 41.613281 0.503906 42.4375 0.140625 Z M 42.4375 0.140625 "/></g></g></g><g fill="#122646" fill-opacity="1"><g transform="translate(244.088322, 199.71785)"><g><path d="M 32.828125 -1.53125 C 33.691406 -0.34375 34.019531 0.78125 33.8125 1.84375 C 33.625 2.769531 33.09375 3.460938 32.21875 3.921875 C 31.019531 4.648438 29.328125 5.148438 27.140625 5.421875 C 24.953125 5.703125 22.554688 5.585938 19.953125 5.078125 C 16.492188 4.390625 13.644531 3.097656 11.40625 1.203125 C 9.164062 -0.691406 7.628906 -3.125 6.796875 -6.09375 C 5.960938 -9.0625 5.914062 -12.425781 6.65625 -16.1875 C 7.425781 -20.03125 8.859375 -23.175781 10.953125 -25.625 C 13.046875 -28.070312 15.515625 -29.738281 18.359375 -30.625 C 21.203125 -31.507812 24.171875 -31.644531 27.265625 -31.03125 C 30.003906 -30.476562 32.3125 -29.546875 34.1875 -28.234375 C 36.0625 -26.921875 37.382812 -25.347656 38.15625 -23.515625 C 38.9375 -21.679688 39.117188 -19.703125 38.703125 -17.578125 C 38.023438 -14.179688 36.203125 -11.90625 33.234375 -10.75 C 30.273438 -9.59375 26.257812 -9.519531 21.1875 -10.53125 C 17.78125 -11.207031 14.597656 -12.207031 11.640625 -13.53125 C 11.222656 -9.519531 11.878906 -6.378906 13.609375 -4.109375 C 15.335938 -1.835938 17.851562 -0.375 21.15625 0.28125 C 23.414062 0.726562 25.539062 0.75 27.53125 0.34375 C 29.519531 -0.0625 31.285156 -0.6875 32.828125 -1.53125 Z M 26.265625 -26.40625 C 24.453125 -26.757812 22.640625 -26.71875 20.828125 -26.28125 C 19.015625 -25.84375 17.375 -24.914062 15.90625 -23.5 C 14.4375 -22.09375 13.316406 -20.15625 12.546875 -17.6875 C 15.429688 -16.519531 18.617188 -15.585938 22.109375 -14.890625 C 25.472656 -14.222656 28.085938 -14.140625 29.953125 -14.640625 C 31.816406 -15.140625 32.972656 -16.515625 33.421875 -18.765625 C 33.648438 -19.910156 33.488281 -21.007812 32.9375 -22.0625 C 32.394531 -23.125 31.53125 -24.035156 30.34375 -24.796875 C 29.164062 -25.554688 27.804688 -26.09375 26.265625 -26.40625 Z M 26.265625 -26.40625 "/></g></g></g><g fill="#122646" fill-opacity="1"><g transform="translate(272.945539, 205.021721)"><g><path d="M 19.65625 6.71875 C 16.226562 5.738281 13.46875 4.203125 11.375 2.109375 C 9.28125 0.015625 7.929688 -2.566406 7.328125 -5.640625 C 6.734375 -8.722656 6.96875 -12.125 8.03125 -15.84375 C 9.0625 -19.476562 10.644531 -22.421875 12.78125 -24.671875 C 14.925781 -26.921875 17.441406 -28.394531 20.328125 -29.09375 C 23.222656 -29.789062 26.300781 -29.675781 29.5625 -28.75 C 32.976562 -27.769531 35.734375 -26.234375 37.828125 -24.140625 C 39.929688 -22.046875 41.28125 -19.460938 41.875 -16.390625 C 42.46875 -13.316406 42.234375 -9.914062 41.171875 -6.1875 C 40.140625 -2.550781 38.554688 0.390625 36.421875 2.640625 C 34.285156 4.890625 31.769531 6.363281 28.875 7.0625 C 25.976562 7.757812 22.90625 7.644531 19.65625 6.71875 Z M 21.015625 1.96875 C 23.222656 2.59375 25.289062 2.679688 27.21875 2.234375 C 29.144531 1.785156 30.847656 0.726562 32.328125 -0.9375 C 33.816406 -2.601562 34.96875 -4.867188 35.78125 -7.734375 C 36.613281 -10.640625 36.828125 -13.203125 36.421875 -15.421875 C 36.023438 -17.640625 35.117188 -19.460938 33.703125 -20.890625 C 32.285156 -22.328125 30.453125 -23.367188 28.203125 -24.015625 C 25.984375 -24.640625 23.90625 -24.722656 21.96875 -24.265625 C 20.039062 -23.816406 18.335938 -22.753906 16.859375 -21.078125 C 15.378906 -19.410156 14.234375 -17.148438 13.421875 -14.296875 C 12.585938 -11.390625 12.375 -8.828125 12.78125 -6.609375 C 13.1875 -4.390625 14.097656 -2.566406 15.515625 -1.140625 C 16.929688 0.285156 18.765625 1.320312 21.015625 1.96875 Z M 21.015625 1.96875 "/></g></g></g><g fill="#122646" fill-opacity="1"><g transform="translate(303.779131, 213.408958)"><g><path d="M 38.796875 9.75 C 38.835938 10.382812 38.722656 11.066406 38.453125 11.796875 C 38.078125 12.796875 37.503906 13.414062 36.734375 13.65625 C 35.816406 13.9375 34.515625 13.757812 32.828125 13.125 C 31.097656 12.46875 29.863281 11.578125 29.125 10.453125 C 28.394531 9.335938 28.1875 7.851562 28.5 6 C 27.425781 6.695312 26.140625 7.207031 24.640625 7.53125 C 23.140625 7.863281 21.578125 7.988281 19.953125 7.90625 C 18.328125 7.820312 16.796875 7.507812 15.359375 6.96875 C 11.648438 5.5625 9.203125 3.367188 8.015625 0.390625 C 6.828125 -2.585938 7.078125 -6.3125 8.765625 -10.78125 L 16.515625 -31.265625 C 17.296875 -31.054688 17.984375 -30.84375 18.578125 -30.625 C 19.796875 -30.15625 20.566406 -29.644531 20.890625 -29.09375 C 21.210938 -28.539062 21.160156 -27.695312 20.734375 -26.5625 L 14.0625 -8.921875 C 12.882812 -5.804688 12.695312 -3.300781 13.5 -1.40625 C 14.300781 0.488281 15.859375 1.867188 18.171875 2.734375 C 20.023438 3.441406 22.019531 3.671875 24.15625 3.421875 C 26.300781 3.171875 28.234375 2.550781 29.953125 1.5625 L 39.109375 -22.640625 C 39.378906 -22.585938 39.722656 -22.503906 40.140625 -22.390625 C 40.554688 -22.285156 40.910156 -22.175781 41.203125 -22.0625 C 42.421875 -21.601562 43.191406 -21.097656 43.515625 -20.546875 C 43.835938 -19.992188 43.785156 -19.148438 43.359375 -18.015625 L 34.640625 5.0625 C 34.160156 6.332031 34 7.269531 34.15625 7.875 C 34.3125 8.488281 34.851562 8.972656 35.78125 9.328125 C 36.925781 9.753906 37.929688 9.894531 38.796875 9.75 Z M 38.796875 9.75 "/></g></g></g><g fill="#122646" fill-opacity="1"><g transform="translate(333.577229, 224.455667)"><g><path d="M 13.890625 7.65625 C 11.921875 6.738281 10.035156 5.539062 8.234375 4.0625 C 6.441406 2.582031 5.207031 1.234375 4.53125 0.015625 C 3.957031 -0.992188 3.84375 -1.863281 4.1875 -2.59375 C 4.550781 -3.375 5.550781 -4.148438 7.1875 -4.921875 C 8.007812 -3.253906 9.191406 -1.648438 10.734375 -0.109375 C 12.285156 1.429688 14.023438 2.648438 15.953125 3.546875 C 18.722656 4.835938 21.050781 5.320312 22.9375 5 C 24.820312 4.6875 26.191406 3.613281 27.046875 1.78125 C 27.523438 0.757812 27.640625 -0.175781 27.390625 -1.03125 C 27.148438 -1.894531 26.523438 -2.796875 25.515625 -3.734375 C 24.503906 -4.679688 22.988281 -5.847656 20.96875 -7.234375 C 18.65625 -8.804688 16.835938 -10.28125 15.515625 -11.65625 C 14.203125 -13.039062 13.378906 -14.554688 13.046875 -16.203125 C 12.722656 -17.847656 13.035156 -19.691406 13.984375 -21.734375 C 14.878906 -23.648438 16.195312 -25.050781 17.9375 -25.9375 C 19.6875 -26.820312 21.679688 -27.175781 23.921875 -27 C 26.160156 -26.820312 28.460938 -26.179688 30.828125 -25.078125 C 32.578125 -24.265625 34.222656 -23.238281 35.765625 -22 C 37.304688 -20.769531 38.445312 -19.507812 39.1875 -18.21875 C 39.757812 -17.207031 39.894531 -16.375 39.59375 -15.71875 C 39.25 -14.976562 38.300781 -14.226562 36.75 -13.46875 C 35.976562 -15.019531 34.84375 -16.476562 33.34375 -17.84375 C 31.84375 -19.21875 30.253906 -20.289062 28.578125 -21.0625 C 26.296875 -22.125 24.269531 -22.546875 22.5 -22.328125 C 20.726562 -22.109375 19.472656 -21.203125 18.734375 -19.609375 C 18.222656 -18.503906 18.097656 -17.503906 18.359375 -16.609375 C 18.617188 -15.722656 19.171875 -14.882812 20.015625 -14.09375 C 20.859375 -13.300781 22.0625 -12.390625 23.625 -11.359375 C 26.1875 -9.617188 28.210938 -8.03125 29.703125 -6.59375 C 31.191406 -5.15625 32.191406 -3.5625 32.703125 -1.8125 C 33.210938 -0.0625 32.960938 1.894531 31.953125 4.0625 C 31.003906 6.09375 29.660156 7.613281 27.921875 8.625 C 26.179688 9.632812 24.117188 10.054688 21.734375 9.890625 C 19.359375 9.734375 16.742188 8.988281 13.890625 7.65625 Z M 13.890625 7.65625 "/></g></g></g><g clip-path="url(#ca20352511)"><path fill="#ec297b" d="M 298.625 268.0625 C 298.519531 268.703125 298.351562 269.332031 298.121094 269.941406 C 297.890625 270.550781 297.605469 271.132812 297.265625 271.6875 C 296.921875 272.242188 296.53125 272.757812 296.085938 273.238281 C 295.644531 273.714844 295.160156 274.148438 294.632812 274.53125 C 294.105469 274.914062 293.546875 275.246094 292.957031 275.523438 C 292.367188 275.796875 291.753906 276.011719 291.121094 276.171875 C 290.488281 276.328125 289.847656 276.421875 289.195312 276.453125 C 288.542969 276.484375 287.898438 276.453125 287.25 276.359375 C 256.253906 271.925781 225.097656 269.707031 193.785156 269.707031 C 162.472656 269.707031 131.316406 271.925781 100.320312 276.359375 C 99.675781 276.453125 99.027344 276.484375 98.375 276.453125 C 97.722656 276.421875 97.082031 276.328125 96.449219 276.171875 C 95.816406 276.011719 95.203125 275.796875 94.613281 275.523438 C 94.023438 275.246094 93.464844 274.914062 92.9375 274.53125 C 92.410156 274.148438 91.925781 273.714844 91.484375 273.238281 C 91.042969 272.757812 90.648438 272.242188 90.304688 271.6875 C 89.964844 271.132812 89.679688 270.550781 89.449219 269.941406 C 89.21875 269.332031 89.050781 268.703125 88.945312 268.0625 L 83.839844 235.84375 C 83.761719 235.171875 83.75 234.5 83.804688 233.824219 C 83.859375 233.152344 83.980469 232.492188 84.167969 231.839844 C 84.351562 231.191406 84.597656 230.566406 84.910156 229.964844 C 85.21875 229.363281 85.582031 228.800781 86.003906 228.269531 C 86.425781 227.742188 86.894531 227.257812 87.410156 226.824219 C 87.925781 226.386719 88.480469 226.007812 89.070312 225.679688 C 89.664062 225.355469 90.28125 225.089844 90.925781 224.886719 C 91.570312 224.679688 92.226562 224.542969 92.898438 224.46875 C 126.359375 219.683594 159.988281 217.289062 193.785156 217.289062 C 227.585938 217.289062 261.210938 219.683594 294.671875 224.46875 C 295.34375 224.542969 296 224.679688 296.644531 224.886719 C 297.289062 225.089844 297.90625 225.355469 298.5 225.679688 C 299.089844 226.007812 299.644531 226.386719 300.160156 226.824219 C 300.675781 227.257812 301.144531 227.742188 301.566406 228.269531 C 301.988281 228.800781 302.351562 229.363281 302.664062 229.964844 C 302.972656 230.566406 303.21875 231.191406 303.40625 231.839844 C 303.589844 232.492188 303.710938 233.152344 303.765625 233.824219 C 303.820312 234.5 303.808594 235.171875 303.730469 235.84375 Z M 298.625 268.0625 " fill-opacity="1" fill-rule="nonzero"/></g><path fill="#122646" d="M 288.664062 272.980469 C 288.351562 273 288.039062 273 287.722656 272.980469 C 256.5625 268.523438 225.242188 266.296875 193.765625 266.296875 C 162.289062 266.296875 130.96875 268.523438 99.808594 272.980469 C 99.492188 273 99.179688 273 98.863281 272.980469 C 98.476562 272.980469 98.09375 272.949219 97.714844 272.886719 C 97.335938 272.820312 96.964844 272.722656 96.601562 272.589844 C 96.238281 272.457031 95.890625 272.296875 95.558594 272.101562 C 95.222656 271.910156 94.910156 271.6875 94.613281 271.441406 C 94.320312 271.191406 94.050781 270.917969 93.804688 270.621094 C 93.558594 270.324219 93.339844 270.007812 93.148438 269.671875 C 92.960938 269.335938 92.800781 268.988281 92.671875 268.625 C 92.542969 268.261719 92.449219 267.886719 92.386719 267.507812 L 87.285156 235.289062 C 87.160156 234.5 87.199219 233.714844 87.394531 232.941406 C 87.589844 232.164062 87.929688 231.460938 88.410156 230.820312 C 89.015625 230.027344 89.75 229.378906 90.613281 228.878906 C 91.476562 228.375 92.402344 228.0625 93.390625 227.933594 C 126.695312 223.160156 160.171875 220.773438 193.816406 220.773438 C 227.460938 220.773438 260.9375 223.160156 294.242188 227.933594 C 295.230469 228.0625 296.15625 228.375 297.019531 228.878906 C 297.882812 229.378906 298.617188 230.027344 299.21875 230.820312 C 299.703125 231.460938 300.042969 232.164062 300.238281 232.941406 C 300.433594 233.714844 300.46875 234.5 300.347656 235.289062 L 295.246094 267.527344 C 295.179688 267.910156 295.082031 268.289062 294.953125 268.652344 C 294.824219 269.019531 294.660156 269.371094 294.464844 269.710938 C 294.273438 270.046875 294.050781 270.363281 293.800781 270.664062 C 293.546875 270.960938 293.273438 271.234375 292.972656 271.480469 C 292.671875 271.730469 292.355469 271.949219 292.015625 272.140625 C 291.675781 272.332031 291.324219 272.492188 290.953125 272.621094 C 290.585938 272.746094 290.210938 272.839844 289.828125 272.902344 C 289.441406 272.960938 289.054688 272.988281 288.664062 272.980469 Z M 288.664062 272.980469 " fill-opacity="1" fill-rule="nonzero"/><path fill="#122646" d="M 92.121094 233.363281 C 91.792969 233.773438 91.679688 234.238281 91.773438 234.757812 C 91.773438 234.757812 92.53125 242.320312 94.128906 257.914062 L 90.359375 235.226562 C 90.277344 234.78125 90.292969 234.335938 90.40625 233.894531 C 90.519531 233.453125 90.722656 233.058594 91.015625 232.707031 C 91.726562 231.808594 92.648438 231.285156 93.78125 231.128906 C 124.136719 226.785156 154.648438 224.484375 185.3125 224.230469 C 215.972656 223.972656 246.519531 225.757812 276.941406 229.59375 C 246.511719 226.183594 215.984375 224.710938 185.367188 225.175781 C 154.746094 225.644531 124.28125 228.042969 93.964844 232.378906 C 93.21875 232.457031 92.601562 232.785156 92.121094 233.363281 Z M 92.121094 233.363281 " fill-opacity="1" fill-rule="nonzero"/><path fill="#122646" d="M 295.921875 241.046875 L 291.820312 267.300781 C 291.761719 267.652344 291.644531 267.984375 291.46875 268.292969 C 291.292969 268.601562 291.070312 268.871094 290.796875 269.101562 C 290.523438 269.328125 290.222656 269.503906 289.886719 269.625 C 289.550781 269.746094 289.207031 269.804688 288.851562 269.800781 L 288.378906 269.800781 C 277.660156 268.203125 266.859375 266.914062 255.996094 266.03125 L 255.875 266.03125 C 254.253906 265.886719 252.65625 265.765625 251.039062 265.664062 L 249.726562 265.664062 C 246.527344 265.417969 243.332031 265.230469 240.132812 265.070312 L 239.992188 265.070312 C 238.472656 265.070312 236.9375 264.90625 235.398438 264.863281 C 234.746094 264.863281 234.230469 264.863281 233.863281 264.863281 C 236.097656 264.863281 244.109375 265.128906 253.703125 265.457031 C 263.949219 265.804688 274.011719 266.6875 278.132812 267.179688 C 278.378906 267.160156 278.625 267.160156 278.871094 267.179688 L 279.339844 267.179688 C 282.027344 267.507812 284.730469 267.875 287.539062 268.304688 L 287.988281 268.304688 C 288.34375 268.304688 288.6875 268.242188 289.019531 268.121094 C 289.351562 267.996094 289.652344 267.820312 289.921875 267.585938 C 290.191406 267.355469 290.410156 267.085938 290.582031 266.777344 C 290.753906 266.464844 290.867188 266.136719 290.921875 265.785156 Z M 295.921875 241.046875 " fill-opacity="1" fill-rule="nonzero"/><g clip-path="url(#974094e180)"><path fill="#ec297b" d="M 314.394531 253.570312 C 319.445312 252.175781 320.578125 251.042969 321.972656 245.992188 C 323.367188 251.042969 324.496094 252.175781 329.546875 253.570312 C 324.496094 254.964844 323.367188 256.09375 321.972656 261.144531 C 320.574219 256.09375 319.445312 254.964844 314.394531 253.570312 Z M 297.507812 293.484375 C 301.003906 280.828125 303.835938 277.996094 316.492188 274.5 C 303.835938 271.003906 301.003906 268.171875 297.507812 255.511719 C 294.011719 268.171875 291.179688 271.003906 278.523438 274.5 C 291.179688 277.996094 294.011719 280.828125 297.507812 293.484375 Z M 297.507812 293.484375 " fill-opacity="1" fill-rule="nonzero"/></g><g fill="#ffffff" fill-opacity="1"><g transform="translate(127.454247, 254.685422)"><g><path d="M 5.34375 -0.46875 C 6.296875 -0.578125 7.578125 -0.953125 8.3125 -1.53125 C 8.46875 -1.6875 8.609375 -2 8.53125 -2.3125 C 8.421875 -3.375 8.25 -4.46875 8.109375 -5.515625 C 8.046875 -6.046875 7.453125 -5.984375 7.359375 -5.515625 C 7.0625 -4.28125 6.34375 -3.34375 5.171875 -3.21875 C 3.75 -3.046875 2.46875 -4.109375 2.03125 -8.046875 C 1.53125 -12.4375 2.390625 -14.671875 3.859375 -14.84375 C 4.953125 -14.96875 5.59375 -14.296875 6.203125 -13.140625 C 6.421875 -12.6875 6.96875 -12.84375 6.921875 -13.3125 C 6.890625 -13.734375 6.71875 -16.015625 6.671875 -16.390625 C 6.65625 -16.65625 6.5625 -16.859375 6.359375 -17 C 5.671875 -17.34375 4.640625 -17.671875 3.515625 -17.53125 C 0.59375 -17.203125 -1.109375 -13.65625 -0.421875 -7.671875 C 0.234375 -1.890625 2.4375 -0.140625 5.34375 -0.46875 Z M 5.34375 -0.46875 "/></g></g></g><g fill="#ffffff" fill-opacity="1"><g transform="translate(137.417678, 253.557528)"><g><path d="M 5.09375 -0.34375 C 8 -0.609375 9.59375 -2.6875 9.046875 -8.5625 C 8.484375 -14.5625 6.40625 -17.703125 3.484375 -17.4375 C 0.5625 -17.15625 -0.890625 -13.671875 -0.328125 -7.671875 C 0.21875 -1.796875 2.21875 -0.0625 5.09375 -0.34375 Z M 4.84375 -3.1875 C 3.515625 -3.0625 2.46875 -4.15625 2.09375 -8.03125 C 1.71875 -11.984375 2.390625 -14.4375 3.765625 -14.578125 C 5.109375 -14.703125 6.21875 -12.40625 6.59375 -8.453125 C 6.96875 -4.578125 6.140625 -3.3125 4.84375 -3.1875 Z M 4.84375 -3.1875 "/></g></g></g><g fill="#ffffff" fill-opacity="1"><g transform="translate(148.407967, 252.534077)"><g><path d="M 7.796875 -0.4375 C 8.625 -0.5 8.921875 -1.515625 8.78125 -3.421875 C 8.375 -9.1875 8 -13.625 7.453125 -16.96875 C 7.421875 -17.28125 7.265625 -17.40625 6.984375 -17.453125 C 6.703125 -17.484375 6.484375 -17.484375 6.265625 -17.46875 C 6.046875 -17.453125 5.6875 -17.421875 5.46875 -17.34375 C 5.15625 -17.234375 4.953125 -17.015625 5.03125 -16.640625 C 5.546875 -14.578125 6.609375 -9.0625 5.78125 -9 C 5.140625 -8.953125 3.25 -13.546875 2.296875 -16.484375 C 2.125 -16.796875 1.875 -17 1.546875 -17.046875 C 1.25 -17.09375 1 -17.078125 0.8125 -17.0625 C 0.609375 -17.046875 0.328125 -17.03125 0.125 -16.953125 C -0.171875 -16.828125 -0.296875 -16.703125 -0.296875 -16.375 C -0.328125 -12.796875 0.046875 -6.46875 0.484375 -0.609375 C 0.515625 -0.265625 0.765625 -0.140625 1.0625 -0.078125 C 1.421875 -0.03125 1.765625 -0.046875 1.984375 -0.0625 C 2.203125 -0.078125 2.625 -0.109375 2.875 -0.1875 C 3.1875 -0.28125 3.4375 -0.5 3.359375 -0.875 C 3.09375 -2.171875 2.6875 -4.90625 2.53125 -6.84375 C 2.453125 -8 2.609375 -8.6875 2.859375 -8.71875 C 3.96875 -8.796875 5.578125 -0.28125 7.796875 -0.4375 Z M 7.796875 -0.4375 "/></g></g></g><g fill="#ffffff" fill-opacity="1"><g transform="translate(158.77779, 251.772691)"><g><path d="M 2.140625 -0.046875 C 2.53125 -0.0625 2.78125 -0.078125 3.140625 -0.171875 C 3.40625 -0.234375 3.5625 -0.4375 3.515625 -0.703125 C 3.34375 -1.703125 2.734375 -3.421875 2.625 -5.5625 C 2.515625 -7.375 2.90625 -8.375 4 -8.4375 C 4.671875 -8.484375 5.609375 -8.296875 6.09375 -7.734375 C 6.390625 -7.328125 6.8125 -7.40625 6.78125 -7.96875 C 6.734375 -8.8125 6.65625 -9.65625 6.609375 -10.5 C 6.59375 -10.765625 6.359375 -10.9375 6.09375 -10.875 C 5.46875 -10.71875 4.71875 -10.625 4.03125 -10.59375 C 2.96875 -10.53125 2.296875 -11.375 2.234375 -12.40625 L 2.21875 -12.71875 C 2.140625 -14 2.96875 -14.671875 4.078125 -14.734375 C 5.5 -14.8125 6.34375 -14.234375 6.9375 -13.234375 C 7.203125 -12.71875 7.703125 -12.875 7.640625 -13.484375 C 7.5625 -14.546875 7.375 -16.40625 7.3125 -16.890625 C 7.28125 -17.15625 7.0625 -17.28125 6.828125 -17.296875 C 5.875 -17.3125 4.671875 -17.234375 3.625 -17.171875 C 2.640625 -17.125 0.984375 -17.03125 0.375 -16.9375 C 0.125 -16.890625 -0.0625 -16.734375 -0.046875 -16.46875 C -0.046875 -12.65625 0.234375 -5.953125 0.5 -0.484375 C 0.515625 -0.21875 0.71875 -0.078125 1.015625 -0.0625 C 1.546875 -0.046875 1.734375 -0.015625 2.140625 -0.046875 Z M 2.140625 -0.046875 "/></g></g></g><g fill="#ffffff" fill-opacity="1"><g transform="translate(168.287366, 251.258075)"><g><path d="M 1.859375 0 C 2.125 -0.015625 2.453125 -0.0625 2.75 -0.125 C 2.96875 -0.171875 3.1875 -0.359375 3.171875 -0.703125 C 2.921875 -6.5625 2.53125 -12.953125 2.265625 -16.515625 C 2.25 -16.75 2.0625 -16.921875 1.828125 -16.984375 C 1.671875 -17.03125 1.34375 -17.03125 1.140625 -17.015625 C 0.984375 -17.015625 0.640625 -16.984375 0.453125 -16.921875 C 0.15625 -16.8125 0 -16.6875 0 -16.421875 C 0.046875 -12.84375 0.203125 -6.4375 0.453125 -0.578125 C 0.46875 -0.234375 0.71875 -0.078125 0.96875 -0.046875 C 1.25 0 1.59375 0.015625 1.859375 0 Z M 1.859375 0 "/></g></g></g><g fill="#ffffff" fill-opacity="1"><g transform="translate(172.848968, 251.043043)"><g><path d="M 4.171875 0.015625 C 5.40625 -0.015625 6.140625 -0.640625 6.578125 -2.171875 C 6.671875 -2.734375 6.984375 -2.71875 6.984375 -2.140625 L 6.9375 -0.734375 C 6.90625 -0.390625 7.09375 -0.234375 7.359375 -0.21875 C 8.015625 -0.1875 8.609375 -0.203125 9.140625 -0.265625 C 9.4375 -0.3125 9.578125 -0.46875 9.5625 -0.8125 C 9.5 -4.53125 9.390625 -6.546875 9 -9.84375 C 8.96875 -10.109375 8.875 -10.28125 8.5625 -10.296875 C 7.78125 -10.3125 7.078125 -10.28125 6.3125 -10.21875 C 5.953125 -10.203125 5.828125 -9.84375 5.984375 -9.625 C 6.453125 -8.8125 6.640625 -8.234375 6.6875 -6.84375 C 6.75 -4.71875 6.140625 -2.90625 4.890625 -2.859375 C 3.734375 -2.8125 2.8125 -3.90625 2.6875 -7.84375 C 2.5625 -12.21875 3.625 -14.359375 5.078125 -14.390625 C 6.140625 -14.421875 6.78125 -13.78125 7.34375 -12.640625 C 7.546875 -12.15625 8.03125 -12.21875 8.015625 -12.8125 L 8.109375 -15.5 C 8.109375 -15.90625 8 -16.21875 7.75 -16.453125 C 7.109375 -16.859375 6.109375 -17.21875 4.96875 -17.1875 C 2.03125 -17.09375 -0.015625 -13.6875 0.171875 -7.65625 C 0.328125 -1.921875 2.203125 0.078125 4.171875 0.015625 Z M 4.171875 0.015625 "/></g></g></g><g fill="#ffffff" fill-opacity="1"><g transform="translate(183.740451, 250.733962)"><g><path d="M 4.6875 0.09375 C 7.53125 0.0625 8.90625 -1.65625 8.859375 -5.375 C 8.8125 -8.78125 8.5625 -13.796875 8.3125 -16.5 C 8.296875 -16.78125 8.125 -16.890625 7.890625 -16.96875 C 7.640625 -17.015625 7.3125 -17.03125 7.046875 -17.03125 C 6.703125 -17.03125 6.34375 -17 6.09375 -16.953125 C 5.890625 -16.90625 5.6875 -16.734375 5.71875 -16.4375 C 6.078125 -13.5 6.296875 -9.34375 6.3125 -6.1875 C 6.34375 -3.75 5.875 -2.640625 4.65625 -2.625 C 3.4375 -2.609375 2.9375 -3.671875 2.875 -6.15625 C 2.828125 -9.3125 2.953125 -13.5 3.28125 -16.40625 C 3.328125 -16.671875 3.078125 -16.875 2.890625 -16.921875 C 2.671875 -16.96875 2.234375 -16.984375 1.96875 -16.96875 C 1.609375 -16.96875 1.296875 -16.953125 1.109375 -16.90625 C 0.859375 -16.828125 0.71875 -16.703125 0.671875 -16.421875 C 0.515625 -13.703125 0.34375 -8.6875 0.359375 -5.28125 C 0.375 -1.5625 1.8125 0.125 4.6875 0.09375 Z M 4.6875 0.09375 "/></g></g></g><g fill="#ffffff" fill-opacity="1"><g transform="translate(193.891359, 250.636025)"><g><path d="M 1.984375 0.09375 C 2.34375 0.09375 2.75 0.0625 3.09375 0.03125 C 3.359375 -0.015625 3.59375 -0.203125 3.578125 -0.46875 C 3.46875 -2.109375 3.171875 -4.28125 3.203125 -6.5625 C 3.203125 -7.15625 3.4375 -7.5 3.78125 -7.5 C 5.25 -7.453125 6.234375 -3.9375 6 -0.515625 C 6 -0.171875 6.296875 -0.03125 6.5625 0.0625 C 6.84375 0.109375 7.359375 0.140625 7.578125 0.140625 C 7.796875 0.140625 8.15625 0.140625 8.46875 0.078125 C 8.75 0 9 -0.140625 9 -0.5 C 9.046875 -5.25 8.40625 -7.203125 6.28125 -8.25 C 6.03125 -8.375 6.03125 -8.640625 6.296875 -8.765625 C 8.203125 -9.703125 9.140625 -11.625 9.15625 -13.359375 C 9.1875 -15.84375 7.375 -16.953125 4.5 -16.984375 C 3.515625 -16.984375 1.859375 -16.9375 1.4375 -16.890625 C 1.203125 -16.875 0.984375 -16.71875 0.984375 -16.484375 C 0.921875 -13.875 0.5625 -2.984375 0.53125 -0.453125 C 0.53125 -0.21875 0.703125 -0.078125 1.015625 0.015625 C 1.1875 0.0625 1.609375 0.09375 1.984375 0.09375 Z M 3.96875 -9.78125 C 3.53125 -9.546875 3.21875 -9.625 3.171875 -10.125 C 3.0625 -11.21875 3.125 -12.78125 3.203125 -13.671875 C 3.234375 -13.984375 3.40625 -14.234375 3.75 -14.234375 C 3.953125 -14.25 4.15625 -14.25 4.421875 -14.25 C 5.96875 -14.234375 6.671875 -13.671875 6.671875 -12.53125 C 6.65625 -11.5 5.640625 -10.34375 3.96875 -9.78125 Z M 3.96875 -9.78125 "/></g></g></g><g fill="#ffffff" fill-opacity="1"><g transform="translate(204.302323, 250.729192)"><g><path d="M 1.671875 0.125 C 2 0.140625 2.484375 0.109375 2.75 0.078125 C 2.96875 0.03125 3.15625 -0.078125 3.15625 -0.3125 C 3.09375 -1.375 3.1875 -2.5625 3.390625 -3.578125 C 3.5625 -4.0625 3.984375 -4.359375 4.703125 -4.359375 L 5.59375 -4.328125 C 6.28125 -4.3125 6.75 -3.984375 6.90625 -3.484375 C 7.03125 -2.421875 7.0625 -1.265625 6.9375 -0.21875 C 6.921875 0.015625 7.09375 0.15625 7.3125 0.203125 C 7.578125 0.25 8.125 0.296875 8.34375 0.3125 C 8.546875 0.3125 9.078125 0.296875 9.28125 0.25 C 9.578125 0.21875 9.75 0.046875 9.6875 -0.21875 C 9.34375 -6.078125 8.21875 -12.59375 7.0625 -16.296875 C 7 -16.484375 6.84375 -16.671875 6.59375 -16.71875 C 6.28125 -16.796875 5.75 -16.8125 5.515625 -16.8125 C 5.25 -16.828125 4.71875 -16.828125 4.421875 -16.78125 C 4.15625 -16.734375 4.015625 -16.578125 3.921875 -16.390625 C 2.578125 -12.75 1.09375 -6.296875 0.40625 -0.46875 C 0.34375 -0.203125 0.5 -0.03125 0.796875 0.015625 C 1.015625 0.078125 1.375 0.109375 1.671875 0.125 Z M 5 -5.921875 C 4.328125 -5.96875 4.015625 -6.375 4.140625 -6.9375 C 4.265625 -8.546875 4.53125 -10.0625 4.953125 -11.9375 C 5.203125 -12.859375 5.546875 -12.859375 5.75 -11.90625 C 6.09375 -10.03125 6.296875 -8.484375 6.359375 -6.875 C 6.4375 -6.3125 6.078125 -5.921875 5.40625 -5.921875 Z M 5 -5.921875 "/></g></g></g><g fill="#ffffff" fill-opacity="1"><g transform="translate(215.193669, 251.043432)"><g><path d="M 4.6875 0.296875 C 4.875 0.3125 5.453125 0.296875 5.640625 0.265625 C 5.9375 0.234375 6.21875 0.078125 6.21875 -0.1875 C 6.25 -1.71875 6.265625 -10.5 6.3125 -12.53125 C 6.375 -13.640625 6.53125 -14.109375 7.109375 -14.09375 C 7.96875 -14.046875 8.5625 -13.4375 8.90625 -12.421875 C 9.078125 -11.984375 9.609375 -11.890625 9.640625 -12.5625 C 9.671875 -13.140625 9.75 -15.515625 9.71875 -15.984375 C 9.6875 -16.25 9.53125 -16.4375 9.265625 -16.484375 C 8.40625 -16.578125 6.734375 -16.65625 5.453125 -16.71875 C 4.203125 -16.78125 2.484375 -16.890625 1.59375 -16.84375 C 1.375 -16.8125 1.171875 -16.6875 1.109375 -16.390625 C 1.0625 -15.921875 0.90625 -13.59375 0.875 -12.96875 C 0.84375 -12.296875 1.375 -12.359375 1.578125 -12.765625 C 2.046875 -13.71875 2.765625 -14.296875 3.5625 -14.25 C 4.140625 -14.234375 4.28125 -13.734375 4.21875 -12.625 C 4.078125 -10.46875 3.328125 -1.875 3.21875 -0.328125 C 3.21875 -0.0625 3.421875 0.109375 3.6875 0.171875 C 3.890625 0.21875 4.484375 0.28125 4.6875 0.296875 Z M 4.6875 0.296875 "/></g></g></g><g fill="#ffffff" fill-opacity="1"><g transform="translate(225.375456, 251.545928)"><g><path d="M 1.859375 0.1875 C 2.125 0.203125 2.453125 0.1875 2.75 0.171875 C 2.96875 0.125 3.21875 -0.03125 3.234375 -0.375 C 3.59375 -6.21875 3.859375 -12.609375 3.96875 -16.1875 C 3.96875 -16.4375 3.8125 -16.609375 3.578125 -16.703125 C 3.421875 -16.765625 3.09375 -16.796875 2.890625 -16.8125 C 2.734375 -16.8125 2.390625 -16.828125 2.203125 -16.78125 C 1.90625 -16.71875 1.71875 -16.59375 1.703125 -16.328125 C 1.375 -12.765625 0.875 -6.375 0.515625 -0.53125 C 0.5 -0.1875 0.71875 0 0.96875 0.0625 C 1.25 0.125 1.59375 0.171875 1.859375 0.1875 Z M 1.859375 0.1875 "/></g></g></g><g fill="#ffffff" fill-opacity="1"><g transform="translate(229.933749, 251.804374)"><g><path d="M 5.0625 0.515625 C 7.984375 0.734375 9.90625 -1.046875 10.359375 -6.921875 C 10.796875 -12.9375 9.28125 -16.390625 6.34375 -16.609375 C 3.4375 -16.828125 1.40625 -13.640625 0.96875 -7.625 C 0.515625 -1.75 2.203125 0.3125 5.0625 0.515625 Z M 5.296875 -2.34375 C 3.96875 -2.4375 3.125 -3.671875 3.40625 -7.5625 C 3.703125 -11.515625 4.765625 -13.828125 6.140625 -13.734375 C 7.5 -13.625 8.21875 -11.1875 7.921875 -7.234375 C 7.640625 -3.34375 6.609375 -2.234375 5.296875 -2.34375 Z M 5.296875 -2.34375 "/></g></g></g><g fill="#ffffff" fill-opacity="1"><g transform="translate(240.940081, 252.637579)"><g><path d="M 7.75 0.875 C 8.59375 0.953125 9.046875 0 9.234375 -1.890625 C 9.796875 -7.671875 10.171875 -12.078125 10.203125 -15.484375 C 10.21875 -15.796875 10.09375 -15.9375 9.796875 -16.03125 C 9.546875 -16.109375 9.328125 -16.140625 9.109375 -16.171875 C 8.890625 -16.1875 8.53125 -16.21875 8.28125 -16.1875 C 7.96875 -16.109375 7.734375 -15.9375 7.734375 -15.546875 C 7.90625 -13.453125 8.03125 -7.828125 7.203125 -7.90625 C 6.5625 -7.96875 5.484375 -12.796875 5.03125 -15.859375 C 4.921875 -16.203125 4.703125 -16.4375 4.359375 -16.546875 C 4.09375 -16.640625 3.84375 -16.65625 3.65625 -16.6875 C 3.453125 -16.703125 3.1875 -16.71875 2.953125 -16.6875 C 2.65625 -16.625 2.5 -16.515625 2.453125 -16.1875 C 1.828125 -12.65625 1.140625 -6.359375 0.578125 -0.515625 C 0.546875 -0.171875 0.765625 0 1.0625 0.09375 C 1.421875 0.21875 1.75 0.25 1.96875 0.265625 C 2.1875 0.28125 2.609375 0.328125 2.875 0.296875 C 3.1875 0.25 3.46875 0.09375 3.46875 -0.296875 C 3.421875 -1.609375 3.46875 -4.40625 3.65625 -6.328125 C 3.765625 -7.484375 4.03125 -8.140625 4.28125 -8.125 C 5.390625 -8.015625 5.53125 0.671875 7.75 0.875 Z M 7.75 0.875 "/></g></g></g><g fill="#ffffff" fill-opacity="1"><g transform="translate(251.285322, 253.62213)"><g><path d="M 4.515625 0.65625 C 7.15625 0.953125 9.125 -0.484375 9.421875 -3.171875 C 9.90625 -7.40625 4.265625 -9.515625 4.578125 -12.34375 C 4.703125 -13.4375 5.765625 -13.859375 6.828125 -13.734375 C 7.703125 -13.640625 8.5 -13.140625 9.09375 -12.15625 C 9.34375 -11.671875 9.8125 -11.734375 9.875 -12.3125 L 10.125 -14.5625 C 10.15625 -14.78125 10.0625 -15.046875 9.859375 -15.25 C 9.125 -15.84375 8.046875 -16.234375 7 -16.34375 C 4.515625 -16.625 2.40625 -15.296875 2.109375 -12.65625 C 1.609375 -8.203125 7.34375 -6.9375 6.953125 -3.59375 C 6.8125 -2.359375 5.921875 -1.796875 4.640625 -1.9375 C 3.5 -2.078125 2.34375 -2.6875 1.609375 -4.046875 C 1.390625 -4.5 0.921875 -4.5 0.84375 -3.859375 C 0.75 -3.03125 0.640625 -2.203125 0.546875 -1.390625 C 0.515625 -1.03125 0.59375 -0.875 0.765625 -0.71875 C 1.78125 0.03125 3.296875 0.515625 4.515625 0.65625 Z M 4.515625 0.65625 "/></g></g></g></svg>