<svg xmlns="http://www.w3.org/2000/svg" xmlns:xlink="http://www.w3.org/1999/xlink" width="500" zoomAndPan="magnify" viewBox="0 0 375 374.999991" height="500" preserveAspectRatio="xMidYMid meet" version="1.0"><defs><g/><clipPath id="d8d193b809"><path d="M 10 45 L 366 45 L 366 349 L 10 349 Z M 10 45 " clip-rule="nonzero"/></clipPath><clipPath id="a7ab21e4ca"><path d="M 57.296875 4.265625 L 371.070312 55.921875 L 318.5625 374.878906 L 4.785156 323.222656 Z M 57.296875 4.265625 " clip-rule="nonzero"/></clipPath><clipPath id="dc4c192286"><path d="M 57.296875 4.265625 L 371.070312 55.921875 L 318.5625 374.878906 L 4.785156 323.222656 Z M 57.296875 4.265625 " clip-rule="nonzero"/></clipPath><clipPath id="d97a0a4330"><path d="M 9 41 L 365 41 L 365 345 L 9 345 Z M 9 41 " clip-rule="nonzero"/></clipPath><clipPath id="70e4841d2c"><path d="M 56.382812 0 L 370.160156 51.65625 L 317.652344 370.613281 L 3.875 318.957031 Z M 56.382812 0 " clip-rule="nonzero"/></clipPath><clipPath id="c8fcf46a51"><path d="M 56.382812 0 L 370.160156 51.65625 L 317.652344 370.613281 L 3.875 318.957031 Z M 56.382812 0 " clip-rule="nonzero"/></clipPath><clipPath id="0e6edc4ded"><path d="M 260 78 L 325 78 L 325 140 L 260 140 Z M 260 78 " clip-rule="nonzero"/></clipPath><clipPath id="5feb8cbdae"><path d="M 249.957031 111.316406 L 294.042969 62.199219 L 339.808594 103.277344 L 295.722656 152.394531 Z M 249.957031 111.316406 " clip-rule="nonzero"/></clipPath><clipPath id="fb003ab85e"><path d="M 249.957031 111.316406 L 294.042969 62.199219 L 339.808594 103.277344 L 295.722656 152.394531 Z M 249.957031 111.316406 " clip-rule="nonzero"/></clipPath><clipPath id="bcda7a5ffa"><path d="M 46 250 L 96 250 L 96 296 L 46 296 Z M 46 250 " clip-rule="nonzero"/></clipPath><clipPath id="eb1612322e"><path d="M 46.773438 249.777344 L 95.511719 250.757812 L 94.609375 295.75 L 45.867188 294.769531 Z M 46.773438 249.777344 " clip-rule="nonzero"/></clipPath><clipPath id="128e154b52"><path d="M 46.773438 249.777344 L 95.511719 250.757812 L 94.609375 295.75 L 45.867188 294.769531 Z M 46.773438 249.777344 " clip-rule="nonzero"/></clipPath></defs><g clip-path="url(#d8d193b809)"><g clip-path="url(#a7ab21e4ca)"><g clip-path="url(#dc4c192286)"><path fill="#c48e9d" d="M 201.554688 114.773438 C 191.429688 109.4375 182.570312 108.230469 176.875 112.335938 C 171.007812 116.542969 169.382812 125.625 171.417969 137.316406 C 181.574219 129.382812 191.671875 121.84375 201.554688 114.773438 Z M 287.96875 166.59375 C 282.539062 157.421875 276.511719 148.179688 269.917969 138.988281 C 259.667969 124.640625 248.4375 111.109375 236.226562 98.390625 C 293.414062 67.207031 338.871094 54.558594 349.773438 69.78125 C 360.550781 84.804688 334.777344 123.066406 287.96875 166.59375 Z M 204.855469 116.675781 C 217.84375 124.441406 232.566406 138.472656 245.5 156.507812 C 252.660156 166.390625 258.714844 176.914062 263.65625 188.074219 C 250.890625 198.792969 237.117188 209.640625 222.472656 220.378906 C 212.78125 211.742188 204.179688 202.132812 196.671875 191.542969 C 183.195312 172.753906 174.460938 153.523438 171.601562 138.441406 C 182.847656 130.65625 194.007812 123.390625 204.859375 116.664062 Z M 270.09375 207.257812 C 260.300781 215.644531 249.867188 223.988281 238.90625 232.289062 C 249.757812 238.417969 259.265625 240.003906 265.304688 235.671875 C 271.726562 231.054688 273.070312 220.605469 270.09375 207.246094 Z M 142.320312 159.59375 C 129.988281 168.917969 118.332031 178.289062 107.492188 187.503906 C 110.828125 202.140625 119.308594 220.214844 132 237.898438 C 138.898438 247.597656 146.707031 256.5 155.425781 264.601562 C 168.601562 256.882812 182.242188 248.3125 196.109375 238.949219 C 187.65625 229.382812 179.714844 219.414062 172.285156 209.035156 C 160.972656 193.355469 150.984375 176.871094 142.324219 159.582031 Z M 80.589844 211.765625 C 37.664062 252.882812 14.585938 288.457031 24.882812 302.820312 C 35.050781 316.996094 75.25 306.984375 127.007812 280.273438 C 120.386719 272.507812 113.886719 264.207031 107.566406 255.421875 C 97.550781 241.503906 88.558594 226.953125 80.589844 211.765625 Z M 232.125 94.230469 C 251.515625 81.964844 269.65625 72.035156 285.660156 64.867188 C 309.03125 54.363281 328.339844 50.238281 340.851562 51.6875 C 349.785156 52.726562 356.027344 56.867188 360.289062 62.238281 C 365.8125 69.203125 367.226562 79.558594 363.441406 92.730469 C 360.066406 104.464844 351.683594 119.378906 338.894531 136.207031 C 328.027344 150.507812 313.878906 166.335938 296.941406 182.738281 C 324.289062 235.121094 330.671875 282.109375 309.515625 297.300781 C 289.121094 311.929688 248.945312 292.839844 209.445312 253.199219 C 197.929688 260.898438 186.554688 268.089844 175.351562 274.554688 C 173.980469 275.347656 172.609375 276.128906 171.246094 276.898438 C 183.324219 284.464844 194.03125 286.773438 200.613281 282.046875 C 205.015625 278.886719 207.203125 272.71875 206.878906 264.242188 L 257.351562 308.085938 C 258.015625 325.019531 253.691406 337.34375 244.835938 343.695312 C 223.472656 359.019531 180.382812 337.335938 139.128906 293.785156 C 123.578125 301.414062 107.609375 308.023438 91.21875 313.617188 C 71.199219 320.300781 54.40625 323.472656 42.246094 322.894531 C 28.644531 322.253906 19.359375 317.640625 14.570312 310.210938 C 10.910156 304.5 9.042969 297.332031 10.910156 288.621094 C 13.578125 276.351562 23.492188 259.34375 40.851562 240.578125 C 50.890625 229.703125 63.324219 218.035156 77.636719 205.96875 C 52.78125 155.878906 47.585938 111.730469 67.96875 97.105469 C 76.824219 90.757812 89.875 90.601562 105.710938 96.664062 L 131.0625 158.535156 C 123.148438 155.503906 116.613281 155.582031 112.191406 158.753906 C 106.445312 162.875 104.761719 171.683594 106.617188 183.070312 C 117.628906 174.859375 129.386719 166.597656 141.726562 158.441406 C 117.367188 108.832031 112.421875 65.261719 132.636719 50.753906 C 152.851562 36.242188 192.820312 54.984375 232.125 94.230469 Z M 232.125 94.230469 " fill-opacity="1" fill-rule="evenodd"/></g></g></g><g clip-path="url(#d97a0a4330)"><g clip-path="url(#70e4841d2c)"><g clip-path="url(#c8fcf46a51)"><path fill="#ebbfcb" d="M 200.640625 110.507812 C 190.519531 105.175781 181.660156 103.96875 175.964844 108.070312 C 170.09375 112.28125 168.46875 121.363281 170.503906 133.054688 C 180.664062 125.117188 190.761719 117.578125 200.640625 110.507812 Z M 287.058594 162.328125 C 281.628906 153.160156 275.601562 143.917969 269.007812 134.722656 C 258.757812 120.378906 247.527344 106.84375 235.316406 94.128906 C 292.503906 62.941406 337.960938 50.296875 348.863281 65.515625 C 359.640625 80.542969 333.867188 118.800781 287.058594 162.328125 Z M 203.945312 112.410156 C 216.933594 120.179688 231.652344 134.210938 244.589844 152.242188 C 251.75 162.128906 257.800781 172.652344 262.742188 183.8125 C 249.980469 194.527344 236.203125 205.375 221.5625 216.113281 C 211.867188 207.480469 203.269531 197.867188 195.761719 187.277344 C 182.285156 168.488281 173.550781 149.257812 170.691406 134.175781 C 181.933594 126.394531 193.097656 119.128906 203.949219 112.398438 Z M 269.179688 202.996094 C 259.390625 211.378906 248.957031 219.722656 237.996094 228.027344 C 248.847656 234.152344 258.355469 235.738281 264.394531 231.40625 C 270.816406 226.789062 272.160156 216.34375 269.183594 202.980469 Z M 141.410156 155.328125 C 129.074219 164.652344 117.421875 174.023438 106.578125 183.238281 C 109.914062 197.875 118.398438 215.953125 131.085938 233.632812 C 137.988281 243.332031 145.796875 252.234375 154.515625 260.339844 C 167.691406 252.621094 181.328125 244.046875 195.199219 234.683594 C 186.746094 225.121094 178.804688 215.148438 171.375 204.769531 C 160.058594 189.089844 150.074219 172.605469 141.414062 155.316406 Z M 79.679688 207.5 C 36.753906 248.617188 13.675781 284.191406 23.972656 298.554688 C 34.140625 312.730469 74.339844 302.71875 126.097656 276.007812 C 119.476562 268.242188 112.972656 259.945312 106.65625 251.160156 C 96.640625 237.238281 87.648438 222.6875 79.679688 207.5 Z M 231.210938 89.964844 C 250.605469 77.699219 268.746094 67.769531 284.75 60.601562 C 308.121094 50.097656 327.429688 45.972656 339.941406 47.425781 C 348.875 48.460938 355.117188 52.601562 359.375 57.976562 C 364.898438 64.941406 366.316406 75.292969 362.527344 88.464844 C 359.152344 100.203125 350.773438 115.113281 337.984375 131.941406 C 327.117188 146.242188 312.96875 162.070312 296.03125 178.472656 C 323.378906 230.855469 329.757812 277.847656 308.605469 293.035156 C 288.207031 307.667969 248.03125 288.578125 208.535156 248.933594 C 197.019531 256.632812 185.644531 263.824219 174.441406 270.289062 C 173.070312 271.082031 171.699219 271.863281 170.335938 272.636719 C 182.410156 280.199219 193.121094 282.507812 199.703125 277.78125 C 204.105469 274.625 206.292969 268.453125 205.96875 259.976562 L 256.4375 303.820312 C 257.105469 320.753906 252.78125 333.078125 243.925781 339.429688 C 222.558594 354.753906 179.472656 333.070312 138.21875 289.523438 C 122.667969 297.148438 106.699219 303.757812 90.308594 309.351562 C 70.289062 316.035156 53.492188 319.210938 41.332031 318.632812 C 27.734375 317.992188 18.445312 313.375 13.65625 305.949219 C 10 300.234375 8.128906 293.066406 10 284.355469 C 12.664062 272.085938 22.582031 255.078125 39.9375 236.3125 C 49.980469 225.4375 62.414062 213.769531 76.726562 201.703125 C 51.871094 151.613281 46.675781 107.464844 67.058594 92.839844 C 75.914062 86.492188 88.964844 86.339844 104.800781 92.402344 L 130.152344 154.269531 C 122.238281 151.242188 115.703125 151.316406 111.28125 154.488281 C 105.535156 158.609375 103.851562 167.417969 105.703125 178.804688 C 116.714844 170.597656 128.472656 162.335938 140.816406 154.175781 C 116.457031 104.570312 111.511719 61 131.726562 46.488281 C 151.941406 31.976562 191.910156 50.722656 231.210938 89.964844 Z M 231.210938 89.964844 " fill-opacity="1" fill-rule="evenodd"/></g></g></g><g clip-path="url(#0e6edc4ded)"><g clip-path="url(#5feb8cbdae)"><g clip-path="url(#fb003ab85e)"><path fill="#052944" d="M 266.355469 102.835938 C 266.195312 103.039062 266.015625 103.222656 265.816406 103.378906 C 265.613281 103.539062 265.394531 103.671875 265.160156 103.777344 C 264.925781 103.882812 264.683594 103.957031 264.429688 104 C 264.175781 104.046875 263.921875 104.058594 263.667969 104.039062 C 263.410156 104.023438 263.160156 103.972656 262.914062 103.894531 C 262.671875 103.8125 262.441406 103.703125 262.222656 103.566406 C 262.007812 103.429688 261.808594 103.269531 261.632812 103.082031 C 261.453125 102.898438 261.300781 102.691406 261.175781 102.46875 C 261.050781 102.246094 260.953125 102.007812 260.882812 101.761719 C 260.816406 101.515625 260.777344 101.261719 260.773438 101.003906 C 260.765625 100.75 260.792969 100.496094 260.847656 100.242188 C 260.90625 99.992188 260.992188 99.753906 261.105469 99.523438 C 261.222656 99.296875 261.367188 99.082031 261.535156 98.890625 C 261.703125 98.695312 261.890625 98.523438 262.101562 98.378906 C 262.3125 98.230469 262.539062 98.113281 262.777344 98.019531 C 263.019531 97.929688 263.265625 97.867188 263.523438 97.835938 C 263.777344 97.808594 264.03125 97.808594 264.285156 97.84375 C 264.542969 97.875 264.789062 97.9375 265.027344 98.03125 C 265.265625 98.125 265.492188 98.25 265.699219 98.398438 C 265.910156 98.546875 266.097656 98.71875 266.261719 98.914062 C 266.429688 99.109375 266.570312 99.324219 266.683594 99.554688 C 266.796875 99.785156 266.878906 100.027344 266.933594 100.277344 C 266.988281 100.527344 267.011719 100.78125 267 101.039062 C 266.992188 101.296875 266.953125 101.546875 266.882812 101.792969 L 293.382812 115.246094 L 309.164062 84.148438 C 308.960938 83.992188 308.777344 83.8125 308.621094 83.613281 C 308.460938 83.410156 308.328125 83.191406 308.222656 82.957031 C 308.117188 82.722656 308.042969 82.480469 308 82.226562 C 307.953125 81.972656 307.941406 81.71875 307.960938 81.460938 C 307.976562 81.207031 308.027344 80.957031 308.109375 80.710938 C 308.1875 80.46875 308.296875 80.238281 308.433594 80.019531 C 308.570312 79.800781 308.734375 79.605469 308.917969 79.429688 C 309.105469 79.25 309.308594 79.097656 309.53125 78.972656 C 309.757812 78.847656 309.992188 78.75 310.238281 78.679688 C 310.488281 78.613281 310.738281 78.574219 310.996094 78.570312 C 311.253906 78.5625 311.507812 78.589844 311.757812 78.644531 C 312.007812 78.703125 312.246094 78.789062 312.476562 78.90625 C 312.707031 79.019531 312.917969 79.164062 313.113281 79.332031 C 313.304688 79.5 313.476562 79.691406 313.625 79.902344 C 313.769531 80.109375 313.890625 80.335938 313.980469 80.578125 C 314.070312 80.816406 314.132812 81.066406 314.164062 81.320312 C 314.191406 81.574219 314.191406 81.828125 314.160156 82.085938 C 314.125 82.339844 314.0625 82.585938 313.96875 82.824219 C 313.875 83.0625 313.75 83.289062 313.601562 83.496094 C 313.453125 83.707031 313.28125 83.894531 313.085938 84.058594 C 312.886719 84.226562 312.675781 84.367188 312.445312 84.480469 C 312.214844 84.59375 311.972656 84.675781 311.722656 84.730469 C 311.472656 84.785156 311.21875 84.808594 310.960938 84.796875 C 310.703125 84.789062 310.453125 84.75 310.207031 84.679688 L 295.023438 114.589844 L 316.738281 102.253906 C 316.652344 102.011719 316.601562 101.761719 316.582031 101.507812 C 316.558594 101.25 316.570312 100.996094 316.613281 100.742188 C 316.65625 100.488281 316.726562 100.246094 316.828125 100.007812 C 316.933594 99.773438 317.0625 99.554688 317.21875 99.351562 C 317.375 99.148438 317.554688 98.96875 317.753906 98.808594 C 317.957031 98.648438 318.175781 98.515625 318.410156 98.410156 C 318.644531 98.304688 318.886719 98.230469 319.140625 98.1875 C 319.390625 98.140625 319.644531 98.128906 319.902344 98.144531 C 320.15625 98.164062 320.40625 98.210938 320.652344 98.292969 C 320.894531 98.371094 321.125 98.480469 321.34375 98.617188 C 321.5625 98.753906 321.757812 98.914062 321.933594 99.101562 C 322.113281 99.285156 322.265625 99.492188 322.390625 99.714844 C 322.519531 99.9375 322.617188 100.171875 322.683594 100.421875 C 322.753906 100.667969 322.789062 100.917969 322.796875 101.175781 C 322.804688 101.433594 322.777344 101.6875 322.722656 101.9375 C 322.664062 102.1875 322.578125 102.425781 322.464844 102.65625 C 322.347656 102.886719 322.207031 103.097656 322.039062 103.289062 C 321.871094 103.484375 321.679688 103.65625 321.46875 103.800781 C 321.257812 103.949219 321.035156 104.070312 320.792969 104.160156 C 320.554688 104.253906 320.308594 104.3125 320.054688 104.34375 C 319.796875 104.375 319.542969 104.371094 319.289062 104.339844 C 319.035156 104.308594 318.789062 104.246094 318.546875 104.152344 C 318.308594 104.058594 318.085938 103.9375 317.875 103.785156 C 317.667969 103.636719 317.480469 103.464844 317.3125 103.269531 L 295.746094 115.523438 L 317.933594 114.324219 C 317.96875 114.070312 318.03125 113.824219 318.128906 113.585938 C 318.222656 113.347656 318.347656 113.125 318.496094 112.917969 C 318.648438 112.707031 318.820312 112.523438 319.019531 112.355469 C 319.214844 112.191406 319.429688 112.054688 319.660156 111.941406 C 319.890625 111.828125 320.132812 111.746094 320.382812 111.695312 C 320.636719 111.640625 320.890625 111.621094 321.144531 111.632812 C 321.402344 111.640625 321.652344 111.683594 321.898438 111.753906 C 322.148438 111.828125 322.378906 111.929688 322.601562 112.058594 C 322.824219 112.191406 323.023438 112.347656 323.207031 112.527344 C 323.390625 112.707031 323.546875 112.90625 323.683594 113.125 C 323.816406 113.34375 323.921875 113.578125 323.996094 113.824219 C 324.070312 114.070312 324.117188 114.320312 324.128906 114.574219 C 324.144531 114.832031 324.125 115.085938 324.078125 115.339844 C 324.027344 115.589844 323.949219 115.832031 323.839844 116.066406 C 323.730469 116.296875 323.597656 116.511719 323.433594 116.710938 C 323.269531 116.910156 323.085938 117.085938 322.882812 117.242188 C 322.675781 117.394531 322.453125 117.519531 322.21875 117.621094 C 321.980469 117.71875 321.734375 117.785156 321.480469 117.824219 C 321.226562 117.863281 320.972656 117.867188 320.714844 117.84375 C 320.460938 117.820312 320.210938 117.761719 319.96875 117.675781 C 319.726562 117.589844 319.5 117.476562 319.289062 117.332031 C 319.074219 117.1875 318.882812 117.023438 318.707031 116.832031 C 318.535156 116.640625 318.390625 116.433594 318.269531 116.207031 C 318.148438 115.980469 318.058594 115.742188 317.996094 115.492188 L 296.1875 116.667969 L 311.671875 124.527344 C 311.828125 124.324219 312.007812 124.144531 312.210938 123.984375 C 312.410156 123.824219 312.628906 123.691406 312.863281 123.589844 C 313.097656 123.484375 313.339844 123.410156 313.59375 123.363281 C 313.847656 123.320312 314.101562 123.304688 314.359375 123.324219 C 314.613281 123.34375 314.863281 123.390625 315.109375 123.472656 C 315.351562 123.550781 315.582031 123.660156 315.800781 123.796875 C 316.015625 123.9375 316.214844 124.097656 316.390625 124.28125 C 316.566406 124.46875 316.71875 124.671875 316.847656 124.898438 C 316.972656 125.121094 317.070312 125.355469 317.136719 125.605469 C 317.207031 125.851562 317.242188 126.101562 317.25 126.359375 C 317.253906 126.617188 317.230469 126.871094 317.171875 127.121094 C 317.117188 127.371094 317.03125 127.609375 316.914062 127.839844 C 316.796875 128.070312 316.65625 128.28125 316.488281 128.472656 C 316.320312 128.667969 316.128906 128.839844 315.917969 128.984375 C 315.707031 129.132812 315.484375 129.25 315.242188 129.34375 C 315.003906 129.433594 314.753906 129.496094 314.5 129.523438 C 314.246094 129.554688 313.992188 129.554688 313.734375 129.519531 C 313.480469 129.488281 313.234375 129.425781 312.996094 129.332031 C 312.757812 129.234375 312.53125 129.113281 312.324219 128.964844 C 312.113281 128.816406 311.925781 128.644531 311.761719 128.449219 C 311.59375 128.25 311.453125 128.039062 311.339844 127.808594 C 311.226562 127.578125 311.144531 127.335938 311.089844 127.085938 C 311.035156 126.835938 311.015625 126.582031 311.023438 126.324219 C 311.03125 126.066406 311.070312 125.816406 311.140625 125.570312 L 293.894531 116.8125 L 285.140625 134.0625 C 285.34375 134.21875 285.527344 134.398438 285.683594 134.601562 C 285.84375 134.800781 285.976562 135.019531 286.078125 135.253906 C 286.183594 135.488281 286.257812 135.730469 286.304688 135.984375 C 286.347656 136.238281 286.363281 136.492188 286.34375 136.75 C 286.324219 137.003906 286.277344 137.253906 286.195312 137.5 C 286.117188 137.742188 286.007812 137.972656 285.871094 138.191406 C 285.734375 138.40625 285.570312 138.605469 285.386719 138.78125 C 285.199219 138.957031 284.996094 139.109375 284.769531 139.238281 C 284.546875 139.363281 284.3125 139.460938 284.066406 139.527344 C 283.816406 139.597656 283.566406 139.632812 283.308594 139.640625 C 283.050781 139.644531 282.796875 139.621094 282.546875 139.5625 C 282.296875 139.507812 282.058594 139.421875 281.828125 139.304688 C 281.597656 139.1875 281.386719 139.046875 281.195312 138.878906 C 281 138.710938 280.828125 138.519531 280.683594 138.308594 C 280.535156 138.097656 280.417969 137.875 280.324219 137.632812 C 280.234375 137.394531 280.171875 137.144531 280.144531 136.890625 C 280.113281 136.636719 280.113281 136.382812 280.148438 136.125 C 280.179688 135.871094 280.242188 135.625 280.339844 135.386719 C 280.433594 135.148438 280.554688 134.921875 280.703125 134.714844 C 280.851562 134.503906 281.023438 134.316406 281.222656 134.152344 C 281.417969 133.984375 281.628906 133.847656 281.859375 133.730469 C 282.089844 133.617188 282.332031 133.535156 282.582031 133.480469 C 282.832031 133.425781 283.085938 133.40625 283.34375 133.414062 C 283.601562 133.421875 283.851562 133.460938 284.097656 133.53125 L 292.222656 117.523438 L 280.292969 124.300781 C 280.375 124.542969 280.425781 124.792969 280.449219 125.050781 C 280.46875 125.304688 280.460938 125.5625 280.417969 125.816406 C 280.375 126.066406 280.304688 126.3125 280.203125 126.546875 C 280.101562 126.785156 279.96875 127.003906 279.8125 127.207031 C 279.65625 127.410156 279.476562 127.59375 279.277344 127.753906 C 279.074219 127.910156 278.859375 128.042969 278.625 128.148438 C 278.390625 128.253906 278.144531 128.332031 277.894531 128.375 C 277.640625 128.421875 277.386719 128.433594 277.128906 128.417969 C 276.871094 128.398438 276.621094 128.351562 276.378906 128.273438 C 276.132812 128.191406 275.902344 128.082031 275.683594 127.945312 C 275.46875 127.808594 275.269531 127.648438 275.09375 127.464844 C 274.914062 127.277344 274.761719 127.074219 274.636719 126.851562 C 274.507812 126.628906 274.410156 126.390625 274.339844 126.144531 C 274.273438 125.898438 274.234375 125.644531 274.226562 125.386719 C 274.222656 125.132812 274.246094 124.878906 274.300781 124.625 C 274.359375 124.375 274.445312 124.136719 274.558594 123.90625 C 274.675781 123.675781 274.816406 123.464844 274.984375 123.269531 C 275.152344 123.078125 275.34375 122.90625 275.554688 122.757812 C 275.765625 122.609375 275.988281 122.492188 276.230469 122.398438 C 276.46875 122.308594 276.714844 122.246094 276.972656 122.214844 C 277.226562 122.183594 277.480469 122.183594 277.734375 122.21875 C 277.992188 122.25 278.238281 122.3125 278.476562 122.40625 C 278.714844 122.5 278.941406 122.621094 279.148438 122.769531 C 279.359375 122.917969 279.546875 123.089844 279.714844 123.285156 L 290.855469 116.957031 L 267.839844 118.199219 C 267.804688 118.453125 267.738281 118.699219 267.644531 118.9375 C 267.550781 119.175781 267.425781 119.398438 267.273438 119.609375 C 267.125 119.816406 266.949219 120.003906 266.753906 120.167969 C 266.558594 120.332031 266.34375 120.472656 266.113281 120.582031 C 265.882812 120.695312 265.640625 120.777344 265.390625 120.828125 C 265.136719 120.882812 264.882812 120.902344 264.625 120.894531 C 264.371094 120.882812 264.117188 120.839844 263.871094 120.769531 C 263.625 120.695312 263.390625 120.59375 263.171875 120.464844 C 262.949219 120.335938 262.746094 120.179688 262.566406 120 C 262.382812 119.816406 262.222656 119.617188 262.089844 119.398438 C 261.957031 119.179688 261.851562 118.945312 261.777344 118.703125 C 261.699219 118.457031 261.65625 118.207031 261.640625 117.949219 C 261.628906 117.691406 261.644531 117.4375 261.695312 117.1875 C 261.746094 116.933594 261.824219 116.691406 261.933594 116.460938 C 262.042969 116.226562 262.175781 116.011719 262.339844 115.8125 C 262.5 115.613281 262.6875 115.4375 262.890625 115.285156 C 263.097656 115.128906 263.320312 115.003906 263.554688 114.90625 C 263.792969 114.804688 264.039062 114.738281 264.292969 114.699219 C 264.546875 114.664062 264.800781 114.65625 265.058594 114.679688 C 265.3125 114.707031 265.5625 114.761719 265.804688 114.847656 C 266.042969 114.933594 266.273438 115.050781 266.484375 115.191406 C 266.699219 115.335938 266.890625 115.503906 267.0625 115.691406 C 267.234375 115.882812 267.382812 116.09375 267.503906 116.320312 C 267.625 116.546875 267.714844 116.785156 267.777344 117.03125 L 291.773438 115.738281 Z M 266.355469 102.835938 " fill-opacity="1" fill-rule="evenodd"/></g></g></g><path stroke-linecap="butt" transform="matrix(2.914855, 0.106354, -0.106354, 2.914855, 80.686874, 126.842437)" fill="none" stroke-linejoin="miter" d="M 15.695538 35.990215 C 15.736811 37.01122 15.737662 37.989475 15.694913 39.021586 C 15.65359 40.166214 14.674584 39.999577 13.737866 40.000252 L 4.988245 40.000551 C 3.071835 39.999449 2.989748 39.916677 2.989122 37.989609 L 2.989228 26.606641 L 1.281042 25.627695 C 1.02126 25.449557 0.937484 25.283759 0.937379 25.02378 C 0.93744 24.731632 1.020585 24.512839 1.281376 24.388074 L 2.989151 23.409121 L 2.989569 12.181595 C 2.988631 10.099085 3.031107 10.014448 5.124372 10.014458 C 5.967309 10.014525 6.571729 10.015253 6.99942 10.057273 C 8.185761 10.139958 8.018949 11.077427 8.019246 12.701639 L 8.019956 23.409159 L 9.728143 24.388104 C 9.977941 24.513001 10.071701 24.73204 10.071591 25.02285 C 10.071745 25.284167 9.935916 25.491481 9.727809 25.627726 L 8.020034 26.606678 L 8.019009 31.720607 C 8.019333 32.57425 8.061305 33.136909 8.061194 33.427718 C 8.237984 35.26125 8.749232 34.875404 12.415207 34.969464 C 15.185211 34.968904 15.654335 34.750769 15.695538 35.990215 Z M 8.790943 12.181659 L 8.78967 22.981719 L 10.154873 23.742678 L 10.15521 14.826859 C 10.155255 13.212015 10.321326 12.180765 9.133997 12.181203 Z M 10.154331 26.262121 L 8.790071 27.032882 L 8.790916 31.720585 C 8.789727 32.53274 8.83247 33.043106 8.831588 33.386208 C 8.914685 34.157764 8.956397 34.199126 10.154433 34.198297 L 10.155002 28.741315 L 11.862386 27.751656 C 12.070933 27.627456 12.196006 27.419195 12.195852 27.157877 C 12.195572 26.856361 12.112909 26.647638 11.863111 26.522741 L 10.623691 25.793375 C 10.498443 25.960099 10.321341 26.138096 10.154331 26.262121 Z M 17.830506 38.124852 C 17.788644 37.271384 17.581155 37.094018 16.507731 37.094321 C 16.508517 37.740229 16.507573 38.37548 16.465658 39.06315 C 16.38317 41.062936 14.591483 40.770497 13.737839 40.770821 L 5.123536 40.770203 C 5.166253 42.051138 5.457463 42.135661 7.124551 42.135139 L 15.69593 42.134643 C 16.632696 42.135307 17.789551 41.666939 17.830435 40.510265 C 17.872284 39.490248 17.871779 39.145856 17.830506 38.124852 Z M 17.830506 38.124852 " stroke="#052944" stroke-width="4.213336" stroke-opacity="1" stroke-miterlimit="4"/><path stroke-linecap="butt" transform="matrix(2.916791, -0.00454069, 0.00454069, 2.916791, 131.193965, 128.796716)" fill="none" stroke-linejoin="miter" d="M 16.466668 17.816003 L 16.507627 31.938234 C 16.508237 32.406965 16.383308 33.511635 16.039081 35.261471 C 15.996964 35.647103 15.830367 35.989686 15.612812 36.375045 C 12.248273 41.791006 5.165626 41.447851 2.426829 36.33443 C 1.916704 35.396176 1.70818 34.281613 1.707624 32.918277 C 1.749913 20.377805 1.707897 18.11846 1.708423 16.919852 C 1.625297 14.399294 2.812481 12.275786 5.291505 10.483739 C 5.801011 10.098834 6.270082 9.879931 6.821974 9.796419 C 10.196286 9.286069 12.331627 9.754105 14.122194 11.46307 C 15.914167 13.129182 16.46617 15.555385 16.466668 17.816003 Z M 10.873447 33.687871 C 11.050823 33.303788 11.133377 32.750815 11.133107 32.063791 L 11.134118 17.649673 C 11.133719 17.04568 11.050078 16.57682 10.924856 16.149411 C 10.238394 14.067181 7.082783 14.316722 6.780746 16.493838 C 6.738825 16.753583 6.73816 17.180796 6.738447 17.857107 L 6.738227 31.762319 C 6.738239 32.615407 6.780089 33.260981 6.95767 33.605439 C 7.633935 35.355524 10.112783 35.396882 10.873447 33.687871 Z M 18.643502 32.063429 L 18.600753 19.951378 C 18.600735 18.242522 18.299583 16.409988 17.320247 14.92058 C 17.101212 14.535881 16.851858 14.701557 16.934289 15.087383 C 17.153933 15.940814 17.236845 16.878403 17.236725 17.815863 L 17.279023 31.938096 C 17.278303 33.261253 16.976265 35.438369 16.257655 36.801924 C 14.206205 40.083859 10.747662 41.364134 7.551523 40.978818 C 7.207407 40.936766 7.082258 41.322269 7.42631 41.405837 C 12.925461 42.947814 18.684116 40.38546 18.643502 32.063429 Z M 7.550673 16.576729 C 7.509556 17.180657 7.509298 17.346721 7.509843 17.856968 L 7.509623 31.76218 C 7.50957 32.656785 7.55034 33.136292 7.634452 33.302488 C 7.894546 33.980542 8.530276 34.240003 9.082166 34.15783 C 8.95675 33.854969 8.873432 33.178529 8.873487 32.282585 L 8.873721 18.367999 C 8.873437 17.690348 8.8741 17.264475 8.914683 17.003388 C 8.998574 16.451757 9.259049 16.024948 9.643878 15.722881 C 8.914727 15.254355 7.634151 15.430479 7.550673 16.576729 Z M 7.550673 16.576729 " stroke="#052944" stroke-width="4.213336" stroke-opacity="1" stroke-miterlimit="4"/><path stroke-linecap="butt" transform="matrix(2.914416, -0.117753, 0.117753, 2.914416, 187.650007, 128.730724)" fill="none" stroke-linejoin="miter" d="M 16.121952 29.761706 C 16.257429 32.147588 16.205567 33.72975 16.039719 34.583535 C 14.893831 40.552592 7.040613 42.9481 2.645999 36.969637 C 2.010006 36.157173 1.750367 35.052982 1.749542 33.646953 C 1.791533 20.035021 1.792019 17.899911 1.708338 16.753237 C 1.624548 14.149631 3.416675 11.326949 6.186805 10.306302 C 6.738049 10.09804 7.207829 10.015156 7.634059 10.014953 C 8.873267 9.963157 9.769169 10.015439 10.321399 10.014966 C 10.707039 10.057353 11.134269 10.098741 11.477697 10.223863 C 12.498235 10.608219 13.737349 11.587125 15.143027 13.253644 C 16.42415 14.785119 16.2064 18.117738 16.164026 19.398713 C 16.122774 20.41971 15.83079 20.679998 14.800088 20.679903 C 13.904416 20.721453 13.050618 20.721805 12.154283 20.680228 C 10.966519 20.586668 11.17566 20.419536 11.134083 17.733195 C 11.050969 16.10805 9.97773 15.004494 8.79025 15.003427 C 8.185724 15.004468 7.675732 15.253267 7.249313 15.722574 C 6.395191 16.659796 6.487928 17.648678 6.489212 18.711603 C 6.436743 23.659285 6.436271 27.751262 6.489257 31.084098 C 6.488054 31.677811 6.488095 32.240747 6.572033 32.750779 C 6.696642 33.813326 7.342543 35.010862 8.655348 35.094732 C 9.977574 35.177642 11.091849 33.938636 11.133966 32.365462 L 11.133465 30.022563 C 11.217348 29.074325 11.435532 28.782909 12.330866 28.782895 C 13.226538 28.741345 14.206337 28.740723 15.185744 28.782975 C 15.78854 28.824754 16.123155 29.167993 16.121952 29.761706 Z M 16.934359 19.440559 C 16.893797 21.273818 16.851855 21.482554 13.26918 21.482555 C 13.310622 22.513595 13.43561 22.637934 14.28907 22.679118 C 15.18535 22.722033 15.65317 22.72083 16.55018 22.679334 C 17.403924 22.68032 18.090712 22.16926 18.131964 21.148263 C 18.174338 19.867289 18.174067 17.087455 17.194686 15.253196 C 17.100868 15.087227 16.93479 14.785646 16.810182 14.784632 C 16.633223 14.785524 16.685411 14.920325 16.768686 15.34723 C 17.05963 17.003558 16.976544 18.62869 16.934359 19.440559 Z M 7.811289 16.243879 C 7.207615 16.920475 7.248232 17.60702 7.249179 18.711482 C 7.207468 23.658257 7.206942 27.751573 7.249169 31.085314 C 7.249359 31.677743 7.248832 32.188383 7.342812 32.615722 L 7.342474 32.657258 C 7.467327 33.647438 7.978157 34.240394 8.65432 34.324007 C 8.613582 33.939029 8.613433 33.511461 8.613284 33.083893 C 8.571909 29.762249 8.613146 24.263243 8.613753 19.305424 C 8.612603 17.774732 8.748471 16.535065 9.644994 16.107537 C 9.383977 15.899964 9.082518 15.764474 8.790318 15.764731 C 8.40434 15.76388 8.144201 15.899464 7.811289 16.243879 Z M 17.237403 30.782527 L 16.934498 30.782351 C 17.017598 32.573696 16.976225 33.89626 16.809323 34.709792 C 15.872346 39.489044 11.518784 41.749846 7.717249 41.062802 C 7.248821 40.979541 7.207163 41.28077 7.633663 41.406568 C 11.821703 42.645356 16.507596 40.552118 17.622221 36.584236 C 17.872533 35.729843 18.340826 34.157804 18.216486 31.76165 C 18.216351 31.167883 17.831171 30.782392 17.237403 30.782527 Z M 17.237403 30.782527 " stroke="#052944" stroke-width="4.213336" stroke-opacity="1" stroke-miterlimit="4"/><path stroke-linecap="butt" transform="matrix(2.907416, -0.233717, 0.233717, 2.907416, 240.387308, 126.724753)" fill="none" stroke-linejoin="miter" d="M 15.310551 39.99944 C 16.632591 39.999574 16.809874 40.00039 17.487052 39.91644 C 17.830917 39.833912 18.049342 39.490056 17.956026 39.146668 C 17.872819 38.761099 17.74668 38.374766 17.580172 37.989218 C 15.830604 33.730604 14.205536 29.678156 12.674406 25.877785 C 12.248 24.814351 11.862471 23.961108 11.560393 23.273113 C 11.258134 22.637501 11.258916 21.992662 11.602262 21.3149 C 11.561257 21.440584 11.727298 21.096548 12.154473 20.295201 C 14.331707 15.941123 15.736724 13.170816 16.299881 12.014955 C 16.507498 11.588274 16.725902 11.161116 16.851681 10.816531 C 16.975837 10.525557 16.80935 10.223311 16.507718 10.181598 C 15.309878 10.057093 13.904537 10.05698 12.331957 10.181809 C 11.560119 10.223217 11.352386 10.952187 10.83162 11.84812 C 10.624003 12.274801 10.321027 12.951777 9.810391 13.888831 C 9.384263 14.744005 9.040166 15.431111 8.790188 15.900067 C 8.487869 16.535447 8.186271 16.961291 7.978482 17.139401 C 7.63466 17.388534 7.123364 17.264132 7.040157 16.878563 C 6.78029 15.983024 6.822077 15.2125 6.822318 13.889125 L 6.821212 12.181388 C 6.821337 11.160302 6.915465 10.223355 5.925954 10.181431 C 4.947122 10.140365 4.009338 10.140219 3.072232 10.181777 C 2.051824 10.223356 2.135657 11.202823 2.135523 12.524863 L 2.134689 37.354892 C 2.134607 38.124738 2.135212 38.635334 2.17735 38.896683 C 2.218389 39.656399 2.478964 39.958147 3.197761 39.958156 C 4.009882 40.000599 4.864472 39.999432 5.675915 40.000171 C 6.488779 39.916381 6.738144 39.655625 6.821506 38.802456 L 6.822495 35.948841 C 6.86327 33.084989 6.86349 31.678313 6.863512 31.761615 C 6.864178 31.001221 7.041036 30.439056 7.384922 30.021986 C 7.592582 29.761908 8.061474 29.761981 8.279667 30.022703 C 8.488039 30.271887 8.749207 30.699976 8.99833 31.344752 C 9.175041 31.720371 9.770003 33.260879 10.790035 35.864714 C 11.393757 37.396521 11.685856 38.208664 11.727496 38.375924 C 12.153957 39.572375 12.96734 40.083817 14.122862 39.999358 Z M 20.600818 39.656198 C 18.851357 35.396249 17.403499 31.813508 15.872476 28.011802 C 15.445963 26.949703 14.716608 25.24254 14.41453 24.554545 C 13.518752 22.377198 13.518752 22.377198 13.945928 21.575851 C 16.123161 17.221773 17.194984 15.25365 17.747939 14.107717 C 17.955556 13.681036 18.173959 13.253879 18.299631 12.910628 C 18.424646 12.608975 18.257279 12.234106 17.95499 12.23399 L 17.060245 12.233273 L 16.976308 12.358193 C 16.206285 13.931391 15.830614 14.660296 12.289368 21.658996 C 12.071642 22.127858 12.029951 22.512792 12.247529 22.981714 C 12.539787 23.658172 12.966806 24.513406 13.393903 25.584957 C 14.935129 29.376735 16.549517 33.428324 18.299561 37.697725 C 19.580126 40.854548 19.194514 40.771152 15.310362 40.770621 L 13.945283 40.771058 C 14.414157 41.790882 15.185222 42.09336 16.257356 42.093558 L 19.235977 42.093848 C 20.903345 42.093527 21.329387 41.322991 20.600818 39.656198 Z M 7.89413 15.982544 C 8.18634 15.389346 8.748862 14.358384 8.957136 13.890106 C 8.957304 13.035623 8.914952 12.359101 8.061126 12.317336 L 7.592234 12.317263 L 7.592164 13.889208 C 7.591975 14.660388 7.551523 15.43102 7.55145 15.899912 C 7.550857 16.191414 7.758985 16.243077 7.89413 15.982544 Z M 7.717887 31.345275 C 7.675676 31.552818 7.676397 31.761126 7.676281 32.063415 L 7.592341 35.948923 L 7.59203 38.844243 C 7.468203 40.083788 6.915958 40.635929 5.71743 40.770674 L 4.270385 40.771239 C 4.312111 40.853863 4.312132 40.937165 4.312153 41.020466 C 4.353668 41.790969 4.603457 42.093194 5.332934 42.094061 C 6.145162 42.13517 6.99831 42.13523 7.811195 42.134742 C 8.613272 42.051428 8.873316 41.79153 8.956786 40.937026 L 8.95644 38.083304 C 8.998572 35.302861 8.998792 33.896185 8.998792 33.896185 L 8.998101 33.470225 L 8.186144 31.470247 C 7.936471 30.865733 7.759601 31.043642 7.717887 31.345275 Z M 7.717887 31.345275 " stroke="#052944" stroke-width="4.213336" stroke-opacity="1" stroke-miterlimit="4"/><g fill="#88b4d6" fill-opacity="1"><g transform="translate(76.432707, 243.436622)"><g><path d="M 46.1875 -10.015625 C 46.203125 -7.03125 46.109375 -4.171875 45.875 -1.1875 C 45.625 2.171875 42.78125 1.5625 40.03125 1.453125 L 14.546875 0.53125 C 8.953125 0.328125 8.71875 0.0625 8.921875 -5.53125 L 10.125 -38.734375 L 5.265625 -41.765625 C 4.53125 -42.296875 4.296875 -42.8125 4.328125 -43.546875 C 4.359375 -44.421875 4.625 -45.03125 5.390625 -45.375 L 10.46875 -48.0625 L 11.65625 -80.78125 C 11.890625 -86.859375 12.015625 -87.09375 18.109375 -86.875 C 20.59375 -86.78125 22.328125 -86.71875 23.578125 -86.546875 C 27.046875 -86.171875 26.453125 -83.453125 26.28125 -78.734375 L 25.140625 -47.515625 L 30.015625 -44.484375 C 30.75 -44.078125 30.984375 -43.4375 30.953125 -42.5625 C 30.921875 -41.828125 30.53125 -41.21875 29.890625 -40.875 L 24.796875 -38.1875 L 24.25 -23.265625 C 24.171875 -20.78125 24.234375 -19.15625 24.203125 -18.28125 C 24.5 -12.921875 26.046875 -13.984375 36.71875 -13.359375 C 44.796875 -13.0625 46.203125 -13.625 46.1875 -10.015625 Z M 28.578125 -80.15625 L 27.4375 -48.6875 L 31.328125 -46.296875 L 32.265625 -72.296875 C 32.4375 -77.015625 33.046875 -80 29.5625 -80.125 Z M 31.046875 -38.953125 L 27 -36.859375 L 26.5 -23.1875 C 26.421875 -20.828125 26.484375 -19.328125 26.453125 -18.328125 C 26.609375 -16.078125 26.71875 -15.953125 30.203125 -15.828125 L 30.796875 -31.75 L 35.875 -34.421875 C 36.5 -34.78125 36.90625 -35.375 36.921875 -36.125 C 36.953125 -37 36.734375 -37.640625 36.015625 -38.03125 L 32.484375 -40.28125 C 32.09375 -39.796875 31.5625 -39.3125 31.046875 -38.953125 Z M 52.1875 -3.578125 C 52.15625 -6.078125 51.546875 -6.59375 48.4375 -6.71875 C 48.359375 -4.84375 48.296875 -2.984375 48.09375 -0.984375 C 47.640625 4.84375 42.453125 3.78125 39.953125 3.6875 L 14.84375 2.78125 C 14.828125 6.515625 15.671875 6.796875 20.53125 6.96875 L 45.53125 7.890625 C 48.265625 7.984375 51.6875 6.75 51.9375 3.390625 C 52.15625 0.40625 52.203125 -0.578125 52.1875 -3.578125 Z M 52.1875 -3.578125 "/></g></g></g><g fill="#88b4d6" fill-opacity="1"><g transform="translate(131.375593, 245.468345)"><g><path d="M 47.9375 -64.78125 L 48.125 -23.59375 C 48.125 -22.234375 47.75 -19 46.765625 -13.890625 C 46.65625 -12.765625 46.15625 -11.78125 45.53125 -10.65625 C 35.734375 5.15625 15.0625 4.203125 7.078125 -10.71875 C 5.578125 -13.453125 4.953125 -16.671875 4.953125 -20.65625 C 5.015625 -57.25 4.890625 -63.84375 4.875 -67.328125 C 4.625 -74.65625 8.09375 -80.90625 15.296875 -86.140625 C 16.78125 -87.265625 18.15625 -87.890625 19.765625 -88.140625 C 29.59375 -89.640625 35.828125 -88.28125 41.0625 -83.3125 C 46.296875 -78.46875 47.921875 -71.375 47.9375 -64.78125 Z M 31.703125 -18.46875 C 32.203125 -19.578125 32.453125 -21.203125 32.453125 -23.1875 L 32.390625 -65.25 C 32.375 -67 32.125 -68.359375 31.75 -69.609375 C 29.734375 -75.703125 20.546875 -74.9375 19.671875 -68.59375 C 19.546875 -67.84375 19.546875 -66.609375 19.5625 -64.609375 L 19.625 -24.046875 C 19.625 -21.5625 19.75 -19.6875 20.25 -18.703125 C 22.265625 -13.59375 29.46875 -13.484375 31.703125 -18.46875 Z M 54.34375 -23.21875 L 54.15625 -58.5625 C 54.15625 -63.546875 53.28125 -68.890625 50.40625 -73.25 C 49.796875 -74.375 49.046875 -73.875 49.296875 -72.75 C 49.921875 -70.265625 50.15625 -67.515625 50.171875 -64.78125 L 50.359375 -23.59375 C 50.359375 -19.734375 49.515625 -13.390625 47.390625 -9.40625 C 41.4375 0.1875 31.359375 3.9375 22.03125 2.828125 C 21.03125 2.703125 20.65625 3.828125 21.65625 4.078125 C 37.71875 8.53125 54.5 1.046875 54.34375 -23.21875 Z M 21.921875 -68.34375 C 21.796875 -66.609375 21.796875 -66.109375 21.8125 -64.609375 L 21.875 -24.046875 C 21.875 -21.4375 22 -20.0625 22.25 -19.5625 C 22.984375 -17.578125 24.859375 -16.828125 26.46875 -17.09375 C 26.09375 -17.96875 25.859375 -19.953125 25.859375 -22.5625 L 25.796875 -63.140625 C 25.796875 -65.125 25.78125 -66.375 25.890625 -67.125 C 26.140625 -68.734375 26.890625 -69.984375 28.015625 -70.859375 C 25.890625 -72.21875 22.171875 -71.703125 21.921875 -68.34375 Z M 21.921875 -68.34375 "/></g></g></g><g fill="#88b4d6" fill-opacity="1"><g transform="translate(192.360136, 245.307376)"><g><path d="M 45.796875 -31.71875 C 46.453125 -24.78125 46.515625 -20.1875 46.109375 -17.671875 C 43.453125 -0.125 20.859375 7.765625 7.359375 -9.140625 C 5.390625 -11.421875 4.53125 -14.625 4.359375 -18.734375 C 2.875 -58.390625 2.625 -64.609375 2.25 -67.953125 C 1.6875 -75.53125 6.5625 -83.96875 14.53125 -87.265625 C 16.125 -87.953125 17.484375 -88.25 18.734375 -88.3125 C 22.34375 -88.578125 24.9375 -88.5625 26.546875 -88.625 C 27.671875 -88.546875 28.9375 -88.46875 29.9375 -88.125 C 32.96875 -87.125 36.6875 -84.421875 40.984375 -79.734375 C 44.890625 -75.421875 44.671875 -65.703125 44.703125 -61.96875 C 44.6875 -58.953125 43.859375 -58.1875 40.875 -58.078125 C 38.265625 -57.84375 35.78125 -57.734375 33.15625 -57.765625 C 29.671875 -57.875 30.265625 -58.375 29.828125 -66.21875 C 29.390625 -70.921875 26.15625 -74.03125 22.6875 -73.890625 C 20.9375 -73.828125 19.484375 -73.015625 18.28125 -71.609375 C 15.90625 -68.75 16.28125 -65.921875 16.40625 -62.8125 C 16.859375 -48.375 17.34375 -36.453125 17.859375 -26.75 C 17.921875 -25.015625 18 -23.390625 18.28125 -21.90625 C 18.78125 -18.8125 20.796875 -15.40625 24.671875 -15.3125 C 28.53125 -15.21875 31.609375 -18.96875 31.546875 -23.578125 L 31.28125 -30.40625 C 31.421875 -33.15625 31.984375 -34.046875 34.609375 -34.15625 C 37.21875 -34.375 40.078125 -34.484375 42.9375 -34.484375 C 44.703125 -34.4375 45.71875 -33.46875 45.796875 -31.71875 Z M 46.9375 -61.9375 C 47.03125 -56.5625 46.9375 -55.9375 36.5 -55.515625 C 36.734375 -52.53125 37.125 -52.171875 39.625 -52.15625 C 42.234375 -52.125 43.609375 -52.1875 46.203125 -52.421875 C 48.6875 -52.515625 50.625 -54.09375 50.625 -57.09375 C 50.59375 -60.828125 50.265625 -68.90625 47.1875 -74.140625 C 46.921875 -74.625 46.390625 -75.484375 46.015625 -75.46875 C 45.515625 -75.4375 45.65625 -75.078125 45.953125 -73.828125 C 47.03125 -69.03125 46.96875 -64.296875 46.9375 -61.9375 Z M 19.953125 -70.171875 C 18.296875 -68.109375 18.5 -66.140625 18.640625 -62.90625 C 19.09375 -48.453125 19.578125 -36.53125 20.09375 -26.84375 C 20.15625 -25.109375 20.21875 -23.609375 20.515625 -22.375 L 20.53125 -22.25 C 21.015625 -19.40625 22.578125 -17.71875 24.578125 -17.546875 C 24.40625 -18.671875 24.359375 -19.921875 24.3125 -21.15625 C 23.796875 -30.84375 23.265625 -46.90625 22.6875 -61.328125 C 22.515625 -65.796875 22.734375 -69.40625 25.296875 -70.765625 C 24.515625 -71.359375 23.625 -71.6875 22.765625 -71.65625 C 21.640625 -71.609375 20.90625 -71.203125 19.953125 -70.171875 Z M 49.140625 -28.890625 L 48.28125 -28.859375 C 48.734375 -23.640625 48.765625 -19.78125 48.359375 -17.40625 C 46.203125 -3.375 33.765625 3.75 22.625 2.203125 C 21.25 2 21.171875 2.890625 22.4375 3.203125 C 34.75 6.328125 48.171875 -0.3125 50.9375 -12.015625 C 51.59375 -14.53125 52.78125 -19.1875 52.125 -26.140625 C 52.046875 -27.890625 50.890625 -28.953125 49.140625 -28.890625 Z M 49.140625 -28.890625 "/></g></g></g><g fill="#88b4d6" fill-opacity="1"><g transform="translate(249.735997, 243.021374)"><g><path d="M 44.53125 -3.578125 C 48.375 -3.890625 48.875 -3.921875 50.828125 -4.34375 C 51.796875 -4.671875 52.34375 -5.71875 52.015625 -6.671875 C 51.671875 -7.765625 51.21875 -8.859375 50.625 -9.9375 C 44.546875 -21.9375 38.890625 -33.328125 33.53125 -44.015625 C 32.0625 -47.015625 30.734375 -49.390625 29.703125 -51.328125 C 28.671875 -53.109375 28.53125 -54.96875 29.375 -57.046875 C 29.265625 -56.65625 29.6875 -57.6875 30.75 -60.140625 C 36.046875 -73.3125 39.515625 -81.6875 40.828125 -85.171875 C 41.359375 -86.46875 41.890625 -87.765625 42.1875 -88.765625 C 42.484375 -89.671875 41.921875 -90.5 41.03125 -90.5625 C 37.53125 -90.65625 33.4375 -90.328125 28.890625 -89.578125 C 26.65625 -89.28125 26.1875 -87.125 24.921875 -84.390625 C 24.40625 -83.109375 23.6875 -81.046875 22.421875 -78.203125 C 21.375 -75.625 20.546875 -73.546875 19.921875 -72.140625 C 19.203125 -70.203125 18.421875 -68.90625 17.84375 -68.34375 C 16.921875 -67.515625 15.40625 -67.78125 15.0625 -68.859375 C 14.109375 -71.421875 14.046875 -73.65625 13.734375 -77.5 L 13.34375 -82.46875 C 13.109375 -85.453125 13.140625 -88.1875 10.265625 -88.09375 C 7.40625 -87.984375 4.6875 -87.765625 1.953125 -87.421875 C -1 -87.0625 -0.53125 -84.234375 -0.21875 -80.375 L 5.578125 -8.1875 C 5.765625 -5.953125 5.890625 -4.46875 6.0625 -3.734375 C 6.375 -1.515625 7.1875 -0.703125 9.28125 -0.875 C 11.671875 -0.9375 14.140625 -1.140625 16.5 -1.328125 C 18.84375 -1.765625 19.515625 -2.578125 19.5625 -5.0625 L 18.890625 -13.390625 C 18.359375 -21.703125 18.03125 -25.796875 18.046875 -25.546875 C 17.859375 -27.78125 18.234375 -29.421875 19.140625 -30.75 C 19.6875 -31.546875 21.046875 -31.65625 21.734375 -30.96875 C 22.40625 -30.265625 23.265625 -29.078125 24.140625 -27.296875 C 24.71875 -26.203125 26.828125 -21.875 30.421875 -14.5625 C 32.5 -10.21875 33.5625 -7.9375 33.734375 -7.453125 C 35.265625 -4.09375 37.71875 -2.78125 41.0625 -3.296875 Z M 59.84375 -5.8125 C 53.75 -17.796875 48.6875 -27.875 43.34375 -38.5625 C 41.859375 -41.5625 39.34375 -46.359375 38.3125 -48.28125 C 35.203125 -54.375 35.203125 -54.375 36.25 -56.84375 C 41.546875 -70 44.203125 -75.953125 45.546875 -79.421875 C 46.0625 -80.734375 46.59375 -82.015625 46.890625 -83.046875 C 47.171875 -83.953125 46.609375 -85.015625 45.734375 -84.953125 L 43.140625 -84.734375 L 42.90625 -84.34375 C 41.03125 -79.5625 40.09375 -77.390625 31.453125 -56.21875 C 30.9375 -54.796875 30.890625 -53.65625 31.625 -52.359375 C 32.640625 -50.4375 34.078125 -48.0625 35.578125 -45.046875 C 40.921875 -34.375 46.59375 -22.96875 52.6875 -10.984375 C 57.125 -2.109375 55.984375 -2.25 44.703125 -1.34375 L 40.734375 -1.03125 C 42.34375 1.828125 44.640625 2.53125 47.734375 2.28125 L 56.421875 1.578125 C 61.25 1.1875 62.328125 -1.140625 59.84375 -5.8125 Z M 17.328125 -71.6875 C 18.0625 -73.484375 19.453125 -76.59375 19.9375 -78 C 19.75 -80.484375 19.453125 -82.453125 16.96875 -82.390625 L 15.609375 -82.28125 L 15.96875 -77.6875 C 16.15625 -75.46875 16.203125 -73.203125 16.3125 -71.859375 C 16.390625 -70.984375 17.015625 -70.90625 17.328125 -71.6875 Z M 20.40625 -26.984375 C 20.359375 -26.359375 20.40625 -25.734375 20.46875 -24.859375 L 21.125 -13.578125 L 21.8125 -5.125 C 21.734375 -1.5 20.25 0.25 16.796875 0.90625 L 12.5625 1.234375 C 12.71875 1.46875 12.734375 1.71875 12.75 1.96875 C 13.0625 4.1875 13.875 5 16 4.828125 C 18.359375 4.765625 20.84375 4.5625 23.1875 4.375 C 25.546875 3.9375 26.234375 3.125 26.265625 0.625 L 25.59375 -7.671875 C 25.078125 -15.75 24.75 -19.84375 24.75 -19.84375 L 24.640625 -21.078125 L 21.8125 -26.734375 C 20.921875 -28.40625 20.46875 -27.859375 20.40625 -26.984375 Z M 20.40625 -26.984375 "/></g></g></g><g clip-path="url(#bcda7a5ffa)"><g clip-path="url(#eb1612322e)"><g clip-path="url(#128e154b52)"><path fill="#052944" d="M 59.429688 254.867188 C 59.238281 254.875 59.050781 254.863281 58.867188 254.828125 C 58.679688 254.792969 58.5 254.734375 58.328125 254.652344 C 58.15625 254.570312 57.996094 254.472656 57.847656 254.351562 C 57.703125 254.230469 57.570312 254.09375 57.457031 253.941406 C 57.34375 253.789062 57.253906 253.628906 57.179688 253.453125 C 57.105469 253.277344 57.054688 253.09375 57.027344 252.90625 C 57 252.71875 56.996094 252.53125 57.011719 252.34375 C 57.03125 252.152344 57.074219 251.96875 57.136719 251.789062 C 57.203125 251.613281 57.285156 251.445312 57.390625 251.285156 C 57.496094 251.128906 57.621094 250.984375 57.761719 250.859375 C 57.902344 250.730469 58.058594 250.625 58.222656 250.535156 C 58.390625 250.445312 58.566406 250.378906 58.753906 250.332031 C 58.9375 250.285156 59.125 250.265625 59.3125 250.265625 C 59.503906 250.265625 59.691406 250.289062 59.875 250.335938 C 60.058594 250.382812 60.234375 250.453125 60.402344 250.542969 C 60.566406 250.632812 60.722656 250.742188 60.859375 250.871094 C 61 251 61.125 251.140625 61.226562 251.300781 C 61.332031 251.457031 61.414062 251.628906 61.480469 251.804688 C 61.542969 251.984375 61.582031 252.167969 61.597656 252.359375 C 61.617188 252.546875 61.609375 252.734375 61.582031 252.925781 C 61.550781 253.113281 61.5 253.292969 61.425781 253.46875 C 61.351562 253.640625 61.257812 253.804688 61.140625 253.957031 C 61.027344 254.109375 60.894531 254.242188 60.746094 254.363281 C 60.601562 254.480469 60.441406 254.582031 60.265625 254.660156 L 65.523438 275.980469 L 90.542969 269.8125 C 90.53125 269.625 90.542969 269.4375 90.582031 269.25 C 90.617188 269.0625 90.675781 268.882812 90.757812 268.710938 C 90.835938 268.539062 90.9375 268.382812 91.058594 268.234375 C 91.175781 268.085938 91.3125 267.957031 91.464844 267.84375 C 91.617188 267.730469 91.78125 267.636719 91.957031 267.5625 C 92.132812 267.492188 92.3125 267.441406 92.5 267.414062 C 92.691406 267.386719 92.878906 267.378906 93.066406 267.398438 C 93.253906 267.417969 93.441406 267.457031 93.617188 267.523438 C 93.796875 267.585938 93.964844 267.671875 94.121094 267.777344 C 94.28125 267.882812 94.421875 268.007812 94.550781 268.148438 C 94.675781 268.289062 94.785156 268.441406 94.875 268.609375 C 94.964844 268.777344 95.03125 268.953125 95.078125 269.136719 C 95.121094 269.324219 95.144531 269.507812 95.144531 269.699219 C 95.144531 269.890625 95.117188 270.074219 95.070312 270.261719 C 95.023438 270.445312 94.957031 270.621094 94.867188 270.785156 C 94.777344 270.953125 94.667969 271.105469 94.539062 271.246094 C 94.410156 271.386719 94.265625 271.507812 94.109375 271.613281 C 93.949219 271.71875 93.78125 271.800781 93.601562 271.863281 C 93.421875 271.925781 93.238281 271.964844 93.050781 271.984375 C 92.859375 272 92.671875 271.996094 92.484375 271.964844 C 92.296875 271.9375 92.117188 271.882812 91.941406 271.808594 C 91.765625 271.734375 91.601562 271.640625 91.453125 271.527344 C 91.300781 271.410156 91.164062 271.28125 91.046875 271.132812 C 90.925781 270.984375 90.828125 270.824219 90.75 270.652344 L 66.683594 276.585938 L 84.0625 282.785156 C 84.15625 282.625 84.273438 282.472656 84.40625 282.339844 C 84.539062 282.203125 84.6875 282.085938 84.847656 281.988281 C 85.011719 281.890625 85.183594 281.8125 85.363281 281.757812 C 85.542969 281.699219 85.730469 281.667969 85.917969 281.65625 C 86.109375 281.644531 86.296875 281.660156 86.480469 281.695312 C 86.667969 281.730469 86.847656 281.789062 87.019531 281.867188 C 87.191406 281.949219 87.351562 282.050781 87.496094 282.167969 C 87.644531 282.289062 87.773438 282.425781 87.886719 282.578125 C 88.003906 282.730469 88.09375 282.890625 88.167969 283.066406 C 88.242188 283.242188 88.292969 283.421875 88.320312 283.609375 C 88.347656 283.796875 88.351562 283.988281 88.335938 284.175781 C 88.316406 284.363281 88.277344 284.546875 88.210938 284.726562 C 88.148438 284.90625 88.0625 285.074219 87.957031 285.230469 C 87.851562 285.390625 87.730469 285.53125 87.589844 285.660156 C 87.449219 285.785156 87.292969 285.894531 87.128906 285.984375 C 86.960938 286.074219 86.785156 286.140625 86.601562 286.1875 C 86.414062 286.230469 86.230469 286.253906 86.039062 286.253906 C 85.847656 286.253906 85.664062 286.230469 85.480469 286.183594 C 85.296875 286.136719 85.121094 286.066406 84.953125 285.976562 C 84.785156 285.886719 84.632812 285.777344 84.492188 285.652344 C 84.351562 285.523438 84.230469 285.378906 84.125 285.222656 C 84.019531 285.0625 83.9375 284.894531 83.875 284.714844 C 83.8125 284.539062 83.769531 284.351562 83.753906 284.164062 C 83.738281 283.976562 83.742188 283.789062 83.769531 283.601562 L 66.507812 277.4375 L 77.882812 289.28125 C 78.042969 289.175781 78.210938 289.09375 78.390625 289.03125 C 78.570312 288.972656 78.753906 288.933594 78.945312 288.917969 C 79.132812 288.902344 79.320312 288.90625 79.507812 288.9375 C 79.695312 288.96875 79.875 289.023438 80.050781 289.097656 C 80.222656 289.171875 80.386719 289.265625 80.539062 289.382812 C 80.6875 289.5 80.824219 289.628906 80.941406 289.777344 C 81.058594 289.925781 81.15625 290.089844 81.234375 290.261719 C 81.3125 290.433594 81.367188 290.613281 81.402344 290.800781 C 81.4375 290.988281 81.445312 291.175781 81.433594 291.363281 C 81.421875 291.554688 81.386719 291.738281 81.328125 291.917969 C 81.269531 292.101562 81.1875 292.269531 81.089844 292.429688 C 80.988281 292.59375 80.867188 292.738281 80.730469 292.871094 C 80.59375 293 80.445312 293.113281 80.28125 293.207031 C 80.113281 293.300781 79.941406 293.375 79.757812 293.425781 C 79.574219 293.476562 79.390625 293.503906 79.199219 293.511719 C 79.011719 293.515625 78.824219 293.496094 78.636719 293.457031 C 78.453125 293.414062 78.273438 293.351562 78.105469 293.265625 C 77.9375 293.183594 77.777344 293.078125 77.636719 292.953125 C 77.492188 292.828125 77.363281 292.691406 77.253906 292.535156 C 77.144531 292.378906 77.058594 292.214844 76.988281 292.035156 C 76.921875 291.859375 76.875 291.675781 76.851562 291.488281 C 76.828125 291.300781 76.832031 291.113281 76.855469 290.921875 C 76.878906 290.734375 76.921875 290.554688 76.992188 290.375 C 77.0625 290.199219 77.148438 290.035156 77.261719 289.878906 L 66.082031 278.238281 L 69.152344 290.695312 C 69.339844 290.6875 69.527344 290.699219 69.714844 290.734375 C 69.902344 290.773438 70.082031 290.832031 70.25 290.910156 C 70.421875 290.992188 70.582031 291.09375 70.730469 291.210938 C 70.878906 291.332031 71.007812 291.46875 71.121094 291.621094 C 71.234375 291.773438 71.328125 291.9375 71.398438 292.113281 C 71.472656 292.289062 71.523438 292.46875 71.550781 292.65625 C 71.578125 292.84375 71.582031 293.03125 71.566406 293.222656 C 71.546875 293.410156 71.503906 293.59375 71.441406 293.773438 C 71.375 293.949219 71.292969 294.117188 71.1875 294.277344 C 71.082031 294.433594 70.957031 294.578125 70.816406 294.703125 C 70.675781 294.832031 70.519531 294.9375 70.355469 295.027344 C 70.1875 295.117188 70.011719 295.183594 69.824219 295.230469 C 69.640625 295.273438 69.453125 295.296875 69.265625 295.296875 C 69.074219 295.296875 68.886719 295.273438 68.703125 295.226562 C 68.519531 295.179688 68.34375 295.109375 68.179688 295.019531 C 68.011719 294.929688 67.859375 294.820312 67.71875 294.691406 C 67.578125 294.5625 67.457031 294.421875 67.351562 294.261719 C 67.246094 294.101562 67.164062 293.933594 67.101562 293.753906 C 67.039062 293.578125 67 293.390625 66.980469 293.203125 C 66.964844 293.015625 66.972656 292.824219 67 292.636719 C 67.03125 292.449219 67.082031 292.269531 67.15625 292.09375 C 67.230469 291.921875 67.324219 291.757812 67.4375 291.605469 C 67.554688 291.457031 67.683594 291.320312 67.832031 291.199219 C 67.980469 291.082031 68.140625 290.984375 68.3125 290.902344 L 64.890625 277.027344 L 51.015625 280.445312 C 51.023438 280.636719 51.011719 280.824219 50.976562 281.011719 C 50.941406 281.195312 50.882812 281.375 50.800781 281.546875 C 50.71875 281.71875 50.621094 281.878906 50.5 282.027344 C 50.378906 282.171875 50.242188 282.304688 50.089844 282.417969 C 49.9375 282.53125 49.773438 282.621094 49.601562 282.695312 C 49.425781 282.769531 49.242188 282.820312 49.054688 282.847656 C 48.867188 282.875 48.679688 282.878906 48.492188 282.859375 C 48.300781 282.84375 48.117188 282.800781 47.941406 282.738281 C 47.761719 282.671875 47.59375 282.585938 47.433594 282.480469 C 47.277344 282.375 47.136719 282.253906 47.007812 282.113281 C 46.882812 281.972656 46.773438 281.816406 46.683594 281.648438 C 46.59375 281.480469 46.527344 281.304688 46.480469 281.121094 C 46.4375 280.9375 46.414062 280.75 46.414062 280.5625 C 46.414062 280.371094 46.441406 280.183594 46.488281 280 C 46.535156 279.816406 46.601562 279.640625 46.691406 279.472656 C 46.78125 279.308594 46.890625 279.152344 47.019531 279.015625 C 47.148438 278.875 47.292969 278.753906 47.449219 278.648438 C 47.609375 278.542969 47.777344 278.460938 47.957031 278.398438 C 48.136719 278.335938 48.320312 278.292969 48.507812 278.277344 C 48.699219 278.261719 48.886719 278.265625 49.074219 278.296875 C 49.261719 278.324219 49.441406 278.378906 49.617188 278.453125 C 49.792969 278.527344 49.953125 278.621094 50.105469 278.734375 C 50.257812 278.847656 50.390625 278.980469 50.511719 279.128906 C 50.628906 279.277344 50.730469 279.4375 50.808594 279.609375 L 63.6875 276.433594 L 54.140625 273.023438 C 54.042969 273.1875 53.929688 273.335938 53.796875 273.472656 C 53.664062 273.609375 53.515625 273.726562 53.351562 273.824219 C 53.191406 273.921875 53.019531 274 52.835938 274.058594 C 52.65625 274.113281 52.472656 274.148438 52.28125 274.160156 C 52.09375 274.167969 51.902344 274.15625 51.71875 274.121094 C 51.53125 274.085938 51.351562 274.027344 51.179688 273.945312 C 51.007812 273.867188 50.847656 273.765625 50.699219 273.648438 C 50.554688 273.527344 50.421875 273.390625 50.308594 273.238281 C 50.195312 273.085938 50.101562 272.921875 50.027344 272.75 C 49.957031 272.574219 49.902344 272.390625 49.875 272.203125 C 49.847656 272.015625 49.84375 271.828125 49.859375 271.640625 C 49.878906 271.449219 49.917969 271.265625 49.984375 271.085938 C 50.046875 270.910156 50.132812 270.738281 50.238281 270.582031 C 50.34375 270.425781 50.464844 270.28125 50.605469 270.152344 C 50.746094 270.027344 50.898438 269.917969 51.066406 269.828125 C 51.234375 269.738281 51.410156 269.671875 51.59375 269.625 C 51.777344 269.578125 51.964844 269.554688 52.15625 269.554688 C 52.347656 269.558594 52.53125 269.582031 52.71875 269.625 C 52.902344 269.671875 53.078125 269.742188 53.242188 269.832031 C 53.410156 269.921875 53.566406 270.03125 53.703125 270.160156 C 53.84375 270.285156 53.96875 270.429688 54.074219 270.589844 C 54.175781 270.746094 54.261719 270.914062 54.324219 271.09375 C 54.386719 271.273438 54.429688 271.457031 54.445312 271.644531 C 54.464844 271.835938 54.457031 272.023438 54.429688 272.210938 L 63.347656 275.394531 L 51.546875 263.109375 C 51.386719 263.214844 51.21875 263.296875 51.039062 263.355469 C 50.859375 263.417969 50.675781 263.457031 50.484375 263.472656 C 50.296875 263.488281 50.109375 263.484375 49.921875 263.453125 C 49.734375 263.421875 49.554688 263.367188 49.378906 263.292969 C 49.207031 263.21875 49.042969 263.121094 48.890625 263.007812 C 48.742188 262.890625 48.605469 262.761719 48.488281 262.609375 C 48.371094 262.460938 48.273438 262.300781 48.195312 262.128906 C 48.117188 261.957031 48.0625 261.777344 48.027344 261.589844 C 47.992188 261.402344 47.984375 261.214844 47.996094 261.027344 C 48.007812 260.835938 48.042969 260.652344 48.101562 260.46875 C 48.160156 260.289062 48.242188 260.121094 48.339844 259.957031 C 48.441406 259.796875 48.5625 259.652344 48.699219 259.519531 C 48.835938 259.390625 48.984375 259.277344 49.148438 259.183594 C 49.316406 259.085938 49.488281 259.015625 49.671875 258.964844 C 49.855469 258.914062 50.039062 258.882812 50.230469 258.878906 C 50.417969 258.875 50.605469 258.890625 50.792969 258.933594 C 50.976562 258.976562 51.15625 259.039062 51.324219 259.121094 C 51.492188 259.207031 51.652344 259.3125 51.792969 259.4375 C 51.9375 259.558594 52.066406 259.699219 52.175781 259.855469 C 52.28125 260.011719 52.371094 260.175781 52.441406 260.351562 C 52.507812 260.53125 52.554688 260.714844 52.578125 260.902344 C 52.601562 261.089844 52.597656 261.277344 52.574219 261.464844 C 52.550781 261.65625 52.507812 261.835938 52.4375 262.015625 C 52.367188 262.191406 52.277344 262.355469 52.167969 262.511719 L 64.46875 275.320312 Z M 59.429688 254.867188 " fill-opacity="1" fill-rule="evenodd"/></g></g></g><path stroke-linecap="butt" transform="matrix(1.579075, -0.26442, 0.26442, 1.579075, 131.030269, 261.717288)" fill="none" stroke-linejoin="miter" d="M 10.318583 5.953978 C 10.365937 5.922327 10.339167 5.786735 10.243085 5.548008 C 10.14781 5.304468 10.085394 5.101063 10.053028 4.939797 L 11.259934 4.941522 L 13.597249 8.991599 L 12.920975 9.543796 L 12.413277 8.897238 L 11.454151 7.977186 C 10.921897 7.44773 10.401157 7.071101 9.894339 6.847703 C 9.388327 6.619492 8.630336 6.507407 7.616359 6.505829 C 6.604386 6.507061 5.736137 6.86137 5.016022 7.571968 C 4.293904 8.279756 3.932763 9.003463 3.932599 9.74309 C 3.932434 10.482716 4.172666 11.042432 4.650081 11.426649 C 5.132308 11.811671 5.716451 12.149442 6.397697 12.439155 C 7.086161 12.730077 7.59702 12.914572 7.935086 12.993446 C 9.732479 13.428007 11.032866 13.920347 11.837053 14.465654 C 13.379295 15.493245 14.151599 16.819868 14.149154 18.444718 C 14.149682 19.327938 13.919655 20.110707 13.461479 20.793428 C 13.00571 21.476552 12.5533 21.962338 12.101441 22.252789 C 10.976196 22.98955 9.464573 23.359812 7.569782 23.359165 C 6.427052 23.358292 5.384001 23.087154 4.439029 22.540536 L 4.07219 22.323261 L 4.120389 22.759292 C 4.170405 22.918567 4.221226 23.073028 4.268847 23.217059 L 3.061539 23.217741 L 0.724224 19.167663 L 1.400497 18.615466 L 1.908195 19.262024 L 2.867724 20.17967 C 4.038814 21.385065 5.335506 21.988106 6.750583 21.987583 C 6.797512 21.98802 6.84444 21.988457 6.891771 21.986488 C 8.35662 21.939877 9.5181 21.548089 10.376213 20.811124 C 11.237538 20.06975 11.66731 19.290743 11.667128 18.47932 C 11.666946 17.667897 11.507342 17.099418 11.189917 16.779099 C 10.49454 16.08627 9.908853 15.669081 9.430854 15.524721 C 7.062905 14.818982 5.224383 14.142527 3.909672 13.499363 C 2.361216 12.730476 1.590399 11.557475 1.590001 9.97915 L 1.588469 9.884891 C 1.589473 9.09593 1.768508 8.381309 2.131193 7.73702 C 2.496284 7.093135 2.965549 6.595329 3.544204 6.242002 C 4.716354 5.53536 5.891041 5.18289 7.063855 5.18138 C 8.236266 5.182276 9.321444 5.438204 10.318583 5.953978 Z M 10.318583 5.953978 " stroke="#052944" stroke-width="2.381791" stroke-opacity="1" stroke-miterlimit="4"/><path stroke-linecap="butt" transform="matrix(1.590329, -0.185065, 0.185065, 1.590329, 156.42783, 257.443605)" fill="none" stroke-linejoin="miter" d="M 9.788245 21.792287 C 12.519484 21.793262 14.497769 21.045884 15.723101 19.550154 L 16.203624 18.903583 L 16.900345 19.480823 C 16.274513 20.299615 15.838301 20.818704 15.587144 21.035103 C 15.338692 21.24936 15.075417 21.464348 14.793038 21.674657 C 14.508516 21.88226 14.235778 22.051934 13.967551 22.182834 C 13.704453 22.311874 13.516429 22.407894 13.403479 22.470894 L 13.04333 22.610746 C 11.887357 23.046078 10.670535 23.265547 9.400699 23.265153 C 8.133286 23.265041 6.99614 23.032006 5.991968 22.563908 C 4.987513 22.098233 4.121213 21.437397 3.39735 20.586812 C 2.673487 19.736226 2.088624 18.683209 1.637352 17.432044 C 1.189066 16.176314 0.964468 14.961352 0.965981 13.787439 C 0.965961 10.832566 2.21933 8.399354 4.726653 6.482957 C 6.108792 5.454969 7.585796 4.941551 9.157945 4.940281 C 10.737082 4.942281 12.023979 5.133792 13.020776 5.517519 C 13.097647 5.553483 13.157105 5.570227 13.196444 5.569893 C 13.24063 5.570122 13.26126 5.540591 13.261322 5.476736 C 13.261666 5.410457 13.212643 5.304046 13.11397 5.159926 L 14.320233 5.157835 L 16.658443 8.72622 L 15.987378 9.279386 L 15.480707 8.630924 L 14.516589 7.713081 C 13.788936 7.02171 13.053932 6.604585 12.307012 6.458717 C 11.562233 6.315554 10.868285 6.242169 10.224885 6.240985 C 9.581202 6.242224 8.960168 6.344349 8.364204 6.547641 C 7.770946 6.748792 7.181397 7.065819 6.592853 7.500862 C 6.007013 7.933765 5.474146 8.43915 4.991544 9.019159 C 4.509224 9.596745 4.12282 10.278831 3.832047 11.067838 C 3.546686 11.852563 3.403179 12.66362 3.401809 13.498587 C 3.401718 15.800084 4.023924 17.756435 5.267579 19.374909 C 6.51208 20.986113 8.019683 21.792807 9.788245 21.792287 Z M 9.788245 21.792287 " stroke="#052944" stroke-width="2.381791" stroke-opacity="1" stroke-miterlimit="4"/><path stroke-linecap="butt" transform="matrix(1.598266, -0.0945629, 0.0945629, 1.598266, 186.152745, 253.977581)" fill="none" stroke-linejoin="miter" d="M 17.4832 21.915779 L 18.829788 21.917242 L 18.829275 22.999928 L 11.159782 23.000749 L 11.160295 21.918063 L 12.849153 21.91778 C 13.186553 21.915746 13.355066 21.835286 13.35469 21.6764 C 13.356592 21.561642 13.291451 21.423365 13.16156 21.264149 L 8.246672 15.066073 L 6.098349 15.066057 L 6.098686 21.215319 C 6.09781 21.684526 6.460489 21.916173 7.18629 21.917567 L 8.77744 21.91639 L 8.776927 22.999077 L 0.965741 22.998847 L 0.966254 21.916161 L 2.701531 21.91618 C 2.940934 21.918124 3.169902 21.848573 3.385856 21.709819 C 3.604102 21.573644 3.714046 21.409065 3.713252 21.215938 L 3.715379 7.424261 C 3.71447 7.150473 3.604524 6.902007 3.385685 6.676426 C 3.169138 6.453425 2.892236 6.341724 2.554981 6.341322 L 0.966267 6.342643 L 0.964776 5.252506 L 9.719391 5.252341 C 11.469282 5.253225 12.845791 5.74038 13.851353 6.713952 C 14.854623 7.684944 15.356363 8.912217 15.356861 10.3909 C 15.358073 13.138089 13.815542 14.672121 10.731559 14.995573 L 15.693703 21.262434 C 16.066197 21.699962 16.66198 21.916072 17.4832 21.915779 Z M 6.097988 7.306161 L 6.098862 13.983371 L 9.212677 13.981854 C 11.590661 13.983239 12.779207 12.772875 12.778026 10.355635 C 12.779424 7.936103 12.030715 6.628229 10.536482 6.437171 C 10.03678 6.373389 9.273595 6.342898 8.247214 6.340829 C 7.218254 6.341051 6.601734 6.434109 6.397799 6.617567 C 6.198591 6.803749 6.097079 7.032373 6.097988 7.306161 Z M 6.097988 7.306161 " stroke="#052944" stroke-width="2.381791" stroke-opacity="1" stroke-miterlimit="4"/><path stroke-linecap="butt" transform="matrix(1.601051, -0.00556003, 0.00556003, 1.601051, 219.085728, 252.124642)" fill="none" stroke-linejoin="miter" d="M 11.112309 12.969769 C 11.918332 12.713949 12.320294 12.185908 12.32065 11.380774 L 12.319549 10.292618 L 13.402826 10.291501 L 13.40234 16.754537 L 12.319063 16.755654 L 12.320902 15.52356 C 12.32064 14.89653 11.917307 14.414488 11.113342 14.077443 L 5.958041 14.076619 L 5.956632 20.80559 C 6.035526 21.271867 6.285628 21.616747 6.704498 21.840224 L 13.57246 21.864075 C 14.409692 21.754751 14.828461 21.304842 14.826318 20.516778 L 14.828479 19.191973 L 15.909316 19.190847 L 15.910728 22.999384 L 0.96449 23.001155 L 0.965812 21.917887 L 2.678558 21.916516 C 3.125274 21.849753 3.455457 21.616678 3.666667 21.217284 L 3.668123 7.449481 C 3.615405 7.173601 3.489359 6.936502 3.289992 6.735746 C 3.090617 6.537429 2.837312 6.41212 2.530062 6.364696 L 0.966142 6.366585 L 0.965049 5.275989 L 15.528227 5.277767 L 15.527098 9.115573 L 14.438951 9.114234 L 14.43918 7.643034 C 14.377314 7.191455 13.976166 6.782615 13.238194 6.411642 L 6.821505 6.413757 C 6.550529 6.459172 6.264008 6.765592 5.957071 7.330561 L 5.957008 12.968945 Z M 11.112309 12.969769 " stroke="#052944" stroke-width="2.381791" stroke-opacity="1" stroke-miterlimit="4"/><path stroke-linecap="butt" transform="matrix(1.599208, 0.0770113, -0.0770113, 1.599208, 247.692761, 252.055971)" fill="none" stroke-linejoin="miter" d="M 11.112293 12.969297 C 11.918349 12.71553 12.32029 12.185668 12.320555 11.379592 L 12.319508 10.292678 L 13.403985 10.291749 L 13.402573 16.754978 L 12.320533 16.75579 L 12.319874 15.524743 C 12.318957 14.897035 11.917053 14.413211 11.114278 14.075706 L 5.957993 14.077308 L 5.957071 20.804316 C 6.03577 21.27195 6.284416 21.616599 6.705561 21.84058 L 13.572884 21.864057 C 14.410234 21.752897 14.82835 21.305305 14.826999 20.516405 L 14.826754 19.192519 L 15.911231 19.19159 L 15.911414 22.999619 L 0.96501 22.998805 L 0.964198 21.916766 L 2.678937 21.91724 C 3.125109 21.849344 3.455839 21.616025 3.666254 21.217516 L 3.667583 7.448428 C 3.61533 7.174929 3.491495 6.93663 3.291319 6.736205 C 3.091143 6.53578 2.836118 6.413717 2.530884 6.364908 L 0.965151 6.364586 L 0.966542 5.277555 L 15.526967 5.277415 L 15.528558 9.114688 L 14.43909 9.113414 L 14.439115 7.642959 C 14.375859 7.191678 13.975038 6.78108 13.239207 6.413483 L 6.822398 6.412278 C 6.551101 6.459539 6.263 6.766527 5.957977 7.330804 L 5.956008 12.970898 Z M 11.112293 12.969297 " stroke="#052944" stroke-width="2.381791" stroke-opacity="1" stroke-miterlimit="4"/><path stroke-linecap="butt" transform="matrix(1.591715, 0.172742, -0.172742, 1.591715, 276.472486, 253.350451)" fill="none" stroke-linejoin="miter" d="M 6.097547 20.297089 C 6.096944 21.376964 6.813325 21.917655 8.246428 21.916735 L 8.776663 21.91809 L 8.776324 23.000391 L 1.688691 22.998991 L 1.689031 21.91669 L 2.29019 21.893169 C 3.685969 21.842309 4.384076 21.310081 4.384773 20.298911 L 4.385164 7.27734 C 4.323059 6.9086 3.946197 6.669731 3.254578 6.560731 L 1.688654 6.558886 L 1.688467 5.471734 L 6.145116 5.471532 L 16.611614 17.83818 L 16.610797 8.242684 C 16.611776 7.121047 15.934787 6.558903 14.585205 6.560575 L 13.910283 6.560198 L 13.909833 5.47062 L 21.002317 5.471493 L 21.002711 6.583164 L 20.371975 6.5829 C 19.007577 6.583726 18.323967 7.136467 18.323834 8.243287 L 18.32282 23.723948 L 6.099139 9.231316 Z M 6.097547 20.297089 " stroke="#052944" stroke-width="2.381791" stroke-opacity="1" stroke-miterlimit="4"/><g fill="#88b4d6" fill-opacity="1"><g transform="translate(137.111931, 298.036016)"><g><path d="M 11.78125 -29.65625 C 11.851562 -29.71875 11.78125 -29.925781 11.5625 -30.28125 C 11.34375 -30.632812 11.1875 -30.9375 11.09375 -31.1875 L 13 -31.515625 L 17.78125 -25.71875 L 16.84375 -24.671875 L 15.890625 -25.5625 L 14.125 -26.75 C 13.132812 -27.445312 12.210938 -27.90625 11.359375 -28.125 C 10.503906 -28.351562 9.273438 -28.332031 7.671875 -28.0625 C 6.066406 -27.789062 4.785156 -27.003906 3.828125 -25.703125 C 2.878906 -24.398438 2.5 -23.160156 2.6875 -21.984375 C 2.882812 -20.816406 3.414062 -19.992188 4.28125 -19.515625 C 5.144531 -19.035156 6.15625 -18.65625 7.3125 -18.375 C 8.476562 -18.101562 9.335938 -17.941406 9.890625 -17.890625 C 12.847656 -17.691406 15.023438 -17.265625 16.421875 -16.609375 C 19.140625 -15.390625 20.710938 -13.5 21.140625 -10.9375 C 21.367188 -9.53125 21.210938 -8.226562 20.671875 -7.03125 C 20.140625 -5.832031 19.550781 -4.953125 18.90625 -4.390625 C 17.320312 -2.921875 15.035156 -1.9375 12.046875 -1.4375 C 10.242188 -1.132812 8.523438 -1.285156 6.890625 -1.890625 L 6.265625 -2.140625 L 6.453125 -1.484375 C 6.566406 -1.234375 6.679688 -1 6.796875 -0.78125 L 4.90625 -0.46875 L 0.125 -6.25 L 1.046875 -7.3125 L 2.015625 -6.40625 L 3.78125 -5.21875 C 5.945312 -3.625 8.148438 -3.015625 10.390625 -3.390625 C 10.460938 -3.398438 10.539062 -3.414062 10.625 -3.4375 C 12.925781 -3.882812 14.65625 -4.804688 15.8125 -6.203125 C 16.976562 -7.609375 17.453125 -8.953125 17.234375 -10.234375 C 17.023438 -11.515625 16.625 -12.363281 16.03125 -12.78125 C 14.75 -13.695312 13.707031 -14.203125 12.90625 -14.296875 C 8.988281 -14.796875 5.90625 -15.378906 3.65625 -16.046875 C 1.019531 -16.847656 -0.503906 -18.492188 -0.921875 -20.984375 L -0.953125 -21.140625 C -1.160156 -22.378906 -1.066406 -23.550781 -0.671875 -24.65625 C -0.273438 -25.769531 0.332031 -26.679688 1.15625 -27.390625 C 2.832031 -28.828125 4.59375 -29.695312 6.4375 -30 C 8.289062 -30.3125 10.070312 -30.195312 11.78125 -29.65625 Z M 11.78125 -29.65625 "/></g></g></g><g fill="#88b4d6" fill-opacity="1"><g transform="translate(160.684316, 294.021181)"><g><path d="M 15.34375 -3.734375 C 19.6875 -4.234375 22.691406 -5.785156 24.359375 -8.390625 L 25.015625 -9.515625 L 26.21875 -8.734375 C 25.382812 -7.304688 24.789062 -6.394531 24.4375 -6 C 24.082031 -5.613281 23.695312 -5.226562 23.28125 -4.84375 C 22.875 -4.457031 22.472656 -4.140625 22.078125 -3.890625 C 21.679688 -3.640625 21.398438 -3.453125 21.234375 -3.328125 L 20.671875 -3.046875 C 18.910156 -2.128906 17.019531 -1.550781 15 -1.3125 C 12.976562 -1.082031 11.128906 -1.242188 9.453125 -1.796875 C 7.773438 -2.347656 6.273438 -3.234375 4.953125 -4.453125 C 3.640625 -5.671875 2.507812 -7.238281 1.5625 -9.15625 C 0.625 -11.070312 0.046875 -12.960938 -0.171875 -14.828125 C -0.722656 -19.535156 0.816406 -23.644531 4.453125 -27.15625 C 6.460938 -29.050781 8.71875 -30.144531 11.21875 -30.4375 C 13.726562 -30.726562 15.8125 -30.648438 17.46875 -30.203125 C 17.601562 -30.179688 17.703125 -30.171875 17.765625 -30.171875 C 17.828125 -30.179688 17.851562 -30.234375 17.84375 -30.328125 C 17.832031 -30.429688 17.738281 -30.59375 17.5625 -30.8125 L 19.484375 -31.046875 L 23.859375 -25.78125 L 22.875 -24.78125 L 21.953125 -25.71875 L 20.265625 -27 C 18.984375 -27.96875 17.734375 -28.492188 16.515625 -28.578125 C 15.304688 -28.671875 14.191406 -28.65625 13.171875 -28.53125 C 12.148438 -28.414062 11.179688 -28.144531 10.265625 -27.71875 C 9.359375 -27.300781 8.476562 -26.691406 7.625 -25.890625 C 6.769531 -25.085938 6.007812 -24.179688 5.34375 -23.171875 C 4.6875 -22.160156 4.203125 -21 3.890625 -19.6875 C 3.578125 -18.382812 3.492188 -17.066406 3.640625 -15.734375 C 4.066406 -12.078125 5.421875 -9.078125 7.703125 -6.734375 C 9.984375 -4.398438 12.53125 -3.398438 15.34375 -3.734375 Z M 15.34375 -3.734375 "/></g></g></g><g fill="#88b4d6" fill-opacity="1"><g transform="translate(188.327692, 290.737698)"><g><path d="M 27.828125 -3.390625 L 30 -3.515625 L 30.109375 -1.78125 L 17.84375 -1.0625 L 17.734375 -2.796875 L 20.4375 -2.953125 C 20.976562 -2.984375 21.242188 -3.128906 21.234375 -3.390625 C 21.222656 -3.566406 21.101562 -3.78125 20.875 -4.03125 L 12.4375 -13.46875 L 9 -13.265625 L 9.578125 -3.4375 C 9.617188 -2.6875 10.21875 -2.34375 11.375 -2.40625 L 13.90625 -2.5625 L 14.015625 -0.828125 L 1.546875 -0.09375 L 1.4375 -1.828125 L 4.21875 -1.984375 C 4.59375 -2.015625 4.945312 -2.144531 5.28125 -2.375 C 5.625 -2.613281 5.785156 -2.890625 5.765625 -3.203125 L 4.46875 -25.234375 C 4.4375 -25.671875 4.234375 -26.0625 3.859375 -26.40625 C 3.492188 -26.75 3.046875 -26.898438 2.515625 -26.859375 L -0.03125 -26.71875 L -0.125 -28.46875 L 13.859375 -29.296875 C 16.660156 -29.460938 18.90625 -28.8125 20.59375 -27.34375 C 22.289062 -25.882812 23.210938 -23.972656 23.359375 -21.609375 C 23.617188 -17.210938 21.300781 -14.613281 16.40625 -13.8125 L 24.921875 -4.265625 C 25.546875 -3.597656 26.515625 -3.304688 27.828125 -3.390625 Z M 8.265625 -25.671875 L 8.890625 -14.984375 L 13.859375 -15.28125 C 17.671875 -15.5 19.460938 -17.539062 19.234375 -21.40625 C 19.015625 -25.28125 17.695312 -27.304688 15.28125 -27.484375 C 14.46875 -27.523438 13.238281 -27.5 11.59375 -27.40625 C 9.957031 -27.3125 8.988281 -27.109375 8.6875 -26.796875 C 8.382812 -26.484375 8.242188 -26.109375 8.265625 -25.671875 Z M 8.265625 -25.671875 "/></g></g></g><g fill="#88b4d6" fill-opacity="1"><g transform="translate(219.213608, 288.948825)"><g><path d="M 17.734375 -16.125 C 19.023438 -16.53125 19.671875 -17.378906 19.671875 -18.671875 L 19.65625 -20.40625 L 21.390625 -20.421875 L 21.4375 -10.078125 L 19.703125 -10.0625 L 19.6875 -12.03125 C 19.6875 -13.03125 19.039062 -13.800781 17.75 -14.34375 L 9.484375 -14.3125 L 9.515625 -3.546875 C 9.648438 -2.796875 10.054688 -2.242188 10.734375 -1.890625 L 21.734375 -1.890625 C 23.078125 -2.066406 23.742188 -2.789062 23.734375 -4.0625 L 23.734375 -6.171875 L 25.46875 -6.1875 L 25.484375 -0.09375 L 1.546875 0 L 1.546875 -1.734375 L 4.28125 -1.75 C 5 -1.851562 5.523438 -2.226562 5.859375 -2.875 L 5.78125 -24.921875 C 5.695312 -25.359375 5.492188 -25.738281 5.171875 -26.0625 C 4.847656 -26.382812 4.441406 -26.582031 3.953125 -26.65625 L 1.453125 -26.640625 L 1.453125 -28.375 L 24.765625 -28.46875 L 24.78125 -22.328125 L 23.046875 -22.3125 L 23.046875 -24.671875 C 22.929688 -25.390625 22.285156 -26.046875 21.109375 -26.640625 L 10.828125 -26.59375 C 10.390625 -26.519531 9.925781 -26.03125 9.4375 -25.125 L 9.46875 -16.09375 Z M 17.734375 -16.125 "/></g></g></g><g fill="#88b4d6" fill-opacity="1"><g transform="translate(245.921501, 288.83775)"><g><path d="M 18.546875 -15.1875 C 19.859375 -15.53125 20.546875 -16.347656 20.609375 -17.640625 L 20.703125 -19.359375 L 22.421875 -19.28125 L 21.921875 -8.953125 L 20.203125 -9.03125 L 20.296875 -11 C 20.335938 -12 19.726562 -12.800781 18.46875 -13.40625 L 10.203125 -13.8125 L 9.6875 -3.0625 C 9.78125 -2.300781 10.15625 -1.726562 10.8125 -1.34375 L 21.796875 -0.765625 C 23.140625 -0.878906 23.84375 -1.570312 23.90625 -2.84375 L 24.015625 -4.953125 L 25.75 -4.875 L 25.453125 1.21875 L 1.546875 0.078125 L 1.625 -1.65625 L 4.359375 -1.53125 C 5.085938 -1.601562 5.640625 -1.953125 6.015625 -2.578125 L 7.078125 -24.59375 C 7.015625 -25.03125 6.828125 -25.414062 6.515625 -25.75 C 6.210938 -26.09375 5.816406 -26.316406 5.328125 -26.421875 L 2.828125 -26.53125 L 2.90625 -28.265625 L 26.1875 -27.140625 L 25.890625 -21 L 24.15625 -21.09375 L 24.28125 -23.453125 C 24.207031 -24.171875 23.597656 -24.859375 22.453125 -25.515625 L 12.1875 -26 C 11.738281 -25.945312 11.25 -25.484375 10.71875 -24.609375 L 10.28125 -15.59375 Z M 18.546875 -15.1875 "/></g></g></g><g fill="#88b4d6" fill-opacity="1"><g transform="translate(272.499411, 289.959897)"><g><path d="M 10.171875 -3.25 C 9.984375 -1.53125 11.03125 -0.546875 13.3125 -0.296875 L 14.15625 -0.203125 L 13.96875 1.515625 L 2.6875 0.296875 L 2.875 -1.421875 L 3.84375 -1.375 C 6.070312 -1.195312 7.273438 -1.914062 7.453125 -3.53125 L 9.703125 -24.265625 C 9.660156 -24.867188 9.101562 -25.316406 8.03125 -25.609375 L 5.53125 -25.875 L 5.71875 -27.609375 L 12.8125 -26.84375 L 27.34375 -5.34375 L 29 -20.609375 C 29.195312 -22.398438 28.21875 -23.414062 26.0625 -23.65625 L 25 -23.765625 L 25.1875 -25.5 L 36.453125 -24.28125 L 36.265625 -22.515625 L 35.28125 -22.625 C 33.101562 -22.851562 31.914062 -22.082031 31.71875 -20.3125 L 29.046875 4.328125 L 12.078125 -20.875 Z M 10.171875 -3.25 "/></g></g></g></svg>